<?xml version="1.0" encoding="utf-8"?>
<!-- Generator: Adobe Illustrator 16.0.0, SVG Export Plug-In . SVG Version: 6.00 Build 0)  -->
<!DOCTYPE svg PUBLIC "-//W3C//DTD SVG 1.1//EN" "http://www.w3.org/Graphics/SVG/1.1/DTD/svg11.dtd">
<svg version="1.1" id="Vrstva_1" xmlns="http://www.w3.org/2000/svg" xmlns:xlink="http://www.w3.org/1999/xlink" x="0px" y="0px"
	 width="24px" height="24px" viewBox="0 0 24 24" enable-background="new 0 0 24 24" xml:space="preserve">
<g>
	<g>
		<path fill="none" stroke="#292D32" stroke-width="1.5" stroke-linecap="round" stroke-linejoin="round" d="M22.605,10v5
			c0,5-2,7-7,7h-6c-5,0-7-2-7-7V9c0-5,2-7,7-7h5"/>
		<path fill="none" stroke="#292D32" stroke-width="1.5" stroke-linecap="round" stroke-linejoin="round" d="M22.605,10h-4
			c-3,0-4-1-4-4V2L22.605,10z"/>
	</g>
</g>
<g>
	<g>
		<rect x="5.314" y="7.875" fill="#CCCED0" width="7.354" height="2.125"/>
	</g>
</g>
<g>
	<g>
		<rect x="5.314" y="16.541" fill="#CCCED0" width="7.354" height="2.125"/>
	</g>
</g>
<g>
	<g>
		<path fill="#292D32" d="M15.771,17.664c-1.891,0-3.431-1.54-3.431-3.433c0-1.892,1.54-3.432,3.431-3.432
			c1.895,0,3.434,1.54,3.434,3.432C19.205,16.124,17.666,17.664,15.771,17.664z M15.771,11.302c-1.615,0-2.93,1.314-2.93,2.93
			c0,1.616,1.314,2.931,2.93,2.931c1.617,0,2.932-1.314,2.932-2.931C18.703,12.616,17.389,11.302,15.771,11.302z"/>
	</g>
	<g>
		<path fill="#292D32" d="M19.289,17.999c-0.064,0-0.129-0.025-0.178-0.074l-0.67-0.669c-0.098-0.099-0.098-0.258,0-0.355
			c0.098-0.099,0.258-0.099,0.355,0l0.67,0.669c0.098,0.099,0.098,0.257,0,0.355C19.418,17.974,19.354,17.999,19.289,17.999z"/>
	</g>
</g>
<g>
	<path fill="#292D32" d="M15.771,17.664c-1.891,0-3.431-1.54-3.431-3.433c0-1.892,1.54-3.432,3.431-3.432
		c1.895,0,3.434,1.54,3.434,3.432C19.205,16.124,17.666,17.664,15.771,17.664z M15.771,11.302c-1.615,0-2.93,1.314-2.93,2.93
		c0,1.616,1.314,2.931,2.93,2.931c1.617,0,2.932-1.314,2.932-2.931C18.703,12.616,17.389,11.302,15.771,11.302z"/>
</g>
<path fill="#292D32" d="M16.104,12.208h-1.96c-0.505,0.526-0.819,1.237-0.819,2.022c0,0.035,0.009,0.067,0.011,0.103h2.769V12.208z"
	/>
<g>
	<path fill="#292D32" d="M12.824,14.23c0-0.759,0.256-1.454,0.674-2.022h-0.255c-0.506,0.526-0.82,1.237-0.82,2.023
		c0,0.035,0.009,0.067,0.01,0.102h0.402C12.834,14.298,12.824,14.266,12.824,14.23z"/>
	<path fill="#292D32" d="M11.922,14.231c0-0.759,0.256-1.454,0.675-2.023H5.314v2.125h6.618
		C11.931,14.299,11.922,14.267,11.922,14.231z"/>
</g>
</svg>
