<?xml version="1.0" encoding="utf-8"?>
<!-- Generator: Adobe Illustrator 16.0.0, SVG Export Plug-In . SVG Version: 6.00 Build 0)  -->
<!DOCTYPE svg PUBLIC "-//W3C//DTD SVG 1.1//EN" "http://www.w3.org/Graphics/SVG/1.1/DTD/svg11.dtd">
<svg version="1.1" id="Vrstva_1" xmlns="http://www.w3.org/2000/svg" xmlns:xlink="http://www.w3.org/1999/xlink" x="0px" y="0px"
	 width="24px" height="24px" viewBox="0 0 24 24" enable-background="new 0 0 24 24" xml:space="preserve">
<g>
	<g>
		<path fill="none" stroke="#292D32" stroke-width="1.5" stroke-linecap="round" stroke-linejoin="round" d="M22.605,10v5
			c0,5-2,7-7,7h-6c-5,0-7-2-7-7V9c0-5,2-7,7-7h5"/>
		<path fill="none" stroke="#292D32" stroke-width="1.5" stroke-linecap="round" stroke-linejoin="round" d="M22.605,10h-4
			c-3,0-4-1-4-4V2L22.605,10z"/>
	</g>
</g>
<g>
	<g>
		<rect x="5.314" y="7.875" fill="#CCCED0" width="7.354" height="2.125"/>
	</g>
</g>
<g>
	<g>
		<rect x="5.314" y="12.208" fill="#292D32" width="7.354" height="2.125"/>
	</g>
</g>
<path fill="#292D32" d="M20.58,12.936c-0.046-0.018-0.102-0.026-0.171-0.023l-0.923,0.024c-1.776,0.051-3.553,0.102-5.333,0.148
	c-0.148,0.007-0.268,0.072-0.339,0.183c-0.056,0.089-0.071,0.199-0.044,0.291c0.002,0.013,0.006,0.029,0.018,0.061l0.02,0.029
	c0.018,0.027,0.042,0.062,0.069,0.089c1.44,1.562,2.883,3.126,4.323,4.684c0.101,0.108,0.224,0.156,0.346,0.138
	c0.029-0.006,0.059-0.014,0.086-0.024c0.153-0.063,0.239-0.206,0.229-0.388l-0.042-1c-0.022-0.534-0.045-1.067-0.069-1.603
	c-0.001-0.029,0.004-0.046,0.024-0.063c0.642-0.636,1.284-1.274,1.928-1.915c0.1-0.102,0.145-0.24,0.113-0.368
	C20.787,13.072,20.702,12.978,20.58,12.936z M19.522,13.684c-0.176,0.175-0.351,0.349-0.527,0.522
	c-0.281,0.28-0.563,0.561-0.847,0.84c-0.112,0.109-0.16,0.233-0.151,0.391c0.011,0.168,0.019,0.338,0.026,0.508
	c0.003,0.107,0.007,0.213,0.012,0.317c0.009,0.304,0.023,0.605,0.037,0.92c-0.677-0.731-1.352-1.463-2.026-2.191l-1.087-1.177
	c1.282-0.036,2.553-0.072,3.827-0.108L19.522,13.684z"/>
<g>
	<g>
		<rect x="5.314" y="16.541" fill="#CCCED0" width="7.354" height="2.125"/>
	</g>
</g>
</svg>
