<?xml version="1.0" encoding="UTF-8" standalone="no"?>
<!-- Created with Inkscape (http://www.inkscape.org/) -->

<svg
   width="24"
   height="24"
   viewBox="0 0 24 24"
   version="1.1"
   id="svg1"
   inkscape:version="1.4.3 (0d15f75, 2025-12-25)"
   sodipodi:docname="about.svg"
   xmlns:inkscape="http://www.inkscape.org/namespaces/inkscape"
   xmlns:sodipodi="http://sodipodi.sourceforge.net/DTD/sodipodi-0.dtd"
   xmlns="http://www.w3.org/2000/svg"
   xmlns:svg="http://www.w3.org/2000/svg">
  <sodipodi:namedview
     id="namedview1"
     pagecolor="#ffffff"
     bordercolor="#000000"
     borderopacity="0.25"
     inkscape:showpageshadow="2"
     inkscape:pageopacity="0.0"
     inkscape:pagecheckerboard="0"
     inkscape:deskcolor="#d1d1d1"
     inkscape:document-units="px"
     inkscape:zoom="8.9272231"
     inkscape:cx="12.097827"
     inkscape:cy="-0.33605075"
     inkscape:window-width="1920"
     inkscape:window-height="1010"
     inkscape:window-x="1913"
     inkscape:window-y="-6"
     inkscape:window-maximized="1"
     inkscape:current-layer="layer1" />
  <defs
     id="defs1">
    <pattern
       id="EMFhbasepattern"
       patternUnits="userSpaceOnUse"
       width="6"
       height="6"
       x="0"
       y="0" />
  </defs>
  <g
     inkscape:label="Vrstva 1"
     inkscape:groupmode="layer"
     id="layer1">
    <path
       style="fill:#000000;stroke-width:0.419393"
       d="M 1.9313933,23.329497 C 1.364885,22.989927 0.90707596,22.491371 0.62310683,21.90477 0.20086968,21.032544 0.1862783,20.700106 0.1862783,11.952424 0.1862783,2.3283663 0.18556954,2.3358457 1.2053242,1.1748686 2.0273362,0.23901562 2.1840677,0.22413216 11.827045,0.16620921 22.22199,0.10376325 22.084872,0.08479933 23.178467,1.7367428 l 0.556966,0.8413344 0.06364,8.7026048 c 0.035,4.786435 0.0051,9.106918 -0.06647,9.601074 -0.143148,0.988373 -1.026258,2.163899 -2.006427,2.670765 -0.486143,0.251395 -2.155452,0.302956 -9.754909,0.301315 l -9.1684146,-0.002 z M 21.349561,22.334032 C 22.767475,21.386804 22.757162,21.466419 22.721155,11.745035 22.691238,3.6688125 22.659949,2.9658064 22.306201,2.425755 21.556396,1.2810312 21.271471,1.2486 11.967578,1.2489563 2.4042201,1.2493192 2.3294542,1.2597991 1.5959662,2.7139115 1.2575332,3.3848029 1.2310701,4.1818363 1.2819774,12.170804 c 0.053838,8.448817 0.069279,8.742901 0.4891245,9.314996 0.9669315,1.317577 1.0070971,1.322704 10.3681231,1.323062 8.487779,3.24e-4 8.500016,-3.07e-4 9.210336,-0.47483 z M 9.8064932,17.879461 C 9.4270988,17.422318 9.7865778,16.864374 10.516687,16.777166 l 0.554533,-0.06623 V 13.998367 11.2858 l -0.614595,-0.122917 c -0.6934572,-0.1387 -0.9758357,-0.614887 -0.6193399,-1.044438 0.3602839,-0.4341149 3.0307779,-0.3976873 3.2001359,0.04366 0.06988,0.182116 0.127058,1.730096 0.127058,3.439971 v 3.108865 l 0.575646,0.06622 c 0.485337,0.05585 0.575646,0.164745 0.575646,0.694213 v 0.627978 l -2.114169,0.05931 C 10.460107,18.20752 10.03791,18.158297 9.8064935,17.879456 Z M 11.208326,7.9829056 c -0.394673,-0.4361105 -0.446993,-1.1314269 -0.12974,-1.7242188 0.327427,-0.6118 1.5612,-0.5520007 1.985956,0.096258 0.833943,1.272758 -0.845048,2.7452855 -1.856215,1.6279587 z"
       id="path1" />
  </g>
</svg>
