<?xml version="1.0" encoding="UTF-8" standalone="no"?>
<!-- Created with Inkscape (http://www.inkscape.org/) -->

<svg
   width="24"
   height="24"
   viewBox="0 0 24 24"
   version="1.1"
   id="svg1"
   xml:space="preserve"
   inkscape:version="1.4.3 (0d15f75, 2025-12-25)"
   sodipodi:docname="clear.svg"
   xmlns:inkscape="http://www.inkscape.org/namespaces/inkscape"
   xmlns:sodipodi="http://sodipodi.sourceforge.net/DTD/sodipodi-0.dtd"
   xmlns="http://www.w3.org/2000/svg"
   xmlns:svg="http://www.w3.org/2000/svg"><sodipodi:namedview
     id="namedview1"
     pagecolor="#ffffff"
     bordercolor="#000000"
     borderopacity="0.25"
     inkscape:showpageshadow="2"
     inkscape:pageopacity="0.0"
     inkscape:pagecheckerboard="0"
     inkscape:deskcolor="#d1d1d1"
     inkscape:document-units="px"
     inkscape:zoom="12.625"
     inkscape:cx="31.287129"
     inkscape:cy="23.049505"
     inkscape:window-width="1920"
     inkscape:window-height="1010"
     inkscape:window-x="1913"
     inkscape:window-y="-6"
     inkscape:window-maximized="1"
     inkscape:current-layer="layer1" /><defs
     id="defs1" /><g
     inkscape:label="Vrstva 1"
     inkscape:groupmode="layer"
     id="layer1"><path
       style="fill:#000000;stroke-width:0.113972"
       d="m 0.29657895,23.725437 c -0.33242913,-0.308084 -0.41252974,-0.991202 -0.15548232,-1.325995 0.31885203,-0.415294 0.58299954,-0.446011 3.83543267,-0.446011 1.7592878,0 3.1987055,-0.03886 3.1987055,-0.08635 0,-0.04749 -1.2610871,-1.342499 -2.8024166,-2.87779 C 2.8314899,17.454002 1.4557653,16.018348 1.3156544,15.798953 0.75472677,14.920617 0.65054262,13.581074 1.0737865,12.689153 1.3328576,12.143201 12.782404,0.5804127 13.374488,0.26678914 c 0.640508,-0.33927083 2.18951,-0.35716595 2.861511,-0.0330855 0.284976,0.13743748 1.764667,1.52608486 3.946949,3.70408596 l 3.49106,3.4842184 0.199971,0.7638539 c 0.223464,0.8535943 0.178686,1.4313145 -0.172465,2.2251511 -0.159528,0.360638 -1.5601,1.844278 -5.266071,5.578404 -2.776807,2.797905 -5.189782,5.215949 -5.362164,5.373432 -0.652364,0.595982 -0.69169,0.590572 4.292306,0.590572 h 4.605729 l 0.295062,0.35066 c 0.399661,0.474969 0.386628,0.942971 -0.03809,1.367685 l -0.333147,0.333149 H 11.246649 0.59815409 Z m 9.93657905,-2.754 c 0.37343,-0.07469 1.614923,-1.110849 1.614923,-1.347831 0,-0.180945 -7.2833466,-7.471757 -7.4641067,-7.471757 -0.074732,0 -0.4517312,0.328929 -0.8377745,0.730954 -0.7595889,0.791033 -0.865844,1.137057 -0.5384863,1.753595 0.2317201,0.436418 5.9888443,6.14482 6.3329861,6.279392 0.3522076,0.137726 0.4512047,0.143898 0.8924584,0.05564 z m 7.378475,-7.065708 C 19.863892,11.610767 21.750304,9.6078083 21.803662,9.4547096 22.045527,8.7607428 21.909198,8.5835194 18.600086,5.2902602 16.453207,3.1536643 15.346729,2.1306837 15.153265,2.1035512 14.293458,1.9829221 14.493945,1.8077503 8.3154512,8.0799498 l -2.4444113,2.4814832 3.757183,3.758478 c 2.0664511,2.067162 3.7867051,3.758476 3.8227891,3.758476 0.03608,0 1.908363,-1.877696 4.160621,-4.172658 z"
       id="path1" /></g></svg>
