<?xml version="1.0" encoding="UTF-8" standalone="no"?>
<!-- Created with Inkscape (http://www.inkscape.org/) -->

<svg
   width="24"
   height="24"
   viewBox="0 0 24 24"
   version="1.1"
   id="svg1"
   inkscape:version="1.4.3 (0d15f75, 2025-12-25)"
   sodipodi:docname="clone-selection.svg"
   xml:space="preserve"
   xmlns:inkscape="http://www.inkscape.org/namespaces/inkscape"
   xmlns:sodipodi="http://sodipodi.sourceforge.net/DTD/sodipodi-0.dtd"
   xmlns="http://www.w3.org/2000/svg"
   xmlns:svg="http://www.w3.org/2000/svg"><sodipodi:namedview
     id="namedview1"
     pagecolor="#ffffff"
     bordercolor="#000000"
     borderopacity="0.25"
     inkscape:showpageshadow="2"
     inkscape:pageopacity="0.0"
     inkscape:pagecheckerboard="0"
     inkscape:deskcolor="#d1d1d1"
     inkscape:document-units="px"
     inkscape:zoom="17.488718"
     inkscape:cx="18.29751"
     inkscape:cy="19.669823"
     inkscape:window-width="1920"
     inkscape:window-height="1010"
     inkscape:window-x="1913"
     inkscape:window-y="-6"
     inkscape:window-maximized="1"
     inkscape:current-layer="layer1" /><defs
     id="defs1" /><g
     inkscape:label="Vrstva 1"
     inkscape:groupmode="layer"
     id="layer1"><path
       style="fill:#000000;stroke-width:0.0256817"
       d="m 13.656546,23.967282 c -0.119103,-0.04248 -0.255089,-0.144324 -0.326285,-0.244307 -0.135913,-0.190872 -0.129093,-0.0083 -0.129709,-3.472675 l -5.73e-4,-3.216849 0.06562,-0.134121 c 0.07543,-0.154174 0.202848,-0.275673 0.370431,-0.353214 0.112667,-0.05211 0.159623,-0.05437 1.304654,-0.06169 l 1.187776,-0.0076 v -1.111381 c 0,-1.260763 -5.5e-5,-1.260361 0.196059,-1.47849 0.08083,-0.0899 0.155606,-0.142575 0.255418,-0.179919 0.139363,-0.05211 0.177549,-0.05278 3.054069,-0.05278 2.841474,0 2.916278,0.0012 3.049016,0.05089 0.171234,0.06406 0.3171,0.203727 0.40282,0.385675 l 0.06655,0.141247 v 3.312937 3.31293 l -0.07166,0.145922 c -0.08105,0.165029 -0.207561,0.287911 -0.370749,0.360094 -0.10414,0.04608 -0.18204,0.04907 -1.234019,0.04785 -0.617579,-6.09e-4 -1.171983,0.0055 -1.232019,0.01426 l -0.109144,0.01554 v 1.007405 1.007412 l -0.08055,0.161189 c -0.08332,0.166723 -0.218909,0.289252 -0.389838,0.352268 -0.127496,0.04699 -5.875837,0.04456 -6.007868,-0.0024 z m 5.611996,-1.048406 c 0.0071,-0.116531 0.0114,-1.413774 0.0094,-2.882768 l -0.0037,-2.670892 -2.613105,-0.0065 -2.613112,-0.0065 v 2.889314 2.889308 h 2.603652 2.603652 z m 3.023514,-5.38673 v -3.004753 h -2.65805 -2.65805 v 0.974803 0.974797 l 1.303344,0.0076 1.303343,0.0075 0.147384,0.07237 c 0.08696,0.04273 0.18421,0.117317 0.237213,0.182004 0.172952,0.211064 0.167558,0.14472 0.167558,2.0602 v 1.730282 h 1.078632 1.078626 z M 1.9778651,21.509869 C 1.9001778,21.497435 1.7406708,21.440141 1.6234084,21.382562 1.2495818,21.198985 0.99902107,20.87902 0.90051315,20.45942 0.84791301,20.235525 0.84785206,20.221635 0.84785206,10.769951 0.84785206,0.28807995 0.83395539,1.1157001 1.0160994,0.74336065 1.1875526,0.39285966 1.5644085,0.09490398 1.932579,0.01876483 2.0277956,-9.221352e-4 3.433621,-0.00720001 6.6904287,-0.00238494 l 4.6226993,0.00682644 0.135328,0.074975 c 0.100745,0.0558305 0.737926,0.67980952 2.4936,2.4419871 1.953433,1.9606685 2.36998,2.3909352 2.426451,2.5063507 l 0.06817,0.1393385 0.0012,3.5881092 c 0.0012,3.883249 0.009,3.656062 -0.133384,3.7851 -0.09892,0.08964 -0.164493,0.112356 -0.32439,0.112356 -0.189299,0 -0.302064,-0.0676 -0.384292,-0.230368 l -0.05778,-0.114379 V 9.104234 5.9005508 l -1.894019,-0.00786 c -1.879078,-0.0078 -1.895333,-0.00829 -2.062788,-0.064909 C 11.176788,5.6910341 10.854958,5.3814003 10.702996,4.98284 10.646008,4.833341 10.645642,4.8226382 10.632861,2.8807668 L 10.62,0.92896049 6.4338888,0.92176836 C 3.2428709,0.91628283 2.2210142,0.92186588 2.1351901,0.94535613 1.9899271,0.9850348 1.838173,1.1294139 1.8014261,1.2628586 1.761016,1.409566 1.761016,20.095797 1.8014017,20.241608 c 0.03718,0.134255 0.1099726,0.234116 0.2108454,0.289301 0.076218,0.04169 0.3855474,0.04541 4.8215855,0.05741 l 4.7401504,0.01286 0.108266,0.07165 c 0.152967,0.101232 0.208779,0.20422 0.208895,0.385474 1.47e-4,0.221201 -0.08884,0.357145 -0.288344,0.440506 -0.08478,0.03541 -0.605998,0.03944 -4.7892821,0.03675 -2.5817828,-0.0018 -4.7577096,-0.01317 -4.8353968,-0.0256 z M 14.706379,4.6335337 C 14.543215,4.4605018 13.76213,3.6717558 12.970629,2.8807607 l -1.439098,-1.4381718 9.8e-5,1.5408975 c 6.7e-5,0.9808675 0.0098,1.5756147 0.02663,1.6364127 0.0331,0.1190664 0.125789,0.2313918 0.235725,0.2855827 0.07465,0.036814 0.260801,0.041568 1.64661,0.042056 l 1.562444,5.851e-4 z M 4.2956659,17.107975 C 3.9050169,17.023115 3.6292594,16.75901 3.509492,16.355025 3.477493,16.247186 3.470057,16.112217 3.474567,15.721251 c 0.00634,-0.551594 0.012434,-0.573152 0.1980398,-0.699484 0.1774874,-0.120797 0.476205,-0.05028 0.5947716,0.140448 0.055648,0.08946 0.061377,0.131915 0.073207,0.539496 0.017127,0.590614 -0.01859,0.554885 0.5721042,0.572037 0.4952762,0.01438 0.5624862,0.03383 0.65958,0.190933 0.1570934,0.254187 0.034071,0.576492 -0.2501584,0.655429 -0.1364556,0.03791 -0.8340931,0.02968 -1.026434,-0.01213 z m 2.6879037,0.01512 c -0.2001185,-0.06281 -0.3206539,-0.250852 -0.299815,-0.467725 0.013714,-0.142874 0.071684,-0.237164 0.1990455,-0.323847 0.083514,-0.05687 0.097728,-0.05778 0.8708159,-0.05736 0.7659323,4.09e-4 0.7884535,0.0018 0.8859679,0.05778 0.1318234,0.07558 0.1952849,0.198546 0.1952849,0.378435 0,0.109698 -0.014811,0.163907 -0.064943,0.237682 -0.1237536,0.182119 -0.140582,0.185417 -0.9751687,0.190939 -0.4096228,0.0024 -0.7746543,-0.0043 -0.8111879,-0.01591 z m 3.1728424,-0.02286 c -0.05711,-0.02682 -0.134395,-0.08512 -0.1718006,-0.129574 -0.1604883,-0.190738 -0.097947,-0.527556 0.1214986,-0.654265 0.0306,-0.01768 0.230045,-0.03486 0.49385,-0.04261 0.441799,-0.01292 0.442591,-0.01304 0.513629,-0.08407 0.07105,-0.07104 0.07116,-0.07175 0.08399,-0.513629 0.01451,-0.499342 0.03395,-0.56131 0.20664,-0.658367 0.202953,-0.114069 0.446992,-0.05138 0.58246,0.149657 0.05571,0.08267 0.05839,0.109339 0.05839,0.580936 0,0.419747 -0.0077,0.519072 -0.05077,0.658599 -0.09866,0.319429 -0.322275,0.555245 -0.633408,0.667985 -0.127923,0.04632 -0.221768,0.05601 -0.625607,0.0643 -0.425604,0.0088 -0.485927,0.0049 -0.5789,-0.03901 z m -6.4838169,-3.29837 c -0.046688,-0.03176 -0.1090828,-0.09041 -0.1386316,-0.130293 -0.05193,-0.07006 -0.053697,-0.100562 -0.053697,-0.903394 0,-0.802837 0.00183,-0.833337 0.053697,-0.903399 0.029561,-0.03986 0.093114,-0.09952 0.1412524,-0.132537 0.1240218,-0.08507 0.3622034,-0.0713 0.4930516,0.02853 0.1657788,0.126441 0.1762501,0.191987 0.1673452,1.047053 -0.00738,0.709005 -0.011215,0.762142 -0.060646,0.846302 -0.08296,0.141228 -0.1990577,0.205543 -0.3709986,0.205543 -0.1096435,0 -0.1678511,-0.01451 -0.2313918,-0.05778 z m 7.7685829,0.03352 c -0.08686,-0.03523 -0.216459,-0.185752 -0.231818,-0.26923 -0.008,-0.0434 -0.01103,-0.431388 -0.0067,-0.862197 0.0085,-0.858382 0.0049,-0.837006 0.1721,-0.963259 0.101281,-0.0764 0.333697,-0.08345 0.456195,-0.01384 0.205299,0.116671 0.200386,0.09292 0.208755,1.009569 0.0084,0.915493 0.0043,0.941409 -0.171167,1.060561 -0.07134,0.04846 -0.124211,0.06227 -0.233885,0.061 -0.07794,-6.1e-4 -0.164992,-0.01109 -0.19345,-0.02261 z M 3.7654163,10.571393 C 3.6682981,10.54232 3.5474397,10.427252 3.5017086,10.320296 3.4547159,10.210433 3.4566054,9.4236869 3.5041466,9.2435482 3.5532726,9.0578082 3.6389505,8.9087115 3.7742236,8.7734444 4.0196584,8.5280035 4.2310281,8.4664254 4.8273722,8.4666265 c 0.2336226,7.93e-5 0.4671538,0.011885 0.5189616,0.026331 0.1105395,0.030719 0.2343113,0.1616037 0.2780188,0.2940427 0.057659,0.1747567 -0.027123,0.3930199 -0.1912682,0.4924664 -0.065698,0.039801 -0.1515347,0.049431 -0.5363934,0.060219 -0.5887192,0.016518 -0.5560255,-0.01347 -0.5568117,0.5100568 -6.095e-4,0.4957996 -0.054673,0.6238206 -0.2994978,0.7111366 -0.1118316,0.03986 -0.1696369,0.04212 -0.2750993,0.01055 z m 7.7381267,0.003 c -0.09895,-0.03163 -0.193853,-0.09999 -0.246392,-0.177396 -0.03907,-0.05754 -0.04882,-0.139515 -0.05955,-0.4983539 -0.01719,-0.5757132 0.01719,-0.5420747 -0.57206,-0.5591835 -0.382646,-0.011093 -0.454495,-0.01987 -0.532249,-0.06479 -0.1072239,-0.061974 -0.2054515,-0.2404005 -0.2054515,-0.373199 0,-0.1444157 0.099465,-0.3069642 0.2301055,-0.3760453 0.104561,-0.055282 0.141216,-0.059122 0.563645,-0.058817 0.634603,4.266e-4 0.8402,0.064034 1.094369,0.3385668 0.224931,0.2429541 0.252962,0.3456555 0.263836,0.9667271 l 0.0091,0.5223138 -0.06602,0.09975 c -0.03633,0.05485 -0.09952,0.117079 -0.140472,0.13826 -0.09589,0.04955 -0.254236,0.06932 -0.338884,0.04224 z M 6.920309,9.3033344 C 6.8145601,9.2572559 6.709049,9.1266272 6.6883076,9.0160572 6.6470443,8.7960814 6.7310338,8.6083117 6.9119649,8.5160024 c 0.096387,-0.049187 0.1417768,-0.051442 0.8820185,-0.044372 0.7454225,0.00713 0.7836445,0.00987 0.8528597,0.061206 0.1315796,0.097563 0.1880257,0.2086451 0.1880257,0.3700233 0,0.1684119 -0.061328,0.2824256 -0.2034461,0.3781907 -0.085452,0.057598 -0.097332,0.05839 -0.8597227,0.057415 -0.5845015,-6.088e-4 -0.7921775,-0.00932 -0.851391,-0.035107 z"
       id="path1" /></g></svg>
