<?xml version="1.0" encoding="UTF-8" standalone="no"?>
<!-- Created with Inkscape (http://www.inkscape.org/) -->

<svg
   width="24"
   height="24"
   viewBox="0 0 24 24"
   version="1.1"
   id="svg1"
   xml:space="preserve"
   inkscape:version="1.4.3 (0d15f75, 2025-12-25)"
   sodipodi:docname="close.svg"
   xmlns:inkscape="http://www.inkscape.org/namespaces/inkscape"
   xmlns:sodipodi="http://sodipodi.sourceforge.net/DTD/sodipodi-0.dtd"
   xmlns="http://www.w3.org/2000/svg"
   xmlns:svg="http://www.w3.org/2000/svg"><sodipodi:namedview
     id="namedview1"
     pagecolor="#ffffff"
     bordercolor="#000000"
     borderopacity="0.25"
     inkscape:showpageshadow="2"
     inkscape:pageopacity="0.0"
     inkscape:pagecheckerboard="0"
     inkscape:deskcolor="#d1d1d1"
     inkscape:document-units="px"
     inkscape:zoom="25.25"
     inkscape:cx="8.5148515"
     inkscape:cy="12.950495"
     inkscape:window-width="1920"
     inkscape:window-height="1010"
     inkscape:window-x="-6"
     inkscape:window-y="-6"
     inkscape:window-maximized="1"
     inkscape:current-layer="layer1" /><defs
     id="defs1" /><g
     inkscape:label="Vrstva 1"
     inkscape:groupmode="layer"
     id="layer1"><path
       style="fill:#000000;stroke-width:0.127413"
       d="M 10.547741,23.869403 C 6.0963405,23.177218 2.6223642,20.053215 1.5588231,15.786039 1.3055994,14.770045 1.2807342,14.422617 1.3399749,12.72813 1.4128998,10.642209 1.5948048,9.9018424 2.4514176,8.2044788 3.1062338,6.9069713 4.4936402,5.2663644 5.5064693,4.5918821 6.3192902,4.050593 7.2937529,4.5240732 7.2937529,5.460303 c 0,0.4390747 -0.1071947,0.5996274 -1.0608295,1.5888723 -1.1847684,1.2290098 -1.8129546,2.2059695 -2.2627727,3.5190807 -0.4069721,1.188033 -0.4445279,3.923536 -0.069005,5.026172 0.9318586,2.736181 2.9632001,4.766553 5.686039,5.683326 1.0036723,0.337933 3.7253823,0.339501 4.7142783,0.0027 3.968047,-1.351394 6.563825,-5.250818 6.005723,-9.021906 C 19.97779,10.032869 19.210674,8.5628418 17.495261,6.8700856 16.670406,6.0561255 16.594896,5.9377742 16.594896,5.4588999 c 0,-0.7096289 0.388385,-1.076783 1.139051,-1.076783 0.527985,0 0.599256,0.050689 1.839275,1.3081236 1.826901,1.85256 2.693146,3.5822652 3.018526,6.0273415 0.550703,4.138301 -1.318417,8.173963 -4.881,10.53867 -1.897305,1.259359 -4.977423,1.953031 -7.163007,1.613176 z m 0.731085,-11.711648 c -0.22587,-0.137719 -0.443107,-0.381181 -0.482748,-0.541029 -0.03964,-0.159847 -0.05551,-2.6894084 -0.03527,-5.6212482 l 0.0368,-5.33061613 0.35749,-0.30740475 c 0.511291,-0.43965526 1.147968,-0.41421001 1.627211,0.0650335 l 0.372438,0.37243798 v 5.3695192 c 0,3.4390841 -0.04717,5.4576484 -0.13119,5.6146504 -0.149811,0.279924 -0.764572,0.630237 -1.104758,0.629531 -0.126116,-2.67e-4 -0.414103,-0.113156 -0.639973,-0.250874 z"
       id="path1" /></g></svg>
