<?xml version="1.0" encoding="utf-8"?>
<!-- Generator: Adobe Illustrator 16.0.0, SVG Export Plug-In . SVG Version: 6.00 Build 0)  -->
<!DOCTYPE svg PUBLIC "-//W3C//DTD SVG 1.1//EN" "http://www.w3.org/Graphics/SVG/1.1/DTD/svg11.dtd">
<svg version="1.1" id="Vrstva_1" xmlns="http://www.w3.org/2000/svg" xmlns:xlink="http://www.w3.org/1999/xlink" x="0px" y="0px"
	 width="24px" height="24px" viewBox="0 0 24 24" enable-background="new 0 0 24 24" xml:space="preserve">
<g>
	<g>
		<path fill="#FFFFFF" d="M11.35,4.652v2.964c0,2.471-0.988,3.459-3.459,3.459H4.926c-2.471,0-3.459-0.988-3.459-3.459V4.652
			c0-2.472,0.988-3.459,3.459-3.459h2.965C10.361,1.193,11.35,2.181,11.35,4.652z"/>
		<path fill="#292D32" d="M7.891,11.604H4.926c-2.758,0-3.989-1.229-3.989-3.988V4.652c0-2.759,1.231-3.989,3.989-3.989h2.965
			c2.759,0,3.988,1.23,3.988,3.989v2.964C11.879,10.375,10.649,11.604,7.891,11.604z M4.926,1.722c-2.19,0-2.93,0.74-2.93,2.931
			v2.964c0,2.19,0.739,2.93,2.93,2.93h2.965c2.191,0,2.929-0.739,2.929-2.93V4.652c0-2.19-0.737-2.931-2.929-2.931L4.926,1.722
			L4.926,1.722z"/>
	</g>
	<g>
		<path fill="#FFFFFF" d="M22.534,16.384v2.966c0,2.471-0.988,3.459-3.459,3.459h-2.966c-2.471,0-3.459-0.988-3.459-3.459v-2.966
			c0-2.47,0.988-3.458,3.459-3.458h2.966C21.546,12.926,22.534,13.914,22.534,16.384z"/>
		<path fill="#292D32" d="M19.075,23.337h-2.966c-2.758,0-3.989-1.229-3.989-3.987v-2.966c0-2.758,1.231-3.988,3.989-3.988h2.966
			c2.759,0,3.987,1.23,3.987,3.988v2.966C23.063,22.107,21.834,23.337,19.075,23.337z M16.109,13.455c-2.19,0-2.93,0.738-2.93,2.929
			v2.966c0,2.189,0.738,2.931,2.93,2.931l2.966-0.001c2.19,0,2.929-0.739,2.929-2.93v-2.966c0-2.188-0.738-2.93-2.929-2.93
			L16.109,13.455z"/>
	</g>
	<g>
		<g>
			<path fill="#292D32" d="M20.24,16.219l-5.295,0.001c-0.293,0-0.529-0.235-0.529-0.528c0-0.291,0.236-0.529,0.529-0.529h5.295
				c0.292,0,0.527,0.238,0.527,0.529C20.768,15.984,20.532,16.219,20.24,16.219z"/>
		</g>
		<g>
			<path fill="#292D32" d="M20.24,18.396h-5.295c-0.293,0-0.529-0.236-0.529-0.528s0.236-0.53,0.529-0.53h5.295
				c0.292,0,0.527,0.238,0.527,0.53S20.532,18.396,20.24,18.396z"/>
		</g>
		<g>
			<path fill="#292D32" d="M20.24,20.572h-5.295c-0.293,0-0.529-0.236-0.529-0.529c0-0.292,0.236-0.529,0.529-0.529h5.295
				c0.292,0,0.527,0.237,0.527,0.529S20.532,20.572,20.24,20.572z"/>
		</g>
	</g>
	<g>
		<g>
			<path fill="#292D32" d="M17.534,11.439c-0.122-0.006-0.239-0.056-0.327-0.143l-1.719-1.684c-0.196-0.193-0.199-0.508-0.008-0.705
				c0.194-0.195,0.51-0.199,0.705-0.007l1.362,1.335l1.336-1.362c0.193-0.196,0.507-0.199,0.702-0.007
				c0.198,0.192,0.201,0.507,0.008,0.704l-1.684,1.72c-0.094,0.094-0.219,0.147-0.352,0.149
				C17.552,11.44,17.544,11.439,17.534,11.439z"/>
		</g>
	</g>
	<g>
		<path fill="#292D32" d="M18.096,10.469l-1.113-0.244c0.002-0.014,0.3-1.467-0.514-2.472c-0.562-0.693-1.545-1.047-2.928-1.048
			l0.003-1.142c1.747,0.002,3.033,0.5,3.819,1.481C18.518,8.481,18.113,10.389,18.096,10.469z"/>
	</g>
</g>
</svg>
