<?xml version="1.0" encoding="UTF-8" standalone="no"?>
<!-- Created with Inkscape (http://www.inkscape.org/) -->

<svg
   width="24"
   height="24"
   viewBox="0 0 24 24"
   version="1.1"
   id="svg1"
   xml:space="preserve"
   inkscape:version="1.4.3 (0d15f75, 2025-12-25)"
   sodipodi:docname="copy.svg"
   xmlns:inkscape="http://www.inkscape.org/namespaces/inkscape"
   xmlns:sodipodi="http://sodipodi.sourceforge.net/DTD/sodipodi-0.dtd"
   xmlns="http://www.w3.org/2000/svg"
   xmlns:svg="http://www.w3.org/2000/svg"><sodipodi:namedview
     id="namedview1"
     pagecolor="#ffffff"
     bordercolor="#000000"
     borderopacity="0.25"
     inkscape:showpageshadow="2"
     inkscape:pageopacity="0.0"
     inkscape:pagecheckerboard="0"
     inkscape:deskcolor="#d1d1d1"
     inkscape:document-units="px"
     inkscape:zoom="17.212331"
     inkscape:cx="-3.0791878"
     inkscape:cy="8.5403887"
     inkscape:window-width="1920"
     inkscape:window-height="1010"
     inkscape:window-x="1913"
     inkscape:window-y="-6"
     inkscape:window-maximized="1"
     inkscape:current-layer="layer1" /><defs
     id="defs1" /><g
     inkscape:label="Vrstva 1"
     inkscape:groupmode="layer"
     id="layer1"><path
       style="fill:#000000;stroke-width:0.0277204"
       d="M 2.4562402,23.931708 C 2.0105182,23.842218 1.6087345,23.534666 1.400313,23.123385 1.2399799,22.806985 1.2493469,23.405517 1.257071,13.961588 L 1.264281,5.2903738 1.329273,5.1101972 C 1.51494,4.5949583 1.928065,4.2196469 2.4589684,4.0838552 2.6679951,4.0303912 2.783021,4.0290942 7.3068605,4.0290942 c 4.2230745,0 4.6456235,0.00432 4.7672935,0.045538 0.158474,0.05404 -0.06269,-0.1615147 2.622381,2.5547517 1.17382,1.1874389 2.090367,2.1364677 2.125846,2.2012005 l 0.0624,0.1138442 -3.31e-4,6.8772164 c -2.74e-4,5.72553 -0.0072,6.901037 -0.03819,7.019464 -0.09742,0.366002 -0.418097,0.768103 -0.751646,0.942616 -0.36263,0.189717 0.163993,0.176733 -7.02873,0.173375 C 5.491621,23.9557 2.5173316,23.94413 2.4563456,23.93188 Z M 15.674336,22.84268 c 0.05606,-0.0428 0.126814,-0.126526 0.157235,-0.186013 0.05462,-0.107071 0.05519,-0.172741 0.05519,-6.497914 V 9.7689926 l -1.947342,-0.00721 -1.947356,-0.00721 -0.160362,-0.064704 C 11.6072,9.599235 11.365778,9.3689525 11.251026,9.1359177 l -0.09064,-0.1839666 -0.01441,-1.9410447 -0.01441,-1.9410446 -4.196948,-0.00721 -4.196948,-0.00721 -0.1442507,0.066001 c -0.1621344,0.074215 -0.2707188,0.199386 -0.3156224,0.3637973 -0.021616,0.079115 -0.029974,2.534375 -0.029254,8.5655988 0.00112,9.007747 -0.00576,8.575989 0.1276785,8.722761 0.028101,0.03113 0.094822,0.07969 0.1481561,0.107936 0.093813,0.04972 0.3124376,0.0513 6.5719122,0.04568 l 6.4748703,-0.0058 z M 13.748711,7.1337718 C 12.87518,6.2495045 12.152687,5.5260026 12.14319,5.5260026 c -0.01009,0 -0.01628,0.7028658 -0.01484,1.5619144 0.0014,1.2804886 0.0086,1.5701862 0.04035,1.6077836 0.03459,0.041647 0.180854,0.045826 1.603143,0.045826 h 1.565114 z m 4.434133,12.3070972 c -0.325191,-0.171775 -0.338435,-0.670888 -0.02306,-0.867436 0.09612,-0.05995 0.111971,-0.06052 1.727738,-0.07436 l 1.630725,-0.01441 0.09035,-0.09871 0.09036,-0.09871 0.0183,-4.253409 c 0.01009,-2.33937 0.02652,-5.1543492 0.0366,-6.255497 l 0.0183,-2.0020882 -2.007189,-0.00721 -2.007205,-0.00721 -0.185739,-0.088049 C 17.228728,5.5111452 16.998417,5.1923668 16.936393,4.7939407 16.91838,4.6783672 16.911319,3.9645349 16.917083,2.8510227 l 0.0086,-1.7601332 -2.245339,-5.188e-4 c -1.234905,-2.882e-4 -3.137214,-0.00288 -4.227308,-0.00721 -1.9381628,-0.00576 -1.9840896,-0.00576 -2.0761305,0.048996 -0.051734,0.030551 -0.1203291,0.090643 -0.1524648,0.1335869 -0.055049,0.073639 -0.059084,0.1207614 -0.072198,0.8198372 L 8.1378326,2.8272883 8.0616001,2.9424295 C 7.8529769,3.2575043 7.3681733,3.2404565 7.1884146,2.9117348 7.1469119,2.8359347 7.1386978,2.7285753 7.1310602,2.1724821 7.126737,1.8146652 7.1353834,1.4217296 7.1515233,1.2992965 7.2312143,0.69389007 7.6941426,0.20633401 8.3108182,0.0782376 8.4856772,0.04192273 9.1108119,0.03745541 13.162615,0.04379611 l 4.651085,0.0072053 0.130561,0.0693153 c 0.194083,0.10303627 4.6626,4.61874816 4.74353,4.79367926 l 0.05865,0.1266697 -0.01009,6.5697213 c -0.0058,3.936187 -0.01989,6.641948 -0.03559,6.749898 -0.07421,0.508783 -0.480683,0.965861 -0.976482,1.097877 -0.113556,0.03026 -0.480509,0.0379 -1.79211,0.03718 -1.577478,-8.5e-4 -1.653797,-0.0029 -1.751083,-0.05462 z M 21.125502,4.7567612 C 21.125286,4.7452327 20.408687,4.0124647 19.533066,3.128183 l -1.592047,-1.6077692 -0.0014,1.5778671 c -0.0013,1.4306333 0.0029,1.5826082 0.04438,1.6285782 0.04338,0.047988 0.129408,0.050726 1.593921,0.050726 0.851425,0 1.547864,-0.00865 1.547648,-0.020751 z"
       id="path1" /></g></svg>
