<?xml version="1.0" encoding="UTF-8" standalone="no"?>
<!-- Created with Inkscape (http://www.inkscape.org/) -->

<svg
   width="24"
   height="24"
   viewBox="0 0 24 24"
   version="1.1"
   id="svg1"
   xml:space="preserve"
   inkscape:version="1.4.3 (0d15f75, 2025-12-25)"
   sodipodi:docname="crop-pages.svg"
   xmlns:inkscape="http://www.inkscape.org/namespaces/inkscape"
   xmlns:sodipodi="http://sodipodi.sourceforge.net/DTD/sodipodi-0.dtd"
   xmlns="http://www.w3.org/2000/svg"
   xmlns:svg="http://www.w3.org/2000/svg"><sodipodi:namedview
     id="namedview1"
     pagecolor="#ffffff"
     bordercolor="#000000"
     borderopacity="0.25"
     inkscape:showpageshadow="2"
     inkscape:pageopacity="0.0"
     inkscape:pagecheckerboard="0"
     inkscape:deskcolor="#d1d1d1"
     inkscape:document-units="px"
     inkscape:zoom="17.352672"
     inkscape:cx="-1.4407003"
     inkscape:cy="11.122207"
     inkscape:window-width="1920"
     inkscape:window-height="1010"
     inkscape:window-x="1913"
     inkscape:window-y="-6"
     inkscape:window-maximized="1"
     inkscape:current-layer="layer1" /><defs
     id="defs1" /><g
     inkscape:label="Vrstva 1"
     inkscape:groupmode="layer"
     id="layer1"><path
       style="fill:#000000;stroke-width:0.0265375"
       d="M 3.9054847,23.939831 C 3.5014326,23.881669 3.1750675,23.715631 2.8682647,23.412297 2.7042538,23.250143 2.6424907,23.164452 2.5430879,22.961164 2.3184025,22.501646 2.3373677,23.565069 2.3459897,11.909431 2.3533575,1.956222 2.3556388,1.5267715 2.402056,1.3740407 2.5931918,0.74512457 3.1382745,0.21062349 3.7279612,0.0738615 3.8818382,0.03820412 4.6049382,0.03419652 9.8951958,0.0402593 l 5.9929192,0.0071931 0.1852,0.09114726 c 0.169921,0.0836458 0.328623,0.23237926 1.923409,1.80269141 0.956015,0.9413446 2.097855,2.0706252 2.537425,2.5095193 0.79453,0.7932997 0.799941,0.7994652 0.922762,1.0500945 0.21919,0.4472689 0.201036,-0.3435234 0.201344,8.7706471 2.74e-4,8.09733 -5.3e-5,8.14839 -0.05363,8.37258 -0.09034,0.378102 -0.291784,0.723588 -0.570307,0.978142 -0.412899,0.377362 -0.7971,0.441094 -1.062033,0.17616 -0.213097,-0.213091 -0.2058,-0.508636 0.0185,-0.749226 0.16581,-0.177845 0.28433,-0.358105 0.350647,-0.533309 l 0.05694,-0.150409 0.0068,-7.914808 0.0068,-7.914819 h -2.051201 c -2.254153,0 -2.191858,0.00411 -2.540081,-0.1639829 C 15.591713,6.2614347 15.301478,5.9703492 15.188172,5.7375487 15.020955,5.3939841 15.024523,5.4481484 15.024523,3.2526607 V 1.2543984 l -5.5152534,0.00719 -5.5152533,0.00719 -0.12943,0.080049 C 3.7703573,1.4070983 3.7149895,1.4674589 3.6610046,1.5708037 l -0.074152,0.141941 V 11.980581 c 0,8.554227 0.00597,10.282099 0.035785,10.353239 0.052906,0.12625 0.1688456,0.252541 0.292638,0.318759 l 0.1094462,0.05857 3.6202247,0.0062 3.6202245,0.0062 0.134834,0.07584 c 0.430114,0.241863 0.416473,0.863782 -0.02392,1.090437 l -0.131723,0.06782 -3.5832842,0.0041 c -2.1043988,0.0021 -3.6544003,-0.0062 -3.7555962,-0.02127 z M 18.248118,3.9281883 C 17.488752,3.1802053 16.733428,2.4375555 16.56962,2.2778475 L 16.271785,1.9874607 v 1.5805058 c 0,1.5587825 7.57e-4,1.5814717 0.055,1.6504333 l 0.055,0.069876 1.623497,-9.25e-5 1.623497,-8.22e-5 z M 13.737086,23.587131 c -0.949947,-0.172625 -1.578389,-1.103858 -1.37928,-2.043816 0.08004,-0.377855 0.336008,-0.788182 0.631247,-1.011919 0.411265,-0.311658 0.927728,-0.432749 1.409043,-0.33037 l 0.15643,0.03329 0.372347,-0.372348 0.372347,-0.372347 -1.178946,-1.197502 c -1.313578,-1.334265 -1.327203,-1.351446 -1.330558,-1.678086 -0.0022,-0.206453 0.03669,-0.351446 0.13214,-0.493552 0.138859,-0.206761 0.319654,-0.295093 0.530318,-0.259127 0.08842,0.01511 0.238616,0.157817 1.34733,1.280254 l 1.247814,1.263248 1.229813,-1.249684 c 0.909533,-0.924235 1.253738,-1.257585 1.321681,-1.280007 0.05478,-0.01809 0.141845,-0.02281 0.215669,-0.01172 0.09971,0.0149 0.147645,0.04254 0.246289,0.142034 0.171542,0.172923 0.245516,0.377444 0.229596,0.634804 -0.02062,0.333381 -0.03397,0.35009 -1.331255,1.666854 l -1.165458,1.182962 0.373276,0.373282 0.373277,0.373273 0.126334,-0.03186 c 0.175416,-0.04419 0.556597,-0.03915 0.769247,0.01028 0.437365,0.101423 0.897067,0.456076 1.10713,0.854123 0.36391,0.689554 0.242331,1.487899 -0.310735,2.040393 -0.395984,0.395582 -0.907387,0.569532 -1.438174,0.489195 -0.639944,-0.0969 -1.128237,-0.489945 -1.36743,-1.100796 -0.06933,-0.177064 -0.08524,-0.259682 -0.09584,-0.497764 -0.01924,-0.431999 0.06393,-0.745127 0.282116,-1.062251 l 0.08052,-0.117043 -0.305885,-0.322489 c -0.168237,-0.177372 -0.320024,-0.322488 -0.337303,-0.322488 -0.02865,0 -0.54559,0.509397 -0.624928,0.615804 -0.02843,0.03812 -0.02311,0.05919 0.03381,0.133813 0.177116,0.232204 0.282129,0.585675 0.281568,0.947726 -7.93e-4,0.512582 -0.14584,0.866135 -0.502325,1.224435 -0.27509,0.276483 -0.551365,0.428012 -0.890531,0.488434 -0.254931,0.04542 -0.365536,0.04563 -0.610701,0.001 z m 0.639035,-0.955793 c 0.61095,-0.271253 0.627818,-1.153973 0.02804,-1.467563 -0.115938,-0.06063 -0.169183,-0.07121 -0.36153,-0.07173 -0.185334,-5.24e-4 -0.246871,0.01038 -0.344988,0.06135 -0.168507,0.08735 -0.3316,0.254791 -0.402492,0.413112 -0.0829,0.185141 -0.08296,0.48194 -1.32e-4,0.653609 0.206679,0.428362 0.656867,0.599609 1.081098,0.411262 z m 3.943579,0.0225 c 0.168374,-0.05354 0.348235,-0.2186 0.438488,-0.402384 0.101978,-0.207656 0.105388,-0.509767 0.008,-0.708935 -0.259895,-0.531593 -0.962162,-0.623819 -1.354666,-0.177917 -0.141413,0.160654 -0.193877,0.332621 -0.178745,0.585881 0.01378,0.230694 0.07449,0.373652 0.220801,0.519961 0.230479,0.230478 0.523137,0.292452 0.86611,0.183394 z M 5.7784648,19.214077 C 5.6362923,19.176467 5.4637483,18.999516 5.421633,18.84809 5.397228,18.76033 5.390743,18.453824 5.396669,17.668047 c 0.00893,-1.184678 0.00489,-1.158074 0.198308,-1.305605 0.087158,-0.06649 0.1189862,-0.0744 0.3006406,-0.0744 0.1816543,0 0.2134826,0.0082 0.3006406,0.0744 0.1883234,0.143647 0.1893675,0.149226 0.1983533,1.060134 l 0.00805,0.816019 0.8676879,1.65e-4 c 0.5511816,1.03e-4 0.9061904,0.01079 0.9732398,0.02949 0.1406871,0.03905 0.2926425,0.194584 0.3316489,0.339444 0.069964,0.259826 -0.094179,0.543749 -0.3518598,0.608631 -0.157772,0.03977 -2.2935899,0.03781 -2.444913,-0.0021 z m 4.4029612,0.0021 c -0.1940435,-0.06961 -0.3563847,-0.272274 -0.3575257,-0.44641 -8.678e-4,-0.13223 0.060193,-0.279463 0.1553721,-0.374639 0.05346,-0.05343 0.1446986,-0.110394 0.2027516,-0.126506 0.142784,-0.03967 1.634034,-0.03967 1.776817,0 0.141903,0.03936 0.292485,0.19443 0.333037,0.342886 0.05986,0.219154 -0.04371,0.454102 -0.248426,0.563561 -0.106913,0.05713 -0.138052,0.05929 -0.946482,0.06433 -0.542555,0.0031 -0.863872,-0.0051 -0.915544,-0.02333 z M 5.8027356,15.055583 C 5.6603833,15.022084 5.5518573,14.949084 5.4775377,14.836778 l -0.072865,-0.110106 v -1.116508 c 0,-1.044894 0.00325,-1.123053 0.050588,-1.218403 0.1584396,-0.319087 0.6588398,-0.340153 0.8600727,-0.03617 l 0.071227,0.107588 0.00777,1.069722 c 0.00515,0.7095 -0.00193,1.105718 -0.02102,1.176611 -0.064812,0.240703 -0.3313337,0.402364 -0.5705696,0.346103 z m 11.3580574,-0.04285 c -0.105764,-0.05498 -0.194307,-0.139588 -0.247994,-0.236911 -0.03888,-0.07049 -0.04392,-0.205899 -0.04392,-1.180917 v -1.10131 l 0.0726,-0.123506 c 0.178323,-0.303334 0.639623,-0.31433 0.834552,-0.01983 l 0.07474,0.112891 0.0081,1.063473 c 0.0085,1.114607 0.0019,1.197225 -0.108417,1.346431 -0.118408,0.160161 -0.415216,0.230479 -0.589715,0.139722 z M 5.6522809,10.860826 C 5.5442015,10.803692 5.4682004,10.708517 5.4220004,10.572299 5.3828164,10.456778 5.3796288,8.6360417 5.4183628,8.4965772 5.4592311,8.3494468 5.5538465,8.2278418 5.6843395,8.1547184 l 0.1183919,-0.066382 1.1278444,-0.00822 c 0.791944,-0.00617 1.1700684,5.754e-4 1.2696182,0.022401 0.4517227,0.098854 0.5401189,0.7267529 0.1302428,0.9251703 -0.1115299,0.053949 -0.1532757,0.056312 -1.0219298,0.056312 H 6.4028571 l -0.00815,0.7516926 -0.00815,0.7516927 -0.073008,0.110251 c -0.040154,0.06063 -0.1202861,0.134377 -0.178071,0.163859 -0.13629,0.06957 -0.3513806,0.06947 -0.4832012,-1.95e-4 z m 11.4642071,0 C 16.88419,10.738122 16.855944,10.61961 16.85576,9.7668637 l -1.49e-4,-0.6833372 h -1.039854 c -1.005412,0 -1.043704,-0.00206 -1.156132,-0.056312 -0.283063,-0.1370292 -0.356323,-0.5194058 -0.147142,-0.7680004 0.147746,-0.1755844 0.100478,-0.1700662 1.529495,-0.1786877 1.479271,-0.00925 1.504404,-0.00617 1.671395,0.1786055 0.0521,0.057648 0.107729,0.1531109 0.123612,0.2121049 0.01909,0.070904 0.02632,0.4476183 0.02133,1.1114211 l -0.0076,1.0041821 -0.07301,0.110281 c -0.04016,0.06063 -0.120286,0.134398 -0.178071,0.16388 -0.13629,0.06957 -0.35138,0.06947 -0.483201,-1.95e-4 z M 10.181426,9.0393401 C 10.058489,8.9743964 10.005659,8.9202321 9.9526919,8.8048851 9.8587146,8.6002302 9.9144912,8.3450487 10.084461,8.2020287 10.228399,8.0809169 10.35419,8.0705999 11.574646,8.0798379 c 1.042773,0.00822 1.135463,0.012331 1.228858,0.058675 0.206738,0.1026563 0.320991,0.3590401 0.258886,0.5808557 -0.0382,0.1364229 -0.158734,0.2747366 -0.28607,0.3282432 -0.06769,0.028464 -0.337298,0.035657 -1.300338,0.034835 -1.056392,-9.248e-4 -1.225333,-0.00617 -1.294556,-0.043159 z"
       id="path1" /></g></svg>
