<?xml version="1.0" encoding="utf-8"?>
<!-- Generator: Adobe Illustrator 16.0.0, SVG Export Plug-In . SVG Version: 6.00 Build 0)  -->
<!DOCTYPE svg PUBLIC "-//W3C//DTD SVG 1.1//EN" "http://www.w3.org/Graphics/SVG/1.1/DTD/svg11.dtd">
<svg version="1.1" id="Vrstva_1" xmlns="http://www.w3.org/2000/svg" xmlns:xlink="http://www.w3.org/1999/xlink" x="0px" y="0px"
	 width="24px" height="24px" viewBox="0 0 24 24" enable-background="new 0 0 24 24" xml:space="preserve">
<g>
	<path fill-rule="evenodd" clip-rule="evenodd" fill="#292D32" d="M2.449,6.6c0.077-0.299,0.128-0.608,0.236-0.896
		C3.216,4.272,4.661,3.4,6.232,3.545c1.456,0.136,2.705,1.309,2.967,2.774c0.138,0.768,0.026,1.493-0.329,2.184
		C8.85,8.542,8.833,8.581,8.806,8.636c0.783,0.55,1.563,1.097,2.35,1.647c0.535-0.375,1.063-0.744,1.592-1.114
		c1.607-1.125,3.209-2.251,4.818-3.372c1.043-0.729,2.301-0.726,3.316,0.018c0.232,0.174,0.43,0.403,0.668,0.625
		c-1.354,0.948-2.672,1.869-3.984,2.79c-1.309,0.917-2.619,1.835-3.957,2.77c1.33,0.934,2.643,1.854,3.957,2.773
		c1.311,0.918,2.621,1.835,3.945,2.763c-0.219,0.342-0.5,0.605-0.844,0.799c-1.057,0.592-2.1,0.566-3.102-0.129
		c-2.063-1.436-4.117-2.88-6.175-4.321c-0.076-0.055-0.153-0.107-0.237-0.166c-0.781,0.548-1.557,1.092-2.331,1.634
		c0.101,0.263,0.216,0.509,0.292,0.766c0.581,1.961-0.698,3.982-2.719,4.309c-1.871,0.303-3.619-0.971-3.908-2.844
		c-0.01-0.061-0.027-0.121-0.04-0.18c0-0.225,0-0.447,0-0.67c0.045-0.205,0.08-0.412,0.141-0.613
		c0.605-1.985,2.693-2.969,4.609-2.169c0.123,0.052,0.208,0.05,0.318-0.029c0.856-0.606,1.716-1.206,2.575-1.808
		c0.048-0.033,0.093-0.071,0.143-0.111c-0.026-0.024-0.037-0.038-0.052-0.048c-0.904-0.635-1.809-1.271-2.716-1.898
		c-0.053-0.037-0.148-0.038-0.215-0.021c-0.315,0.081-0.625,0.207-0.946,0.255C4.842,10.52,3.341,9.692,2.76,8.333
		C2.616,7.996,2.55,7.625,2.449,7.269C2.449,7.046,2.449,6.821,2.449,6.6z M5.764,8.691c0.95,0.077,1.769-0.653,1.856-1.657
		C7.701,6.12,6.951,5.262,6.006,5.187c-1.01-0.081-1.846,0.646-1.901,1.706C4.058,7.793,4.766,8.643,5.764,8.691z M5.782,15.308
		c-1.012,0.041-1.724,0.899-1.677,1.8c0.056,1.059,0.891,1.787,1.901,1.707c0.937-0.074,1.682-0.918,1.616-1.828
		C7.55,15.987,6.724,15.233,5.782,15.308z"/>
</g>
</svg>
