<?xml version="1.0" encoding="UTF-8" standalone="no"?>
<!-- Created with Inkscape (http://www.inkscape.org/) -->

<svg
   width="24"
   height="24"
   viewBox="0 0 24 24"
   version="1.1"
   id="svg1"
   xml:space="preserve"
   inkscape:version="1.4.3 (0d15f75, 2025-12-25)"
   sodipodi:docname="cut.svg"
   xmlns:inkscape="http://www.inkscape.org/namespaces/inkscape"
   xmlns:sodipodi="http://sodipodi.sourceforge.net/DTD/sodipodi-0.dtd"
   xmlns="http://www.w3.org/2000/svg"
   xmlns:svg="http://www.w3.org/2000/svg"><sodipodi:namedview
     id="namedview1"
     pagecolor="#ffffff"
     bordercolor="#000000"
     borderopacity="0.25"
     inkscape:showpageshadow="2"
     inkscape:pageopacity="0.0"
     inkscape:pagecheckerboard="0"
     inkscape:deskcolor="#d1d1d1"
     inkscape:document-units="px"
     inkscape:zoom="22.172524"
     inkscape:cx="18.130548"
     inkscape:cy="18.220749"
     inkscape:window-width="1920"
     inkscape:window-height="1010"
     inkscape:window-x="1913"
     inkscape:window-y="-6"
     inkscape:window-maximized="1"
     inkscape:current-layer="layer1" /><defs
     id="defs1" /><g
     inkscape:label="Vrstva 1"
     inkscape:groupmode="layer"
     id="layer1"><path
       style="fill:#000000;stroke-width:0.0291033"
       d="M 4.0873701,23.933425 C 3.3863712,23.824097 2.8032899,23.603187 2.2256302,23.228056 1.1109114,22.504161 0.34973475,21.350018 0.12701705,20.046012 0.07398277,19.735364 0.06754242,19.609968 0.08088314,19.146625 0.09192373,18.765067 0.11361062,18.528792 0.15537429,18.335607 0.4673105,16.893167 1.3840544,15.698608 2.6782683,15.048172 c 0.3879323,-0.194965 0.5338981,-0.250457 0.9226125,-0.350756 1.0626309,-0.274181 2.186123,-0.164399 3.160541,0.308841 0.3098792,0.150494 0.7339366,0.420404 0.9542753,0.607384 l 0.1496198,0.126967 0.5324786,-0.69074 C 9.2594547,13.932113 10.850174,11.864873 10.93518,11.75239 l 0.07847,-0.10384 -0.181309,-0.23458 C 10.024765,10.369116 8.2082785,8.0533701 5.967143,5.2115606 5.189504,4.2254976 4.6151565,3.490746 3.981893,2.6718757 3.803364,2.4410155 3.5004902,2.0515586 3.3088439,1.8064245 2.846427,1.2149379 2.7933533,1.1168474 2.7941091,0.85516562 2.7947663,0.61250914 2.8647032,0.43629337 3.0230174,0.27797257 3.2073362,0.09366036 3.3405593,0.04098096 3.6225677,0.04090867 4.068818,0.04079038 4.2245955,0.15724236 4.8508206,0.95908522 6.3854238,2.924035 8.8676451,6.1195969 9.2688327,6.6467327 c 0.182735,0.2401001 0.6807578,0.8883801 1.1067143,1.4406135 0.425963,0.55224 0.978512,1.2688074 1.227898,1.5923757 l 0.453427,0.5883071 0.183241,-0.239069 c 0.347864,-0.453828 1.494482,-1.9364812 2.064242,-2.6691955 0.217822,-0.2801222 0.55824,-0.7253999 0.756491,-0.9895132 0.341266,-0.4546491 0.827848,-1.0832138 3.543223,-4.5771018 0.631587,-0.81267313 1.195979,-1.51687902 1.254191,-1.56489247 0.13879,-0.11448701 0.3791,-0.20253575 0.552753,-0.20253575 0.246383,0 0.432758,0.07553606 0.600668,0.24343853 0.190765,0.19077226 0.261484,0.38035503 0.240297,0.64423838 -0.02497,0.31085191 -0.134853,0.47851781 -1.18277,1.80438141 -0.0759,0.09604 -0.32138,0.4103618 -0.545497,0.6984818 -0.224124,0.2881201 -0.654425,0.8381783 -0.956241,1.2223384 -0.301809,0.3841667 -0.738878,0.9407703 -0.971263,1.2368948 -0.232385,0.2961245 -0.731972,0.931307 -1.110204,1.4115137 -1.944045,2.4681839 -3.33719,4.2633657 -3.36518,4.3362987 -0.01446,0.03772 0.133322,0.236466 1.201086,1.6147 0.258238,0.333321 0.786399,1.020237 1.173694,1.526481 l 0.704173,0.920437 0.135963,-0.113449 c 0.178766,-0.149166 0.583233,-0.41021 0.818588,-0.528325 1.300897,-0.652854 2.862208,-0.656324 4.147071,-0.0092 1.103145,0.555591 1.997677,1.572003 2.370757,2.693767 0.719459,2.163273 -0.132678,4.454807 -2.089419,5.618762 -0.510996,0.303964 -1.168365,0.525663 -1.789076,0.603368 -0.394084,0.04935 -1.14031,0.02083 -1.50762,-0.05763 -1.127842,-0.240882 -2.229102,-0.948637 -2.876495,-1.848676 -0.358431,-0.498298 -0.652801,-1.176684 -0.770844,-1.776411 -0.187499,-0.952607 -0.03154,-2.199346 0.376544,-3.00964 0.05671,-0.112654 0.10315,-0.217474 0.10315,-0.23293 0,-0.01544 -0.07609,-0.123832 -0.169078,-0.24083 -0.390443,-0.491241 -2.185263,-2.812493 -2.840581,-3.673751 l -0.06473,-0.08504 -0.08533,0.114014 c -0.04692,0.06269 -0.197364,0.258133 -0.334287,0.434277 -0.136923,0.17615 -0.38025,0.490517 -0.540726,0.698606 -0.160483,0.208089 -0.494468,0.640276 -0.742197,0.960414 -0.247724,0.320137 -0.6705257,0.869256 -0.9395613,1.220261 l -0.4891509,0.638193 0.093819,0.205802 c 0.1319548,0.289454 0.2758768,0.735809 0.3527075,1.093866 0.055663,0.25954 0.065586,0.394399 0.06606,0.901793 4.994e-4,0.511364 -0.00881,0.640289 -0.065192,0.902207 -0.1391188,0.64649 -0.361567,1.176432 -0.7268661,1.731642 -0.2300255,0.349626 -0.8388157,0.973367 -1.1691069,1.197839 -0.6625474,0.450272 -1.4003417,0.736572 -2.1237832,0.824108 -0.3316976,0.04015 -0.9484659,0.03299 -1.2530811,-0.01452 z m 1.470594,-1.743408 C 6.4353364,21.931536 7.109207,21.356051 7.4923288,20.538075 7.8811812,19.707855 7.8666575,18.754539 7.4525698,17.930096 7.0489835,17.126511 6.355897,16.562179 5.4886321,16.330997 5.245371,16.266137 5.1495807,16.256377 4.757587,16.256377 c -0.395871,0 -0.486647,0.0095 -0.7414481,0.07727 -1.0525893,0.280089 -1.8655319,1.071082 -2.1881472,2.129054 -0.07478,0.245219 -0.079874,0.296275 -0.079874,0.800344 0,0.503445 0.00526,0.555421 0.079617,0.800338 0.1701237,0.559666 0.5342859,1.136281 0.9345337,1.479755 0.3873868,0.332427 0.8880252,0.582654 1.3841488,0.691825 0.3750056,0.08251 1.0520634,0.06099 1.4115136,-0.04495 z m 14.4352609,0.01374 c 1.224875,-0.336429 2.090175,-1.340815 2.255331,-2.61787 0.12974,-1.003208 -0.372108,-2.139831 -1.211206,-2.743199 -1.071069,-0.770174 -2.392372,-0.7979 -3.492265,-0.07329 -0.233436,0.153786 -0.643765,0.566599 -0.800791,0.805641 -0.235171,0.357998 -0.414785,0.805221 -0.491432,1.223627 -0.04725,0.258087 -0.04094,0.81423 0.01216,1.063695 0.259888,1.221557 1.174989,2.129757 2.404011,2.385873 0.294573,0.06138 1.028523,0.03674 1.324207,-0.04449 z"
       id="path1" /></g></svg>
