<?xml version="1.0" encoding="UTF-8" standalone="no"?>
<!-- Created with Inkscape (http://www.inkscape.org/) -->

<svg
   width="24"
   height="24"
   viewBox="0 0 24 24"
   version="1.1"
   id="svg1"
   xml:space="preserve"
   inkscape:version="1.4.3 (0d15f75, 2025-12-25)"
   sodipodi:docname="details-view.svg"
   xmlns:inkscape="http://www.inkscape.org/namespaces/inkscape"
   xmlns:sodipodi="http://sodipodi.sourceforge.net/DTD/sodipodi-0.dtd"
   xmlns="http://www.w3.org/2000/svg"
   xmlns:svg="http://www.w3.org/2000/svg"><sodipodi:namedview
     id="namedview1"
     pagecolor="#ffffff"
     bordercolor="#000000"
     borderopacity="0.25"
     inkscape:showpageshadow="2"
     inkscape:pageopacity="0.0"
     inkscape:pagecheckerboard="0"
     inkscape:deskcolor="#d1d1d1"
     inkscape:document-units="px"
     inkscape:zoom="13.751028"
     inkscape:cx="-8.9447855"
     inkscape:cy="3.4179262"
     inkscape:window-width="1920"
     inkscape:window-height="1010"
     inkscape:window-x="1913"
     inkscape:window-y="-6"
     inkscape:window-maximized="1"
     inkscape:current-layer="layer1" /><defs
     id="defs1" /><g
     inkscape:label="Vrstva 1"
     inkscape:groupmode="layer"
     id="layer1"><path
       style="fill:#000000;stroke-width:0.0276666"
       d="M 3.5510417,24.21324 C 1.7720169,24.091128 0.36257058,22.833045 0.03857736,21.077991 -3.6245058e-4,20.866935 -0.00409321,19.937859 0.00278537,12.017163 L 0.01094641,3.1915126 0.07145468,2.9675154 C 0.17101935,2.5986248 0.2446086,2.4047768 0.4048331,2.0891895 0.99836211,0.92020235 2.1232913,0.15475524 3.4409492,0.02330423 3.6569486,0.00173577 6.2026796,-0.00421013 12.211267,0.00278505 c 7.920148,0.0093269 8.481115,0.01294107 8.700612,0.05805996 0.764351,0.15715828 1.454145,0.52662015 1.993392,1.06769699 0.570538,0.5724618 0.919154,1.2313375 1.069609,2.0215009 0.04757,0.2501008 0.05002,0.6851075 0.05002,8.9778191 0,8.2615 -0.0023,8.728673 -0.04955,8.97783 -0.292247,1.54935 -1.505945,2.762313 -3.062919,3.0611 -0.250579,0.04803 -0.658328,0.0506 -8.742653,0.05316 -4.6639048,0.0012 -8.5420769,-0.0012 -8.6181611,-0.007 z M 20.607519,22.764528 c 0.950784,-0.150012 1.747569,-0.900548 1.937314,-1.824878 0.05281,-0.257248 0.05398,-0.444089 0.0541,-8.797985 1.05e-4,-5.7901167 -0.0093,-8.5929904 -0.02868,-8.7149863 C 22.424247,2.5165364 21.718143,1.74765 20.817502,1.518115 20.600395,1.4627365 20.530443,1.4623867 12.003977,1.4623867 H 3.4092844 L 3.190487,1.5197472 C 2.628308,1.6669956 2.1433558,2.0050025 1.8200271,2.4749384 1.7047233,2.6424962 1.5361512,3.0102326 1.4724252,3.2330989 1.422876,3.4063927 1.4207775,3.7262588 1.4135491,12.017256 c -0.007,7.717556 -0.0035,8.6282 0.036025,8.836038 0.1547799,0.826772 0.7053469,1.492339 1.4790366,1.787979 0.406921,0.155491 -0.1224039,0.146747 9.0330803,0.149323 5.660753,0.0012 8.525581,-0.007 8.645816,-0.026 z M 5.7716252,18.480461 C 5.4744585,18.382645 5.2093647,18.166937 5.0514136,17.89458 4.854103,17.554334 4.8395064,17.113358 5.0134065,16.747138 c 0.1818279,-0.382881 0.5365533,-0.646693 0.9570683,-0.711783 0.6387062,-0.09886 1.2604607,0.32889 1.4119645,0.971385 0.046518,0.197183 0.022851,0.532403 -0.051065,0.723581 -0.1178687,0.304978 -0.4149655,0.605001 -0.7136945,0.720713 -0.2270051,0.08791 -0.6262781,0.10178 -0.8460898,0.02938 z m 4.2646788,-0.648512 c -0.4652607,-0.245624 -0.368564,-0.958432 0.144998,-1.068921 0.109009,-0.02343 1.254189,-0.02961 4.341743,-0.02332 l 4.193666,0.0082 0.136161,0.08417 c 0.185046,0.114371 0.271156,0.272031 0.270632,0.495597 -2.45e-4,0.0998 -0.01854,0.201857 -0.04524,0.253074 -0.05258,0.10038 -0.218319,0.25263 -0.315412,0.289542 -0.04092,0.01562 -1.761933,0.02577 -4.33624,0.02577 H 10.158277 Z M 5.8783133,13.411231 C 5.5103554,13.324841 5.1753331,13.050782 5.0086731,12.699845 4.9242646,12.521993 4.9077094,12.455131 4.8979161,12.25128 4.8480172,11.208777 5.9616492,10.565267 6.840185,11.128892 c 0.1977419,0.126857 0.3383683,0.29304 0.4539636,0.536425 0.082077,0.172839 0.1010803,0.247443 0.1109901,0.434925 0.019936,0.379092 -0.087206,0.660298 -0.3594704,0.943836 -0.306039,0.318712 -0.7623576,0.46223 -1.167355,0.367153 z m 4.3127237,-0.631442 c -0.2813689,-0.06844 -0.4565048,-0.286768 -0.4565048,-0.568953 0,-0.227646 0.1115731,-0.412669 0.3101548,-0.51453 0.09956,-0.05106 0.229966,-0.0527 4.379166,-0.0527 h 4.276513 l 0.136137,0.06902 c 0.09898,0.05013 0.157264,0.104928 0.2134,0.200587 0.144217,0.245659 0.08196,0.6031 -0.131428,0.755071 -0.200132,0.142515 -0.03474,0.13756 -4.491929,0.134517 -2.283878,-0.0012 -4.189865,-0.01189 -4.235509,-0.02308 z M 5.8058783,8.2715841 C 5.4953974,8.1714365 5.3070057,8.0381435 5.1235805,7.7889753 4.8117822,7.3654174 4.8165506,6.7379851 5.1352391,6.3194521 5.3817375,5.995249 5.6837425,5.8345582 6.0879704,5.8125117 6.4081046,5.7950238 6.64924,5.8660248 6.8904453,6.0486105 7.2153363,6.2945726 7.3798045,6.590212 7.4042643,6.9722535 7.4195371,7.2117217 7.3814134,7.4142088 7.2832128,7.6134897 7.0171746,8.1536338 6.3550929,8.448667 5.8063563,8.2715841 Z M 10.111491,7.6466934 C 9.6520241,7.482913 9.6047018,6.8175669 10.036292,6.5897107 l 0.121938,-0.064356 h 4.271243 c 4.173438,0 4.273656,0.00117 4.376508,0.053746 0.248445,0.1267409 0.373356,0.4065945 0.30415,0.6814233 -0.04185,0.1663453 -0.211056,0.3443609 -0.373332,0.3928491 -0.177689,0.053047 -8.47567,0.046751 -8.62532,-0.007 z"
       id="path1" /></g></svg>
