<?xml version="1.0" encoding="utf-8"?>
<!-- Generator: Adobe Illustrator 16.0.0, SVG Export Plug-In . SVG Version: 6.00 Build 0)  -->
<!DOCTYPE svg PUBLIC "-//W3C//DTD SVG 1.1//EN" "http://www.w3.org/Graphics/SVG/1.1/DTD/svg11.dtd">
<svg version="1.1" id="Vrstva_1" xmlns="http://www.w3.org/2000/svg" xmlns:xlink="http://www.w3.org/1999/xlink" x="0px" y="0px"
	 width="24px" height="24px" viewBox="0 0 24 24" enable-background="new 0 0 24 24" xml:space="preserve">
<path fill="#292D32" d="M12.108,0.677l-0.107,0c-3.049,0-5.905,1.19-8.042,3.352c-2.147,2.171-3.311,5.051-3.276,8.108
	c0.07,6.169,5.141,11.188,11.306,11.188l0.2-0.002c6.189-0.084,11.181-5.209,11.128-11.425C23.266,5.767,18.237,0.733,12.108,0.677z
	 M17.402,3.209c1.048,0.614,1.914,1.468,2.575,2.54h-1.015c-0.709,0-1.418,0-2.131,0.006c-0.098,0-0.122-0.009-0.167-0.107
	c-0.536-1.186-1.276-2.228-1.86-3.004c-0.141-0.186-0.286-0.366-0.432-0.547L14.3,2.005C15.532,2.308,16.523,2.693,17.402,3.209z
	 M12.709,2.081c0.936,0.94,1.71,2.089,2.466,3.66h-2.466V2.081z M11.521,2.07l0.003,3.629c0,0.016,0,0.034,0,0.05
	c-0.018,0-0.038,0-0.056,0H8.599C9.418,4.195,10.555,2.984,11.521,2.07z M9.911,2.004L9.74,2.207
	C8.905,3.199,8.233,4.055,7.673,5.009c-0.128,0.217-0.24,0.446-0.349,0.667l-0.02,0.041C7.292,5.743,7.285,5.75,7.267,5.75h0
	L6.143,5.749L4.069,5.75C5.795,3.564,7.666,2.363,9.911,2.004z M6.711,20.686c-0.982-0.621-1.85-1.42-2.646-2.438h3.395
	c0.018,0,0.049,0,0.057,0.01c0.492,1.1,1.17,2.174,2.199,3.484l0.073,0.092c0.039,0.049,0.078,0.1,0.117,0.148
	C8.746,21.73,7.673,21.295,6.711,20.686z M11.521,21.369l0,0.631c-0.716-0.445-2.389-2.65-2.717-3.752h1.054
	c0.553,0,1.106-0.002,1.658-0.002c0.003,0,0.007,0,0.01,0C11.522,19.285,11.521,20.328,11.521,21.369z M12.696,21.984
	c0.001-1.24,0.002-2.48,0.001-3.723c0-0.006,0-0.01,0-0.014c0.665,0.002,1.33,0.002,1.995,0.002h0.709
	C14.854,19.555,14.097,20.979,12.696,21.984z M14.535,21.979c0.819-1.063,1.523-2.262,2.146-3.652c0.036-0.08,0.047-0.08,0.107-0.08
	v-0.148l0.003,0.148c0.436,0.002,0.871,0.002,1.308,0.002l1.831-0.002C18.566,20.199,16.797,21.424,14.535,21.979z M20.9,16.801
	c-0.008,0.012-0.036,0.029-0.044,0.031c-1.206,0.008-2.413,0.008-3.62,0.008l0.076-0.26c0.101-0.342,0.169-0.691,0.246-1.039h-1.199
	c-0.1,0.406-0.209,0.811-0.342,1.209c-0.029,0.09-0.041,0.094-0.126,0.094c-0.001,0-0.001,0-0.001,0
	c-0.546-0.004-1.092-0.006-1.639-0.006c-0.505,0-1.011,0.002-1.521,0.004c-0.016,0-0.027,0-0.034,0
	c-0.001-0.008-0.002-0.02-0.001-0.035c0.002-0.422-0.001-0.844,0-1.266h-1.172c0,0.427-0.001,0.854,0.003,1.279
	c0,0.008,0,0.016,0,0.021c-0.006,0-0.015,0-0.024,0c-0.628-0.002-1.256-0.004-1.884-0.004L8.286,16.84
	c-0.029,0-0.041-0.004-0.043-0.004h0c-0.001-0.002-0.008-0.01-0.016-0.033c-0.141-0.411-0.256-0.834-0.36-1.262H6.651
	c0.013,0.057,0.019,0.113,0.032,0.17c0.065,0.273,0.143,0.545,0.22,0.814c0.03,0.105,0.06,0.211,0.089,0.314H4.706
	c-0.508,0-1.017,0-1.529,0.002c-0.057,0-0.067-0.006-0.093-0.055c-0.685-1.258-1.09-2.629-1.205-4.074c0-0.004,0-0.006,0-0.01
	c0.005,0,0.012,0,0.019,0c0.284,0.001,0.569,0.001,0.853,0.001V11.3H1.911c-0.011,0-0.021,0-0.031,0
	c0.001-0.012,0.002-0.024,0.003-0.037C1.996,9.83,2.401,8.465,3.087,7.208c0.025-0.046,0.034-0.053,0.099-0.053
	C4.03,7.157,4.874,7.157,5.718,7.157h1.269l-0.03,0.107c-0.059,0.207-0.117,0.41-0.17,0.614c-0.057,0.215-0.09,0.443-0.138,0.664
	h1.2c0.108-0.456,0.23-0.906,0.38-1.343C8.238,7.17,8.245,7.16,8.245,7.159c0.002-0.001,0.013-0.004,0.038-0.004
	c1.076,0.004,2.154,0.004,3.23-0.002c0.005,0,0.009,0,0.013,0c0,0.004,0,0.01,0,0.017c-0.003,0.458-0.002,0.914-0.002,1.371h1.175
	c0-0.461,0.001-0.923-0.002-1.384c0,0,0-0.001,0-0.002c0.506,0.002,1.012,0.002,1.519,0.002c0.577,0.003,1.168-0.001,1.774,0.018
	c0.153,0.453,0.277,0.909,0.387,1.366h1.211c-0.066-0.301-0.137-0.6-0.208-0.893c-0.04-0.163-0.079-0.327-0.118-0.491l1.755,0
	c0.601,0,1.201,0,1.802-0.002c0.058,0,0.068,0.006,0.097,0.059c0.693,1.267,1.098,2.637,1.203,4.071
	c0,0.006,0.001,0.011,0.001,0.016c-0.004,0-0.009,0-0.014,0C21.736,11.299,21.368,11.3,21,11.299v1.41h0.538
	c0.183,0,0.357,0.002,0.579,0C22.015,14.156,21.605,15.533,20.9,16.801z"/>
<g>
	<path fill="#292D32" d="M3.988,11.997c0-1.546,0.944-2.638,2.289-2.638c1.345,0,2.296,1.092,2.296,2.638
		c0,1.553-0.951,2.645-2.296,2.645C4.932,14.642,3.988,13.55,3.988,11.997z M7.443,11.997c0-0.958-0.476-1.643-1.167-1.643
		c-0.684,0-1.167,0.684-1.167,1.643s0.483,1.65,1.167,1.65C6.968,13.646,7.443,12.955,7.443,11.997z"/>
	<path fill="#292D32" d="M10.308,10.704l-0.87,0.542L9,10.473l1.531-1.025h0.877v5.105h-1.1V10.704z"/>
	<path fill="#292D32" d="M12.312,11.997c0-1.546,0.943-2.638,2.289-2.638c1.345,0,2.296,1.092,2.296,2.638
		c0,1.553-0.951,2.645-2.296,2.645C13.255,14.642,12.312,13.55,12.312,11.997z M15.767,11.997c0-0.958-0.476-1.643-1.166-1.643
		c-0.684,0-1.167,0.684-1.167,1.643s0.483,1.65,1.167,1.65C15.291,13.646,15.767,12.955,15.767,11.997z"/>
	<path fill="#292D32" d="M18.631,10.704l-0.87,0.542l-0.438-0.773l1.53-1.025h0.877v5.105h-1.1V10.704z"/>
</g>
</svg>
