<?xml version="1.0" encoding="UTF-8" standalone="no"?>
<!-- Created with Inkscape (http://www.inkscape.org/) -->

<svg
   width="24"
   height="24"
   viewBox="0 0 24 24"
   version="1.1"
   id="svg1"
   inkscape:version="1.4.3 (0d15f75, 2025-12-25)"
   sodipodi:docname="get-source.svg"
   xml:space="preserve"
   xmlns:inkscape="http://www.inkscape.org/namespaces/inkscape"
   xmlns:sodipodi="http://sodipodi.sourceforge.net/DTD/sodipodi-0.dtd"
   xmlns="http://www.w3.org/2000/svg"
   xmlns:svg="http://www.w3.org/2000/svg"><sodipodi:namedview
     id="namedview1"
     pagecolor="#ffffff"
     bordercolor="#000000"
     borderopacity="0.25"
     inkscape:showpageshadow="2"
     inkscape:pageopacity="0.0"
     inkscape:pagecheckerboard="0"
     inkscape:deskcolor="#d1d1d1"
     inkscape:document-units="px"
     inkscape:zoom="28.499181"
     inkscape:cx="14.491644"
     inkscape:cy="14.175846"
     inkscape:window-width="1920"
     inkscape:window-height="1010"
     inkscape:window-x="1913"
     inkscape:window-y="-6"
     inkscape:window-maximized="1"
     inkscape:current-layer="layer1" /><defs
     id="defs1" /><g
     inkscape:label="Vrstva 1"
     inkscape:groupmode="layer"
     id="layer1"><path
       style="fill:#000000;stroke-width:0.0249132"
       d="m 16.644212,23.674089 c -0.400492,-0.128198 -0.728299,-0.478162 -0.819725,-0.875157 -0.01703,-0.07391 -0.02604,-1.118267 -0.02646,-3.065321 -6.7e-4,-3.251182 -0.0083,-3.089081 0.153677,-3.392443 0.0899,-0.168673 0.318722,-0.392018 0.491141,-0.479393 0.258703,-0.131091 0.335537,-0.138193 1.495273,-0.138193 0.913656,0 1.08853,0.0058 1.166985,0.03852 0.37436,0.156422 0.413488,0.65683 0.06812,0.870775 l -0.120667,0.07474 -1.052734,0.0041 c -0.740477,0.0033 -1.068673,0.0129 -1.106478,0.03315 -0.117873,0.06308 -0.116021,0.01331 -0.112202,3.021613 l 0.0033,2.834917 0.06746,0.06746 0.06746,0.06746 h 2.962098 2.962089 l 0.06324,-0.05944 0.06324,-0.05936 0.0074,-0.986961 c 0.0066,-0.944989 0.0095,-0.991186 0.05936,-1.086605 0.0286,-0.05481 0.09966,-0.133282 0.157852,-0.174394 0.09402,-0.06639 0.1259,-0.07474 0.286108,-0.07474 0.205289,0 0.30862,0.05159 0.415571,0.207653 l 0.06002,0.08759 0.0066,1.057819 c 0.0074,1.143697 0.0041,1.183586 -0.131563,1.448605 -0.131265,0.25671 -0.40823,0.48289 -0.702696,0.573836 -0.158737,0.04902 -0.225717,0.05002 -3.254911,0.04869 -2.884313,-0.0017 -3.102093,-0.0041 -3.230143,-0.0453 z M 2.73048,21.335521 C 2.0492451,21.294599 1.3910342,20.996818 0.89909138,20.506917 0.44410261,20.053813 0.13355681,19.43044 0.05242337,18.807356 0.03357435,18.662565 0.0277047,16.235217 0.03274764,10.666209 L 0.04018804,2.7313601 0.107565,2.4873563 C 0.3399866,1.6453674 0.89423031,0.95626222 1.6428421,0.57849652 1.8682036,0.46477413 2.274309,0.33520368 2.5066148,0.30290407 2.6503468,0.28289766 4.8767876,0.27727602 10.49129,0.28256697 l 7.785371,0.00744 0.199312,0.0576218 c 0.878331,0.25397395 1.507855,0.75857365 1.901741,1.52435635 0.08102,0.1575711 0.171411,0.3674649 0.200808,0.4664222 0.130522,0.439397 0.126884,0.2726246 0.126892,5.8116972 9e-6,3.6479051 -0.0083,5.1735681 -0.02728,5.2442271 -0.04167,0.152321 -0.231314,0.323781 -0.399822,0.361496 -0.230719,0.05167 -0.483362,-0.06316 -0.583634,-0.265176 -0.04654,-0.09379 -0.0482,-0.234249 -0.06085,-5.3529973 -0.0124,-4.9876481 -0.01538,-5.26434 -0.05828,-5.4061624 C 19.420482,2.2195183 19.058225,1.7831802 18.602782,1.5598111 18.186549,1.3556713 18.985144,1.373677 10.367754,1.3740904 1.8301666,1.3744955 2.5132285,1.3609457 2.1578667,1.5369194 1.6461572,1.7903064 1.2874555,2.2327457 1.1489731,2.7813182 1.0989571,2.9794561 1.0987091,3.026868 1.1050747,10.878104 l 0.00661,7.897481 0.067873,0.199304 c 0.099338,0.291705 0.228966,0.496126 0.4676127,0.737443 0.228131,0.230677 0.4575103,0.377112 0.7475371,0.477227 l 0.1619362,0.05589 5.6303829,0.01248 c 5.2187884,0.01157 5.6359794,0.01554 5.7069944,0.0544 0.221186,0.121221 0.341498,0.381131 0.285149,0.616016 -0.03489,0.1456 -0.159208,0.300782 -0.292432,0.365142 -0.09038,0.04365 -0.319061,0.04555 -5.5751428,0.04679 -3.014503,7.19e-4 -5.5257458,-0.0017 -5.5805568,-0.005 z m 16.685951,-0.867418 c -0.206157,-0.123561 -0.297054,-0.428708 -0.191028,-0.641305 0.02182,-0.0439 0.717941,-0.75902 1.546818,-1.589261 l 1.507061,-1.509534 -0.635476,-0.01472 c -0.699819,-0.0162 -0.720289,-0.0205 -0.858978,-0.178429 -0.211191,-0.240532 -0.132662,-0.633344 0.152504,-0.762807 0.09814,-0.04456 0.180248,-0.04737 1.381938,-0.04795 1.032232,-4.38e-4 1.293002,0.0058 1.357774,0.03381 0.09769,0.04191 0.229619,0.177289 0.265482,0.27241 0.01744,0.04621 0.02645,0.514355 0.02645,1.371175 0,1.299747 -5e-5,1.301153 -0.05605,1.411998 -0.148552,0.294069 -0.533394,0.350592 -0.778977,0.114417 -0.152966,-0.147105 -0.164474,-0.213391 -0.156141,-0.899644 0.0041,-0.322186 0.0017,-0.585774 -0.0058,-0.585766 -0.0066,1.6e-5 -0.685153,0.673431 -1.507243,1.49648 -0.822098,0.823057 -1.536311,1.518131 -1.587145,1.544618 -0.135589,0.07068 -0.328577,0.06415 -0.461545,-0.01554 z M 8.0494408,16.522069 C 7.9329737,16.480982 7.6919378,16.375039 7.5138146,16.28673 5.7290194,15.401851 4.5731449,13.628192 4.338053,11.413606 4.2995283,11.050688 4.3260657,10.125986 4.3855889,9.7568763 4.5844626,8.5240843 5.007995,7.5482426 5.9532731,6.1448425 6.2512281,5.7025023 6.5402298,5.320446 6.6129143,5.2728192 c 0.087011,-0.057043 0.2017671,-0.071014 0.3069331,-0.037367 0.052579,0.016865 0.2502124,0.086342 0.4391159,0.1544958 L 7.7024122,5.5138634 8.0066998,5.3896914 C 8.5901262,5.1516316 9.0782827,5.0155467 9.5908436,4.9480788 10.708153,4.8010151 11.730902,4.9439452 12.802204,5.3958007 l 0.276791,0.1168226 0.368903,-0.1360849 c 0.446003,-0.1645238 0.506163,-0.1783382 0.61714,-0.1417149 0.105373,0.034805 0.223849,0.1641766 0.562486,0.614354 0.53475,0.7108724 0.963863,1.39176 1.206776,1.9148202 0.493356,1.0623077 0.709789,2.5386483 0.549763,3.7499873 -0.07746,0.586444 -0.279842,1.299375 -0.497623,1.753132 -0.150527,0.31363 -0.249633,0.400029 -0.577921,0.503831 -0.42793,0.135316 -0.727861,0.355593 -0.979198,0.719181 -0.16115,0.233099 -0.246616,0.421929 -0.347871,0.768569 -0.110978,0.379948 -0.169418,0.481873 -0.390051,0.680342 -0.234381,0.210828 -0.430667,0.348921 -0.679433,0.477971 -0.269111,0.139607 -0.45422,0.190185 -0.563742,0.154041 -0.124238,-0.041 -0.213002,-0.119625 -0.265466,-0.235141 -0.04249,-0.09363 -0.04621,-0.183026 -0.04671,-1.138605 -6.03e-4,-1.155883 0.0041,-1.12064 -0.178388,-1.422505 -0.107546,-0.178173 -0.129537,-0.296674 -0.07424,-0.400013 0.05043,-0.09426 0.150842,-0.137284 0.390224,-0.167202 0.477079,-0.05961 0.709508,-0.123527 1.008083,-0.277048 0.660212,-0.33948 1.138283,-1.034488 1.334767,-1.940465 0.05365,-0.24755 0.07432,-0.87547 0.03778,-1.1500378 C 14.481944,9.2963486 14.283985,8.822519 13.966304,8.432526 L 13.86032,8.3024182 13.90976,8.10786 c 0.03481,-0.1369116 0.05316,-0.3129267 0.062,-0.5940003 0.01075,-0.3422006 0.005,-0.4365283 -0.04026,-0.6583019 -0.02902,-0.1423762 -0.05828,-0.2643243 -0.0649,-0.2709876 -0.0205,-0.020503 -0.283033,0.0458 -0.626672,0.1582904 -0.354444,0.1160289 -0.796478,0.3297255 -1.123501,0.5431327 L 11.910849,7.420152 11.659521,7.363522 C 10.785723,7.1666079 10.033192,7.1664674 9.1171133,7.3630676 L 8.8519787,7.4199453 8.6063959,7.2612829 C 8.4713195,7.1740153 8.2430979,7.0453625 8.0992253,6.9753814 7.8162917,6.837767 7.1803937,6.6150345 6.9997407,6.5902745 L 6.8880024,6.5749803 6.8603076,6.6711351 C 6.7489827,7.0577714 6.738996,7.5668354 6.8339355,8.0180957 L 6.892632,8.2972761 6.7607303,8.4665287 C 6.3917525,8.9399699 6.1811891,9.5869872 6.1786511,10.255144 c -0.00496,1.383757 0.6931643,2.493956 1.7835634,2.835057 0.1096219,0.03431 0.3506576,0.08217 0.5356342,0.106431 0.3196231,0.04191 0.3403487,0.04811 0.417299,0.124569 0.1386478,0.137804 0.119683,0.22427 -0.1389867,0.63355 -0.091839,0.145311 -0.1477746,0.204644 -0.2516591,0.26692 -0.2550402,0.1529 -0.7238516,0.210382 -0.9913009,0.121543 C 7.3668997,14.28799 7.1914964,14.13065 6.9896631,13.855661 6.7146824,13.48102 6.479913,13.30074 6.1328017,13.197698 c -0.153793,-0.04563 -0.4291044,-0.05316 -0.5027975,-0.01372 -0.070932,0.03795 -0.1018591,0.134572 -0.067377,0.210323 0.015542,0.03414 0.1134082,0.127975 0.2174085,0.208431 0.2889769,0.223559 0.5201667,0.483932 0.7795143,0.877934 0.3088097,0.469142 0.4483751,0.620257 0.6762084,0.732169 0.22451,0.110275 0.4010046,0.129802 0.6890556,0.07622 0.4890242,-0.09095 0.5816655,-0.09832 0.6688008,-0.05324 0.044394,0.02298 0.091459,0.06994 0.104579,0.104455 0.013145,0.03447 0.023561,0.249766 0.023313,0.478385 -6.201e-4,0.470986 -0.026207,0.569282 -0.1781976,0.685228 -0.1323482,0.100949 -0.2475585,0.105199 -0.4939184,0.01819 z"
       id="path1" /></g></svg>
