<?xml version="1.0" encoding="UTF-8" standalone="no"?>
<!-- Created with Inkscape (http://www.inkscape.org/) -->

<svg
   width="24"
   height="24"
   viewBox="0 0 24 24"
   version="1.1"
   id="svg1"
   xml:space="preserve"
   inkscape:version="1.4.3 (0d15f75, 2025-12-25)"
   sodipodi:docname="group.svg"
   xmlns:inkscape="http://www.inkscape.org/namespaces/inkscape"
   xmlns:sodipodi="http://sodipodi.sourceforge.net/DTD/sodipodi-0.dtd"
   xmlns="http://www.w3.org/2000/svg"
   xmlns:svg="http://www.w3.org/2000/svg"><sodipodi:namedview
     id="namedview1"
     pagecolor="#ffffff"
     bordercolor="#000000"
     borderopacity="0.25"
     inkscape:showpageshadow="2"
     inkscape:pageopacity="0.0"
     inkscape:pagecheckerboard="0"
     inkscape:deskcolor="#d1d1d1"
     inkscape:document-units="px"
     inkscape:zoom="26.536394"
     inkscape:cx="17.523104"
     inkscape:cy="15.224374"
     inkscape:window-width="1920"
     inkscape:window-height="1010"
     inkscape:window-x="1913"
     inkscape:window-y="-6"
     inkscape:window-maximized="1"
     inkscape:current-layer="layer1" /><defs
     id="defs1" /><g
     inkscape:label="Vrstva 1"
     inkscape:groupmode="layer"
     id="layer1"><path
       style="fill:#000000;stroke-width:0.0239178"
       d="M 11.661339,22.374161 C 10.264314,22.228428 9.0301092,21.367047 8.3885368,20.090004 7.3646635,18.051988 8.2121514,15.531589 10.263015,14.51537 c 0.505437,-0.250443 0.921448,-0.367178 1.488812,-0.417754 0.836527,-0.07457 1.706211,0.131302 2.448357,0.579578 0.556704,0.336265 1.096659,0.871891 1.410021,1.398713 0.433733,0.729187 0.63199,1.498559 0.599945,2.328185 -0.08,2.071095 -1.661776,3.758382 -3.723648,3.972021 -0.262447,0.02719 -0.552354,0.02653 -0.825163,-0.0019 z m 0.552399,-1.635306 c 0.118939,-0.03534 0.23423,-0.13215 0.299792,-0.251791 0.02531,-0.0462 0.03549,-0.253052 0.04473,-0.908875 l 0.01196,-0.849081 0.801247,-0.0055 c 0.468277,-0.0033 0.83807,-0.0159 0.889859,-0.03052 0.313896,-0.08878 0.433984,-0.509325 0.218549,-0.765354 -0.130147,-0.154671 -0.126895,-0.154157 -1.060573,-0.16731 l -0.849082,-0.01195 -0.01196,-0.84908 c -0.01028,-0.73015 -0.0175,-0.859133 -0.05154,-0.920835 -0.17318,-0.313924 -0.615664,-0.335393 -0.821136,-0.03981 l -0.07207,0.103672 -0.0068,0.859019 -0.0068,0.859018 h -0.837448 c -0.8866142,0 -0.9045132,0.0019 -1.0349411,0.116497 -0.06257,0.05492 -0.1310111,0.197056 -0.1489715,0.309377 -0.029103,0.181993 0.083425,0.396409 0.2535998,0.483221 0.087933,0.04486 0.1418289,0.04762 0.9314088,0.04762 h 0.838075 l 5.24e-4,0.83114 c 4.77e-4,0.757942 0.0044,0.839569 0.04482,0.926816 0.05928,0.128031 0.165405,0.223497 0.292539,0.263148 0.134857,0.04205 0.134701,0.04205 0.27431,4.76e-4 z m 7.519851,-3.384557 c -0.0804,-0.02062 -0.92206,-0.409948 -2.587882,-1.197074 -0.832811,-0.393518 -0.83236,-0.393214 -0.83236,-0.565677 0,-0.155257 0.05008,-0.266277 0.171243,-0.379612 0.0905,-0.08465 0.124719,-0.103391 0.157546,-0.08628 0.332077,0.173092 3.200851,1.486729 3.246782,1.486729 0.100483,0 0.156574,-0.04386 0.208996,-0.163491 0.02689,-0.06136 0.234652,-0.531321 0.461689,-1.04436 0.227036,-0.513034 0.55801,-1.261061 0.735498,-1.662285 0.177487,-0.401219 0.470323,-1.063143 0.650746,-1.470943 0.180423,-0.407795 0.47265,-1.06972 0.649394,-1.470944 0.176743,-0.401218 0.36951,-0.8364214 0.428372,-0.9671143 0.05886,-0.1306888 0.09879,-0.2450662 0.08872,-0.2541714 -0.01006,-0.0091 -0.343909,-0.1598381 -0.741881,-0.3349739 C 21.972481,9.0689664 21.608859,8.8943448 21.562404,8.856051 21.427905,8.7451882 21.351616,8.5718006 21.349736,8.3727103 21.348236,8.216405 21.358236,8.18304 21.500589,7.8704344 21.584429,7.6862695 21.737718,7.3493378 21.841233,7.1216973 22.085583,6.5843468 22.082101,6.600153 21.966545,6.5525819 21.915772,6.5316751 21.632063,6.4091922 21.33608,6.2803896 21.040098,6.151587 20.469659,5.9034542 20.068438,5.7289853 19.667217,5.5545118 19.145212,5.3273238 18.908426,5.2241188 18.67164,5.1209091 18.461465,5.0364059 18.441372,5.036325 c -0.07805,-3.096e-4 -0.153056,0.087003 -0.24439,0.2844933 -0.05231,0.1131202 -0.315765,0.7007755 -0.585445,1.3058943 -0.269679,0.6051189 -0.510174,1.137888 -0.534434,1.1839305 -0.04361,0.08276 -0.04412,0.073821 -0.04516,-0.7867503 l -10e-4,-0.870458 0.26618,-0.6124434 c 0.454387,-1.045484 0.471815,-1.0748868 0.717826,-1.2111472 0.118668,-0.06573 0.145902,-0.070916 0.367348,-0.069954 0.228453,9.492e-4 0.24883,0.00548 0.454438,0.099647 0.118392,0.054238 0.403612,0.1813741 0.633821,0.2825313 0.230208,0.1011524 0.547717,0.2408655 0.705574,0.3104673 0.157858,0.069602 0.760586,0.3330456 1.339396,0.5854312 1.261978,0.5502757 1.232241,0.5359314 1.33471,0.6438273 0.118524,0.1248022 0.138446,0.1686016 0.376428,0.8276017 0.118764,0.328869 0.236575,0.6517613 0.261801,0.7175341 0.02522,0.065773 0.117029,0.3187014 0.204006,0.5620672 0.08698,0.2433613 0.184348,0.5098623 0.216383,0.5922179 0.06743,0.1733303 0.07862,0.4336693 0.02605,0.6058469 -0.01771,0.058002 -0.172895,0.4229641 -0.344862,0.8110289 -0.171967,0.388066 -0.47915,1.082278 -0.682627,1.542698 -0.203478,0.460415 -0.536832,1.213824 -0.740786,1.674243 -0.479077,1.081488 -1.158511,2.620061 -1.325546,3.001683 -0.205908,0.470435 -0.225676,0.506733 -0.336109,0.617168 -0.191248,0.191246 -0.519428,0.285031 -0.771322,0.220415 z M 23.096243,8.6896209 C 22.7106,7.6085717 22.565859,7.2132536 22.555887,7.2137964 c -0.02829,0.00143 -0.527184,1.1316113 -0.508031,1.1507654 0.02172,0.021716 1.057907,0.4745448 1.08588,0.4745448 0.0087,0 -0.0082,-0.067268 -0.0375,-0.1494857 z M 4.410514,17.091093 C 4.1846189,17.04335 3.9428566,16.851737 3.8341797,16.634317 3.791771,16.549466 3.11353,14.835728 2.4728669,13.194626 2.4132766,13.041978 2.2945178,12.739497 2.2089588,12.522444 1.8608294,11.639275 1.731691,11.309744 1.4966122,10.704692 1.3611709,10.356092 0.98430925,9.3928012 0.65914151,8.5640522 0.31811086,7.6948703 0.05710678,6.995414 0.0423573,6.9111442 -0.01839889,6.5640258 0.19489212,6.1632452 0.53251437,5.9901194 0.58901492,5.9611643 0.86664674,5.8439104 1.1494748,5.7295949 1.4323024,5.6152747 2.2987239,5.263032 3.074856,4.946826 5.2965613,4.0416838 5.1533107,4.0953317 5.3469618,4.0959507 c 0.2135548,4.763e-4 0.2713379,0.026431 0.6347749,0.2826552 0.163956,0.1155966 0.5429597,0.3813216 0.8422312,0.5904984 l 0.544129,0.3803216 v 0.6059569 c 0,0.5564524 -0.00341,0.6069619 -0.041859,0.6182963 -0.023019,0.00676 -0.284023,0.1062814 -0.5800058,0.2211065 C 6.2678408,6.980365 6.1908222,7.0035624 6.0526191,7.0036814 5.8186981,7.0038815 5.6119001,6.8993764 5.5054848,6.7271935 5.4783156,6.683237 5.3324271,6.2834137 5.1812852,5.8386957 5.0301434,5.3939824 4.9005369,5.0241762 4.8932715,5.0169136 4.8860041,5.0096272 4.8236878,5.0265812 4.7547863,5.0544885 4.6858851,5.0824436 4.4842109,5.1646608 4.3066214,5.2372105 3.8725967,5.4145224 2.3943972,6.0152123 1.6995837,6.2966244 0.79419944,6.6633209 0.79070815,6.6653258 0.79070815,6.8187593 c 0,0.06743 0.29904105,0.8454367 1.58555345,4.1250887 1.7246032,4.396451 2.0935246,5.317328 2.1487536,5.363562 0.096856,0.08108 -0.1064376,0.154637 2.1578927,-0.780808 l 1.1923566,-0.492589 0.067623,0.04815 c 0.094285,0.06713 0.1644702,0.189742 0.1793285,0.313263 0.01053,0.08752 -3.012e-4,0.128065 -0.065807,0.2464 l -0.078407,0.141642 -0.5979442,0.248037 c -0.3288695,0.136418 -0.6463778,0.267606 -0.7055743,0.291523 -0.059197,0.02391 -0.5008786,0.205895 -0.9815152,0.4044 -0.9292648,0.383784 -1.0393989,0.41501 -1.2824523,0.363639 z M 6.3773358,6.2106831 C 6.8275739,6.0401813 7.0667758,5.9437532 7.0863396,5.9248561 7.0958074,5.9157124 6.96127,5.8195272 6.7873673,5.7111075 6.6134648,5.6026877 6.2828279,5.3916774 6.0526191,5.2421872 5.8224108,5.0927017 5.631359,4.9726475 5.6280601,4.9754001 c -0.0049,0.00429 0.432063,1.3523415 0.4382827,1.3523415 0.00104,0 0.1409857,-0.052676 0.310993,-0.1170585 z M 8.3686821,14.713845 C 8.1444546,14.621618 7.9855509,14.457521 7.8864961,14.215903 L 7.8344967,14.089058 V 8.1933267 c 0,-4.6820024 0.00621,-5.9162042 0.030223,-5.9951687 C 7.9354622,1.9653932 8.1664398,1.7308378 8.4085198,1.6459251 8.5196571,1.6069214 8.709828,1.6039687 11.099271,1.6039687 h 2.571161 l 0.131548,0.057643 c 0.114001,0.049957 0.29633,0.2218447 1.36692,1.2886594 1.007592,1.004042 1.247937,1.2558085 1.303518,1.3654665 l 0.06815,0.134446 v 4.8433505 4.8433514 l -0.06303,0.134418 c -0.137279,0.292775 -0.39749,0.474616 -0.707642,0.494522 l -0.175344,0.01124 -0.148856,-0.141194 c -0.08187,-0.07766 -0.226887,-0.209815 -0.322259,-0.293685 -0.09537,-0.08386 -0.173404,-0.161682 -0.173404,-0.172921 0,-0.01124 0.16198,-0.02043 0.359954,-0.02043 0.393864,0 0.469368,-0.019 0.520347,-0.130879 0.02182,-0.0479 0.02857,-1.114924 0.02857,-4.518859 V 5.0429494 L 14.83592,5.0311387 C 13.68349,5.0178518 13.68878,5.0186138 13.498646,4.8285006 13.305731,4.6355825 13.312544,4.684768 13.304583,3.4276879 l -0.0071,-1.1181528 h -2.267518 c -1.6301754,0 -2.2894119,0.00762 -2.3454128,0.027146 -0.1550346,0.054043 -0.1445159,-0.3739113 -0.144369,5.8737859 9.56e-5,3.7665205 0.00832,5.7166805 0.024364,5.7744525 0.039824,0.143376 0.096561,0.163907 0.4530179,0.163907 0.2948176,0 0.3637927,0.01633 0.2760855,0.06543 -0.019632,0.011 -0.1586946,0.140675 -0.3090373,0.288198 -0.2638775,0.258939 -0.2769398,0.268211 -0.3768954,0.267664 -0.05695,-3.1e-4 -0.1645235,-0.02567 -0.2390536,-0.0563 z M 15.271303,4.0734867 c -0.49558,-0.5087002 -1.284941,-1.285578 -1.306235,-1.285578 -0.03325,0 -0.02432,1.5403449 0.0091,1.5737909 0.02116,0.021145 0.23583,0.028717 0.817277,0.028717 h 0.788576 z"
       id="path1" /></g></svg>
