<?xml version="1.0" encoding="UTF-8" standalone="no"?>
<!-- Created with Inkscape (http://www.inkscape.org/) -->

<svg
   width="24"
   height="24"
   viewBox="0 0 24 24"
   version="1.1"
   id="svg1"
   xml:space="preserve"
   inkscape:version="1.4.3 (0d15f75, 2025-12-25)"
   sodipodi:docname="insert-pdf-pages.svg"
   xmlns:inkscape="http://www.inkscape.org/namespaces/inkscape"
   xmlns:sodipodi="http://sodipodi.sourceforge.net/DTD/sodipodi-0.dtd"
   xmlns="http://www.w3.org/2000/svg"
   xmlns:svg="http://www.w3.org/2000/svg"><sodipodi:namedview
     id="namedview1"
     pagecolor="#ffffff"
     bordercolor="#000000"
     borderopacity="0.25"
     inkscape:showpageshadow="2"
     inkscape:pageopacity="0.0"
     inkscape:pagecheckerboard="0"
     inkscape:deskcolor="#d1d1d1"
     inkscape:document-units="px"
     inkscape:zoom="3.15625"
     inkscape:cx="-11.405941"
     inkscape:cy="27.564356"
     inkscape:window-width="1920"
     inkscape:window-height="1010"
     inkscape:window-x="1913"
     inkscape:window-y="-6"
     inkscape:window-maximized="1"
     inkscape:current-layer="layer1" /><defs
     id="defs1" /><g
     inkscape:label="Vrstva 1"
     inkscape:groupmode="layer"
     id="layer1"><path
       style="fill:#000000;stroke-width:0.0250816"
       d="m 12.651082,23.746896 c -0.163459,-0.05792 -0.32267,-0.213673 -0.382856,-0.374531 -0.05126,-0.136975 -0.05166,-0.165848 -0.05166,-3.618934 0,-3.942978 -0.01494,-3.652961 0.199459,-3.86738 0.198438,-0.198438 0.206152,-0.199459 1.510646,-0.199459 h 1.124119 v -1.099123 c 0,-1.248254 0.0017,-1.261602 0.188027,-1.447895 0.196659,-0.196659 0.0961,-0.188934 2.359727,-0.181197 l 2.004569,0.0068 0.112863,0.06655 c 0.175872,0.103706 2.200271,2.217506 2.294974,2.39632 l 0.07524,0.142066 v 2.622809 2.622804 l -0.06895,0.117293 c -0.0839,0.142717 -0.214899,0.254645 -0.34295,0.293011 -0.06348,0.01904 -0.382286,0.02862 -0.949862,0.02862 h -0.854314 l -0.07769,-0.09406 c -0.144638,-0.175107 -0.148891,-0.349769 -0.013,-0.534022 l 0.06398,-0.08675 0.757712,-0.01254 0.757712,-0.01254 0.0064,-2.251078 0.0064,-2.251077 h -0.823281 c -0.981995,0 -1.025036,-0.0074 -1.221667,-0.209283 -0.07698,-0.07904 -0.137921,-0.169456 -0.156765,-0.232556 -0.02189,-0.07325 -0.03085,-0.362849 -0.03085,-0.996996 V 13.680033 H 17.45858 15.778106 v 1.003268 1.003263 h 0.321512 c 0.474024,0 0.535225,0.02343 0.841537,0.322584 0.136166,0.132961 0.604477,0.613833 1.040699,1.068597 0.436223,0.454764 0.839707,0.873426 0.896643,0.930356 0.06257,0.06258 0.124648,0.159998 0.156948,0.246337 0.0532,0.142112 0.05342,0.15489 0.05342,2.559385 0,2.727445 0.01,2.580818 -0.190063,2.786668 -0.193147,0.198734 5.7e-4,0.187702 -3.256945,0.185467 -2.480333,-0.0017 -2.900836,-0.0072 -2.990847,-0.03911 z m 5.697943,-2.842104 v -2.14326 l -0.877856,-0.01004 c -0.994043,-0.0114 -1.031417,-0.01796 -1.206148,-0.211341 -0.1742,-0.192822 -0.172501,-0.181487 -0.181025,-1.20442 l -0.0077,-0.921753 h -1.566192 -1.566186 v 3.306601 c 0,1.818624 0.0069,3.313483 0.01528,3.321898 0.0084,0.0084 1.224563,0.01311 2.702546,0.01043 l 2.687243,-0.0051 z m -0.413844,-2.878514 c 0,-0.01785 -0.890308,-0.925128 -1.047159,-1.067155 l -0.08151,-0.07381 v 0.579475 0.579475 h 0.564337 c 0.310383,0 0.564337,-0.0081 0.564337,-0.01802 z m 3.008727,-2.759802 c -5.7e-4,-0.01038 -0.248498,-0.272763 -0.550916,-0.583146 l -0.549843,-0.564338 -0.0011,0.583147 -0.0011,0.583147 h 0.551794 c 0.303489,0 0.551315,-0.0084 0.550727,-0.01882 z M 3.4420282,21.779478 C 3.0159372,21.724344 2.5998868,21.489849 2.3107023,21.141853 2.1892186,20.995664 2.0277554,20.679648 1.9646902,20.464647 1.9229545,20.322369 1.9202178,19.814073 1.9149153,11.146818 1.9109242,4.9985804 1.9177661,1.9103731 1.9350419,1.7696579 2.0078854,1.1758321 2.3642573,0.66524929 2.8908672,0.40023387 3.2979149,0.19539298 2.9268442,0.20897416 7.9024933,0.21679673 l 4.4269107,0.006956 0.150488,0.0712185 c 0.127362,0.0602772 0.248259,0.17014674 0.786619,0.71483072 1.781621,1.8025623 4.0306,4.116591 4.086977,4.2051993 0.03512,0.055191 0.08441,0.1662298 0.109556,0.2467761 0.04316,0.1382806 0.04573,0.3141175 0.04573,3.1503089 v 3.0038588 l -0.05645,0.08292 c -0.129945,0.190929 -0.306403,0.24283 -0.494789,0.145527 -0.06415,-0.03313 -0.132984,-0.09404 -0.160551,-0.142055 -0.04681,-0.08149 -0.04835,-0.169098 -0.05074,-2.8781156 l -0.0023,-2.7940623 -1.830956,-4.39e-4 C 12.894038,6.0292392 12.877087,6.0280076 12.586181,5.8751594 12.380485,5.7670117 12.143122,5.5298713 12.043977,5.3334574 11.886876,5.022242 11.890662,5.0814074 11.890662,2.9394868 V 0.98802751 l -4.2325273,0.006614 -4.2325271,0.006614 -0.1450027,0.067946 C 3.0778279,1.1642179 2.8593888,1.379755 2.7702046,1.5728221 l -0.071965,0.1558015 v 9.2802104 9.28021 l 0.073704,0.150487 c 0.093991,0.19191 0.2858946,0.383791 0.4780893,0.478016 l 0.1504934,0.07378 3.5615927,0.01254 c 3.39802,0.01197 3.565048,0.01465 3.636837,0.05855 0.120452,0.07365 0.172108,0.163088 0.182833,0.316535 0.01078,0.154302 -0.04191,0.261389 -0.178397,0.362518 l -0.07081,0.05245 -3.4656983,0.0029 c -1.9061372,0.0017 -3.537247,-0.0062 -3.6246922,-0.01756 z M 16.329957,5.2351392 c 0,-0.020298 -0.04402,-0.065597 -2.092015,-2.1520751 C 13.384888,2.2139884 12.676734,1.499055 12.664264,1.494334 c -0.0134,-0.00513 -0.01984,0.6811687 -0.01574,1.6804686 l 0.007,1.6890607 0.06875,0.116951 c 0.06865,0.1167913 0.184474,0.2078114 0.314094,0.2468387 0.08308,0.02503 3.291617,0.032328 3.291617,0.00747 z"
       id="path1" /></g></svg>
