<?xml version="1.0" encoding="utf-8"?>
<!-- Generator: Adobe Illustrator 16.0.0, SVG Export Plug-In . SVG Version: 6.00 Build 0)  -->
<!DOCTYPE svg PUBLIC "-//W3C//DTD SVG 1.1//EN" "http://www.w3.org/Graphics/SVG/1.1/DTD/svg11.dtd">
<svg version="1.1" id="Vrstva_1" xmlns="http://www.w3.org/2000/svg" xmlns:xlink="http://www.w3.org/1999/xlink" x="0px" y="0px"
	 width="24px" height="24px" viewBox="0 0 24 24" enable-background="new 0 0 24 24" xml:space="preserve">
<g>
	<path fill="#292D32" d="M22.075,17.182c0.128-0.621,0.194-1.346,0.204-2.216V9.031c-0.012-0.89-0.077-1.593-0.205-2.21
		c-0.252-1.393-0.758-2.461-1.549-3.271c-0.59-0.619-1.389-1.092-2.377-1.405c-0.906-0.281-2.02-0.425-3.31-0.425l-5.68,0.002
		c-5.145,0-7.438,2.293-7.438,7.438v5.689c0,5.14,2.295,7.431,7.438,7.431h5.681c1.291,0,2.403-0.145,3.311-0.425
		c0.981-0.305,1.761-0.762,2.379-1.397C21.314,19.65,21.82,18.58,22.075,17.182z M18.218,20.134
		c-0.643,0.284-1.444,0.446-2.452,0.496c-0.303,0.021-0.605,0.031-0.926,0.031H9.159c-4.353,0-5.821-1.466-5.821-5.812v-5.69
		c0-4.323,1.441-5.79,5.714-5.811l0.108-0.02h5.68c0.33,0,0.645,0.011,0.938,0.03c1.015,0.062,1.818,0.228,2.453,0.509
		c1.194,0.507,1.902,1.432,2.227,2.911c0.131,0.631,0.197,1.367,0.205,2.252v5.937c-0.008,0.889-0.074,1.624-0.205,2.254
		C20.133,18.702,19.421,19.628,18.218,20.134z"/>
</g>
<g>
	<path fill="#292D32" d="M17.011,16.92c0.742,0,1.144-0.397,1.144-1.134c0.001-2.522,0.001-5.048,0-7.574
		c0-0.739-0.394-1.131-1.143-1.131c-3.344-0.001-6.686-0.001-10.031,0c-0.739,0-1.134,0.397-1.135,1.142c0,2.517,0,5.035,0,7.552
		c0,0.75,0.4,1.145,1.155,1.145c1.67,0,3.336,0,5.007,0C13.674,16.92,15.343,16.92,17.011,16.92z M6.999,16.116
		c-0.313,0-0.365-0.052-0.365-0.375c0-2.494,0-4.987,0-7.482c0-0.328,0.056-0.383,0.38-0.383c3.322,0,6.644,0,9.965,0
		c0.34,0,0.391,0.052,0.391,0.398c0,2.485,0,4.972,0,7.461c0,0.33-0.051,0.38-0.383,0.38c-1.668,0-3.338,0-5.006,0
		C10.32,16.116,8.659,16.116,6.999,16.116z"/>
	<path fill="#292D32" d="M16.359,12.252c-0.776-0.766-1.546-1.54-2.32-2.311c-0.056-0.057-0.117-0.113-0.199-0.192
		c-1.094,1.104-2.172,2.194-3.279,3.311c-0.349-0.368-0.677-0.714-1.02-1.08c-0.682,0.69-1.327,1.339-1.969,1.992
		c-0.035,0.036-0.074,0.088-0.074,0.136c-0.005,0.382-0.004,0.764-0.004,1.151c3.021,0,6.009,0,9.015,0c0-0.099,0-0.181,0-0.267
		c0-0.785-0.005-1.574,0.003-2.364C16.514,12.474,16.474,12.364,16.359,12.252z"/>
	<path fill="#292D32" d="M8.71,11.162c0.683-0.002,1.209-0.527,1.213-1.209c0.004-0.695-0.525-1.224-1.22-1.222
		c-0.681,0-1.207,0.523-1.21,1.206C7.489,10.628,8.02,11.163,8.71,11.162z"/>
</g>
</svg>
