<?xml version="1.0" encoding="UTF-8" standalone="no"?>
<!-- Created with Inkscape (http://www.inkscape.org/) -->

<svg
   width="24"
   height="24"
   viewBox="0 0 24 24"
   version="1.1"
   id="svg1"
   xml:space="preserve"
   inkscape:version="1.4.3 (0d15f75, 2025-12-25)"
   sodipodi:docname="insert-image.svg"
   xmlns:inkscape="http://www.inkscape.org/namespaces/inkscape"
   xmlns:sodipodi="http://sodipodi.sourceforge.net/DTD/sodipodi-0.dtd"
   xmlns="http://www.w3.org/2000/svg"
   xmlns:svg="http://www.w3.org/2000/svg"><sodipodi:namedview
     id="namedview1"
     pagecolor="#ffffff"
     bordercolor="#000000"
     borderopacity="0.25"
     inkscape:showpageshadow="2"
     inkscape:pageopacity="0.0"
     inkscape:pagecheckerboard="0"
     inkscape:deskcolor="#d1d1d1"
     inkscape:document-units="px"
     inkscape:zoom="12.625"
     inkscape:cx="15.366337"
     inkscape:cy="17.584158"
     inkscape:window-width="1920"
     inkscape:window-height="1010"
     inkscape:window-x="1913"
     inkscape:window-y="-6"
     inkscape:window-maximized="1"
     inkscape:current-layer="layer1" /><defs
     id="defs1"><pattern
       id="EMFhbasepattern"
       patternUnits="userSpaceOnUse"
       width="6"
       height="6"
       x="0"
       y="0" /></defs><g
     inkscape:label="Vrstva 1"
     inkscape:groupmode="layer"
     id="layer1"><path
       style="fill:#000000;stroke-width:0.0264105"
       d="M 9.809994,23.864591 C 9.5244348,23.765688 9.3542694,23.598526 9.2453486,23.309917 9.2003779,23.190762 9.1913516,23.120211 9.200374,22.958449 9.214031,22.713804 9.22157,22.698133 9.7008218,21.919545 c 0.6952432,-1.129486 1.2204502,-1.985174 1.4427162,-2.350528 0.123715,-0.20336 0.328359,-0.536132 0.454766,-0.739492 0.126404,-0.20336 0.485056,-0.78571 0.797002,-1.294111 1.332963,-2.172429 1.276344,-2.090948 1.549675,-2.230167 0.16123,-0.08212 0.453084,-0.102216 0.630202,-0.04338 0.311153,0.103354 0.289682,0.07675 1.415936,1.754117 0.572199,0.852195 1.210106,1.801516 1.41757,2.109604 l 0.377207,0.560159 0.756857,-0.737052 c 0.534002,-0.520023 0.796054,-0.756733 0.889969,-0.803903 0.360234,-0.180938 0.708048,-0.144276 1.05491,0.111183 0.08407,0.06192 0.421404,0.549801 1.495052,2.162279 0.762571,1.145278 1.414558,2.135803 1.448861,2.201171 0.05324,0.10147 0.06248,0.157475 0.06317,0.38295 7.98e-4,0.243993 -0.0051,0.274845 -0.07733,0.405151 -0.105148,0.189826 -0.261279,0.341458 -0.436876,0.424287 l -0.145258,0.06852 -6.444143,0.0059 c -6.140466,0.0056 -6.4505974,0.0037 -6.581101,-0.04159 z M 22.58434,22.989279 c 0,-0.05795 -2.647693,-4.013048 -2.696962,-4.028686 -0.06049,-0.0192 -0.341942,0.235607 -1.088719,0.985644 l -0.471171,0.473229 0.04379,0.128961 c 0.101718,0.299617 -0.08329,0.587018 -0.394496,0.612826 -0.172116,0.01428 -0.30086,-0.02548 -0.39022,-0.120465 -0.03726,-0.03961 -0.782381,-1.141638 -1.655826,-2.448956 -0.873444,-1.307317 -1.598272,-2.380457 -1.610727,-2.38476 -0.01244,-0.0043 -0.206355,0.286875 -0.430891,0.647055 -0.402934,0.646353 -0.599528,0.965059 -2.358918,3.824129 -1.367116,2.221612 -1.411575,2.29458 -1.411575,2.316672 0,0.01139 2.804787,0.02064 6.23286,0.02064 4.120206,0 6.23286,-0.0089 6.23286,-0.0263 z M 1.9710017,22.530547 C 1.5588086,22.416355 1.1962442,22.176005 0.92912912,21.839868 0.74338639,21.606132 0.62879576,21.377458 0.55727351,21.09781 c -0.0513216,-0.200665 -0.0520505,-0.336991 -0.0520505,-9.735658 0,-9.446058 4.7918e-4,-9.5340108 0.0528288,-9.7390524 C 0.62689383,1.3534711 0.69215146,1.2046868 0.83739182,0.98621433 1.0476734,0.66990602 1.4056732,0.38080296 1.768616,0.23420294 2.1372761,0.08529489 1.9298558,0.09129857 6.6935923,0.09163998 c 3.5803467,1.9966e-4 4.4133367,0.0068283 4.5210597,0.03563874 0.330048,0.0882962 0.273613,0.0362836 2.888974,2.66267528 1.359788,1.3655227 2.499264,2.5262216 2.532165,2.5793303 0.0329,0.053111 0.08631,0.1738133 0.118697,0.268231 l 0.05887,0.1716689 0.0082,2.6938636 c 0.0058,1.8825832 -4e-4,2.7233312 -0.02036,2.7917122 -0.03507,0.119726 -0.138343,0.246494 -0.246268,0.302304 -0.201439,0.104168 -0.504786,0.01145 -0.618288,-0.188945 L 15.876952,11.302553 15.876553,8.7605491 15.876154,6.2185445 13.99441,6.2181452 C 11.929539,6.2175463 11.910008,6.2163483 11.574164,6.0591985 11.239209,5.9024539 11.002333,5.6687556 10.833585,5.3285524 10.675518,5.0098821 10.673302,4.9765155 10.673302,2.9152545 V 1.0415213 l -4.2058598,0.00693 -4.2058605,0.00693 -0.1519298,0.0712 C 1.7899435,1.2764036 1.5388938,1.6072429 1.4822875,1.953332 c -0.016603,0.1015179 -0.025808,3.4850836 -0.025612,9.415319 2.596e-4,7.997122 0.00553,9.281524 0.038711,9.438125 0.079862,0.376941 0.3279332,0.658752 0.6927626,0.786979 0.141662,0.04979 0.2312547,0.05149 2.6004593,0.04937 1.7376352,-0.0016 2.4858701,0.0064 2.5638277,0.02744 0.2192877,0.05905 0.3917581,0.324639 0.3512013,0.540824 -0.021373,0.113919 -0.1147765,0.248087 -0.2239273,0.321645 l -0.089111,0.06005 -2.604124,-0.002 -2.604124,-0.002 z M 13.419849,3.4584948 l -1.80904,-1.809276 -0.0076,0.2972789 c -0.0042,0.1635029 -0.0042,0.8736863 0,1.5781833 l 0.0076,1.2809063 0.07322,0.1245544 c 0.04027,0.068506 0.112105,0.1542149 0.159632,0.1904666 0.195949,0.1494571 0.140336,0.1450087 1.827091,0.1461288 l 1.558144,9.983e-4 z m 6.27255,12.6788262 c -0.756931,-0.176931 -1.335291,-0.730237 -1.549245,-1.482137 -0.08428,-0.296213 -0.08432,-0.757093 -7.8e-5,-1.053122 0.08801,-0.30929 0.270662,-0.642731 0.470011,-0.858045 0.419409,-0.453002 0.909488,-0.669072 1.51509,-0.66799 0.527514,9.98e-4 0.991428,0.17929 1.373542,0.528038 0.437524,0.399318 0.668534,0.928542 0.665418,1.524403 -0.0047,0.902645 -0.556429,1.667201 -1.410024,1.954009 -0.185817,0.06243 -0.272362,0.07517 -0.562912,0.08283 -0.231478,0.0062 -0.394961,-0.003 -0.501798,-0.02799 z m 0.65446,-0.925273 c 0.239217,-0.05069 0.416858,-0.15187 0.584458,-0.332897 0.285214,-0.308067 0.375209,-0.69301 0.253866,-1.085873 -0.212866,-0.68918 -1.013228,-0.993383 -1.6344,-0.621203 -0.180197,0.107965 -0.325243,0.271914 -0.431475,0.487698 -0.150159,0.30502 -0.129969,0.722564 0.04976,1.029258 0.150487,0.256787 0.42991,0.457067 0.72804,0.52183 0.213146,0.0463 0.236551,0.04637 0.44975,0.0012 z"
       id="path1" /></g></svg>
