<?xml version="1.0" encoding="UTF-8" standalone="no"?>
<!-- Created with Inkscape (http://www.inkscape.org/) -->

<svg
   width="24"
   height="24"
   viewBox="0 0 24 24"
   version="1.1"
   id="svg1"
   xml:space="preserve"
   inkscape:version="1.4.3 (0d15f75, 2025-12-25)"
   sodipodi:docname="insert-page-from-pdf.svg"
   xmlns:inkscape="http://www.inkscape.org/namespaces/inkscape"
   xmlns:sodipodi="http://sodipodi.sourceforge.net/DTD/sodipodi-0.dtd"
   xmlns="http://www.w3.org/2000/svg"
   xmlns:svg="http://www.w3.org/2000/svg"><sodipodi:namedview
     id="namedview1"
     pagecolor="#ffffff"
     bordercolor="#000000"
     borderopacity="0.25"
     inkscape:showpageshadow="2"
     inkscape:pageopacity="0.0"
     inkscape:pagecheckerboard="0"
     inkscape:deskcolor="#d1d1d1"
     inkscape:document-units="px"
     inkscape:zoom="25.25"
     inkscape:cx="7.4455446"
     inkscape:cy="14.653465"
     inkscape:window-width="1920"
     inkscape:window-height="1010"
     inkscape:window-x="1913"
     inkscape:window-y="-6"
     inkscape:window-maximized="1"
     inkscape:current-layer="layer1" /><defs
     id="defs1"><pattern
       id="EMFhbasepattern"
       patternUnits="userSpaceOnUse"
       width="6"
       height="6"
       x="0"
       y="0" /><pattern
       id="EMFhbasepattern-4"
       patternUnits="userSpaceOnUse"
       width="6"
       height="6"
       x="0"
       y="0" /><pattern
       id="EMFhbasepattern-7"
       patternUnits="userSpaceOnUse"
       width="6"
       height="6"
       x="0"
       y="0" /></defs><g
     inkscape:label="Vrstva 1"
     inkscape:groupmode="layer"
     id="layer1"><path
       style="fill:#050505;stroke:none;stroke-width:0.0267011"
       d="m 15.6541,6.254788 c 0,0 -2.7e-5,3.2513452 -2.7e-5,3.791526 v 4.832896 h -3.738151 c -0.613709,0 -1.291619,-0.095 -1.815673,0.29169 -0.6371015,0.470115 -0.5874248,1.191644 -0.5874248,1.897797 v 4.645987 c 0,0.733452 -0.060041,1.4987 0.6141258,1.981525 0.404181,0.289466 0.863858,0.261368 1.335052,0.261368 h 2.029285 5.740731 c 0.958178,0 1.926568,0.04123 2.883715,-0.0011 0.613175,-0.02709 1.164979,-0.528541 1.290491,-1.120396 0.113788,-0.536525 0.01792,-1.187073 0.01792,-1.735567 v -3.577946 c 0,-0.654116 0.144413,-1.464537 -0.252052,-2.029282 -0.480483,-0.684434 -1.251549,-0.614126 -1.990838,-0.614126 h -4.69939 V 8.6044572 6.7620819 c 0,-0.3310709 0.04435,-0.6970721 -0.06803,-1.014641 C 16.294283,5.4096057 15.997814,5.2031926 15.765467,4.9464081 15.220952,4.3446245 14.626042,3.784814 14.052064,3.2108382 13.362915,2.5216876 12.677631,1.8264171 11.996472,1.1281538 11.687951,0.81188498 11.389256,0.3694645 10.981442,0.17563105 10.688022,0.03618079 10.362532,0.06012459 10.046905,0.06012459 H 8.5516469 4.065866 c -0.706824,0 -1.5675346,-0.13112198 -2.2428903,0.10918762 C 1.2165656,0.38509697 0.72194322,0.91534206 0.60168916,1.5553776 0.48199435,2.1924934 0.56801289,2.9104221 0.56801289,3.557958 v 3.7915533 10.0663067 2.616704 c 0,0.552959 -0.0539886,1.099726 0.22193412,1.602066 0.48498429,0.882979 1.34761729,0.907836 2.23456689,0.907836 h 2.9638193 1.1481477 c 0.1751844,0 0.3947702,0.03462 0.5607014,-0.03065 0.302888,-0.119162 0.3523589,-0.56404 0.078973,-0.74382 C 7.556158,21.623299 7.2004775,21.687984 6.949576,21.687984 H 3.2915273 c -0.4979826,0 -1.1368295,0.118872 -1.5486411,-0.222394 C 1.2866563,21.087517 1.3607005,20.483366 1.379887,19.952409 1.4021603,19.333547 1.3689924,18.703702 1.3689924,18.083335 V 8.3641427 3.104028 c 0,-0.6598486 -0.1553805,-1.527912 0.4540196,-1.9778134 0.4950073,-0.36544686 1.1879007,-0.17472441 1.7621695,-0.21406585 1.5719288,-0.10766238 3.2026375,0.00239 4.7794931,0.00239 0.4921456,0 0.9796623,-0.014284 1.4685589,-0.0263164 0.1176612,-0.002905 0.4047225,-0.0511318 0.4798785,0.0614937 0.05634,0.0844206 0.02745,0.24202855 0.02745,0.33862695 V 2.1160742 4.038553 c 0,0.7044514 -0.01622,1.3590856 0.560723,1.8641304 0.442987,0.3878194 1.053547,0.3520586 1.602063,0.3520586 h 3.150729 M 11.1683,1.5019507 l 0.534124,0.5340219 1.121342,1.1214435 1.41526,1.4418601 0.77423,0.8010304 h -2.483202 c -0.332272,0 -0.780421,0.082072 -1.066991,-0.1193075 C 11.128716,5.0460399 11.141599,4.6436533 11.141599,4.278865 V 2.5165938 c 0,-0.331896 -0.03389,-0.6876758 0.0267,-1.0146406 M 10.927993,15.607848 c 0.894505,-0.116523 1.87425,-0.0077 2.77691,-0.0077 h 5.633931 2.082682 c 0.325481,0 0.703703,-0.05701 0.98755,0.136303 0.473717,0.32265 0.320801,1.080475 0.320801,1.572558 v 4.378978 c 0,0.528768 0.133713,1.37427 -0.560723,1.534529 -0.287815,0.06643 -0.63967,0.01404 -0.934535,0.01404 H 19.365533 13.41119 11.408612 c -0.312088,0 -0.652642,0.05319 -0.907734,-0.165888 -0.424432,-0.364552 -0.267115,-1.119826 -0.267115,-1.623122 v -4.40568 c 0,-0.589959 -0.07934,-1.33336 0.69423,-1.434132"
       id="path7"
       sodipodi:nodetypes="cccscsssscsccssssccssscscscsccsccscscsccssscscsccsccscscsccccccscssccscscsscsccscssc" /><path
       style="fill:#050505;stroke:none;stroke-width:0.0267011"
       d="m 18.93833,21.500956 0.720929,0.0267 v -1.228249 l 0.0428,-0.437808 0.411107,-0.0428 h 1.094745 v -0.640827 h -1.548663 v -0.720929 c 0,-0.08427 -0.02203,-0.211257 0.02743,-0.285224 0.07186,-0.107662 0.315303,-0.06188 0.426476,-0.06188 h 1.228249 v -0.640827 h -1.735569 l -0.624716,0.02745 -0.0428,0.26627 v 0.74763 2.990521"
       id="path6" /><path
       style="fill:#050505;stroke:none;stroke-width:0.0267011"
       d="m 15.173486,21.501048 c 0.60618,0.02603 1.243071,0.124295 1.842375,-0.01743 1.378236,-0.326038 1.694965,-2.382157 0.894012,-3.400267 -0.356237,-0.452817 -0.900246,-0.614124 -1.454738,-0.614124 -0.316929,0 -0.646809,-0.02593 -0.961236,0.01525 -0.07977,0.01041 -0.237501,-0.01598 -0.292971,0.05413 -0.05537,0.06989 -0.02745,0.220942 -0.02745,0.3043 v 0.747632 2.910417 M 15.8944,18.109977 c 0.395639,0.02547 0.816827,-0.05496 1.174847,0.167485 0.64227,0.399024 0.693421,1.682301 0.231545,2.235519 -0.263742,0.315893 -0.646042,0.373918 -1.032566,0.373918 -0.09282,0 -0.307907,0.03946 -0.373071,-0.0428 -0.08282,-0.104563 -0.0029,-0.318382 -0.0029,-0.437806 0,-0.35676 0.03002,-0.769775 -0.0056,-1.121446 -0.03358,-0.331606 -0.06234,-0.851586 0.0077,-1.174847 z"
       id="path5" /><path
       style="fill:#050505;stroke:none;stroke-width:0.0267011"
       d="m 11.835829,21.527647 h 0.694227 v -1.468559 c 0.371507,0 0.759573,0.02813 1.121446,-0.07333 0.857453,-0.240383 1.261829,-1.392602 0.624302,-2.081821 -0.394061,-0.426006 -0.942052,-0.434859 -1.478737,-0.434859 -0.233361,0 -0.462203,-1.7e-5 -0.694227,0.02227 -0.07074,0.0068 -0.189251,-0.01622 -0.23956,0.04735 -0.05537,0.06989 -0.02743,0.220941 -0.02743,0.304299 v 0.747633 2.937118 m 0.756118,-3.401578 c 0.298644,-0.146955 0.931116,0.0015 1.12913,0.251292 0.230166,0.290298 0.124779,0.785884 -0.203098,0.950753 -0.214962,0.108098 -0.461181,0.09021 -0.694208,0.09021 -0.07483,-4e-6 -0.212952,0.0245 -0.266268,-0.0428 -0.05178,-0.06539 -0.02745,-0.199879 -0.02745,-0.277601 v -0.694227 c 5e-6,-0.0811 -0.02765,-0.233531 0.06188,-0.2776"
       id="path4" /></g></svg>
