<?xml version="1.0" encoding="UTF-8" standalone="no"?>
<!-- Created with Inkscape (http://www.inkscape.org/) -->

<svg
   width="24"
   height="24"
   viewBox="0 0 24 24"
   version="1.1"
   id="svg1"
   xml:space="preserve"
   inkscape:version="1.4.3 (0d15f75, 2025-12-25)"
   sodipodi:docname="insert-empty-page.svg"
   xmlns:inkscape="http://www.inkscape.org/namespaces/inkscape"
   xmlns:sodipodi="http://sodipodi.sourceforge.net/DTD/sodipodi-0.dtd"
   xmlns="http://www.w3.org/2000/svg"
   xmlns:svg="http://www.w3.org/2000/svg"><sodipodi:namedview
     id="namedview1"
     pagecolor="#ffffff"
     bordercolor="#000000"
     borderopacity="0.25"
     inkscape:showpageshadow="2"
     inkscape:pageopacity="0.0"
     inkscape:pagecheckerboard="0"
     inkscape:deskcolor="#d1d1d1"
     inkscape:document-units="px"
     inkscape:zoom="6.3125"
     inkscape:cx="39.920792"
     inkscape:cy="48"
     inkscape:window-width="1920"
     inkscape:window-height="1010"
     inkscape:window-x="1913"
     inkscape:window-y="-6"
     inkscape:window-maximized="1"
     inkscape:current-layer="layer1" /><defs
     id="defs1" /><g
     inkscape:label="Vrstva 1"
     inkscape:groupmode="layer"
     id="layer1"><path
       style="fill:#000000;stroke-width:0.0254687"
       d="M 2.4980078,23.767816 C 2.0860287,23.693045 1.8405204,23.565099 1.5447683,23.271042 1.2939037,23.021615 1.1516323,22.776684 1.0645957,22.444387 l -0.052951,-0.20216 V 11.999915 c 0,-10.1042771 6.703e-4,-10.2449545 0.050135,-10.4383386 0.1637249,-0.64015803 0.6763279,-1.15208957 1.317905,-1.31617757 0.1886612,-0.0482515 0.3241557,-0.0495406 5.2047539,-0.0495406 h 5.0110494 l 0.156622,0.0827736 c 0.131202,0.0693398 0.318603,0.24857442 1.154688,1.10437431 0.548936,0.5618804 1.731567,1.7682757 2.628068,2.6808782 1.310507,1.3340438 1.642483,1.6854291 1.693673,1.792699 l 0.06367,0.1334227 0.0074,2.9798465 c 0.0041,1.6389165 5.89e-4,3.0173405 -0.0076,3.0631655 -0.01864,0.103509 -0.150186,0.256792 -0.2596,0.302509 -0.164464,0.06872 -0.411281,0.01561 -0.525747,-0.113121 -0.118159,-0.132886 -0.116253,-0.08456 -0.117438,-2.9774695 l -0.0011,-2.7302309 -1.980199,-0.00922 C 13.204679,6.4952304 13.328915,6.5047527 12.931083,6.315584 12.651338,6.1825664 12.339673,5.8659136 12.197006,5.56977 12.009613,5.1807839 12.014995,5.2545909 12.014574,3.0674633 L 12.014215,1.1127341 11.867769,1.112375 c -3.8662006,-0.00847 -9.2325059,0.00502 -9.2953725,0.023351 -0.1394248,0.040672 -0.3379295,0.1609614 -0.4201447,0.2546 -0.043145,0.049138 -0.1082559,0.152901 -0.144692,0.2305838 l -0.066247,0.14124 V 12.000599 22.239047 l 0.067527,0.144037 c 0.083331,0.177746 0.2355536,0.32884 0.425048,0.421897 l 0.1441443,0.07079 4.4443026,0.01273 c 4.1973243,0.01203 4.4489073,0.01525 4.5271833,0.05802 0.09645,0.05269 0.19776,0.198174 0.223003,0.320224 0.03974,0.192138 -0.102963,0.433558 -0.298057,0.504243 -0.127568,0.04622 -8.7209882,0.04315 -8.9763986,-0.0032 z M 16.721636,5.5712941 c -0.0084,-0.023725 -0.989338,-1.0250278 -2.83338,-2.8922304 l -0.955809,-0.9678134 0.0057,1.6554711 0.0057,1.6554699 0.06001,0.1146097 c 0.116026,0.2216089 0.309569,0.378382 0.531749,0.4307272 0.131771,0.031043 3.197071,0.034668 3.186115,0.00377 z M 14.701114,23.757408 c -0.117911,-0.05457 -0.20165,-0.13828 -0.240256,-0.240174 -0.0188,-0.04963 -0.02717,-1.249645 -0.02717,-3.898103 v -3.826408 l 0.07297,-0.115063 c 0.04392,-0.06926 0.112359,-0.134611 0.171914,-0.164166 0.09622,-0.04775 0.20557,-0.04929 3.97931,-0.05571 2.789327,-0.0047 3.91003,0.0014 3.985864,0.02175 0.152182,0.04091 0.284743,0.189166 0.32136,0.359419 0.02115,0.09831 0.02688,1.148527 0.02117,3.878728 l -0.0078,3.743913 -0.05849,0.101875 c -0.03217,0.05603 -0.100935,0.130527 -0.152813,0.165547 l -0.09433,0.06367 -3.934926,0.0059 c -3.782734,0.0057 -3.938867,0.0041 -4.036802,-0.04121 z m 7.36694,-4.122505 -0.0065,-3.304572 -3.355512,-0.0065 -3.355511,-0.0065 v 3.311034 3.311036 h 3.361974 3.361974 z"
       id="path1" /></g></svg>
