<?xml version="1.0" encoding="UTF-8" standalone="no"?>
<!-- Created with Inkscape (http://www.inkscape.org/) -->

<svg
   width="24"
   height="24"
   viewBox="0 0 24 24"
   version="1.1"
   id="svg1"
   xml:space="preserve"
   inkscape:version="1.4.3 (0d15f75, 2025-12-25)"
   sodipodi:docname="invert-selection.svg"
   xmlns:inkscape="http://www.inkscape.org/namespaces/inkscape"
   xmlns:sodipodi="http://sodipodi.sourceforge.net/DTD/sodipodi-0.dtd"
   xmlns="http://www.w3.org/2000/svg"
   xmlns:svg="http://www.w3.org/2000/svg"><sodipodi:namedview
     id="namedview1"
     pagecolor="#ffffff"
     bordercolor="#000000"
     borderopacity="0.25"
     inkscape:showpageshadow="2"
     inkscape:pageopacity="0.0"
     inkscape:pagecheckerboard="0"
     inkscape:deskcolor="#d1d1d1"
     inkscape:document-units="px"
     inkscape:zoom="11.549411"
     inkscape:cx="-1.8182746"
     inkscape:cy="3.7231337"
     inkscape:window-width="1920"
     inkscape:window-height="1010"
     inkscape:window-x="1913"
     inkscape:window-y="-6"
     inkscape:window-maximized="1"
     inkscape:current-layer="layer1" /><defs
     id="defs1" /><g
     inkscape:label="Vrstva 1"
     inkscape:groupmode="layer"
     id="layer1"><path
       style="fill:#000000;stroke-width:0.0261393"
       d="M 1.73906,24.009919 C 1.7103069,24.004255 1.6220866,23.987043 1.5430154,23.971668 1.4639438,23.956292 1.2886984,23.890602 1.153581,23.825689 0.82405944,23.667382 0.50961183,23.362192 0.34455247,23.040479 0.12804786,22.618496 0.13141669,22.655878 0.13206748,20.682801 c 6.3047e-4,-1.95833 -0.008322,-1.86636 0.19862963,-2.037069 0.17886499,-0.147542 0.38555522,-0.172752 0.59804475,-0.07295 0.15369194,0.0722 0.20071824,0.120241 0.27245104,0.278383 0.051613,0.113788 0.053159,0.164701 0.053716,1.769486 5.604e-4,1.622438 0.00158,1.655029 0.056382,1.801489 0.070673,0.18889 0.220466,0.352215 0.395695,0.43144 l 0.1366314,0.06177 1.777472,0.01309 c 1.9758599,0.01453 1.8524976,0.0027 2.0208151,0.194366 0.2579008,0.293732 0.1046853,0.766286 -0.284655,0.877948 -0.084251,0.02416 -3.4981177,0.03282 -3.6181894,0.0092 z m 16.862078,-0.01551 c -0.132566,-0.03581 -0.316177,-0.218398 -0.353008,-0.351041 -0.0603,-0.217192 -0.01615,-0.420018 0.12344,-0.566976 0.160654,-0.169133 0.05265,-0.159752 2.004803,-0.174106 1.737933,-0.01283 1.780119,-0.0143 1.896427,-0.06811 0.17391,-0.08047 0.300553,-0.203254 0.38318,-0.37151 l 0.07293,-0.148513 0.01309,-1.699055 c 0.0092,-1.199974 0.02191,-1.718682 0.04317,-1.765875 0.0959,-0.212886 0.342625,-0.355653 0.568406,-0.328911 0.192985,0.02285 0.350723,0.131405 0.440397,0.303056 l 0.07406,0.141772 -0.0084,1.765994 c -0.0082,1.744629 -0.009,1.768314 -0.06711,1.95782 -0.19138,0.624869 -0.664039,1.08929 -1.298899,1.276262 -0.142495,0.04197 -0.322946,0.04668 -1.973517,0.05151 -1.211484,0.0035 -1.850769,-0.0039 -1.919005,-0.02231 z M 5.7632151,18.34355 C 5.659545,18.298229 5.5509645,18.167597 5.5156744,18.045736 5.4960877,17.978094 5.4899652,16.702989 5.4953731,13.816971 l 0.00775,-4.1319226 0.070159,-0.1060124 c 0.04226,-0.063857 0.1157024,-0.1280586 0.1846931,-0.1614569 0.1138475,-0.055114 0.1273363,-0.055446 2.248252,-0.055446 h 2.1337168 l 0.008,-0.7692491 c 0.0076,-0.7294873 0.01077,-0.7729773 0.06188,-0.841377 0.09972,-0.1334652 0.187039,-0.1799154 0.338196,-0.1799154 0.151158,0 0.238475,0.046452 0.338195,0.1799196 0.05113,0.068431 0.05429,0.1116093 0.06154,0.841377 l 0.0077,0.7692449 h 1.611268 c 1.58852,0 1.612886,7.706e-4 1.725803,0.055446 0.06898,0.03339 0.142442,0.097607 0.184694,0.1614408 l 0.07016,0.1059962 0.0073,1.7450509 0.0073,1.74505 0.633166,0.0082 c 0.597642,0.0077 0.638302,0.01141 0.724656,0.06522 0.123197,0.07676 0.182975,0.186246 0.182975,0.335082 0,0.148836 -0.05979,0.258319 -0.182975,0.335082 -0.08732,0.0544 -0.120133,0.05704 -0.718831,0.05767 l -0.627343,6.66e-4 -0.01309,2.038202 c -0.01459,2.275927 -0.0015,2.126821 -0.200514,2.278641 l -0.09601,0.07324 -4.210463,0.0057 C 6.5930017,18.37742 5.8288892,18.372259 5.7633729,18.34361 Z M 13.58016,13.884232 v -3.541874 l -3.561478,-0.0066 -3.5614794,-0.0066 v 3.537612 c 0,1.945685 0.0072,3.544811 0.016004,3.553612 0.0088,0.0088 1.6114667,0.0137 3.5614794,0.01093 l 3.545476,-0.0051 z m 3.851261,0.08139 c -0.341637,-0.07189 -0.438831,-0.474883 -0.167528,-0.694619 l 0.09811,-0.07946 0.519513,-0.0085 0.519513,-0.0085 0.0074,-0.963324 c 0.0072,-0.926075 0.0096,-0.966114 0.06134,-1.035471 0.09971,-0.133473 0.187029,-0.179934 0.338195,-0.179934 0.151169,0 0.238496,0.04646 0.338196,0.179939 0.05203,0.06965 0.05419,0.109055 0.06219,1.135444 0.0057,0.718513 -0.0012,1.107164 -0.02105,1.198592 -0.03907,0.18018 -0.145885,0.320925 -0.303061,0.399348 -0.124209,0.06198 -0.149317,0.06435 -0.742826,0.07037 -0.337851,0.0034 -0.657371,-0.0028 -0.710047,-0.01392 z M 18.603416,9.93438 c -0.06807,-0.035914 -0.115921,-0.08776 -0.149725,-0.1622156 -0.04533,-0.099834 -0.04973,-0.1799876 -0.05026,-0.9140528 -6.3e-4,-0.8833315 0.0047,-0.91974 0.153477,-1.0449125 0.165322,-0.1391083 0.403712,-0.1186426 0.549287,0.047157 l 0.08084,0.092074 v 0.8903281 c 0,0.9956696 0.0013,0.9877057 -0.184179,1.0919751 -0.121793,0.06845 -0.269286,0.068319 -0.399442,-3.501e-4 z m -0.0057,-3.2348751 c -0.161807,-0.098673 -0.180945,-0.1587 -0.190738,-0.5982494 l -0.0089,-0.3986242 h -0.600155 c -0.666695,0 -0.706776,-0.00826 -0.804151,-0.1658223 -0.07166,-0.1159359 -0.0733,-0.3132268 -0.0036,-0.4275776 0.104905,-0.1720467 0.136607,-0.1777091 0.995048,-0.1777091 h 0.771807 l 0.129758,0.066777 c 0.0785,0.040396 0.160833,0.1109586 0.208417,0.1786135 l 0.07866,0.1118375 0.0078,0.5977049 c 0.0088,0.6653124 -7.36e-4,0.7137539 -0.159462,0.8105283 -0.109657,0.066861 -0.317087,0.068093 -0.424612,0.00252 z m -8.239092,-0.072708 c -0.04664,-0.022991 -0.111329,-0.084476 -0.143766,-0.1366359 -0.05608,-0.090182 -0.05898,-0.1204946 -0.05898,-0.6176224 0,-0.4914827 0.0035,-0.5293472 0.05857,-0.6323634 0.03222,-0.060268 0.09932,-0.1406576 0.149123,-0.1786436 0.169447,-0.1292439 0.273068,-0.1430773 1.071746,-0.1430773 0.710703,0 0.739155,0.00196 0.85131,0.058814 0.140819,0.071378 0.213073,0.1877028 0.213073,0.3430413 0,0.1379833 -0.05838,0.2605565 -0.153965,0.3232649 -0.06067,0.039801 -0.158207,0.047748 -0.724821,0.059059 l -0.65472,0.013068 -0.01307,0.3528804 c -0.01152,0.3109808 -0.01999,0.3625851 -0.07137,0.4346107 -0.111106,0.1557617 -0.345544,0.2111533 -0.523138,0.1236024 z m 3.399215,-0.9748385 c -0.277757,-0.1711679 -0.220593,-0.5986273 0.09412,-0.7038081 0.114193,-0.038165 1.596247,-0.040541 1.732212,-0.00277 0.119377,0.033156 0.248671,0.1765189 0.272171,0.3017835 0.02404,0.1281868 -0.02347,0.2717698 -0.120821,0.3650732 l -0.08069,0.077332 -0.906655,0.00698 c -0.863477,0.00666 -0.91064,0.00452 -0.990338,-0.044588 z M 0.55861573,5.4946268 C 0.42491436,5.4627705 0.30753596,5.3810856 0.22334287,5.2613097 L 0.14456312,5.1492349 0.13749131,3.3852086 C 0.1306962,1.6902702 0.13249655,1.612438 0.18344477,1.3979124 0.26554153,1.0522409 0.41466251,0.79032998 0.67928382,0.52703899 0.91986689,0.28766467 1.1240128,0.16230167 1.4515291,0.05281434 L 1.6345045,-0.0083535 3.4750026,-0.01611882 5.3155012,-0.02388416 5.4576564,0.04566582 C 5.8139924,0.2200047 5.8789691,0.7041509 5.5812075,0.96625135 5.5119006,1.0272576 5.4158003,1.0818865 5.3475616,1.0990693 5.2680908,1.1190798 4.6944808,1.1282567 3.5231602,1.1282567 H 1.8146745 L 1.6791367,1.1957983 C 1.6045908,1.2329458 1.4963628,1.3170026 1.4386296,1.3825908 1.2528161,1.593686 1.2555548,1.5634103 1.2549103,3.4136546 1.2543849,4.9520448 1.2511555,5.0692082 1.2067173,5.1667775 1.1354857,5.3231823 0.97375942,5.4561963 0.81287484,5.4907001 0.66438818,5.522546 0.67509011,5.5223778 0.55861714,5.4946266 Z M 23.19942,5.4928406 c -0.190118,-0.028361 -0.322145,-0.1263543 -0.421706,-0.3130004 -0.0462,-0.086617 -0.0488,-0.1819364 -0.0488,-1.7905412 0,-1.872658 0.0104,-1.747847 -0.165678,-1.9900522 -0.05211,-0.071679 -0.13339,-0.1354386 -0.241597,-0.1895098 L 22.158569,1.12825 20.457155,1.1280931 c -1.133073,-1.047e-4 -1.736341,-0.00955 -1.805972,-0.028305 -0.445146,-0.11988806 -0.583537,-0.69708403 -0.235851,-0.98367662 0.0537,-0.04426624 0.146383,-0.09400395 0.205955,-0.11052795 0.07811,-0.02166377 0.614937,-0.02786344 1.924995,-0.0222242 l 1.816681,0.00781787 0.209114,0.07359167 c 0.495995,0.17455044 0.885643,0.50989614 1.099002,0.94584083 0.185523,0.3790712 0.179367,0.3058193 0.188638,2.2446034 0.0073,1.5300888 0.0032,1.7632851 -0.03248,1.870935 -0.03614,0.1087839 -0.118932,0.2108163 -0.251575,0.3099895 -0.06083,0.045484 -0.255111,0.074758 -0.376234,0.056689 z"
       id="path1" /></g></svg>
