<?xml version="1.0" encoding="UTF-8" standalone="no"?>
<!-- Created with Inkscape (http://www.inkscape.org/) -->

<svg
   version="1.1"
   id="svg1"
   width="24"
   height="24"
   viewBox="0 0 24 24"
   sodipodi:docname="load-checkpoint.svg"
   inkscape:version="1.4.3 (0d15f75, 2025-12-25)"
   xmlns:inkscape="http://www.inkscape.org/namespaces/inkscape"
   xmlns:sodipodi="http://sodipodi.sourceforge.net/DTD/sodipodi-0.dtd"
   xmlns="http://www.w3.org/2000/svg"
   xmlns:svg="http://www.w3.org/2000/svg"
   xmlns:rdf="http://www.w3.org/1999/02/22-rdf-syntax-ns#"
   xmlns:cc="http://creativecommons.org/ns#"
   xmlns:dc="http://purl.org/dc/elements/1.1/">
  <title
     id="title1">iconset2</title>
  <defs
     id="defs1" />
  <sodipodi:namedview
     id="namedview1"
     pagecolor="#ffffff"
     bordercolor="#000000"
     borderopacity="0.25"
     inkscape:showpageshadow="2"
     inkscape:pageopacity="0.0"
     inkscape:pagecheckerboard="0"
     inkscape:deskcolor="#d1d1d1"
     inkscape:zoom="26.165746"
     inkscape:cx="13.299831"
     inkscape:cy="12.153294"
     inkscape:window-width="1920"
     inkscape:window-height="1010"
     inkscape:window-x="1913"
     inkscape:window-y="-6"
     inkscape:window-maximized="1"
     inkscape:current-layer="g1" />
  <g
     inkscape:groupmode="layer"
     inkscape:label="Image"
     id="g1">
    <g
       id="g2"
       transform="matrix(0.09726743,0,0,0.09726743,-131.5304,-39.059136)">
      <path
         style="fill:#000000"
         d="m 1464.9868,527.02688 c -6.5593,-3.89467 -12.4885,-7.80568 -13.176,-8.69112 -0.9298,-1.1975 -1.25,-8.56597 -1.25,-28.76379 0,-25.03625 0.1426,-27.28295 1.8287,-28.80887 2.3902,-2.1631 3.7386,-2.08771 6.1713,0.34501 1.8931,1.89312 2.0012,3.3494 2.0223,27.25 l 0.022,25.25 10.4777,6.32727 c 8.3633,5.05043 10.4777,6.78489 10.4777,8.59501 0,1.96194 -2.692,5.57772 -4.1527,5.57772 -0.2724,0 -5.862,-3.18655 -12.4213,-7.08123 z"
         id="path50" />
      <path
         style="fill:#000000"
         d="m 1440.5608,615.00821 c -8.7726,-1.34113 -26.0365,-7.20433 -34,-11.54716 -23.5242,-12.82863 -40.6015,-33.67023 -49.0427,-59.85294 -2.9402,-9.11982 -3.2646,-11.4083 -3.6855,-26 -0.526,-18.23547 0.4249,-24.47243 5.9896,-39.28747 4.7031,-12.52096 11.7327,-23.81485 20.9939,-33.72899 16.804,-17.98872 35.6932,-28.03366 60.1871,-32.00642 11.5247,-1.86922 19.6385,-1.85613 31.5576,0.0509 23.1467,3.70346 41.9777,13.46195 58.1127,30.11491 16.1733,16.6925 25.696,36.96188 27.5238,58.5854 l 0.6455,7.63639 -4.891,-1.2472 -4.891,-1.2472 -0.706,-5.62121 c -3.1676,-25.21837 -18.6188,-49.81813 -40.3516,-64.24355 -8.1992,-5.44232 -19.1879,-10.23275 -29.1411,-12.70372 -11.557,-2.86916 -33.4292,-3.08815 -43.3013,-0.43354 -20.1802,5.42648 -34.5832,13.85335 -47.4718,27.77456 -21.2137,22.91335 -29.9888,56.48417 -22.2338,85.06017 7.3041,26.91479 24.9363,48.34402 49.8544,60.59029 13.4953,6.63242 21.876,8.49591 39.335,8.74637 l 14.9839,0.21495 1.7059,3.86663 c 1.465,3.32052 1.5027,3.98036 0.2669,4.67194 -2.2802,1.27608 -24.2848,1.70082 -31.4405,0.60688 z"
         id="path49" />
      <path
         style="fill:#000000"
         d="m 1526.5608,638.15814 c -21.0503,-3.97476 -39.1217,-20.24087 -46.1615,-41.55003 -3.2662,-9.8865 -3.2617,-24.95791 0.01,-35.5 5.6824,-18.30687 18.9961,-32.10683 37.3506,-38.71493 6.317,-2.27425 8.9169,-2.63303 19.3004,-2.66332 10.584,-0.0309 12.9395,0.29194 19.9619,2.73568 15.082,5.24845 26.9355,15.24165 33.9491,28.62104 4.7755,9.11004 6.5914,17.02622 6.5756,28.66587 -0.023,16.83584 -6.3444,30.92046 -19.3191,43.04315 -6.8729,6.42164 -16.1721,11.81666 -24.0359,13.94465 -6.4718,1.7513 -21.7216,2.53383 -27.6316,1.41789 z m 23.5,-10.40693 c 13.7063,-3.65456 26.5139,-13.83138 32.3641,-25.71636 4.7869,-9.72461 6.7031,-20.58503 5.2646,-29.83775 -2.9396,-18.90794 -15.0922,-33.54438 -33.8486,-40.76671 -9.1663,-3.52955 -22.6618,-3.69437 -32.2261,-0.39357 -29.8003,10.28452 -42.8709,44.1205 -27.8964,72.21556 8.4578,15.86842 25.1087,25.78706 43.3424,25.81829 4.4,0.008 10.25,-0.58622 13,-1.31946 z"
         id="path47" />
      <path
         style="fill:#000000"
         d="m 1504.6948,605.48938 -2.3111,-1.61873 0.3385,-25.8316 c 0.2555,-19.49249 0.6576,-26.15054 1.6386,-27.13127 0.9166,-0.91639 4.7111,-1.29967 12.8669,-1.29967 h 11.5669 l 3.6604,4.25 3.6603,4.25 h 12.1003 c 13.1101,0 13.9208,0.30737 14.5067,5.5 0.3329,2.95052 0.4513,3.00825 7.1778,3.5 5.634,0.41189 7.176,0.91603 8.75,2.86078 2.8525,3.52441 2.3889,6.21154 -2.9169,16.90739 -2.6552,5.35251 -5.4293,11.30683 -6.1647,13.23183 -2.8139,7.3656 -1.0673,7 -33.4402,7 -25.2176,0 -29.4324,-0.21705 -31.4335,-1.61873 z m 52.7092,-6.99991 c 2.7317,-0.54634 3.6965,-1.80264 8.2559,-10.75 2.8395,-5.57225 5.8081,-10.87419 6.5969,-11.78208 1.1434,-1.31598 1.176,-1.81034 0.1607,-2.43784 -0.7005,-0.43291 -11.6423,-0.85167 -24.3151,-0.93057 -20.911,-0.13018 -23.0724,-0.30219 -23.3742,-1.8602 -0.4354,-2.24743 1.5911,-4.62067 3.9455,-4.62067 1.6773,0 1.5882,-0.40464 -0.8724,-3.96205 -2.7288,-3.94513 -2.7693,-3.96221 -9.4905,-4 l -6.75,-0.038 v 19.83333 c 0,10.90834 0.3,20.13334 0.6667,20.5 0.8403,0.8403 41.0017,0.88299 45.1765,0.048 z"
         id="path46" />
    </g>
  </g>
  <metadata
     id="metadata1">
    <rdf:RDF>
      <cc:Work
         rdf:about="">
        <dc:title>iconset2</dc:title>
      </cc:Work>
    </rdf:RDF>
  </metadata>
</svg>
