<?xml version="1.0" encoding="UTF-8" standalone="no"?>
<!-- Created with Inkscape (http://www.inkscape.org/) -->

<svg
   version="1.1"
   id="svg1"
   width="24"
   height="24"
   viewBox="0 0 24 24"
   sodipodi:docname="load-checkpoint.svg"
   inkscape:version="1.4.3 (0d15f75, 2025-12-25)"
   xmlns:inkscape="http://www.inkscape.org/namespaces/inkscape"
   xmlns:sodipodi="http://sodipodi.sourceforge.net/DTD/sodipodi-0.dtd"
   xmlns="http://www.w3.org/2000/svg"
   xmlns:svg="http://www.w3.org/2000/svg">
  <defs
     id="defs1" />
  <sodipodi:namedview
     id="namedview1"
     pagecolor="#ffffff"
     bordercolor="#000000"
     borderopacity="0.25"
     inkscape:showpageshadow="2"
     inkscape:pageopacity="0.0"
     inkscape:pagecheckerboard="0"
     inkscape:deskcolor="#d1d1d1"
     inkscape:zoom="16.833333"
     inkscape:cx="6.5940594"
     inkscape:cy="11.524752"
     inkscape:window-width="1920"
     inkscape:window-height="1010"
     inkscape:window-x="-6"
     inkscape:window-y="-6"
     inkscape:window-maximized="1"
     inkscape:current-layer="g1" />
  <g
     inkscape:groupmode="layer"
     inkscape:label="Image"
     id="g1">
    <g
       id="g14"
       transform="matrix(0.04601552,0,0,0.04601552,-64.629932,-3.669406)">
      <path
         style="fill:#000000"
         d="m 1655.826,365.19364 c -13.5761,-8.97162 -40.2837,-26.05722 -47.0848,-30.12148 -2.0674,-1.23542 -4.9924,-4.34455 -6.5,-6.90919 L 1599.5,323.5 1599.1933,267 c -0.3204,-59.02072 -0.1795,-61.38891 4.0038,-67.27264 5.9389,-8.35303 20.973,-8.83371 28.148,-0.89997 4.4015,4.867 4.5648,7.0187 4.611,60.73744 l 0.044,51.06483 25.75,17.58274 c 16.9496,11.57361 26.3603,18.63104 27.5358,20.65006 6.2797,10.78608 -3.012,25.13754 -16.2749,25.13754 -3.1777,0 -6.2117,-1.55477 -17.1849,-8.80636 z"
         id="path14" />
      <path
         style="fill:#000000"
         d="M 1600.5914,526.90404 C 1522.5001,520.4723 1448.9158,464.65983 1419.1455,389.28021 1408.85,363.21178 1404.6453,340.51623 1404.6426,311 c 0,-29.54755 5.4507,-56.05872 17.0733,-83 23.0495,-53.42905 64.1123,-94.97236 114.5159,-115.85591 61.1918,-25.353418 124.3845,-23.995057 180.568,3.88141 22.5317,11.17953 40.7555,24.52483 58.2003,42.62012 23.2378,24.10429 40.0776,51.99423 50.467,83.58334 5.0638,15.39657 7.0972,25.63918 8.6209,43.42425 1.5101,17.6263 -0.5604,23.45227 -9.5556,26.88757 -5.0964,1.94635 -9.3473,1.48117 -14.3504,-1.57036 -4.459,-2.71964 -6.7999,-8.56817 -7.5931,-18.97042 -0.9926,-13.0172 -3.3302,-24.18035 -8.2008,-39.16284 -20.0703,-61.73853 -73.4289,-109.20668 -137.0095,-121.88453 -15.4437,-3.07942 -42.7579,-3.79295 -58.3786,-1.52502 -56.5564,8.21131 -104.6472,39.20918 -133.1046,85.79512 -26.5419,43.45027 -34.749,92.28319 -23.2396,138.27727 17.3793,69.45119 74.2742,123.81079 145.1668,138.69807 9.1779,1.92735 14.0478,2.26387 34.6774,2.3963 29.5684,0.1898 26.7584,-0.0893 30.4592,3.02475 4.3365,3.64893 6.2372,7.81551 6.1925,13.57521 -0.045,5.81347 -2.4659,10.50105 -6.7007,12.97427 -5.3789,3.14147 -30.7082,4.47752 -51.8596,2.73544 z"
         id="path12" />
      <path
         style="fill:#000000"
         d="M 1771.5,584.93875 C 1710.8627,572.05481 1668,520.5292 1668,460.52052 c 0,-26.59521 7.6458,-51.14843 23.127,-74.26839 6.5931,-9.84625 22.1592,-25.45228 31.873,-31.95483 22.4351,-15.01831 47.4625,-22.70673 74,-22.73283 20.1669,-0.0198 38.7023,4.26571 56.1544,12.98339 34.5616,17.2642 58.961,46.95749 69.3955,84.45214 3.558,12.78508 4.5234,37.58298 2.0228,51.9609 -7.0617,40.60474 -32.2819,74.46751 -69.2425,92.97059 -10.24,5.12636 -26.0148,10.20289 -37.3302,12.01339 -10.8565,1.73707 -36.1668,1.18943 -46.5,-1.00613 z m 50.2449,-32.47091 c 59.8786,-15.15948 90.0203,-80.21424 62.6109,-135.13256 -13.8301,-27.71021 -40.3536,-47.10307 -71.6817,-52.4106 -10.0347,-1.70005 -30.3313,-0.67561 -40.1508,2.02655 -35.8539,9.86643 -61.5104,36.22397 -70.2257,72.14451 -2.5422,10.47805 -2.4748,32.62458 0.1307,42.90426 8.261,32.59294 32.609,58.53805 64.5717,68.8072 5.8471,1.87859 12.9726,3.40388 21.5,4.60234 6.7562,0.94952 23.849,-0.56295 33.2449,-2.9417 z"
         id="path10" />
    </g>
  </g>
</svg>
