<?xml version="1.0" encoding="utf-8"?>
<!-- Generator: Adobe Illustrator 16.0.0, SVG Export Plug-In . SVG Version: 6.00 Build 0)  -->
<!DOCTYPE svg PUBLIC "-//W3C//DTD SVG 1.1//EN" "http://www.w3.org/Graphics/SVG/1.1/DTD/svg11.dtd">
<svg version="1.1" id="Vrstva_1" xmlns="http://www.w3.org/2000/svg" xmlns:xlink="http://www.w3.org/1999/xlink" x="0px" y="0px"
	 width="24px" height="24px" viewBox="0 0 24 24" enable-background="new 0 0 24 24" xml:space="preserve">
<g>
	<g>
		<path fill="#292D32" d="M15.014,12.165v-0.953h6.846l-0.727-0.726c-0.188-0.187-0.188-0.49,0-0.677
			c0.086-0.092,0.211-0.143,0.338-0.143c0.119,0,0.244,0.051,0.338,0.143l1.535,1.545c0.018,0.009,0.018,0.017,0.025,0.025
			c0,0.009,0,0.009,0,0.009c0.031,0.043,0.059,0.076,0.084,0.118c0.018,0.051,0.023,0.109,0.033,0.168v0.019
			c0,0.059-0.018,0.116-0.043,0.177c-0.008,0.033-0.023,0.059-0.043,0.076l-0.018,0.024c0,0-0.008,0.009-0.008,0.018
			c-0.008,0.009-0.018,0.025-0.035,0.042l-1.535,1.544c-0.092,0.084-0.211,0.136-0.336,0.136c-0.135,0-0.254-0.052-0.338-0.136
			c-0.186-0.185-0.186-0.489,0-0.675l0.725-0.734H15.014z"/>
	</g>
	<path fill="#292D32" d="M19.31,10.56V9.18c0-0.74-0.06-1.37-0.17-1.9c-0.279-1.25-0.87-2.03-1.88-2.45
		c-0.439-0.2-0.99-0.33-1.66-0.4c-0.08-0.01-0.17-0.02-0.26-0.03c-0.05,0-0.1-0.01-0.149-0.01c-0.21-0.01-0.46-0.02-0.7-0.02H12.8
		V19H14.4c0.27,0,0.52-0.01,0.79-0.03c0.05,0,0.1-0.01,0.149-0.01c0.16-0.01,0.311-0.02,0.45-0.04c0.57-0.07,1.05-0.189,1.46-0.37
		c1.02-0.43,1.62-1.21,1.89-2.46c0.11-0.53,0.17-1.149,0.17-1.899v-1.45h1.37v1.45c-0.01,0.739-0.069,1.35-0.17,1.869
		c-0.149,0.801-0.39,1.48-0.75,2.04c-0.149,0.271-0.34,0.511-0.55,0.73c-0.53,0.53-1.19,0.92-2.02,1.18
		c-0.44,0.13-0.931,0.23-1.48,0.28c-0.41,0.05-0.85,0.07-1.31,0.07h-3.21V19h0.02V4.37h-0.02V3.01h3.48v0.01
		c0.311,0.01,0.61,0.02,0.89,0.05c0.61,0.05,1.15,0.15,1.631,0.3c0.84,0.26,1.52,0.66,2.02,1.18c0.2,0.21,0.38,0.44,0.53,0.69
		c0.37,0.57,0.62,1.25,0.77,2.07c0.101,0.53,0.16,1.12,0.17,1.87v1.38H19.31z"/>
</g>
<path fill="#292D32" d="M22.51,8.84h-1.37c-0.02-0.56-0.06-1.07-0.149-1.5c-0.221-0.96-0.61-1.65-1.25-2.1
	c-0.19-0.15-0.4-0.26-0.641-0.36c-0.529-0.24-1.21-0.38-2.06-0.43c-0.22-0.01-0.46-0.02-0.7-0.02H15.6
	c-0.08-0.01-0.17-0.02-0.26-0.03V3.07h1.17c0.971,0.02,1.83,0.13,2.53,0.36c0.83,0.26,1.51,0.66,2.01,1.18
	c0.66,0.68,1.09,1.59,1.311,2.76C22.44,7.79,22.49,8.29,22.51,8.84z"/>
<path fill="#292D32" d="M22.51,14.52c-0.02,0.551-0.069,1.04-0.149,1.461c-0.221,1.189-0.65,2.09-1.311,2.77
	c-0.53,0.54-1.189,0.92-2.01,1.19c-0.771,0.22-1.71,0.35-2.8,0.35h-0.9v-1.33c0.16-0.01,0.311-0.02,0.45-0.04h0.46
	c0.27,0,0.52-0.01,0.78-0.02c0.84-0.051,1.529-0.181,2.069-0.431c0.24-0.1,0.471-0.22,0.66-0.37c0.62-0.46,1.021-1.13,1.23-2.08
	c0.09-0.43,0.13-0.939,0.149-1.5H22.51z"/>
<g>
	<g>
		<path fill="#292D32" d="M2.165,12.167L2.889,12.9c0.186,0.186,0.186,0.49,0,0.675c-0.084,0.084-0.203,0.136-0.338,0.136
			c-0.125,0-0.244-0.052-0.336-0.136L0.68,12.031c-0.018-0.017-0.027-0.032-0.035-0.042c0-0.009-0.008-0.018-0.008-0.018
			L0.62,11.947c-0.02-0.017-0.035-0.043-0.043-0.075c-0.025-0.062-0.043-0.119-0.043-0.178v-0.019
			c0.01-0.059,0.016-0.117,0.033-0.168c0.025-0.042,0.053-0.075,0.084-0.118c0,0,0,0,0-0.009c0.008-0.008,0.008-0.016,0.025-0.025
			l1.535-1.545C2.305,9.718,2.43,9.667,2.549,9.667c0.127,0,0.252,0.051,0.338,0.143c0.188,0.187,0.188,0.49,0,0.677l-0.727,0.726
			h6.846v0.954H2.165z"/>
	</g>
	<path fill="#292D32" d="M4.71,10.562v-1.38c0-0.74,0.06-1.37,0.17-1.9c0.279-1.25,0.87-2.03,1.88-2.45
		c0.439-0.2,0.99-0.33,1.66-0.4c0.08-0.01,0.17-0.02,0.26-0.03c0.05,0,0.1-0.01,0.149-0.01c0.21-0.01,0.46-0.02,0.7-0.02h1.69v14.63
		H9.62c-0.27,0-0.52-0.01-0.79-0.03c-0.05,0-0.1-0.01-0.149-0.01c-0.16-0.01-0.311-0.02-0.45-0.04c-0.57-0.07-1.05-0.189-1.46-0.37
		c-1.02-0.43-1.62-1.21-1.89-2.46c-0.11-0.53-0.17-1.149-0.17-1.899v-1.45H3.34v1.45c0.01,0.739,0.069,1.35,0.17,1.869
		c0.149,0.801,0.39,1.48,0.75,2.04c0.149,0.271,0.34,0.511,0.55,0.73c0.53,0.53,1.19,0.92,2.02,1.18c0.44,0.13,0.931,0.23,1.48,0.28
		c0.41,0.05,0.85,0.07,1.31,0.07h3.21v-1.36h-0.02V4.372h0.02v-1.36H9.35v0.01c-0.311,0.01-0.61,0.02-0.89,0.05
		c-0.61,0.05-1.15,0.15-1.631,0.3c-0.84,0.26-1.52,0.66-2.02,1.18c-0.2,0.21-0.38,0.44-0.53,0.69c-0.37,0.57-0.62,1.25-0.77,2.07
		c-0.101,0.53-0.16,1.12-0.17,1.87v1.38H4.71z"/>
</g>
<path fill="#292D32" d="M1.51,8.842h1.37c0.02-0.56,0.06-1.07,0.149-1.5c0.221-0.96,0.61-1.65,1.25-2.1
	c0.19-0.15,0.4-0.26,0.641-0.36c0.529-0.24,1.21-0.38,2.06-0.43c0.22-0.01,0.46-0.02,0.7-0.02h0.74c0.08-0.01,0.17-0.02,0.26-0.03
	v-1.33H7.51c-0.971,0.02-1.83,0.13-2.53,0.36c-0.83,0.26-1.51,0.66-2.01,1.18c-0.66,0.68-1.09,1.59-1.311,2.76
	C1.58,7.792,1.53,8.292,1.51,8.842z"/>
<path fill="#292D32" d="M1.51,14.521c0.02,0.551,0.069,1.04,0.149,1.461c0.221,1.189,0.65,2.09,1.311,2.77
	c0.53,0.54,1.189,0.92,2.01,1.19c0.771,0.22,1.71,0.35,2.8,0.35h0.9v-1.33c-0.16-0.01-0.311-0.02-0.45-0.04H7.77
	c-0.27,0-0.52-0.01-0.78-0.02c-0.84-0.051-1.529-0.181-2.069-0.431c-0.24-0.1-0.471-0.22-0.66-0.37c-0.62-0.46-1.021-1.13-1.23-2.08
	c-0.09-0.43-0.13-0.939-0.149-1.5H1.51z"/>
</svg>
