<?xml version="1.0" encoding="UTF-8" standalone="no"?>
<!-- Created with Inkscape (http://www.inkscape.org/) -->

<svg
   width="24"
   height="24"
   viewBox="0 0 24 24"
   version="1.1"
   id="svg1"
   xml:space="preserve"
   inkscape:version="1.4.3 (0d15f75, 2025-12-25)"
   sodipodi:docname="make-united-document.svg"
   xmlns:inkscape="http://www.inkscape.org/namespaces/inkscape"
   xmlns:sodipodi="http://sodipodi.sourceforge.net/DTD/sodipodi-0.dtd"
   xmlns="http://www.w3.org/2000/svg"
   xmlns:svg="http://www.w3.org/2000/svg"><sodipodi:namedview
     id="namedview1"
     pagecolor="#ffffff"
     bordercolor="#000000"
     borderopacity="0.25"
     inkscape:showpageshadow="2"
     inkscape:pageopacity="0.0"
     inkscape:pagecheckerboard="0"
     inkscape:deskcolor="#d1d1d1"
     inkscape:document-units="px"
     inkscape:zoom="11.275306"
     inkscape:cx="-17.826567"
     inkscape:cy="7.982045"
     inkscape:window-width="1920"
     inkscape:window-height="1010"
     inkscape:window-x="1913"
     inkscape:window-y="-6"
     inkscape:window-maximized="1"
     inkscape:current-layer="layer1" /><defs
     id="defs1" /><g
     inkscape:label="Vrstva 1"
     inkscape:groupmode="layer"
     id="layer1"><path
       style="fill:#000000;stroke-width:0.0274465"
       d="m 12.94002,23.892852 c -0.538788,-0.142929 -0.969049,-0.572623 -1.112266,-1.110783 -0.06168,-0.23178 -0.06023,-8.639468 0.0016,-8.876587 0.134385,-0.515934 0.582058,-0.958652 1.111976,-1.099678 0.127682,-0.03396 0.758177,-0.03995 4.284393,-0.04022 4.12,-3.32e-4 4.13535,-1.19e-4 4.322838,0.05713 0.503049,0.153782 0.887607,0.542168 1.043683,1.054054 0.04773,0.156565 0.0502,0.376506 0.0502,4.460073 v 4.295397 l -0.06432,0.205852 c -0.150853,0.482775 -0.491663,0.838241 -0.980513,1.022706 l -0.162814,0.06139 -4.171884,0.0053 c -3.580925,0.004 -4.193262,-3.99e-4 -4.322835,-0.03476 z m 8.440946,-0.927477 c 0.147946,-0.06885 0.272397,-0.195811 0.332397,-0.338993 0.03051,-0.07284 0.0369,-0.824618 0.03641,-4.281668 -5.71e-4,-3.99738 -0.0029,-4.198477 -0.0506,-4.303134 -0.06429,-0.141185 -0.245161,-0.303904 -0.379135,-0.341111 -0.07176,-0.01997 -1.37399,-0.02903 -4.125793,-0.02863 -3.988128,4.53e-4 -4.021931,9.05e-4 -4.144434,0.05646 -0.165989,0.07524 -0.241881,0.149788 -0.319001,0.313332 l -0.06472,0.13723 -2.75e-4,4.165904 c -2.47e-4,3.678748 0.0047,4.177663 0.04175,4.26646 0.06878,0.164623 0.167373,0.271943 0.319408,0.347703 l 0.14339,0.07151 4.03612,-2.8e-4 4.036121,-2.66e-4 z m -6.16288,-1.322015 c -0.535636,-0.149402 -0.932799,-0.516826 -1.121181,-1.037208 -0.06097,-0.168405 -0.07141,-0.242739 -0.07202,-0.512605 -8.84e-4,-0.386108 0.06596,-0.620671 0.261026,-0.916052 0.140093,-0.212123 1.169202,-1.248133 1.412494,-1.421971 0.167237,-0.119452 0.421537,-0.249065 0.609381,-0.310508 l 0.139787,-0.04568 -0.01452,-0.160068 c -0.02318,-0.25563 0.02706,-0.327661 0.672122,-0.96366 0.692628,-0.6829 0.845434,-0.778635 1.353942,-0.848269 0.389101,-0.05327 0.771406,0.03849 1.103256,0.264699 0.223061,0.152078 0.371192,0.318539 0.497485,0.559027 0.268786,0.511833 0.257903,1.06536 -0.0313,1.591894 -0.07444,0.135552 -0.237117,0.319032 -0.677065,0.763681 -0.690315,0.697695 -0.935582,0.885316 -1.299548,0.994155 l -0.116656,0.03489 -2.74e-4,0.139746 c -4.94e-4,0.257628 -0.07319,0.35777 -0.730637,1.006593 -0.618655,0.610524 -0.747382,0.709574 -1.071358,0.824285 -0.216742,0.07671 -0.702239,0.09641 -0.914949,0.03715 z m 0.70572,-0.840106 c 0.141199,-0.05233 0.21907,-0.118386 0.700918,-0.595475 0.298138,-0.295155 0.542069,-0.545218 0.542069,-0.555685 0,-0.01065 -0.04064,-0.02663 -0.09033,-0.03595 -0.140044,-0.02624 -0.459668,-0.19127 -0.589928,-0.304516 -0.146592,-0.127443 -0.225516,-0.278562 -0.225383,-0.431479 3.18e-4,-0.366506 0.417507,-0.517972 0.708202,-0.257122 0.194507,0.174531 0.320444,0.221326 0.595407,0.221273 0.356949,-8e-5 0.408189,-0.03329 1.113204,-0.721373 0.669054,-0.652991 0.739147,-0.749791 0.760658,-1.050458 0.04002,-0.55932 -0.460133,-0.964458 -0.997849,-0.808252 -0.215928,0.06272 -0.280267,0.114791 -0.802913,0.649901 l -0.446577,0.457234 0.09067,0.01931 c 0.169683,0.03609 0.482958,0.198914 0.613648,0.318925 0.135325,0.124246 0.230165,0.290826 0.231205,0.406044 0.0012,0.134579 -0.10483,0.296712 -0.235396,0.359927 -0.181001,0.08762 -0.346448,0.05753 -0.485072,-0.08816 -0.153088,-0.160933 -0.31899,-0.226346 -0.571906,-0.225507 -0.183462,6.13e-4 -0.234996,0.01332 -0.424141,0.102939 -0.198031,0.09402 -0.263395,0.150028 -0.814743,0.697722 -0.700696,0.696071 -0.763151,0.787731 -0.759641,1.114872 0.0011,0.107068 0.01658,0.233924 0.0343,0.281984 0.152536,0.413727 0.612066,0.607354 1.053576,0.443917 z M 1.7449794,20.51894 C 1.6058332,20.47553 1.4500635,20.33835 1.3954552,20.211081 c -0.031774,-0.07404 -0.0379,-0.897341 -0.0379,-5.092396 v -5.004066 l 0.06175,-0.1222482 C 1.4853039,9.8617326 1.5127365,9.8405189 3.9964801,7.9965106 6.8399073,5.8854599 6.8405785,5.8849805 6.9721262,5.8603044 c 0.2051338,-0.038486 0.4276127,0.06432 0.5122599,0.2366401 0.04324,0.088024 0.047621,0.2417005 0.049725,1.7468087 0.00127,0.9076486 0.011319,1.6837403 0.022199,1.7246496 l 0.019895,0.074441 0.2048462,-0.1624521 C 8.1820868,9.1623726 10.709961,7.1999244 11.10555,6.89951 c 0.425701,-0.3232794 0.529656,-0.3688763 0.737148,-0.3232928 0.122448,0.0269 0.294427,0.1900845 0.328108,0.3113476 0.01717,0.06179 0.0279,0.6455067 0.02799,1.5219807 l 1.64e-4,1.4217582 0.336221,-0.2338702 c 1.205728,-0.8386941 1.6842,-1.1527183 1.795066,-1.1780869 0.204066,-0.046742 0.423262,0.052868 0.524719,0.2382515 0.04118,0.07524 0.0493,0.1997525 0.0612,0.9376115 l 0.01372,0.8508524 h 0.258435 c 0.255326,0 0.258528,-8.26e-4 0.266091,-0.06858 0.0043,-0.03769 0.02113,-0.5256018 0.03762,-1.0841364 0.04283,-1.4514814 0.19622,-5.5313591 0.288754,-7.6800032 0.04723,-1.09680085 0.05561,-1.13564605 0.290413,-1.34675778 0.21806,-0.19606572 0.210935,-0.19529334 1.809191,-0.19529334 h 1.4135 L 19.451,0.14839574 c 0.193744,0.0950822 0.33026,0.25003683 0.38633,0.43835015 0.02453,0.0824312 0.04995,0.3122797 0.05986,0.54119601 0.0095,0.2188888 0.07832,1.5589615 0.152988,2.9779498 0.07468,1.4189883 0.166683,3.1790074 0.204459,3.9111401 0.03778,0.7321461 0.08089,1.5658331 0.0958,1.852651 0.09023,1.7355162 0.08826,1.6258382 0.03165,1.7538132 -0.156305,0.353349 -0.691351,0.346304 -0.832353,-0.01065 -0.0149,-0.03769 -0.05661,-0.624413 -0.09271,-1.303705 C 19.420924,9.6298363 19.354191,8.3885611 19.30871,7.5507593 19.186716,5.3032243 19.096615,3.568454 19.032864,2.2398337 c -0.03115,-0.6491023 -0.06029,-1.1925488 -0.06477,-1.2076501 -0.0052,-0.017711 -0.403408,-0.027433 -1.122786,-0.027433 h -1.11465 l -0.01477,0.1646892 c -0.0081,0.090555 -0.0398,0.8439808 -0.07041,1.674232 -0.0306,0.8302645 -0.07403,1.9912525 -0.09652,2.5799897 -0.02249,0.5887238 -0.07758,2.0923539 -0.122408,3.3413928 -0.06467,1.8017274 -0.08969,2.2866194 -0.12105,2.3466784 -0.05886,0.112661 -0.187369,0.224256 -0.293345,0.254645 -0.0516,0.01478 -0.432737,0.0269 -0.846974,0.0269 -0.711403,0 -0.759827,-0.0027 -0.873422,-0.0582 -0.07235,-0.03502 -0.149608,-0.10254 -0.19393,-0.169443 l -0.07367,-0.111196 -0.01373,-0.668185 -0.01372,-0.6681853 -0.75478,0.5200623 c -1.24114,0.855167 -1.288672,0.886195 -1.394269,0.910298 -0.117881,0.0269 -0.285247,-0.01065 -0.392985,-0.08682 -0.162495,-0.115724 -0.161454,-0.104937 -0.161454,-1.6692384 0,-0.7864655 -0.0093,-1.4298948 -0.02059,-1.4298549 -0.02195,7.69e-5 -0.25315,0.1786024 -2.5044917,1.9339073 -0.7925193,0.617901 -1.4841742,1.139002 -1.5370088,1.157992 -0.052828,0.01904 -0.1261237,0.03502 -0.1628755,0.03569 -0.1135792,0.0027 -0.2973701,-0.105603 -0.3644364,-0.213456 L 6.6410298,10.775707 6.6273001,8.9970708 6.6135705,7.2184214 6.105809,7.5963531 C 5.8265391,7.8042022 4.8878662,8.5028032 4.0198685,9.1487761 3.1518694,9.794749 2.4014952,10.354615 2.3523708,10.392928 l -0.089316,0.06965 0.00693,4.568232 0.00692,4.568233 4.0483714,0.0067 4.0483728,0.0067 0.101541,0.06312 c 0.146236,0.09095 0.221936,0.227359 0.221936,0.399958 0,0.2256 -0.09933,0.372099 -0.301075,0.44405 -0.156011,0.05566 -8.4725883,0.0542 -8.6511856,-0.0013 z"
       id="path1" /></g></svg>
