<?xml version="1.0" encoding="UTF-8" standalone="no"?>
<!-- Created with Inkscape (http://www.inkscape.org/) -->

<svg
   width="24"
   height="24"
   viewBox="0 0 24 24"
   version="1.1"
   id="svg1"
   xml:space="preserve"
   inkscape:version="1.4.3 (0d15f75, 2025-12-25)"
   sodipodi:docname="make-separated-document.svg"
   xmlns:inkscape="http://www.inkscape.org/namespaces/inkscape"
   xmlns:sodipodi="http://sodipodi.sourceforge.net/DTD/sodipodi-0.dtd"
   xmlns="http://www.w3.org/2000/svg"
   xmlns:svg="http://www.w3.org/2000/svg"><sodipodi:namedview
     id="namedview1"
     pagecolor="#ffffff"
     bordercolor="#000000"
     borderopacity="0.25"
     inkscape:showpageshadow="2"
     inkscape:pageopacity="0.0"
     inkscape:pagecheckerboard="0"
     inkscape:deskcolor="#d1d1d1"
     inkscape:document-units="px"
     inkscape:zoom="27.575075"
     inkscape:cx="13.127797"
     inkscape:cy="14.650912"
     inkscape:window-width="1920"
     inkscape:window-height="1010"
     inkscape:window-x="1913"
     inkscape:window-y="-6"
     inkscape:window-maximized="1"
     inkscape:current-layer="layer1" /><defs
     id="defs1" /><g
     inkscape:label="Vrstva 1"
     inkscape:groupmode="layer"
     id="layer1"><path
       style="fill:#000000;stroke-width:0.0258021"
       d="m 13.262854,23.953968 c -0.570139,-0.149466 -0.99944,-0.58097 -1.145268,-1.15115 -0.04973,-0.19443 -0.05096,-0.30103 -0.05096,-4.370978 0,-4.038184 0.0016,-4.177925 0.04981,-4.366587 0.132982,-0.519948 0.471716,-0.905719 0.971051,-1.105884 0.168449,-0.06751 0.257246,-0.08554 0.501424,-0.101709 0.163206,-0.01081 1.991923,-0.01655 4.063836,-0.0127 l 3.767116,0.0066 0.218697,0.07316 c 0.411555,0.137692 0.761415,0.43347 0.943703,0.797833 0.192332,0.384443 0.176724,0.0016 0.186113,4.56698 0.0057,2.68006 -6.55e-4,4.171354 -0.01778,4.301001 -0.08914,0.674806 -0.54941,1.195729 -1.204545,1.363286 -0.193872,0.04957 -0.299628,0.05088 -4.148995,0.04949 -3.774137,-0.0016 -3.958252,-0.0033 -4.134222,-0.04973 z m 8.195732,-0.84482 c 0.174652,-0.08631 0.290018,-0.19284 0.375005,-0.34628 l 0.07652,-0.138184 V 18.43184 14.238995 l -0.06899,-0.130646 c -0.07325,-0.138832 -0.221115,-0.287847 -0.361692,-0.364584 -0.08111,-0.04432 -0.281767,-0.04695 -4.019036,-0.05342 -4.41985,-0.0074 -4.070628,-0.02302 -4.308088,0.190439 -0.07431,0.06677 -0.158945,0.177552 -0.20073,0.262654 l -0.07226,0.147131 v 4.141244 4.141236 l 0.05547,0.118767 c 0.103724,0.221909 0.281104,0.379388 0.507602,0.450651 0.0873,0.02745 0.847114,0.03294 4.003863,0.029 l 3.896124,-0.0049 z m -4.489564,-1.506599 c -1.6229,-0.922679 -2.447819,-1.41323 -2.481116,-1.475449 -0.0974,-0.181984 -0.07218,-0.355513 0.06989,-0.480204 0.07587,-0.06661 0.112311,-0.0798 0.221107,-0.0798 0.123076,0 0.194552,0.03679 1.29566,0.667194 0.640968,0.36696 1.203644,0.686817 1.250385,0.710806 0.09638,0.04949 0.04662,0.07112 0.676174,-0.294401 0.163198,-0.09476 0.657559,-0.377332 1.098584,-0.627942 0.705874,-0.401108 0.815514,-0.455641 0.915977,-0.455559 0.217952,1.8e-4 0.359233,0.146927 0.359233,0.373137 0,0.0976 -0.01434,0.132851 -0.08386,0.205843 -0.07955,0.08359 -0.623361,0.408424 -2.111673,1.261454 -0.812867,0.465899 -0.751141,0.455961 -1.210346,0.194889 z m 0.29672,-1.426692 c -0.07423,-0.03294 -0.884712,-0.478459 -2.08997,-1.148963 -0.312205,-0.173685 -0.604681,-0.354465 -0.64994,-0.401739 -0.111794,-0.116751 -0.131802,-0.237714 -0.06292,-0.380101 0.06481,-0.133875 0.181608,-0.208849 0.325363,-0.208849 0.12306,0 0.07767,-0.0231 1.552669,0.790106 l 1.062002,0.58551 1.105376,-0.609261 c 1.383269,-0.762431 1.439817,-0.790386 1.556913,-0.769805 0.185188,0.03253 0.309362,0.178183 0.309534,0.363019 1.8e-4,0.207784 -0.01761,0.220631 -1.290015,0.931576 -1.731417,0.967413 -1.643399,0.926358 -1.81905,0.848507 z m 0.0086,-1.572823 c -0.08707,-0.03187 -0.243933,-0.115121 -1.079372,-0.572868 -0.163197,-0.08942 -0.604419,-0.329697 -0.980481,-0.533958 -0.669668,-0.363724 -0.685014,-0.373867 -0.744815,-0.492478 -0.05375,-0.106534 -0.05776,-0.134235 -0.03351,-0.230225 0.01737,-0.06874 0.05907,-0.136595 0.112663,-0.183369 0.04678,-0.0408 0.677255,-0.400027 1.401007,-0.798193 1.215786,-0.66885 1.32572,-0.724063 1.444921,-0.725611 0.13757,-0.0016 0.03654,-0.05358 1.857746,0.952788 0.184491,0.101946 0.490601,0.27042 0.680254,0.374382 0.244956,0.134285 0.358889,0.212094 0.39339,0.268659 0.0852,0.139717 0.05268,0.34832 -0.0712,0.45719 -0.0263,0.0231 -0.50643,0.29155 -1.066983,0.596562 -1.862162,1.013253 -1.732859,0.953313 -1.913672,0.887121 z m 0.337546,-0.870915 c 0.971452,-0.527462 1.60059,-0.885679 1.58363,-0.901672 -0.01122,-0.01057 -0.418395,-0.236034 -0.904834,-0.500982 l -0.884442,-0.481719 -0.186352,0.101102 c -0.102495,0.05563 -0.514958,0.278597 -0.916591,0.495525 l -0.730232,0.394423 0.07226,0.04359 c 0.03974,0.02392 0.339332,0.190022 0.665736,0.369016 0.326396,0.179002 0.697943,0.383148 0.825665,0.453658 0.127722,0.07054 0.242842,0.12936 0.25582,0.130778 0.01294,0.0016 0.111672,-0.04523 0.219321,-0.103692 z M 1.7801612,20.138735 c -0.162952,-0.05645 -0.2970561,-0.155833 -0.3976261,-0.294664 -0.1620343,-0.223679 -0.1527925,0.06931 -0.1527925,-4.843915 0,-4.98427 -0.012044,-4.648395 0.1745615,-4.854983 C 1.4561662,10.087821 1.6035268,9.952209 1.7318303,9.8438638 1.8601255,9.7355187 2.5920943,9.1196293 3.3584167,8.4752116 4.124739,7.8307939 4.9875348,7.1049617 5.2757424,6.8622502 5.56395,6.6195305 5.836812,6.4011197 5.8820951,6.3768764 6.071273,6.2756183 6.3585057,6.3477091 6.4672932,6.5237044 l 0.056532,0.091467 -0.00164,1.6018024 c -0.00164,1.3862919 0.00328,1.5998771 0.035804,1.5874973 0.020484,-0.00819 0.9629901,-0.75368 2.0944202,-1.6573674 1.1314218,-0.9036873 2.0924766,-1.6646268 2.1356786,-1.6909675 0.176151,-0.1074194 0.44717,-0.039818 0.556023,0.1387414 0.04965,0.081439 0.05129,0.1329243 0.05137,1.6257671 6.6e-5,1.0053388 0.009,1.5416817 0.02581,1.5416817 0.01409,0 0.449643,-0.3191119 0.967839,-0.7091347 0.518195,-0.3900229 0.973984,-0.7160989 1.01286,-0.7246115 0.03892,-0.00852 0.08645,-0.020401 0.105715,-0.026464 0.104339,-0.032772 0.34882,0.1005453 0.423549,0.2309544 0.02245,0.039245 0.03539,0.3021686 0.04457,0.9067434 l 0.01295,0.851474 0.329493,0.0074 c 0.249642,0.0057 0.332327,-7.79e-4 0.341216,-0.02581 0.0099,-0.02802 0.09451,-1.7029965 0.193791,-3.8388395 0.06112,-1.3157086 0.132482,-2.8016938 0.167802,-3.4961875 0.02089,-0.4115461 0.05596,-1.1003948 0.07783,-1.5307849 0.03212,-0.63081711 0.04908,-0.80700088 0.08776,-0.90877518 0.0748,-0.19683849 0.189555,-0.32170087 0.383395,-0.41712555 l 0.172155,-0.0847809 h 1.187446 c 1.158467,0 1.190347,0.00163861 1.306705,0.05513936 0.169105,0.07816188 0.319685,0.22360524 0.398625,0.38495955 0.06391,0.13058933 0.07071,0.18254159 0.116047,0.88141852 0.0862,1.3295877 0.203057,3.1539138 0.243416,3.8001995 0.02171,0.3476811 0.0798,1.2301156 0.129131,1.9609538 0.1733,2.5687075 0.270871,4.0718988 0.286528,4.4144998 0.01532,0.335228 0.01393,0.348787 -0.0458,0.435691 -0.09539,0.138938 -0.214634,0.207031 -0.362585,0.207031 -0.140412,0 -0.205187,-0.02581 -0.309968,-0.123519 -0.123592,-0.115252 -0.10193,0.09384 -0.290616,-2.8050205 C 18.365096,8.6542793 18.312841,7.8647378 18.28496,7.4531917 18.212041,6.3767863 18.011434,3.3385586 17.936574,2.1766585 17.901344,1.6302954 17.865704,1.1107074 17.857347,1.0220092 l -0.01524,-0.16126411 h -0.912061 -0.912069 l -0.01401,0.13546421 c -0.0074,0.074475 -0.02024,0.2747955 -0.02794,0.4450884 -0.01745,0.3878517 -0.100996,2.0389272 -0.168433,3.3284754 -0.02818,0.5392596 -0.07456,1.4797502 -0.10311,2.08997 -0.02851,0.6102198 -0.06874,1.440399 -0.08934,1.8448498 -0.02065,0.4044509 -0.0508,1.025633 -0.0671,1.3804181 -0.01622,0.354776 -0.04047,0.688742 -0.05375,0.742145 -0.0322,0.129532 -0.159667,0.269969 -0.275951,0.304094 -0.06137,0.01802 -0.38922,0.02491 -0.937533,0.01966 -0.808517,-0.0074 -0.846172,-0.01024 -0.915977,-0.06202 -0.04006,-0.02966 -0.09893,-0.09236 -0.13086,-0.139274 -0.05653,-0.08305 -0.05809,-0.10297 -0.05809,-0.755097 0,-0.5597433 -0.0057,-0.6675559 -0.03572,-0.656102 -0.01966,0.00737 -0.394087,0.2791952 -0.832121,0.603691 -1.002979,0.743013 -1.090211,0.803469 -1.204955,0.835152 -0.176036,0.04858 -0.353572,-0.04203 -0.459131,-0.234322 -0.02917,-0.05309 -0.03392,-0.32864 -0.0272,-1.5545781 0.0057,-1.0633866 1.8e-4,-1.4900735 -0.01991,-1.4900735 -0.02999,0 -0.07513,0.035394 -1.7299829,1.3547568 -2.1692954,1.7295328 -2.4675067,1.9615768 -2.5720666,2.0013298 -0.113982,0.04334 -0.2688638,0.02728 -0.3830998,-0.03965 -0.1988212,-0.116514 -0.1908739,-0.04269 -0.1940692,-1.8029351 -0.00164,-1.0100498 -0.01188,-1.565122 -0.028266,-1.565122 -0.01401,0 -0.5724579,0.4615401 -1.2410124,1.025633 C 3.7797944,9.2363969 2.9736292,9.9165527 2.6568688,10.183754 L 2.0809451,10.66957 v 4.319526 4.319525 l 4.2508921,0.0066 c 4.2356528,0.0066 4.2512278,0.0066 4.3411218,0.05973 0.200755,0.117931 0.279261,0.362666 0.181272,0.565084 -0.03113,0.06432 -0.09334,0.143125 -0.138242,0.175152 l -0.0816,0.05825 -4.3605557,0.0057 c -4.131937,0.0057 -4.3675532,0.0033 -4.4938985,-0.04047 z"
       id="path1" /></g></svg>
