<?xml version="1.0" encoding="utf-8"?>
<!-- Generator: Adobe Illustrator 16.0.0, SVG Export Plug-In . SVG Version: 6.00 Build 0)  -->
<!DOCTYPE svg PUBLIC "-//W3C//DTD SVG 1.1//EN" "http://www.w3.org/Graphics/SVG/1.1/DTD/svg11.dtd">
<svg version="1.1" id="Vrstva_1" xmlns="http://www.w3.org/2000/svg" xmlns:xlink="http://www.w3.org/1999/xlink" x="0px" y="0px"
	 width="24px" height="24px" viewBox="0 0 24 24" enable-background="new 0 0 24 24" xml:space="preserve">
<g>
	<path fill="#292D32" d="M3.34,14.85c0,4.351,1.47,5.811,5.82,5.811h1.55v1.62H9.16c-5.15,0-7.44-2.29-7.44-7.431V9.16
		c0-5.14,2.29-7.44,7.44-7.44h1.55v1.61H9.16L9.05,3.35C4.78,3.37,3.34,4.84,3.34,9.16V14.85z"/>
	<path fill="#292D32" d="M22.28,9.03v5.94c-0.011,0.87-0.08,1.59-0.2,2.21c-0.26,1.4-0.76,2.471-1.55,3.28
		c-0.62,0.63-1.4,1.09-2.38,1.4c-0.91,0.27-2.021,0.42-3.311,0.42h-1.55v-1.62h1.55c0.32,0,0.62-0.01,0.93-0.03
		c1-0.05,1.811-0.21,2.45-0.5c1.2-0.5,1.91-1.43,2.24-2.91c0.13-0.63,0.2-1.359,0.2-2.25V9.03c0-0.88-0.07-1.62-0.2-2.25
		c-0.33-1.48-1.03-2.41-2.229-2.91c-0.631-0.28-1.44-0.45-2.45-0.51c-0.29-0.02-0.61-0.03-0.94-0.03h-1.55V1.72h1.55
		c1.29,0,2.4,0.14,3.311,0.43c0.989,0.31,1.79,0.78,2.38,1.4c0.79,0.81,1.29,1.88,1.55,3.27C22.2,7.44,22.27,8.14,22.28,9.03z"/>
</g>
<g>
	<path fill="#292D32" d="M10.71,12.21c-0.01,0.05-0.04,0.08-0.07,0.12l-0.01,0.01c0,0.01-0.01,0.01-0.01,0.02
		c-0.01,0.01-0.01,0.02-0.03,0.04L8.76,14.23c-0.1,0.1-0.24,0.159-0.39,0.159c-0.16,0-0.3-0.06-0.4-0.159
		c-0.11-0.11-0.17-0.25-0.17-0.4s0.06-0.29,0.17-0.4l0.86-0.87H1.72V11.43h7.11l-0.86-0.86c-0.22-0.22-0.22-0.58,0-0.8
		c0.1-0.11,0.24-0.17,0.4-0.17c0.15,0,0.29,0.06,0.39,0.17l1.83,1.83c0.01,0.01,0.02,0.02,0.02,0.02c0.05,0.06,0.08,0.11,0.11,0.16
		C10.77,11.92,10.77,12.08,10.71,12.21z"/>
	<path fill="#292D32" d="M22.28,11.45v1.13h-7.11l0.86,0.86c0.22,0.22,0.22,0.579,0,0.8c-0.101,0.109-0.25,0.17-0.4,0.17
		c-0.14,0-0.29-0.061-0.399-0.17l-1.82-1.83c-0.021-0.01-0.021-0.02-0.03-0.03c0-0.01,0-0.01,0-0.01c-0.04-0.05-0.07-0.09-0.1-0.14
		c-0.021-0.06-0.03-0.13-0.04-0.2v-0.02c0-0.07,0.02-0.14,0.05-0.21c0.01-0.04,0.03-0.07,0.05-0.09l0.021-0.03
		c0,0,0.01-0.01,0.01-0.02c0.01-0.01,0.02-0.03,0.04-0.05l1.82-1.83c0.109-0.1,0.25-0.16,0.399-0.16c0.16,0,0.3,0.06,0.4,0.16
		c0.22,0.22,0.22,0.58,0,0.8l-0.86,0.87H22.28z"/>
</g>
</svg>
