<?xml version="1.0" encoding="UTF-8" standalone="no"?>
<!-- Created with Inkscape (http://www.inkscape.org/) -->

<svg
   width="24"
   height="24"
   viewBox="0 0 24 24"
   version="1.1"
   id="svg1"
   xml:space="preserve"
   inkscape:version="1.4.3 (0d15f75, 2025-12-25)"
   sodipodi:docname="make-separated-document-from-groups.svg"
   xmlns:inkscape="http://www.inkscape.org/namespaces/inkscape"
   xmlns:sodipodi="http://sodipodi.sourceforge.net/DTD/sodipodi-0.dtd"
   xmlns="http://www.w3.org/2000/svg"
   xmlns:svg="http://www.w3.org/2000/svg"><sodipodi:namedview
     id="namedview1"
     pagecolor="#ffffff"
     bordercolor="#000000"
     borderopacity="0.25"
     inkscape:showpageshadow="2"
     inkscape:pageopacity="0.0"
     inkscape:pagecheckerboard="0"
     inkscape:deskcolor="#d1d1d1"
     inkscape:document-units="px"
     inkscape:zoom="31.620921"
     inkscape:cx="13.060973"
     inkscape:cy="12.776351"
     inkscape:window-width="1920"
     inkscape:window-height="1010"
     inkscape:window-x="1913"
     inkscape:window-y="-6"
     inkscape:window-maximized="1"
     inkscape:current-layer="layer1" /><defs
     id="defs1" /><g
     inkscape:label="Vrstva 1"
     inkscape:groupmode="layer"
     id="layer1"><path
       style="fill:#000000;stroke-width:0.026317"
       d="m 14.550422,23.656304 c -0.06424,-0.034 -0.115229,-0.09046 -0.154308,-0.171227 -0.05737,-0.118473 -0.0581,-0.134292 -0.045,-0.92845 0.01146,-0.691458 0.02135,-0.844712 0.06901,-1.063165 0.197035,-0.902808 0.672606,-1.669445 1.354212,-2.18305 0.582552,-0.438977 1.398752,-0.67421 2.082704,-0.600268 1.488348,0.160916 2.632347,1.295648 2.924457,2.900774 0.03446,0.189235 0.04482,0.415002 0.04683,1.019412 0.0027,0.738263 -8.2e-5,0.78087 -0.05151,0.868376 -0.02969,0.05059 -0.09366,0.118711 -0.142055,0.15132 l -0.08798,0.0593 -2.950191,-9.16e-4 c -2.860835,-9.17e-4 -2.953106,-0.0027 -3.046175,-0.05187 z m 5.477811,-1.138509 c 0,-0.828178 -0.145564,-1.375675 -0.512304,-1.926848 -0.330905,-0.497319 -0.782528,-0.833411 -1.348621,-1.003629 -0.196979,-0.0592 -0.280068,-0.06947 -0.560245,-0.06929 -0.398871,2.84e-4 -0.635883,0.05545 -0.992715,0.231118 -0.519947,0.255946 -0.877678,0.629403 -1.152182,1.202855 -0.22572,0.471539 -0.302586,0.858266 -0.302586,1.522349 v 0.419171 h 2.434322 2.434331 z m -8.150042,0.244123 -0.557578,-0.0132 -0.08102,-0.07772 c -0.112315,-0.107695 -0.141743,-0.239999 -0.120179,-0.540311 0.0691,-0.962123 0.447271,-1.634005 1.15989,-2.060609 0.429198,-0.256935 1.257697,-0.385765 1.542622,-0.239879 0.261601,0.133934 0.26084,0.559347 -9.16e-4,0.693043 -0.08184,0.04179 -0.156792,0.05444 -0.3246,0.05481 -0.714232,0.0018 -1.234675,0.355384 -1.451157,0.986739 -0.03464,0.101152 -0.07066,0.234243 -0.07983,0.295758 l -0.01677,0.111847 0.625343,5.5e-5 c 0.542832,2.7e-5 0.637422,0.0064 0.716927,0.0461 0.271636,0.136473 0.283688,0.504972 0.02282,0.698167 -0.06168,0.04573 -0.116659,0.05206 -0.473711,0.05508 -0.222146,0.0018 -0.654807,-0.0027 -0.961471,-0.0098 z m 9.883815,-0.06406 c -0.11193,-0.07607 -0.168303,-0.196209 -0.165113,-0.351901 0.0027,-0.12192 0.05691,-0.215382 0.178319,-0.306105 0.06745,-0.05041 0.118501,-0.05517 0.722096,-0.06745 l 0.649493,-0.0132 -0.0092,-0.09211 c -0.01512,-0.151934 -0.128491,-0.478614 -0.211488,-0.60946 -0.178576,-0.281534 -0.426906,-0.481611 -0.739509,-0.595851 -0.128848,-0.04711 -0.253929,-0.06727 -0.503286,-0.08111 -0.365108,-0.02035 -0.433459,-0.04582 -0.52464,-0.195321 -0.068,-0.111591 -0.06837,-0.313794 -6.59e-4,-0.423112 0.115889,-0.187136 0.347777,-0.233135 0.832761,-0.165187 1.189391,0.166635 1.929679,1.035936 1.975751,2.320083 0.01219,0.339996 0.0092,0.375052 -0.04115,0.454208 -0.02988,0.0472 -0.09299,0.1093 -0.140158,0.138059 -0.08129,0.04958 -0.134173,0.05233 -1.007332,0.05242 l -0.921568,1.01e-4 z M 0.54579354,21.644993 C 0.30833313,21.56031 0.11721004,21.360856 0.05340459,21.131195 0.03690792,21.071899 0.02746815,19.281405 0.02746815,16.189792 0.02733068,11.749603 0.03113408,11.332292 0.07063444,11.23312 0.11471721,11.122913 0.15595889,11.085749 1.8023816,9.6709949 2.0202201,9.4838127 2.3583377,9.1930864 2.5537408,9.0249303 3.183492,8.4830147 5.1113662,6.8291594 5.195765,6.7584345 5.4530856,6.5427955 5.7416856,6.552446 5.9172285,6.7825379 l 0.070844,0.092922 0.013197,1.9774925 0.013197,1.9775016 0.6052903,-0.469394 C 6.9526695,10.102887 7.3671667,9.7818984 7.5408583,9.6477438 7.7145499,9.5135984 8.5111008,8.8950924 9.3109696,8.2732962 10.225857,7.5620881 10.804606,7.1295087 10.871307,7.1070366 c 0.245306,-0.082667 0.509399,0.059938 0.578126,0.3120528 0.02484,0.09119 0.02795,0.4953034 0.01329,1.7566571 -0.01466,1.2687685 -0.01182,1.6382385 0.01265,1.6382385 0.01741,0 0.359031,-0.246653 0.759176,-0.54812 0.400145,-0.3014676 0.950099,-0.715644 1.22212,-0.920386 0.5096,-0.3835843 0.628917,-0.4457951 0.790575,-0.4122427 0.121727,0.025295 0.243839,0.1159808 0.30671,0.2278282 0.05306,0.094416 0.05536,0.1366749 0.06058,1.1320935 l 0.0055,1.034011 0.399174,0.0073 0.399164,0.0073 0.01494,-0.165159 c 0.01246,-0.138059 0.05664,-0.907317 0.134851,-2.3494654 0.07479,-1.3784435 0.155683,-2.8165132 0.208802,-3.7107061 0.03528,-0.5934493 0.101445,-1.7599564 0.147095,-2.5922317 0.04564,-0.8322754 0.09424,-1.57429559 0.10798,-1.6489247 0.05032,-0.27336815 0.280324,-0.50327675 0.561959,-0.56174828 0.0943,-0.0196127 0.559421,-0.0264863 1.42523,-0.0210791 l 1.285246,0.008248 0.141029,0.0780842 c 0.18029,0.0998598 0.309688,0.25157422 0.358509,0.42034432 0.0362,0.12508142 0.09737,0.89334966 0.368966,4.63336476 0.05041,0.6947756 0.109547,1.4941493 0.131314,1.7763981 0.03528,0.4573244 0.106669,1.4119042 0.344817,4.6101415 0.0384,0.5164 0.06205,0.980873 0.05242,1.032169 -0.03464,0.184497 -0.2164,0.331665 -0.409695,0.331665 -0.19456,0 -0.356906,-0.105523 -0.420491,-0.273313 -0.01586,-0.04179 -0.05783,-0.468102 -0.09337,-0.947413 -0.03556,-0.479246 -0.10024,-1.3392 -0.143791,-1.910937 C 19.59065,9.4794686 19.507259,8.3662549 19.448907,7.5774025 19.390527,6.78855 19.295882,5.5273063 19.238529,4.7746365 19.150913,3.6248186 19.07951,2.6679568 18.986679,1.3994728 l -0.01585,-0.2171145 h -1.050315 -1.050325 v 0.077351 c 0,0.095296 -0.112452,2.1490853 -0.183095,3.343875 -0.02868,0.4848921 -0.07048,1.2072905 -0.09295,1.6053368 -0.02245,0.3980464 -0.05774,1.0138671 -0.07845,1.3684905 -0.05261,0.9016805 -0.08505,1.4720529 -0.171006,3.0082593 l -0.07479,1.337138 -0.0702,0.106046 c -0.04509,0.06809 -0.111875,0.124504 -0.186751,0.157616 -0.109776,0.04857 -0.170594,0.05114 -1.044184,0.04372 -1.305254,-0.011 -1.211259,0.0757 -1.230276,-1.135109 l -0.0132,-0.837783 -1.249687,0.939485 c -0.687324,0.516722 -1.277273,0.94997 -1.310981,0.962792 -0.171437,0.06516 -0.408393,-0.01769 -0.507776,-0.17755 l -0.06333,-0.101797 -0.01311,-1.72085 -0.0132,-1.7208595 -0.526345,0.4059556 C 9.7513757,9.0677484 9.2243804,9.4759035 8.8697568,9.7514804 8.5151333,10.027057 7.7867412,10.589154 7.2511126,11.000581 6.7154749,11.412017 6.1858402,11.819705 6.0741394,11.90655 5.7331532,12.171661 5.589513,12.224899 5.4042004,12.154889 5.3228169,12.124096 5.1980745,12.015117 5.1502067,11.932863 5.1280278,11.894737 5.1159303,11.34976 5.1063989,9.9528405 L 5.0932015,8.0254429 3.0095071,9.8080914 0.92581267,11.59074 l -0.001833,4.598905 -0.001833,4.598905 4.11203333,5.77e-4 c 3.9826903,5.69e-4 4.1155068,0.0018 4.2221488,0.05059 0.2736981,0.124266 0.3408396,0.519554 0.1219013,0.717688 -0.1460414,0.132166 0.074418,0.126034 -4.4879469,0.124788 -3.5013358,-9.16e-4 -4.26196056,-0.0073 -4.34439809,-0.03675 z M 13.238433,18.934581 c -0.48173,-0.134255 -0.862492,-0.56414 -0.947835,-1.070112 -0.05114,-0.302979 -0.02089,-1.019292 0.05169,-1.225088 0.32558,-0.923502 1.46945,-1.187348 2.149177,-0.495743 0.305748,0.31109 0.377911,0.542896 0.378351,1.215373 2.84e-4,0.436475 -0.0055,0.497128 -0.06452,0.684246 -0.03565,0.112919 -0.09872,0.258603 -0.140094,0.323738 -0.169045,0.266128 -0.471254,0.486908 -0.778459,0.568713 -0.165251,0.04399 -0.488329,0.04344 -0.648237,-9.16e-4 z m 0.541412,-0.805358 c 0.06287,-0.03043 0.143181,-0.100474 0.185954,-0.162126 0.07488,-0.107879 0.07533,-0.111462 0.08358,-0.566211 0.0073,-0.426256 0.0046,-0.465784 -0.04922,-0.576486 -0.135282,-0.279463 -0.499712,-0.359856 -0.726935,-0.160357 -0.163776,0.143796 -0.191462,0.241393 -0.191957,0.676593 -2.39e-4,0.209874 0.01182,0.425642 0.02676,0.479467 0.05481,0.197199 0.267484,0.3608 0.470815,0.362101 0.04967,3.12e-4 0.140167,-0.02355 0.201021,-0.05297 z m 7.465934,0.802499 c -0.415496,-0.111903 -0.754466,-0.427548 -0.905474,-0.843173 -0.04766,-0.131231 -0.05847,-0.230431 -0.06855,-0.629485 -0.0143,-0.564269 0.0082,-0.714068 0.150889,-1.003933 0.184946,-0.375885 0.544574,-0.631923 0.97708,-0.695646 0.636954,-0.09385 1.261042,0.339639 1.431572,0.994364 0.0549,0.210855 0.05426,0.99091 -9.17e-4,1.206283 -0.123807,0.482152 -0.483417,0.850935 -0.947706,0.971864 -0.189547,0.0494 -0.452788,0.04922 -0.636707,-2.74e-4 z m 0.486973,-0.789678 c 0.130039,-0.05435 0.213357,-0.134512 0.272158,-0.261912 0.04069,-0.08817 0.04866,-0.173307 0.04912,-0.524612 5.13e-4,-0.374246 -0.0055,-0.431746 -0.05526,-0.534657 -0.08276,-0.170933 -0.226637,-0.256579 -0.43104,-0.256579 -0.204412,0 -0.3483,0.0856 -0.431049,0.256579 -0.04958,0.102517 -0.05581,0.161227 -0.05581,0.528929 0,0.536893 0.05013,0.666722 0.302649,0.783243 0.129325,0.05966 0.222165,0.06205 0.349189,0.0092 z m -4.440904,-0.171776 c -0.07928,-0.01411 -0.245085,-0.07433 -0.368435,-0.133907 -0.433266,-0.209169 -0.783427,-0.651673 -0.912907,-1.153658 -0.0626,-0.242739 -0.06186,-1.043011 9.16e-4,-1.302476 0.178229,-0.732746 0.836968,-1.277044 1.555792,-1.285531 0.280819,-0.0037 0.460734,0.03602 0.710558,0.155271 0.47909,0.228708 0.802938,0.660737 0.925985,1.235316 0.06076,0.283917 0.03519,1.041985 -0.04362,1.289536 -0.230431,0.724249 -0.794352,1.184259 -1.485278,1.211607 -0.131598,0.0055 -0.304144,-0.0018 -0.383428,-0.01613 z m 0.604704,-0.843575 c 0.165718,-0.07231 0.350985,-0.264085 0.438866,-0.454236 0.07286,-0.157608 0.07433,-0.170246 0.07433,-0.634517 0,-0.456802 -0.0027,-0.478981 -0.06938,-0.621613 -0.08505,-0.181308 -0.230082,-0.345752 -0.385197,-0.436658 -0.08734,-0.05114 -0.164985,-0.07158 -0.307562,-0.08074 -0.166992,-0.01072 -0.210846,-0.0027 -0.352433,0.06031 -0.174443,0.07827 -0.33502,0.230623 -0.419895,0.398367 -0.07983,0.157735 -0.110409,0.352644 -0.11007,0.70131 4.4e-4,0.446886 0.05911,0.646184 0.253737,0.861584 0.243015,0.268988 0.561932,0.343901 0.877587,0.206135 z"
       id="path1" /></g></svg>
