<?xml version="1.0" encoding="UTF-8" standalone="no"?>
<!-- Created with Inkscape (http://www.inkscape.org/) -->

<svg
   version="1.1"
   id="svg1"
   width="24"
   height="24"
   viewBox="0 0 24 24"
   sodipodi:docname="open.svg"
   inkscape:version="1.4.3 (0d15f75, 2025-12-25)"
   xmlns:inkscape="http://www.inkscape.org/namespaces/inkscape"
   xmlns:sodipodi="http://sodipodi.sourceforge.net/DTD/sodipodi-0.dtd"
   xmlns="http://www.w3.org/2000/svg"
   xmlns:svg="http://www.w3.org/2000/svg"
   xmlns:rdf="http://www.w3.org/1999/02/22-rdf-syntax-ns#"
   xmlns:cc="http://creativecommons.org/ns#">
  <defs
     id="defs1" />
  <sodipodi:namedview
     id="namedview1"
     pagecolor="#ffffff"
     bordercolor="#000000"
     borderopacity="0.25"
     inkscape:showpageshadow="2"
     inkscape:pageopacity="0.0"
     inkscape:pagecheckerboard="0"
     inkscape:deskcolor="#d1d1d1"
     inkscape:zoom="14.579707"
     inkscape:cx="23.388673"
     inkscape:cy="24.966208"
     inkscape:window-width="1920"
     inkscape:window-height="1010"
     inkscape:window-x="1913"
     inkscape:window-y="-6"
     inkscape:window-maximized="1"
     inkscape:current-layer="g1" />
  <g
     inkscape:groupmode="layer"
     inkscape:label="Image"
     id="g1">
    <g
       id="g10"
       transform="matrix(0.13470011,0,0,0.13470011,-74.005984,-67.136315)">
      <path
         style="fill:#000000"
         d="m 582.23474,670.76414 -4.24319,-4.2432 29.24787,-29.26048 L 636.48729,608 H 628.24364 620 v -6.5 -6.5 h 19 19 v 20 20 h -6 -6 v -8.5 c 0,-4.675 -0.30519,-8.5 -0.67821,-8.5 -0.37302,0 -13.43711,12.7125 -29.03132,28.25 -15.5942,15.5375 -28.68147,28.36415 -29.08281,28.50368 -0.40135,0.13952 -2.63916,-1.65577 -4.97292,-3.98952 z"
         id="path9" />
      <path
         style="fill:#000000"
         d="m 614.48738,669.0127 6.93374,-6.98729 34.28998,-0.26271 c 18.85949,-0.1445 34.28974,-0.60022 34.28944,-1.01272 C 690.00024,660.3375 690,636.375 690,607.5 V 555 l -19.75,-0.0153 c -10.8625,-0.008 -20.31856,-0.37623 -21.01346,-0.81734 -0.93532,-0.59372 -1.33424,-6.10871 -1.53598,-21.23469 L 647.42804,512.5 617.21402,512.23534 587,511.97067 l -0.01,62.76467 -0.01,62.76466 -6.9903,6.31646 -6.9903,6.31646 v -70.59858 c 0,-77.36592 -0.11091,-75.87427 5.87156,-78.96792 C 581.46284,499.22641 587.30858,499 619.31461,499 h 37.41392 L 680.36427,523.39135 704,547.7827 v 59.20752 c 0,65.70182 0.13524,64.29413 -6.4784,67.43251 C 694.65362,675.78367 688.25591,676 650.87569,676 h -43.32205 z"
         id="path5" />
    </g>
  </g>
  <metadata
     id="metadata10">
    <rdf:RDF>
      <cc:Work
         rdf:about="">
        <cc:license
           rdf:resource="http://creativecommons.org/licenses/by/4.0/" />
      </cc:Work>
      <cc:License
         rdf:about="http://creativecommons.org/licenses/by/4.0/">
        <cc:permits
           rdf:resource="http://creativecommons.org/ns#Reproduction" />
        <cc:permits
           rdf:resource="http://creativecommons.org/ns#Distribution" />
        <cc:requires
           rdf:resource="http://creativecommons.org/ns#Notice" />
        <cc:requires
           rdf:resource="http://creativecommons.org/ns#Attribution" />
        <cc:permits
           rdf:resource="http://creativecommons.org/ns#DerivativeWorks" />
      </cc:License>
    </rdf:RDF>
  </metadata>
</svg>
