<?xml version="1.0" encoding="UTF-8" standalone="no"?>
<!-- Created with Inkscape (http://www.inkscape.org/) -->

<svg
   version="1.1"
   id="svg1"
   width="24"
   height="24"
   viewBox="0 0 24 24"
   sodipodi:docname="open-workspace.svg"
   inkscape:version="1.4.3 (0d15f75, 2025-12-25)"
   xmlns:inkscape="http://www.inkscape.org/namespaces/inkscape"
   xmlns:sodipodi="http://sodipodi.sourceforge.net/DTD/sodipodi-0.dtd"
   xmlns="http://www.w3.org/2000/svg"
   xmlns:svg="http://www.w3.org/2000/svg">
  <defs
     id="defs1" />
  <sodipodi:namedview
     id="namedview1"
     pagecolor="#ffffff"
     bordercolor="#000000"
     borderopacity="0.25"
     inkscape:showpageshadow="2"
     inkscape:pageopacity="0.0"
     inkscape:pagecheckerboard="0"
     inkscape:deskcolor="#d1d1d1"
     inkscape:zoom="16.833333"
     inkscape:cx="1.960396"
     inkscape:cy="11.227723"
     inkscape:window-width="1920"
     inkscape:window-height="1010"
     inkscape:window-x="-6"
     inkscape:window-y="-6"
     inkscape:window-maximized="1"
     inkscape:current-layer="g1" />
  <g
     inkscape:groupmode="layer"
     inkscape:label="Image"
     id="g1">
    <g
       id="g2"
       transform="matrix(0.06931164,0,0,0.06931164,-74.435216,-37.395805)">
      <path
         style="fill:#000000"
         d="m 1145.3331,827.42398 c -2.1984,-2.19837 -2.4942,-3.18643 -2.0176,-6.73978 0.899,-6.7025 2.9048,-7.65479 16.5453,-7.85525 13.9841,-0.20551 14.9138,-0.25718 15.4561,-0.85899 0.2328,-0.25848 0.7329,-5.247 1.1111,-11.08561 l 0.6878,-10.61564 -39.8079,-0.52914 c -44.6391,-0.59336 -45.6124,-0.73455 -53.6131,-7.777 -2.5427,-2.23816 -5.4297,-6.13038 -6.8054,-9.17489 L 1074.5,767.5 l -0.2722,-84.41789 c -0.3027,-93.89633 -0.4946,-90.90558 6.3474,-98.89894 2.007,-2.34473 5.9611,-5.48264 8.7869,-6.97315 L 1094.5,574.5 h 121.5 121.5 l 4.7704,2.36971 c 2.6237,1.30334 6.5274,4.3658 8.6749,6.80547 7.0525,8.01212 7.0547,8.03054 7.0547,60.11959 v 46.43849 l -2.25,-0.60297 c -1.2375,-0.33164 -5.0625,-0.60913 -8.5,-0.61664 L 1341,689 v -44.09887 c 0,-47.31801 -0.13,-48.62769 -5.1373,-51.75483 -1.7544,-1.09563 -23.2131,-1.31372 -119.613,-1.21561 -79.0982,0.0805 -118.1091,0.45888 -119.4159,1.15825 -1.0674,0.57129 -2.8151,2.47248 -3.8836,4.22488 -1.873,3.07183 -1.9429,5.61429 -1.9465,70.8404 v 67.65423 l 87.4169,0.34577 c 48.0793,0.19018 87.676,0.60497 87.9927,0.92176 0.3166,0.31679 -0.7243,4.14179 -2.3132,8.5 l -2.8889,7.92402 -85.1037,0.25562 -85.1038,0.25561 v 3.5265 c 0,4.4241 2.0498,9.36103 4.9666,11.96227 2.1928,1.95549 4.023,2.01113 82.2286,2.5 l 79.9858,0.5 0.477,7.45257 c 0.2624,4.09891 0.5592,7.92391 0.6595,8.5 0.1138,0.65325 -3.3926,1.15363 -9.3175,1.32962 l -9.5,0.28219 0.2991,10.21781 c 0.1644,5.61979 0.4878,10.78031 0.7186,11.46781 0.2984,0.88904 3.3162,1.25 10.4509,1.25 10.9454,0 13.2458,1.02187 14.6192,6.49398 0.7745,3.08564 -1.1964,8.22617 -3.6592,9.54424 C 1261.8425,829.62144 1238.8528,830 1204.524,830 h -56.6112 z M 1225,809.15088 c 0,-2.11702 -0.291,-7.29202 -0.6467,-11.5 L 1223.7065,790 h -14.7282 -14.7283 l -0.625,3.125 c -0.8321,4.16026 -0.8012,18.36543 0.042,19.20833 0.3666,0.36667 7.5666,0.66667 16,0.66667 H 1225 Z"
         id="path4" />
      <path
         style="fill:#000000"
         d="m 1330.6538,849.36845 c -28.2749,-6.06495 -49.3333,-26.15938 -56.8343,-54.2328 -2.6122,-9.77631 -2.8145,-26.63937 -0.4384,-36.52807 6.3927,-26.60404 26.1341,-47.3338 52.164,-54.7755 10.3336,-2.95429 28.6337,-3.22886 38.4549,-0.57697 26.6139,7.18619 47.4395,28.32963 54.1875,55.01464 2.9021,11.47606 2.2283,29.79601 -1.5164,41.23025 -8.315,25.38986 -29.3975,44.09189 -55.8595,49.55228 -10.9273,2.25484 -20.6447,2.35672 -30.1578,0.31617 z M 1359.5,831.8415 c 7.481,-1.56808 18.4992,-7.30533 24.7796,-12.90296 19.3126,-17.21302 24.4164,-45.87818 12.4525,-69.93854 -7.1188,-14.31653 -22.6735,-26.04798 -39.0114,-29.42266 -9.5387,-1.97028 -13.8601,-1.97907 -23.2128,-0.0472 -9.4412,1.95012 -13.4047,3.618 -21.7745,9.1628 -28.9898,19.20517 -33.0613,62.86808 -8.1822,87.74716 14.4207,14.42074 33.763,19.84212 54.9488,15.40141 z"
         id="path1" />
    </g>
  </g>
</svg>
