<?xml version="1.0" encoding="UTF-8" standalone="no"?>
<!-- Created with Inkscape (http://www.inkscape.org/) -->

<svg
   version="1.1"
   id="svg1"
   width="24"
   height="24"
   viewBox="0 0 24 24"
   sodipodi:docname="open-workspace.svg"
   inkscape:version="1.4.3 (0d15f75, 2025-12-25)"
   xmlns:inkscape="http://www.inkscape.org/namespaces/inkscape"
   xmlns:sodipodi="http://sodipodi.sourceforge.net/DTD/sodipodi-0.dtd"
   xmlns="http://www.w3.org/2000/svg"
   xmlns:svg="http://www.w3.org/2000/svg"
   xmlns:rdf="http://www.w3.org/1999/02/22-rdf-syntax-ns#"
   xmlns:cc="http://creativecommons.org/ns#"
   xmlns:dc="http://purl.org/dc/elements/1.1/">
  <title
     id="title1">iconset2</title>
  <defs
     id="defs1" />
  <sodipodi:namedview
     id="namedview1"
     pagecolor="#ffffff"
     bordercolor="#000000"
     borderopacity="0.25"
     inkscape:showpageshadow="2"
     inkscape:pageopacity="0.0"
     inkscape:pagecheckerboard="0"
     inkscape:deskcolor="#d1d1d1"
     inkscape:zoom="7.2407734"
     inkscape:cx="13.534466"
     inkscape:cy="19.473058"
     inkscape:window-width="1920"
     inkscape:window-height="1010"
     inkscape:window-x="1913"
     inkscape:window-y="-6"
     inkscape:window-maximized="1"
     inkscape:current-layer="g1" />
  <g
     inkscape:groupmode="layer"
     inkscape:label="Image"
     id="g1">
    <g
       id="g70"
       transform="matrix(0.07587655,0,0,0.07587655,-101.83867,-1.0168791)">
      <path
         style="fill:#000000"
         d="m 1491.2158,179.27937 c -1.3858,-1.53126 -1.655,-4.27861 -1.655,-16.88922 0,-13.33496 0.2189,-15.33095 1.9105,-17.42126 l 1.9106,-2.36078 30.8394,-0.25742 c 33.4616,-0.2793 35.5698,0.005 36.1401,4.86619 0.1653,1.40933 -0.3225,3.07949 -1.084,3.71146 -0.9566,0.79392 -10.4756,1.23105 -30.8005,1.4144 l -29.4161,0.26537 -0.2862,9.75 -0.2862,9.75 h 12.8362 c 13.1902,0 15.2362,0.55442 15.2362,4.12857 0,4.25268 -2.3392,4.87143 -18.4164,4.87143 -13.5268,0 -15.4629,-0.20915 -16.9286,-1.82874 z"
         id="path70" />
      <path
         style="fill:#000000"
         d="m 1492.1957,232.03553 -2.6349,-2.07258 v -14.92742 c 0,-19.16018 -0.1707,-18.92742 13.8776,-18.92742 7.8226,0 10.153,0.33191 11.2016,1.59542 1.1037,1.32993 1.0768,2.03714 -0.162,4.25 -1.3659,2.44002 -2.0721,2.67839 -8.7373,2.94911 l -7.2512,0.29453 0.2856,9.70547 0.2857,9.70547 4.4804,0.31875 c 5.2001,0.36996 7.0196,1.56327 7.0196,4.60369 0,3.58407 -1.9674,4.57756 -9.0651,4.57756 -5.2288,0 -7.233,-0.44666 -9.3,-2.07258 z"
         id="path68" />
      <path
         style="fill:#000000"
         d="m 1389.8593,232.14859 c -6.2462,-3.80858 -6.2985,-4.17388 -6.2985,-44.02294 0,-40.04374 0.1926,-41.43876 6.1712,-44.70112 3.0354,-1.65631 6.3854,-1.81642 38.0049,-1.81642 33.6429,0 34.7603,0.0625 37.5,2.0964 5.2706,3.9128 5.2933,4.10157 5.3092,44.20326 0.016,40.93645 -0.078,41.64574 -5.9526,44.68341 -2.4552,1.26964 -8.525,1.51632 -37.233,1.51319 -32.2551,-0.004 -34.4905,-0.1201 -37.5012,-1.95578 z m 70.9267,-43.62623 c 0.1957,-25.33933 -0.048,-35.85304 -0.8446,-36.51403 -0.6525,-0.54115 -14.623,-0.81816 -33.5,-0.66425 l -32.3806,0.26403 -0.2632,34.99431 c -0.1448,19.24687 -0.046,35.55937 0.2186,36.25 0.3732,0.97249 7.9259,1.25569 33.4884,1.25569 h 33.0066 z"
         id="path67" />
      <path
         style="fill:#000000"
         d="m 1362.8769,266.16465 c -2.546,-1.15596 -5.2205,-3.46602 -6.832,-5.90125 l -2.6482,-4.00173 0.029,-92.0245 c 0.032,-99.50684 -0.2252,-94.669247 5.3034,-99.831334 5.9189,-5.526184 0.9733,-5.297728 114.6854,-5.297728 h 104.9179 l 5.2669,2.75147 c 3.7812,1.975299 5.8586,3.879428 7.3642,6.75 2.0268,3.8642 2.0973,5.325525 2.0973,43.498532 v 39.5 l -4.7267,0.30384 -4.7267,0.30384 -0.2733,-17.80384 -0.2733,-17.80384 h -110 -110 v 68.71454 c 0,64.62815 0.1062,68.82072 1.7854,70.5 1.6744,1.67447 6.6146,1.81654 79.4684,2.28546 l 77.683,0.5 2.2651,4 c 1.2459,2.2 2.2726,4.3375 2.2816,4.75 0.01,0.4125 -35.871,0.74012 -79.7335,0.72804 -76.183,-0.021 -79.9371,-0.10693 -83.9339,-1.9215 z M 1583.5608,91.757331 c 0,-15.793839 -0.8577,-19.807746 -4.5968,-21.511387 -1.8156,-0.827217 -30.9748,-1.137836 -106.8139,-1.137836 h -104.3166 l -2.6363,2.636364 c -2.6269,2.626899 -2.6364,2.693312 -2.6364,18.499999 v 15.863639 h 110.5 110.5 z"
         id="path64" />
      <path
         style="fill:#000000"
         d="m 1418.9605,93.342791 c -2.4478,-1.63443 -3.5188,-5.14221 -2.2852,-7.48468 1.5391,-2.922526 2.8097,-3.715979 5.9805,-3.73469 5.1849,-0.0306 7.9057,6.86413 4.0763,10.3297 -1.8957,1.71556 -5.8558,2.1689 -7.7716,0.88967 z"
         id="path63" />
      <path
         style="fill:#000000"
         d="m 1397.1322,92.536681 c -1.6325,-1.63258 -2.0828,-6.11685 -0.8061,-8.02887 1.5527,-2.325384 5.0429,-3.423125 7.6872,-2.417778 4.6186,1.756001 5.3042,8.477448 1.1478,11.252758 -1.912,1.27669 -6.3963,0.82646 -8.0289,-0.80611 z"
         id="path62" />
      <path
         style="fill:#000000"
         d="m 1376.2158,92.279371 c -2.5023,-2.76501 -2.0698,-6.69986 1.0021,-9.1162 2.8402,-2.234117 5.4823,-2.013292 8.5929,0.718205 2.1664,1.902355 2.2431,5.077745 0.1933,8.004225 -1.9625,2.80187 -7.4107,3.02104 -9.7883,0.39377 z"
         id="path61" />
      <path
         style="fill:#000000"
         d="m 1572.6697,282.52669 c -19.8242,-5.33125 -34.2401,-19.64306 -41.7197,-41.41858 -2.9448,-8.57329 -2.527,-26.27153 0.832,-35.24155 3.693,-9.86223 8.4717,-17.20237 15.4826,-23.78164 14.8043,-13.89293 36.7758,-19.31897 56.3092,-13.906 10.9276,3.0282 18.5648,7.45361 26.5746,15.39879 22.9884,22.80298 22.7447,60.40558 -0.5415,83.5315 -7.2583,7.20836 -17.2988,13.04828 -26.5984,15.47051 -7.3564,1.9161 -23.119,1.88855 -30.3388,-0.053 z m 26.1609,-8.88786 c 25.1536,-5.33015 41.3407,-29.18382 37.8427,-55.76574 -2.6471,-20.11536 -17.0597,-35.86964 -37.7436,-41.2571 -15.5094,-4.03971 -33.6158,1.1241 -45.5735,12.99725 -10.9659,10.88837 -15.2899,21.96942 -14.5652,37.32633 0.9064,19.20757 10.6687,34.50637 27.2698,42.73503 10.9718,5.43841 20.4195,6.58132 32.7698,3.96423 z"
         id="path56" />
      <path
         style="fill:#000000"
         d="m 1555.2158,251.27937 c -1.4472,-1.59908 -1.655,-4.97043 -1.655,-26.84501 0,-30.42065 -1.0534,-28.32625 14.247,-28.32625 5.8242,0 11.2921,0.26965 12.151,0.59922 0.8588,0.32958 2.5073,2.12958 3.6633,4 l 2.1018,3.40078 h 11.8618 c 11.1239,0 11.9585,0.13823 13.4184,2.22251 0.8562,1.22237 1.5567,3.24737 1.5567,4.5 0,2.09774 0.4402,2.27749 5.5769,2.27749 4.8307,0 5.9681,0.39116 8.5,2.92308 1.6856,1.68552 2.9231,3.99091 2.9231,5.44529 0,1.38722 -2.7,8.00833 -6,14.71357 -3.3,6.70525 -6,12.78903 -6,13.51952 0,2.96111 -4.1547,3.39854 -32.2793,3.39854 -26.2539,0 -28.5364,-0.13883 -30.0657,-1.82874 z m 60.2891,-17.92126 c 3.3167,-6.4625 5.8252,-12.3125 5.5745,-13 -0.3462,-0.94929 -5.8505,-1.25 -22.8802,-1.25 -19.0103,0 -22.5121,-0.22837 -23,-1.5 -0.9367,-2.44092 0.3806,-4.44728 3.4463,-5.24904 l 2.8715,-0.75096 -3.5852,-3.79671 c -3.4274,-3.62969 -3.8333,-3.78366 -9.228,-3.5 l -5.643,0.29671 -0.2707,20.25 -0.2707,20.25 h 23.4776 23.4777 z"
         id="path55" />
    </g>
  </g>
  <metadata
     id="metadata1">
    <rdf:RDF>
      <cc:Work
         rdf:about="">
        <dc:title>iconset2</dc:title>
      </cc:Work>
    </rdf:RDF>
  </metadata>
</svg>
