<?xml version="1.0" encoding="UTF-8" standalone="no"?>
<!-- Created with Inkscape (http://www.inkscape.org/) -->

<svg
   width="24"
   height="24"
   viewBox="0 0 24 24"
   version="1.1"
   id="svg1"
   xml:space="preserve"
   inkscape:version="1.4.3 (0d15f75, 2025-12-25)"
   sodipodi:docname="page-geometry.svg"
   xmlns:inkscape="http://www.inkscape.org/namespaces/inkscape"
   xmlns:sodipodi="http://sodipodi.sourceforge.net/DTD/sodipodi-0.dtd"
   xmlns="http://www.w3.org/2000/svg"
   xmlns:svg="http://www.w3.org/2000/svg"><sodipodi:namedview
     id="namedview1"
     pagecolor="#ffffff"
     bordercolor="#000000"
     borderopacity="0.25"
     inkscape:showpageshadow="2"
     inkscape:pageopacity="0.0"
     inkscape:pagecheckerboard="0"
     inkscape:deskcolor="#d1d1d1"
     inkscape:document-units="px"
     inkscape:zoom="14.570717"
     inkscape:cx="27.658214"
     inkscape:cy="27.726845"
     inkscape:window-width="1920"
     inkscape:window-height="1010"
     inkscape:window-x="1913"
     inkscape:window-y="-6"
     inkscape:window-maximized="1"
     inkscape:current-layer="layer1" /><defs
     id="defs1" /><g
     inkscape:label="Vrstva 1"
     inkscape:groupmode="layer"
     id="layer1"><path
       style="fill:#000000;stroke-width:0.0269317"
       d="M 1.5562865,23.888643 C 0.79855871,23.690107 0.22561679,23.030838 0.12277719,22.239141 0.08681432,21.962281 0.08760679,2.1362845 0.1235955,1.8221628 0.2276923,0.91353833 0.93260245,0.20176205 1.8467739,0.08219735 2.0092016,0.06096418 3.5821646,0.05458992 7.2865508,0.06014586 l 5.2112762,0.0078386 0.198778,0.07258901 c 0.109328,0.0399252 0.266878,0.11759643 0.350112,0.17260455 0.09061,0.0598879 1.151605,1.10054998 2.644313,2.59364648 2.685704,2.6864006 2.620475,2.6145523 2.752825,3.03226 l 0.05973,0.188523 v 8.1064275 c 0,7.737256 -0.0022,8.114404 -0.0487,8.281487 -0.188572,0.677878 -0.718217,1.204596 -1.382,1.374363 -0.203829,0.05213 -0.333243,0.05299 -7.7640397,0.05153 -7.3420586,-0.0014 -7.5623181,-0.0029 -7.7525612,-0.05279 z M 16.918624,22.644388 c 0.07627,-0.04022 0.175912,-0.118321 0.221435,-0.173548 0.178595,-0.216667 0.165066,0.442247 0.165066,-8.039599 V 6.733584 h -2.085442 c -2.337631,0 -2.310474,0.00172 -2.699596,-0.188889 C 12.15148,6.3639675 11.895508,6.0640501 11.735104,5.624937 L 11.662944,5.4273953 11.655444,3.3738595 11.647944,1.3203193 6.7673867,1.320582 1.8868285,1.320849 1.7521702,1.384695 C 1.5817086,1.46548 1.4306395,1.6222093 1.3728397,1.7781589 1.3311873,1.8905353 1.3280304,2.6360091 1.329412,12.029765 l 0.00151,10.130419 0.059492,0.138293 c 0.073054,0.169818 0.2570889,0.338415 0.4265817,0.390796 0.1056572,0.03265 1.2027862,0.03749 7.5433116,0.03323 l 7.4196727,-0.005 z M 4.3913951,19.094789 c -0.05925,-0.0089 -0.1412712,-0.03408 -0.1822706,-0.05599 -0.1195285,-0.0639 -1.795211,-1.749545 -1.8581473,-1.869194 -0.076233,-0.144927 -0.080446,-0.440046 -0.00846,-0.592497 0.032797,-0.06945 0.3723182,-0.429765 0.9556114,-1.014128 0.8987299,-0.90038 0.9057273,-0.906616 1.0530127,-0.938685 0.194606,-0.04238 0.3431688,-0.003 0.4902669,0.129642 0.1343603,0.121241 0.1828778,0.229818 0.1828778,0.409259 0,0.221508 -0.055762,0.30737 -0.4723311,0.727289 -0.214215,0.215938 -0.3894817,0.401199 -0.3894817,0.411693 0,0.01049 2.2930434,0.01908 5.0956523,0.01908 h 5.0956535 l -0.394632,-0.397806 c -0.423226,-0.42663 -0.504067,-0.548557 -0.504067,-0.760255 0,-0.252483 0.181708,-0.479135 0.432322,-0.539256 0.105328,-0.02528 0.155477,-0.0233 0.271991,0.01064 0.134903,0.03932 0.19322,0.09227 1.048139,0.951677 1.012642,1.01796 1.012643,1.017961 0.987155,1.335492 -0.0075,0.09321 -0.0347,0.211349 -0.06048,0.262523 -0.05366,0.106527 -1.714328,1.787561 -1.822405,1.844758 -0.39268,0.207816 -0.85515,-0.04388 -0.857317,-0.466593 -10e-4,-0.201028 0.06251,-0.295767 0.477995,-0.712684 l 0.395739,-0.397102 -5.0828744,-0.0069 c -2.7955813,-0.0038 -5.0828745,-0.0068 -5.0828741,-0.0067 0,1.07e-4 0.1815712,0.187948 0.4034908,0.41744 0.2509515,0.259515 0.4150012,0.451428 0.4339371,0.507641 0.016745,0.04971 0.025351,0.160833 0.019123,0.24694 -0.023516,0.325128 -0.2940974,0.533644 -0.6276303,0.483668 z M 14.719686,3.7455261 C 13.749473,2.7846886 12.951625,2.0024854 12.946691,2.0072962 c -0.0049,0.00482 -0.0081,0.726407 -0.0071,1.6035435 0.0021,1.7783962 -0.0071,1.6904745 0.189856,1.8231969 l 0.09005,0.060689 1.632115,-0.00129 1.632115,-0.00129 z m 7.217685,18.0697229 c -0.151383,-0.07004 -1.410769,-1.313491 -1.469397,-1.450803 -0.163535,-0.383011 0.188036,-0.764896 0.572166,-0.621502 0.0417,0.01557 0.200037,0.151691 0.351865,0.3025 l 0.276049,0.274199 V 14.248726 8.1778099 l -0.26427,0.259639 c -0.145348,0.1428006 -0.297627,0.2723229 -0.338399,0.2878235 -0.132549,0.050395 -0.349362,0.034714 -0.44768,-0.032388 -0.172051,-0.1174415 -0.237094,-0.3634835 -0.150731,-0.5701817 0.04371,-0.1046024 1.319689,-1.3775718 1.451995,-1.4485672 0.116162,-0.06233 0.352954,-0.06068 0.489706,0.00345 0.132009,0.061869 1.425047,1.3535736 1.466499,1.4649853 0.07685,0.2065647 -0.0062,0.4520855 -0.187354,0.5539057 -0.112765,0.063377 -0.340296,0.077443 -0.439302,0.027177 C 23.216168,8.7072015 23.06547,8.5710977 22.913643,8.4211519 L 22.637594,8.148527 v 6.082429 6.082427 l 0.17958,-0.167988 c 0.09877,-0.09239 0.208125,-0.201912 0.243013,-0.243374 0.101537,-0.12067 0.284623,-0.196079 0.43985,-0.181163 0.320669,0.03081 0.493097,0.351129 0.351879,0.653679 -0.05993,0.128391 -1.287986,1.356892 -1.426073,1.426586 -0.146211,0.0738 -0.347042,0.07963 -0.488472,0.0142 z"
       id="path1" /></g></svg>
