<?xml version="1.0" encoding="UTF-8" standalone="no"?>
<!-- Created with Inkscape (http://www.inkscape.org/) -->

<svg
   width="24"
   height="24"
   viewBox="0 0 24 24"
   version="1.1"
   id="svg1"
   inkscape:version="1.4.3 (0d15f75, 2025-12-25)"
   sodipodi:docname="paste.svg"
   xml:space="preserve"
   xmlns:inkscape="http://www.inkscape.org/namespaces/inkscape"
   xmlns:sodipodi="http://sodipodi.sourceforge.net/DTD/sodipodi-0.dtd"
   xmlns="http://www.w3.org/2000/svg"
   xmlns:svg="http://www.w3.org/2000/svg"><sodipodi:namedview
     id="namedview1"
     pagecolor="#ffffff"
     bordercolor="#000000"
     borderopacity="0.25"
     inkscape:showpageshadow="2"
     inkscape:pageopacity="0.0"
     inkscape:pagecheckerboard="0"
     inkscape:deskcolor="#d1d1d1"
     inkscape:document-units="px"
     inkscape:zoom="33.666667"
     inkscape:cx="12"
     inkscape:cy="12"
     inkscape:window-width="1920"
     inkscape:window-height="1010"
     inkscape:window-x="1913"
     inkscape:window-y="-6"
     inkscape:window-maximized="1"
     inkscape:current-layer="layer1" /><defs
     id="defs1" /><g
     inkscape:label="Vrstva 1"
     inkscape:groupmode="layer"
     id="layer1"><path
       style="fill:#000000;stroke-width:0.0255374"
       d="M 4.8469522,23.948867 C 4.2986901,23.877988 3.825061,23.53244 3.5688728,23.016126 3.3759244,22.627158 3.3906253,23.463398 3.3979757,13.369968 l 0.00788,-9.0727741 0.059328,-0.1659093 C 3.669416,3.5587661 4.1100995,3.1511857 4.6805441,3.0074588 4.8690297,2.9599436 4.9687066,2.9565309 6.1777446,2.9565309 h 1.2952217 l 0.010501,-0.2234 C 7.4965926,2.4596166 7.5606462,2.303079 7.725768,2.1348858 7.7911342,2.0682071 7.9121535,1.9836773 7.9991247,1.9435125 l 0.1559338,-0.071929 0.7992,-0.013126 0.7991737,-0.013126 0.075342,-0.2241876 C 9.8702513,1.498025 9.9287921,1.3484965 9.9589813,1.2891419 10.122791,0.96714135 10.442429,0.60053946 10.729987,0.40457217 c 0.171947,-0.11708159 0.507179,-0.26860512 0.719475,-0.32501955 0.253851,-0.0674663 0.89591,-0.0674663 1.149184,1.8376e-4 0.779485,0.20791171 1.428081,0.84655767 1.634549,1.60929432 l 0.04568,0.168797 h 0.693801 c 0.89927,0 1.050059,0.028352 1.286873,0.2423012 0.163022,0.1475333 0.235214,0.3123401 0.260677,0.5957249 0.01313,0.1359826 0.02363,0.2496515 0.02363,0.2525392 4.99e-4,0.00263 0.612841,0.00788 1.360771,0.013126 l 1.35988,0.00788 0.201611,0.071141 c 0.435827,0.1540962 0.760269,0.4334381 0.972512,0.8373171 0.180085,0.3426606 0.165909,-0.4722378 0.166435,9.5883259 4.2e-4,10.12677 0.01838,9.208415 -0.180348,9.589166 -0.251489,0.483658 -0.721496,0.816133 -1.259126,0.890897 -0.2255,0.03124 -14.0750978,0.03386 -14.3172414,0.0026 z M 19.25526,22.944879 c 0.157246,-0.07718 0.268736,-0.188223 0.35912,-0.35723 l 0.05749,-0.107893 0.0053,-8.96299 c 0.0053,-7.9056856 0.002,-8.9785572 -0.03176,-9.0947988 -0.04967,-0.1706346 -0.235266,-0.3798064 -0.408421,-0.4605034 l -0.128107,-0.059591 -1.280416,-2.625e-4 -1.280416,-2.362e-4 -0.01575,0.08453 c -0.0079,0.046465 -0.01575,0.5410692 -0.01313,1.0991757 0.0023,1.2048641 0.0053,1.1894544 -0.243613,1.4382397 -0.13467,0.1346701 -0.182973,0.1653843 -0.33426,0.2113244 -0.176673,0.053553 -0.17851,0.053553 -3.994688,0.046728 L 8.1287807,6.7734959 7.9846601,6.7057671 C 7.8008998,6.6196622 7.6441785,6.4629409 7.5580736,6.2791806 L 7.4903448,6.1350599 7.4824693,5.017797 7.4745939,3.9005341 H 6.188429 4.9022641 L 4.74108,3.9840141 C 4.5641451,4.0756321 4.4143279,4.2446913 4.3653426,4.4082642 4.328853,4.5298086 4.3209776,22.362018 4.3574676,22.481961 c 0.071929,0.237838 0.285511,0.444253 0.5404129,0.52243 0.035177,0.0105 3.2470716,0.01838 7.1376985,0.01575 l 7.07388,-0.0053 z M 15.605254,5.784734 c 0.0079,-0.031502 0.0105,-0.7124914 0.0079,-1.5130827 L 15.60788,2.8160068 14.663483,2.802881 13.719059,2.7897553 13.616416,2.721764 C 13.481221,2.6322464 13.424518,2.5054518 13.401942,2.240653 13.348388,1.6141877 12.901483,1.1059591 12.290559,0.97653938 c -0.2213,-0.0469901 -0.310109,-0.0469901 -0.53406,1.3126e-4 -0.270233,0.0567032 -0.534717,0.19767356 -0.715694,0.38146016 -0.258052,0.2617273 -0.380647,0.532485 -0.421625,0.9296436 -0.02704,0.2612022 -0.100543,0.3915147 -0.262541,0.4650713 -0.09871,0.04489 -0.178248,0.048565 -1.032576,0.04909 L 8.3983309,2.8025132 V 4.321975 5.8414631 h 3.5980281 3.598001 z"
       id="path1" /></g></svg>
