<?xml version="1.0" encoding="UTF-8" standalone="no"?>
<!-- Created with Inkscape (http://www.inkscape.org/) -->

<svg
   width="24"
   height="24"
   viewBox="0 0 24 24"
   version="1.1"
   id="svg1"
   inkscape:version="1.4.3 (0d15f75, 2025-12-25)"
   sodipodi:docname="prepare-icon-theme.svg"
   xml:space="preserve"
   xmlns:inkscape="http://www.inkscape.org/namespaces/inkscape"
   xmlns:sodipodi="http://sodipodi.sourceforge.net/DTD/sodipodi-0.dtd"
   xmlns="http://www.w3.org/2000/svg"
   xmlns:svg="http://www.w3.org/2000/svg"><sodipodi:namedview
     id="namedview1"
     pagecolor="#ffffff"
     bordercolor="#000000"
     borderopacity="0.25"
     inkscape:showpageshadow="2"
     inkscape:pageopacity="0.0"
     inkscape:pagecheckerboard="0"
     inkscape:deskcolor="#d1d1d1"
     inkscape:document-units="px"
     inkscape:zoom="33.666667"
     inkscape:cx="12"
     inkscape:cy="12"
     inkscape:window-width="1920"
     inkscape:window-height="1010"
     inkscape:window-x="1913"
     inkscape:window-y="-6"
     inkscape:window-maximized="1"
     inkscape:current-layer="layer1" /><defs
     id="defs1" /><g
     inkscape:label="Vrstva 1"
     inkscape:groupmode="layer"
     id="layer1"><path
       style="fill:#000000;stroke-width:0.0276451"
       d="m 17.663551,23.475331 c -0.156499,-0.04214 -0.300507,-0.147384 -0.381924,-0.279117 -0.03871,-0.06264 -0.10209,-0.296053 -0.176612,-0.650459 l -0.116224,-0.552751 -0.200767,-0.09622 C 16.6776,21.843864 16.503826,21.746601 16.401856,21.680635 l -0.1854,-0.119932 -0.483443,0.208631 c -0.44879,0.193679 -0.497476,0.208693 -0.679131,0.209446 -0.170208,7.28e-4 -0.213005,-0.01 -0.328745,-0.08213 -0.116228,-0.07244 -0.195567,-0.177395 -0.626941,-0.829353 -0.641661,-0.969766 -0.615897,-0.920527 -0.617007,-1.179339 -7.28e-4,-0.191645 0.007,-0.223049 0.08252,-0.330568 0.04588,-0.06534 0.269809,-0.272575 0.49761,-0.460518 l 0.414187,-0.341715 -0.0048,-0.115605 c -0.01823,-0.440777 -0.01808,-0.945301 2.77e-4,-1.099137 l 0.02172,-0.181823 -0.395632,-0.320419 C 13.635887,16.664666 13.567304,16.597 13.50939,16.458367 c -0.05803,-0.138931 -0.05343,-0.369035 0.01019,-0.509127 0.02853,-0.06286 0.288237,-0.467607 0.577088,-0.899432 0.496343,-0.742015 0.533206,-0.7895 0.671202,-0.864607 0.243444,-0.132497 0.360556,-0.1157 0.946348,0.135754 l 0.49229,0.211317 0.198839,-0.127603 c 0.109361,-0.07019 0.28761,-0.169884 0.396112,-0.221561 l 0.197278,-0.09395 0.029,-0.160081 c 0.162635,-0.897896 0.236338,-1.103805 0.445566,-1.244803 0.167216,-0.112687 0.261108,-0.120823 1.29498,-0.112228 1.081288,0.009 1.068708,0.0072 1.25952,0.184148 0.128887,0.119557 0.171532,0.240093 0.283407,0.801101 l 0.106632,0.534716 0.166557,0.07565 c 0.09161,0.04161 0.269544,0.139593 0.395422,0.217746 l 0.228863,0.142097 0.282571,-0.12114 c 0.155408,-0.06663 0.369646,-0.161824 0.476082,-0.211546 0.15897,-0.07427 0.228445,-0.09074 0.389198,-0.09224 0.170641,-0.0015 0.213093,0.0088 0.33174,0.08119 0.116075,0.07084 0.181408,0.152042 0.444831,0.552904 0.865058,1.316388 0.805835,1.209018 0.808142,1.465093 0.0018,0.204374 -0.06461,0.361579 -0.209519,0.495671 -0.124259,0.114979 -0.728981,0.597265 -0.769169,0.61344 -0.0175,0.0071 -0.02667,0.270977 -0.02504,0.720582 l 0.0025,0.709458 0.384417,0.299455 c 0.21143,0.164702 0.418245,0.332169 0.459591,0.372154 0.115856,0.112043 0.167984,0.27975 0.15552,0.50035 l -0.0107,0.189265 -0.521678,0.823491 c -0.286923,0.452916 -0.560345,0.859662 -0.607611,0.903878 -0.04726,0.04421 -0.14102,0.09918 -0.208351,0.122148 -0.251104,0.08565 -0.359334,0.05962 -1.076622,-0.258928 l -0.314397,-0.13963 -0.114103,0.07826 c -0.135062,0.09264 -0.604667,0.334407 -0.649546,0.334407 -0.01721,0 -0.0313,0.0046 -0.0313,0.0103 0,0.07161 -0.234383,1.123824 -0.262407,1.178015 -0.06494,0.125587 -0.250792,0.271155 -0.404446,0.316783 -0.190087,0.05645 -1.868491,0.06006 -2.074971,0.0045 z m 1.712836,-1.468095 c 0.04995,-0.243274 0.1034,-0.489091 0.118775,-0.546259 0.03865,-0.143731 0.185731,-0.281519 0.362278,-0.339396 0.205094,-0.06724 0.559002,-0.247659 0.750945,-0.382834 0.491318,-0.346005 0.470383,-0.344942 1.125366,-0.05706 0.261217,0.114812 0.479743,0.203955 0.485605,0.198093 0.0059,-0.0059 0.145481,-0.222572 0.310263,-0.481573 L 22.829223,19.9273 22.405295,19.591033 c -0.575039,-0.456126 -0.580156,-0.467632 -0.480529,-1.080902 0.0381,-0.234551 0.03122,-0.763529 -0.01314,-1.009044 -0.08124,-0.449659 -0.04046,-0.582976 0.247313,-0.80848 0.315052,-0.24688 0.651574,-0.536678 0.651574,-0.561113 0,-0.01801 -0.552202,-0.885517 -0.593543,-0.932448 -0.0036,-0.0041 -0.117265,0.04346 -0.252521,0.105736 -0.734657,0.338261 -0.888166,0.37353 -1.069636,0.24573 -0.526255,-0.370614 -0.750894,-0.496212 -1.041663,-0.582411 -0.07136,-0.02114 -0.166881,-0.07982 -0.225647,-0.138589 -0.08413,-0.08414 -0.109364,-0.137282 -0.144669,-0.304761 -0.02351,-0.11157 -0.07748,-0.364577 -0.119918,-0.562237 l -0.07715,-0.359389 -0.582627,-0.0075 -0.582622,-0.0075 -0.102218,0.477413 c -0.05622,0.262579 -0.101934,0.493462 -0.101592,0.513072 0.0015,0.07686 -0.112858,0.251891 -0.198944,0.304914 -0.04989,0.03071 -0.177485,0.08846 -0.283546,0.128298 -0.251803,0.09457 -0.488014,0.228099 -0.736389,0.416268 -0.214453,0.162472 -0.362052,0.219992 -0.486544,0.189614 -0.04238,-0.01033 -0.284979,-0.10868 -0.539101,-0.218529 l -0.462039,-0.199726 -0.30511,0.46403 c -0.167813,0.255216 -0.304564,0.474495 -0.303888,0.487282 7.28e-4,0.01277 0.188377,0.172537 0.417121,0.354993 0.539242,0.430129 0.582695,0.50833 0.501674,0.902867 -0.06333,0.308374 -0.06273,0.970231 0.0011,1.296913 0.04205,0.215028 0.04244,0.250136 0.0041,0.37902 -0.04581,0.154269 -0.09857,0.205782 -0.657435,0.641854 -0.146147,0.114037 -0.26621,0.218412 -0.266811,0.231945 -7.27e-4,0.01783 0.540542,0.86011 0.593503,0.923442 0.0037,0.0045 0.225083,-0.08573 0.49189,-0.200429 0.381739,-0.164105 0.51353,-0.208507 0.61851,-0.208394 0.142318,1.67e-4 0.153344,0.0057 0.48253,0.244278 0.218274,0.15817 0.485725,0.302755 0.727052,0.393048 0.1785,0.06679 0.278971,0.141293 0.333988,0.247684 0.02234,0.04321 0.08459,0.287811 0.138313,0.543552 0.05373,0.25574 0.104532,0.486998 0.112901,0.513905 0.01405,0.0451 0.06101,0.04834 0.600552,0.04147 l 0.58533,-0.0075 z m -1.132622,-2.074677 c -0.622837,-0.151041 -1.148412,-0.632465 -1.363622,-1.249068 -0.09982,-0.286013 -0.125219,-0.759333 -0.05715,-1.065277 0.157875,-0.709614 0.731852,-1.29208 1.452812,-1.474292 0.277946,-0.07025 0.779922,-0.0431 1.048992,0.05674 0.319812,0.118662 0.566528,0.281017 0.794525,0.522846 0.487829,0.517427 0.656421,1.259948 0.43617,1.920986 -0.219005,0.657305 -0.801286,1.180267 -1.451414,1.303562 -0.202136,0.03833 -0.673342,0.02984 -0.86031,-0.0155 z m 0.884509,-1.076488 c 0.360571,-0.196462 0.558594,-0.61303 0.473072,-0.99518 -0.176863,-0.790303 -1.200135,-0.996875 -1.641826,-0.331441 -0.284415,0.428488 -0.186215,0.977356 0.225549,1.260658 0.19338,0.133047 0.301049,0.162526 0.561604,0.153756 0.197885,-0.0067 0.258128,-0.02052 0.381601,-0.08779 z M 1.1854055,21.494139 C 1.1285471,21.480384 0.99170135,21.423674 0.88131062,21.368108 0.4939751,21.173134 0.1949347,20.772229 0.1001732,20.320888 0.0522739,20.092748 0.0435259,19.24277 0.08743693,19.084625 c 0.10223224,-0.368096 0.58849948,-0.507267 0.86617933,-0.247902 0.15763864,0.147238 0.18184124,0.247578 0.18251074,0.75668 7.278e-4,0.491362 0.015975,0.571033 0.13368,0.695306 0.1309689,0.138265 0.1506155,0.142013 0.8206853,0.15658 0.7122451,0.0155 0.7414003,0.02285 0.9081108,0.2291 0.069787,0.08634 0.086567,0.135211 0.095704,0.278731 0.013428,0.210607 -0.051145,0.360276 -0.2065532,0.47888 l -0.1017119,0.07763 -0.7486308,0.0048 c -0.4117455,0.0025 -0.795151,-0.0065 -0.852013,-0.02023 z m 3.7113316,-0.02198 c -0.052597,-0.0282 -0.1327047,-0.09709 -0.1780167,-0.153075 -0.111537,-0.137806 -0.1331996,-0.393689 -0.047543,-0.561589 0.070916,-0.139008 0.1955091,-0.24604 0.3298258,-0.283342 0.139273,-0.03868 2.1411384,-0.03829 2.2806188,3.63e-4 0.4407515,0.1224 0.5102187,0.78577 0.1039826,0.993015 -0.1045757,0.05335 -0.1602806,0.05584 -1.2513388,0.05584 -1.0594068,0 -1.1488045,-0.0037 -1.237529,-0.05129 z m 4.5750037,0.0052 C 9.2784297,21.375258 9.1814666,21.215178 9.1814666,20.998177 c 0,-0.244289 0.1584501,-0.462239 0.3809783,-0.524039 0.1386179,-0.0385 1.9482601,-0.03811 2.0871041,3.64e-4 0.129935,0.0361 0.292643,0.176048 0.342013,0.294204 0.08142,0.194865 0.02402,0.494757 -0.118666,0.619998 -0.151988,0.133404 -0.164513,0.134717 -1.273245,0.133542 -0.8990394,-0.0011 -1.056558,-0.0072 -1.1279102,-0.04493 z M 4.7997194,17.323479 C 4.430695,17.231479 4.17006,16.874183 4.2153465,16.522382 c 0.022016,-0.171005 0.077535,-0.274594 1.2312628,-2.297256 1.0689044,-1.873946 1.1387319,-1.977827 1.3733013,-2.042953 0.1848506,-0.05132 0.3739224,-0.03739 0.5268596,0.03882 0.1851344,0.09225 0.2212982,0.135172 0.4541463,0.538945 0.1096047,0.190058 0.3607386,0.625471 0.558078,0.967578 0.7375321,1.278591 1.3859867,2.423378 1.448489,2.557171 0.092243,0.197463 0.08982,0.450995 -0.00615,0.643585 -0.07696,0.154433 -0.1750255,0.250294 -0.3540174,0.346049 l -0.1138004,0.06088 -2.2254308,0.0045 c -1.2239885,0.0025 -2.2627516,-0.0048 -2.3083657,-0.01619 z M 8.411901,15.97366 C 8.3105967,15.794992 7.9609569,15.186067 7.6349229,14.620496 l -0.5927862,-1.028312 -0.054027,0.0884 c -0.091683,0.150008 -1.4834409,2.596289 -1.4834409,2.607435 0,0.0058 0.6955715,0.01048 1.5457104,0.01048 H 8.5960893 Z M 0.4238128,17.181131 C 0.29519828,17.141863 0.12286196,16.959811 0.086509,16.824814 0.06624013,16.749575 0.05892587,16.343554 0.06431149,15.597991 l 0.0080784,-1.11437 0.07712723,-0.116504 c 0.0918067,-0.138669 0.21136026,-0.217124 0.3662588,-0.240351 0.23646164,-0.03548 0.47174062,0.09047 0.56898388,0.304557 0.046531,0.102432 0.0508,0.20493 0.051356,1.232405 7.278e-4,1.10791 -1.092e-4,1.12208 -0.061593,1.243657 -0.11572908,0.228813 -0.40260815,0.349494 -0.65072894,0.273746 z M 0.37598991,12.584683 C 0.262386,12.533145 0.12286196,12.368356 0.0858831,12.242048 0.06525034,12.171617 0.05815441,11.784558 0.06390393,11.045941 0.07361989,9.7984557 0.07216432,9.8069272 0.30389897,9.6599579 0.51451325,9.5263871 0.84657335,9.5632786 1.0043758,9.7377801 1.1315565,9.8784213 1.136742,9.9315825 1.136742,11.094485 c 0,1.087102 -7.278e-4,1.102353 -0.0622,1.22258 -0.034206,0.06696 -0.10931724,0.159229 -0.16689974,0.205043 -0.0865921,0.06889 -0.13439679,0.08477 -0.2764499,0.09186 -0.10424093,0.0052 -0.20455909,-0.0063 -0.25520215,-0.02929 z M 20.252184,11.519236 c -0.139957,-0.06358 -0.250999,-0.193472 -0.290365,-0.339666 -0.01892,-0.0703 -0.027,-0.327125 -0.02147,-0.682959 0.01004,-0.6448412 0.02162,-0.6887887 0.21949,-0.832119 0.209486,-0.1517509 0.48114,-0.1388145 0.675899,0.032205 0.173421,0.1522639 0.177824,0.1738646 0.177824,0.872384 v 0.631679 l -0.07587,0.117006 c -0.143734,0.221673 -0.445689,0.310419 -0.685517,0.201484 z M 14.047003,10.683529 C 13.152062,10.582112 12.306642,9.972728 11.884257,9.124605 11.679115,8.7126994 11.602916,8.3638347 11.6065,7.8529319 11.6087,7.5636693 11.62266,7.44119 11.67884,7.2252265 c 0.230723,-0.8867138 0.848843,-1.6045156 1.66427,-1.9326602 0.379974,-0.152908 0.650507,-0.2021792 1.090928,-0.1986749 0.449739,0.00364 0.773277,0.076945 1.16876,0.2650382 0.734792,0.3494651 1.249887,0.9671234 1.503502,1.8028739 0.06917,0.2279247 0.07562,0.288251 0.07687,0.7187734 0.0011,0.4372617 -0.004,0.488083 -0.07639,0.7303124 -0.153279,0.5132136 -0.392364,0.9226047 -0.743343,1.2728376 -0.462225,0.4612421 -1.018189,0.7287331 -1.666774,0.8019381 -0.279605,0.03155 -0.354527,0.0313 -0.649663,-0.0022 z m 0.90695,-1.1653732 C 15.632502,9.2790378 16.072183,8.6888571 16.11215,7.9635118 16.13053,7.6300107 16.0878,7.4307026 15.928471,7.1065135 15.72973,6.7021551 15.352245,6.3722165 14.930256,6.2340243 c -0.270329,-0.088528 -0.78256,-0.096224 -1.021478,-0.015356 -0.570385,0.1930819 -0.961141,0.5799189 -1.148957,1.1374255 -0.06321,0.1876381 -0.07434,0.2676146 -0.07493,0.5382968 -7.28e-4,0.2739499 0.0096,0.3483043 0.07402,0.5376199 0.145637,0.4283063 0.440387,0.7717635 0.836205,0.9744049 0.190338,0.097443 0.270537,0.1260272 0.520997,0.1857021 0.03042,0.00724 0.185914,0.00957 0.345565,0.0052 0.22656,-0.00622 0.334611,-0.023617 0.492271,-0.079161 z M 4.7948578,10.613639 C 4.6286495,10.554743 4.4454437,10.381748 4.36816,10.210718 L 4.302106,10.064538 V 7.8924398 5.7203377 L 4.3853284,5.5576154 C 4.4835469,5.3655706 4.6425502,5.232906 4.8474222,5.1720666 c 0.2130269,-0.063263 4.2253603,-0.063263 4.4383872,0 0.2048502,0.060832 0.3638753,0.193504 0.4620938,0.3855197 l 0.083222,0.1626968 0.00764,1.8956777 c 0.0083,2.0540878 -0.00731,2.4655712 -0.1003618,2.6479802 -0.074642,0.146311 -0.27022,0.306031 -0.435737,0.355845 -0.1972266,0.05935 -4.3388987,0.05371 -4.5078217,-0.0061 z M 8.7600925,7.9013115 8.7672248,6.2080496 H 7.0668414 5.3664545 v 1.7003833 1.700387 l 1.6932619,-0.00713 1.693262,-0.00713 z M 0.376503,8.0143332 C 0.24820143,7.9466963 0.16657648,7.8631318 0.11083528,7.7423519 0.06400582,7.6408875 0.05975919,7.5428801 0.05934435,6.5536138 0.05904959,5.8502658 0.06949698,5.4370102 0.08943834,5.364872 0.14212284,5.1741699 0.39295463,4.9912006 0.60086518,4.9918193 0.81469992,4.992547 1.0533049,5.1650726 1.10691,5.3579216 1.130236,5.4418826 1.137186,5.7958274 1.131254,6.5971463 L 1.122924,7.7188408 1.0487225,7.8309163 C 0.91416657,8.0341508 0.58464645,8.1240653 0.376503,8.0143332 Z m 19.876827,0 C 20.125029,7.9466962 20.043404,7.8631318 19.987663,7.7423519 19.940833,7.6408875 19.936583,7.5428801 19.936173,6.5536138 19.935878,5.8504223 19.946323,5.4372103 19.966233,5.3654978 20.080409,4.95424 20.683282,4.871436 20.931097,5.2329715 l 0.06864,0.1001325 0.0078,1.1771555 0.0078,1.1771554 -0.08064,0.1271517 C 20.795914,8.0332411 20.470291,8.1287231 20.253316,8.0143332 Z M 0.49017969,3.4673819 C 0.33398569,3.4438744 0.18708188,3.3384399 0.1098746,3.1944727 0.06396216,3.1088668 0.05858381,3.0286355 0.05858381,2.4294376 c 0,-0.6382619 0.003275,-0.6796293 0.0695073,-0.8894249 0.16511303,-0.5226711 0.57930025,-0.90217559 1.10541019,-1.01283561 0.2389652,-0.0502646 1.4321101,-0.0582157 1.603322,-0.0106985 0.064919,0.0180127 0.1578352,0.0780188 0.2252756,0.14545915 0.1968882,0.1968882 0.2209088,0.44422663 0.066753,0.68730743 -0.135503,0.213671 -0.1870158,0.226178 -0.9968862,0.2420583 -0.6891998,0.0135 -0.7070269,0.01532 -0.7980185,0.080199 C 1.1612066,1.7947054 1.1381139,1.8937645 1.136742,2.5174125 1.1356503,2.9967221 1.1286636,3.0854612 1.0838537,3.1841054 0.98609012,3.3993921 0.75881679,3.5078323 0.49017969,3.4673674 Z M 20.375424,3.4720034 C 20.234171,3.4459486 20.086674,3.3466494 20.01283,3.2278891 19.952969,3.131621 19.94842,3.0906939 19.935411,2.5312441 19.926314,2.1401896 19.910121,1.9168936 19.888087,1.8784628 19.838728,1.792402 19.6672,1.6492681 19.596252,1.634938 19.5623,1.6280968 19.30101,1.6156516 19.015561,1.6072821 18.469004,1.5912708 18.399104,1.57606 18.274179,1.4458917 18.010913,1.1715961 18.08295,0.73899222 18.420741,0.56576436 c 0.09113,-0.0467348 0.166754,-0.0526008 0.678407,-0.0526008 0.641093,0 0.781614,0.0224158 1.085068,0.17321331 0.258597,0.12849079 0.546062,0.42220374 0.671518,0.68611754 0.147625,0.3105503 0.163294,0.4282116 0.153079,1.149354 l -0.0091,0.6402524 -0.08441,0.1042191 c -0.13575,0.1676093 -0.334953,0.2435029 -0.539916,0.205698 z M 5.1118709,1.5645901 C 4.8498057,1.4834783 4.6842051,1.1751695 4.7571621,0.90422168 4.7946322,0.76506883 4.9318965,0.60156784 5.0541174,0.55049903 5.1241633,0.52124199 5.3839577,0.513149 6.2546821,0.513149 H 7.3658564 L 7.4837251,0.5822269 C 7.6502646,0.67982678 7.7581117,0.90067736 7.7349099,1.0966013 7.7142043,1.271372 7.6309128,1.4079594 7.4868655,1.503325 L 7.3748482,1.577486 6.2807987,1.582616 C 5.6790717,1.585526 5.1530528,1.577336 5.1118709,1.564567 Z m 4.6559882,-0.00448 C 9.5730233,1.5039254 9.4021425,1.2528498 9.403387,1.024594 9.404477,0.84460139 9.5715459,0.60737558 9.743078,0.54256615 c 0.049959,-0.0188861 0.450227,-0.0294026 1.117812,-0.0294026 1.003283,0 1.044261,0.002183 1.161119,0.0586414 0.07297,0.0353341 0.150633,0.10321839 0.19533,0.17076066 0.06333,0.0956894 0.0742,0.14142356 0.0742,0.31200595 0,0.181339 -0.0078,0.2097336 -0.08454,0.3061144 -0.0465,0.05843 -0.139324,0.1342258 -0.206284,0.1684354 -0.119979,0.061302 -0.136402,0.062168 -1.131847,0.059708 -0.555553,-0.00146 -1.0510083,-0.014301 -1.1010109,-0.028711 z m 4.4392459,0.00451 c -0.368507,-0.1141797 -0.49408,-0.58161911 -0.235391,-0.87624547 0.153461,-0.17478532 0.156652,-0.17521472 1.305711,-0.17521472 0.964682,0 1.045987,0.003712 1.141247,0.0523497 0.190509,0.0972323 0.282261,0.25646122 0.282261,0.48984067 0,0.1941845 -0.08895,0.362598 -0.241651,0.4575415 -0.103662,0.064449 -0.106413,0.064617 -1.140602,0.069773 -0.570181,0.00291 -1.070389,-0.00528 -1.111575,-0.018049 z"
       id="path1" /></g></svg>
