<?xml version="1.0" encoding="UTF-8" standalone="no"?>
<!-- Created with Inkscape (http://www.inkscape.org/) -->

<svg
   width="24"
   height="24"
   viewBox="0 0 24 24"
   version="1.1"
   id="svg1"
   xml:space="preserve"
   inkscape:version="1.4.3 (0d15f75, 2025-12-25)"
   sodipodi:docname="properties.svg"
   xmlns:inkscape="http://www.inkscape.org/namespaces/inkscape"
   xmlns:sodipodi="http://sodipodi.sourceforge.net/DTD/sodipodi-0.dtd"
   xmlns="http://www.w3.org/2000/svg"
   xmlns:svg="http://www.w3.org/2000/svg"><sodipodi:namedview
     id="namedview1"
     pagecolor="#ffffff"
     bordercolor="#000000"
     borderopacity="0.25"
     inkscape:showpageshadow="2"
     inkscape:pageopacity="0.0"
     inkscape:pagecheckerboard="0"
     inkscape:deskcolor="#d1d1d1"
     inkscape:document-units="px"
     inkscape:zoom="12.57353"
     inkscape:cx="-8.1122803"
     inkscape:cy="6.9192979"
     inkscape:window-width="1920"
     inkscape:window-height="1010"
     inkscape:window-x="1913"
     inkscape:window-y="-6"
     inkscape:window-maximized="1"
     inkscape:current-layer="layer1" /><defs
     id="defs1" /><g
     inkscape:label="Vrstva 1"
     inkscape:groupmode="layer"
     id="layer1"><path
       style="fill:#000000;stroke-width:0.0266603"
       d="M 4.0498567,23.863403 C 3.9398829,23.83508 3.7359632,23.755754 3.5967002,23.687149 3.1262077,23.455371 2.7570264,22.999892 2.616794,22.47821 2.5728406,22.314691 2.5702076,21.724781 2.5702076,12.014057 c 0,-9.7587164 0.00241,-10.3003818 0.047195,-10.4748108 C 2.7917989,0.85955237 3.3513824,0.31558958 4.0599492,0.1369646 4.266184,0.08493383 4.3725282,0.08398973 9.9142476,0.08336033 c 5.5614744,-6.6088e-4 5.6467544,1.049e-4 5.8151694,0.05234546 0.342944,0.10649523 0.450287,0.19506293 1.389799,1.14669101 0.485431,0.4916907 1.58701,1.6018133 2.447953,2.4669402 1.553021,1.5605663 1.56622,1.5747489 1.675779,1.7995722 0.206389,0.4235367 0.190794,-0.3198319 0.183031,8.7242898 l -0.0069,8.11167 -0.06225,0.186619 c -0.219183,0.657129 -0.723202,1.122133 -1.401668,1.293184 -0.20834,0.05256 -0.304221,0.05318 -7.958089,0.05172 -7.5677432,-10e-4 -7.7518409,-0.0031 -7.9471608,-0.05297 z M 19.820577,22.624274 c 0.152001,-0.09399 0.291715,-0.265703 0.330866,-0.40668 0.0187,-0.06735 0.02763,-2.601223 0.02773,-7.876493 l 1.49e-4,-7.7771933 -2.046176,-0.00734 -2.046176,-0.00734 -0.204358,-0.069759 C 15.495636,6.3473611 15.184805,6.0868926 15.015563,5.7528991 14.850541,5.4272558 14.861793,5.5887924 14.847263,3.3366679 L 14.83393,1.270501 H 9.6085175 c -4.9032536,0 -5.2317209,0.00315 -5.3277397,0.046261 -0.1744132,0.078885 -0.304273,0.2014724 -0.3828111,0.3614146 l -0.074731,0.152169 V 12.014571 c 0,9.877852 0.00147,10.187026 0.049597,10.277534 0.098198,0.184762 0.286422,0.345606 0.4701095,0.401749 0.036757,0.01122 3.5049393,0.01836 7.7070818,0.01595 l 7.64026,-0.0042 z M 11.43475,20.006832 C 10.982035,19.957844 10.279419,19.780341 9.8739699,19.61251 8.7034224,19.127953 7.7735759,18.366048 7.1080258,17.346109 6.2884028,16.090059 5.9719414,14.553158 6.2351793,13.107123 6.5797289,11.214419 7.7720496,9.6194775 9.4555177,8.7993425 11.215066,7.9421461 13.261727,8.002013 14.947528,8.959998 c 0.596597,0.3390287 1.280392,0.9183535 1.685245,1.427783 0.934724,1.176157 1.408398,2.67392 1.30651,4.131211 -0.08349,1.19418 -0.555604,2.401409 -1.298482,3.320329 -0.215632,0.266731 -0.740997,0.775688 -1.014514,0.982825 -0.820073,0.621055 -1.77637,1.016121 -2.818533,1.164409 -0.244456,0.03483 -1.119492,0.04773 -1.373004,0.02025 z m 2.211001,-1.926649 c 0.465248,-0.237348 0.463803,-0.96494 -0.0024,-1.20277 -0.07367,-0.03756 -0.15585,-0.05119 -0.309337,-0.05119 -0.127018,0 -0.221563,-0.01259 -0.241006,-0.032 -0.02422,-0.02423 -0.03213,-0.456549 -0.03258,-1.779567 -6.59e-4,-1.968106 0.0098,-1.863971 -0.205819,-2.058321 -0.166109,-0.149756 -0.262556,-0.161211 -1.273241,-0.151204 -0.840979,0.0084 -0.884494,0.01122 -0.98643,0.06609 -0.206671,0.111226 -0.308347,0.279875 -0.326913,0.542253 -0.0161,0.227603 0.02757,0.378429 0.148391,0.51244 0.141883,0.157361 0.267387,0.206308 0.530832,0.207011 0.188893,5.03e-4 0.222804,0.0073 0.246608,0.05214 0.04311,0.08056 0.03763,2.578156 -0.0058,2.606217 -0.01833,0.01185 -0.149647,0.0278 -0.291818,0.03546 -0.232892,0.01259 -0.269856,0.02192 -0.373243,0.09452 -0.06311,0.04427 -0.144744,0.134021 -0.181403,0.199353 -0.05736,0.102278 -0.06665,0.152242 -0.06665,0.358729 0,0.212382 0.0082,0.253944 0.07163,0.361792 0.06464,0.109957 0.209619,0.235618 0.314945,0.272983 0.022,0.0073 0.679314,0.01511 1.460711,0.01626 1.362058,0.0021 1.424963,-5.3e-5 1.523436,-0.05035 z m -1.19791,-6.171467 c 0.447425,-0.160142 0.744651,-0.61689 0.713841,-1.096958 -0.02455,-0.382457 -0.276344,-0.745781 -0.633861,-0.9146083 -0.130163,-0.061472 -0.179567,-0.069234 -0.439894,-0.069234 -0.274801,0 -0.304634,0.00525 -0.473893,0.085599 -0.436054,0.2065493 -0.692797,0.6903403 -0.608667,1.1469313 0.07815,0.424156 0.377699,0.76074 0.776613,0.872638 0.176408,0.04951 0.491818,0.03797 0.665861,-0.02434 z m 6.93167,-6.564657 c 0,-0.02612 -3.259711,-3.2876102 -3.285828,-3.2876102 -0.01194,0 -0.01833,0.6949569 -0.01421,1.5443592 0.0073,1.5204313 0.0084,1.5455341 0.06338,1.619615 0.107119,0.1442175 0.0692,0.141081 1.710352,0.1415006 0.839465,2.203e-4 1.526301,-0.00734 1.526301,-0.017833 z"
       id="path1" /></g></svg>
