<?xml version="1.0" encoding="UTF-8" standalone="no"?>
<!-- Created with Inkscape (http://www.inkscape.org/) -->

<svg
   width="24"
   height="24"
   viewBox="0 0 24 24"
   version="1.1"
   id="svg1"
   xml:space="preserve"
   inkscape:version="1.4.3 (0d15f75, 2025-12-25)"
   sodipodi:docname="regroup-reverse.svg"
   xmlns:inkscape="http://www.inkscape.org/namespaces/inkscape"
   xmlns:sodipodi="http://sodipodi.sourceforge.net/DTD/sodipodi-0.dtd"
   xmlns="http://www.w3.org/2000/svg"
   xmlns:svg="http://www.w3.org/2000/svg"><sodipodi:namedview
     id="namedview1"
     pagecolor="#ffffff"
     bordercolor="#000000"
     borderopacity="0.25"
     inkscape:showpageshadow="2"
     inkscape:pageopacity="0.0"
     inkscape:pagecheckerboard="0"
     inkscape:deskcolor="#d1d1d1"
     inkscape:document-units="px"
     inkscape:zoom="20.118834"
     inkscape:cx="24.653516"
     inkscape:cy="20.080687"
     inkscape:window-width="1920"
     inkscape:window-height="1010"
     inkscape:window-x="1913"
     inkscape:window-y="-6"
     inkscape:window-maximized="1"
     inkscape:current-layer="layer1" /><defs
     id="defs1" /><g
     inkscape:label="Vrstva 1"
     inkscape:groupmode="layer"
     id="layer1"><path
       style="fill:#000000;stroke-width:0.0231913"
       d="M 11.583933,21.731688 C 10.111945,21.52984 8.8757647,20.504951 8.4093595,19.099712 8.2376322,18.582327 8.1771348,18.109938 8.2193398,17.616053 c 0.1218103,-1.425366 0.9125865,-2.612008 2.1470492,-3.221865 0.61522,-0.303934 1.199965,-0.428908 1.878498,-0.401477 1.597956,0.0646 2.993561,1.119341 3.502642,2.647151 0.15592,0.467925 0.184322,0.660643 0.183094,1.242306 -9.71e-4,0.480743 -0.006,0.543405 -0.06351,0.796286 -0.08603,0.378359 -0.157701,0.580207 -0.330753,0.931471 -0.194558,0.394914 -0.401846,0.681837 -0.728828,1.008823 -0.546927,0.546923 -1.184657,0.896648 -1.924885,1.055582 -0.24168,0.05189 -0.361243,0.06355 -0.718932,0.07014 -0.235972,0.0044 -0.496875,-0.0015 -0.579785,-0.01277 z M 10.78429,19.224372 c 0.129881,-0.119724 0.171703,-0.237273 0.11933,-0.335414 -0.0198,-0.03713 -0.124271,-0.177123 -0.232109,-0.311052 l -0.196066,-0.243509 1.589963,-0.006 c 0.874483,-0.0034 1.594774,-9.71e-4 1.600651,0.0048 0.01164,0.01164 -0.07547,0.12798 -0.268597,0.358515 -0.06845,0.08171 -0.134821,0.175635 -0.147484,0.208724 -0.03607,0.09425 0.01272,0.215098 0.130833,0.323964 0.188612,0.173857 0.163155,0.189389 0.899672,-0.548854 0.65772,-0.659265 0.677779,-0.685046 0.618772,-0.7953 -0.01335,-0.0249 -0.302492,-0.321648 -0.642584,-0.659429 -0.578061,-0.574137 -0.623766,-0.614148 -0.701463,-0.614148 -0.06744,0 -0.101014,0.01859 -0.178004,0.09856 -0.121489,0.126203 -0.154604,0.192306 -0.137981,0.275434 0.0074,0.03679 0.1132,0.189423 0.235219,0.339237 l 0.221843,0.272402 -0.799371,0.0061 c -0.439654,0.0034 -1.164846,0.0034 -1.611542,0 l -0.812174,-0.0061 0.220047,-0.274358 c 0.121024,-0.150896 0.225881,-0.303555 0.23302,-0.339242 0.01621,-0.08118 -0.01757,-0.147974 -0.138374,-0.273473 -0.07974,-0.08284 -0.109289,-0.09856 -0.18521,-0.09856 -0.08708,0 -0.112288,0.0218 -0.7006248,0.605222 -0.3356647,0.332869 -0.623252,0.636492 -0.6390886,0.674717 -0.019123,0.04611 -0.021695,0.08806 -0.00767,0.124664 0.0116,0.03033 0.3011475,0.337223 0.6434226,0.681973 0.5739468,0.578092 0.6285128,0.626815 0.7020568,0.626815 0.0612,0 0.103871,-0.02223 0.183521,-0.09566 z m 8.91662,-1.055747 c -0.243795,-0.09849 -0.648169,-0.274372 -2.574239,-1.119734 -0.10842,-0.04761 -0.279055,-0.121946 -0.379185,-0.165238 -0.220368,-0.09528 -0.293373,-0.171878 -0.293348,-0.307783 2.4e-5,-0.121062 0.110171,-0.360528 0.197401,-0.42914 0.102926,-0.08097 0.188292,-0.06388 0.607969,0.121693 0.455272,0.201309 2.017809,0.887219 2.375091,1.042599 0.135724,0.05902 0.262412,0.107319 0.281525,0.107319 0.07496,0 0.135108,-0.09663 0.303128,-0.487018 0.09607,-0.223217 0.24147,-0.557173 0.323108,-0.742126 0.08165,-0.184953 0.297678,-0.675451 0.480073,-1.089992 0.1824,-0.414547 0.511445,-1.160731 0.731216,-1.658183 0.219766,-0.497457 0.490691,-1.113186 0.602056,-1.36829 0.188254,-0.431247 0.282196,-0.646242 0.660906,-1.512518 0.07928,-0.181366 0.140219,-0.341566 0.135409,-0.356 -0.0049,-0.01441 -0.342353,-0.171325 -0.750096,-0.3486431 C 21.584765,9.5001966 21.524316,9.4607628 21.46347,9.2434476 21.41065,9.0548016 21.440561,8.9572098 21.811733,8.106834 22.004724,7.6646859 22.157829,7.2907764 22.151961,7.2759251 22.146088,7.2610738 22.022696,7.1982127 21.877744,7.1362253 21.732794,7.0742379 20.922269,6.7211689 20.076577,6.3516323 18.634889,5.7216584 18.535724,5.6818606 18.487137,5.713694 18.450107,5.737961 18.324277,6.0145406 18.04582,6.6838172 17.831596,7.1987126 17.518887,7.9420519 17.350911,8.3356807 l -0.305412,0.7156896 -0.0116,-0.8548361 -0.0116,-0.8548409 0.354257,-0.8696728 C 17.571395,5.9936953 17.758644,5.5351623 17.792661,5.4530479 17.92445,5.1349135 18.2384,4.9115705 18.552929,4.9122014 c 0.16533,3.349e-4 -0.04436,-0.084992 2.179984,0.8869558 0.956646,0.4180073 1.826794,0.7975904 1.933665,0.8435131 0.36201,0.1555606 0.423308,0.2323751 0.568308,0.712132 0.08662,0.2865874 0.431213,1.412975 0.670014,2.1900696 0.05445,0.1771922 0.07122,0.2756964 0.07107,0.4174443 l -1.71e-4,0.1855298 -0.442143,1.008825 c -0.243179,0.554853 -0.726081,1.655862 -1.073122,2.446692 -0.347036,0.790825 -0.696635,1.589187 -0.77688,1.774135 -0.166948,0.384776 -0.474909,1.084012 -0.832234,1.889621 -0.212423,0.478903 -0.261918,0.571621 -0.35651,0.667787 -0.165045,0.167791 -0.317393,0.233413 -0.560203,0.241304 -0.109453,0.0034 -0.214655,1.42e-4 -0.233787,-0.0076 z M 22.911506,8.6584938 C 22.80044,8.2914033 22.704533,7.967571 22.698378,7.9388729 c -0.0062,-0.028684 -0.01893,-0.052183 -0.02834,-0.052183 -0.0094,0 -0.06534,0.1121908 -0.124194,0.2493086 -0.05886,0.1371178 -0.16504,0.3785542 -0.235967,0.536527 -0.07092,0.1579679 -0.125935,0.2902323 -0.122246,0.293916 0.03204,0.032033 0.912624,0.3973513 0.918337,0.3809808 0.0044,-0.011794 -0.08337,-0.3218376 -0.194436,-0.6889279 z M 4.3234031,18.130176 C 4.1656779,18.085525 4.0202803,17.991636 3.8927042,17.852044 3.7899775,17.739643 3.7599788,17.677909 3.5852328,17.21925 3.478735,16.939714 3.3032415,16.481409 3.1952489,16.200791 2.871931,15.360676 2.4380726,14.223824 1.8322539,12.629323 1.5172451,11.800234 1.0766598,10.641824 0.85317123,10.055084 0.62968751,9.4683438 0.3517003,8.7378126 0.23543265,8.4316903 L 0.024029,7.8750947 0.02435418,7.6431806 C 0.02480069,7.3255315 0.0793964,7.1881371 0.28762108,6.9806501 0.43710042,6.8317047 0.45024338,6.8244197 0.88112187,6.6517218 2.4513175,6.0223691 4.071595,5.3657258 4.6543407,5.1225567 l 0.6795222,-0.2835443 0.1855303,9.708e-4 c 0.1378797,9.706e-4 0.2123355,0.013541 0.2898926,0.049597 0.057401,0.026693 0.4591882,0.2561324 0.8928671,0.5098623 l 0.7885048,0.4613287 0.00611,0.7818363 0.00611,0.7818314 -0.1452569,0.065064 C 7.2777447,7.5252725 7.0178995,7.634493 6.7802002,7.7321819 6.2821314,7.9368782 6.1992065,7.9493174 5.9987375,7.8494202 5.9321006,7.8162231 5.8508112,7.7539542 5.8180995,7.71106 5.7833493,7.6655353 5.6231391,7.2588218 5.4330224,6.7336275 5.2539471,6.238927 5.0990708,5.8249529 5.0888544,5.8136882 5.0783711,5.8021372 5.006512,5.8191725 4.9237812,5.8529035 4.8432102,5.8857609 4.6207456,5.9769657 4.4294156,6.0556196 3.8949417,6.2753468 3.0490843,6.617423 1.89263,7.0815374 1.0837943,7.4061413 0.8316659,7.5167597 0.803691,7.5592947 c -0.0338281,0.051446 -0.0319838,0.068102 0.0259171,0.2360492 0.0546588,0.1584822 0.4292526,1.1510768 0.9796747,2.5959241 0.094753,0.248726 0.3665955,0.9636 0.6040909,1.588604 0.5918603,1.557582 1.0999804,2.884206 1.4656391,3.826578 0.069292,0.17857 0.2249738,0.585579 0.3459637,0.904462 0.12099,0.318881 0.2338167,0.594131 0.2507258,0.611671 0.01689,0.01752 0.056435,0.03189 0.087836,0.03189 0.031401,0 0.6924128,-0.269237 1.4689201,-0.598301 1.0979662,-0.465289 1.4346308,-0.598694 1.5143574,-0.600077 l 0.1025228,-0.0019 0.091175,0.175479 c 0.099936,0.192336 0.1310802,0.354511 0.088041,0.458422 -0.024461,0.05901 -0.090569,0.09279 -0.5885551,0.300677 -0.3085587,0.128808 -0.8219205,0.34476 -1.1408023,0.479893 -1.3247017,0.561376 -1.3381311,0.56653 -1.5092273,0.579309 -0.098052,0.0073 -0.2018134,3.1e-4 -0.2665527,-0.01801 z M 7.1134674,6.7770265 C 7.2631554,6.7176938 7.385781,6.6632924 7.3859655,6.6561384 7.3861499,6.6490039 7.237583,6.5588475 7.0558238,6.4558247 6.8740597,6.3528068 6.5348859,6.1582056 6.3021031,6.0233738 6.0693203,5.8885419 5.878859,5.7815103 5.878859,5.7855143 c 0,0.014366 0.4410415,1.2713679 0.4526896,1.2902184 0.00655,0.010581 0.1239214,-0.028004 0.2608304,-0.085783 0.1369091,-0.057775 0.3713956,-0.1535901 0.5210884,-0.2129232 z m 1.275139,8.4118445 C 8.227178,15.126839 8.0082565,14.923551 7.9343541,14.767059 7.9031468,14.701009 7.8662319,14.585047 7.8522882,14.509363 7.8182175,14.324536 7.8163246,3.1948076 7.8503469,3.0155722 7.9265498,2.6137606 8.211623,2.334031 8.6062855,2.2738102 8.7193256,2.2565807 9.5781123,2.2509023 11.342866,2.2557071 l 2.571841,0.00704 0.135905,0.066729 c 0.157181,0.077179 0.185006,0.1034644 0.862227,0.8145432 0.279405,0.2933677 0.608493,0.6377589 0.731308,0.7653155 0.523297,0.5434769 0.865951,0.9187405 0.916852,1.0041067 0.131571,0.2206299 0.125077,-0.034895 0.125077,4.9229901 0,2.9847814 -0.0081,4.6038224 -0.02354,4.6855764 -0.05134,0.272726 -0.238276,0.520069 -0.484421,0.640947 -0.106386,0.05225 -0.16783,0.06519 -0.340304,0.07166 -0.209308,0.0078 -0.21071,0.0075 -0.253342,-0.05798 -0.02359,-0.03626 -0.167583,-0.193252 -0.320008,-0.348939 -0.188937,-0.192985 -0.27276,-0.294464 -0.263388,-0.318882 0.01164,-0.03043 0.07523,-0.03581 0.421376,-0.03581 0.40187,0 0.408436,-9.7e-4 0.464556,-0.05693 l 0.05693,-0.05692 V 9.999202 5.6392625 l -1.061011,-0.00689 c -0.983019,-0.00636 -1.066968,-0.010047 -1.142171,-0.050116 -0.113608,-0.060512 -0.204459,-0.1497123 -0.263029,-0.2582581 -0.04897,-0.090753 -0.0502,-0.1165055 -0.05672,-1.1885547 l -0.0066,-1.095792 h -2.36576 -2.3657139 l -0.056925,0.056925 -0.05692,0.05692 v 5.5986374 5.5986389 l 0.048049,0.06111 c 0.04766,0.06059 0.050679,0.06111 0.3594658,0.06111 0.2858255,0 0.3114028,0.0034 0.3114028,0.04227 0,0.02325 -0.067146,0.101586 -0.1492173,0.174081 -0.082065,0.0725 -0.2294873,0.225678 -0.3275985,0.340397 -0.2001831,0.234056 -0.2139716,0.239243 -0.4225699,0.159085 z M 15.526467,4.8572903 c 0,-0.00801 -0.07649,-0.094083 -0.169965,-0.1913253 C 15.263018,4.5687222 14.958679,4.2517385 14.680187,3.9615547 14.40169,3.671371 14.17031,3.4339532 14.166005,3.4339532 c -0.0044,0 -0.0078,0.3235168 -0.0078,0.7189316 v 0.7189316 h 0.684142 c 0.376279,0 0.684147,-0.00655 0.684147,-0.014512 z"
       id="path1" /></g></svg>
