<?xml version="1.0" encoding="UTF-8" standalone="no"?>
<svg
   xmlns:dc="http://purl.org/dc/elements/1.1/"
   xmlns:cc="http://creativecommons.org/ns#"
   xmlns:rdf="http://www.w3.org/1999/02/22-rdf-syntax-ns#"
   xmlns:svg="http://www.w3.org/2000/svg"
   xmlns="http://www.w3.org/2000/svg"
   xmlns:sodipodi="http://sodipodi.sourceforge.net/DTD/sodipodi-0.dtd"
   xmlns:inkscape="http://www.inkscape.org/namespaces/inkscape"
   width="24"
   height="24"
   viewBox="0 0 24 24"
   version="1.1"
   id="svg12"
   sodipodi:docname="regroup-reverse.svg"
   inkscape:version="0.92.4 (5da689c313, 2019-01-14)">
  <metadata
     id="metadata18">
    <rdf:RDF>
      <cc:Work
         rdf:about="">
        <dc:format>image/svg+xml</dc:format>
        <dc:type
           rdf:resource="http://purl.org/dc/dcmitype/StillImage" />
      </cc:Work>
    </rdf:RDF>
  </metadata>
  <defs
     id="defs16" />
  <sodipodi:namedview
     pagecolor="#ffffff"
     bordercolor="#666666"
     borderopacity="1"
     objecttolerance="10"
     gridtolerance="10"
     guidetolerance="10"
     inkscape:pageopacity="0"
     inkscape:pageshadow="2"
     inkscape:window-width="3840"
     inkscape:window-height="2035"
     id="namedview14"
     showgrid="false"
     inkscape:zoom="75.52"
     inkscape:cx="16.066795"
     inkscape:cy="14.361849"
     inkscape:window-x="-13"
     inkscape:window-y="-13"
     inkscape:window-maximized="1"
     inkscape:current-layer="svg12" />
  <!-- Základní stránky -->
  <!-- Šipka obrácení -->
  <rect
     style="fill:none;stroke:#000000;stroke-width:0.40000001"
     x="10.29036"
     y="5.7347455"
     width="8"
     height="12"
     id="rect2" />
  <rect
     style="fill:none;stroke:#000000;stroke-width:0.40000001"
     x="11.29036"
     y="6.7347455"
     width="8"
     height="12"
     id="rect4" />
  <path
     style="fill:#000000;stroke-width:0.2"
     inkscape:connector-curvature="0"
     d="m 7.0652542,15.734746 q -2,-4 0,-8.0000003 h -1 l 2,-3 1.9999998,3 H 9.0652542 q -2,4.0000003 0,8.0000003 z"
     id="path6" />
  <g
     id="g10">
    <path
       d="m 22.077,17.182 c 0.128,-0.621 0.193,-1.346 0.203,-2.216 V 9.031 C 22.268,8.141 22.204,7.438 22.076,6.821 21.824,5.428 21.317,4.36 20.526,3.55 19.936,2.931 19.137,2.458 18.149,2.145 17.244,1.864 16.128,1.72 14.838,1.72 l -5.68,0.002 c -5.146,0 -7.439,2.293 -7.439,7.438 v 5.689 c 0,5.14 2.295,7.431 7.439,7.431 h 5.681 c 1.291,0 2.403,-0.146 3.312,-0.425 0.98,-0.307 1.762,-0.764 2.379,-1.397 0.785,-0.808 1.291,-1.878 1.547,-3.276 z m -3.857,2.952 c -0.643,0.284 -1.443,0.446 -2.451,0.496 -0.304,0.021 -0.604,0.031 -0.927,0.031 H 9.161 c -4.354,0 -5.821,-1.466 -5.821,-5.812 v -5.69 c 0,-4.323 1.439,-5.79 5.714,-5.811 l 0.108,-0.02 h 5.68 c 0.33,0 0.646,0.011 0.938,0.03 1.016,0.062 1.818,0.228 2.453,0.509 1.193,0.507 1.901,1.432 2.228,2.911 0.131,0.631 0.196,1.367 0.205,2.252 v 5.937 c -0.009,0.889 -0.074,1.624 -0.205,2.254 -0.326,1.481 -1.038,2.407 -2.241,2.913 z"
       id="path8"
       inkscape:connector-curvature="0"
       style="fill:#292d32" />
  </g>
</svg>
