<?xml version="1.0" encoding="UTF-8" standalone="no"?>
<!-- Created with Inkscape (http://www.inkscape.org/) -->

<svg
   width="24"
   height="24"
   viewBox="0 0 24 24"
   version="1.1"
   id="svg1"
   xml:space="preserve"
   inkscape:version="1.4.3 (0d15f75, 2025-12-25)"
   sodipodi:docname="regroup-even-odd.svg"
   xmlns:inkscape="http://www.inkscape.org/namespaces/inkscape"
   xmlns:sodipodi="http://sodipodi.sourceforge.net/DTD/sodipodi-0.dtd"
   xmlns="http://www.w3.org/2000/svg"
   xmlns:svg="http://www.w3.org/2000/svg"><sodipodi:namedview
     id="namedview1"
     pagecolor="#ffffff"
     bordercolor="#000000"
     borderopacity="0.25"
     inkscape:showpageshadow="2"
     inkscape:pageopacity="0.0"
     inkscape:pagecheckerboard="0"
     inkscape:deskcolor="#d1d1d1"
     inkscape:document-units="px"
     inkscape:zoom="17.145615"
     inkscape:cx="22.862988"
     inkscape:cy="18.547016"
     inkscape:window-width="1920"
     inkscape:window-height="1010"
     inkscape:window-x="1913"
     inkscape:window-y="-6"
     inkscape:window-maximized="1"
     inkscape:current-layer="layer1" /><defs
     id="defs1" /><g
     inkscape:label="Vrstva 1"
     inkscape:groupmode="layer"
     id="layer1"><path
       style="fill:#000000;stroke-width:0.0237166"
       d="M 11.614619,21.638222 C 10.760205,21.49929 10.031653,21.126001 9.4164628,20.511947 8.761155,19.857851 8.3843429,19.036991 8.2988129,18.077213 8.2281459,17.284254 8.4423176,16.40841 8.8778505,15.709234 c 0.4842059,-0.777304 1.2467405,-1.377668 2.1045245,-1.65693 0.781544,-0.254441 1.61447,-0.258933 2.371657,-0.01278 1.259297,0.409371 2.251091,1.451992 2.594109,2.727044 0.316286,1.175698 0.04617,2.488416 -0.704816,3.425106 -0.571692,0.71307 -1.392911,1.218743 -2.297651,1.414799 -0.294397,0.06379 -1.026596,0.08126 -1.331055,0.03175 z m 0.409563,-2.066385 c 0.04121,-0.05238 0.04914,-0.09599 0.04914,-0.269543 0,-0.173184 -0.008,-0.217219 -0.04888,-0.269189 l -0.04888,-0.06214 -0.695952,-0.0063 -0.695957,-0.0063 0.437922,-0.462472 c 0.532655,-0.562516 0.739413,-0.813717 0.84916,-1.031671 0.25864,-0.513666 0.193435,-1.091352 -0.163475,-1.448262 -0.220416,-0.220417 -0.492615,-0.322604 -0.857345,-0.321853 -0.422115,10e-4 -0.694476,0.09822 -0.9360363,0.334587 -0.2345959,0.229557 -0.3873449,0.619619 -0.2828256,0.722235 0.01925,0.01894 0.1272282,0.05866 0.2399119,0.08833 0.256721,0.06758 0.304475,0.05175 0.385159,-0.127573 0.105813,-0.23519 0.284641,-0.35066 0.541669,-0.349762 0.344677,0.001 0.538341,0.21268 0.510651,0.557622 -0.02426,0.302483 -0.115898,0.432058 -0.875704,1.238487 -0.279544,0.296698 -0.5797418,0.617669 -0.6671029,0.713267 l -0.1588423,0.173815 v 0.241878 c 0,0.180533 0.00939,0.255246 0.036935,0.294588 l 0.036935,0.05271 h 1.1471882 1.147193 z m 1.068043,0.01058 c 0.04669,-0.05012 0.04836,-0.07955 0.04836,-0.85817 0,-0.765419 0.0026,-0.811369 0.04883,-0.907109 0.06771,-0.139873 0.208898,-0.260054 0.357254,-0.30411 0.156093,-0.04638 0.176866,-0.0458 0.295367,0.008 0.06714,0.03052 0.110607,0.07199 0.142299,0.135852 0.04215,0.08496 0.04622,0.160459 0.05332,0.993176 0.0067,0.78104 0.01268,0.906764 0.04518,0.942733 0.03125,0.03459 0.07963,0.04151 0.290562,0.04151 0.236448,0 0.256585,-0.0038 0.306531,-0.0569 l 0.05346,-0.0569 -0.01002,-0.956985 c -0.0081,-0.771361 -0.01711,-0.980666 -0.04653,-1.079113 -0.128016,-0.427812 -0.402103,-0.632797 -0.848461,-0.63455 -0.241847,-0.001 -0.390762,0.04434 -0.578751,0.176032 l -0.132747,0.09299 v -0.06295 c 0,-0.03464 -0.02321,-0.08765 -0.05154,-0.117848 -0.04711,-0.05013 -0.07168,-0.05489 -0.284599,-0.05489 -0.362502,0 -0.327899,-0.145169 -0.327899,1.37556 0,1.524874 -0.03725,1.375564 0.342965,1.375564 0.224684,0 0.252662,-0.0049 0.296457,-0.05191 z m 6.641571,-1.891876 c -0.187859,-0.05913 -3.211464,-1.370139 -3.220166,-1.396239 -0.0081,-0.02426 0.221001,-0.591208 0.253022,-0.626125 0.0088,-0.0095 0.682592,0.268579 1.497446,0.618034 1.86131,0.798223 1.669054,0.723288 1.727154,0.673233 0.02598,-0.02238 0.161508,-0.296812 0.301204,-0.60987 0.139697,-0.313057 0.419037,-0.937397 0.620752,-1.387422 0.201714,-0.45002 0.428923,-0.956961 0.504906,-1.126535 0.07598,-0.169573 0.364495,-0.809924 0.641144,-1.422996 0.513363,-1.137646 1.11344,-2.4795419 1.11344,-2.4898817 0,-0.00876 -0.214636,-0.1017544 -0.877514,-0.3802552 C 21.644692,9.2691844 21.566241,9.219828 21.497916,9.040927 c -0.06524,-0.1708358 -0.03746,-0.2817144 0.198182,-0.7905647 0.384716,-0.8307969 0.504223,-1.0959374 0.504223,-1.1186828 0,-0.026032 0.0087,-0.022172 -0.889377,-0.395311 C 20.932666,6.5792006 20.367026,6.3425545 20.053968,6.2104902 18.848592,5.702 18.565261,5.5905735 18.511793,5.6039965 c -0.04116,0.010329 -0.07679,0.072003 -0.162061,0.2803423 -0.06012,0.1469114 -0.283822,0.6940063 -0.497102,1.2157734 -0.213285,0.5217619 -0.477596,1.1653266 -0.587369,1.4301332 l -0.199585,0.4814775 -0.0062,-0.8953031 -0.0062,-0.8952979 0.330914,-0.8194346 c 0.182005,-0.4506929 0.359445,-0.8916722 0.394309,-0.9799567 0.08426,-0.2133477 0.230705,-0.3737915 0.431355,-0.4725671 0.135256,-0.066588 0.181493,-0.077178 0.336413,-0.077058 0.204875,1.565e-4 -0.03594,-0.093235 2.337815,0.9066966 0.74352,0.3132033 1.495057,0.6293383 1.670092,0.7025253 0.479751,0.2005926 0.541675,0.2629704 0.661375,0.6662162 0.03871,0.1304418 0.182563,0.6000301 0.319657,1.043529 0.361318,1.1689158 0.36823,1.1936488 0.38434,1.3755651 0.02702,0.3052163 -0.0094,0.4546163 -0.231659,0.9493553 -0.111155,0.247455 -0.292941,0.652699 -0.403971,0.900535 -0.11103,0.247842 -0.29988,0.669404 -0.419669,0.936808 -0.119789,0.267405 -0.39157,0.870398 -0.603953,1.339987 -0.212388,0.469588 -0.548534,1.21666 -0.746993,1.660159 -0.198459,0.443499 -0.411943,0.918424 -0.474409,1.055387 -0.06247,0.136963 -0.181228,0.403778 -0.263915,0.592914 -0.130817,0.299243 -0.167585,0.360984 -0.283201,0.475541 -0.105729,0.104754 -0.165321,0.1423 -0.291746,0.183805 -0.159385,0.05232 -0.354338,0.06462 -0.466198,0.02942 z m 3.415186,-8.5345306 c 0,-0.02791 -0.444767,-1.4531864 -0.457417,-1.4658372 -0.01163,-0.011634 -0.05154,0.069066 -0.329089,0.6651936 -0.140787,0.3024148 -0.179459,0.4062716 -0.15674,0.4209361 0.01659,0.010695 0.114515,0.054166 0.217621,0.096579 0.1031,0.042413 0.300542,0.1268318 0.438756,0.1875923 0.27186,0.1195177 0.286869,0.1245154 0.286869,0.095536 z M 4.4214355,17.662845 C 4.173641,17.632587 3.8970443,17.412494 3.8089371,17.175504 3.7275388,16.956558 1.7802293,11.995352 1.1994128,10.527157 0.58441035,8.9725445 0.47008859,8.6890981 0.33424738,8.3821342 0.13022732,7.9210962 0.072743,7.7392738 0.072743,7.5549734 0.072743,7.2556052 0.22017081,6.9526009 0.44065519,6.798819 0.54503366,6.7260128 0.63724125,6.6880082 3.4285515,5.5672543 4.4981178,5.1378043 5.411998,4.7802371 5.4593982,4.772657 5.6306617,4.745269 5.7638424,4.800932 6.4851639,5.201361 6.8742148,5.417338 7.2661557,5.632736 7.3561409,5.6800214 l 0.1636105,0.085979 v 0.3765252 c 0,0.2070928 -0.00949,0.3765304 -0.02118,0.3765304 -0.011634,0 -0.1050201,-0.046326 -0.2075206,-0.1029803 C 6.5619453,6.0131999 5.9775762,5.7053596 5.9652696,5.7176661 c -0.00923,0.00923 0.3867607,1.2306049 0.4048214,1.2486655 0.00626,0.00626 0.2603827,-0.086464 0.564686,-0.2060754 0.3043085,-0.1196169 0.5606795,-0.2174848 0.5697203,-0.2174848 0.00903,0 0.013512,0.1664693 0.00991,0.3699259 L 7.5078883,7.2826285 6.9624054,7.4967587 C 6.6623903,7.614534 6.3741236,7.7159754 6.3218091,7.7221887 6.2694999,7.7283967 6.180485,7.7211453 6.1239971,7.7058078 6.0112665,7.6754458 5.8229752,7.5188364 5.7994577,7.4358574 5.7414673,7.2312478 5.2153389,5.641516 5.2056147,5.641516 c -0.00673,0 -0.6654701,0.2630172 -1.4638235,0.5844891 C 2.9434378,6.5474718 1.96622,6.9409569 1.5701995,7.1004096 1.1741842,7.2598674 0.84082831,7.4050676 0.82941908,7.4230813 c -0.0448648,0.070819 -0.0386568,0.088958 0.47681892,1.3964533 0.1157094,0.2934941 0.4073201,1.0352291 0.648025,1.6483064 0.3936312,1.002561 0.7861721,2.002222 1.3736609,3.498197 0.1101327,0.280447 0.3576246,0.910124 0.549985,1.399276 0.1923552,0.489156 0.3966935,1.012108 0.4540892,1.162113 0.1343335,0.351108 0.1552478,0.389843 0.2151579,0.398524 0.053921,0.0078 0.1097101,-0.01424 1.8728079,-0.739523 0.6538731,-0.268996 1.1993717,-0.489078 1.2122103,-0.489078 0.03031,0 0.2933845,0.623594 0.2716876,0.644044 -0.00908,0.0086 -0.2299581,0.103121 -0.4908417,0.21015 -0.2608836,0.107029 -0.7571508,0.311915 -1.1028184,0.455294 -1.7652941,0.732236 -1.6350036,0.686985 -1.8887714,0.655981 z M 15.588121,15.134103 C 15.496271,15.01997 15.358539,14.85988 15.28205,14.778357 l -0.13906,-0.148231 h 0.37281 c 0.205053,0 0.400194,-0.01038 0.433655,-0.02311 l 0.06083,-0.02311 V 10.100884 5.6178576 l -0.895303,-0.00417 C 13.767028,5.6072152 13.808643,5.6115974 13.64473,5.4674458 13.471745,5.3155628 13.473717,5.3309316 13.473138,4.1297654 L 13.472616,3.056589 h -2.355058 c -1.8000899,0 -2.3617659,0.00673 -2.3835149,0.028432 -0.021963,0.021963 -0.028484,1.3310028 -0.028484,5.7475977 0,5.5104875 0.00157,5.7205695 0.043352,5.7583865 0.03391,0.03068 0.092182,0.03923 0.2668204,0.03923 H 9.239179 l -0.1635374,0.171947 c -0.089944,0.09457 -0.2219764,0.249318 -0.2934105,0.343889 -0.080798,0.106976 -0.146807,0.171947 -0.174691,0.171947 -0.069087,0 -0.2421708,-0.08884 -0.345652,-0.177414 -0.051334,-0.04393 -0.1299044,-0.147376 -0.174644,-0.229896 L 8.0058979,14.760677 V 8.8433912 2.9261003 l 0.06954,-0.137328 C 8.1601441,2.621484 8.3083545,2.4804677 8.4879337,2.3962836 l 0.1345996,-0.063098 h 2.7043197 2.704319 l 0.111254,0.059289 c 0.161545,0.086093 2.403006,2.318477 2.461674,2.4517045 0.02369,0.053807 0.05998,0.188547 0.08064,0.2994204 0.0336,0.1803617 0.03688,0.6986022 0.03135,4.9211938 l -0.0062,4.719599 -0.07026,0.126847 c -0.149634,0.270144 -0.428099,0.430494 -0.747599,0.430494 H 15.755086 Z M 14.952006,4.14696 C 14.546048,3.7428326 14.204528,3.4122051 14.193077,3.4122312 c -0.0157,4.17e-5 -0.02671,1.3578904 -0.01179,1.4525917 0.0016,0.00976 0.341661,0.017581 0.75581,0.017372 L 15.6901,4.8817567 Z"
       id="path1" /></g></svg>
