<?xml version="1.0" encoding="UTF-8" standalone="no"?>
<!-- Created with Inkscape (http://www.inkscape.org/) -->

<svg
   width="24"
   height="24"
   viewBox="0 0 24 24"
   version="1.1"
   id="svg1"
   xml:space="preserve"
   inkscape:version="1.4.3 (0d15f75, 2025-12-25)"
   sodipodi:docname="regroup-outline.svg"
   xmlns:inkscape="http://www.inkscape.org/namespaces/inkscape"
   xmlns:sodipodi="http://sodipodi.sourceforge.net/DTD/sodipodi-0.dtd"
   xmlns="http://www.w3.org/2000/svg"
   xmlns:svg="http://www.w3.org/2000/svg"><sodipodi:namedview
     id="namedview1"
     pagecolor="#ffffff"
     bordercolor="#000000"
     borderopacity="0.25"
     inkscape:showpageshadow="2"
     inkscape:pageopacity="0.0"
     inkscape:pagecheckerboard="0"
     inkscape:deskcolor="#d1d1d1"
     inkscape:document-units="px"
     inkscape:zoom="31.772833"
     inkscape:cx="15.138719"
     inkscape:cy="12.620845"
     inkscape:window-width="1920"
     inkscape:window-height="1010"
     inkscape:window-x="1913"
     inkscape:window-y="-6"
     inkscape:window-maximized="1"
     inkscape:current-layer="layer1" /><defs
     id="defs1" /><g
     inkscape:label="Vrstva 1"
     inkscape:groupmode="layer"
     id="layer1"><path
       style="fill:#000000;stroke-width:0.0226286"
       d="M 11.536478,22.00162 C 11.346882,21.97762 10.919721,21.870433 10.721847,21.797266 10.19783,21.603519 9.6432673,21.255478 9.2756973,20.889686 8.6415399,20.258589 8.2315823,19.41981 8.1186075,18.522258 c -0.043169,-0.342987 -0.0168,-0.956373 0.055819,-1.298441 0.2877707,-1.355441 1.2486701,-2.467581 2.5281765,-2.926096 0.705416,-0.252791 1.392839,-0.304388 2.101633,-0.157755 1.5521,0.321094 2.783488,1.582402 3.079202,3.154015 0.06749,0.35871 0.082,0.915976 0.03312,1.271851 -0.06694,0.487315 -0.202098,0.920087 -0.413425,1.323781 -0.556219,1.06253 -1.539043,1.80411 -2.733394,2.062445 -0.183509,0.03968 -0.313982,0.04998 -0.690174,0.05426 -0.255138,0.0032 -0.499527,7.92e-4 -0.543088,-0.0048 z M 11.16157,19.95184 c 0.381927,-0.314258 0.728513,-0.591485 0.770191,-0.616071 0.0592,-0.03493 0.08858,-0.03984 0.134304,-0.02265 0.03219,0.01212 0.263459,0.190088 0.513934,0.39544 0.250474,0.205359 0.576917,0.472661 0.725427,0.594003 0.285783,0.233511 0.350507,0.260181 0.413432,0.170341 0.03132,-0.04475 0.03523,-0.3056 0.03523,-2.354105 0,-2.547789 0.0087,-2.40003 -0.148576,-2.52001 l -0.08549,-0.06519 h -1.49925 c -1.478932,0 -1.500096,6.33e-4 -1.561743,0.04665 -0.09468,0.07066 -0.14765,0.152947 -0.168725,0.262035 -0.02915,0.150895 -0.02628,4.505749 0.003,4.582812 0.06677,0.175616 0.10491,0.154824 0.868251,-0.473264 z M 4.3798188,17.988248 C 4.1785732,17.937475 3.9641367,17.789328 3.8773083,17.641166 3.846868,17.589204 3.7513494,17.358529 3.6650462,17.128503 3.4791348,16.633005 2.9273906,15.19037 2.2025979,13.304673 2.1188832,13.086878 1.9303191,12.598097 1.7835676,12.218499 1.6368161,11.838908 1.3720266,11.151564 1.1951468,10.691068 1.0182677,10.230573 0.79215723,9.6450608 0.69267979,9.3899175 0.59320236,9.1347822 0.46340651,8.7987497 0.40424537,8.6431734 0.34508343,8.487605 0.23154385,8.1923023 0.15193227,7.9869425 0.01115475,7.6238122 0.00723228,7.6079861 0.00888063,7.4099136 0.01125694,7.1224289 0.06927825,6.9813876 0.26534512,6.7863172 0.37531075,6.6769045 0.45314802,6.6219882 0.56158728,6.5773058 0.71039114,6.5159973 1.6056818,6.140146 2.2700499,5.860107 3.9170108,5.1658711 5.1413071,4.6628006 5.2431046,4.6384515 c 0.1414207,-0.033823 0.3504575,-0.019723 0.5004415,0.033823 0.056009,0.019961 0.4429557,0.2165364 0.8598885,0.4367797 L 7.3614939,5.509484 V 6.3453949 7.1813136 L 6.8749783,7.3818416 C 6.2850992,7.6249687 6.2197264,7.6415473 6.0478352,7.5915817 5.9078055,7.5508678 5.751384,7.4165593 5.7045067,7.296778 5.6898925,7.2594701 5.5437002,6.8674045 5.379631,6.4255791 5.2155625,5.9837538 5.0679333,5.6078866 5.051567,5.5903178 5.0261881,5.5630696 4.9525387,5.5879415 4.5510748,5.7577281 4.2921714,5.8673705 3.8919574,6.0359611 3.6617107,6.1323675 3.4314647,6.2287819 2.9834174,6.4168819 2.6660507,6.5503824 2.3486841,6.6838829 1.8367563,6.8980746 1.528433,7.026363 0.82387373,7.3195192 0.80077451,7.3309254 0.79237664,7.3897467 c -0.00602,0.042457 0.16097768,0.5018824 0.46394556,1.2760649 0.1694634,0.433033 0.2010555,0.5146748 0.376565,0.9730312 0.092928,0.2426915 0.2299577,0.5990972 0.3045093,0.7920052 0.074553,0.192908 0.2955594,0.768242 0.4911265,1.27852 0.633481,1.652883 0.9174195,2.392728 1.0334447,2.692807 0.06256,0.161794 0.3014549,0.788044 0.5308827,1.391664 0.2294277,0.603612 0.4448083,1.168767 0.4786239,1.255882 0.045989,0.11849 0.073364,0.160107 0.1086483,0.165145 0.025941,0.004 0.4281553,-0.157675 0.8938094,-0.358639 0.4656541,-0.200956 1.1164908,-0.481811 1.4463029,-0.624119 0.4488125,-0.193661 0.6192391,-0.257132 0.6774957,-0.252339 0.07704,0.0063 0.078957,0.0092 0.1868579,0.277092 0.158435,0.393372 0.179954,0.361514 -0.4179776,0.618836 -0.2641756,0.113682 -0.6228788,0.269242 -0.7971193,0.34568 -1.7296497,0.758792 -1.7579594,0.770151 -1.9445654,0.779973 -0.087944,0.0048 -0.1982428,-0.0016 -0.2451074,-0.01307 z M 6.8498173,6.569971 C 7.112697,6.4608038 7.3200917,6.3645161 7.3106942,6.3560011 7.2729982,6.3217824 5.9194295,5.6311664 5.909533,5.6410676 5.887338,5.6632466 6.3183421,6.7889866 6.3450984,6.778721 6.3598154,6.773181 6.5869368,6.679138 6.8498173,6.569971 Z M 19.542328,17.956913 c -0.243129,-0.08582 -3.034843,-1.284326 -3.078464,-1.321619 -0.02178,-0.01861 -0.0396,-0.05901 -0.0396,-0.08975 0,-0.06606 0.196901,-0.536909 0.239202,-0.572015 0.01606,-0.01331 0.05791,-0.02479 0.093,-0.02543 0.03509,-6.65e-4 0.435472,0.158801 0.889742,0.354378 2.004974,0.863214 2.195657,0.942448 2.236701,0.929418 0.02306,-0.0071 0.05486,-0.04111 0.07067,-0.07509 0.03573,-0.07683 0.924247,-2.0438 1.131846,-2.505681 0.08391,-0.18669 0.536516,-1.189702 1.005795,-2.228921 0.469278,-1.039228 0.904917,-2.004615 0.968086,-2.145308 0.06701,-0.149263 0.106417,-0.26403 0.0946,-0.275532 -0.01844,-0.017981 -0.679123,-0.3067484 -1.278565,-0.5588738 -0.383332,-0.1612319 -0.505006,-0.2967443 -0.504323,-0.56167 3.92e-4,-0.1521149 -0.02793,-0.078814 0.430508,-1.1142468 0.168161,-0.3798119 0.297385,-0.6983944 0.287166,-0.707963 -0.01022,-0.00958 -0.820147,-0.3607539 -1.799837,-0.7804084 -1.269792,-0.543927 -1.79616,-0.7592831 -1.833158,-0.7499917 -0.04221,0.010614 -0.08102,0.081856 -0.207867,0.3816653 -0.348984,0.8248769 -0.576158,1.3596948 -0.913992,2.1517629 l -0.355171,0.8327107 -0.0059,-0.948389 -0.0059,-0.9483811 0.359908,-0.8479111 c 0.429105,-1.0109332 0.430691,-1.0141571 0.565046,-1.148513 0.14454,-0.1445345 0.318835,-0.2261683 0.518688,-0.2429212 0.254616,-0.021307 0.04799,-0.1004541 2.697885,1.0328902 0.603619,0.2581612 1.24005,0.529392 1.414291,0.6027246 0.283176,0.1191873 0.3316,0.1479326 0.456243,0.270811 l 0.139443,0.1374768 0.125917,0.3944261 c 0.06925,0.2169324 0.265207,0.8373762 0.435448,1.3787685 0.303678,0.965736 0.309564,0.9884059 0.311396,1.1993183 0.0017,0.189011 -0.0059,0.2327347 -0.06246,0.3620607 -0.08486,0.194033 -0.565455,1.267511 -0.891513,1.991316 -0.142966,0.317371 -0.32874,0.729777 -0.41283,0.916459 -0.08409,0.18669 -0.333753,0.741659 -0.554804,1.23326 -0.221052,0.491609 -0.457368,1.016027 -0.525146,1.165377 -0.06778,0.14935 -0.157112,0.347914 -0.19852,0.441263 -0.04141,0.09334 -0.12549,0.281726 -0.186849,0.418625 -0.06136,0.136906 -0.217413,0.487299 -0.346784,0.778665 -0.183395,0.413025 -0.257031,0.554003 -0.334205,0.639843 -0.239018,0.265844 -0.595446,0.355526 -0.935693,0.235436 z m 3.526876,-8.8490622 c -0.007,-0.018218 -0.08575,-0.2702565 -0.175,-0.5600542 C 22.804954,8.257999 22.709205,7.9496108 22.681435,7.8624877 l -0.05049,-0.1583962 -0.07337,0.1583962 c -0.146478,0.3162776 -0.387104,0.8772902 -0.379529,0.8848626 0.01243,0.012436 0.863072,0.3888101 0.88448,0.3913528 0.01066,0.00158 0.01367,-0.012594 0.0067,-0.030813 z M 8.4758619,15.15829 C 8.1533157,15.082248 7.889316,14.799255 7.8256977,14.461305 7.7920572,14.2826 7.7941404,2.8710155 7.8278364,2.7099262 7.882412,2.4490798 8.079073,2.192685 8.3066219,2.0857278 8.5122082,1.9890837 8.5576185,1.9876658 11.208358,1.9948264 l 2.534408,0.00713 0.129628,0.063685 c 0.109901,0.053942 0.24783,0.1865395 0.906407,0.8712068 1.630259,1.6948321 1.607271,1.6698968 1.668088,1.8092985 l 0.05657,0.1296826 v 4.7633237 c 0,4.5272233 -0.0021,4.7706913 -0.04097,4.9118353 -0.04776,0.173161 -0.160401,0.334115 -0.316225,0.451893 -0.131721,0.09955 -0.275868,0.15213 -0.468826,0.171006 l -0.147158,0.01442 -0.292038,-0.294645 c -0.318748,-0.3216 -0.337072,-0.34484 -0.315742,-0.400422 0.02452,-0.06392 0.112369,-0.07942 0.449713,-0.07942 0.310565,0 0.326961,-0.0024 0.360585,-0.0503 0.03159,-0.04507 0.03523,-0.507364 0.03523,-4.4796738 0,-4.3560419 -7.25e-4,-4.4297706 -0.04377,-4.4528127 -0.02827,-0.015129 -0.395949,-0.023446 -1.038073,-0.023446 -1.076629,0 -1.097803,-0.00238 -1.259476,-0.1254211 C 13.383959,5.2495304 13.32302,5.1707883 13.291297,5.1071272 L 13.233614,4.9913874 V 3.9112722 c 0,-0.9517475 -0.0042,-1.0843371 -0.03556,-1.1156725 -0.03185,-0.031842 -0.271299,-0.035565 -2.296808,-0.035565 -2.2310763,0 -2.261851,6.02e-4 -2.3065048,0.045229 -0.045023,0.044991 -0.045261,0.075408 -0.045261,5.7765857 0,5.150669 0.00356,5.736419 0.035225,5.781616 0.03284,0.04689 0.052405,0.0503 0.2891378,0.0503 0.2639039,0 0.3544956,0.02685 0.3544956,0.105104 0,0.04681 -0.5907433,0.663423 -0.6336022,0.661364 -0.01867,-7.92e-4 -0.072168,-0.01061 -0.1188926,-0.02162 z M 14.97303,4.2291577 C 14.744434,3.9919 14.422996,3.6584102 14.258722,3.4880691 l -0.298679,-0.309711 -0.0012,0.726007 c -6.33e-4,0.3992975 0.0056,0.7327873 0.01393,0.7410885 0.0083,0.00832 0.330252,0.01505 0.715456,0.01505 h 0.700372 z"
       id="path1" /></g></svg>
