<?xml version="1.0" encoding="UTF-8" standalone="no"?>
<!-- Created with Inkscape (http://www.inkscape.org/) -->

<svg
   width="32"
   height="32"
   viewBox="0 0 32 32"
   version="1.1"
   id="svg1"
   xml:space="preserve"
   inkscape:version="1.4.3 (0d15f75, 2025-12-25)"
   sodipodi:docname="regroup-pairs.svg"
   xmlns:inkscape="http://www.inkscape.org/namespaces/inkscape"
   xmlns:sodipodi="http://sodipodi.sourceforge.net/DTD/sodipodi-0.dtd"
   xmlns="http://www.w3.org/2000/svg"
   xmlns:svg="http://www.w3.org/2000/svg"><sodipodi:namedview
     id="namedview1"
     pagecolor="#ffffff"
     bordercolor="#000000"
     borderopacity="0.25"
     inkscape:showpageshadow="2"
     inkscape:pageopacity="0.0"
     inkscape:pagecheckerboard="0"
     inkscape:deskcolor="#d1d1d1"
     inkscape:document-units="px"
     inkscape:zoom="6.3125"
     inkscape:cx="34.217822"
     inkscape:cy="24.554455"
     inkscape:window-width="1920"
     inkscape:window-height="1010"
     inkscape:window-x="1913"
     inkscape:window-y="-6"
     inkscape:window-maximized="1"
     inkscape:current-layer="layer1" /><defs
     id="defs1" /><g
     inkscape:label="Vrstva 1"
     inkscape:groupmode="layer"
     id="layer1"><path
       style="fill:#000000;stroke-width:0.0312885"
       d="m 15.167572,29.210675 c -0.39803,-0.07361 -0.642536,-0.138453 -0.951392,-0.252336 -1.303486,-0.480609 -2.455753,-1.560385 -3.005935,-2.816826 -0.645821,-1.474855 -0.605958,-3.037924 0.114515,-4.489801 0.520466,-1.04882 1.31093,-1.83833 2.374363,-2.371496 1.715496,-0.860096 3.717594,-0.712743 5.345561,0.39342 0.418474,0.284336 1.075408,0.950536 1.359425,1.378589 0.647812,0.976348 0.950491,2.043888 0.901747,3.180484 -0.03082,0.718632 -0.211212,1.430689 -0.531089,2.096327 -0.68652,1.428593 -2.117444,2.529159 -3.705939,2.850336 -0.482222,0.0975 -1.45652,0.113543 -1.901256,0.03128 z m 0.790653,-1.897658 c 0.03813,-0.02671 0.08588,-0.07949 0.106152,-0.11733 0.02729,-0.051 0.04022,-0.870823 0.04976,-3.166354 l 0.01293,-3.097566 -0.07394,-0.10905 c -0.09906,-0.146113 -0.198277,-0.193778 -0.368281,-0.176913 -0.106948,0.01058 -0.160229,0.03676 -0.226844,0.111297 l -0.08705,0.09743 v 3.129913 c 0,3.348216 -0.0039,3.254321 0.14862,3.343313 0.08506,0.04956 0.360067,0.04029 0.438656,-0.01476 z m -2.083868,-1.167397 0.08861,-0.09917 v -2.130248 -2.130254 l -0.10638,-0.10638 c -0.09239,-0.09239 -0.126798,-0.10638 -0.261588,-0.10638 -0.115809,0 -0.1861,0.02083 -0.2769,0.08219 -0.496378,0.335235 -0.984405,0.681955 -1.028552,0.730738 -0.138231,0.152746 -0.06705,0.445356 0.143462,0.589777 0.144473,0.09911 0.262978,0.0754 0.512277,-0.102495 0.109861,-0.07839 0.207785,-0.142534 0.217612,-0.142534 0.0098,0 0.01789,0.732847 0.01789,1.628555 0,1.778094 -0.002,1.757102 0.180301,1.859858 0.0572,0.03226 0.14192,0.04453 0.255169,0.03689 0.143533,-0.0097 0.183102,-0.02658 0.258134,-0.110552 z m 5.576343,0.03017 c 0.17477,-0.164258 0.181306,-0.461909 0.01384,-0.629406 l -0.09345,-0.09345 h -0.701583 c -0.385872,0 -0.701584,-0.0078 -0.701584,-0.0173 0,-0.0095 0.229698,-0.30166 0.510437,-0.649236 0.585363,-0.724724 0.678312,-0.854852 0.806918,-1.129682 0.367498,-0.785325 0.131284,-1.60873 -0.559441,-1.950103 -0.232191,-0.114757 -0.247425,-0.117833 -0.584207,-0.117833 -0.325911,0 -0.357619,0.0059 -0.551475,0.100654 -0.345434,0.16905 -0.635648,0.537579 -0.702047,0.891502 -0.04218,0.224918 0.150944,0.462366 0.376312,0.462647 0.174209,2.15e-4 0.297612,-0.09616 0.403012,-0.314739 0.121209,-0.251376 0.244539,-0.342202 0.464651,-0.342202 0.214386,0 0.353616,0.07426 0.451103,0.240602 0.07201,0.122873 0.07937,0.162358 0.06484,0.347928 -0.02919,0.37376 -0.0672,0.432643 -1.131699,1.754432 -0.382751,0.475255 -0.712285,0.894859 -0.732292,0.932449 -0.09193,0.172695 -0.0141,0.436013 0.160693,0.543666 0.09566,0.0589 0.152524,0.06131 1.263179,0.05335 l 1.163009,-0.0083 z m 6.88686,-1.807413 c -0.1105,-0.03023 -0.693858,-0.27577 -1.736508,-0.730986 -0.559284,-0.24418 -1.30551,-0.568086 -1.65829,-0.719787 -0.929615,-0.399754 -0.929204,-0.399552 -1.000194,-0.489797 -0.117565,-0.149455 -0.111198,-0.201633 0.06671,-0.546623 0.161215,-0.312617 0.170742,-0.323991 0.279126,-0.333074 0.07536,-0.0065 0.19355,0.02605 0.359819,0.0986 0.136181,0.05942 0.536242,0.229965 0.889015,0.379028 0.35278,0.149064 1.173116,0.503933 1.822972,0.78859 0.829074,0.363169 1.202761,0.512245 1.252634,0.499728 0.05759,-0.0145 0.114797,-0.120327 0.301758,-0.558657 0.364246,-0.854003 0.811287,-1.85946 1.21648,-2.736043 0.205544,-0.444657 0.563874,-1.251987 0.796288,-1.794059 0.23242,-0.542072 0.714577,-1.640301 1.071464,-2.440507 1.102212,-2.47136 1.024915,-2.281806 0.944588,-2.316224 -0.038,-0.01626 -0.505507,-0.213151 -1.038973,-0.43752 -0.850281,-0.357612 -0.98389,-0.423182 -1.082982,-0.531501 -0.129266,-0.141313 -0.200883,-0.355019 -0.17148,-0.511749 0.01854,-0.09893 0.281398,-0.703457 0.81557,-1.875829 0.116102,-0.2548039 0.205362,-0.4690197 0.198355,-0.4760259 -0.007,-0.00699 -0.151466,-0.070474 -0.32102,-0.1410389 C 29.173335,9.4243311 28.484093,9.1265302 27.81124,8.8331172 27.138387,8.5397042 26.313316,8.1803686 25.977748,8.0346024 25.642174,7.8888361 25.242642,7.7144573 25.089896,7.6470982 24.777886,7.509507 24.725291,7.5012928 24.656097,7.57938 c -0.02671,0.030101 -0.224559,0.4701098 -0.439721,0.9777647 -0.215163,0.5076549 -0.492219,1.15533 -0.615687,1.4392686 -0.123468,0.2839447 -0.327922,0.7556217 -0.454354,1.0481667 -0.126432,0.292544 -0.276756,0.630463 -0.334053,0.750921 l -0.104186,0.219021 -0.0082,-1.213946 -0.0082,-1.2139458 0.536091,-1.2447525 c 0.294843,-0.684613 0.583711,-1.3103814 0.641922,-1.3905972 0.22751,-0.3135045 0.682792,-0.5025227 1.047194,-0.4347522 0.188992,0.035129 0.305878,0.083748 2.515741,1.0461098 0.688348,0.2997663 1.685545,0.7329514 2.215994,0.9626358 1.061193,0.4594992 1.197152,0.5449649 1.327156,0.8342512 0.03754,0.083552 0.229502,0.7151129 0.426564,1.4034599 0.724202,2.529734 0.707767,2.460279 0.648067,2.738648 -0.04264,0.198825 -0.294001,0.793102 -0.972326,2.298796 -0.279093,0.619513 -0.610384,1.358706 -0.736196,1.642645 -0.125818,0.283945 -0.28068,0.628902 -0.344148,0.766572 -0.328039,0.711613 -0.930693,2.084547 -1.194547,2.721351 -0.303311,0.732044 -0.997921,2.350523 -1.184608,2.760202 -0.196377,0.430932 -0.539761,0.670535 -0.983198,0.686049 -0.129403,0.0046 -0.263442,5.29e-4 -0.297859,-0.0089 z m 4.297316,-12.945735 c -0.16081,-0.54311 -0.301065,-0.987637 -0.311682,-0.987833 -0.01064,-1.89e-4 -0.04806,0.06652 -0.08323,0.148267 -0.0352,0.08174 -0.184023,0.409098 -0.330808,0.727454 -0.308346,0.668785 -0.330704,0.565944 0.169161,0.778175 0.549712,0.233386 0.826997,0.343364 0.837993,0.332368 0.0059,-0.0059 -0.120621,-0.45532 -0.281438,-0.998431 z M 5.6871569,24.230855 C 5.5105189,24.179141 5.2513339,23.998075 5.1369553,23.846439 5.0521622,23.734033 4.9169935,23.414691 4.6138188,22.610547 3.7856531,20.413913 2.6407443,17.403511 1.547824,14.548892 0.10278975,10.774556 -0.02791929,10.424251 -0.0607957,10.237603 -0.14412615,9.7645285 0.1164888,9.212799 0.52907962,8.988828 0.61263204,8.9434475 1.0893106,8.7416901 1.5883661,8.5404225 2.087415,8.3391614 3.1785985,7.8927278 4.0132219,7.5483514 7.1086261,6.2711469 6.9735684,6.3226652 7.2202949,6.3249636 c 0.1216591,0.00131 0.2801841,0.024943 0.3566258,0.053543 0.075684,0.028338 0.6003357,0.3074582 1.1658884,0.6202901 l 1.0282841,0.5687843 -0.00823,1.0942524 -0.00823,1.0942524 -0.719631,0.2910362 C 8.4655633,10.27742 8.2824675,10.338413 8.157733,10.339373 7.9619763,10.340679 7.7568563,10.242049 7.6407212,10.090276 7.5867869,10.019815 7.430717,9.6125722 7.2030046,8.9482467 6.7432833,7.6070719 6.7281673,7.5690959 6.6589538,7.5815151 6.6283954,7.5867388 5.8903769,7.8868642 5.0188875,8.2478844 4.1473981,8.6089047 2.8993286,9.1239902 2.2454046,9.392519 1.5914742,9.6610543 1.0374332,9.8981302 1.0142009,9.9193643 c -0.079426,0.072589 -0.039112,0.2494627 0.1994655,0.8748977 0.1312836,0.344174 0.461641,1.217126 0.7341267,1.939891 0.2724923,0.722765 0.5578412,1.47603 0.6341197,1.673935 0.6822231,1.77009 1.8058194,4.695842 2.0907766,5.444197 0.3505664,0.920663 0.4798977,1.259 0.8431837,2.205841 0.105642,0.275339 0.2437164,0.639252 0.3068248,0.808701 0.063533,0.170532 0.1393215,0.321268 0.169795,0.337611 0.041267,0.02213 0.1627105,-0.01691 0.4849714,-0.155913 1.6507942,-0.712018 3.5850637,-1.506667 3.6662137,-1.506184 0.116957,6.53e-4 0.141946,0.02625 0.228946,0.234184 0.04323,0.103252 0.111532,0.262462 0.151832,0.353798 0.0675,0.152995 0.06957,0.172701 0.02618,0.250311 -0.04936,0.08831 -0.03487,0.08147 -1.3122492,0.617261 -0.318356,0.133536 -1.0153098,0.432564 -1.5487761,0.664508 -1.4236109,0.618971 -1.3765784,0.60204 -1.663501,0.598736 -0.1348031,-0.0013 -0.2873405,-0.01521 -0.3389633,-0.0303 z M 9.0290722,9.006817 C 9.3937294,8.858341 9.7029244,8.7271161 9.7161729,8.7152127 9.729428,8.7033288 9.3887931,8.5006965 8.9592253,8.2649593 7.773807,7.6144242 7.7562098,7.6053415 7.7731541,7.6529422 c 0.00855,0.024094 0.1340848,0.3987872 0.2789108,0.8326906 0.144826,0.4339099 0.2747254,0.7894257 0.2886595,0.7900329 0.013908,6.138e-4 0.3236906,-0.1203662 0.6883478,-0.2688487 z m 2.0807938,11.19196 c -0.33297,-0.1302 -0.567107,-0.35261 -0.689282,-0.654767 l -0.07144,-0.17669 6.53e-4,-7.869059 6.53e-4,-7.8690523 0.07188,-0.1798049 c 0.09402,-0.2351757 0.326015,-0.4864272 0.557398,-0.6036723 l 0.182766,-0.092602 3.611195,-0.00836 3.611201,-0.00836 0.190357,0.09003 c 0.222665,0.1053221 0.304441,0.1865043 1.943116,1.9291109 1.310911,1.3940579 1.420973,1.5217633 1.499322,1.7396357 0.05733,0.1594914 0.05903,0.3591462 0.05504,6.4927413 -0.0039,6.181425 -0.0059,6.3322 -0.06497,6.501231 -0.164428,0.467838 -0.589412,0.769837 -1.083335,0.769837 h -0.201281 l -0.392108,-0.398121 c -0.215658,-0.21897 -0.392107,-0.422333 -0.392107,-0.451912 0,-0.121143 0.115475,-0.151199 0.580949,-0.151199 0.409477,0 0.446245,-0.0046 0.501478,-0.06586 0.05811,-0.06419 0.05981,-0.214027 0.06767,-5.975195 L 21.097121,7.307381 19.662932,7.298631 18.22875,7.289881 18.076187,7.195529 C 17.965143,7.1268608 17.899827,7.0556427 17.836197,6.9338335 L 17.748766,6.7664739 V 5.2525592 3.7386379 h -3.157905 c -2.829102,0 -3.163018,0.00522 -3.207067,0.049168 -0.05367,0.053738 -0.06347,1.7511995 -0.06438,11.1722921 -3.92e-4,4.053038 0.0013,4.167691 0.05922,4.231766 0.05485,0.06059 0.0925,0.06586 0.470893,0.06586 0.408288,0 0.486382,0.01828 0.486382,0.113778 0,0.02129 -0.190977,0.229658 -0.42439,0.463071 -0.474844,0.47485 -0.495053,0.484024 -0.801708,0.364121 z M 20.562471,6.2504677 c -0.0851,-0.095567 -1.219993,-1.3072733 -1.615274,-1.724598 l -0.256592,-0.2708925 -0.0013,1.0403442 -0.0013,1.0403377 h 0.975394 0.975395 z"
       id="path1" /></g></svg>
