<?xml version="1.0" encoding="UTF-8" standalone="no"?>
<!-- Created with Inkscape (http://www.inkscape.org/) -->

<svg
   width="24"
   height="24"
   viewBox="0 0 24 24"
   version="1.1"
   id="svg1"
   xml:space="preserve"
   inkscape:version="1.4.3 (0d15f75, 2025-12-25)"
   sodipodi:docname="regroup-alternating-reversed.svg"
   xmlns:inkscape="http://www.inkscape.org/namespaces/inkscape"
   xmlns:sodipodi="http://sodipodi.sourceforge.net/DTD/sodipodi-0.dtd"
   xmlns="http://www.w3.org/2000/svg"
   xmlns:svg="http://www.w3.org/2000/svg"><sodipodi:namedview
     id="namedview1"
     pagecolor="#ffffff"
     bordercolor="#000000"
     borderopacity="0.25"
     inkscape:showpageshadow="2"
     inkscape:pageopacity="0.0"
     inkscape:pagecheckerboard="0"
     inkscape:deskcolor="#d1d1d1"
     inkscape:document-units="px"
     inkscape:zoom="10.546272"
     inkscape:cx="-6.1633151"
     inkscape:cy="2.2756856"
     inkscape:window-width="1920"
     inkscape:window-height="1010"
     inkscape:window-x="1913"
     inkscape:window-y="-6"
     inkscape:window-maximized="1"
     inkscape:current-layer="layer1" /><defs
     id="defs1" /><g
     inkscape:label="Vrstva 1"
     inkscape:groupmode="layer"
     id="layer1"><path
       style="fill:#000000;stroke-width:0.0221649"
       d="M 8.3812686,15.208916 C 8.1238557,15.109916 7.95202,14.866389 7.9055415,14.5347 7.8724985,14.298579 7.8965415,2.8495627 7.9307415,2.7279599 7.9636555,2.6098027 8.1156272,2.3928641 8.2123515,2.3260841 8.2582515,2.294327 8.34568,2.2455984 8.4066357,2.2175699 l 0.1108286,-0.050914 h 2.5822287 2.582215 l 0.126515,0.0621 c 0.136414,0.066986 0.331521,0.2582357 1.304897,1.2791057 1.298905,1.3622786 1.280944,1.3402286 1.328875,1.6328186 0.0297,0.18171 0.02867,9.2940168 -0.0011,9.4511448 -0.04989,0.262902 -0.216322,0.481024 -0.448856,0.588111 -0.120086,0.05529 -0.168608,0.06441 -0.370916,0.06943 l -0.232727,0.0051 -0.221657,-0.289067 c -0.121886,-0.158978 -0.240467,-0.312814 -0.263468,-0.341833 -0.02301,-0.02906 -0.03574,-0.06853 -0.02841,-0.08781 0.01157,-0.02996 0.06634,-0.03497 0.378257,-0.03497 0.39033,0 0.419529,-0.0077 0.446066,-0.1179 0.0064,-0.02661 0.009,-2.00826 0.0051,-4.403739 l -0.0064,-4.3554214 -1.086081,-0.011571 -1.086081,-0.011571 -0.120343,-0.066472 C 13.277641,5.4634326 13.177947,5.3357616 13.137833,5.191363 13.124973,5.144949 13.115973,4.6673702 13.115973,4.0213888 L 13.11586,2.9297656 H 10.923126 8.7304043 l -0.0432,0.0549 c -0.042429,0.053871 -0.043457,0.1492843 -0.059786,5.2937614 -0.009,2.881401 -0.009,5.441246 -1.029e-4,5.68854 0.020829,0.568633 -0.00514,0.532968 0.3866143,0.532968 0.1577572,0 0.2914586,0.0077 0.2971029,0.01659 0.00514,0.009 -0.0585,0.09141 -0.14247,0.182855 -0.083957,0.09141 -0.22518,0.253504 -0.3137272,0.360167 -0.1594028,0.192008 -0.1619742,0.193911 -0.26073,0.19278 -0.0549,-6.17e-4 -0.1510457,-0.02083 -0.21375,-0.045 z M 15.187223,4.6989985 C 14.156864,3.630557 13.906124,3.3746356 13.889693,3.3746356 c -0.02237,0 -0.027,1.4257929 -0.0051,1.4481129 0.0077,0.00771 0.334491,0.014786 0.725258,0.014786 h 0.710486 z"
       id="path4" /><path
       style="fill:#000000;stroke-width:0.0221649"
       d="M 4.3001929,18.01653 C 4.1342843,17.937459 4.0441429,17.862823 3.9551072,17.730806 3.9032929,17.65392 3.68107,17.103699 3.2865357,16.075179 2.2626829,13.405997 1.7356815,12.040183 0.72509713,9.4367527 L 0.05399284,7.7078913 0.05270713,7.5305656 C 0.04884998,7.1104585 0.27118855,6.8025813 0.69841855,6.6369299 0.79330427,6.6001585 1.1751357,6.4460399 1.5469515,6.294467 5.1638586,4.8200485 5.2951429,4.7682599 5.44795,4.7554413 c 0.087686,-0.00771 0.1981543,-0.00107 0.2684572,0.0153 0.0657,0.0153 0.4910143,0.2103557 0.9451157,0.43353 L 7.48717,5.6100427 v 0.1533215 c 0,0.084343 -0.00643,0.2747443 -0.014528,0.42318 C 7.458885,6.443327 7.455928,6.4557213 7.413756,6.4423242 7.3893272,6.4346099 7.0542572,6.275837 6.6691086,6.0895627 6.28396,5.9033013 5.9661057,5.7534385 5.96275,5.756537 c -0.00514,0.00514 0.1251,0.3664029 0.3539829,0.9816557 0.037414,0.1005429 0.079843,0.1828672 0.094243,0.1828672 0.0144,0 0.2566415,-0.093857 0.5383286,-0.2086329 0.2817,-0.1148143 0.51795,-0.20286 0.5250214,-0.1958014 0.00643,0.00643 0.012857,0.1895014 0.012857,0.4054114 0,0.2873057 -0.00771,0.3985843 -0.027643,0.4150029 C 7.4297115,7.3612113 7.2212072,7.4492827 6.7062657,7.654997 6.3374715,7.8023527 6.1842915,7.8219213 6.0120315,7.7437113 5.8398357,7.6655399 5.77888,7.5622585 5.5676243,6.9909385 5.1501015,5.8617856 5.0995472,5.7351427 5.0684715,5.7405942 5.0517572,5.7431656 4.41961,5.9960013 3.66379,6.3016285 2.9079572,6.6072556 1.9766886,6.9834813 1.5943043,7.137677 1.0500614,7.3571356 0.89414284,7.4288013 0.87646427,7.4675913 c -0.0241714,0.0531 -0.0230143,0.056957 0.20522573,0.6393214 0.1177714,0.3004715 0.1677086,0.4292358 0.8642829,2.2275773 0.4631014,1.195598 1.0020986,2.597285 1.40634,3.657227 0.1418014,0.371816 0.2868814,0.750832 0.3224057,0.842272 0.1275429,0.328371 0.4514657,1.173973 0.6569486,1.71504 0.1152,0.303261 0.2238428,0.57933 0.2415214,0.613504 0.063771,0.1233 -0.1405671,0.196522 2.1372043,-0.765398 0.7178014,-0.30312 0.88299,-0.365388 0.92214,-0.347555 0.052071,0.02379 0.2389628,0.367316 0.2640728,0.485563 0.009,0.0396 0.009,0.100929 0.0012,0.136273 -0.013372,0.06056 -0.0558,0.08216 -0.7387586,0.375956 -0.3985457,0.171463 -0.8293629,0.357634 -0.9573686,0.413743 -0.1280571,0.05606 -0.4072757,0.177647 -0.6206143,0.270102 -0.2133385,0.09244 -0.4676914,0.203079 -0.5652128,0.245829 -0.15255,0.06686 -0.2067429,0.07894 -0.3878872,0.0864 -0.1893214,0.0077 -0.2223385,0.0026 -0.3272914,-0.04693 z"
       id="path3" /><path
       style="fill:#000000;stroke-width:0.0221649"
       d="m 19.611018,18.099035 c -0.148603,-0.02481 -0.596494,-0.210768 -2.15001,-0.892338 -0.225527,-0.099 -0.552947,-0.240904 -0.727611,-0.31545 -0.334736,-0.142881 -0.380636,-0.172041 -0.380636,-0.241855 0,-0.112629 0.251756,-0.559685 0.328976,-0.58419 0.02983,-0.009 0.515353,0.188421 1.517644,0.618634 0.810553,0.347914 1.497742,0.632571 1.527107,0.632571 0.08807,0 0.122915,-0.0441 0.236405,-0.299224 0.109157,-0.24534 0.220358,-0.488636 0.800562,-1.751027 1.208572,-2.629543 2.327465,-5.101548 2.327465,-5.142138 0,-0.01311 -0.132159,-0.08254 -0.293683,-0.1544138 C 21.834057,9.5411913 21.51997,9.3941185 21.451583,9.339437 21.334968,9.246223 21.273395,9.112007 21.273395,8.951177 c 0,-0.1461085 -0.03831,-0.053614 0.539576,-1.30374 0.105557,-0.2282914 0.191867,-0.4234757 0.191867,-0.4337485 0,-0.022886 0.03266,-0.009 -1.895104,-0.8239758 -0.865543,-0.3660428 -1.595777,-0.66555 -1.622726,-0.6655628 -0.07007,-5.14e-5 -0.118414,0.061586 -0.203168,0.2588914 -0.04089,0.095271 -0.254057,0.57726 -0.473645,1.0709872 -0.2196,0.4937142 -0.441385,0.99243 -0.492852,1.1082471 -0.213185,0.47961 -0.394779,0.8764843 -0.407726,0.8910514 -0.0077,0.009 -0.01029,-0.4169571 -0.0077,-0.9455657 l 0.0064,-0.96111 0.38556,-0.8677671 c 0.212066,-0.47727 0.416842,-0.9165086 0.455066,-0.9760757 0.189758,-0.2957272 0.540566,-0.4592958 0.863164,-0.4024672 0.153527,0.027 0.168557,0.033043 1.807599,0.7226872 0.121885,0.0513 0.680464,0.2853128 1.241241,0.5200585 0.560777,0.2347457 1.05948,0.4468115 1.108247,0.4712786 0.121115,0.060814 0.248503,0.1869043 0.309652,0.3066686 0.05696,0.1114714 0.188485,0.5231957 0.311657,0.9752528 0.04487,0.1645843 0.180347,0.6008143 0.301101,0.9694157 0.257837,0.78696 0.285892,0.9250715 0.23427,1.1536453 -0.04757,0.210485 -0.117128,0.371508 -1.079357,2.498349 -0.148924,0.329143 -0.472988,1.047292 -0.720167,1.59588 -0.247166,0.548576 -0.59904,1.326575 -0.781933,1.728862 -0.315347,0.69363 -0.66753,1.473004 -0.786253,1.739957 -0.157757,0.354729 -0.570445,0.579754 -0.947481,0.516639 z m 3.312849,-9.109788 c -0.04089,-0.13032 -0.136569,-0.4444971 -0.21258,-0.6981943 -0.07599,-0.2536842 -0.144746,-0.46125 -0.152743,-0.46125 -0.01659,0 -0.43677,0.8877858 -0.455529,0.9624986 -0.01157,0.045 0.02263,0.064671 0.415762,0.2402357 0.23544,0.1051715 0.439637,0.1917386 0.453767,0.19242 0.01633,7.843e-4 -0.0013,-0.085757 -0.04873,-0.23571 z"
       id="path2" /><path
       style="fill:#000000;stroke-width:0.0221649"
       d="m 12.362361,21.813335 c 1.336822,-0.118543 2.569809,-0.959568 3.164683,-2.158522 0.174973,-0.352633 0.311606,-0.788001 0.372176,-1.185827 0.06377,-0.41841 0.03304,-1.089746 -0.06814,-1.491133 -0.09656,-0.383117 -0.290803,-0.843814 -0.497302,-1.179283 -0.579715,-0.941798 -1.544798,-1.59993 -2.638452,-1.79928 -0.293323,-0.05349 -0.975845,-0.0549 -1.253417,-0.0026 -0.57987,0.109157 -1.183911,0.360514 -1.6266984,0.676736 -0.532273,0.380147 -0.987982,0.924467 -1.275622,1.523661 -0.603283,1.256709 -0.498973,2.741837 0.273317,3.891626 0.68112,1.014068 1.7347124,1.633898 2.9361214,1.727344 0.30213,0.02353 0.318767,0.0234 0.613286,-0.0026 z M 10.110768,19.82922 C 9.6149956,19.396076 9.4149516,19.209827 9.4149516,19.181387 c 0,-0.01916 0.24102,-0.240145 0.9282474,-0.850924 0.09514,-0.08447 0.188743,-0.149618 0.215229,-0.149618 0.05966,0 0.179781,0.08126 0.239798,0.162321 0.05889,0.07946 0.06249,0.260267 0.0077,0.367509 -0.02134,0.04153 -0.0387,0.08511 -0.0387,0.09707 0,0.01299 0.06814,0.01761 0.171785,0.01157 0.21294,-0.01286 0.287459,-0.05541 0.511585,-0.29547 0.173558,-0.18585 0.491374,-0.608412 0.491374,-0.653348 0,-0.06969 -0.516008,-0.724243 -0.662181,-0.840009 -0.125229,-0.09913 -0.22617,-0.135193 -0.378861,-0.135193 -0.07354,0 -0.133702,0.0051 -0.133702,0.01157 0,0.0064 0.01736,0.03819 0.03844,0.07046 0.05747,0.08769 0.05336,0.316183 -0.0077,0.398019 -0.06017,0.08139 -0.180167,0.162398 -0.240403,0.162398 -0.05156,0 -1.1264274,-0.930934 -1.1387574,-0.986246 -0.0077,-0.03548 0.07573,-0.115714 0.6780094,-0.651034 0.234977,-0.208851 0.437451,-0.379736 0.449948,-0.379736 0.04513,0 0.144013,0.06442 0.219587,0.142985 0.0711,0.07393 0.07714,0.09116 0.07753,0.218005 3.21e-4,0.107743 -0.01029,0.152923 -0.0495,0.207643 -0.02739,0.03844 -0.04989,0.07444 -0.04989,0.07997 0,0.0051 0.107229,0.01556 0.238269,0.02224 0.131053,0.0064 0.281866,0.02803 0.335146,0.04744 0.230426,0.0837 0.527452,0.358998 0.862895,0.799586 l 0.175937,0.231082 0.04397,-0.04886 c 0.02417,-0.02687 0.08396,-0.103757 0.132943,-0.170755 0.342296,-0.469183 0.758301,-0.786896 1.103361,-0.842683 0.07316,-0.01157 0.2826,-0.0216 0.465455,-0.0216 0.378887,-1.16e-4 0.454011,0.02186 0.530922,0.154954 0.05554,0.0963 0.0576,0.290019 0.0039,0.393262 -0.07059,0.136067 -0.1134,0.148538 -0.556071,0.161807 -0.438621,0.01311 -0.454705,0.01736 -0.66159,0.17343 -0.121885,0.09193 -0.324103,0.326005 -0.524211,0.606715 l -0.13806,0.193693 0.1161,0.160946 c 0.173918,0.241059 0.406697,0.513 0.515288,0.601984 0.190145,0.155816 0.267892,0.176375 0.71766,0.189759 l 0.403136,0.01157 0.06583,0.06313 c 0.170498,0.163543 0.1269,0.519287 -0.07393,0.603193 -0.0918,0.03831 -0.611421,0.04384 -0.827498,0.009 -0.41346,-0.06712 -0.814346,-0.36954 -1.206965,-0.910569 -0.05143,-0.07097 -0.100157,-0.129278 -0.108128,-0.129626 -0.0077,-3.6e-4 -0.0486,0.04667 -0.09026,0.104658 -0.135129,0.1881 -0.409282,0.503832 -0.559415,0.644271 -0.236918,0.221631 -0.470533,0.31437 -0.791961,0.31437 h -0.172311 l 0.0495,0.09424 c 0.06596,0.125486 0.06737,0.299558 0.0026,0.386254 -0.06081,0.08203 -0.180398,0.162322 -0.241894,0.162322 -0.0315,0 -0.190273,-0.123429 -0.445564,-0.346475 z"
       id="path1" /></g></svg>
