<?xml version="1.0" encoding="UTF-8" standalone="no"?>
<!-- Created with Inkscape (http://www.inkscape.org/) -->

<svg
   width="24"
   height="24"
   viewBox="0 0 24 24"
   version="1.1"
   id="svg1"
   inkscape:version="1.4.3 (0d15f75, 2025-12-25)"
   sodipodi:docname="remove-selection.svg"
   xml:space="preserve"
   xmlns:inkscape="http://www.inkscape.org/namespaces/inkscape"
   xmlns:sodipodi="http://sodipodi.sourceforge.net/DTD/sodipodi-0.dtd"
   xmlns="http://www.w3.org/2000/svg"
   xmlns:svg="http://www.w3.org/2000/svg"><sodipodi:namedview
     id="namedview1"
     pagecolor="#ffffff"
     bordercolor="#000000"
     borderopacity="0.25"
     inkscape:showpageshadow="2"
     inkscape:pageopacity="0.0"
     inkscape:pagecheckerboard="0"
     inkscape:deskcolor="#d1d1d1"
     inkscape:document-units="px"
     inkscape:zoom="23.002096"
     inkscape:cx="16.911502"
     inkscape:cy="17.563617"
     inkscape:window-width="1920"
     inkscape:window-height="1010"
     inkscape:window-x="1913"
     inkscape:window-y="-6"
     inkscape:window-maximized="1"
     inkscape:current-layer="layer1" /><defs
     id="defs1" /><g
     inkscape:label="Vrstva 1"
     inkscape:groupmode="layer"
     id="layer1"><path
       style="fill:#000000;stroke-width:0.0260442"
       d="M 16.882636,23.92971 C 16.460282,23.815684 16.1159,23.521465 15.923868,23.110609 15.809543,22.866007 15.795856,22.777895 15.712061,21.746891 15.401325,17.923728 15.272495,16.361568 15.254472,16.198212 l -0.01507,-0.136734 H 15.09053 c -0.10259,0 -0.184995,-0.01821 -0.265081,-0.05858 -0.280164,-0.141282 -0.303909,-0.553544 -0.04105,-0.712686 0.0749,-0.04535 0.161918,-0.05012 1.135899,-0.06212 l 1.05479,-0.01303 0.0091,-0.46807 c 0.01037,-0.535875 0.03996,-0.670447 0.200794,-0.912778 0.117497,-0.177015 0.304087,-0.329475 0.521036,-0.425722 l 0.154635,-0.06861 1.132918,-0.0082 c 1.276963,-0.0093 1.332561,-0.0034 1.608975,0.176164 0.196628,0.127562 0.331943,0.282012 0.431887,0.492947 0.08124,0.171465 0.08181,0.175624 0.09475,0.69338 l 0.01302,0.520886 1.067808,0.01303 c 1.052622,0.01282 1.068968,0.01384 1.149244,0.07111 0.228563,0.163036 0.217059,0.513848 -0.02271,0.692875 -0.04855,0.03628 -0.125175,0.05462 -0.265346,0.06362 -0.108379,0.007 -0.197051,0.01528 -0.197051,0.01848 0,0.0034 -0.02339,0.27848 -0.05203,0.611739 -0.05046,0.587593 -0.271204,3.344775 -0.403532,5.040205 -0.06891,0.882848 -0.11108,1.163408 -0.207123,1.37797 -0.179232,0.400416 -0.565484,0.719246 -1.017025,0.839505 -0.103456,0.02755 -0.544194,0.03444 -2.135752,0.03348 -1.83365,-0.0014 -2.020008,-0.0055 -2.175966,-0.04733 z m 3.925888,-0.780667 c 0.228454,-0.01739 0.282845,-0.03096 0.390658,-0.09728 0.155664,-0.09579 0.282987,-0.28086 0.31647,-0.459975 0.01405,-0.07506 0.06841,-0.693163 0.120845,-1.373566 0.140192,-1.819179 0.265217,-3.399363 0.339002,-4.284604 0.0358,-0.429917 0.06512,-0.802019 0.06512,-0.826903 0,-0.04269 -0.16811,-0.04521 -2.985049,-0.04521 h -2.985056 l 0.01603,0.136734 c 0.02912,0.248093 0.210621,2.500442 0.459144,5.697149 0.02953,0.379597 0.06676,0.731194 0.08279,0.781322 0.07046,0.220434 0.28742,0.424209 0.487028,0.457433 0.05169,0.0086 0.105638,0.0193 0.119965,0.02373 0.05796,0.018 3.32669,0.01 3.57301,-0.0088 z M 17.961832,21.80596 c -0.09491,-0.04133 -0.187667,-0.133038 -0.221082,-0.218627 -0.01302,-0.03335 -0.03539,-0.507991 -0.04978,-1.05479 -0.01432,-0.546793 -0.03764,-1.391139 -0.05176,-1.876319 -0.02434,-0.836176 -0.02319,-0.88788 0.02291,-0.992079 0.143001,-0.32329 0.612074,-0.324654 0.746442,-0.002 0.02407,0.05783 0.04555,0.592147 0.07912,1.970248 0.04576,1.879844 0.04576,1.891498 -0.0055,1.992376 -0.09079,0.178495 -0.33296,0.262905 -0.520307,0.181359 z m 1.84956,-0.01228 c -0.06458,-0.02932 -0.130324,-0.08673 -0.166617,-0.145456 -0.0521,-0.08428 -0.05946,-0.128285 -0.05633,-0.335142 0.0027,-0.196498 0.08482,-2.575515 0.11614,-3.376436 0.0098,-0.251933 0.05155,-0.355204 0.180534,-0.44721 0.06506,-0.04637 0.119781,-0.06062 0.232879,-0.06062 0.166275,0 0.252424,0.0478 0.356534,0.197726 0.06083,0.08759 0.06144,0.09493 0.04623,0.557553 -0.04535,1.38168 -0.122182,3.314886 -0.133699,3.364196 -0.01998,0.08551 -0.143438,0.219521 -0.239065,0.259475 -0.11451,0.04787 -0.208971,0.04392 -0.336601,-0.01405 z m 0.505283,-6.943268 c 0.0091,-0.415883 -0.01377,-0.527317 -0.127623,-0.623135 l -0.07966,-0.06703 -1.033254,9.6e-5 c -0.990423,9.5e-5 -1.036828,0.002 -1.119464,0.05265 -0.136666,0.08333 -0.161209,0.178297 -0.161209,0.62381 v 0.391748 l 1.256628,-0.0068 1.256628,-0.0068 z M 1.5829954,22.103138 C 1.1587868,22.017992 0.77297086,21.718175 0.60816867,21.345609 0.4668249,21.026083 0.47608552,21.750185 0.47650149,11.049014 0.47692429,0.15953523 0.46340843,1.016688 0.6395443,0.6856243 0.80145511,0.38125135 1.1568433,0.11640311 1.49802,0.04587102 1.5946973,0.02589045 3.1122181,0.01954849 6.6485743,0.0243902 c 4.7843647,0.0068193 5.0174487,0.0090697 5.1000027,0.05407711 0.0476,0.0259816 0.586604,0.55335948 1.197832,1.17198659 0.611221,0.6186271 1.71687,1.7351795 2.457003,2.4812321 1.281389,1.2916517 1.347659,1.3631181 1.387047,1.4957536 0.03689,0.1241932 0.04139,0.5130983 0.04139,3.5879919 0,3.1430195 -0.0041,3.4566735 -0.04276,3.5387435 -0.09848,0.207532 -0.354617,0.296217 -0.560833,0.19418 -0.06192,-0.03069 -0.136086,-0.0878 -0.164734,-0.126982 -0.05135,-0.0702 -0.05217,-0.117872 -0.05892,-3.2407335 l -0.0068,-3.1694842 -1.920447,-0.00948 C 12.42673,5.9934933 12.138116,5.9864694 12.023245,5.95135 11.53115,5.8010729 11.174473,5.4065419 11.086879,4.9156063 11.05967,4.7630107 11.051624,4.2877391 11.050942,2.7854117 L 11.05026,0.85163353 6.3688259,0.85220636 C 1.873116,0.8527519 1.6832597,0.85493408 1.5832204,0.90082801 1.4576156,0.95879212 1.3792345,1.0426082 1.3394029,1.1615097 c -0.021958,0.065602 -0.029664,2.6301385 -0.029664,9.8910983 0,8.788818 0.00409,9.81254 0.040302,9.899036 0.056191,0.134408 0.133638,0.211187 0.2852448,0.282687 l 0.1302215,0.06137 5.1918657,2.59e-4 c 4.7359611,2.32e-4 5.1996871,0.0041 5.2809601,0.04255 0.135616,0.06437 0.201845,0.176292 0.213165,0.360298 0.0081,0.132062 -1.09e-4,0.171608 -0.05121,0.245884 -0.03348,0.04869 -0.101724,0.110206 -0.151634,0.136727 -0.08751,0.04651 -0.277628,0.04814 -5.3260225,0.04535 -2.8794046,-0.0014 -5.2821533,-0.01227 -5.3394491,-0.0238 z M 15.577373,5.1265752 c -0.01112,-0.028709 -3.650525,-3.7018948 -3.667887,-3.7019085 -0.02687,-2.04e-5 0.0014,3.3982039 0.02905,3.4678154 0.03239,0.082084 0.111025,0.1597081 0.218381,0.2155446 0.06841,0.035597 0.286486,0.040643 1.753633,0.040779 0.9251,8.18e-5 1.671616,-0.00989 1.666829,-0.022231 z M 4.460286,17.70399 C 4.0132054,17.64289 3.7034998,17.39721 3.571628,16.999058 3.525461,16.859712 3.513459,16.748666 3.503571,16.371129 3.492592,15.950841 3.496001,15.902438 3.54476,15.79234 c 0.096179,-0.217427 0.3319502,-0.302129 0.5443852,-0.195564 0.214815,0.107752 0.2266192,0.140546 0.2415399,0.670945 0.017798,0.632307 -0.00136,0.61414 0.6380757,0.61414 0.4160255,0 0.4485331,0.0034 0.5385684,0.0596 0.1056447,0.06567 0.2036927,0.237591 0.2036927,0.357127 0,0.119535 -0.098048,0.29143 -0.2036927,0.35712 -0.088133,0.05483 -0.1281825,0.05994 -0.4995006,0.06376 -0.222023,0.002 -0.4684045,-0.0048 -0.5475085,-0.01548 z m 2.5871632,-0.0034 C 6.9333963,17.66656 6.8115421,17.53765 6.7789049,17.41643 c -0.060215,-0.223721 0.079404,-0.466584 0.2956784,-0.514231 0.059328,-0.01309 0.4370154,-0.02216 0.8392658,-0.02025 0.7183185,0.0034 0.7331301,0.0048 0.8299779,0.06444 0.1073359,0.06635 0.1951072,0.223333 0.1960619,0.35069 6.819e-4,0.120422 -0.096541,0.292562 -0.2031199,0.358832 -0.093554,0.05817 -0.113671,0.05967 -0.8510972,0.06444 -0.4173212,0.0027 -0.7923968,-0.0061 -0.8382226,-0.01984 z m 3.2514318,0.0034 c -0.118001,-0.03007 -0.259679,-0.17332 -0.292705,-0.295985 -0.048553,-0.180282 0.02646,-0.371196 0.184278,-0.468889 0.08284,-0.05128 0.1215,-0.05578 0.429726,-0.04992 0.447796,0.0085 0.566916,-0.0083 0.649941,-0.09126 0.0656,-0.0656 0.06642,-0.07132 0.06697,-0.48606 4.91e-4,-0.357414 0.008,-0.436006 0.0506,-0.529813 0.125468,-0.276407 0.509511,-0.312406 0.698072,-0.06546 0.07032,0.09211 0.07127,0.09862 0.07937,0.545367 0.0048,0.261916 -0.0041,0.510064 -0.02039,0.589802 -0.08279,0.398834 -0.3473,0.692978 -0.730075,0.811893 -0.161802,0.05026 -0.96305,0.07923 -1.115768,0.0403 z M 3.705832,14.372383 c -0.053122,-0.0285 -0.1144075,-0.09428 -0.1493496,-0.160363 -0.057828,-0.109381 -0.05926,-0.130623 -0.05926,-0.896766 0,-0.762003 0.00136,-0.7881 0.058578,-0.900939 0.1157646,-0.229572 0.4068876,-0.295529 0.6124352,-0.138746 0.1565508,0.119406 0.1623813,0.156346 0.1623813,1.029204 0,0.742718 -0.00273,0.793222 -0.053941,0.898376 -0.029664,0.06131 -0.092579,0.135295 -0.1398026,0.164488 -0.1103501,0.0682 -0.3086896,0.07038 -0.4310757,0.0048 z m 7.838773,-0.0103 c -0.04733,-0.03225 -0.110616,-0.09166 -0.14058,-0.132076 -0.0521,-0.07024 -0.05483,-0.109 -0.0624,-0.878607 -0.0074,-0.756213 -0.0048,-0.812234 0.04378,-0.922018 0.125312,-0.283287 0.509164,-0.322969 0.700288,-0.0724 l 0.07117,0.09332 v 0.853061 c 0,0.824768 -0.002,0.855503 -0.05449,0.926594 -0.09237,0.124657 -0.213328,0.190729 -0.349203,0.190729 -0.08418,0 -0.149459,-0.01834 -0.208616,-0.05858 z M 3.7306406,11.028434 C 3.6457466,10.985614 3.5986461,10.938524 3.5558345,10.853635 3.5030535,10.748965 3.4972565,10.699832 3.4973935,10.358792 3.4975776,9.896278 3.5251475,9.7153686 3.627124,9.5081708 3.723842,9.3116316 3.8907243,9.1540442 4.1116153,9.0506771 4.2593283,8.9815571 4.3210907,8.9694731 4.6241475,8.9504197 4.8136697,8.9384857 5.0800728,8.9356217 5.216152,8.9442797 l 0.2474249,0.015275 0.108202,0.1073631 C 5.6560109,9.1504818 5.6839769,9.2009036 5.6980043,9.294444 5.7228263,9.4597645 5.6491783,9.6243075 5.5124577,9.709317 5.4179287,9.768099 5.3811929,9.772941 4.9368128,9.785107 4.307609,9.80236 4.3481156,9.763626 4.3306582,10.365212 c -0.012207,0.421086 -0.016844,0.454023 -0.075558,0.536318 -0.066897,0.09382 -0.2340113,0.184278 -0.3421451,0.185213 -0.036347,3.13e-4 -0.1183968,-0.02578 -0.1823073,-0.05803 z m 7.9161584,0.03369 c -0.119488,-0.03621 -0.202315,-0.107104 -0.256917,-0.219888 -0.04658,-0.09623 -0.0534,-0.160322 -0.0534,-0.504254 0,-0.3787929 -0.0027,-0.3968299 -0.06281,-0.4670824 l -0.06281,-0.073076 -0.464613,-0.013025 C 10.327011,9.7730668 10.272743,9.7662475 10.190488,9.7149731 10.063036,9.6355555 9.9972429,9.5130193 9.9972429,9.3550637 c 0,-0.1558416 0.057282,-0.2637298 0.1873741,-0.3527832 0.09148,-0.062669 0.103135,-0.063829 0.580166,-0.060215 0.64525,0.00477 0.846808,0.061919 1.100534,0.3113491 0.25138,0.2471317 0.310831,0.4650495 0.299654,1.0983734 -0.0078,0.439136 -0.01118,0.466059 -0.07069,0.549445 -0.06437,0.09021 -0.235975,0.185922 -0.328125,0.182969 -0.02864,-6.82e-4 -0.0824,-0.01084 -0.119447,-0.02209 z M 6.9942996,9.7302893 C 6.6856304,9.5774959 6.6889583,9.1531577 7.0004369,8.981468 7.0682209,8.94403 7.1817009,8.93837 7.8598948,8.93837 c 0.7687882,0 0.7828564,6.819e-4 0.8771402,0.059601 0.1065584,0.066284 0.2036858,0.2378438 0.2036858,0.3598276 0,0.1383296 -0.1046286,0.3034864 -0.2334044,0.3684267 -0.1124094,0.056668 -0.1404504,0.058578 -0.8594509,0.058578 -0.7016454,-2.04e-5 -0.7494147,-0.00341 -0.8533,-0.054486 z"
       id="path1" /></g></svg>
