<?xml version="1.0" encoding="UTF-8" standalone="no"?>
<!-- Created with Inkscape (http://www.inkscape.org/) -->

<svg
   width="24"
   height="24"
   viewBox="0 0 24 24"
   version="1.1"
   id="svg1"
   xml:space="preserve"
   inkscape:version="1.4.3 (0d15f75, 2025-12-25)"
   sodipodi:docname="rename-group.svg"
   xmlns:inkscape="http://www.inkscape.org/namespaces/inkscape"
   xmlns:sodipodi="http://sodipodi.sourceforge.net/DTD/sodipodi-0.dtd"
   xmlns="http://www.w3.org/2000/svg"
   xmlns:svg="http://www.w3.org/2000/svg"><sodipodi:namedview
     id="namedview1"
     pagecolor="#ffffff"
     bordercolor="#000000"
     borderopacity="0.25"
     inkscape:showpageshadow="2"
     inkscape:pageopacity="0.0"
     inkscape:pagecheckerboard="0"
     inkscape:deskcolor="#d1d1d1"
     inkscape:document-units="px"
     inkscape:zoom="21.076301"
     inkscape:cx="13.33251"
     inkscape:cy="13.19017"
     inkscape:window-width="1920"
     inkscape:window-height="1010"
     inkscape:window-x="1913"
     inkscape:window-y="-6"
     inkscape:window-maximized="1"
     inkscape:current-layer="layer1" /><defs
     id="defs1" /><g
     inkscape:label="Vrstva 1"
     inkscape:groupmode="layer"
     id="layer1"><path
       style="fill:#000000;stroke-width:0.0226578"
       d="m 11.863991,21.99108 c -0.426359,-0.04104 -0.890113,-0.172866 -1.30783,-0.37174 -1.0817704,-0.515047 -1.8892825,-1.524741 -2.1570368,-2.697121 -0.1336215,-0.585074 -0.125982,-1.254504 0.020933,-1.834568 0.3528333,-1.393054 1.4518536,-2.517259 2.8123888,-2.876825 0.659106,-0.174191 1.269639,-0.187852 1.922235,-0.04299 1.470093,0.326254 2.672467,1.528825 2.998659,2.99915 0.307352,1.385405 -0.119758,2.780528 -1.14912,3.753536 -0.865023,0.817662 -1.944547,1.1857 -3.140232,1.070592 z m -1.10464,-1.660239 c 0.0401,-0.01698 0.09063,-0.05078 0.112286,-0.07512 0.02166,-0.02431 0.124301,-0.288294 0.228099,-0.586564 l 0.188723,-0.542304 h 0.983754 0.983754 l 0.142419,0.396511 c 0.269799,0.751155 0.261077,0.731186 0.343737,0.786892 0.06764,0.04559 0.104163,0.05144 0.320484,0.05144 0.229601,0 0.248299,-0.0037 0.313857,-0.05863 0.05273,-0.0444 0.06972,-0.07747 0.06972,-0.135882 0,-0.07368 -0.175518,-0.56953 -0.596823,-1.686055 -0.105801,-0.280392 -0.284156,-0.754506 -0.396343,-1.053585 -0.480823,-1.281842 -0.733097,-1.927115 -0.769354,-1.967877 -0.07021,-0.07894 -0.173921,-0.105312 -0.414139,-0.105312 -0.239285,0 -0.364028,0.0341 -0.404791,0.110575 -0.01076,0.02016 -0.253888,0.65866 -0.540297,1.418829 -0.286409,0.760161 -0.680709,1.80316 -0.876224,2.317755 -0.370813,0.975988 -0.381693,1.017381 -0.288729,1.09826 0.05993,0.05211 0.09208,0.05826 0.316652,0.06019 0.130566,0.0015 0.237958,-0.0099 0.283222,-0.02906 z m 0.823426,-2.03666 c 0.01913,-0.05293 0.119669,-0.341005 0.223415,-0.640083 0.393615,-1.134724 0.453927,-1.30242 0.468496,-1.302621 0.0082,-1.11e-4 0.05069,0.104304 0.09432,0.232039 0.04364,0.127735 0.152308,0.436161 0.241494,0.685397 0.164197,0.458859 0.385573,1.098038 0.385573,1.113257 0,0.0044 -0.32582,0.0083 -0.724044,0.0083 h -0.724044 z m 8.062683,-0.359877 c -0.09984,-0.01705 -0.301202,-0.103651 -1.959222,-0.84262 -0.883044,-0.393561 -1.151586,-0.522593 -1.1765,-0.565297 -0.02987,-0.05122 -0.02394,-0.07422 0.07895,-0.307181 0.09546,-0.216139 0.119907,-0.253751 0.172425,-0.265285 0.06186,-0.01356 0.306474,0.08929 1.672834,0.703544 1.077798,0.484521 1.341708,0.600122 1.370089,0.600122 0.06756,0 0.129469,-0.09738 0.27368,-0.430498 0.08362,-0.193159 0.378661,-0.860996 0.655643,-1.484083 0.613318,-1.379697 0.842637,-1.898435 1.151877,-2.605648 0.241478,-0.552236 0.447755,-1.015498 0.842425,-1.89192 0.365675,-0.812042 0.445306,-1.0003314 0.43472,-1.0279214 C 23.153679,9.7948339 22.435275,9.4709078 21.872687,9.2359855 21.579972,9.1137507 21.460008,8.9622284 21.460695,8.7156016 21.461082,8.5763399 21.476313,8.5344361 21.740681,7.9452404 22.129065,7.079656 22.176498,6.9657159 22.156241,6.9470434 22.138902,6.9310321 21.828307,6.8003468 20.609091,6.2959149 20.278854,6.1592846 19.700842,5.9188029 19.32462,5.761521 18.948398,5.6042317 18.611158,5.4755404 18.575199,5.4755404 c -0.05917,0 -0.163912,0.077299 -0.163912,0.1209747 0,0.00882 -0.08769,0.2274131 -0.194859,0.4856852 -0.696662,1.6788798 -0.910846,2.183245 -0.939807,2.2131032 -0.01275,0.01312 -0.02088,-0.311925 -0.02088,-0.8344882 V 6.6048081 l 0.286284,-0.6949152 c 0.157457,-0.3822044 0.315177,-0.737071 0.35049,-0.7886038 0.182765,-0.2666929 0.535412,-0.4080005 0.847308,-0.3395149 0.07477,0.016382 0.569277,0.2109422 1.098903,0.4322696 0.529625,0.2213273 1.044523,0.4359907 1.144217,0.4770272 0.09969,0.041066 0.334202,0.1376088 0.521129,0.2146189 0.186927,0.077003 0.527783,0.2164054 0.75746,0.3097753 0.229675,0.093377 0.464593,0.1935892 0.522038,0.2226987 0.110635,0.05604 0.269073,0.212447 0.324823,0.32062 0.0507,0.098359 0.711337,2.1246849 0.80774,2.4774907 0.02547,0.093214 0.04619,0.2308602 0.04604,0.3058837 -4.83e-4,0.2449738 -0.01449,0.2814812 -0.612881,1.5980447 -0.189693,0.417348 -0.476209,1.059604 -0.636702,1.427227 -0.160493,0.367617 -0.727475,1.651527 -1.259961,2.85312 -0.940137,2.12149 -0.971545,2.188145 -1.085294,2.303123 -0.176504,0.178408 -0.447542,0.257494 -0.721875,0.210631 z M 23.078516,8.8118995 C 23.042749,8.7028592 22.940371,8.3893331 22.851013,8.1151757 22.761655,7.8410183 22.681332,7.608861 22.672516,7.5992764 c -0.02044,-0.022238 -0.463083,0.9666338 -0.450117,1.0055281 0.0079,0.023646 0.853476,0.4011734 0.905763,0.4044054 0.0085,5.189e-4 -0.01388,-0.08827 -0.04964,-0.1973104 z M 4.425327,17.882482 C 4.1518182,17.77001 4.0545655,17.653712 3.8985022,17.252479 3.8390081,17.099519 3.5512789,16.367704 3.2591116,15.62623 2.9669444,14.884748 2.6255785,14.018089 2.5005217,13.700315 2.1954994,12.92524 1.0633534,10.096826 0.56875069,8.8742104 0.03846195,7.5633843 0.02939552,7.5362317 0.03992151,7.2905908 0.04651878,7.1361183 0.06169992,7.0662613 0.1128399,6.9545895 0.19043123,6.7851508 0.3634799,6.6124209 0.53768866,6.5305183 0.60436559,6.4991628 1.44401,6.1619161 2.403567,5.7810608 3.3631239,5.4002055 4.3827234,4.992242 4.6693445,4.8744696 5.2547983,4.6339063 5.3736093,4.6026249 5.5679219,4.6378573 c 0.1946018,0.035284 0.2358733,0.055891 1.078313,0.5386117 l 0.776029,0.4446561 v 0.3916927 c 0,0.2154343 -0.00563,0.3916926 -0.012535,0.3916926 -0.00985,0 -0.6620963,-0.3678831 -1.4120972,-0.7964686 -0.042074,-0.024017 -0.079456,-0.04077 -0.083075,-0.037138 -0.00712,0.00741 0.4339545,1.2401464 0.4490296,1.2552237 0.00504,0.00519 0.2416692,-0.082681 0.5258641,-0.194916 0.2841957,-0.1122278 0.5203402,-0.2040559 0.5247656,-0.2040559 0.00445,0 0.00804,0.1674966 0.00804,0.372227 V 7.1716027 L 7.3033055,7.2164493 C 7.2378813,7.2411335 7.0110204,7.3300262 6.7991701,7.4139969 6.5873198,7.4979601 6.3680317,7.5713233 6.3118629,7.5770236 6.1574786,7.5926643 6.0252144,7.5472247 5.9114419,7.4393408 5.8067113,7.3400555 5.7615637,7.2262044 5.2539703,5.7813795 5.1970559,5.6193757 5.1432785,5.4787797 5.1344663,5.4689431 5.1256526,5.4590843 4.7421021,5.6030975 4.2821314,5.788933 2.8343407,6.3738516 0.86300754,7.1521741 0.82931994,7.1521741 c -0.03819,0 -0.11376215,0.1199518 -0.11376215,0.1805651 0,0.033654 0.12314733,0.3661857 0.27366076,0.7389835 C 1.5252188,9.399331 2.7313202,12.409555 3.021979,13.145159 c 0.162493,0.411232 0.4023194,1.017899 0.5329469,1.348134 0.3520075,0.889905 0.6889613,1.744066 0.887388,2.249477 0.1746602,0.444886 0.2037652,0.492112 0.303244,0.492112 0.024869,0 0.369651,-0.13798 0.7661894,-0.306618 1.8230946,-0.77532 2.2528905,-0.94745 2.312286,-0.92602 0.044869,0.01616 0.075247,0.06716 0.1457545,0.244589 0.093688,0.23576 0.098603,0.316506 0.023298,0.382619 -0.021104,0.01853 -0.3136588,0.148254 -0.650127,0.288279 -0.3364676,0.140033 -0.9482282,0.397637 -1.3594666,0.572465 -1.0012138,0.425628 -1.0622764,0.447206 -1.2638231,0.446539 -0.1194054,-3.93e-4 -0.1989418,-0.01505 -0.2943473,-0.05434 z M 8.4609932,15.41339 C 8.1345869,15.296789 7.921727,15.031111 7.8731363,14.679647 c -0.012661,-0.09157 -0.018665,-2.506563 -0.015055,-6.0546726 0.00563,-5.524074 0.00852,-5.9096808 0.045158,-6.0166678 0.086481,-0.252505 0.281258,-0.4564942 0.5329106,-0.558107 l 0.1303293,-0.05263 2.6736178,-0.00741 c 1.909415,-0.00519 2.716115,6.68e-5 2.822297,0.018309 0.250172,0.042919 0.332028,0.1072687 0.885356,0.6957899 0.278681,0.2964027 0.786229,0.8346957 1.127884,1.1961966 0.475987,0.5036387 0.634875,0.6864128 0.679733,0.7818953 l 0.05855,0.1246217 0.0067,4.894079 c 0.0049,3.5779682 -2.04e-4,4.9306382 -0.019,5.0300272 -0.07509,0.397378 -0.395893,0.688711 -0.781325,0.709548 l -0.15921,0.0086 -0.137818,-0.16792 c -0.0758,-0.09235 -0.200047,-0.23444 -0.276105,-0.315749 -0.105082,-0.112332 -0.131961,-0.154147 -0.111945,-0.174168 0.01729,-0.01727 0.126726,-0.02632 0.318602,-0.02632 0.322641,0 0.420239,-0.02654 0.465901,-0.126779 0.01902,-0.04173 0.0258,-1.275779 0.0258,-4.6993337 V 5.2962428 l -1.036593,-0.00667 c -1.02044,-0.00667 -1.038055,-0.00749 -1.130454,-0.056929 -0.125895,-0.067307 -0.247042,-0.2135145 -0.277636,-0.3350155 -0.01646,-0.06538 -0.02501,-0.459904 -0.02501,-1.1545152 V 2.6879409 l -2.505648,0.00593 -2.5056496,0.00593 -0.054683,0.063601 -0.054676,0.063601 v 5.9084653 5.9084654 l 0.058397,0.05493 c 0.05455,0.0513 0.077705,0.05545 0.3511957,0.06241 0.1819832,0.0044 0.2927951,0.01631 0.2927951,0.03091 0,0.0129 -0.079019,0.107254 -0.1755979,0.20966 -0.096578,0.102413 -0.2163816,0.243491 -0.2662288,0.313519 -0.084192,0.118269 -0.097069,0.12732 -0.1812619,0.127409 -0.04985,4.4e-5 -0.1279055,-0.01319 -0.1734638,-0.0295 z M 15.760328,4.578341 c 0,-0.011934 -0.634506,-0.6899931 -1.185295,-1.266617 l -0.194784,-0.203915 -10e-4,0.7420375 -10e-4,0.7420449 h 0.691062 c 0.380084,0 0.691062,-0.00593 0.691062,-0.013565 z"
       id="path1" /></g></svg>
