<?xml version="1.0" encoding="UTF-8" standalone="no"?>
<!-- Created with Inkscape (http://www.inkscape.org/) -->

<svg
   width="24"
   height="24"
   viewBox="0 0 24 24"
   version="1.1"
   id="svg1"
   xml:space="preserve"
   inkscape:version="1.4.3 (0d15f75, 2025-12-25)"
   sodipodi:docname="replace-selection.svg"
   xmlns:inkscape="http://www.inkscape.org/namespaces/inkscape"
   xmlns:sodipodi="http://sodipodi.sourceforge.net/DTD/sodipodi-0.dtd"
   xmlns="http://www.w3.org/2000/svg"
   xmlns:svg="http://www.w3.org/2000/svg"><sodipodi:namedview
     id="namedview1"
     pagecolor="#ffffff"
     bordercolor="#000000"
     borderopacity="0.25"
     inkscape:showpageshadow="2"
     inkscape:pageopacity="0.0"
     inkscape:pagecheckerboard="0"
     inkscape:deskcolor="#d1d1d1"
     inkscape:document-units="px"
     inkscape:zoom="12.625"
     inkscape:cx="15.920792"
     inkscape:cy="24.712871"
     inkscape:window-width="1920"
     inkscape:window-height="1010"
     inkscape:window-x="1913"
     inkscape:window-y="-6"
     inkscape:window-maximized="1"
     inkscape:current-layer="layer1" /><defs
     id="defs1" /><g
     inkscape:label="Vrstva 1"
     inkscape:groupmode="layer"
     id="layer1"><path
       style="fill:#000000;stroke-width:0.0266204"
       d="M 1.6769322,23.319871 C 1.2867115,23.236672 0.97691996,23.069985 0.68873496,22.788162 0.41495706,22.520427 0.26148219,22.266077 0.140048,21.878837 L 0.06640039,21.643983 0.05870333,12.167135 C 0.05359029,5.8719707 0.06009962,2.6045753 0.07809222,2.4349914 0.12971501,1.9484355 0.31668612,1.557153 0.66315454,1.2106066 0.89082196,0.98288822 1.1432896,0.82449911 1.4533438,0.71486934 L 1.663622,0.6405186 h 4.4988408 4.4988412 l 0.153334,0.0718557 c 0.164405,0.077043 -0.01912,-0.10460923 3.361537,3.32730856 1.395924,1.4170929 1.420513,1.4471663 1.475893,1.805116 0.0172,0.1111857 0.02664,1.8476593 0.02639,4.8582161 -3.5e-4,4.511722 -0.0022,4.689223 -0.04994,4.794298 -0.06955,0.153143 -0.190782,0.232143 -0.373462,0.243363 -0.181041,0.01112 -0.32978,-0.06442 -0.404931,-0.20565 -0.04751,-0.08929 -0.04936,-0.264489 -0.04936,-4.691839 V 6.2441038 h -1.75331 c -1.054002,0 -1.810502,-0.010602 -1.8967,-0.026585 C 10.671294,6.1286128 10.226551,5.7045009 10.117851,5.232531 10.100301,5.15632 10.090021,4.4564708 10.089611,3.308801 l -6.1e-4,-1.8039387 -4.1328113,0.00707 -4.1328108,0.00707 -0.1996528,0.097376 C 1.3159139,1.7665049 1.1290779,1.969756 1.0232603,2.2696025 L 0.9593457,2.4507119 0.9587872,11.971342 c -5.6034e-4,9.463093 -2.3562e-4,9.521676 0.0529639,9.693924 0.1275155,0.412847 0.4997423,0.730624 0.9238076,0.788674 0.1028323,0.01407 1.6198068,0.02526 3.5215081,0.02596 1.8374696,7.21e-4 3.7194215,0.0016 4.1821141,0.0019 0.8280321,7.22e-4 0.8426431,0.0017 0.9292661,0.06059 0.149697,0.101883 0.198494,0.190593 0.198494,0.360851 0,0.194527 -0.07672,0.326072 -0.234795,0.402596 -0.113793,0.05508 -0.117222,0.05513 -4.39801,0.05301 -3.5442924,-0.0018 -4.3140094,-0.0085 -4.4571604,-0.03901 z M 13.908534,5.0395615 C 13.747731,4.8748629 13.030843,4.1516637 12.315452,3.4324517 11.600061,2.7132398 11.004281,2.1082794 10.991497,2.088096 c -0.01341,-0.021169 -0.02342,0.5952972 -0.02365,1.4567606 l -4.36e-4,1.4934578 0.06053,0.08982 c 0.03329,0.049401 0.100947,0.1170572 0.150348,0.1503482 l 0.08982,0.060529 h 1.466384 1.466384 z m -0.05279,17.1367955 c -0.07673,-0.02711 -0.173415,-0.110171 -0.346065,-0.297289 -0.13177,-0.142815 -0.657734,-0.709341 -1.168807,-1.258948 -0.511073,-0.549607 -0.950963,-1.034832 -0.977534,-1.078279 -0.06677,-0.109166 -0.08694,-0.27569 -0.05002,-0.412812 0.03448,-0.128059 0.290622,-0.403753 1.749203,-1.882743 0.719318,-0.729383 0.773991,-0.778724 0.886393,-0.799965 0.354681,-0.06702 0.611177,0.188551 0.526557,0.524666 -0.02606,0.103522 -0.08398,0.17143 -0.453736,0.532015 -0.233123,0.22734 -0.627636,0.626152 -0.876695,0.88625 l -0.452834,0.472903 h 4.916923 4.916924 l -0.861195,-0.880496 c -0.709844,-0.72575 -0.867681,-0.90059 -0.898081,-0.994829 -0.06367,-0.197361 0.01935,-0.421899 0.188772,-0.510585 0.111345,-0.05828 0.302431,-0.05891 0.412339,-0.0014 0.111927,0.05861 2.455201,2.468021 2.522425,2.593618 0.06972,0.130267 0.0703,0.336659 0.0013,0.465108 -0.08278,0.154107 -2.401225,2.602259 -2.505748,2.645931 -0.336241,0.140489 -0.699572,-0.158843 -0.599249,-0.493694 0.04033,-0.134627 0.09863,-0.202966 0.853149,-1.000196 0.346421,-0.366031 0.694068,-0.73439 0.772549,-0.818577 l 0.142694,-0.153068 H 17.63969 c -2.703424,0 -4.915116,0.009 -4.91487,0.01997 2.62e-4,0.01098 0.367298,0.409288 0.815674,0.885126 0.448374,0.47584 0.837451,0.901101 0.864615,0.945024 0.07133,0.115335 0.0663,0.32635 -0.01053,0.441954 -0.06648,0.100038 -0.259897,0.21089 -0.364801,0.209076 -0.03716,-6.1e-4 -0.115482,-0.0181 -0.174047,-0.0388 z M 4.665543,16.89344 C 4.502073,16.8346 4.401543,16.767195 4.2931322,16.643722 4.0987213,16.4223 4.0358629,16.153115 4.0502584,15.60364 c 0.00741,-0.282704 0.018542,-0.365255 0.057228,-0.42425 0.1559865,-0.237874 0.5465221,-0.237886 0.7025469,-2.1e-5 0.039532,0.06027 0.049635,0.14259 0.05709,0.465176 0.011762,0.509 -0.011703,0.485146 0.4871081,0.495172 0.415473,0.0083 0.4963061,0.03259 0.5830365,0.174831 0.069752,0.114396 0.070601,0.349549 0.00166,0.454148 -0.1080737,0.163925 -0.1559885,0.17652 -0.6682271,0.175658 -0.3877913,-6.11e-4 -0.4891962,-0.0092 -0.6051379,-0.05091 z m 2.4286325,0.02665 C 6.9698837,16.86868 6.8679021,16.697169 6.8679021,16.539544 c 0,-0.119816 0.092465,-0.293047 0.1858699,-0.348222 0.071343,-0.04214 0.1617221,-0.04807 0.793028,-0.05204 0.6663095,-0.0042 0.7183214,-0.0011 0.8021625,0.04814 0.1386336,0.08138 0.1951626,0.206948 0.1793223,0.398334 -0.01195,0.144415 -0.023262,0.168759 -0.120593,0.259548 l -0.1074046,0.100185 -0.7264353,-0.0017 c -0.3995395,-9.43e-4 -0.7503942,-0.0116 -0.7796764,-0.02371 z m 2.7930075,-0.0237 c -0.2279621,-0.142093 -0.2244365,-0.566629 0.00583,-0.701902 0.060624,-0.03561 0.162117,-0.04798 0.46527,-0.0567 0.38775,-0.01114 0.482002,-0.03176 0.512854,-0.112155 0.009,-0.02357 0.01644,-0.200778 0.01644,-0.393805 0,-0.289061 0.0086,-0.366954 0.04864,-0.441657 0.134403,-0.250611 0.565317,-0.250356 0.702541,4.37e-4 0.04458,0.08147 0.04902,0.143261 0.04194,0.58359 -0.0077,0.476073 -0.01036,0.497466 -0.08145,0.642254 -0.08671,0.176611 -0.29022,0.37637 -0.466307,0.45772 -0.113129,0.05226 -0.177021,0.05877 -0.644672,0.06568 -0.473494,0.007 -0.5262996,0.0032 -0.6010883,-0.04344 z M 4.2405881,14.018421 c -0.1778397,-0.108436 -0.1802534,-0.120292 -0.189389,-0.930263 -0.00931,-0.825711 0.00589,-0.919703 0.1643847,-1.016349 0.1163686,-0.07096 0.3664626,-0.06972 0.4831401,0.0024 0.1510014,0.09332 0.1593413,0.145111 0.1593413,0.989443 0,0.730207 -0.0024,0.766673 -0.055133,0.838541 -0.1195786,0.162962 -0.3930176,0.219483 -0.5623441,0.116238 z m 6.8349729,0.0034 c -0.179767,-0.09641 -0.187985,-0.13941 -0.187985,-0.983802 0,-0.816973 0.0048,-0.847944 0.149471,-0.961731 0.05358,-0.04214 0.108762,-0.05559 0.228126,-0.05559 0.187004,0 0.297145,0.05007 0.368852,0.16767 0.04838,0.07935 0.05196,0.138399 0.05196,0.857214 0,0.708454 -0.0041,0.778739 -0.05,0.853982 -0.09811,0.160898 -0.375538,0.221418 -0.560429,0.122259 z M 4.2646135,11.035972 c -0.090882,-0.04125 -0.1256249,-0.0775 -0.1696619,-0.177058 -0.050862,-0.114981 -0.054327,-0.16117 -0.042495,-0.56647 0.010757,-0.3684724 0.022426,-0.4660834 0.070724,-0.5916084 0.080866,-0.210169 0.2353774,-0.3754818 0.4495035,-0.480928 l 0.1776726,-0.087494 h 0.5108799 c 0.5081899,0 0.5112545,3.49e-4 0.5821353,0.066551 0.1043416,0.097452 0.1460716,0.1941101 0.145959,0.3380874 -1.748e-4,0.1546658 -0.069068,0.2791285 -0.1917207,0.3460941 -0.071318,0.038935 -0.1562386,0.048527 -0.4547599,0.051346 -0.4882834,0.0046 -0.4639056,-0.020183 -0.4761618,0.4843059 -0.011142,0.458618 -0.038864,0.537741 -0.2166964,0.618479 -0.1414901,0.06424 -0.241711,0.0639 -0.3853784,-0.0013 z m 6.8796515,0.02703 c -0.04184,-0.01329 -0.09996,-0.04579 -0.129173,-0.07222 -0.108864,-0.09852 -0.127516,-0.177227 -0.127516,-0.538088 0,-0.373412 -0.0246,-0.4735395 -0.122382,-0.49808 C 10.732184,9.946334 10.537448,9.937632 10.332443,9.935285 10.001329,9.9315167 9.9513164,9.9248648 9.8845788,9.8758915 9.672827,9.7204939 9.6613069,9.3835494 9.8614331,9.198965 9.9334281,9.132563 9.9347841,9.132414 10.470478,9.132414 c 0.532385,0 0.538144,6.102e-4 0.686615,0.07353 0.176575,0.086714 0.37643,0.2903413 0.457769,0.4664047 0.05206,0.1126912 0.0588,0.1774676 0.0657,0.6313623 0.0071,0.466426 0.0036,0.512406 -0.04532,0.590855 -0.02915,0.04679 -0.0813,0.103616 -0.115894,0.126281 -0.07912,0.05184 -0.27521,0.07388 -0.375087,0.04216 z M 7.1207958,9.9062861 C 6.8045165,9.788264 6.779879,9.3146819 7.0818941,9.1585043 c 0.061622,-0.031867 0.2105623,-0.039401 0.7790135,-0.039401 0.6863713,0 0.7049417,0.00139 0.7932772,0.060426 0.2401391,0.160424 0.2436892,0.5408811 0.00641,0.6875258 -0.085717,0.052977 -0.1353226,0.057387 -0.7625014,0.067812 -0.5498392,0.00914 -0.6900245,0.00399 -0.777302,-0.028583 z"
       id="path1" /></g></svg>
