<?xml version="1.0" encoding="UTF-8" standalone="no"?>
<!-- Created with Inkscape (http://www.inkscape.org/) -->

<svg
   width="24"
   height="24"
   viewBox="0 0 24 24"
   version="1.1"
   id="svg1"
   xml:space="preserve"
   inkscape:version="1.4.3 (0d15f75, 2025-12-25)"
   sodipodi:docname="reset-rotation.svg"
   xmlns:inkscape="http://www.inkscape.org/namespaces/inkscape"
   xmlns:sodipodi="http://sodipodi.sourceforge.net/DTD/sodipodi-0.dtd"
   xmlns="http://www.w3.org/2000/svg"
   xmlns:svg="http://www.w3.org/2000/svg"><sodipodi:namedview
     id="namedview1"
     pagecolor="#ffffff"
     bordercolor="#000000"
     borderopacity="0.25"
     inkscape:showpageshadow="2"
     inkscape:pageopacity="0.0"
     inkscape:pagecheckerboard="0"
     inkscape:deskcolor="#d1d1d1"
     inkscape:document-units="px"
     inkscape:zoom="16.636692"
     inkscape:cx="-5.2294049"
     inkscape:cy="8.1747019"
     inkscape:window-width="1920"
     inkscape:window-height="1010"
     inkscape:window-x="1913"
     inkscape:window-y="-6"
     inkscape:window-maximized="1"
     inkscape:current-layer="layer1" /><defs
     id="defs1"><pattern
       id="EMFhbasepattern"
       patternUnits="userSpaceOnUse"
       width="6"
       height="6"
       x="0"
       y="0" /></defs><g
     inkscape:label="Vrstva 1"
     inkscape:groupmode="layer"
     id="layer1"><path
       style="fill:#000000;stroke-width:0.0272713"
       d="M 3.9028826,23.911148 C 3.6680715,23.86006 3.4761302,23.774448 3.2192952,23.606273 2.7766664,23.316419 2.4640266,22.848506 2.3658766,22.329017 2.3430886,22.208465 2.3370749,19.482535 2.3429912,11.965916 L 2.3510651,1.7664654 2.427865,1.548288 C 2.5714532,1.1404007 2.8101579,0.79203787 3.1153182,0.54501696 3.3262889,0.37423914 3.7082421,0.18635291 4.000974,0.10934419 L 4.2327797,0.048372 h 5.4815283 5.481529 l 0.18385,0.07155184 c 0.409785,0.15943254 0.355282,0.10899824 3.136737,2.89925566 1.451343,1.4559129 2.695717,2.7207379 2.765275,2.8107346 0.143165,0.1852274 0.261902,0.4281417 0.330652,0.6764433 0.0437,0.1578038 0.04679,0.684211 0.04679,7.9685506 v 7.799582 l -0.06281,0.216953 c -0.202949,0.700971 -0.742249,1.227977 -1.438964,1.406175 -0.197646,0.05053 -0.304872,0.05401 -1.64753,0.05401 h -1.436179 l -0.147877,-0.07503 c -0.355381,-0.180229 -0.478667,-0.599921 -0.282243,-0.960813 0.08743,-0.160657 0.195229,-0.250167 0.374551,-0.311055 0.112172,-0.03814 0.308347,-0.04399 1.465725,-0.04399 1.457139,0 1.448898,8.07e-4 1.616492,-0.158264 0.04262,-0.04051 0.103987,-0.12264 0.136352,-0.182638 l 0.05886,-0.109137 V 14.665634 7.2205812 l -2.20898,-0.014199 C 16.042388,7.1938537 15.866372,7.1885638 15.727573,7.1423475 15.185434,6.9621872 14.730432,6.5545922 14.525996,6.0659377 14.36613,5.6838174 14.364009,5.6496145 14.364009,3.4546434 V 1.4526117 H 9.3509499 c -5.5181018,0 -5.1423795,-0.011136 -5.358402,0.1663929 -0.055418,0.045659 -0.1345008,0.1404448 -0.1757363,0.2105907 L 3.7418492,1.9571079 3.728207,11.965666 c -0.00752,5.504717 -0.00334,10.061205 0.00919,10.125546 0.027479,0.140445 0.1604919,0.323139 0.2911283,0.399883 0.091542,0.05373 0.1464599,0.05638 1.4858854,0.06946 1.3606766,0.01392 1.3932007,0.01489 1.4999201,0.07253 0.2512737,0.135865 0.3787055,0.345481 0.3785775,0.622821 -1.1e-4,0.216451 -0.057172,0.356172 -0.206473,0.505471 -0.1937816,0.193788 -0.1492455,0.188916 -1.7129317,0.187176 -1.0598693,-0.0012 -1.4452567,-0.01114 -1.5706966,-0.03772 z M 19.381934,5.8224248 c 0,-0.026867 -3.609082,-3.6332606 -3.635974,-3.6332606 -0.011,0 -0.01658,0.7332532 -0.01239,1.629461 0.0072,1.5345643 0.01058,1.6355025 0.0592,1.7332668 0.06053,0.1218052 0.199402,0.2355503 0.323789,0.2650898 0.116098,0.027563 3.265364,0.032853 3.265364,0.00557 z M 11.459626,21.71388 C 10.354754,21.605717 9.24975,21.168402 8.3191528,20.471189 8.0114535,20.24065 7.4777073,19.712698 7.2254342,19.389336 6.7085904,18.726841 6.3251408,17.945033 6.1159407,17.127198 6.0127613,16.723863 5.9742723,16.481575 5.9377878,16.005881 c -0.013642,-0.177905 -0.031433,-0.330085 -0.039535,-0.338187 -0.00807,-0.0084 -0.1039033,0.05304 -0.2128834,0.135726 -0.2462901,0.187079 -0.2737749,0.201208 -0.4559607,0.234311 -0.2895984,0.05262 -0.5535537,-0.07796 -0.6720806,-0.332507 -0.082006,-0.176137 -0.085974,-0.391781 -0.010301,-0.558606 0.02972,-0.06557 0.2227336,-0.309343 0.428924,-0.541887 0.2061891,-0.232529 0.5753075,-0.651428 0.8202612,-0.930856 0.5201526,-0.593379 0.6261218,-0.672991 0.890922,-0.669357 0.2483949,0.0028 0.4070576,0.10162 0.5866152,0.362951 0.099602,0.144983 0.5987497,0.737986 1.0201928,1.211997 0.2111977,0.237541 0.4077467,0.476849 0.4367753,0.531794 0.037071,0.07016 0.053302,0.157344 0.054541,0.292889 0.00153,0.168913 -0.00849,0.209658 -0.080767,0.326536 -0.1217773,0.197032 -0.2956525,0.295506 -0.5420483,0.30699 -0.2164861,0.0097 -0.2876426,-0.01921 -0.6713874,-0.275948 -0.1078428,-0.07211 -0.2033395,-0.123893 -0.2122208,-0.115123 -0.00891,0.0084 -0.00117,0.182012 0.01715,0.384738 0.078554,0.869702 0.4097109,1.739976 0.9250248,2.430925 0.9601324,1.28739 2.5911161,2.025682 4.1846711,1.894286 0.691763,-0.05707 1.207664,-0.200874 1.83561,-0.511791 0.524472,-0.259688 0.835355,-0.482654 1.299941,-0.932331 0.21496,-0.208071 0.417757,-0.380325 0.47676,-0.404978 0.128543,-0.05373 0.377518,-0.0554 0.501616,-0.0028 0.250782,0.1051 0.389721,0.315858 0.391009,0.593198 0.0012,0.248719 -0.06607,0.36735 -0.404626,0.714001 -0.652696,0.668286 -1.416356,1.184378 -2.223793,1.502839 -0.872784,0.344243 -1.901442,0.489894 -2.822579,0.399674 z m 5.753669,-4.234727 c -0.162417,-0.05318 -0.247004,-0.11749 -0.35938,-0.273442 -0.161271,-0.223746 -0.532629,-0.673172 -1.01195,-1.224692 -0.244707,-0.281558 -0.463817,-0.557158 -0.486914,-0.612437 -0.02309,-0.05526 -0.04199,-0.17242 -0.04199,-0.260343 0,-0.387104 0.340729,-0.685519 0.724589,-0.634598 0.149279,0.01977 0.247941,0.06807 0.506392,0.24748 0.09657,0.0671 0.187329,0.121945 0.201684,0.121945 0.04633,0 -0.0028,-0.650649 -0.07541,-0.998469 -0.179543,-0.860195 -0.571016,-1.616306 -1.147275,-2.215879 -0.706515,-0.735105 -1.547014,-1.196072 -2.551886,-1.399577 -0.273241,-0.0554 -0.390489,-0.06306 -0.952475,-0.06306 -0.736243,5.6e-5 -1.010621,0.04079 -1.595369,0.236483 -0.775454,0.259633 -1.3755053,0.626134 -2.0377663,1.244654 -0.3094812,0.289047 -0.4054582,0.341709 -0.6239711,0.342447 -0.3850575,0.0013 -0.6924659,-0.339621 -0.6415082,-0.711398 0.029136,-0.212568 0.1140514,-0.343964 0.3990658,-0.617532 1.0550973,-1.0127088 2.2293981,-1.6093454 3.6132328,-1.8357916 0.415176,-0.067932 1.374843,-0.067236 1.799905,0.00135 1.441304,0.2325156 2.717395,0.9186477 3.671844,1.9743026 0.666683,0.737373 1.154559,1.677152 1.372969,2.644689 0.07997,0.354279 0.150366,0.916003 0.150366,1.1999 0,0.124032 0.011,0.197881 0.02958,0.197881 0.01627,0 0.135921,-0.07322 0.265895,-0.162607 0.326055,-0.224358 0.539572,-0.263767 0.781737,-0.144245 0.274681,0.135587 0.415885,0.455997 0.330443,0.749903 -0.05325,0.183153 -0.04513,0.172977 -0.976688,1.225095 -0.545834,0.61646 -0.813375,0.898547 -0.884316,0.932374 -0.135907,0.06487 -0.32657,0.07949 -0.460815,0.03564 z"
       id="path1" /></g></svg>
