<?xml version="1.0" encoding="UTF-8" standalone="no"?>
<!-- Created with Inkscape (http://www.inkscape.org/) -->

<svg
   width="32"
   height="32"
   viewBox="0 0 32 32"
   version="1.1"
   id="svg1"
   inkscape:version="1.4.3 (0d15f75, 2025-12-25)"
   sodipodi:docname="restore-removed-items.svg"
   xml:space="preserve"
   xmlns:inkscape="http://www.inkscape.org/namespaces/inkscape"
   xmlns:sodipodi="http://sodipodi.sourceforge.net/DTD/sodipodi-0.dtd"
   xmlns="http://www.w3.org/2000/svg"
   xmlns:svg="http://www.w3.org/2000/svg"><sodipodi:namedview
     id="namedview1"
     pagecolor="#ffffff"
     bordercolor="#000000"
     borderopacity="0.25"
     inkscape:showpageshadow="2"
     inkscape:pageopacity="0.0"
     inkscape:pagecheckerboard="0"
     inkscape:deskcolor="#d1d1d1"
     inkscape:document-units="px"
     inkscape:zoom="9.5449786"
     inkscape:cx="38.240002"
     inkscape:cy="42.32592"
     inkscape:window-width="1920"
     inkscape:window-height="1010"
     inkscape:window-x="1913"
     inkscape:window-y="-6"
     inkscape:window-maximized="1"
     inkscape:current-layer="layer1" /><defs
     id="defs1" /><g
     inkscape:label="Vrstva 1"
     inkscape:groupmode="layer"
     id="layer1"><path
       style="fill:#000000;stroke-width:0.0340754"
       d="m 25.165275,31.943381 c -0.09439,-0.02525 -0.300914,-0.217528 -0.956927,-0.890959 -0.460109,-0.472323 -0.856653,-0.89636 -0.881209,-0.942299 -0.06155,-0.115156 -0.05601,-0.408126 0.01004,-0.530628 0.03008,-0.05579 0.434785,-0.488174 0.899347,-0.960863 0.737096,-0.749991 0.86093,-0.86221 0.972441,-0.881235 0.291371,-0.0497 0.52715,0.08788 0.606931,0.354166 0.07455,0.248824 0.0094,0.378483 -0.397686,0.792049 -0.194736,0.197812 -0.354065,0.370967 -0.354065,0.384787 0,0.01382 0.79353,0.02065 1.7634,0.01517 l 1.763401,-0.01 0.158223,-0.07871 c 0.191462,-0.09525 0.385144,-0.282204 0.483283,-0.466491 0.05749,-0.107958 0.07274,-0.196756 0.07333,-0.426989 9.06e-4,-0.347081 0.02787,-0.287157 -0.735944,-1.634574 -0.857833,-1.513264 -0.790029,-1.373851 -0.772277,-1.587921 0.01642,-0.198076 0.08276,-0.316879 0.244265,-0.43746 0.07158,-0.05344 0.145115,-0.07025 0.307225,-0.07025 0.315138,0 0.390914,0.07178 0.744022,0.704795 0.160125,0.287055 0.492804,0.882265 0.739285,1.322692 0.541109,0.966876 0.598468,1.126907 0.598468,1.669694 0,0.315007 -0.01561,0.441989 -0.0796,0.64743 -0.20617,0.661914 -0.695799,1.163945 -1.368409,1.40308 -0.218426,0.07765 -0.247058,0.07898 -2.069585,0.09601 l -1.848094,0.01725 0.370657,0.396349 c 0.3095,0.330951 0.374548,0.419383 0.394247,0.535981 0.04411,0.261111 -0.110973,0.513468 -0.35933,0.584694 -0.132831,0.0381 -0.14183,0.03792 -0.305438,-0.0058 z m -6.848052,-1.562816 c -0.420195,-0.07277 -0.915476,-0.352599 -1.189506,-0.672053 -0.189249,-0.220619 -0.359395,-0.553877 -0.448377,-0.878215 -0.06142,-0.223884 -0.07127,-0.331046 -0.05778,-0.628858 0.02631,-0.581112 -0.0017,-0.522464 1.340426,-2.812417 0.230658,-0.393571 0.429106,-0.741158 0.440994,-0.772417 0.0189,-0.04969 -0.02121,-0.04555 -0.319041,0.03295 l -0.340656,0.0898 -0.164528,-0.06713 c -0.30794,-0.125635 -0.404973,-0.514035 -0.191733,-0.76746 0.04712,-0.05599 0.111496,-0.115632 0.143062,-0.132528 0.03157,-0.01687 0.496963,-0.147699 1.034214,-0.290679 1.102122,-0.293313 1.141959,-0.295925 1.363054,-0.08943 0.1185,0.110676 0.144202,0.167901 0.261724,0.582746 0.07168,0.253007 0.218103,0.740516 0.325392,1.083351 0.217526,0.695083 0.221988,0.779093 0.05169,0.973055 -0.130178,0.148261 -0.326321,0.208246 -0.514908,0.157464 -0.219249,-0.05904 -0.281527,-0.149525 -0.441365,-0.641285 -0.08011,-0.246454 -0.155558,-0.448097 -0.167672,-0.448097 -0.01211,0 -0.05829,0.06517 -0.102616,0.144818 -0.04433,0.07965 -0.243858,0.420832 -0.443406,0.758178 -1.149822,1.943832 -1.222078,2.097268 -1.155011,2.452627 0.06304,0.334005 0.23676,0.574959 0.524934,0.728082 l 0.170377,0.09053 1.471329,0.01703 c 1.425731,0.0165 1.47431,0.01925 1.567468,0.08832 0.166326,0.123329 0.249477,0.278581 0.249477,0.465805 0,0.228942 -0.106458,0.413535 -0.289634,0.502208 -0.134291,0.06501 -0.205932,0.06797 -1.552676,0.06415 -0.776539,-0.0023 -1.480891,-0.01597 -1.565228,-0.03058 z M 2.8849035,28.75974 C 2.3111864,28.605447 1.8462917,28.167749 1.6488042,27.595953 L 1.569172,27.365391 V 14.416748 C 1.569172,1.8559421 1.571062,1.4624883 1.632916,1.2806849 1.7847215,0.83436952 2.1353167,0.4152663 2.5161893,0.22482249 2.9526073,0.00660405 2.6000303,0.01706389 9.1679826,0.02747843 l 5.9631914,0.0094746 0.193962,0.09525211 c 0.106682,0.052386 0.274218,0.16739139 0.372304,0.25556206 0.14926,0.13417735 2.307642,2.3498022 4.835732,4.9639806 0.707751,0.731849 0.992279,1.0568665 1.097278,1.2534103 l 0.07727,0.1446448 0.0102,4.4298011 c 0.0072,3.13566 -6.8e-4,4.467295 -0.0271,4.558149 -0.153614,0.528605 -0.866819,0.579108 -1.094662,0.07752 -0.05953,-0.131056 -0.06259,-0.33 -0.0633,-4.116013 l -7.55e-4,-3.9783027 h -2.363588 c -1.465187,0 -2.433299,-0.013212 -2.546988,-0.034765 C 15.179774,7.6024063 14.742526,7.2876486 14.539961,6.9075914 14.330904,6.5153606 14.331452,6.5236311 14.3309,3.7597045 L 14.330523,1.2466442 H 8.7784547 c -3.8399273,0 -5.581651,0.011173 -5.647996,0.036238 -0.1305385,0.049321 -0.2819098,0.1963664 -0.3386481,0.3289697 -0.039559,0.092455 -0.046916,2.1033751 -0.046916,12.8222231 0,12.686769 1.358e-4,12.712841 0.068825,12.847475 0.037853,0.0742 0.1325655,0.177093 0.2104727,0.228652 l 0.1416513,0.09375 5.5397475,0.01702 c 5.2262009,0.01608 5.5460209,0.02046 5.6506339,0.07762 0.127228,0.06951 0.264531,0.264675 0.296979,0.422142 0.04653,0.225787 -0.107505,0.530493 -0.325048,0.642988 -0.144369,0.07466 -11.1649849,0.07084 -11.4431313,-0.004 z M 19.913087,6.4625066 c -0.01534,-0.042844 -4.317463,-4.4396563 -4.364489,-4.4605571 -0.04031,-0.01793 -0.0309,4.0457344 0.0097,4.1919193 0.01919,0.069078 0.08161,0.1649151 0.138726,0.2129715 l 0.103843,0.087378 h 2.061786 c 1.257496,0 2.057355,-0.012381 2.050428,-0.031708 z m 6.019169,16.8342824 c -0.562692,-0.145388 -1.063557,-0.290863 -1.113033,-0.323284 -0.263723,-0.172797 -0.257903,-0.697235 0.0093,-0.840249 0.183754,-0.09834 0.265997,-0.09782 0.684506,0.0044 0.227106,0.05546 0.420121,0.09363 0.428923,0.08483 0.02994,-0.02993 -1.60659,-2.998445 -1.725752,-3.130342 -0.375535,-0.415672 -1.047075,-0.416333 -1.439426,-0.0015 -0.06916,0.07313 -0.43422,0.693324 -0.829086,1.408496 -0.423498,0.76703 -0.750766,1.321061 -0.818706,1.385987 -0.215781,0.2062 -0.597285,0.187186 -0.796495,-0.0397 -0.113845,-0.129662 -0.159758,-0.298333 -0.130419,-0.479125 0.01691,-0.104176 0.84242,-1.617621 1.399513,-2.565775 0.451796,-0.768943 1.081898,-1.14546 1.912114,-1.142584 0.449457,0.0015 0.794198,0.09923 1.131576,0.32059 0.396392,0.260088 0.554735,0.475951 1.16473,1.587842 0.307154,0.559875 0.690436,1.258495 0.851738,1.552484 0.162838,0.296786 0.303073,0.516545 0.315301,0.494093 0.01211,-0.02223 0.06895,-0.204917 0.126305,-0.405952 0.05736,-0.201036 0.121326,-0.397365 0.142156,-0.436286 0.06393,-0.119448 0.239217,-0.203165 0.425391,-0.203165 0.22891,0 0.376837,0.09341 0.465555,0.293966 0.08248,0.186473 0.09612,0.120226 -0.306355,1.488106 -0.239391,0.813603 -0.281222,0.926268 -0.382844,1.031111 -0.109928,0.11342 -0.281319,0.187258 -0.423789,0.182578 -0.03748,-0.0011 -0.528535,-0.121193 -1.091227,-0.266581 z M 9.7472638,23.166696 C 9.6191374,23.135555 9.4495755,22.977177 9.3828153,22.826251 9.2724981,22.576865 9.3673388,22.277795 9.6021321,22.134638 c 0.1041417,-0.0635 0.1733178,-0.06772 1.1111329,-0.06784 1.086705,-1.36e-4 1.154538,0.01008 1.300825,0.196057 0.242897,0.308797 0.08497,0.79614 -0.288478,0.890177 -0.148703,0.03745 -1.8325899,0.04908 -1.9783482,0.01366 z M 6.7486307,23.135102 C 6.1193379,23.06257 5.6746079,22.771393 5.4220392,22.266539 5.2553424,21.933338 5.2261711,21.744966 5.2385409,21.081651 c 0.00974,-0.523176 0.017515,-0.586758 0.082056,-0.67377 0.2509418,-0.338233 0.6969401,-0.338226 0.9478441,1.5e-5 0.063642,0.08579 0.073158,0.157045 0.088744,0.66447 0.026612,0.866796 0.05684,0.900078 0.8405354,0.926056 0.5598826,0.01857 0.6144882,0.03609 0.7725975,0.247846 0.09019,0.120804 0.1151639,0.423301 0.045901,0.55598 -0.080617,0.154425 -0.2419617,0.289187 -0.3863422,0.322688 -0.1252614,0.02907 -0.6634089,0.03526 -0.8812461,0.01015 z m 7.0881203,-0.0168 c -0.163465,-0.03807 -0.342626,-0.202527 -0.395643,-0.363169 -0.05066,-0.153493 -0.02095,-0.401124 0.06133,-0.511332 0.155456,-0.208215 0.213236,-0.226866 0.75982,-0.24526 0.442238,-0.01487 0.518187,-0.02593 0.600314,-0.0873 0.211348,-0.157928 0.220955,-0.191675 0.228029,-0.800976 0.0072,-0.621732 0.03125,-0.70948 0.23377,-0.853687 0.161265,-0.114832 0.446819,-0.125337 0.62107,-0.02284 0.234048,0.137654 0.259171,0.227912 0.258709,0.929431 -4.53e-4,0.664669 -0.02691,0.827372 -0.185328,1.139209 -0.181902,0.358054 -0.596172,0.67864 -1.006906,0.779199 -0.207966,0.05091 -1.007025,0.07589 -1.17516,0.03673 z M 5.6340708,18.695159 C 5.4741497,18.644294 5.3441812,18.528552 5.2872654,18.386301 5.2408926,18.270408 5.2322748,18.08694 5.2322748,17.215622 c 0,-1.009199 0.00189,-1.036664 0.077518,-1.179841 0.190708,-0.360632 0.6994503,-0.37313 0.9586474,-0.02355 0.068248,0.09204 0.07172,0.142115 0.081508,1.175597 0.010192,1.075465 0.00993,1.080021 -0.069505,1.230166 -0.1190255,0.22499 -0.4134561,0.351244 -0.6463735,0.277169 z m 9.8441212,-0.01612 c -0.07152,-0.02612 -0.161262,-0.07574 -0.199421,-0.110279 -0.160012,-0.144807 -0.164643,-0.182728 -0.164507,-1.347606 1.35e-4,-1.038147 0.004,-1.106927 0.06784,-1.21168 0.101383,-0.166278 0.256672,-0.24648 0.47724,-0.24648 0.220568,0 0.375859,0.0802 0.477239,0.24648 0.0639,0.10481 0.06772,0.173556 0.06784,1.221986 1.36e-4,1.096248 -8.68e-4,1.112434 -0.07666,1.224873 -0.144443,0.214338 -0.416799,0.307714 -0.649571,0.222706 z M 5.5045326,14.220827 C 5.2688031,14.060393 5.2504918,14.006674 5.238288,13.439861 5.220547,12.615769 5.319143,12.256846 5.6680662,11.875332 c 0.3485682,-0.381129 0.7217893,-0.508316 1.4915897,-0.508316 0.4787254,0 0.5243282,0.0055 0.6317539,0.07695 0.2707064,0.179897 0.3427287,0.576216 0.1505069,0.82823 -0.1407265,0.184506 -0.2579288,0.219313 -0.7384548,0.219313 -0.3533923,0 -0.4386338,0.01083 -0.5642651,0.07164 -0.2331702,0.112873 -0.2615488,0.197174 -0.2819249,0.837482 -0.01559,0.489955 -0.02548,0.56203 -0.088831,0.64743 -0.1254388,0.169116 -0.2780558,0.249443 -0.4739201,0.249443 -0.1278094,0 -0.2088005,-0.0214 -0.2899879,-0.07667 z m 9.8615994,0.01189 c -0.05819,-0.03548 -0.141661,-0.122544 -0.185497,-0.193467 -0.07386,-0.119509 -0.07995,-0.166712 -0.08306,-0.644192 -0.003,-0.446191 -0.01231,-0.530504 -0.07007,-0.629168 -0.13497,-0.230517 -0.20407,-0.255491 -0.759155,-0.274398 -0.458806,-0.01563 -0.509686,-0.02382 -0.614911,-0.09886 -0.123491,-0.08808 -0.241116,-0.306397 -0.242324,-0.449785 -0.0019,-0.212266 0.128402,-0.432054 0.312753,-0.527971 0.137258,-0.07141 1.076862,-0.06642 1.324448,0.007 0.562719,0.166961 0.934358,0.538597 1.101317,1.101318 0.04167,0.140451 0.05488,0.333534 0.05479,0.800769 -1.36e-4,0.687869 -0.02215,0.76866 -0.246608,0.905518 -0.148185,0.09035 -0.44612,0.09196 -0.591682,0.003 z M 9.6372222,12.424574 C 9.4703291,12.348814 9.3669688,12.200067 9.3355289,11.99039 c -0.027933,-0.186397 0.08868,-0.43652 0.2549166,-0.546667 0.113503,-0.07521 0.1355099,-0.07672 1.1170625,-0.07672 1.135978,0 1.173488,0.0068 1.327848,0.240037 0.187122,0.282755 0.09505,0.669626 -0.194531,0.817358 -0.121763,0.06212 -0.20298,0.06704 -1.095498,0.06635 -0.8768634,-7.55e-4 -0.9770114,-0.0067 -1.1081048,-0.06617 z"
       id="path1" /></g></svg>
