<?xml version="1.0" encoding="UTF-8" standalone="no"?>
<!-- Created with Inkscape (http://www.inkscape.org/) -->

<svg
   width="24"
   height="24"
   viewBox="0 0 24 24"
   version="1.1"
   id="svg1"
   xml:space="preserve"
   inkscape:version="1.4.3 (0d15f75, 2025-12-25)"
   sodipodi:docname="reverse-order.svg"
   xmlns:inkscape="http://www.inkscape.org/namespaces/inkscape"
   xmlns:sodipodi="http://sodipodi.sourceforge.net/DTD/sodipodi-0.dtd"
   xmlns="http://www.w3.org/2000/svg"
   xmlns:svg="http://www.w3.org/2000/svg"><sodipodi:namedview
     id="namedview1"
     pagecolor="#ffffff"
     bordercolor="#000000"
     borderopacity="0.25"
     inkscape:showpageshadow="2"
     inkscape:pageopacity="0.0"
     inkscape:pagecheckerboard="0"
     inkscape:deskcolor="#d1d1d1"
     inkscape:document-units="px"
     inkscape:zoom="10.286126"
     inkscape:cx="-15.846588"
     inkscape:cy="8.2635582"
     inkscape:window-width="1920"
     inkscape:window-height="1010"
     inkscape:window-x="1913"
     inkscape:window-y="-6"
     inkscape:window-maximized="1"
     inkscape:current-layer="layer1" /><defs
     id="defs1" /><g
     inkscape:label="Vrstva 1"
     inkscape:groupmode="layer"
     id="layer1"><path
       style="fill:#000000;stroke-width:0.0265013"
       d="M 2.1769879,21.883762 C 1.4279141,21.748479 0.78097372,21.245722 0.4566995,20.546875 0.25540981,20.113075 0.16506602,19.541924 0.21577331,19.023747 0.33043334,17.852024 1.0183935,16.997115 2.0772368,16.710558 c 0.2969819,-0.08037 0.8825273,-0.08631 1.2040371,-0.01221 0.3093371,0.0713 0.6103869,0.194188 0.7131666,0.291122 0.2136993,0.201545 0.1720959,0.59944 -0.074938,0.716663 C 3.7886864,17.768203 3.682732,17.758833 3.48597,17.667763 2.9488101,17.419136 2.427661,17.406964 1.9715363,17.632393 1.357777,17.93573 0.99175217,18.74206 1.094684,19.56405 c 0.1133182,0.904938 0.6762572,1.47474 1.4975508,1.51581 0.3435426,0.01718 0.5776545,-0.03244 0.9094003,-0.192751 0.2192362,-0.10594 0.2708519,-0.12105 0.3738503,-0.109441 0.2202072,0.02482 0.3828131,0.289236 0.3204019,0.521011 -0.043533,0.161678 -0.1494916,0.26506 -0.3842447,0.37491 -0.3650873,0.170838 -0.5761764,0.214937 -1.0736505,0.224297 -0.2404987,0.0045 -0.4929534,-0.0018 -0.5610094,-0.01412 z m 17.5301901,-0.03005 c -0.118761,-0.03436 -0.241348,-0.166215 -0.263317,-0.28322 -0.021,-0.111842 0.0026,-0.188318 0.265546,-0.859106 0.09308,-0.237491 0.464765,-1.189075 0.825964,-2.114632 0.361198,-0.925558 0.673531,-1.709079 0.694072,-1.741159 0.107894,-0.1685 0.545052,-0.227792 0.77745,-0.105445 0.07496,0.03946 0.137163,0.09879 0.17365,0.165633 0.05386,0.09867 1.674402,4.142508 1.773069,4.424453 0.05912,0.16895 0.03701,0.301503 -0.0678,0.406306 -0.09537,0.09537 -0.298033,0.149329 -0.466182,0.124114 -0.219079,-0.03286 -0.259722,-0.09434 -0.502043,-0.759406 l -0.216116,-0.593153 h -1.004426 -1.004427 l -0.213009,0.588581 c -0.130809,0.361449 -0.23743,0.614578 -0.276295,0.655947 -0.102128,0.108711 -0.305922,0.146126 -0.49614,0.09109 z m 2.721279,-2.088284 c 0,-0.01314 -0.05152,-0.159224 -0.114483,-0.32464 -0.06296,-0.165417 -0.226942,-0.607566 -0.364392,-0.982555 -0.13745,-0.374987 -0.25679,-0.682071 -0.2652,-0.682408 -0.01854,-7.41e-4 -0.739998,1.951961 -0.739998,2.002872 0,0.0058 0.333917,0.01062 0.742037,0.01062 0.422799,0 0.742036,-0.01027 0.742036,-0.02388 z M 0.67804385,14.609819 c -0.0470819,-0.02105 -0.10975726,-0.0777 -0.13927367,-0.125896 -0.0529596,-0.08648 -0.0535745,-0.118398 -0.0469004,-2.437489 l 0.006755,-2.349861 0.0662574,-0.071802 C 0.69290539,9.4860343 0.73499075,9.4802726 1.6174565,9.4806486 c 0.9325682,3.973e-4 1.1589433,0.029913 1.51077,0.1969979 0.2764151,0.1312687 0.5254924,0.3829715 0.6307985,0.6374445 0.070512,0.170381 0.076823,0.212524 0.077448,0.516776 5.847e-4,0.285447 -0.00776,0.35235 -0.060551,0.483703 -0.08379,0.208606 -0.2347421,0.390987 -0.4249226,0.513406 -0.087742,0.05648 -0.1599645,0.108657 -0.1604868,0.115945 -5.212e-4,0.0073 0.082459,0.05243 0.1844068,0.100323 0.2496207,0.117268 0.4531001,0.322708 0.5760454,0.581596 0.082197,0.173073 0.095444,0.229647 0.1062266,0.453681 0.015163,0.314934 -0.021142,0.501249 -0.1467402,0.752947 -0.1776691,0.356057 -0.5172999,0.613036 -0.9789867,0.740739 -0.1914318,0.05295 -0.2792511,0.0578 -1.1872701,0.06552 -0.81081157,0.0069 -0.99536752,0.0017 -1.0661557,-0.02992 z M 2.7202937,13.802908 c 0.08501,-0.03373 0.195772,-0.09752 0.2461496,-0.141749 C 3.2575273,13.405584 3.291018,12.957675 3.0408973,12.66546 2.8379219,12.42833 2.6022514,12.370057 1.8435817,12.369407 l -0.5366508,-4.61e-4 v 0.75739 0.757388 l 0.6294062,-0.0098 c 0.5828879,-0.0091 0.6408278,-0.01427 0.7839598,-0.07108 z M 2.5058524,11.609752 C 2.870484,11.507441 3.0827718,11.149826 3.0040302,10.770529 2.9632393,10.574042 2.8487608,10.427043 2.6674511,10.338336 c -0.138091,-0.06756 -0.1784554,-0.07334 -0.6413137,-0.09192 -0.2716716,-0.01091 -0.5446326,-0.0132 -0.6065791,-0.0051 l -0.1126305,0.01474 v 0.698682 0.698682 H 1.82859 c 0.4038154,0 0.5568124,-0.0099 0.6772624,-0.04366 z m 17.6987436,2.992955 c -0.04977,-0.02607 -0.112388,-0.08896 -0.139132,-0.139745 -0.04608,-0.08751 -0.04862,-0.212324 -0.04858,-2.385116 2.7e-5,-2.1304556 0.0033,-2.2992083 0.04638,-2.3836462 0.02549,-0.049975 0.08003,-0.1155694 0.121208,-0.1457573 0.07238,-0.05305 0.105977,-0.054885 1.00705,-0.054885 0.894386,0 0.940722,0.00252 1.142992,0.061035 0.462142,0.1338013 0.772428,0.3694053 0.933678,0.7089535 0.177263,0.373264 0.175347,0.77338 -0.0054,1.14265 -0.09749,0.199095 -0.289013,0.400801 -0.456615,0.480888 -0.04737,0.02263 -0.08581,0.04789 -0.08541,0.05612 3.93e-4,0.0083 0.08082,0.05074 0.178725,0.09447 0.321462,0.143572 0.587738,0.467435 0.667,0.811252 0.03982,0.172744 0.03363,0.520903 -0.01245,0.700379 -0.101896,0.396823 -0.367385,0.722537 -0.727979,0.893122 -0.381895,0.180661 -0.433073,0.187253 -1.537074,0.198002 -0.914505,0.0089 -1.00102,0.0058 -1.084306,-0.03773 z m 1.884666,-0.752954 c 0.26912,-0.05704 0.475008,-0.200168 0.586195,-0.407504 0.04452,-0.08303 0.05686,-0.151958 0.05693,-0.318016 1.06e-4,-0.234433 -0.03623,-0.331977 -0.181021,-0.48597 -0.199819,-0.212528 -0.443528,-0.268228 -1.176342,-0.268856 l -0.536651,-4.61e-4 v 0.73762 c 0,0.405691 0.008,0.74557 0.01766,0.755286 0.02989,0.02989 1.083892,0.01955 1.233214,-0.0121 z m -0.04067,-2.235922 c 0.0733,-0.02177 0.187493,-0.08098 0.253754,-0.131568 0.343774,-0.262491 0.340841,-0.861053 -0.0053,-1.094359 -0.177582,-0.119643 -0.340419,-0.145687 -0.913729,-0.146133 l -0.531669,-4.12e-4 -0.0071,0.706026 -0.0071,0.706026 h 0.5389 c 0.40082,0 0.573048,-0.01014 0.672179,-0.03958 z M 8.7405387,14.238111 C 8.6563155,14.209035 8.4338934,13.998235 7.6581977,13.21235 7.1212131,12.668311 6.662689,12.187413 6.6392559,12.143685 c -0.055551,-0.103652 -0.055369,-0.347376 3.236e-4,-0.450521 0.068123,-0.126152 1.9826193,-2.0569385 2.0798862,-2.0975791 0.111203,-0.046467 0.3093159,-0.045741 0.4000317,0.00141 0.2096717,0.1090918 0.325105,0.3982542 0.2440687,0.6113966 -0.014437,0.03798 -0.2717976,0.321987 -0.5719068,0.631131 l -0.5456539,0.562079 1.8286486,0.0069 c 1.005757,0.0037 2.657258,0.0037 3.670002,0 l 1.841353,-0.0069 -0.529309,-0.543277 c -0.291121,-0.298801 -0.54637,-0.581652 -0.567221,-0.628554 -0.08804,-0.198044 -0.01774,-0.4727739 0.15189,-0.5935616 0.101515,-0.072286 0.353143,-0.099477 0.470536,-0.050852 0.09824,0.04069 2.020402,1.9743366 2.08306,2.0955046 0.06259,0.121024 0.061,0.339022 -0.0033,0.458922 -0.06079,0.113281 -1.925649,2.019835 -2.026848,2.072167 -0.330667,0.170994 -0.713197,-0.04997 -0.713197,-0.41198 0,-0.199739 0.06175,-0.283984 0.616681,-0.841325 l 0.534421,-0.536741 H 11.92072 8.2387445 l 0.5344208,0.536741 c 0.3381367,0.339605 0.5495273,0.572897 0.5755514,0.63518 0.05427,0.129881 0.051155,0.274534 -0.00867,0.404906 -0.059654,0.129912 -0.127735,0.192769 -0.2597942,0.239867 -0.1278712,0.04561 -0.20638,0.04548 -0.3396459,-5.32e-4 z M 21.765924,7.3944079 C 20.748557,7.2165997 20.048542,6.5641536 19.774199,5.5380306 c -0.07002,-0.2618882 -0.09554,-0.8636108 -0.04995,-1.1774595 0.127238,-0.8758723 0.654356,-1.6341215 1.392396,-2.00293 0.544974,-0.2723319 1.208431,-0.3305703 1.861942,-0.1634417 0.234734,0.060027 0.520308,0.1865975 0.612719,0.2715566 0.269711,0.2479663 0.105341,0.7598049 -0.24411,0.7601457 -0.05586,5.44e-5 -0.181662,-0.035054 -0.279559,-0.078023 -0.643883,-0.2826022 -1.235206,-0.2612288 -1.721763,0.062235 -0.307035,0.2041166 -0.512614,0.487852 -0.645082,0.8903255 -0.07191,0.2184892 -0.08445,0.2992815 -0.09461,0.6096348 -0.0098,0.2987099 -0.0026,0.3959748 0.04339,0.5892223 0.196798,0.8266299 0.861466,1.3373323 1.672154,1.2848092 0.295588,-0.019145 0.502926,-0.074081 0.773473,-0.204912 0.249714,-0.1207595 0.380907,-0.1339102 0.514183,-0.051538 0.156376,0.096644 0.23621,0.3426725 0.168956,0.5206763 -0.08375,0.2216629 -0.470079,0.422007 -1.011998,0.5248078 -0.197182,0.037403 -0.830998,0.050883 -1.000414,0.021273 z M 0.2325141,7.3368813 C 0.11279,7.2825002 0.03754266,7.1856416 0.01734484,7.0599198 0.00223226,6.9658468 -0.00538956,6.986091 1.1672952,4.0077866 1.3853811,3.4539101 1.619363,2.8568291 1.6872546,2.6809394 1.8183933,2.3411917 1.883939,2.2519508 2.0547373,2.1806041 2.1681664,2.1332198 2.4137453,2.1269691 2.5605248,2.1677297 2.7563956,2.2221209 2.8001434,2.2904128 3.0856744,2.9874869 4.6147035,6.7203495 4.6991021,6.9315385 4.6989932,7.0244441 4.6988601,7.1433183 4.6129654,7.2694786 4.4891774,7.3326288 4.344272,7.4065585 4.0580202,7.4076674 3.9384665,7.334746 3.8318084,7.2697084 3.8238609,7.2531643 3.5718619,6.5714579 L 3.3635765,6.0080026 2.3313631,6.014959 1.2991497,6.0219155 1.0899357,6.6173148 C 0.97486842,6.944785 0.86037173,7.2352005 0.83549898,7.2626845 0.71656227,7.3941095 0.43479281,7.4287948 0.2325141,7.3369166 Z M 3.0688348,5.2626439 C 3.0783117,5.253167 3.0008736,5.0206319 2.8968327,4.7458683 2.7927867,4.4711046 2.623296,4.0226945 2.5201846,3.7493998 2.4170743,3.4761051 2.3249107,3.2525004 2.3153774,3.2525004 c -0.00958,0 -0.042596,0.068576 -0.073456,0.152382 -0.03087,0.08381 -0.1983458,0.5368555 -0.3721687,1.006766 -0.1738239,0.4699115 -0.3089983,0.8614291 -0.3003875,0.87004 0.021192,0.021192 1.4777845,0.00272 1.4994734,-0.019045 z"
       id="path1" /></g></svg>
