<?xml version="1.0" encoding="UTF-8" standalone="no"?>
<!-- Created with Inkscape (http://www.inkscape.org/) -->

<svg
   width="24"
   height="24"
   viewBox="0 0 24 24"
   version="1.1"
   id="svg1"
   xml:space="preserve"
   sodipodi:docname="rotate-right.svg"
   inkscape:version="1.4.3 (0d15f75, 2025-12-25)"
   xmlns:inkscape="http://www.inkscape.org/namespaces/inkscape"
   xmlns:sodipodi="http://sodipodi.sourceforge.net/DTD/sodipodi-0.dtd"
   xmlns="http://www.w3.org/2000/svg"
   xmlns:svg="http://www.w3.org/2000/svg"><sodipodi:namedview
     id="namedview1"
     pagecolor="#ffffff"
     bordercolor="#000000"
     borderopacity="0.25"
     inkscape:showpageshadow="2"
     inkscape:pageopacity="0.0"
     inkscape:pagecheckerboard="0"
     inkscape:deskcolor="#d1d1d1"
     inkscape:document-units="px"
     inkscape:zoom="14.050697"
     inkscape:cx="21.84945"
     inkscape:cy="28.753023"
     inkscape:window-width="1920"
     inkscape:window-height="1010"
     inkscape:window-x="1913"
     inkscape:window-y="-6"
     inkscape:window-maximized="1"
     inkscape:current-layer="layer1" /><defs
     id="defs1" /><g
     inkscape:label="Vrstva 1"
     inkscape:groupmode="layer"
     id="layer1"><g
       id="g4"
       transform="matrix(0.04000748,0,0,0.04000748,-21.655347,1.7011569)"><path
         style="fill:#000000"
         d="m 645.7977,549.5692 c -3.13627,-1.00279 -7.63627,-2.95695 -10,-4.34259 -6.66051,-3.90443 -15.45958,-13.79003 -19.08264,-21.43901 L 613.5,517 V 254.94811 -7.103777 l 3.91719,-7.948112 c 6.64264,-13.478123 19.20004,-23.566655 32.86333,-26.40218 3.63137,-0.753612 44.92617,-1.001455 135.71948,-0.814561 L 916.5,-42 l 7,3.296071 c 6.62203,3.118099 10.57033,6.870774 73.12298,69.5 C 1054.61,88.85405 1063.1,97.73826 1065.623,103 l 2.877,6 0.2952,201.5 c 0.3298,225.18006 0.8551,208.06462 -6.7445,219.77886 -5.0397,7.76837 -10.8405,12.74116 -19.9218,17.07794 L 1034.5,551 l -34.81161,0.30938 c -33.87954,0.30109 -34.93027,0.25194 -39.24303,-1.83583 -5.48985,-2.65759 -8.56241,-6.83239 -9.2015,-12.50241 -1.05646,-9.37286 2.42701,-16.05399 10.21477,-19.59148 3.62377,-1.64605 7.08962,-1.83839 33.54137,-1.86144 27.8034,-0.0242 29.6904,-0.14177 32.8102,-2.04385 6.6326,-4.0438 6.1898,10.11288 6.1898,-197.89467 V 126.59516 L 979.25,126.29758 924.5,126 l -6.70071,-3.1744 c -8.21919,-3.89375 -14.54221,-10.04484 -18.38784,-17.88784 L 896.5,99 896.21632,46.25 895.93264,-6.5 777.21632,-6.49626 c -116.69637,0.00367 -118.77177,0.037549 -121.97546,1.9908599 -1.79253,1.0929171 -4.15334,3.4537349 -5.24626,5.24626196 -1.96883,3.22914224 -1.98716,5.56340024 -1.99086,253.60800814 -0.004,277.63653 -0.57486,254.78093 6.47076,259.13537 2.88626,1.78381 4.97402,2.0164 18.14353,2.02134 17.76227,0.007 21.0382,0.76462 25.72475,5.95207 8.6136,9.53423 6.63889,22.25976 -4.31274,27.79235 -4.16772,2.10547 -5.67677,2.24655 -23.49193,2.19622 -15.56479,-0.044 -20.07844,-0.38641 -24.74041,-1.87702 z M 1006,90.745066 C 1006,90.329852 988.9,72.894572 968,52 L 930,14.009869 v 36.745065 c 0,35.411733 0.0726,36.817638 2,38.745066 1.92593,1.925926 3.33333,2 38,2 19.8,0 36,-0.33972 36,-0.754934 z"
         id="path4" /><path
         style="fill:#000000"
         d="M 808.29529,555.60364 C 783.52265,551.08951 759.60131,539.74146 738.48159,522.4847 712.55605,501.30113 692.44772,467.86691 684.93762,433.45689 673.06488,379.05792 691.96619,321.44243 733.97265,283.987 754.8959,265.33059 778.63939,253.42878 807,247.38083 c 18.32878,-3.90865 48.37302,-3.18668 72.39906,1.73976 3.79449,0.77804 7.13353,1.18016 7.42009,0.89359 0.28656,-0.28656 -2.85811,-4.00698 -6.98816,-8.2676 -9.51725,-9.81812 -11.73639,-14.89841 -10.04021,-22.98502 2.17209,-10.3555 9.75775,-16.57826 20.20922,-16.57826 7.43652,0 12.13473,2.63924 19.5,10.9542 38.88782,43.90205 54.01106,61.46547 55.60124,64.57266 2.52676,4.93728 2.52223,13.65742 -0.01,18.57968 -2.73839,5.32372 -6.50019,8.45875 -15.59158,12.9938 -4.4,2.19484 -20.15,10.61965 -35,18.72179 -14.85,8.10213 -28.74408,15.35292 -30.87573,16.11286 -16.10402,5.74114 -31.5504,-9.28175 -26.17706,-25.45936 2.14213,-6.44933 6.38773,-10.28009 18.82306,-16.98378 5.35135,-2.88484 9.72973,-5.6163 9.72973,-6.06992 0,-0.96174 -17.50322,-4.51901 -30.5,-6.19867 -5.33124,-0.689 -14.70696,-0.93847 -23,-0.612 -17.31921,0.68181 -28.27559,3.4536 -44.03245,11.13953 -33.10423,16.14767 -54.76375,45.39078 -61.11409,82.51183 -2.35198,13.74857 -1.44685,34.16891 2.10784,47.55408 9.09589,34.25057 34.14747,63.13885 66.02276,76.13427 12.57207,5.12558 24.63634,7.44444 39.01594,7.4992 21.52489,0.082 37.86142,-5.24159 56.47455,-18.40325 5.89806,-4.17062 14.65265,-4.98951 20.60786,-1.92763 13.05728,6.71344 16.30672,21.82394 7.16705,33.32819 -2.50569,3.15394 -17.34455,13.13762 -25.98164,17.4806 -18.84262,9.47461 -31.3346,12.37072 -55.76782,12.92904 -15.06462,0.34424 -20.39498,0.0774 -28.70471,-1.43678 z"
         id="path2" /></g></g></svg>
