<?xml version="1.0" encoding="UTF-8" standalone="no"?>
<!-- Created with Inkscape (http://www.inkscape.org/) -->

<svg
   width="24"
   height="24"
   viewBox="0 0 24 24"
   version="1.1"
   id="svg1"
   xml:space="preserve"
   inkscape:version="1.4.3 (0d15f75, 2025-12-25)"
   sodipodi:docname="rotate-left.svg"
   xmlns:inkscape="http://www.inkscape.org/namespaces/inkscape"
   xmlns:sodipodi="http://sodipodi.sourceforge.net/DTD/sodipodi-0.dtd"
   xmlns="http://www.w3.org/2000/svg"
   xmlns:svg="http://www.w3.org/2000/svg"><sodipodi:namedview
     id="namedview1"
     pagecolor="#ffffff"
     bordercolor="#000000"
     borderopacity="0.25"
     inkscape:showpageshadow="2"
     inkscape:pageopacity="0.0"
     inkscape:pagecheckerboard="0"
     inkscape:deskcolor="#d1d1d1"
     inkscape:document-units="px"
     inkscape:zoom="10.273134"
     inkscape:cx="29.786431"
     inkscape:cy="39.325877"
     inkscape:window-width="1920"
     inkscape:window-height="1010"
     inkscape:window-x="1913"
     inkscape:window-y="-6"
     inkscape:window-maximized="1"
     inkscape:current-layer="layer1" /><defs
     id="defs1" /><g
     inkscape:label="Vrstva 1"
     inkscape:groupmode="layer"
     id="layer1"><g
       id="g4"
       transform="matrix(0.04003614,0,0,0.04003614,10.778529,1.6798875)"><path
         style="fill:#000000"
         d="m -164.01119,549.62833 c -8.00114,-2.56115 -13.96921,-6.37856 -20.22405,-12.93611 -6.06498,-6.35849 -8.71876,-10.90827 -11.15445,-19.12372 -1.46229,-4.93224 -1.60922,-29.0614 -1.59844,-262.5 0.0129,-279.251548 -0.34438,-261.6749315 5.5386,-272.483893 6.08714,-11.184091 16.05203,-19.337129 28.23274,-23.099365 C -156.9468,-42.451363 -153.64635,-42.5 -28.5,-42.5 c 124.921068,0 128.457206,0.05185 134.68336,1.974915 3.51672,1.086203 8.45012,3.448703 10.96311,5.25 C 123.96416,-30.38822 247.50635,92.200659 251.45797,98 258.48743,108.31634 258,92.299295 258,312.9714 c 0,214.47726 0.23695,204.26332 -4.97573,214.48104 -2.9317,5.7466 -12.16517,15.26212 -17.76966,18.31247 -8.8285,4.80507 -14.79731,5.73509 -36.80743,5.73509 -19.14035,0 -20.34983,-0.11459 -24.5399,-2.32502 -10.23515,-5.39946 -12.25046,-20.59903 -3.75229,-28.30002 4.99238,-4.52407 6.6364,-4.85654 26.57832,-5.37496 l 19.23332,-0.5 3.26668,-3.26917 3.26669,-3.26918 0.25763,-190.94029 0.25763,-190.9403 -54.25763,-0.29053 L 114.5,126 108.65633,123.6431 C 100.2379,120.24774 93.327774,114.19516 89.084357,106.5 L 85.5,100 85.216603,46.75 84.933206,-6.5 H -33.083057 C -161.19333,-6.5 -153.56382,-6.832376 -159,-1.0144855 l -2.5,2.6755425 -0.29381,251.669473 c -0.27559,236.0678 -0.18755,251.87241 1.4202,254.9431 0.9427,1.80049 3.15303,4.16299 4.91184,5.25 2.98243,1.84324 5.07594,1.97785 31.0798,1.99833 31.057812,0.0245 33.199608,0.40731 38.673632,6.91281 3.362346,3.99592 4.068848,6.70441 3.509198,13.45305 -0.544761,6.5691 -3.35335,10.73304 -9.123564,13.52635 -4.095878,1.98278 -5.861703,2.08317 -35.743016,2.03205 -27.18484,-0.0465 -32.17931,-0.29226 -36.94547,-1.81789 z M 195,91.245066 C 195,91.104852 177.9,73.894572 157,53 L 119,15.009869 v 36.245065 c 0,34.911733 0.0736,36.318639 2,38.245066 1.92593,1.925926 3.33333,2 38,2 19.8,0 36,-0.11472 36,-0.254934 z"
         id="path3" /><path
         style="fill:#000000"
         d="m 17.215342,557.4645 c -20.3149514,-2.55883 -39.25821,-9.61245 -55.661569,-20.72585 -8.003925,-5.42272 -10.407059,-7.63625 -12.306071,-11.33511 -4.901369,-9.54681 -2.049041,-21.40772 6.58844,-27.39689 3.914063,-2.71398 5.094633,-3.00665 12.128352,-3.00665 7.318143,0 8.119013,0.22202 13.163858,3.64932 17.4465047,11.85259 40.009983,17.34711 61.367574,14.94385 13.53909,-1.52349 22.845493,-4.17894 35.004074,-9.98794 27.93086,-13.34451 48.91173,-38.48654 58.08513,-69.60523 2.25488,-7.64919 2.72468,-11.47648 3.13013,-25.5 0.40717,-14.08321 0.172,-17.97803 -1.60561,-26.59084 C 132.48202,359.48742 121.71559,340.08363 105.0943,324.20949 88.559554,308.418 67.748481,297.99177 45.7174,294.462 c -12.315524,-1.97317 -58.92358,0.2395 -61.943472,2.94069 -0.399339,0.3572 3.324533,2.81384 8.2752718,5.45921 10.8644342,5.80527 14.4193486,8.67604 16.99465,13.72405 2.1659132,4.24554 2.5901472,12.09937 0.8966124,16.59895 -3.2042959,8.51354 -14.7714842,14.60229 -23.5442792,12.39328 -2.435268,-0.61321 -16.008155,-7.46361 -30.161972,-15.2231 -14.153816,-7.7595 -30.850223,-16.85141 -37.103127,-20.20426 -12.539485,-6.72374 -15.702073,-9.8675 -17.708699,-17.60324 -1.295581,-4.99459 -0.606504,-10.96567 1.780327,-15.42712 1.066033,-1.99262 13.929354,-16.60505 47.64223,-54.12046 9.286759,-10.33423 15.937583,-16.84734 18.781762,-18.39286 12.572276,-6.83174 28.3329855,1.31344 30.01454954,15.51162 0.94296032,7.96182 -0.85008224,11.59349 -11.45266654,23.1965 -5.240556,5.73503 -8.664352,10.16111 -7.608435,9.83573 4.443176,-1.36917 32.359907,-3.65099 44.667642,-3.65099 16.300457,0 26.40861,1.20945 41.083792,4.91571 27.61008,6.97302 51.456044,20.84669 73.175444,42.57374 11.84661,11.85078 20.64644,24.37059 27.96102,39.78108 10.48598,22.09203 14.37713,37.87701 15.21691,61.72947 0.64585,18.34441 -0.36176,28.78956 -4.2734,44.29935 -9.52219,37.75574 -33.50865,70.7234 -67.41156,92.65231 -14.401813,9.3153 -35.452672,17.53076 -52.5,20.489 -11.344584,1.96864 -31.768359,2.72249 -41.284658,1.52384 z"
         id="path1" /></g></g></svg>
