<?xml version="1.0" encoding="UTF-8" standalone="no"?>
<!-- Created with Inkscape (http://www.inkscape.org/) -->

<svg
   version="1.1"
   id="svg1"
   width="24"
   height="24"
   viewBox="0 0 24 24"
   sodipodi:docname="save-workspace.svg"
   inkscape:version="1.4.3 (0d15f75, 2025-12-25)"
   xmlns:inkscape="http://www.inkscape.org/namespaces/inkscape"
   xmlns:sodipodi="http://sodipodi.sourceforge.net/DTD/sodipodi-0.dtd"
   xmlns="http://www.w3.org/2000/svg"
   xmlns:svg="http://www.w3.org/2000/svg">
  <defs
     id="defs1" />
  <sodipodi:namedview
     id="namedview1"
     pagecolor="#ffffff"
     bordercolor="#000000"
     borderopacity="0.25"
     inkscape:showpageshadow="2"
     inkscape:pageopacity="0.0"
     inkscape:pagecheckerboard="0"
     inkscape:deskcolor="#d1d1d1"
     inkscape:zoom="6.3125"
     inkscape:cx="82.534654"
     inkscape:cy="28.831683"
     inkscape:window-width="1920"
     inkscape:window-height="1010"
     inkscape:window-x="1913"
     inkscape:window-y="-6"
     inkscape:window-maximized="1"
     inkscape:current-layer="g1" />
  <g
     inkscape:groupmode="layer"
     inkscape:label="Image"
     id="g1">
    <g
       id="g78"
       transform="matrix(0.06942868,0,0,0.06942868,-74.618438,-10.535789)">
      <path
         style="fill:#000000"
         d="m 1146.0478,440.23978 c -3.1971,-2.58887 -3.8177,-9.00479 -1.193,-12.33399 1.9817,-2.51356 2.4857,-2.61304 16.212,-3.20009 7.7917,-0.33324 14.3083,-0.74747 14.4814,-0.92052 0.173,-0.17305 0.6333,-5.35153 1.0229,-11.50774 l 0.7082,-11.19311 -41.3896,-0.29217 c -40.4609,-0.2856 -41.4821,-0.34158 -45.5062,-2.49436 -6.419,-3.43403 -10.2494,-7.11781 -13.1827,-12.67806 L 1074.5,380.5 v -88 -88 l 2.2114,-4.13445 c 2.815,-5.26307 7.3911,-9.83914 12.6541,-12.65417 L 1093.5,185.5 h 122.5 122.5 l 4.1345,2.21138 c 5.263,2.81503 9.8391,7.3911 12.6541,12.65417 2.182,4.07947 2.2152,4.77799 2.4982,52.52541 l 0.2867,48.39096 -4.6763,-0.64096 C 1350.8252,300.28843 1346.9837,300 1344.8604,300 H 1341 v -44.03212 c 0,-49.32568 -0.063,-49.84293 -6.4319,-52.50387 C 1331.5607,202.20743 1314.7518,202 1215.9332,202 c -127.62,0 -120.0942,-0.39524 -123.3559,6.4784 -1.3884,2.9258 -1.5773,11.47918 -1.5773,71.42273 V 348 h 87.441 c 48.0925,0 87.677,0.38197 87.9656,0.84882 0.2885,0.46685 -0.6974,4.28967 -2.191,8.49515 l -2.7156,7.64634 -4.5,0.0911 c -2.475,0.0501 -40.725,0.1648 -85,0.25485 l -80.5,0.16372 0.042,5.2326 c 0.046,5.71417 2.28,9.80588 6.5546,12.00266 1.8469,0.94916 20.6429,1.23867 81.1536,1.25 L 1258,384 l 0.01,3.25 c 0,1.7875 0.2925,5.6125 0.6393,8.5 l 0.6306,5.25 h -9.171 -9.1711 l 0.2818,11.75 0.2817,11.75 9,0.2498 c 11.766,0.32658 13.1762,0.72331 14.9818,4.21503 2.1442,4.14645 1.8988,6.42945 -1.0707,9.95844 L 1261.8222,442 h -56.8003 c -52.7312,0 -56.9561,-0.1261 -58.9741,-1.76022 z m 78.4977,-16.31335 c 0.3649,-0.59047 0.3423,-5.99047 -0.05,-12 L 1223.7814,401 h -14.7514 -14.7514 l -0.6306,5.25 c -0.3468,2.8875 -0.6345,8.2875 -0.6393,12 L 1193,425 h 15.441 c 9.9208,0 15.6782,-0.38381 16.1045,-1.07357 z"
         id="path13" />
      <path
         style="fill:#000000"
         d="m 1337,463.4152 c -28.1627,-5.03139 -46.2524,-17.89793 -57.5247,-40.9152 -5.9314,-12.11159 -7.7684,-20.30511 -7.7349,-34.5 0.033,-13.87728 2.2883,-23.40544 8.2557,-34.87566 13.0483,-25.08036 37.6814,-40.39459 65.0039,-40.41246 11.5935,-0.008 18.6758,1.29068 28.4994,5.22423 14.7375,5.90117 25.3535,14.5249 34.1441,27.7364 17.5427,26.36511 17.3645,59.8096 -0.4587,86.05541 -9.1968,13.54279 -26.6619,25.72656 -42.6848,29.77709 -6.1182,1.54665 -22.9792,2.71784 -27.5,1.91019 z m 27.3346,-19.91688 c 19.0811,-6.57967 33.0673,-21.96192 38.1504,-41.95842 5.6545,-22.24485 -4.4518,-48.6147 -23.6207,-61.63204 -9.4257,-6.4009 -17.6276,-9.04557 -29.8643,-9.62972 -17.7861,-0.84906 -31.9266,4.51186 -44,16.68126 -22.5237,22.70277 -22.8147,59.81917 -0.6444,82.20864 8.7916,8.87853 21.5308,15.29116 34.1444,17.18753 6.056,0.91048 19.0879,-0.53082 25.8346,-2.85725 z"
         id="path8" />
      <path
         style="fill:#000000;stroke-width:1.41948"
         d="m 1332.9119,424.80167 c -9.4698,-3.3792 -17.3813,-10.62799 -21.7992,-19.97306 -6.9786,-14.76148 -3.1397,-35.85489 8.2727,-45.45787 8.9532,-7.5337 15.2823,-9.85787 26.6702,-9.79395 12.1013,0.068 19.3304,2.99315 27.4411,11.10385 15.8859,15.8859 14.8924,42.22844 -2.1424,56.80969 -10.1634,8.69941 -26.0729,11.72524 -38.4424,7.31134 z"
         id="path7" />
    </g>
  </g>
</svg>
