<?xml version="1.0" encoding="UTF-8" standalone="no"?>
<!-- Created with Inkscape (http://www.inkscape.org/) -->

<svg
   version="1.1"
   id="svg1"
   width="24"
   height="24"
   viewBox="0 0 24 24"
   sodipodi:docname="save-checkpoint.svg"
   inkscape:version="1.4.3 (0d15f75, 2025-12-25)"
   xmlns:inkscape="http://www.inkscape.org/namespaces/inkscape"
   xmlns:sodipodi="http://sodipodi.sourceforge.net/DTD/sodipodi-0.dtd"
   xmlns="http://www.w3.org/2000/svg"
   xmlns:svg="http://www.w3.org/2000/svg"
   xmlns:rdf="http://www.w3.org/1999/02/22-rdf-syntax-ns#"
   xmlns:cc="http://creativecommons.org/ns#">
  <defs
     id="defs1" />
  <sodipodi:namedview
     id="namedview1"
     pagecolor="#ffffff"
     bordercolor="#000000"
     borderopacity="0.25"
     inkscape:showpageshadow="2"
     inkscape:pageopacity="0.0"
     inkscape:pagecheckerboard="0"
     inkscape:deskcolor="#d1d1d1"
     inkscape:zoom="6.5414365"
     inkscape:cx="-26.293919"
     inkscape:cy="-3.6689189"
     inkscape:window-width="1920"
     inkscape:window-height="1010"
     inkscape:window-x="1913"
     inkscape:window-y="-6"
     inkscape:window-maximized="1"
     inkscape:current-layer="g1" />
  <g
     inkscape:groupmode="layer"
     inkscape:label="Image"
     id="g1">
    <g
       id="g2"
       transform="matrix(0.09705504,0,0,0.09705504,-1.5511343,-0.78891411)">
      <path
         style="fill:#000000"
         d="m 129.56768,132.95937 c -5.66716,-3.48032 -10.95849,-6.98241 -11.7585,-7.78242 -1.18805,-1.18806 -1.47707,-6.027 -1.57742,-26.410346 -0.16315,-33.14002 -0.30542,-31.29578 2.51337,-32.58011 1.7197,-0.78355 2.95471,-0.77039 4.48344,0.0478 2.05327,1.09888 2.11711,1.8331 2.3765,27.33541 l 0.26655,26.206196 10,6.10875 c 9.51617,5.8132 10,6.27368 10,9.51748 0,3.06786 -0.29999,3.43254 -3,3.64693 -2.19073,0.17395 -5.77954,-1.46876 -13.30394,-6.08965 z"
         id="path51" />
      <path
         style="fill:#000000"
         d="m 108.37162,221.6796 c -1.925,-0.24806 -7.27738,-1.3779 -11.894178,-2.51075 -31.40343,-7.70561 -55.63736,-27.60214 -69.65067,-57.18454 -6.83931,-14.43791 -8.93951,-24.28498 -8.8882,-41.6735 0.0492,-16.66516 1.10912,-22.600146 6.51863,-36.499996 9.66781,-24.84166 26.25534,-42.96086 50.3981,-55.0518 34.365418,-17.21053 73.179908,-14.90571 106.516318,6.32499 7.29742,4.64745 21.05543,18.13573 26.75129,26.22681 9.63916,13.69263 16.22569,31.74547 17.78631,48.749996 0.73635,8.02327 0.74474,8.01409 -5.58889,6.11649 -3.72624,-1.11641 -3.79338,-1.22581 -4.44948,-7.25 -2.64744,-24.308266 -16.31102,-47.781486 -36.76183,-63.154636 -8.29704,-6.237 -22.33011,-12.81184 -33.2374,-15.57255 -12.44431,-3.14974 -35.24516,-3.19495 -46.675428,-0.0925 -34.59874,9.39082 -58.19809,32.05229 -68.42337,65.70411 -2.43643,8.018406 -2.74193,10.633806 -2.80323,23.999126 -0.077,16.78932 1.45879,24.26081 7.8145,38.01693 9.32724,20.18758 23.66774,34.70202 44.08753,44.62227 14.40475,6.99805 23.071008,9.05617 39.999998,9.49945 l 14,0.36659 1.69767,3.9707 c 0.97635,2.28361 1.30227,4.21508 0.76709,4.54584 -1.22043,0.75427 -23.45781,1.42781 -27.96476,0.84701 z"
         id="path48" />
      <path
         style="fill:#000000"
         d="m 186.01657,244.72682 c -19.24581,-4.65893 -36.145,-21.42285 -42.25423,-41.91601 -2.74638,-9.21259 -2.49423,-24.0116 0.56992,-33.44973 6.29101,-19.37743 21.9013,-34.0277 41.63537,-39.07483 30.88996,-7.90032 62.54761,8.31737 72.49505,37.13799 3.30602,9.57851 3.81254,26.10345 1.09451,35.70804 -5.6429,19.94015 -21.27696,35.75106 -41.11707,41.58218 -6.78847,1.99517 -24.20524,2.00181 -32.42355,0.0124 z m 26.48106,-8.53645 c 20.19234,-4.33049 35.92899,-21.09781 39.11419,-41.67597 5.3061,-34.28032 -28.10014,-64.4237 -61.69865,-55.6724 -27.45988,7.15239 -43.9443,34.30605 -37.00355,60.95341 6.58847,25.29481 33.81274,41.92276 59.58801,36.39496 z"
         id="path45" />
      <path
         style="fill:#000000"
         d="m 170.49729,215.56081 c -2.03257,-1.69712 -2.09897,-2.60493 -2.19746,-30.04324 -0.0877,-24.43747 0.1178,-28.62804 1.50816,-30.75 l 1.60974,-2.45676 h 28.38805 28.38805 l 2.5889,3.07673 2.58889,3.07672 v 27.42328 c 0,26.08994 -0.0972,27.52051 -2,29.42327 -1.90607,1.90607 -3.33333,2 -30.38922,2 -25.57224,0 -28.59718,-0.17365 -30.48511,-1.75 z m 54.37433,-30.75 v -24 l -2.75,-0.31642 -2.75,-0.31642 v 9.23768 c 0,13.21016 0.45989,12.89516 -18.82625,12.89516 -19.62194,0 -19.17375,0.29581 -19.17375,-12.65499 0,-9.30134 -0.0117,-9.34501 -2.5,-9.34501 h -2.5 v 24.51778 24.51778 l 24.25,-0.26778 24.25,-0.26778 z m -14,-17.5 v -6.5 h -10.5 c -9.38095,0 -10.48668,0.18651 -10.375,1.75 0.0688,0.9625 0.18125,4.01574 0.25,6.78498 l 0.125,5.03499 10.25,-0.28499 10.25,-0.28498 z"
         id="path44" />
      <path
         style="fill:#000000"
         d="m 199.91633,169.45169 c -0.88245,-2.78037 0.37211,-5.0819 3.15023,-5.77916 3.37101,-0.84607 5.77587,1.6263 4.91566,5.05364 -0.53913,2.14805 -1.22531,2.58464 -4.06226,2.58464 -2.44908,0 -3.58028,-0.52528 -4.00363,-1.85912 z"
         id="path43" />
    </g>
  </g>
  <metadata
     id="metadata1">
    <rdf:RDF>
      <cc:Work
         rdf:about="" />
    </rdf:RDF>
  </metadata>
</svg>
