<?xml version="1.0" encoding="UTF-8" standalone="no"?>
<!-- Created with Inkscape (http://www.inkscape.org/) -->

<svg
   version="1.1"
   id="svg1"
   width="24"
   height="24"
   viewBox="0 0 24 24"
   sodipodi:docname="save-checkpoint.svg"
   inkscape:version="1.4.3 (0d15f75, 2025-12-25)"
   xmlns:inkscape="http://www.inkscape.org/namespaces/inkscape"
   xmlns:sodipodi="http://sodipodi.sourceforge.net/DTD/sodipodi-0.dtd"
   xmlns="http://www.w3.org/2000/svg"
   xmlns:svg="http://www.w3.org/2000/svg">
  <defs
     id="defs1" />
  <sodipodi:namedview
     id="namedview1"
     pagecolor="#ffffff"
     bordercolor="#000000"
     borderopacity="0.25"
     inkscape:showpageshadow="2"
     inkscape:pageopacity="0.0"
     inkscape:pagecheckerboard="0"
     inkscape:deskcolor="#d1d1d1"
     inkscape:zoom="4.6254941"
     inkscape:cx="22.267891"
     inkscape:cy="-11.890622"
     inkscape:window-width="1920"
     inkscape:window-height="1010"
     inkscape:window-x="1913"
     inkscape:window-y="-6"
     inkscape:window-maximized="1"
     inkscape:current-layer="g1" />
  <g
     inkscape:groupmode="layer"
     inkscape:label="Image"
     id="g1">
    <g
       id="g7"
       transform="matrix(0.04613789,0,0,0.04613789,-10.33263,-3.7068482)">
      <path
         style="fill:#000000"
         d="m 486.35887,372.25 c -1.71046,-0.9625 -11.04539,-6.925 -20.74429,-13.25 -44.60366,-29.08763 -41.95046,-27.17479 -44.38556,-32 l -2.27099,-4.5 0.27099,-59.15778 0.27098,-59.15779 3.0711,-3.84221 c 4.53856,-5.67813 8.69913,-7.51931 16.05886,-7.10653 4.82364,0.27054 6.90162,0.93239 9.75105,3.10575 7.37258,5.62334 7.06169,3.0883 7.61899,62.12635 l 0.5,52.96779 12,8.23767 c 6.6,4.53071 17.96221,12.19521 25.24936,17.03221 10.82074,7.18249 13.61608,9.53979 15.25,12.86026 2.80479,5.69994 2.55052,10.17565 -0.88594,15.59439 -4.91128,7.74428 -14.84081,10.98035 -21.75455,7.08989 z"
         id="path6" />
      <path
         style="fill:#000000"
         d="m 425,527.40992 c -1.925,-0.22884 -8,-0.90101 -13.5,-1.49372 -19.18692,-2.06769 -46.99395,-10.65038 -67,-20.67967 -43.1117,-21.61246 -81.44406,-61.11919 -101.38907,-104.49529 -8.88687,-19.32702 -15.60633,-42.99018 -18.16619,-63.97382 -1.57352,-12.89849 -0.71564,-50.33606 1.41108,-61.57848 6.87076,-36.32082 23.25508,-71.88192 46.58031,-101.0995 8.51794,-10.6697 25.96789,-27.71299 36.56387,-35.71175 35.72324,-26.96699 79.29034,-42.328548 125,-44.074428 58.28648,-2.22625 114.04812,19.486518 155.14075,60.409528 37.68481,37.52927 59.18743,82.12007 63.44988,131.57843 1.09354,12.68874 1.04756,13.60795 -0.90111,18.01325 -3.49084,7.89163 -11.68652,11.30505 -19.74986,8.22564 -7.22939,-2.76093 -9.44326,-6.62537 -11.04869,-19.2862 -3.18836,-25.14411 -7.85339,-41.95997 -16.92713,-61.01665 C 579.74021,180.3027 532.47145,142.90481 476.5,130.98539 463.64154,128.24711 435.44112,127.20489 421.32377,128.9462 339.41761,139.04896 277.65045,196.6572 259.36491,280 257.84546,286.92544 257.5,292.76058 257.5,311.5 c 0,20.49086 0.25616,24.1446 2.34806,33.492 11.25166,50.27665 39.43537,91.78925 81.15194,119.53101 33.375,22.19456 67.82248,31.73173 108.80746,30.12454 18.25393,-0.71581 19.55569,-0.41479 24.99477,5.77999 5.51527,6.28154 5.4681,15.14965 -0.11267,21.18057 -2.60753,2.81786 -4.28443,3.62389 -9.18956,4.41714 -6.62538,1.07145 -34.97995,2.04087 -40.5,1.38467 z"
         id="path4" />
      <path
         style="fill:#000000"
         d="M 590.34596,584.99176 C 564.9232,579.49213 544.16094,568.61985 525.90481,551.24678 485.88919,513.16673 475.64565,454.62043 500.05431,403.5 c 6.16105,-12.90343 13.60162,-23.31431 24.36605,-34.09309 45.95324,-46.01453 115.92149,-50.86054 168.46124,-11.66765 27.23976,20.31994 45.88236,51.50308 50.20349,83.97445 1.80942,13.59695 0.65988,36.50495 -2.45474,48.91795 -9.19566,36.64842 -32.98014,66.50362 -66.29768,83.21944 -8.59596,4.3127 -15.29887,6.80557 -26.33267,9.79334 -8.32212,2.25349 -11.91775,2.61925 -29,2.95001 -16.65074,0.3224 -20.83755,0.0882 -28.65404,-1.60269 z m 48.15969,-31.934 c 34.11158,-8.15298 60.13689,-32.55996 70.12151,-65.76117 2.24985,-7.48128 2.71061,-11.189 3.0815,-24.79659 0.40138,-14.72658 0.23234,-16.79021 -2.12399,-25.92862 -8.90802,-34.5474 -34.4623,-60.16274 -69.58467,-69.75093 -11.92226,-3.25471 -36.62419,-3.29462 -48.17543,-0.0779 -35.45206,9.87263 -58.62816,32.60679 -69.58429,68.25741 -2.33689,7.60412 -2.6185,10.18635 -2.67184,24.5 -0.0473,12.69895 0.33055,17.44421 1.83155,23 10.67957,39.52944 41.7264,66.91697 82.10001,72.4234 9.49557,1.29507 25.30716,0.45238 35.00565,-1.86564 z"
         id="path2" />
      <path
         style="fill:#000000"
         d="M 597.75912,523.06164 C 575.34539,517.01664 559.5725,501.68581 551.39814,478 c -2.91191,-8.43747 -2.66721,-29.14762 0.449,-38 4.99339,-14.18504 14.90095,-27.02554 26.65318,-34.54335 12.96824,-8.29568 30.91376,-12.55817 44.67684,-10.61182 31.51865,4.45732 53.82247,26.16844 57.83153,56.29475 3.09297,23.24227 -6.51976,47.05451 -24.43055,60.51829 -7.93136,5.96211 -11.69971,7.80654 -22.11765,10.82554 -10.90164,3.15917 -26.23597,3.40076 -36.70137,0.57823 z"
         id="path1" />
    </g>
  </g>
</svg>
