<?xml version="1.0" encoding="UTF-8" standalone="no"?>
<!-- Created with Inkscape (http://www.inkscape.org/) -->

<svg
   version="1.1"
   id="svg1"
   width="24"
   height="24"
   viewBox="0 0 24 24"
   sodipodi:docname="save-workspace.svg"
   inkscape:version="1.4.3 (0d15f75, 2025-12-25)"
   xmlns:inkscape="http://www.inkscape.org/namespaces/inkscape"
   xmlns:sodipodi="http://sodipodi.sourceforge.net/DTD/sodipodi-0.dtd"
   xmlns="http://www.w3.org/2000/svg"
   xmlns:svg="http://www.w3.org/2000/svg"
   xmlns:rdf="http://www.w3.org/1999/02/22-rdf-syntax-ns#"
   xmlns:cc="http://creativecommons.org/ns#"
   xmlns:dc="http://purl.org/dc/elements/1.1/">
  <title
     id="title1">iconset2</title>
  <defs
     id="defs1" />
  <sodipodi:namedview
     id="namedview1"
     pagecolor="#ffffff"
     bordercolor="#000000"
     borderopacity="0.25"
     inkscape:showpageshadow="2"
     inkscape:pageopacity="0.0"
     inkscape:pagecheckerboard="0"
     inkscape:deskcolor="#d1d1d1"
     inkscape:zoom="9.2509881"
     inkscape:cx="47.670583"
     inkscape:cy="14.593036"
     inkscape:window-width="1920"
     inkscape:window-height="1010"
     inkscape:window-x="1913"
     inkscape:window-y="-6"
     inkscape:window-maximized="1"
     inkscape:current-layer="g1" />
  <g
     inkscape:groupmode="layer"
     inkscape:label="Image"
     id="g1">
    <g
       id="g2"
       transform="matrix(0.07626635,0,0,0.07626635,-37.803537,-1.0892877)">
      <path
         style="fill:#000000"
         d="m 725.1286,282.57582 c -23.96139,-6.57528 -41.81795,-28.85558 -43.25245,-53.96771 -0.9917,-17.36064 4.04568,-31.33002 15.85922,-43.97984 11.16801,-11.9586 26.26284,-18.53587 42.46978,-18.50538 21.28741,0.0401 40.74112,11.00165 51.41714,28.97204 10.24612,17.24677 10.4721,42.51863 0.53146,59.43327 -7.93103,13.49516 -20.73821,23.57793 -35.52444,27.96747 -6.68914,1.98579 -24.39211,2.03083 -31.50071,0.0802 z m 26.80115,-8.97559 c 23.28121,-6.06398 37.63106,-24.60768 37.63106,-48.629 0,-24.87201 -17.58245,-45.28407 -42.24185,-49.03999 -23.27874,-3.54562 -46.9632,11.61624 -53.92955,34.52359 -1.7153,5.64039 -2.0016,8.65797 -1.62496,17.1267 0.41186,9.26046 0.81952,11.04293 4.11058,17.97297 10.40157,21.90274 34.10589,33.76267 56.05472,28.04573 z M 710.2158,254.27937 c -1.45763,-1.61066 -1.65316,-5.15847 -1.63968,-29.75 0.008,-15.35669 0.34592,-28.41639 0.75,-29.02156 2.01172,-3.01282 5.54209,-3.3997 31.02293,-3.3997 h 25.91971 l 2.64603,2.45225 2.64602,2.45225 v 27.32524 c 0,23.11302 -0.23997,27.66785 -1.5567,29.54775 -1.54627,2.20761 -1.7463,2.22251 -29.84502,2.22251 -26.13526,0 -28.41427,-0.13919 -29.94329,-1.82874 z m 53.11302,-29.95721 -0.26801,-23.71405 -2.25,-0.31955 c -2.19406,-0.31161 -2.25,-0.0898 -2.25,8.92126 0,13.17239 0.38945,12.89829 -18.32625,12.89829 -19.05254,0 -18.67375,0.2567 -18.67375,-12.65499 0,-9.30134 -0.0117,-9.34501 -2.5,-9.34501 h -2.5 v 23.83333 c 0,13.10834 0.18674,24.02084 0.41498,24.25 0.22824,0.22917 10.81135,0.28799 23.51802,0.13072 l 23.10303,-0.28595 z m -12.97232,-17.46405 0.29569,-6.75 H 740.1065 729.56081 v 6.33333 c 0,3.48334 0.31521,6.64854 0.70046,7.0338 0.38525,0.38525 4.99775,0.57275 10.25,0.41666 l 9.54954,-0.28379 z m -10.12902,3.58333 c -1.41953,-1.41952 -0.58011,-5.30929 1.3711,-6.35355 3.95236,-2.11523 7.40892,0.59606 6.2772,4.92377 -0.4133,1.58049 -1.33991,2.09645 -3.76493,2.09645 -1.76919,0 -3.51671,-0.3 -3.88337,-0.66667 z m -223.16667,56.25503 c -3.86434,-1.71752 -7.00743,-5.16523 -8.95227,-9.81989 -1.35855,-3.25146 -1.54505,-14.67833 -1.52577,-93.48635 0.0211,-86.038378 0.10117,-89.956581 1.9215,-93.965982 1.19505,-2.632192 3.47763,-5.228282 6.15465,-7 l 4.25512,-2.81614 106.07338,-0.299254 c 71.90977,-0.202872 107.23756,0.03855 109.68799,0.749575 5.06999,1.471132 8.82587,4.708187 10.98907,9.47108 1.70129,3.745878 1.8542,7.284972 1.87437,43.383391 l 0.022,39.30479 -4.75,-0.30479 -4.75,-0.30479 -0.5,-17.5 -0.5,-17.5 -110.25,-0.25438 -110.25,-0.25439 v 68.54984 68.54984 l 2.45455,2.45454 2.45454,2.45455 h 76.97461 76.97461 l 3.07084,4.55013 c 1.68897,2.50257 3.07085,4.75257 3.07085,5 0,0.24743 -36.3375,0.43226 -80.75,0.41073 -65.05981,-0.0315 -81.33292,-0.29822 -83.75,-1.3725 z m 220.5,-176.633819 c 0,-15.702579 -0.0525,-16.097903 -2.45455,-18.499998 l -2.45454,-2.454545 H 627.06081 521.4699 l -2.45454,2.454545 c -2.4021,2.402095 -2.45455,2.797419 -2.45455,18.499998 v 16.045459 h 110.5 110.5 z m -207.42857,2.47403 c -0.86429,-0.86429 -1.57143,-2.85714 -1.57143,-4.42857 0,-3.7983 2.39058,-6.000003 6.51472,-6.000003 3.57329,0 6.48528,2.794003 6.48528,6.222503 0,4.68874 -8.00121,7.63343 -11.42857,4.20607 z m 20.33612,-0.52103 c -1.38572,-1.38571 -1.89697,-2.82117 -1.51366,-4.25 0.31834,-1.18665 0.58495,-2.48349 0.59246,-2.88186 0.008,-0.39838 1.36771,-1.424536 3.02268,-2.280353 2.40845,-1.245457 3.45631,-1.3205 5.25,-0.375976 2.91335,1.534119 3.70696,2.806999 3.72566,5.975659 0.0321,5.43991 -7.02191,7.86777 -11.07714,3.81253 z m 20.56987,-0.30165 c -1.7309,-2.6417 -1.19793,-6.76303 1.12377,-8.689875 3.73782,-3.102116 10.39881,0.154443 10.39881,5.083985 0,5.75801 -8.39175,8.38414 -11.52258,3.60589 z M 545.06081,233.15408 c -1.1,-0.45499 -3.125,-2.03725 -4.5,-3.51613 l -2.5,-2.68889 -0.28346,-38.22294 -0.28346,-38.22294 2.32002,-3.44753 c 3.88362,-5.77105 6.05454,-6.05813 43.36894,-5.73518 31.94455,0.27647 33.34419,0.36902 36.05631,2.38404 5.26823,3.91413 5.29106,4.10432 5.30691,44.20326 0.0162,40.93645 -0.0783,41.64574 -5.95253,44.68341 -2.46231,1.27332 -8.44183,1.50675 -37.23307,1.45354 -18.86481,-0.0349 -35.19966,-0.43565 -36.29966,-0.89064 z m 69.26247,-45.29597 -0.26247,-36.25 h -33 -33 l -0.26324,34.99431 c -0.14478,19.24687 -0.0464,35.55937 0.21862,36.25 0.37319,0.97253 7.93329,1.25569 33.52571,1.25569 h 33.04386 z m 31.87239,44.17742 -2.63486,-2.07258 v -14.92742 c 0,-19.27932 -0.27017,-18.92742 14.53138,-18.92742 11.55608,0 12.69086,0.61365 10.84952,5.86701 -0.87633,2.5002 -1.31447,2.64775 -8.68759,2.9257 l -7.7647,0.2927 0.28569,9.7073 0.2857,9.70729 5.46969,0.30988 c 6.14179,0.34795 8.03031,1.43271 8.03031,4.61256 0,3.69863 -1.9326,4.57756 -10.06514,4.57756 -6.24042,0 -8.15488,-0.38523 -10.3,-2.07258 z m -0.41235,-52.48412 c -2.1371,-1.49688 -2.22251,-2.16344 -2.22251,-17.34502 0,-14.7769 0.13475,-15.91034 2.10353,-17.69329 1.95555,-1.77099 4.28095,-1.92797 33.05841,-2.23173 27.05469,-0.28556 31.26252,-0.12516 33.39647,1.27306 2.6874,1.76084 3.26466,5.62571 1.10764,7.41587 -0.89176,0.7401 -11.08488,1.19504 -30.75,1.37244 l -29.41605,0.26537 -0.28621,9.75 -0.28621,9.75 h 12.88122 c 11.55551,0 13.06512,0.2032 14.66801,1.97438 1.6732,1.84886 1.68158,2.13494 0.13194,4.5 -1.64995,2.51813 -1.70011,2.52562 -16.9093,2.52562 -12.18799,0 -15.70121,-0.31293 -17.47694,-1.5567 z"
         id="path1"
         sodipodi:nodetypes="ssssssssssssssssscsscccssssccssssscsssccccccsssccsssssssssscsssscccccccccccccssssssscccsscccsssssssscsssssssssscccsssssssccccsssccscsssscccssssssssssscccsssss" />
    </g>
  </g>
  <metadata
     id="metadata1">
    <rdf:RDF>
      <cc:Work
         rdf:about="">
        <dc:title>iconset2</dc:title>
      </cc:Work>
    </rdf:RDF>
  </metadata>
</svg>
