<?xml version="1.0" encoding="UTF-8" standalone="no"?>
<!-- Created with Inkscape (http://www.inkscape.org/) -->

<svg
   width="24"
   height="24"
   viewBox="0 0 24 24"
   version="1.1"
   id="svg1"
   inkscape:version="1.4.3 (0d15f75, 2025-12-25)"
   sodipodi:docname="select-portrait.svg"
   xmlns:inkscape="http://www.inkscape.org/namespaces/inkscape"
   xmlns:sodipodi="http://sodipodi.sourceforge.net/DTD/sodipodi-0.dtd"
   xmlns="http://www.w3.org/2000/svg"
   xmlns:svg="http://www.w3.org/2000/svg">
  <sodipodi:namedview
     id="namedview1"
     pagecolor="#ffffff"
     bordercolor="#000000"
     borderopacity="0.25"
     inkscape:showpageshadow="2"
     inkscape:pageopacity="0.0"
     inkscape:pagecheckerboard="0"
     inkscape:deskcolor="#d1d1d1"
     inkscape:document-units="px"
     inkscape:zoom="13.333333"
     inkscape:cx="6"
     inkscape:cy="6.75"
     inkscape:window-width="1920"
     inkscape:window-height="1010"
     inkscape:window-x="1913"
     inkscape:window-y="-6"
     inkscape:window-maximized="1"
     inkscape:current-layer="layer1" />
  <defs
     id="defs1">
    <pattern
       id="EMFhbasepattern"
       patternUnits="userSpaceOnUse"
       width="6"
       height="6"
       x="0"
       y="0" />
  </defs>
  <g
     inkscape:label="Vrstva 1"
     inkscape:groupmode="layer"
     id="layer1">
    <path
       style="fill:#000000;stroke-width:0.203791"
       d="M 1.8205151,23.856113 C 0.88185623,23.360151 0.74987919,22.99912 0.73010536,20.87323 c -0.0174649,-1.877053 0.0254188,-2.045046 0.52197584,-2.045046 0.4762919,0 0.517476,0.134243 0.517476,1.686763 0,2.353561 0.03396,2.389815 2.2385332,2.389815 1.3964183,0 1.5503781,0.01808 1.7361314,0.20383 0.2275814,0.227581 0.2548894,0.427565 0.098329,0.720101 -0.098344,0.183755 -0.2279766,0.196852 -1.9108964,0.193047 -1.4455236,-0.0032 -1.8663396,-0.03629 -2.1111393,-0.165627 z m 16.3059579,-0.07132 c -0.18287,-0.279096 -0.07522,-0.707752 0.204716,-0.815174 0.09295,-0.03567 0.85063,-0.06485 1.683713,-0.06485 1.453803,0 1.526196,-0.0099 1.800647,-0.245739 l 0.285947,-0.245737 0.05095,-1.66516 c 0.02803,-0.915835 0.08806,-1.722482 0.133413,-1.79255 0.138215,-0.213555 0.653117,-0.151994 0.829001,0.09912 0.125358,0.178979 0.158532,0.526467 0.158082,1.656109 -6.1e-4,1.57254 -0.0939,2.073554 -0.481701,2.587236 -0.466527,0.617967 -0.872226,0.723015 -2.802124,0.725548 -1.6811,0.0021 -1.706906,-0.001 -1.862646,-0.238789 z M 7.7009795,18.502061 c -0.1651706,-0.165172 -0.1651706,-1.832351 0,-1.997523 0.067266,-0.06726 0.2245042,-0.122295 0.3494219,-0.122295 0.3698295,0 0.5474272,0.266868 0.5474272,0.822594 0,0.500309 0.00143,0.502294 0.3363162,0.502294 0.3872395,0 0.5809142,0.1529 0.5809142,0.458614 0,0.362363 -0.2031979,0.458616 -0.9681883,0.458616 -0.4269093,0 -0.7737371,-0.05015 -0.8458912,-0.122294 z m 3.0483085,-0.103548 c -0.04766,-0.128021 -0.05306,-0.324499 -0.012,-0.436606 0.06761,-0.184578 0.181599,-0.206548 1.206944,-0.23262 l 1.132285,-0.02879 0.06874,0.273871 c 0.129293,0.515139 -0.02845,0.596166 -1.222582,0.627974 -1.050936,0.02799 -1.089585,0.02127 -1.173386,-0.20383 z m 3.779963,0.103548 c -0.06726,-0.06726 -0.122294,-0.218607 -0.122294,-0.336318 0,-0.305714 0.193673,-0.458614 0.580912,-0.458614 0.331372,0 0.336319,-0.0068 0.336319,-0.465316 0,-0.625135 0.138979,-0.859572 0.509571,-0.859572 0.40198,0 0.509573,0.236703 0.509573,1.121058 0,1.05553 -0.05561,1.121059 -0.95139,1.121059 -0.439974,0 -0.790014,-0.04963 -0.862688,-0.122294 z M 7.7009795,14.731224 c -0.079252,-0.07925 -0.1222969,-0.490931 -0.1222969,-1.169666 0,-1.004734 0.01037,-1.054166 0.2547875,-1.214313 0.2360205,-0.154646 0.2735507,-0.154646 0.5095711,0 0.2433895,0.159475 0.2547875,0.212104 0.2547875,1.176459 0,0.781856 -0.036118,1.045633 -0.1601511,1.169668 -0.1900757,0.190074 -0.5651999,0.209351 -0.7366981,0.03785 z m 7.8015545,0.01218 c -0.151813,-0.08842 -0.178349,-0.261998 -0.178349,-1.166567 0,-1.021075 0.01004,-1.069227 0.254786,-1.229632 0.236019,-0.154647 0.273549,-0.154647 0.509572,0 0.24231,0.158767 0.254787,0.214567 0.254787,1.13948 0,0.534896 -0.04747,1.061248 -0.105503,1.169668 -0.114186,0.213352 -0.450157,0.253127 -0.735293,0.08705 z M 7.7388336,10.616793 c -0.2311356,-0.231135 -0.2311356,-2.0983375 0,-2.3294731 0.2127883,-0.2127883 0.4833248,-0.2025112 0.6903274,0.026224 0.2574899,0.2845248 0.2438054,2.0580681 -0.01771,2.2947331 -0.234066,0.211826 -0.4663674,0.214767 -0.6726201,0.0085 z m 7.7455024,0 c -0.231138,-0.231135 -0.231138,-2.0983375 0,-2.3294731 0.212788,-0.2127883 0.483323,-0.2025112 0.690325,0.026224 0.132289,0.1461792 0.168669,0.39738 0.168669,1.1647364 0,1.0338257 -0.103924,1.2986637 -0.509574,1.2986637 -0.104097,0 -0.261338,-0.07207 -0.34942,-0.160151 z M 7.8051879,6.5417134 C 7.6017413,6.3992147 7.5786824,6.2960538 7.5786824,5.5283488 c 0,-1.0373039 0.1189118,-1.1720178 1.0345427,-1.1720178 0.638108,0 0.9018339,0.1600858 0.9018339,0.5474272 0,0.3184376 -0.1887634,0.471719 -0.5809142,0.471719 -0.3306548,0 -0.3363162,0.00772 -0.3363162,0.4586151 0,0.3227294 -0.060395,0.5190086 -0.2038296,0.6624428 C 8.1486388,6.7418958 8.0966802,6.745884 7.8051879,6.5417134 Z m 7.7455021,0 C 15.368568,6.4141501 15.324185,6.2843439 15.324185,5.8792708 c 0,-0.5020065 -0.0012,-0.5037936 -0.336318,-0.5037936 -0.184975,0 -0.391353,-0.055034 -0.458616,-0.1222996 -0.193787,-0.1937869 -0.148587,-0.6717764 0.07484,-0.7913467 0.303271,-0.1623052 1.25276,-0.1289468 1.51274,0.053151 0.203447,0.1425007 0.226506,0.2456598 0.226506,1.0133666 0,0.7677049 -0.02305,0.8708659 -0.226506,1.0133646 -0.124583,0.08726 -0.251959,0.1586513 -0.283067,0.1586513 -0.03111,0 -0.158489,-0.071392 -0.283066,-0.1586513 z M 10.86033,5.2531781 c -0.193787,-0.1937868 -0.148588,-0.6717764 0.07483,-0.7913467 0.108421,-0.058026 0.57005,-0.1055008 1.025845,-0.1055008 0.455793,0 0.917424,0.047475 1.025845,0.1055008 0.223418,0.1195701 0.268619,0.5975599 0.07483,0.7913467 -0.166576,0.1665767 -2.034774,0.1665767 -2.201352,0 z M 0.92876279,5.1634836 C 0.76972843,5.0708545 0.75041312,4.8677178 0.75041312,3.2878001 c 0,-1.8862132 0.0527554,-2.1699799 0.49057778,-2.63871942 C 1.7797468,0.07227492 2.1592687,-0.02128141 3.9704013,-0.0237534 5.4317942,-0.0257913 5.6291147,-0.00565677 5.7793838,0.16038393 6.0006601,0.40489228 5.993454,0.71664552 5.7616744,0.92640141 5.6055077,1.0677304 5.3249486,1.095069 4.0307356,1.095069 H 2.4861737 L 2.1533424,1.3922205 1.8205131,1.6893722 1.7695552,3.383535 C 1.7287888,4.7389036 1.6880287,5.0969704 1.5657276,5.1740685 1.3694382,5.2978104 1.1532181,5.2942176 0.92876075,5.1634918 Z M 22.321121,5.0871863 c -0.140762,-0.1555394 -0.168667,-0.432962 -0.168667,-1.6767938 0,-2.2823053 -0.03332,-2.3153235 -2.336621,-2.3153235 -1.527648,0 -1.531851,-6.114e-4 -1.701109,-0.25896125 -0.212305,-0.32402145 -0.06559,-0.72401004 0.299143,-0.81555292 0.133654,-0.03354603 0.975747,-0.04627481 1.871312,-0.02829027 1.580154,0.03173433 1.640818,0.04099255 2.05152,0.31307993 0.754359,0.49976055 0.878644,0.88457901 0.918869,2.84503741 0.03303,1.6098709 0.02376,1.7097039 -0.177431,1.9108965 -0.261816,0.2618163 -0.535059,0.2711683 -0.757016,0.025908 z"
       id="path1" />
  </g>
</svg>
