<?xml version="1.0" encoding="UTF-8" standalone="no"?>
<!-- Created with Inkscape (http://www.inkscape.org/) -->

<svg
   width="24"
   height="24"
   viewBox="0 0 24 24"
   version="1.1"
   id="svg1"
   inkscape:version="1.4.3 (0d15f75, 2025-12-25)"
   sodipodi:docname="select-landscape.svg"
   xmlns:inkscape="http://www.inkscape.org/namespaces/inkscape"
   xmlns:sodipodi="http://sodipodi.sourceforge.net/DTD/sodipodi-0.dtd"
   xmlns="http://www.w3.org/2000/svg"
   xmlns:svg="http://www.w3.org/2000/svg">
  <sodipodi:namedview
     id="namedview1"
     pagecolor="#ffffff"
     bordercolor="#000000"
     borderopacity="0.25"
     inkscape:showpageshadow="2"
     inkscape:pageopacity="0.0"
     inkscape:pagecheckerboard="0"
     inkscape:deskcolor="#d1d1d1"
     inkscape:document-units="px"
     inkscape:zoom="13.333333"
     inkscape:cx="3.6"
     inkscape:cy="4.575"
     inkscape:window-width="1920"
     inkscape:window-height="1010"
     inkscape:window-x="1913"
     inkscape:window-y="-6"
     inkscape:window-maximized="1"
     inkscape:current-layer="layer1" />
  <defs
     id="defs1">
    <pattern
       id="EMFhbasepattern"
       patternUnits="userSpaceOnUse"
       width="6"
       height="6"
       x="0"
       y="0" />
  </defs>
  <g
     inkscape:label="Vrstva 1"
     inkscape:groupmode="layer"
     id="layer1">
    <path
       style="fill:#000000;stroke-width:0.203131"
       d="M 1.8200377,23.752704 C 1.5631805,23.625562 1.26809,23.365377 1.1098712,23.12654 0.84562007,22.727644 0.83840892,22.674635 0.80732174,20.902137 c -0.0346156,-1.973575 -0.003534,-2.105815 0.49505276,-2.105815 0.5215816,0 0.6020438,0.266209 0.6020438,1.991876 v 1.540921 l 0.3121414,0.262649 c 0.3048306,0.256497 0.3470697,0.262649 1.8035681,0.262649 1.6653171,0 1.9423858,0.08475 1.9423858,0.594175 0,0.492538 -0.1106979,0.521807 -1.9732496,0.52172 -1.5641578,-7.1e-5 -1.7718369,-0.0209 -2.1692263,-0.217608 z m 16.3370513,0.09595 c -0.172371,-0.172371 -0.150986,-0.646142 0.03768,-0.83481 0.131222,-0.131222 0.437701,-0.159424 1.732493,-0.159424 h 1.573069 l 0.296552,-0.296552 0.296554,-0.296553 v -1.57307 c 0,-1.70255 0.05585,-1.89192 0.557989,-1.89192 0.500484,0 0.558035,0.191909 0.557422,1.858753 -6.09e-4,1.704227 -0.08092,2.140918 -0.481035,2.616438 -0.502323,0.596976 -0.888717,0.694155 -2.769948,0.696652 -1.173299,0.0016 -1.715706,-0.03444 -1.800778,-0.119513 z M 4.6472014,16.165231 c -0.057762,-0.107934 -0.1050213,-0.453334 -0.1050213,-0.767563 0,-0.718158 0.1250211,-0.963798 0.4905411,-0.963798 0.3811491,0 0.5239827,0.171462 0.5239827,0.629005 v 0.385518 H 6.0944 c 0.5777189,0 0.7811831,0.118905 0.7811831,0.456538 0,0.381553 -0.1943661,0.456535 -1.1834233,0.456535 -0.8254555,0 -0.9527273,-0.0239 -1.0449584,-0.196235 z m 3.8719115,0.07449 c -0.15649,-0.15649 -0.15649,-0.513095 0,-0.669586 0.080064,-0.08006 0.507261,-0.121747 1.2478646,-0.121747 1.1829265,0 1.3696075,0.06223 1.3696075,0.456537 0,0.394308 -0.186681,0.456535 -1.3696075,0.456535 -0.7406036,0 -1.1678004,-0.04167 -1.2478646,-0.121747 z m 4.2609991,0 c -0.06696,-0.06696 -0.121742,-0.217616 -0.121742,-0.334792 0,-0.39431 0.186682,-0.456538 1.369607,-0.456538 1.182925,0 1.369607,0.06223 1.369607,0.456538 0,0.394308 -0.186682,0.456535 -1.369607,0.456535 -0.740602,0 -1.167798,-0.04167 -1.247864,-0.121747 z m 4.233843,-0.094 c -0.08381,-0.156602 -0.08538,-0.281743 -0.0057,-0.456537 0.09618,-0.211106 0.178782,-0.240798 0.669878,-0.240798 0.557437,0 0.560161,-0.0014 0.560161,-0.311026 0,-0.463961 0.167027,-0.703497 0.490541,-0.703497 0.431415,0 0.523984,0.170268 0.523984,0.963798 0,0.424972 -0.04992,0.770227 -0.121747,0.842054 -0.07717,0.07717 -0.465887,0.121747 -1.061681,0.121747 -0.854742,0 -0.950401,-0.01956 -1.055395,-0.215738 z M 4.6372785,13.001666 C 4.4661954,12.681992 4.5503645,11.105407 4.7450843,10.982332 4.956505,10.8487 5.2897233,10.859543 5.43496,11.004782 c 0.1651617,0.165161 0.1651617,1.924758 0,2.08992 -0.2016624,0.201662 -0.6691443,0.147139 -0.7976815,-0.09303 z m 13.7059945,0.01854 c -0.05776,-0.107934 -0.105018,-0.561204 -0.105018,-1.007277 0,-0.87906 0.120978,-1.129893 0.544944,-1.129893 0.394145,0 0.46958,0.187421 0.46958,1.166704 0,0.582787 -0.04489,0.968108 -0.121747,1.044959 -0.192908,0.192908 -0.668732,0.147913 -0.787759,-0.07449 z M 4.6472014,9.4693789 C 4.5894392,9.3614498 4.5421801,9.0190475 4.5421801,8.7084845 c 0,-0.8276757 0.1780606,-0.9704666 1.2101817,-0.9704666 0.8508022,0 1.1232213,0.123029 1.1232213,0.5072628 0,0.3312987 -0.2840545,0.507261 -0.818864,0.507261 -0.4980387,0 -0.5000152,0.00143 -0.5000152,0.3347925 0,0.1841362 -0.054785,0.3895768 -0.1217445,0.456537 -0.1929069,0.1929074 -0.6687293,0.1479119 -0.787758,-0.074492 z m 13.6960716,0 c -0.05776,-0.1079291 -0.105018,-0.3133702 -0.105018,-0.456537 0,-0.2436151 -0.03151,-0.2603002 -0.491537,-0.2603002 -0.368108,0 -0.539225,-0.052692 -0.68144,-0.2098385 -0.17343,-0.1916399 -0.176687,-0.2334301 -0.03754,-0.481898 0.143778,-0.2567291 0.200042,-0.2737332 0.998412,-0.3017308 1.110983,-0.03896 1.226625,0.05427 1.226625,0.9889008 0,0.3890712 -0.05148,0.725635 -0.121747,0.795896 -0.192908,0.1929074 -0.668732,0.1479119 -0.787759,-0.074493 z M 8.5567958,8.5931163 C 8.4691123,8.5054328 8.3973704,8.348906 8.3973704,8.2452807 c 0,-0.4077774 0.2613912,-0.5072628 1.3327957,-0.5072628 1.1708719,0 1.4064189,0.084956 1.4064189,0.5072628 0,0.4223054 -0.235547,0.507261 -1.4064189,0.507261 -0.7864991,0 -1.0497081,-0.035761 -1.1733703,-0.1594254 z m 4.2609992,0 c -0.211823,-0.211823 -0.201593,-0.4811322 0.0261,-0.6871964 0.145898,-0.1320352 0.396546,-0.167902 1.173371,-0.167902 1.144685,0 1.380313,0.086593 1.380313,0.5072628 0,0.4223054 -0.235545,0.507261 -1.406417,0.507261 -0.7865,0 -1.049708,-0.035761 -1.173372,-0.1594254 z M 0.94786813,5.1437316 C 0.81548559,5.011351 0.78882056,4.697278 0.79067109,3.2922266 0.79318992,1.3764509 0.89814163,0.97184229 1.51293,0.50771831 2.0215884,0.12371529 2.5230337,0.02867027 4.0349177,0.02969609 5.6162463,0.03071174 5.895133,0.11515129 5.9431126,0.60705345 5.9968529,1.1580282 5.709581,1.2578102 4.2079407,1.2097656 2.6862677,1.1610812 2.4938031,1.1906104 2.160532,1.5238814 1.9092366,1.7751768 1.9044183,1.8088865 1.9044183,3.3160965 c 0,1.226097 -0.031873,1.5816089 -0.1579303,1.7615829 C 1.5622928,5.3406549 1.1766831,5.3725485 0.94786813,5.1437316 Z M 22.251372,5.0776794 C 22.126393,4.8992471 22.09344,4.5509627 22.09344,3.4084886 c 0,-2.223442 -0.04222,-2.2648787 -2.308075,-2.2648787 -1.623931,0 -1.750019,-0.037488 -1.750019,-0.52030597 0,-0.5474585 0.15996,-0.59588494 1.960205,-0.59344127 1.861308,0.0025188 2.276575,0.11240256 2.729733,0.72225886 0.415109,0.55864908 0.484133,0.93259908 0.484133,2.62285658 0,1.4138226 -0.0208,1.611201 -0.185531,1.7602769 -0.258351,0.2338058 -0.585501,0.2094219 -0.772514,-0.057576 z"
       id="path1" />
  </g>
</svg>
