<?xml version="1.0" encoding="UTF-8" standalone="no"?>
<!-- Created with Inkscape (http://www.inkscape.org/) -->

<svg
   width="24"
   height="24"
   viewBox="0 0 24 24"
   version="1.1"
   id="svg1"
   xml:space="preserve"
   inkscape:version="1.4.3 (0d15f75, 2025-12-25)"
   sodipodi:docname="select-none.svg"
   xmlns:inkscape="http://www.inkscape.org/namespaces/inkscape"
   xmlns:sodipodi="http://sodipodi.sourceforge.net/DTD/sodipodi-0.dtd"
   xmlns="http://www.w3.org/2000/svg"
   xmlns:svg="http://www.w3.org/2000/svg"><sodipodi:namedview
     id="namedview1"
     pagecolor="#ffffff"
     bordercolor="#000000"
     borderopacity="0.25"
     inkscape:showpageshadow="2"
     inkscape:pageopacity="0.0"
     inkscape:pagecheckerboard="0"
     inkscape:deskcolor="#d1d1d1"
     inkscape:document-units="px"
     inkscape:zoom="33.666667"
     inkscape:cx="12"
     inkscape:cy="12"
     inkscape:window-width="1920"
     inkscape:window-height="1010"
     inkscape:window-x="1913"
     inkscape:window-y="-6"
     inkscape:window-maximized="1"
     inkscape:current-layer="layer1" /><defs
     id="defs1" /><g
     inkscape:label="Vrstva 1"
     inkscape:groupmode="layer"
     id="layer1"><path
       style="fill:#000000;stroke-width:0.0256059"
       d="M 1.5798512,23.936443 C 1.117955,23.839266 0.67091643,23.516414 0.41823501,23.097522 0.3708424,23.018952 0.29594471,22.853717 0.2517976,22.73033 L 0.1715298,22.505992 0.1636378,20.777598 c -0.004346,-0.950616 -8.5784e-4,-1.776187 0.007578,-1.834607 0.0610751,-0.419493 0.57841619,-0.606381 0.904923,-0.326904 0.2064126,0.176683 0.1948518,0.06573 0.2092378,2.007876 l 0.012811,1.728395 0.075513,0.136314 c 0.080945,0.146125 0.2058779,0.259875 0.3639313,0.331355 0.089244,0.04036 0.2583832,0.04562 1.8394757,0.05724 1.2219908,0.009 1.7604575,0.0215 1.8057913,0.04196 0.086873,0.03922 0.2185023,0.176827 0.267096,0.279226 0.021789,0.04589 0.039595,0.142564 0.039595,0.214825 0,0.232631 -0.1179066,0.422892 -0.3200729,0.516493 -0.096653,0.04474 -0.2012742,0.04733 -1.8564237,0.0459 -1.4420515,-0.0013 -1.7858751,-0.0083 -1.9332401,-0.03924 z m 17.0813228,-0.0095 c -0.143647,-0.07256 -0.193705,-0.123947 -0.261668,-0.268648 -0.09755,-0.207687 -0.07049,-0.427981 0.07259,-0.590942 0.164447,-0.187295 0.04557,-0.175807 1.966453,-0.190036 l 1.728392,-0.0128 0.145483,-0.07145 c 0.157727,-0.07746 0.269469,-0.188606 0.360076,-0.358167 l 0.05777,-0.108112 0.01281,-1.728395 0.01281,-1.728393 0.0711,-0.120946 c 0.08864,-0.150785 0.247543,-0.248786 0.433413,-0.267298 0.115537,-0.01153 0.156444,-0.0025 0.276032,0.06045 0.08818,0.04645 0.169125,0.114841 0.21765,0.183882 l 0.07726,0.109927 v 1.835007 1.835008 l -0.07391,0.225479 c -0.17473,0.533093 -0.608678,0.969587 -1.155174,1.161949 l -0.204848,0.0721 -1.818013,0.0059 c -1.766197,0.0058 -1.820869,0.0046 -1.918205,-0.04462 z M 11.237485,18.408357 C 10.864377,18.363229 10.475191,18.28172 10.119398,18.174193 9.7236177,18.054585 9.56032,17.989218 9.1079657,17.769323 8.0353243,17.247895 7.0655117,16.365293 6.4205275,15.323556 6.2287753,15.013849 5.9476537,14.436199 5.8311309,14.112455 5.6164688,13.516047 5.5009412,12.949738 5.4549211,12.268286 5.3762232,11.10299 5.6004331,9.9783552 6.1247569,8.9083675 6.8072544,7.5155872 7.9464439,6.41116 9.3455293,5.7858688 c 1.6107767,-0.719902 3.4682977,-0.752903 5.1268587,-0.091088 0.227032,0.090593 0.714526,0.3417793 0.969941,0.4997727 1.625529,1.00551 2.74691,2.68069 3.05998,4.5711635 0.0977,0.589949 0.09932,1.580893 0.0035,2.138087 -0.184034,1.070119 -0.603333,2.056508 -1.22996,2.893459 -1.108713,1.48084 -2.697017,2.399665 -4.515922,2.612434 -0.390716,0.04571 -1.138938,0.04505 -1.522437,-0.0014 z m 1.276056,-1.101588 c 0.287264,-0.01827 0.591636,-0.07397 0.968232,-0.177184 0.656071,-0.179808 1.218339,-0.459237 1.817003,-0.902983 l 0.22465,-0.166518 -0.301077,-0.310651 C 14.909284,15.426414 13.000098,13.500826 9.9256955,10.407268 8.9389577,9.414385 8.0657518,8.5328896 7.9852353,8.4483898 L 7.8388455,8.2947542 7.7473968,8.3971769 C 7.5810428,8.583499 7.2748324,9.0733837 7.1084493,9.4193834 6.7267321,10.213177 6.5550191,10.967461 6.5542127,11.853967 c -8.579e-4,0.872802 0.1636094,1.595652 0.5420381,2.3832 0.6835126,1.42247 1.9530676,2.483114 3.4737052,2.902092 0.647055,0.178281 1.125653,0.219531 1.943585,0.16751 z m 4.029884,-2.391482 c 0.403074,-0.60301 0.703121,-1.332938 0.837366,-2.037087 0.100057,-0.524793 0.116517,-1.307028 0.03837,-1.822894 C 17.275206,10.104998 16.931825,9.2740144 16.371918,8.5209713 16.034503,8.0671645 15.412482,7.4975869 14.894884,7.1684637 14.328597,6.8083811 13.558761,6.5179949 12.846416,6.3957733 12.483975,6.3335859 11.539251,6.3333085 11.18204,6.3952014 10.66129,6.4855487 10.014684,6.6940602 9.58144,6.9113443 9.2508127,7.0771641 8.6927129,7.4394198 8.6677842,7.5043866 c -0.00838,0.021818 1.1407994,1.1980944 3.0547468,3.1268394 1.68749,1.700538 3.407638,3.4341 3.822556,3.852363 0.414918,0.418264 0.76364,0.754765 0.77494,0.747782 0.01129,-0.007 0.111831,-0.149261 0.223398,-0.316167 z M 0.52187022,5.4520103 C 0.36758263,5.3849933 0.28160455,5.3056319 0.22002905,5.1733907 L 0.15922848,5.0428138 0.15897113,3.3709537 C 0.15869948,1.5601755 0.16291717,1.4948827 0.30209255,1.1523601 0.45919956,0.76571887 0.79691258,0.40026915 1.1631229,0.22061248 1.5670381,0.02245799 1.4900616,0.02889176 3.4880682,0.02634113 L 5.2682617,0.02405357 5.3957018,0.08931776 C 5.7291342,0.26007009 5.7934147,0.72894914 5.5190873,0.98931678 5.3584288,1.1417943 5.4087695,1.1379084 3.595372,1.1379084 c -1.8374968,0 -1.8050935,-0.00258 -2.031791,0.1646874 -0.082736,0.061063 -0.1428469,0.1359471 -0.1984433,0.2472084 l -0.079759,0.1596119 v 1.6233438 c 0,1.1481053 -0.00872,1.6579318 -0.02975,1.7414907 C 1.2168292,5.2283409 1.0326517,5.4231556 0.88848946,5.4625932 0.7508582,5.5002436 0.62454752,5.4965921 0.5218645,5.4519846 Z M 23.119093,5.4663934 C 23.012996,5.4323059 22.884189,5.3260056 22.815916,5.216194 L 22.755882,5.119622 22.743071,3.4040322 22.73026,1.6884424 22.672495,1.5803293 C 22.586376,1.4191815 22.480791,1.3104021 22.328726,1.2261625 L 22.192533,1.1507185 20.451336,1.1379075 C 18.510924,1.1236385 18.629701,1.1353275 18.471753,0.94367621 18.240034,0.66255751 18.335977,0.24425363 18.67108,0.07462792 18.75359,0.03286559 18.889379,0.0297688 20.540305,0.03200204 c 1.985125,0.0025735 1.914311,-0.0029738 2.292374,0.18286783 0.482378,0.23710311 0.828532,0.66701638 0.960702,1.19316183 0.04982,0.1983375 0.05151,0.2722601 0.04485,1.9607308 l -0.0069,1.7546213 -0.07064,0.1067206 C 23.657283,5.3863507 23.520048,5.467788 23.34012,5.4796919 23.25821,5.4851019 23.158744,5.47912 23.119098,5.4663949 Z"
       id="path1" /></g></svg>
