<?xml version="1.0" encoding="UTF-8" standalone="no"?>
<!-- Created with Inkscape (http://www.inkscape.org/) -->

<svg
   width="24"
   height="24"
   viewBox="0 0 24 24"
   version="1.1"
   id="svg1"
   xml:space="preserve"
   inkscape:version="1.4.3 (0d15f75, 2025-12-25)"
   sodipodi:docname="select-visible.svg"
   xmlns:inkscape="http://www.inkscape.org/namespaces/inkscape"
   xmlns:sodipodi="http://sodipodi.sourceforge.net/DTD/sodipodi-0.dtd"
   xmlns="http://www.w3.org/2000/svg"
   xmlns:svg="http://www.w3.org/2000/svg"><sodipodi:namedview
     id="namedview1"
     pagecolor="#ffffff"
     bordercolor="#000000"
     borderopacity="0.25"
     inkscape:showpageshadow="2"
     inkscape:pageopacity="0.0"
     inkscape:pagecheckerboard="0"
     inkscape:deskcolor="#d1d1d1"
     inkscape:document-units="px"
     inkscape:zoom="13.333333"
     inkscape:cx="6.9"
     inkscape:cy="8.475"
     inkscape:window-width="1920"
     inkscape:window-height="1010"
     inkscape:window-x="1913"
     inkscape:window-y="-6"
     inkscape:window-maximized="1"
     inkscape:current-layer="layer1" /><defs
     id="defs1" /><g
     inkscape:label="Vrstva 1"
     inkscape:groupmode="layer"
     id="layer1"><path
       style="fill:#000000;stroke-width:0.02348"
       d="M 1.3714861,23.880152 C 0.88253189,23.773768 0.47221257,23.457165 0.25138868,23.015885 0.08018514,22.67376 0.08436428,22.716572 0.0760917,21.220678 0.0710505,20.308708 0.07684788,19.846152 0.09403831,19.782217 0.20781776,19.359673 0.8271621,19.308895 1.024484,19.705937 c 0.040879,0.08226 0.0447,0.180351 0.055635,1.428439 l 0.011746,1.340114 0.067353,0.101734 c 0.08416,0.127128 0.1643829,0.202317 0.2848494,0.266983 0.092297,0.04954 0.1180821,0.05062 1.4930214,0.06216 l 1.3991041,0.01175 0.099233,0.06879 c 0.1782058,0.123536 0.2645814,0.338477 0.2138268,0.532079 -0.043803,0.167077 -0.1292055,0.276272 -0.2658241,0.339881 l -0.1217596,0.05669 -1.3735806,-0.0018 c -1.0477011,-0.0013 -1.4075103,-0.009 -1.5165864,-0.03275 z m 18.3050449,0.0045 c -0.118712,-0.03856 -0.273454,-0.202927 -0.306546,-0.325619 -0.06029,-0.223506 0.0248,-0.450097 0.216705,-0.577145 l 0.09784,-0.06477 1.387071,-0.01175 c 1.529778,-0.01296 1.461496,-0.0061 1.642699,-0.16518 0.04832,-0.04242 0.116229,-0.130914 0.150912,-0.196646 l 0.06307,-0.119514 0.01175,-1.340114 0.01175,-1.340115 0.06299,-0.09515 c 0.0801,-0.120993 0.266419,-0.218419 0.417088,-0.218094 0.158048,2.52e-4 0.335729,0.09139 0.416517,0.213446 l 0.06608,0.09984 0.007,1.375317 c 0.0079,1.552288 0.0086,1.543917 -0.166506,1.903615 -0.07758,0.159322 -0.137596,0.240177 -0.29756,0.400847 -0.217207,0.218173 -0.369574,0.315167 -0.652218,0.415197 l -0.182123,0.06446 -1.43228,0.004 c -1.013489,0.0028 -1.456241,-0.0038 -1.514222,-0.02261 z m -8.48827,-6.860124 C 9.8046207,16.855209 8.5348125,16.350045 7.3292471,15.489283 6.2979272,14.752933 5.2593003,13.619646 4.6270959,12.540858 4.4632978,12.261352 4.4204377,12.088929 4.4598875,11.868178 4.4841101,11.732663 4.5205381,11.651957 4.6689352,11.405095 5.6634291,9.7507302 7.2106282,8.3601712 8.8754781,7.624416 11.257338,6.5717948 13.777346,6.7433181 16.063413,8.1136651 c 0.985899,0.5909802 1.948674,1.4580753 2.683708,2.4170019 0.257859,0.3364 0.597357,0.850631 0.713879,1.08129 0.0922,0.182519 0.101074,0.215465 0.101167,0.375679 1.18e-4,0.218853 -0.03551,0.319927 -0.21881,0.620598 -1.329597,2.180968 -3.446628,3.770931 -5.691322,4.274374 -0.570757,0.128011 -0.843074,0.157143 -1.548053,0.165608 -0.452847,0.0054 -0.737817,-0.002 -0.915721,-0.02372 z m 1.714042,-1.079352 c 2.11135,-0.339473 4.029033,-1.63426 5.381357,-3.633403 l 0.201327,-0.297624 -0.07621,-0.125016 C 18.280898,11.679341 17.907858,11.16701 17.702278,10.918813 17.44668,10.610227 16.840194,10.007382 16.527792,9.7513803 15.434982,8.8558599 14.261728,8.2983484 13.031443,8.089971 11.810386,7.8831569 10.581729,8.0478234 9.3493693,8.5834452 8.0991812,9.1268164 6.8687124,10.135496 5.9706134,11.353193 5.7701912,11.624938 5.541314,11.973672 5.541314,12.007309 c 0,0.03915 0.3531876,0.553714 0.5744123,0.836867 1.3922585,1.781997 3.241535,2.885887 5.2486357,3.133079 0.269305,0.03317 1.260709,0.01248 1.537941,-0.0321 z M 11.689496,14.664574 C 9.8707126,14.433401 8.823289,12.483137 9.6264851,10.823333 10.414992,9.1938867 12.590818,8.8271026 13.877305,10.106762 c 0.399189,0.397071 0.672163,0.933888 0.751787,1.478419 0.04547,0.310986 0.01742,0.854365 -0.05832,1.129853 -0.117583,0.427681 -0.387867,0.892926 -0.693463,1.193678 -0.358128,0.352451 -0.856764,0.623856 -1.319279,0.718074 -0.222291,0.04528 -0.659813,0.06432 -0.868538,0.03779 z m 0.719726,-1.095219 c 0.314812,-0.07936 0.672673,-0.317466 0.870996,-0.579519 0.49524,-0.654393 0.436064,-1.542823 -0.141196,-2.11983 -0.4156,-0.415415 -0.975091,-0.566341 -1.550584,-0.418276 -0.560769,0.144276 -1.025964,0.627143 -1.152611,1.19639 -0.05786,0.26005 -0.03918,0.643535 0.0426,0.87519 0.242547,0.686964 0.909303,1.138522 1.613811,1.09295 0.09685,-0.0063 0.239496,-0.02737 0.316979,-0.04691 z M 0.40059,4.5617623 C 0.2791303,4.520964 0.12687656,4.3625625 0.09518014,4.2440192 0.07609927,4.1726335 0.07045314,3.7521184 0.07567076,2.7882598 0.08295527,1.4407722 0.08330815,1.4319249 0.13775039,1.2685226 0.2366281,0.97171048 0.34736773,0.79080263 0.56288577,0.57400667 0.72372212,0.41221753 0.80241244,0.3533441 0.96271188,0.27487056 1.3350737,0.0925865 1.2817632,0.09802593 2.7941553,0.08795617 c 0.9337023,-0.0062259 1.3867205,-0.0010082 1.4688312,0.01706441 0.4091902,0.0897935 0.5333242,0.62083903 0.2078378,0.88913324 -0.047133,0.0388499 -0.1313631,0.0821359 -0.187179,0.0961908 -0.06699,0.016863 -0.546885,0.02573 -1.4118382,0.02607 -1.2669244,5.042e-4 -1.3138553,0.00202 -1.4160148,0.04829 -0.1293391,0.058478 -0.245692,0.1668379 -0.3131657,0.291655 -0.049925,0.092354 -0.050969,0.1162522 -0.062513,1.4322827 L 1.0683675,4.2270027 1.009668,4.3317004 C 0.89929134,4.5285711 0.61804385,4.6348014 0.40058748,4.5617597 Z m 22.860046,-0.00365 C 23.162447,4.521574 23.08113,4.454312 23.002289,4.3444143 22.952328,4.2747754 22.95162,4.2587797 22.940012,2.9356135 22.928645,1.6391956 22.926729,1.5939409 22.87908,1.4915923 22.826626,1.378932 22.652837,1.2037308 22.546543,1.1563513 c -0.04734,-0.021097 -0.431106,-0.031807 -1.449712,-0.04044 -1.518639,-0.01288 -1.443099,-0.00547 -1.593439,-0.15582037 -0.108544,-0.10854672 -0.142429,-0.19428455 -0.143291,-0.36257936 -0.001,-0.20554154 0.08553,-0.35472017 0.257101,-0.44299376 l 0.116592,-0.05998753 h 1.397659 c 1.568995,0 1.548591,-0.0017644 1.896331,0.17304357 0.429617,0.21608517 0.735297,0.59384355 0.853031,1.05417395 0.04228,0.1652927 0.04536,0.2702779 0.04536,1.5434886 v 1.3661323 l -0.05465,0.1034854 C 23.76633,4.5340282 23.478567,4.6391948 23.260636,4.5581074 Z"
       id="path1" /></g></svg>
