<?xml version="1.0" encoding="UTF-8" standalone="no"?>
<!-- Created with Inkscape (http://www.inkscape.org/) -->

<svg
   width="24"
   height="24"
   viewBox="0 0 24 24"
   version="1.1"
   id="svg1"
   inkscape:version="1.4.3 (0d15f75, 2025-12-25)"
   sodipodi:docname="select-all.svg"
   xml:space="preserve"
   xmlns:inkscape="http://www.inkscape.org/namespaces/inkscape"
   xmlns:sodipodi="http://sodipodi.sourceforge.net/DTD/sodipodi-0.dtd"
   xmlns="http://www.w3.org/2000/svg"
   xmlns:svg="http://www.w3.org/2000/svg"><sodipodi:namedview
     id="namedview1"
     pagecolor="#ffffff"
     bordercolor="#000000"
     borderopacity="0.25"
     inkscape:showpageshadow="2"
     inkscape:pageopacity="0.0"
     inkscape:pagecheckerboard="0"
     inkscape:deskcolor="#d1d1d1"
     inkscape:document-units="px"
     inkscape:zoom="4.2083333"
     inkscape:cx="-47.524752"
     inkscape:cy="5.7029703"
     inkscape:window-width="1920"
     inkscape:window-height="1010"
     inkscape:window-x="1913"
     inkscape:window-y="-6"
     inkscape:window-maximized="1"
     inkscape:current-layer="layer1" /><defs
     id="defs1" /><g
     inkscape:label="Vrstva 1"
     inkscape:groupmode="layer"
     id="layer1"><path
       style="fill:#000000;stroke-width:0.0260413"
       d="M 1.8443358,23.604788 C 1.206474,23.468996 0.63805753,23.000365 0.38849105,22.404516 0.24413695,22.059867 0.24354853,22.051207 0.24375055,20.275488 c 1.9614e-4,-1.541798 0.003089,-1.646877 0.0484142,-1.74477 0.12179408,-0.263064 0.39232501,-0.378931 0.69280643,-0.296729 0.14661461,0.04011 0.33392531,0.238236 0.37338581,0.394947 0.021266,0.08446 0.030256,0.572932 0.030256,1.644086 0,1.488435 0.00128,1.52744 0.05526,1.674644 0.041005,0.111832 0.096596,0.191557 0.2154813,0.309025 0.2729317,0.269677 0.1609152,0.254954 2.0599578,0.270748 l 1.6406036,0.01365 0.1214292,0.07138 c 0.1347082,0.07919 0.2101426,0.183884 0.2555812,0.354721 0.063916,0.240308 -0.058496,0.497368 -0.2923388,0.613897 l -0.1339596,0.06676 -1.6420011,-0.0021 c -1.3497959,-0.0018 -1.6744408,-0.009 -1.8242908,-0.04095 z m 16.7481502,0.0055 c -0.379645,-0.137419 -0.479413,-0.648541 -0.181738,-0.931064 0.162403,-0.154138 0.126204,-0.151119 1.812459,-0.151119 1.701416,0 1.732907,-0.0026 1.978256,-0.159987 0.130463,-0.08372 0.268925,-0.252599 0.349222,-0.425943 0.04485,-0.09682 0.04918,-0.217976 0.06144,-1.718728 l 0.01319,-1.614563 0.0651,-0.116029 c 0.189732,-0.338148 0.638955,-0.384903 0.906754,-0.09438 0.165983,0.180069 0.166654,0.188623 0.15459,1.968196 -0.01206,1.77879 -0.0062,1.720633 -0.219273,2.16143 -0.103293,0.213648 -0.153784,0.28151 -0.370163,0.497519 -0.277959,0.277482 -0.499536,0.417732 -0.849507,0.537703 l -0.20833,0.07142 -1.705708,0.006 c -1.4069,0.0049 -1.723329,-3.82e-4 -1.806298,-0.03043 z M 6.5057338,17.517728 C 6.4049433,17.472518 6.3231727,17.38271 6.272605,17.261685 c -0.034735,-0.08313 -0.040284,-0.295375 -0.04016,-1.536084 9.82e-5,-0.934569 0.00984,-1.474526 0.027775,-1.539118 0.1147201,-0.413133 0.6951091,-0.47201 0.8803721,-0.08931 0.05286,0.109194 0.055238,0.151007 0.055238,0.971432 v 0.857325 l 1.3997212,-1.397404 c 1.2642111,-1.262118 1.4108874,-1.400336 1.5150554,-1.427695 0.419273,-0.110114 0.757425,0.27932 0.576841,0.664322 -0.03283,0.06999 -0.493958,0.548364 -1.4056585,1.45822 -0.746241,0.744731 -1.3568019,1.362887 -1.3568019,1.373681 0,0.0108 0.3754618,0.01962 0.8343604,0.01962 0.7673546,0 0.8421189,0.004 0.9309772,0.04931 0.1193404,0.06091 0.1741437,0.120066 0.2258307,0.243769 0.081899,0.196014 0.0179,0.422948 -0.1568865,0.556285 l -0.098445,0.0751 -1.5384825,0.0058 c -1.24274,0.0047 -1.5535012,-8.79e-4 -1.6166073,-0.02923 z m 7.7863582,-0.01227 c -0.27917,-0.173385 -0.335214,-0.514245 -0.12204,-0.742242 0.132912,-0.142153 0.164997,-0.146531 1.073882,-0.146531 0.469122,0 0.832518,-0.01003 0.827649,-0.02285 -0.0048,-0.01257 -0.61057,-0.630728 -1.346211,-1.373681 -0.735643,-0.742952 -1.354992,-1.376952 -1.376331,-1.408888 -0.111538,-0.166929 -0.09154,-0.407859 0.04693,-0.565578 0.148013,-0.168576 0.384515,-0.210607 0.602639,-0.107101 0.05302,0.02516 0.658016,0.612284 1.438677,1.396185 0.740947,0.744019 1.351814,1.352763 1.357482,1.352763 0.0057,0 0.01031,-0.377154 0.01031,-0.838122 0,-0.800854 0.0024,-0.843194 0.05524,-0.952227 0.142789,-0.294961 0.542378,-0.353727 0.760857,-0.111896 0.0509,0.05634 0.105586,0.150855 0.121519,0.210026 0.02012,0.07472 0.02651,0.555084 0.02093,1.572371 l -0.008,1.464784 -0.07164,0.108257 c -0.0394,0.05954 -0.118037,0.131927 -0.174742,0.160855 -0.09995,0.05099 -0.149439,0.0526 -1.621044,0.0525 -1.435393,-9.8e-5 -1.522194,-0.0027 -1.596069,-0.04862 z M 10.060376,10.63821 C 10.002461,10.613422 9.4636773,10.094033 8.5825302,9.213558 L 7.1958299,7.8279136 V 8.681512 c 0,0.8983081 -0.00762,0.9651643 -0.1246903,1.0946266 -0.075996,0.084038 -0.2315794,0.1479197 -0.3602601,0.1479197 -0.155127,0 -0.321275,-0.093454 -0.4046993,-0.227631 l -0.060859,-0.097886 -0.00733,-1.4785164 c -0.00486,-0.9806625 0.00195,-1.5129679 0.020215,-1.5808273 0.034636,-0.1286294 0.141517,-0.2573709 0.2519889,-0.3035295 0.06844,-0.028597 0.3754931,-0.035522 1.5750047,-0.035522 1.465135,0 1.4918952,8.786e-4 1.6040972,0.055238 0.1645849,0.079674 0.2532804,0.2242419 0.2521279,0.4109485 -0.00107,0.1750097 -0.054104,0.2854876 -0.1849344,0.3853219 l -0.095612,0.072959 -0.8679448,0.00751 c -0.4773684,0.00413 -0.867944,0.0157 -0.867944,0.025716 0,0.010016 0.6204692,0.6394397 1.37882,1.3987241 0.7583503,0.759284 1.3911533,1.4135049 1.4062313,1.4538234 0.06245,0.167 0.0036,0.43479 -0.119601,0.54418 -0.134452,0.119389 -0.362467,0.15537 -0.530061,0.08364 z m 3.48618,-0.01119 c -0.121787,-0.06435 -0.221954,-0.184377 -0.25591,-0.306638 -0.03409,-0.12273 -0.03383,-0.145472 0.0031,-0.276114 0.02601,-0.09191 0.226433,-0.3039738 1.406232,-1.4879315 0.756742,-0.7594097 1.375894,-1.3892838 1.375894,-1.3997212 0,-0.010436 -0.381436,-0.018978 -0.847636,-0.018978 -0.918591,0 -0.918786,-2.67e-5 -1.058234,-0.1474132 -0.0868,-0.091734 -0.125353,-0.1905743 -0.125353,-0.3213311 0,-0.1304948 0.03841,-0.2292248 0.125353,-0.3222136 0.139505,-0.1492048 0.107797,-0.1465304 1.736803,-0.1465304 1.442138,0 1.503095,0.00195 1.600186,0.051494 0.17841,0.091019 0.218235,0.177649 0.239219,0.5203741 0.03075,0.5022958 0.02596,2.6719191 -0.0062,2.7995749 -0.05149,0.2044691 -0.249724,0.3525085 -0.471931,0.3524282 -0.143207,-5.19e-5 -0.269418,-0.065239 -0.370074,-0.1911385 l -0.07998,-0.1000333 -0.0075,-0.8830269 c -0.0041,-0.485664 -0.01525,-0.883027 -0.02473,-0.883027 -0.0095,0 -0.618377,0.6083086 -1.3531,1.3517958 -0.946228,0.9575167 -1.368657,1.3676727 -1.44831,1.4062317 -0.139612,0.06758 -0.312519,0.06845 -0.437903,0.0022 z M 0.66878286,5.4992013 C 0.53835079,5.4665517 0.41192683,5.3756192 0.33090534,5.2561749 L 0.25581414,5.1454734 0.24825295,3.4918491 C 0.24310427,2.3655978 0.24991033,1.784241 0.26960572,1.6689558 0.34942586,1.2016299 0.67006169,0.69288503 1.0708373,0.39766402 1.2722751,0.24927925 1.4057963,0.17833544 1.6615452,0.08380187 L 1.8443339,0.01623656 3.6021234,0.00840077 5.3599138,5.6497867e-4 5.5031411,0.08632423 C 5.8849914,0.31496162 5.8888236,0.86470166 5.5102111,1.100097 L 5.4119981,1.161158 3.7323321,1.174179 C 2.054538,1.1871852 2.0525246,1.1872656 1.9245355,1.2462909 1.7291007,1.3364202 1.5896471,1.4654126 1.4910603,1.647251 L 1.4016343,1.8121919 1.3886135,3.4527957 C 1.3756173,5.0902808 1.3754819,5.0936073 1.3172402,5.2025668 1.2625652,5.3048539 1.1574929,5.4033299 1.0370552,5.4651612 0.96054396,5.5044422 0.76274566,5.5227292 0.66878386,5.4992102 Z M 23.058132,5.4948862 C 22.887967,5.4615609 22.761718,5.3651749 22.66868,5.1975535 22.629934,5.1277455 22.623932,4.9461181 22.612298,3.491241 L 22.599277,1.863053 22.514391,1.6906813 C 22.415595,1.4900664 22.274372,1.3523173 22.068555,1.2558116 L 21.922202,1.1871881 20.255557,1.1741673 C 18.766706,1.1625362 18.580578,1.1565334 18.510788,1.1178997 18.155129,0.9210154 18.091201,0.43199341 18.384706,0.15342664 c 0.164145,-0.15579003 0.1176,-0.15206828 1.916845,-0.15327061346 1.831178,-0.001225877 1.855323,5.8841977e-4 2.223663,0.17081337346 0.589303,0.27227461 1.029317,0.80371971 1.173392,1.4172111 0.04206,0.1790915 0.04649,0.3555615 0.04649,1.8515826 v 1.6536253 l -0.05835,0.1091666 c -0.121802,0.2278698 -0.369524,0.3430704 -0.628611,0.2923312 z"
       id="path1" /></g></svg>
