<?xml version="1.0" encoding="UTF-8" standalone="no"?>
<!-- Created with Inkscape (http://www.inkscape.org/) -->

<svg
   width="24"
   height="24"
   viewBox="0 0 24 24"
   version="1.1"
   id="svg1"
   xml:space="preserve"
   inkscape:version="1.4.3 (0d15f75, 2025-12-25)"
   sodipodi:docname="select-even.svg"
   xmlns:inkscape="http://www.inkscape.org/namespaces/inkscape"
   xmlns:sodipodi="http://sodipodi.sourceforge.net/DTD/sodipodi-0.dtd"
   xmlns="http://www.w3.org/2000/svg"
   xmlns:svg="http://www.w3.org/2000/svg"><sodipodi:namedview
     id="namedview1"
     pagecolor="#ffffff"
     bordercolor="#000000"
     borderopacity="0.25"
     inkscape:showpageshadow="2"
     inkscape:pageopacity="0.0"
     inkscape:pagecheckerboard="0"
     inkscape:deskcolor="#d1d1d1"
     inkscape:document-units="px"
     inkscape:zoom="6.6666667"
     inkscape:cx="-4.5"
     inkscape:cy="2.7"
     inkscape:window-width="1920"
     inkscape:window-height="1010"
     inkscape:window-x="1913"
     inkscape:window-y="-6"
     inkscape:window-maximized="1"
     inkscape:current-layer="layer1" /><defs
     id="defs1" /><g
     inkscape:label="Vrstva 1"
     inkscape:groupmode="layer"
     id="layer1"><path
       style="fill:#000000;stroke-width:0.0255282"
       d="M 1.9077133,23.923312 C 1.445066,23.891829 1.1124753,23.748057 0.78784411,23.439263 0.48538994,23.151561 0.28957016,22.760131 0.23654486,22.337241 c -0.0362501,-0.289101 -0.0354631,-3.192894 9.0597e-4,-3.362508 0.0581644,-0.271214 0.27321341,-0.444441 0.54866345,-0.441966 0.24218002,0.0023 0.46135342,0.172117 0.51942672,0.402749 0.01855,0.07367 0.027785,0.639592 0.027785,1.702759 0,1.782372 -0.0047,1.731723 0.1808985,1.942593 0.055264,0.06278 0.1600458,0.143834 0.232849,0.180112 l 0.1323685,0.06596 1.6351736,5.66e-4 c 0.8993447,3.34e-4 1.6802773,0.01104 1.7354039,0.02384 0.4557789,0.105704 0.580976,0.717925 0.2007126,0.981489 -0.09325,0.06463 -0.1406451,0.07713 -0.3573945,0.09427 -0.3142906,0.02486 -2.8084683,0.0218 -3.1856276,-0.004 z m 16.7592487,-0.03935 c -0.423044,-0.183239 -0.445712,-0.776315 -0.03829,-1.001851 0.06855,-0.03794 0.256049,-0.04371 1.786972,-0.05515 l 1.710388,-0.01274 0.127641,-0.05881 c 0.154529,-0.07119 0.250302,-0.15876 0.340526,-0.311348 l 0.06792,-0.114877 0.01276,-1.697624 c 0.01271,-1.689748 0.01302,-1.698117 0.06908,-1.802909 0.11237,-0.210066 0.291697,-0.303681 0.54643,-0.285256 0.189396,0.0137 0.338827,0.111304 0.424103,0.277012 l 0.05957,0.115754 0.01232,1.607163 c 0.0083,1.078048 0.0032,1.673666 -0.01529,1.809166 -0.106402,0.778454 -0.693338,1.40837 -1.439157,1.544543 -0.09939,0.01812 -0.740227,0.02729 -1.863557,0.02667 -1.47205,-0.0011 -1.724608,-0.0064 -1.80143,-0.03969 z M 10.82051,19.170553 c -0.132861,-0.03516 -0.309488,-0.208464 -0.345284,-0.338765 -0.01861,-0.06775 -0.0281,-0.525174 -0.02819,-1.359374 l -1.42e-4,-1.257266 H 8.5117614 6.5766324 L 6.4436088,16.148858 C 6.3448498,16.099648 6.2925983,16.051968 6.2407531,15.96378 l -0.069832,-0.11879 -0.00661,-5.433907 C 6.1598341,6.7243744 6.1661759,4.9456096 6.1841254,4.8790095 6.2180483,4.7530287 6.3154922,4.6379818 6.4485617,4.5667952 l 0.1052839,-0.05634 h 3.6930044 3.693005 l 0.110694,0.077721 c 0.06088,0.04275 0.139144,0.1289025 0.173917,0.1914598 l 0.06322,0.1137445 -0.0012,1.435957 -0.0012,1.4359627 h 0.890389 c 0.585787,0 0.931374,0.010079 1.01019,0.029444 0.112279,0.027575 0.198326,0.1086371 1.37068,1.2912906 0.687984,0.6940297 1.273856,1.3039972 1.301937,1.3554842 0.05035,0.09233 0.05117,0.149429 0.05888,4.152594 0.0058,3.00222 1.28e-4,4.094713 -0.0217,4.196227 -0.04087,0.189965 -0.192534,0.343108 -0.379522,0.383208 -0.177525,0.03805 -7.55129,0.03522 -7.695575,-0.0028 z m 7.182715,-4.455188 -4e-6,-3.567557 h -1.027505 -1.027505 l -0.113889,-0.06383 c -0.125529,-0.07034 -0.216546,-0.187326 -0.255861,-0.328861 -0.01514,-0.05453 -0.02571,-0.497701 -0.0258,-1.0817176 l -1.43e-4,-0.9893647 -2.099693,0.00651 -2.099692,0.00651 -0.0066,4.7610043 c -0.0036,2.618553 -0.0011,4.775362 0.0056,4.792916 0.0096,0.02531 0.699511,0.03188 3.331594,0.03188 h 3.319465 z m -4.623622,2.125146 c -0.09593,-0.05215 -0.158786,-0.199144 -0.143423,-0.335441 0.01008,-0.08945 0.04448,-0.150391 0.175228,-0.310476 0.08948,-0.109549 0.524544,-0.637996 0.96682,-1.174324 0.945511,-1.146585 1.008647,-1.245047 1.007869,-1.571796 -4.15e-4,-0.175 -0.01121,-0.227824 -0.06918,-0.338516 -0.183896,-0.351148 -0.595633,-0.482695 -0.985666,-0.314904 -0.161365,0.06941 -0.313914,0.233712 -0.359287,0.386946 -0.0902,0.304632 -0.180783,0.387675 -0.40482,0.371108 -0.104553,-0.0078 -0.151275,-0.02593 -0.209367,-0.08159 -0.09944,-0.09527 -0.113335,-0.17697 -0.06531,-0.384069 0.111539,-0.48094 0.499149,-0.868265 0.995391,-0.994647 0.196459,-0.05005 0.574014,-0.0496 0.767769,0.0011 0.457912,0.119271 0.848793,0.510735 0.968369,0.969818 0.05027,0.193 0.05012,0.571322 -3.11e-4,0.764922 -0.08946,0.343459 -0.165858,0.451077 -1.256155,1.769462 -0.256239,0.309842 -0.465889,0.575489 -0.465889,0.590319 0,0.01835 0.253029,0.02695 0.792642,0.02695 0.669577,0 0.804647,0.0062 0.869969,0.03998 0.135471,0.07005 0.19316,0.312849 0.111743,0.470295 -0.08225,0.159043 -0.0321,0.153551 -1.390729,0.15243 -1.021614,-5.67e-4 -1.250539,-0.0074 -1.305665,-0.03737 z m -3.01249,-1.56033 0.07978,-0.01597 1.53e-4,-3.513318 c 1.02e-4,-2.3728322 0.0088,-3.544614 0.02692,-3.6097419 0.03128,-0.1126461 0.151279,-0.258009 0.263918,-0.3197112 0.07098,-0.0389 0.211954,-0.044166 1.361968,-0.050848 l 1.282781,-0.00747 V 6.6026969 5.4422681 H 10.229903 7.0771728 V 10.35219 c 0,2.700454 0.00766,4.917578 0.017021,4.926938 0.021556,0.02157 3.1653512,0.02259 3.2729252,0.0011 z m 7.048968,-5.059464 c 0,-0.01144 -0.212522,-0.2309092 -0.472271,-0.4876668 L 16.471539,9.2662208 v 0.4876667 0.4876675 h 0.472271 c 0.259749,0 0.472271,-0.0094 0.472271,-0.02084 z M 0.65683233,5.4189337 C 0.44409129,5.3655947 0.309198,5.2340195 0.24661415,5.018744 0.21102651,4.8963135 0.20735167,4.6838012 0.21629246,3.2653748 c 0.009977,-1.582526 0.011302,-1.61804 0.0678255,-1.8182594 C 0.3827724,1.097643 0.52027772,0.86513717 0.78268858,0.60407621 0.96729415,0.42041908 1.0582077,0.35184847 1.2312146,0.26575866 1.6416768,0.06151335 1.559357,0.06857426 3.5287509,0.06857426 c 1.7413805,0 1.7491061,2.3215e-4 1.8507928,0.05492444 0.1935775,0.1041809 0.2972284,0.27053966 0.2972074,0.47701592 -2.32e-5,0.22766463 -0.087369,0.38236469 -0.2797296,0.49544108 l -0.1195903,0.070303 -1.7103883,0.01274 -1.7103878,0.01274 -0.1236248,0.063146 C 1.5844291,1.3307888 1.4752145,1.4497257 1.3940395,1.6240513 L 1.3338265,1.7533616 1.3334347,3.3488712 C 1.3331782,4.3941626 1.3237011,4.9780207 1.3059611,5.0419199 1.273567,5.1585805 1.1341359,5.320064 1.0200103,5.3730973 0.9128595,5.422869 0.75318678,5.4430099 0.65683346,5.4188488 Z M 23.093412,5.4132148 C 22.965615,5.3845068 22.800409,5.2479828 22.735633,5.117608 22.690567,5.0269034 22.686875,4.9194157 22.674886,3.3489392 l -0.01276,-1.6720925 -0.05761,-0.1078161 c -0.0777,-0.1454082 -0.202793,-0.2659871 -0.353523,-0.340758 l -0.124958,-0.061991 -1.710388,-0.01274 C 18.537391,1.1394989 18.640014,1.1484453 18.483238,0.98350217 18.20986,0.6956981 18.33881,0.19798643 18.716035,0.08496665 c 0.06859,-0.02055419 0.591449,-0.02916091 1.773849,-0.02916091 1.863428,0 1.909105,0.0033974 2.250381,0.16643804 0.47865,0.22868951 0.84203,0.65978407 0.979631,1.16217842 0.04978,0.181749 0.05238,0.2672725 0.05768,1.9008952 l 0.0055,1.7105905 -0.05832,0.1204601 c -0.07389,0.152639 -0.17489,0.237636 -0.340992,0.2869604 -0.145251,0.043147 -0.142919,0.043033 -0.290419,0.00991 z"
       id="path1" /></g></svg>
