<?xml version="1.0" encoding="utf-8"?>
<!-- Generator: Adobe Illustrator 16.0.0, SVG Export Plug-In . SVG Version: 6.00 Build 0)  -->
<!DOCTYPE svg PUBLIC "-//W3C//DTD SVG 1.1//EN" "http://www.w3.org/Graphics/SVG/1.1/DTD/svg11.dtd">
<svg version="1.1" id="Vrstva_1" xmlns="http://www.w3.org/2000/svg" xmlns:xlink="http://www.w3.org/1999/xlink" x="0px" y="0px"
	 width="24px" height="24px" viewBox="0 0 24 24" enable-background="new 0 0 24 24" xml:space="preserve">
<g>
	<path fill="#292D32" d="M5.369,2.316C4.621,2.307,3.872,2.308,3.127,2.317C2.682,2.321,2.329,2.652,2.323,3.069
		c-0.011,0.789-0.01,1.578-0.001,2.369C2.329,5.839,2.667,6.17,3.09,6.192l0.043,0.001c0.388,0,0.72-0.278,0.791-0.663
		c0.02-0.112,0.022-0.229,0.022-0.343V3.945h0.782h0.001l0.627-0.002c0.469-0.004,0.818-0.336,0.829-0.788
		c0.005-0.229-0.074-0.44-0.222-0.594C5.813,2.406,5.603,2.318,5.369,2.316z"/>
	<path fill="#292D32" d="M5.343,20.066H3.945l0.001-0.383c0.001-0.35,0.002-0.701-0.004-1.054c-0.009-0.467-0.345-0.812-0.808-0.815
		c-0.453,0-0.809,0.345-0.813,0.787c-0.008,0.769-0.008,1.531,0,2.303c0.004,0.432,0.344,0.771,0.777,0.775
		c0.363,0.004,0.726,0.006,1.089,0.006c0.411,0,0.823-0.002,1.235-0.006c0.428-0.007,0.755-0.344,0.763-0.785
		c0.005-0.229-0.072-0.436-0.216-0.582C5.813,20.15,5.597,20.068,5.343,20.066z"/>
	<path fill="#292D32" d="M9.01,2.317c-0.383-0.013-0.766-0.014-1.151,0c-0.462,0.02-0.799,0.385-0.78,0.848
		c0.017,0.437,0.358,0.764,0.809,0.776l0.228,0.003l0.327-0.001l0.313,0.001l0.215-0.002c0.465-0.01,0.815-0.34,0.833-0.782
		c0.009-0.215-0.066-0.422-0.212-0.579C9.443,2.421,9.236,2.326,9.01,2.317z"/>
	<path fill="#292D32" d="M3.943,11.464c-0.021-0.477-0.362-0.821-0.826-0.82c-0.459,0.008-0.795,0.361-0.801,0.844
		c-0.003,0.345-0.003,0.686,0,1.032c0.005,0.487,0.332,0.838,0.793,0.848h0.019c0.464,0,0.799-0.344,0.815-0.834
		c0.004-0.119,0.003-0.239,0.002-0.358V12.02l0.001-0.168C3.947,11.722,3.947,11.594,3.943,11.464z"/>
	<path fill="#292D32" d="M2.317,8.995C2.332,9.448,2.661,9.787,3.099,9.8H3.13c0.434,0,0.779-0.317,0.802-0.739
		c0.021-0.411,0.021-0.828,0-1.24C3.926,7.717,3.9,7.619,3.857,7.53C3.734,7.277,3.469,7.105,3.145,7.09
		C3.126,7.089,3.109,7.082,3.091,7.082c0,0-0.001,0-0.002,0C2.662,7.104,2.336,7.436,2.317,7.871C2.312,8,2.314,8.128,2.315,8.259
		l0.001,0.164l-0.001,0.17C2.314,8.728,2.313,8.863,2.317,8.995z"/>
	<path fill="#292D32" d="M3.085,16.925l0.047,0.001c0.442,0,0.788-0.335,0.805-0.777c0.017-0.39,0.017-0.782,0-1.174
		c-0.02-0.438-0.366-0.77-0.832-0.77c-0.442,0.013-0.773,0.352-0.789,0.801c-0.004,0.129-0.003,0.26-0.002,0.391l0.001,0.162
		l-0.001,0.158c0,0.133-0.001,0.262,0.002,0.393C2.328,16.561,2.651,16.902,3.085,16.925z"/>
	<path fill="#292D32" d="M12.57,20.068c-0.376-0.01-0.757-0.01-1.14,0c-0.448,0.011-0.789,0.354-0.793,0.801
		c0,0.003,0.001,0.006,0.001,0.01c0,0.002-0.001,0.004-0.001,0.006c0,0.067,0.022,0.126,0.038,0.188
		c0.01,0.034,0.009,0.075,0.023,0.11c0.116,0.289,0.393,0.489,0.732,0.506c0.076,0.002,0.151,0.004,0.227,0.004h0.01
		c0.002,0,0.004,0,0.006,0l0.332-0.002l0.35,0.002c0.076,0,0.152-0.002,0.226-0.006c0.428-0.019,0.748-0.346,0.771-0.765
		c0.002-0.017,0.012-0.028,0.012-0.047C13.361,20.436,13.018,20.08,12.57,20.068z"/>
	<path fill="#292D32" d="M9.021,20.07c-0.388-0.014-0.776-0.014-1.165,0c-0.452,0.012-0.786,0.363-0.777,0.815
		c0.004,0.438,0.33,0.772,0.771,0.796c0.071,0.002,0.144,0.004,0.217,0.004l0.965-0.004c0.437-0.027,0.76-0.361,0.771-0.787
		c0.006-0.221-0.073-0.427-0.221-0.58C9.435,20.16,9.235,20.074,9.021,20.07z"/>
	<path fill="#292D32" d="M16.141,20.068c-0.39-0.012-0.777-0.012-1.162,0.002c-0.328,0.006-0.604,0.212-0.72,0.502
		c-0.028,0.068-0.036,0.145-0.047,0.222c-0.002,0.022-0.012,0.042-0.014,0.065c0,0.002,0.002,0.005,0.002,0.007
		c0,0.014-0.007,0.024-0.007,0.036c0.013,0.428,0.334,0.76,0.771,0.789l0.969,0.002c0.07,0,0.145,0,0.215-0.004
		c0.441-0.021,0.768-0.354,0.771-0.795v-0.002c0-0.002,0-0.002,0-0.002C16.932,20.439,16.587,20.08,16.141,20.068z"/>
	<path fill="#292D32" d="M18.643,3.951l0.627,0.002h0.004h0.781v1.243c0,0.113,0.002,0.231,0.021,0.342
		c0.071,0.386,0.401,0.664,0.791,0.664L20.909,6.2c0.422-0.021,0.76-0.354,0.766-0.755c0.013-0.791,0.013-1.579,0-2.369
		c-0.006-0.417-0.358-0.748-0.805-0.751c-0.742-0.009-1.492-0.011-2.24,0c-0.233,0.002-0.442,0.09-0.594,0.244
		c-0.147,0.154-0.228,0.365-0.224,0.594C17.823,3.616,18.173,3.946,18.643,3.951z"/>
	<path fill="#292D32" d="M20.863,17.823c-0.463,0.006-0.799,0.349-0.807,0.817c-0.009,0.35-0.007,0.701-0.004,1.051v0.382h-1.398
		c-0.252,0.002-0.469,0.086-0.625,0.249c-0.145,0.146-0.221,0.354-0.217,0.582c0.008,0.439,0.336,0.777,0.763,0.783
		c0.413,0.004,0.823,0.006,1.235,0.006c0.362,0,0.726-0.002,1.09-0.004c0.433-0.006,0.771-0.349,0.774-0.777
		c0.011-0.768,0.011-1.535,0-2.303C21.673,18.168,21.316,17.823,20.863,17.823z"/>
	<path fill="#292D32" d="M11.458,3.951l0.233,0.002l0.319-0.001l0.319,0.001c0.079,0,0.157,0,0.233-0.003
		C13,3.935,13.334,3.617,13.361,3.192c0-0.004-0.004-0.008-0.004-0.014c0,0,0,0,0-0.001c0.004-0.023-0.008-0.044-0.008-0.068
		c-0.004-0.084-0.008-0.17-0.033-0.247c-0.033-0.103-0.09-0.198-0.16-0.279c-0.145-0.157-0.34-0.249-0.551-0.26
		c-0.403-0.019-0.813-0.021-1.219,0c-0.212,0.013-0.406,0.103-0.543,0.258c-0.146,0.163-0.217,0.375-0.204,0.603
		c0.007,0.107,0.033,0.207,0.075,0.297C10.84,3.756,11.118,3.942,11.458,3.951z"/>
	<path fill="#292D32" d="M16.141,2.325c-0.386-0.013-0.769-0.013-1.149,0c-0.228,0.009-0.435,0.104-0.582,0.265
		c-0.146,0.157-0.222,0.364-0.214,0.579c0.019,0.443,0.369,0.771,0.834,0.781l0.216,0.002l0.313-0.001l0.324,0.001l0.229-0.003
		c0.449-0.012,0.791-0.34,0.809-0.776C16.938,2.709,16.604,2.344,16.141,2.325z"/>
	<path fill="#292D32" d="M20.057,12.539c0.017,0.49,0.351,0.833,0.813,0.833h0.021c0.463-0.008,0.786-0.356,0.793-0.845
		c0.004-0.346,0.004-0.688,0-1.031c-0.007-0.484-0.343-0.837-0.8-0.845c-0.467-0.001-0.807,0.344-0.827,0.82
		c-0.005,0.129-0.005,0.258-0.002,0.388v0.167v0.154C20.052,12.3,20.05,12.421,20.057,12.539z"/>
	<path fill="#292D32" d="M21.686,8.268c0-0.13,0.002-0.26-0.002-0.389c-0.021-0.435-0.347-0.767-0.772-0.79h-0.002
		c-0.019,0-0.035,0.008-0.056,0.009c-0.321,0.016-0.588,0.187-0.713,0.439c-0.041,0.09-0.065,0.188-0.072,0.291
		c-0.021,0.412-0.021,0.829,0,1.24c0.021,0.422,0.367,0.742,0.801,0.742h0.033c0.438-0.016,0.766-0.354,0.781-0.808
		c0.004-0.132,0.002-0.267,0.002-0.401l-0.002-0.17L21.686,8.268z"/>
	<path fill="#292D32" d="M21.684,15.016c-0.019-0.453-0.349-0.791-0.789-0.804c-0.465,0-0.813,0.331-0.832,0.771
		c-0.019,0.392-0.019,0.783,0,1.175c0.019,0.442,0.364,0.778,0.806,0.778l0.047-0.002c0.435-0.021,0.758-0.363,0.771-0.814
		c0.002-0.133,0.002-0.264,0.002-0.395l-0.002-0.156l0.002-0.162C21.686,15.271,21.688,15.143,21.684,15.016z"/>
</g>
<path fill="#292D32" d="M18.355,8.766c-0.16-0.885-0.482-1.566-0.986-2.083c-0.383-0.397-0.893-0.7-1.52-0.899
	c-0.576-0.178-1.279-0.268-2.086-0.268l-3.529,0.001c-3.265,0-4.721,1.456-4.721,4.72v3.533c0,3.262,1.456,4.715,4.721,4.715h3.529
	c0.809,0,1.51-0.09,2.086-0.269c0.625-0.192,1.121-0.485,1.521-0.894c0.503-0.52,0.824-1.201,0.984-2.084
	c0.08-0.377,0.121-0.833,0.129-1.396v-3.687C18.477,9.593,18.436,9.15,18.355,8.766z M13.766,17.28h-3.53
	c-2.661,0-3.515-0.854-3.515-3.513v-3.532c0-2.644,0.838-3.497,3.466-3.512l0.06-0.01h3.519c0.193,0,0.387,0.006,0.576,0.018
	c0.618,0.038,1.105,0.139,1.491,0.31c0.709,0.301,1.13,0.853,1.324,1.735c0.079,0.383,0.12,0.834,0.125,1.378v3.687
	c-0.005,0.547-0.046,0.997-0.125,1.381c-0.194,0.885-0.618,1.438-1.334,1.737c-0.39,0.172-0.875,0.271-1.489,0.3
	C14.145,17.273,13.959,17.28,13.766,17.28z"/>
<g>
	<path fill="#292D32" d="M7.271,14.846l0.958-0.74c0.31-0.246,0.409-0.418,0.409-0.6c0-0.215-0.182-0.344-0.394-0.344
		c-0.253,0-0.447,0.129-0.636,0.344l-0.356-0.344c0.257-0.325,0.587-0.507,1.007-0.507c0.552,0,0.954,0.34,0.954,0.829
		c0,0.348-0.151,0.617-0.605,0.945l-0.473,0.367h1.101v0.504H7.271V14.846z"/>
	<path fill="#292D32" d="M9.59,14.025h1.037v0.469H9.59V14.025z"/>
	<path fill="#292D32" d="M12.214,14.771h-1.268l-0.053-0.432l1.203-1.636h0.678v1.597h0.344v0.471h-0.344v0.529h-0.561V14.771z
		 M12.214,14.301v-1.006l-0.734,1.006H12.214z"/>
	<path fill="#292D32" d="M13.426,14.025h1.037v0.469h-1.037V14.025z"/>
	<path fill="#292D32" d="M16.898,14.445c0,0.533-0.428,0.9-0.994,0.9c-0.762,0-1.105-0.545-1.105-1.301
		c0-0.811,0.473-1.39,1.191-1.39c0.326,0,0.588,0.109,0.799,0.279l-0.264,0.425c-0.16-0.133-0.314-0.213-0.531-0.213
		c-0.336,0-0.566,0.281-0.615,0.719c0.162-0.154,0.396-0.244,0.643-0.244C16.502,13.621,16.898,13.93,16.898,14.445z M16.324,14.471
		c0-0.248-0.213-0.396-0.465-0.396c-0.217,0-0.391,0.117-0.467,0.303c0.049,0.318,0.189,0.496,0.48,0.496
		C16.15,14.873,16.324,14.68,16.324,14.471z"/>
</g>
</svg>
