<?xml version="1.0" encoding="UTF-8" standalone="no"?>
<!-- Created with Inkscape (http://www.inkscape.org/) -->

<svg
   width="24"
   height="24"
   viewBox="0 0 24 24"
   version="1.1"
   id="svg1"
   xml:space="preserve"
   inkscape:version="1.4.3 (0d15f75, 2025-12-25)"
   sodipodi:docname="select-odd.svg"
   xmlns:inkscape="http://www.inkscape.org/namespaces/inkscape"
   xmlns:sodipodi="http://sodipodi.sourceforge.net/DTD/sodipodi-0.dtd"
   xmlns="http://www.w3.org/2000/svg"
   xmlns:svg="http://www.w3.org/2000/svg"><sodipodi:namedview
     id="namedview1"
     pagecolor="#ffffff"
     bordercolor="#000000"
     borderopacity="0.25"
     inkscape:showpageshadow="2"
     inkscape:pageopacity="0.0"
     inkscape:pagecheckerboard="0"
     inkscape:deskcolor="#d1d1d1"
     inkscape:document-units="px"
     inkscape:zoom="18.856181"
     inkscape:cx="8.3261823"
     inkscape:cy="8.6443804"
     inkscape:window-width="1920"
     inkscape:window-height="1010"
     inkscape:window-x="1913"
     inkscape:window-y="-6"
     inkscape:window-maximized="1"
     inkscape:current-layer="layer1" /><defs
     id="defs1" /><g
     inkscape:label="Vrstva 1"
     inkscape:groupmode="layer"
     id="layer1"><path
       style="fill:#000000;stroke-width:0.0253153"
       d="M 1.7234288,23.947328 C 1.5144183,23.917308 1.2376019,23.821553 1.0616179,23.7184 0.83068097,23.583035 0.53025222,23.264511 0.40418778,23.021371 0.1934927,22.615004 0.19671813,22.650538 0.19671813,20.735666 v -1.688094 l 0.0589029,-0.111573 c 0.10548739,-0.199809 0.34820709,-0.314403 0.58180999,-0.274684 0.14231841,0.0242 0.29573836,0.143945 0.37051646,0.289196 l 0.064672,0.125619 0.012658,1.633563 c 0.013967,1.802534 0.00559,1.712699 0.1780902,1.909171 0.04574,0.0521 0.1411478,0.125312 0.2120184,0.162707 l 0.1288554,0.06799 1.6454955,0.01266 c 1.6329984,0.01256 1.6462828,0.01308 1.7491536,0.06813 0.3513627,0.188017 0.4169984,0.595784 0.1403077,0.87167 -0.092841,0.09257 -0.1454429,0.123011 -0.2515407,0.145563 -0.1626478,0.03457 -3.123325,0.03435 -3.364228,-2.52e-4 z m 17.1811432,0.0058 c -0.418657,-0.131832 -0.564987,-0.58173 -0.288682,-0.887567 0.181102,-0.200459 0.07987,-0.189847 1.883711,-0.197458 1.797021,-0.0075 1.751675,-0.0032 1.958504,-0.185348 0.06412,-0.05644 0.145773,-0.164462 0.185548,-0.245458 l 0.07104,-0.144664 0.01266,-1.632837 0.01266,-1.632838 0.06142,-0.107242 c 0.216882,-0.378654 0.742026,-0.354473 0.954555,0.04396 0.04479,0.08397 0.04726,0.177403 0.04726,1.784729 0,1.90936 0.0076,1.822269 -0.196719,2.240405 -0.08518,0.174286 -0.14865,0.258777 -0.333955,0.444578 -0.252569,0.253243 -0.445748,0.370685 -0.773478,0.470232 -0.187865,0.05707 -0.203446,0.05759 -1.860262,0.06352 -0.918947,0.0032 -1.699365,-0.003 -1.734264,-0.014 z m -8.284353,-4.437426 c -0.05226,-0.01399 -0.151762,-0.07646 -0.221121,-0.138824 -0.20671,-0.185894 -0.20283,-0.151994 -0.20283,-1.772181 V 16.204292 H 8.5626169 c -1.3288039,0 -1.6491956,-0.0065 -1.7169536,-0.0348 C 6.7221066,16.117862 6.5744089,15.977839 6.522129,15.862758 6.477989,15.765598 6.476005,15.523303 6.475472,10.165475 L 6.474915,4.5696704 6.55719,4.4339134 C 6.6183495,4.3329987 6.6752008,4.2780584 6.7786996,4.2198519 l 0.1392343,-0.078303 h 3.3922521 3.392252 l 0.139234,0.078632 c 0.09684,0.054686 0.162362,0.1157479 0.21518,0.2005168 l 0.07594,0.1218856 0.0069,1.5636615 0.0069,1.5636615 0.828517,0.00789 c 0.996164,0.00949 0.94747,-0.00381 1.302972,0.3559947 1.650251,1.6702379 2.201496,2.251778 2.267019,2.391609 l 0.06853,0.146235 v 4.240316 c 0,3.504197 -0.006,4.257173 -0.03432,4.33742 -0.04472,0.126511 -0.162687,0.25902 -0.292378,0.328418 l -0.103661,0.05547 -3.73401,0.0039 c -2.434334,0.0025 -3.767079,-0.0049 -3.829021,-0.02152 z m 6.898504,-0.896415 0.170878,-0.01653 v -3.832 -3.831999 h -1.008017 c -1.135971,0 -1.187966,-0.0065 -1.35433,-0.168248 -0.187437,-0.182283 -0.180996,-0.141292 -0.18931,-1.2051079 l -0.0074,-0.9557001 h -1.99877 -1.998771 v 5.009468 5.009468 l 3.107455,0.0036 c 1.7091,0.002 3.184351,-0.0039 3.278333,-0.01297 z m -3.16971,-1.595217 c -0.160395,-0.134963 -0.152926,-0.0375 -0.152926,-1.995637 0,-0.982294 -0.0056,-1.785987 -0.01251,-1.785987 -0.0069,0 -0.104702,0.06835 -0.217373,0.151892 -0.185749,0.137725 -0.216575,0.151891 -0.330498,0.151891 -0.3002,0 -0.472834,-0.251291 -0.362344,-0.527435 0.03741,-0.09348 0.10791,-0.157866 0.516239,-0.471409 0.596245,-0.457837 0.615089,-0.469231 0.776149,-0.46935 0.156021,-1.26e-4 0.280053,0.07274 0.345461,0.202933 0.04114,0.08188 0.04426,0.245339 0.04421,2.315847 -5.2e-5,2.178327 -0.0012,2.229578 -0.05036,2.310254 -0.115162,0.18888 -0.399511,0.248712 -0.556041,0.117001 z m -4.146841,-5.31953 0.0067,-3.5884459 0.05464,-0.1012611 c 0.06981,-0.1293788 0.17171,-0.225728 0.299773,-0.2834543 0.09253,-0.04171 0.212012,-0.046284 1.386241,-0.053061 l 1.28498,-0.00742 -0.0066,-1.3089802 -0.0066,-1.30898 -2.658109,-0.0073 c -1.461959,-0.00402 -2.7748747,-7.58e-5 -2.9175898,0.00877 l -0.2594053,0.016067 v 5.1112575 5.111258 h 1.4046414 1.4045757 z m 6.52243,-1.923964 C 16.59434,9.6447777 16.397749,9.4397237 16.287733,9.3248554 16.177718,9.2099872 16.077896,9.1160041 16.065906,9.1160041 c -0.02533,0 -0.03011,0.86928 -0.0049,0.8944749 0.0093,0.0093 0.215683,0.01688 0.458669,0.01688 h 0.441792 z M 0.55717987,5.3355446 C 0.43481298,5.2911659 0.30450213,5.1775833 0.24728801,5.0654343 0.19822085,4.9692551 0.19672927,4.916064 0.19709229,3.2755034 0.19740367,1.8656186 0.20374515,1.5580639 0.23525715,1.4243952 0.34220753,0.97072648 0.61218321,0.58484359 1.0015614,0.32909865 1.220629,0.18521424 1.4066219,0.11090113 1.6650065,0.06402071 1.9088942,0.01977029 4.9347202,0.01213065 5.0952318,0.05535983 5.2549026,0.09836271 5.3779421,0.19721218 5.448808,0.33942198 5.5812552,0.60520876 5.4985635,0.88440024 5.239726,1.0453431 L 5.145862,1.1037071 3.5003664,1.1163651 C 1.8866066,1.1287779 1.8526145,1.1300654 1.7378539,1.1831291 1.5769218,1.2575414 1.4140922,1.4105173 1.3508381,1.5467246 1.2993328,1.6576323 1.2975997,1.7041395 1.2852768,3.306139 1.2726623,4.9460004 1.2724267,4.9519946 1.2163943,5.0567759 1.0855556,5.3014471 0.79821104,5.4229596 0.55717987,5.3355446 Z M 23.10098,5.3345725 C 22.957518,5.281465 22.886074,5.2266819 22.809576,5.1111221 l -0.06957,-0.105093 -0.01266,-1.6600354 C 22.713526,1.5328232 22.723746,1.6495838 22.558525,1.4177248 22.502785,1.3395048 22.423544,1.2731447 22.316689,1.2152023 L 22.157756,1.1290213 20.499603,1.1163633 18.84145,1.1037053 18.74597,1.0443463 c -0.42061,-0.26150721 -0.322812,-0.87196403 0.158767,-0.99100222 0.07961,-0.01967683 0.609576,-0.02556973 1.759415,-0.01956291 1.838081,0.0096021 1.758986,0.0024277 2.151801,0.1951469 0.457791,0.2245947 0.791416,0.63806901 0.940745,1.16590373 0.04311,0.1523752 0.04655,0.2909763 0.04655,1.8733333 0,1.5432977 -0.0041,1.7161899 -0.04195,1.7852561 -0.05254,0.095766 -0.164433,0.2088053 -0.251019,0.2535805 -0.104247,0.05391 -0.302141,0.067239 -0.4093,0.02757 z"
       id="path1" /></g></svg>
