<?xml version="1.0" encoding="UTF-8" standalone="no"?>
<!-- Created with Inkscape (http://www.inkscape.org/) -->

<svg
   width="24"
   height="24"
   viewBox="0 0 24 24"
   version="1.1"
   id="svg1"
   xml:space="preserve"
   inkscape:version="1.4.3 (0d15f75, 2025-12-25)"
   sodipodi:docname="select-page-range.svg"
   xmlns:inkscape="http://www.inkscape.org/namespaces/inkscape"
   xmlns:sodipodi="http://sodipodi.sourceforge.net/DTD/sodipodi-0.dtd"
   xmlns="http://www.w3.org/2000/svg"
   xmlns:svg="http://www.w3.org/2000/svg"><sodipodi:namedview
     id="namedview1"
     pagecolor="#ffffff"
     bordercolor="#000000"
     borderopacity="0.25"
     inkscape:showpageshadow="2"
     inkscape:pageopacity="0.0"
     inkscape:pagecheckerboard="0"
     inkscape:deskcolor="#d1d1d1"
     inkscape:document-units="px"
     inkscape:zoom="13.333333"
     inkscape:cx="9.975"
     inkscape:cy="9.45"
     inkscape:window-width="1920"
     inkscape:window-height="1010"
     inkscape:window-x="1913"
     inkscape:window-y="-6"
     inkscape:window-maximized="1"
     inkscape:current-layer="layer1" /><defs
     id="defs1" /><g
     inkscape:label="Vrstva 1"
     inkscape:groupmode="layer"
     id="layer1"><path
       style="fill:#000000;stroke-width:0.0278058"
       d="M 1.3821753,23.30243 C 0.94918303,23.197613 0.46909184,22.807156 0.27390268,22.401073 0.08965555,22.017759 0.08515737,21.967567 0.08532886,20.296244 0.08544098,19.352946 0.09607964,18.76201 0.11421744,18.696806 0.22035328,18.314632 0.72189327,18.185979 1.0262786,18.462848 c 0.161255,0.146672 0.1560445,0.09242 0.1711417,1.783269 0.015236,1.706128 0.00706,1.626111 0.1845308,1.803591 0.1777966,0.177796 0.092536,0.169295 1.8498912,0.18453 l 1.6034348,0.01392 0.118397,0.08342 c 0.3580798,0.252287 0.3184471,0.782161 -0.071977,0.962359 -0.1042298,0.04808 -0.2126543,0.05125 -1.7239622,0.0496 -1.292091,-0.0013 -1.6451121,-0.0096 -1.775546,-0.04109 z M 19.081257,23.2868 c -0.335233,-0.165937 -0.383948,-0.674238 -0.08845,-0.922878 0.04703,-0.03957 0.13203,-0.08487 0.18891,-0.100668 0.0651,-0.01807 0.654003,-0.02882 1.591022,-0.02902 0.989941,-1.91e-4 1.524822,-0.01049 1.598837,-0.03074 0.143962,-0.03937 0.350601,-0.249628 0.396757,-0.403675 0.02526,-0.0842 0.03423,-0.499528 0.03423,-1.578681 0,-1.597565 -0.002,-1.578668 0.16136,-1.749929 0.145492,-0.152773 0.416609,-0.203724 0.623677,-0.11721 0.124847,0.05217 0.260689,0.20784 0.297717,0.341176 0.01873,0.06734 0.02922,0.648238 0.02935,1.618677 1.72e-4,1.68301 -6e-4,1.691663 -0.187413,2.087213 -0.129589,0.274388 -0.459711,0.609634 -0.746796,0.758384 -0.357255,0.185111 -0.369286,0.186147 -2.16599,0.186582 -1.593284,3.83e-4 -1.614192,-3.3e-4 -1.733183,-0.05923 z m -0.282739,-7.948725 c -0.483996,-0.05527 -0.88804,-0.248303 -1.223253,-0.584334 -0.391269,-0.392225 -0.59589,-0.871109 -0.666588,-1.560062 -0.03594,-0.35031 -0.03647,-2.001774 -6.59e-4,-2.369094 0.09201,-0.9460946 0.498163,-1.6151553 1.183277,-1.9492273 0.317867,-0.1549958 0.624746,-0.2177526 1.068779,-0.2185507 0.427636,-6.595e-4 0.660434,0.040827 0.984856,0.175851 0.564079,0.2348219 0.975992,0.7131389 1.168761,1.357156 0.129134,0.431443 0.140479,0.582072 0.138586,1.839662 -0.0013,1.081791 -0.0067,1.206797 -0.05995,1.477868 -0.183864,0.936043 -0.738921,1.564587 -1.56555,1.772829 -0.250842,0.06319 -0.74051,0.09077 -1.028182,0.05791 z m 0.848078,-1.004141 c 0.431455,-0.135605 0.706325,-0.534874 0.792068,-1.150511 0.01491,-0.107053 0.02717,-0.657611 0.02731,-1.223458 1.65e-4,-0.912298 -0.0059,-1.058601 -0.05408,-1.291754 -0.07311,-0.354296 -0.183794,-0.570591 -0.38945,-0.7609857 -0.21334,-0.1975174 -0.401327,-0.2708337 -0.743591,-0.2900004 -0.449243,-0.025195 -0.816346,0.095807 -1.02809,0.3387614 -0.149785,0.1718677 -0.284473,0.4772287 -0.332014,0.7527387 -0.06365,0.368949 -0.04056,2.513847 0.02961,2.752752 0.119373,0.406207 0.323011,0.679185 0.613236,0.822064 0.29064,0.143078 0.725789,0.163287 1.085003,0.05039 z M 5.5356931,15.275811 c -0.067341,-0.03443 -0.1482023,-0.09789 -0.179683,-0.141059 -0.056656,-0.07769 -0.057315,-0.104494 -0.064636,-2.592902 -0.00528,-1.813569 -0.015961,-2.514394 -0.038122,-2.514394 -0.016885,0 -0.207536,0.110713 -0.4236068,0.246028 -0.2160716,0.135314 -0.4329074,0.266698 -0.4818465,0.291959 -0.1090049,0.05626 -0.3185856,0.05962 -0.4198539,0.0067 C 3.7294382,10.468462 3.6165221,10.23242 3.6707112,10.034427 3.7301373,9.8173409 3.7762601,9.7790867 4.6103947,9.2552866 5.0549094,8.9761557 5.4631815,8.7291518 5.5176741,8.7063839 c 0.2009141,-0.083948 0.5090391,-0.02625 0.6387673,0.1196699 0.1289235,0.1449903 0.126991,0.096678 0.126991,3.1756332 0,3.078961 0.00198,3.030642 -0.126991,3.175639 -0.074715,0.08402 -0.2569105,0.159751 -0.3860385,0.160457 -0.062724,3.43e-4 -0.1663137,-0.02698 -0.2347164,-0.06193 z m 8.9419119,0.03529 c -0.08569,-0.02737 -0.222891,-0.144964 -0.276401,-0.2369 -0.02368,-0.04069 -0.03608,-0.728051 -0.0463,-2.560319 l -0.01392,-2.504699 -0.484108,0.301087 c -0.445247,0.276915 -0.495136,0.301088 -0.621428,0.301088 -0.176912,0 -0.314601,-0.06656 -0.397244,-0.192037 -0.181714,-0.275886 -0.08661,-0.5851122 0.237619,-0.772578 0.05356,-0.030933 0.360084,-0.2232664 0.681242,-0.4273662 0.752225,-0.4780532 0.899906,-0.5544299 1.072063,-0.5544299 0.165186,0 0.266837,0.036803 0.369372,0.1338504 0.167125,0.1581221 0.157456,-0.038914 0.15679,3.1945227 -5.81e-4,2.835045 -0.0026,2.974818 -0.0523,3.083532 -0.03067,0.06751 -0.09248,0.139075 -0.151817,0.175746 -0.112303,0.0694 -0.3482,0.09854 -0.473588,0.0585 z m -6.0923835,-2.58344 c -0.1980319,-0.0914 -0.2923551,-0.239182 -0.2915042,-0.456717 6.595e-4,-0.244181 0.1925707,-0.446335 0.4527921,-0.477723 0.079516,-0.0096 0.713904,-0.01352 1.4097428,-0.0088 1.1420748,0.0078 1.2738218,0.01339 1.3541028,0.05731 0.264317,0.144542 0.342613,0.523305 0.154409,0.746974 -0.161315,0.191714 -0.148994,0.190282 -1.6336363,0.190282 -1.2388978,0 -1.3426658,-0.004 -1.4459062,-0.05131 z M 0.39034739,5.6549587 C 0.31805339,5.6184193 0.23183616,5.5423064 0.18286409,5.4718526 L 0.09907402,5.351312 0.0912253,3.7990259 C 0.08232129,2.0412417 0.08528928,2.0049002 0.28326838,1.6038701 0.48458483,1.1955848 0.86340111,0.87877336 1.3364219,0.72311142 1.4754828,0.6773382 1.6366586,0.67192983 3.1127462,0.6633556 l 1.6233863,-0.009432 0.1506559,0.0737054 C 5.1082148,0.83596814 5.187533,0.96824881 5.187533,1.2291892 c 0,0.1827895 -0.00772,0.2105832 -0.085023,0.3061002 -0.046763,0.057777 -0.119611,0.1308889 -0.161882,0.1624619 -0.075038,0.056062 -0.1145781,0.057711 -1.6806424,0.071318 -1.5907317,0.013785 -1.6047341,0.014378 -1.7192793,0.075658 -0.1498908,0.080156 -0.275068,0.2340634 -0.3130519,0.384904 -0.019919,0.079048 -0.030274,0.6206493 -0.030274,1.5824674 0,1.2569565 -0.00594,1.4767537 -0.043003,1.5652926 C 1.0283958,5.6789138 0.68464812,5.8037876 0.39035398,5.6549323 Z M 23.122327,5.6649839 c -0.134603,-0.06213 -0.219323,-0.1501546 -0.27673,-0.2875534 -0.03707,-0.088638 -0.043,-0.311713 -0.043,-1.5999523 V 2.2805289 l -0.07327,-0.147035 C 22.641128,1.9565085 22.49158,1.8401495 22.299312,1.7989141 22.210193,1.7797869 21.624045,1.7691021 20.665617,1.7691021 h -1.4947 L 19.044355,1.6888341 C 18.824775,1.549582 18.736401,1.248712 18.841317,0.99761226 c 0.05976,-0.14303803 0.116834,-0.19966755 0.277,-0.27490317 l 0.139028,-0.0652961 1.543231,2.2425e-4 c 1.686941,2.2425e-4 1.768765,0.006596 2.096901,0.1616771 0.362308,0.17128684 0.672128,0.46715076 0.830712,0.79327506 0.1812,0.3726164 0.171775,0.2677535 0.181411,2.0195225 0.0059,1.0977462 -6.6e-4,1.631123 -0.0215,1.7018538 -0.09103,0.3092067 -0.463795,0.4703562 -0.765707,0.3310182 z"
       id="path1" /></g></svg>
