<?xml version="1.0" encoding="UTF-8" standalone="no"?>
<!-- Created with Inkscape (http://www.inkscape.org/) -->

<svg
   width="24"
   height="24"
   viewBox="0 0 24 24"
   version="1.1"
   id="svg1"
   xml:space="preserve"
   inkscape:version="1.4.3 (0d15f75, 2025-12-25)"
   sodipodi:docname="show-document-title.svg"
   xmlns:inkscape="http://www.inkscape.org/namespaces/inkscape"
   xmlns:sodipodi="http://sodipodi.sourceforge.net/DTD/sodipodi-0.dtd"
   xmlns="http://www.w3.org/2000/svg"
   xmlns:svg="http://www.w3.org/2000/svg"><sodipodi:namedview
     id="namedview1"
     pagecolor="#ffffff"
     bordercolor="#000000"
     borderopacity="0.25"
     inkscape:showpageshadow="2"
     inkscape:pageopacity="0.0"
     inkscape:pagecheckerboard="0"
     inkscape:deskcolor="#d1d1d1"
     inkscape:document-units="px"
     inkscape:zoom="33.549308"
     inkscape:cx="11.416033"
     inkscape:cy="12.041977"
     inkscape:window-width="1920"
     inkscape:window-height="1010"
     inkscape:window-x="1913"
     inkscape:window-y="-6"
     inkscape:window-maximized="1"
     inkscape:current-layer="layer1" /><defs
     id="defs1" /><g
     inkscape:label="Vrstva 1"
     inkscape:groupmode="layer"
     id="layer1"><path
       style="fill:#000000;stroke-width:0.0277796"
       d="M 3.1620614,23.924415 C 1.9093449,23.660565 0.96717472,22.709902 0.68501724,21.425057 0.634979,21.197188 0.63316667,20.866054 0.63316667,11.952199 c 0,-10.364781 -0.0191515,-9.4283519 0.20425742,-9.9835367 C 1.0047923,1.5527654 1.2027216,1.2589712 1.5501485,0.91074738 1.9701457,0.48979048 2.40962,0.23608181 2.9842777,0.08282234 L 3.2166712,0.02084332 h 7.2227068 7.22271 l 0.208344,0.06515381 c 0.237386,0.07423686 0.518378,0.20906458 0.723252,0.34703708 0.07712,0.051932 1.105455,1.05550709 2.285195,2.23016499 2.290956,2.2810901 2.274406,2.2627484 2.416264,2.6774457 l 0.06177,0.1805686 0.0082,7.7782985 c 0.006,5.676105 -3.43e-4,7.838362 -0.02327,8.000537 -0.05937,0.419907 -0.254099,0.915911 -0.511201,1.302074 -0.147891,0.222119 -0.507092,0.596598 -0.732497,0.763649 -0.372243,0.275872 -0.850629,0.484401 -1.312091,0.571937 -0.202209,0.03835 -1.166076,0.04287 -8.800973,0.04114 -8.2945073,-0.0017 -8.5820118,-0.0039 -8.8229656,-0.05441 z M 20.643469,22.695318 c 0.697227,-0.19155 1.246856,-0.744327 1.424781,-1.43295 0.05918,-0.229057 0.05765,0.114767 0.0533,-11.9839603 L 22.120692,6.9796442 19.696916,6.9793143 C 17.046132,6.9789544 17.140665,6.9844127 16.818812,6.8128757 16.590951,6.6914285 16.391346,6.4738592 16.264964,6.2091909 l -0.103008,-0.2157227 -0.0077,-2.3825118 -0.0077,-2.3825119 -6.3816277,0.00737 -6.381628,0.00737 -0.2333831,0.081461 C 2.5289037,1.541433 2.0326689,2.0815622 1.9088093,2.6756027 1.8744479,2.8402845 1.8699064,4.146407 1.8760761,12.000258 l 0.0072,9.133147 0.060012,0.185651 c 0.1136839,0.351693 0.2506624,0.573007 0.5216503,0.842804 0.3397964,0.338305 0.6659809,0.505048 1.1122461,0.568561 0.076751,0.01092 3.9085512,0.01833 8.5151095,0.01654 7.860859,-0.003 8.386357,-0.0063 8.551201,-0.05159 z M 5.830381,17.701693 C 5.686016,17.629651 5.6245983,17.57115 5.5595602,17.443725 5.3928475,17.117074 5.5122682,16.749008 5.8418504,16.573676 c 0.093971,-0.04999 0.3005679,-0.05172 6.1670786,-0.05172 h 6.069853 l 0.115376,0.0617 c 0.253032,0.135312 0.388729,0.431882 0.319381,0.698029 -0.04747,0.182167 -0.163803,0.336557 -0.30975,0.411076 l -0.125007,0.06383 -6.069853,-3.26e-4 c -5.9646335,-3.31e-4 -6.0717365,-0.0013 -6.178548,-0.05457 z M 7.2287392,13.464832 C 7.0835731,13.420102 6.9089513,13.264319 6.8524777,13.129161 6.7999167,13.003357 6.8034597,12.720664 6.8589977,12.610587 6.9173737,12.494843 7.0292322,12.375589 7.133623,12.3178 7.200932,12.28053 7.3264795,12.269 7.7864421,12.25777 l 0.5694864,-0.01388 0.00707,-2.8821354 0.00707,-2.8821402 H 7.6059904 6.8419209 L 6.8417538,6.6393557 C 6.841531,6.8749577 6.7972811,6.9979645 6.6652854,7.1299559 6.3919411,7.4033045 5.9499989,7.3537804 5.7480764,7.0271803 L 5.6662304,6.8948033 5.6645166,6.30524 c -0.00128,-0.4084721 0.00921,-0.6208742 0.033675,-0.6915035 0.054177,-0.15652 0.2454825,-0.3166089 0.424633,-0.3553361 0.1097037,-0.023693 0.9003753,-0.029992 2.9691532,-0.02365 2.5817482,0.00793 2.8268412,0.012639 2.9050582,0.055492 0.1291,0.070749 0.284201,0.2572862 0.304677,0.3664328 0.01003,0.053406 0.02009,0.3385453 0.0224,0.6336461 0.0049,0.6197731 -0.01003,0.6869192 -0.188778,0.8516695 -0.239983,0.2212111 -0.559621,0.2259582 -0.796629,0.011825 -0.15244,-0.1377237 -0.172255,-0.1834861 -0.189698,-0.4380773 l -0.01521,-0.2222393 -0.771015,-0.00737 -0.7710144,-0.00737 0.00707,2.882577 0.00707,2.8825778 0.5694824,0.01456 c 0.372971,0.0095 0.598243,0.02691 0.652822,0.05038 0.498575,0.2144 0.443811,1.002384 -0.08049,1.158082 -0.199076,0.05912 -3.3264458,0.05729 -3.5190709,-0.0022 z M 22.119736,5.7365033 C 22.116736,5.6692373 21.861074,5.4067327 19.972792,3.5305456 17.793921,1.3656329 17.712554,1.2925486 17.464527,1.2774887 l -0.108015,-0.00656 v 2.203777 c 0,2.1494414 0.0013,2.2047539 0.05393,2.2432069 0.04555,0.03329 0.41534,0.039417 2.382104,0.039417 1.280498,0 2.327736,-0.00938 2.327196,-0.020823 z"
       id="path1" /></g></svg>
