<?xml version="1.0" encoding="UTF-8" standalone="no"?>
<!-- Created with Inkscape (http://www.inkscape.org/) -->

<svg
   width="24"
   height="24"
   viewBox="0 0 24 24"
   version="1.1"
   id="svg1"
   xml:space="preserve"
   inkscape:version="1.4.3 (0d15f75, 2025-12-25)"
   sodipodi:docname="sort-page-number.svg"
   xmlns:inkscape="http://www.inkscape.org/namespaces/inkscape"
   xmlns:sodipodi="http://sodipodi.sourceforge.net/DTD/sodipodi-0.dtd"
   xmlns="http://www.w3.org/2000/svg"
   xmlns:svg="http://www.w3.org/2000/svg"><sodipodi:namedview
     id="namedview1"
     pagecolor="#ffffff"
     bordercolor="#000000"
     borderopacity="0.25"
     inkscape:showpageshadow="2"
     inkscape:pageopacity="0.0"
     inkscape:pagecheckerboard="0"
     inkscape:deskcolor="#d1d1d1"
     inkscape:document-units="px"
     inkscape:zoom="13.799578"
     inkscape:cx="14.348265"
     inkscape:cy="29.276257"
     inkscape:window-width="1920"
     inkscape:window-height="1010"
     inkscape:window-x="1913"
     inkscape:window-y="-6"
     inkscape:window-maximized="1"
     inkscape:current-layer="layer1" /><defs
     id="defs1" /><g
     inkscape:label="Vrstva 1"
     inkscape:groupmode="layer"
     id="layer1"><path
       style="fill:#000000;stroke-width:0.0248782"
       d="M 6.6023223,23.987199 C 6.409055,23.928409 6.1867577,23.718052 6.1348629,23.544852 6.1132452,23.472677 6.1053283,22.670073 6.1044258,20.453241 l -0.00123,-2.99413 0.064582,-0.132004 c 0.035524,-0.0726 0.1099878,-0.170866 0.1654801,-0.218367 0.1947809,-0.166723 0.1612098,-0.163762 1.8472228,-0.163154 1.4155291,4.1e-4 1.526165,0.0037 1.6190309,0.04583 0.1339067,0.06084 1.7405784,1.690501 1.8060794,1.831931 0.04378,0.09453 0.04612,0.212342 0.04664,2.352774 8.2e-4,2.571895 0.0144,2.400779 -0.211624,2.626813 -0.21936,0.219357 -0.0742,0.207826 -2.5849197,0.205373 -1.2050416,-0.0012 -2.2190474,-0.01066 -2.2533403,-0.02108 z m 4.3477767,-2.604343 0.0064,-1.918561 -0.09345,-0.01542 c -0.05143,-0.0085 -0.352009,-0.01555 -0.667989,-0.01571 -0.5477153,-2.58e-4 -0.5794445,-0.0029 -0.680457,-0.0563 C 9.45633,19.346055 9.3734028,19.272201 9.3303233,19.212759 l -0.078328,-0.108076 -0.0073,-0.731512 -0.00726,-0.731507 H 8.0194593 6.8014882 v 2.819528 c 0,1.55074 0.00751,2.827054 0.016736,2.836255 0.00919,0.0092 0.9412029,0.01386 2.0711117,0.01038 l 2.0543801,-0.0064 z m -0.391982,-2.665619 c 0,-0.01046 -0.139941,-0.158634 -0.31098,-0.329262 L 9.9361624,18.077742 v 0.329266 0.329262 h 0.3109746 c 0.171039,0 0.31098,-0.0086 0.31098,-0.01903 z m 5.249296,4.580045 c -0.409855,-0.06455 -0.766457,-0.195334 -0.849113,-0.311414 -0.111394,-0.156439 -0.0816,-0.372883 0.06747,-0.490143 0.110307,-0.08677 0.202808,-0.08844 0.435385,-0.0078 0.302029,0.104651 0.517644,0.137262 0.819766,0.123996 0.31372,-0.01378 0.495858,-0.07568 0.643088,-0.218569 0.174505,-0.169348 0.214381,-0.273453 0.214381,-0.559701 0,-0.279353 -0.037,-0.381444 -0.190626,-0.525877 -0.177483,-0.166866 -0.395382,-0.232195 -0.775862,-0.232614 -0.308083,-3.36e-4 -0.41572,-0.03536 -0.491731,-0.160012 -0.05395,-0.08848 -0.06153,-0.270192 -0.01509,-0.361979 0.06677,-0.131963 0.163216,-0.167035 0.495447,-0.180178 0.244641,-0.0097 0.332268,-0.02342 0.436181,-0.06843 0.498663,-0.215955 0.541156,-0.940871 0.06899,-1.176959 -0.129764,-0.06488 -0.36134,-0.09984 -0.547121,-0.08259 -0.237728,0.02207 -0.334077,0.05102 -0.594982,0.178746 -0.229308,0.11226 -0.325095,0.130855 -0.420639,0.08164 -0.227039,-0.116933 -0.276309,-0.405138 -0.09827,-0.574863 0.09563,-0.09117 0.452679,-0.256919 0.690765,-0.320673 0.264988,-0.07096 0.79207,-0.07793 1.032445,-0.01366 0.413682,0.110615 0.727844,0.350801 0.883405,0.675395 0.252804,0.527501 0.134658,1.198901 -0.2644,1.502521 -0.06524,0.04963 -0.119025,0.09584 -0.119529,0.102682 -4.11e-4,0.0069 0.05582,0.04603 0.125177,0.08707 0.351762,0.20819 0.545062,0.589409 0.544254,1.07335 -0.0012,0.745417 -0.445739,1.289711 -1.17408,1.4377 -0.177039,0.03598 -0.741426,0.04978 -0.915319,0.0224 z M 6.576299,15.498225 C 6.4307384,15.459337 6.2506961,15.305081 6.1734589,15.1531 L 6.1042864,15.016983 6.10427,11.995221 6.1042495,8.9734591 6.1682986,8.8425509 C 6.2448266,8.6861282 6.3920849,8.553247 6.5476217,8.5002487 c 0.1713213,-0.058376 3.0901835,-0.058101 3.2361502,3.036e-4 0.071384,0.02855 0.3190761,0.264942 0.9272191,0.8848574 0.456396,0.4652361 0.855224,0.8920933 0.886285,0.9485703 l 0.05648,0.102682 -0.0067,2.302598 c -0.0064,2.189205 -0.009,2.306888 -0.05296,2.389671 -0.07851,0.147837 -0.240441,0.295182 -0.383031,0.348533 -0.128685,0.04815 -0.193456,0.04945 -2.3393562,0.04695 -1.3051229,-0.0016 -2.2431222,-0.01222 -2.2953861,-0.02617 z m 4.340516,-0.682931 c 0.0354,-0.01358 0.03934,-0.20648 0.03934,-1.926253 v -1.911153 l -0.665489,-0.008 -0.6654936,-0.008 -0.1187292,-0.06979 c -0.0653,-0.03839 -0.1492647,-0.115907 -0.186585,-0.172273 l -0.067859,-0.102559 -0.0073,-0.7295625 -0.00726,-0.7295627 H 8.0194634 6.8014923 v 2.8361122 2.836112 h 2.0379755 c 1.1208883,0 2.0556882,-0.0068 2.0773302,-0.0151 z M 10.558117,10.23901 c 0,-0.02182 -0.5808892,-0.6081552 -0.6025192,-0.6081552 -0.010706,0 -0.019444,0.1399408 -0.019444,0.3109791 v 0.3109751 h 0.3109752 c 0.171039,0 0.310979,-0.0062 0.310979,-0.01378 z m 4.463605,4.418351 c -0.08002,-0.0329 -0.180785,-0.167165 -0.199228,-0.265467 -0.02104,-0.112289 0.01895,-0.247291 0.107412,-0.362295 0.03794,-0.04932 0.396921,-0.464674 0.797751,-0.923011 1.203478,-1.376125 1.299105,-1.518908 1.298543,-1.938882 -4.1e-4,-0.408961 -0.249256,-0.654291 -0.693305,-0.683899 -0.327797,-0.02186 -0.661063,0.07839 -0.906286,0.272608 -0.08851,0.0701 -0.121515,0.08103 -0.244732,0.08103 -0.123905,0 -0.152411,-0.0096 -0.219245,-0.0736 -0.167601,-0.160574 -0.154852,-0.389324 0.0306,-0.548827 0.566856,-0.4875717 1.602081,-0.5772544 2.19688,-0.190322 0.391371,0.254597 0.583149,0.628452 0.58232,1.135176 -4.1e-4,0.283614 -0.04856,0.488572 -0.174726,0.744638 -0.138013,0.280099 -0.300863,0.489224 -1.024211,1.315259 -0.346085,0.395214 -0.632973,0.728963 -0.637534,0.741667 -0.005,0.01391 0.319392,0.0231 0.815997,0.0231 0.893131,0 0.910647,0.0025 1.017988,0.138854 0.110497,0.140474 0.08981,0.339668 -0.0491,0.472775 l -0.07568,0.07252 -1.285827,0.005 c -0.707207,0.0029 -1.309131,-0.0046 -1.337611,-0.01628 z M 6.6398025,7.0455821 C 6.4187809,6.9911523 6.1910033,6.7901855 6.1337513,6.5991047 6.1106158,6.5219167 6.1036013,5.7891257 6.1040936,3.5102215 6.104914,0.54732808 6.1053242,0.52154271 6.156132,0.40314577 6.2202795,0.25402461 6.3537022,0.12208686 6.5153961,0.04787701 l 0.12439,-0.05709208 1.5175671,0.00123061 c 1.1566745,8.2041e-4 1.5395746,0.008655295 1.6101049,0.03265217 0.1214981,0.04136899 1.7689889,1.70513659 1.8385309,1.85669439 0.04321,0.094178 0.04569,0.2202996 0.04621,2.3527777 4.1e-4,2.5158417 0.0095,2.3840885 -0.174533,2.5931363 -0.05568,0.063257 -0.152514,0.1350799 -0.228254,0.1693072 l -0.131548,0.059443 -2.2017202,0.0041 C 7.7051945,7.0621789 6.6808351,7.0558618 6.6397861,7.0457298 Z M 10.950099,4.4250935 10.94374,2.5032547 10.272029,2.4908256 C 9.5415141,2.4772889 9.5236497,2.4739662 9.3854728,2.3251199 9.2420535,2.1706292 9.239584,2.1549307 9.239584,1.3974208 V 0.6995955 H 8.0205546 6.801521 V 3.52327 6.3469446 H 8.8790031 10.956485 Z M 10.558117,1.7751974 c 0,-0.01046 -0.139941,-0.1586379 -0.31098,-0.329266 L 9.9361624,1.135703 v 0.3292619 0.3292618 h 0.3109746 c 0.171039,0 0.31098,-0.00857 0.31098,-0.019033 z m 5.695629,4.3303385 C 16.10088,5.9769085 16.10595,6.0470859 16.10595,4.058942 c 0,-0.9993 -0.0055,-1.8169088 -0.0121,-1.8169088 -0.0067,0 -0.134218,0.094134 -0.283467,0.2091831 -0.333593,0.2571523 -0.345374,0.2635023 -0.48883,0.2635023 -0.196057,0 -0.335214,-0.1415735 -0.335017,-0.3408379 1.72e-4,-0.1765063 0.02945,-0.2046011 0.945276,-0.9070699 0.281559,-0.2159638 0.290715,-0.2199017 0.511293,-0.2199017 0.188013,0 0.192693,0.00164 0.285272,0.094121 0.07814,0.078144 0.09694,0.1172073 0.11073,0.230124 0.0091,0.0748 0.01304,1.0819929 0.0087,2.2382079 -0.0074,1.9680482 -0.01079,2.1074352 -0.05267,2.1841596 -0.101238,0.1854242 -0.384475,0.2440258 -0.541365,0.1120142 z"
       id="path1" /></g></svg>
