<?xml version="1.0" encoding="UTF-8" standalone="no"?>
<!-- Created with Inkscape (http://www.inkscape.org/) -->

<svg
   width="24"
   height="24"
   viewBox="0 0 24 24"
   version="1.1"
   id="svg1"
   xml:space="preserve"
   inkscape:version="1.4.3 (0d15f75, 2025-12-25)"
   sodipodi:docname="sort-file-name.svg"
   xmlns:inkscape="http://www.inkscape.org/namespaces/inkscape"
   xmlns:sodipodi="http://sodipodi.sourceforge.net/DTD/sodipodi-0.dtd"
   xmlns="http://www.w3.org/2000/svg"
   xmlns:svg="http://www.w3.org/2000/svg"><sodipodi:namedview
     id="namedview1"
     pagecolor="#ffffff"
     bordercolor="#000000"
     borderopacity="0.25"
     inkscape:showpageshadow="2"
     inkscape:pageopacity="0.0"
     inkscape:pagecheckerboard="0"
     inkscape:deskcolor="#d1d1d1"
     inkscape:document-units="px"
     inkscape:zoom="33.666667"
     inkscape:cx="12"
     inkscape:cy="12"
     inkscape:window-width="1920"
     inkscape:window-height="1010"
     inkscape:window-x="1913"
     inkscape:window-y="-6"
     inkscape:window-maximized="1"
     inkscape:current-layer="layer1" /><defs
     id="defs1" /><g
     inkscape:label="Vrstva 1"
     inkscape:groupmode="layer"
     id="layer1"><path
       style="fill:#000000;stroke-width:0.0253933"
       d="M 1.4384081,22.081653 C 0.90838962,22.003536 0.41689868,21.643198 0.17950515,21.158687 -0.0141457,20.763455 0.00180823,21.625378 0.00907344,11.95103 L 0.01560382,3.2551617 0.0836381,3.0689136 C 0.27198118,2.5533068 0.65509375,2.171294 1.1680074,1.9876631 l 0.2188329,-0.078344 4.1771922,-0.0078 c 3.1034703,-0.00579 4.2130912,-2.265e-4 4.3168547,0.021726 0.3477938,0.073512 0.2943828,0.025543 2.5935488,2.3286295 2.287366,2.2912506 2.207996,2.2027736 2.279048,2.5405879 0.02041,0.097021 0.0283,2.0460614 0.0283,6.9854354 0,6.751227 -7.54e-4,6.853738 -0.05042,7.048017 -0.138992,0.543452 -0.570405,1.00485 -1.118278,1.195996 L 13.397853,22.097 7.4939186,22.1003 C 4.2064575,22.1024 1.5228087,22.0939 1.4384066,22.08146 Z m 11.8535259,-1.27629 c 0.106905,-0.04467 0.211878,-0.170306 0.244965,-0.29318 0.01764,-0.06552 0.02404,-2.179894 0.01971,-6.518569 L 13.550215,7.5720184 11.75999,7.5593099 9.9697651,7.5466016 9.8239962,7.4877358 C 9.5650402,7.3831532 9.3160534,7.1599666 9.1956213,6.924466 9.0831108,6.7044588 9.0833645,6.7085355 9.069189,4.8930048 L 9.0556078,3.1535695 5.363918,3.1471481 c -2.5339349,-0.0044 -3.7229539,0.0021 -3.7913832,0.02043 -0.1337395,0.036028 -0.2842417,0.1762239 -0.3210584,0.2991101 -0.022405,0.074782 -0.029552,2.1731584 -0.029133,8.5521118 5.452e-4,8.148225 0.00223,8.456671 0.0472,8.554581 0.050683,0.110375 0.1012353,0.162191 0.2188711,0.224344 0.068876,0.03641 0.6343574,0.04035 5.8984015,0.04127 4.861618,8.38e-4 5.835899,-0.0047 5.905119,-0.03364 z M 4.3228325,18.581665 c -0.1872174,-0.04797 -0.2823966,-0.146933 -0.2823966,-0.293634 0,-0.03628 0.2296678,-0.702458 0.5103728,-1.480416 0.2807046,-0.777959 0.6910725,-1.917258 0.9119278,-2.531777 0.2208553,-0.614515 0.5006938,-1.391551 0.6218633,-1.726739 0.1211699,-0.335193 0.3052608,-0.853791 0.4090919,-1.152444 0.103831,-0.298648 0.2082748,-0.575995 0.2320971,-0.616322 0.08664,-0.146671 0.197694,-0.173821 0.7110121,-0.173821 0.2633489,0 0.4906743,0.01153 0.5315896,0.02701 0.074905,0.02831 0.2111479,0.145225 0.2111479,0.181207 0,0.01153 0.2580382,0.732146 0.5734189,1.60137 0.6491228,1.789066 0.7967023,2.199578 1.3486827,3.751541 0.785795,2.209363 0.768762,2.151969 0.677389,2.282426 -0.02277,0.0325 -0.08277,0.07655 -0.133314,0.09786 -0.125129,0.05275 -0.607937,0.07271 -0.7986725,0.03301 C 9.6193435,18.533557 9.5777629,18.479284 9.4280393,18.03403 9.3575933,17.824534 9.21236,17.407449 9.1052986,17.107173 8.9982376,16.806901 8.8998704,16.524081 8.8867057,16.478692 l -0.023937,-0.08253 H 7.4165466 c -0.7954222,0 -1.4462223,0.0033 -1.4462223,0.0078 0,0.0043 -0.061908,0.190001 -0.1375713,0.412643 -0.3857121,1.134953 -0.5536781,1.600506 -0.5931997,1.64418 -0.09162,0.101233 -0.1830592,0.125194 -0.5119871,0.13414 -0.1754103,0.0048 -0.3575405,-0.0013 -0.4047337,-0.01329 z m 4.1614248,-3.310733 c 0,-0.0095 -0.3305734,-0.952292 -0.5714854,-1.629925 -0.09434,-0.26536 -0.2222277,-0.625307 -0.2841933,-0.799886 -0.1984985,-0.559235 -0.217927,-0.610816 -0.2267541,-0.601987 -0.00477,0.0048 -0.1276986,0.35642 -0.2731807,0.781449 -0.1454815,0.425033 -0.3727867,1.081313 -0.5051224,1.458402 -0.1323358,0.377088 -0.2485099,0.711329 -0.2581654,0.742752 l -0.017557,0.05714 h 1.0682284 c 0.5875257,0 1.0682283,-0.0033 1.0682283,-0.0079 z M 12.826506,6.3080933 c 0,-0.01535 -2.490898,-2.4948794 -2.514225,-2.5027436 -0.02838,-0.00957 -0.03649,2.4644547 -0.0082,2.4927698 0.01564,0.015645 2.522397,0.025543 2.522397,0.00999 z m 8.405171,14.1918977 c -0.06284,-0.01711 -0.144315,-0.04758 -0.181038,-0.06773 -0.03672,-0.02013 -0.552676,-0.516689 -1.146563,-1.103412 -1.061547,-1.048737 -1.080517,-1.069247 -1.122441,-1.213465 -0.09885,-0.340011 0.0832,-0.65457 0.420723,-0.726953 0.129548,-0.02776 0.298883,-0.0062 0.413716,0.05284 0.02966,0.01523 0.29674,0.268761 0.593524,0.563391 l 0.539607,0.535693 2.87e-4,-0.100794 c 1.52e-4,-0.05544 0.003,-2.40985 0.0063,-5.23203 l 0.0061,-5.1312337 0.07656,-0.1497207 c 0.05816,-0.1137134 0.105953,-0.1678817 0.198764,-0.2252626 0.142076,-0.087839 0.360417,-0.1157896 0.512486,-0.065602 0.125236,0.041313 0.28798,0.1907108 0.345592,0.3172081 0.04428,0.097205 0.04629,0.3281969 0.04682,5.3704599 l 5.44e-4,5.268888 0.552304,-0.550234 c 0.336848,-0.335583 0.595653,-0.572418 0.663426,-0.607103 0.197788,-0.101234 0.500732,-0.06166 0.659149,0.08611 0.09349,0.0872 0.161172,0.24214 0.173379,0.396893 0.01992,0.252513 0.0027,0.273538 -1.173597,1.432298 -0.630128,0.620735 -1.108988,1.07261 -1.16809,1.102259 -0.136107,0.06828 -0.28072,0.08473 -0.417581,0.0475 z"
       id="path1" /></g></svg>
