<?xml version="1.0" encoding="UTF-8" standalone="no"?>
<!-- Created with Inkscape (http://www.inkscape.org/) -->

<svg
   width="24"
   height="24"
   viewBox="0 0 24 24"
   version="1.1"
   id="svg1"
   xml:space="preserve"
   inkscape:version="1.4.3 (0d15f75, 2025-12-25)"
   sodipodi:docname="sort-type.svg"
   xmlns:inkscape="http://www.inkscape.org/namespaces/inkscape"
   xmlns:sodipodi="http://sodipodi.sourceforge.net/DTD/sodipodi-0.dtd"
   xmlns="http://www.w3.org/2000/svg"
   xmlns:svg="http://www.w3.org/2000/svg"><sodipodi:namedview
     id="namedview1"
     pagecolor="#ffffff"
     bordercolor="#000000"
     borderopacity="0.25"
     inkscape:showpageshadow="2"
     inkscape:pageopacity="0.0"
     inkscape:pagecheckerboard="0"
     inkscape:deskcolor="#d1d1d1"
     inkscape:document-units="px"
     inkscape:zoom="23.937016"
     inkscape:cx="-0.50131562"
     inkscape:cy="9.1907863"
     inkscape:window-width="1920"
     inkscape:window-height="1010"
     inkscape:window-x="1913"
     inkscape:window-y="-6"
     inkscape:window-maximized="1"
     inkscape:current-layer="layer1" /><defs
     id="defs1" /><g
     inkscape:label="Vrstva 1"
     inkscape:groupmode="layer"
     id="layer1"><path
       style="fill:#000000;stroke-width:0.0276243"
       d="M 4.9687615,23.9072 C 4.6155924,23.785159 4.505086,23.60058 4.47565,23.083597 4.454147,22.706091 4.4782,22.584432 4.5923761,22.49468 c 0.098597,-0.07753 0.3069451,-0.0764 0.3913111,0.0028 0.09399,0.0876 0.1140188,0.169129 0.1140188,0.464481 0,0.359463 0.012332,0.371483 0.374306,0.365147 0.3120365,-0.0057 0.4273324,0.03544 0.4937253,0.175408 0.055124,0.11623 0.054699,0.162169 -0.00269,0.282977 -0.066889,0.140894 -0.1690453,0.173594 -0.5399338,0.172531 -0.2255628,-6.52e-4 -0.3510955,-0.0146 -0.4544098,-0.05018 z m 2.1562342,0.0071 c -0.2346075,-0.115663 -0.2047888,-0.46733 0.047059,-0.555594 0.055847,-0.01956 0.2624389,-0.03359 0.5084638,-0.03444 0.3415887,-0.0012 0.4312276,0.0071 0.5103632,0.04678 0.210915,0.106166 0.2113261,0.433367 6.804e-4,0.538598 -0.1332393,0.06662 -0.9340783,0.07016 -1.0666231,0.0043 z m 2.3787892,0.01729 c -0.030333,-0.01276 -0.08533,-0.05514 -0.1220415,-0.09468 -0.085897,-0.09242 -0.093126,-0.291042 -0.014174,-0.37864 0.1019139,-0.112687 0.1877398,-0.135649 0.505473,-0.135649 0.3921066,0 0.3900796,0.0014 0.3900796,-0.362468 0,-0.295196 0.03147,-0.399462 0.144111,-0.4784 0.07186,-0.05032 0.23847,-0.05641 0.335408,-0.01276 0.134657,0.06138 0.162552,0.167669 0.151794,0.577423 -0.0099,0.35606 -0.01417,0.379023 -0.09497,0.52431 -0.101772,0.181433 -0.280086,0.313425 -0.482,0.356727 -0.16207,0.03473 -0.732618,0.03728 -0.8140073,0.0043 z m 7.6779291,-0.675594 c -0.04649,-0.02027 -0.53884,-0.489683 -1.094136,-1.043193 -1.077878,-1.074447 -1.095369,-1.096276 -1.064157,-1.328891 0.03501,-0.260639 0.278031,-0.418811 0.563078,-0.366409 0.09029,0.01658 0.191893,0.105741 0.719776,0.631002 l 0.61463,0.611682 v -5.787533 -5.787547 l 0.06208,-0.123317 c 0.08405,-0.166662 0.267541,-0.2623817 0.450391,-0.2349684 0.145812,0.021829 0.304494,0.1460246 0.361745,0.2830484 0.0309,0.07413 0.03728,1.074149 0.03728,5.849886 0,3.168303 0.0057,5.760558 0.01417,5.760558 0.0071,0 0.271751,-0.256131 0.587018,-0.569187 0.315281,-0.313041 0.613241,-0.586522 0.662128,-0.607727 0.347939,-0.150901 0.721831,0.164451 0.617536,0.520838 -0.02934,0.100355 -0.181347,0.265005 -1.04719,1.134363 -0.611086,0.613581 -1.049784,1.032703 -1.105985,1.05663 -0.115096,0.04904 -0.266521,0.04933 -0.378088,7.09e-4 z M 4.5802599,21.423407 c -0.077449,-0.07243 -0.082027,-0.08972 -0.096896,-0.366025 -0.00865,-0.159533 -0.011907,-0.381773 -0.00737,-0.493864 0.00737,-0.183573 0.016371,-0.211907 0.090036,-0.285586 0.1581522,-0.158144 0.4441985,-0.09454 0.5060258,0.112545 0.017916,0.05996 0.02635,0.271312 0.020921,0.524155 l -0.00907,0.423601 -0.09022,0.08051 c -0.1246496,0.111269 -0.297186,0.113253 -0.4134118,0.0043 z m 5.7987511,-0.0028 c -0.108009,-0.100921 -0.123034,-0.190674 -0.111411,-0.663914 0.0099,-0.38156 0.01134,-0.388137 0.08788,-0.468648 0.142354,-0.148505 0.388393,-0.132672 0.490378,0.03147 0.04975,0.08023 0.05401,0.129696 0.04692,0.553113 l -0.0085,0.465048 -0.09029,0.08051 c -0.125727,0.112261 -0.297096,0.113253 -0.415764,0.0028 z M 4.570712,19.180395 c -0.089866,-0.08987 -0.09528,-0.130263 -0.08336,-0.623674 0.0078,-0.323516 0.078654,-0.51239 0.2376564,-0.633666 0.1622174,-0.123742 0.292962,-0.153282 0.706935,-0.15976 l 0.3821133,-0.0057 0.083459,0.07994 c 0.1082499,0.103757 0.1315809,0.227358 0.068151,0.36105 -0.067612,0.142467 -0.1702387,0.178853 -0.5045899,0.178853 -0.2205876,0 -0.2811108,0.0085 -0.3116609,0.0455 -0.025117,0.03019 -0.042594,0.152148 -0.051779,0.361433 -0.013749,0.31477 -0.014174,0.316145 -0.1040259,0.396429 -0.128094,0.114529 -0.3083483,0.114387 -0.4229114,-1.84e-4 z m 5.865564,0.0523 c -0.126719,-0.05088 -0.172616,-0.180749 -0.172729,-0.487965 -1.28e-4,-0.360993 -0.0071,-0.367584 -0.4026808,-0.367584 -0.1538772,0 -0.3181159,-0.01276 -0.3649481,-0.02963 -0.2191645,-0.0764 -0.2484771,-0.407386 -0.047768,-0.53891 0.060808,-0.03983 0.1424243,-0.04834 0.4796473,-0.05004 0.3974646,-0.0014 0.4099376,-1.41e-4 0.5712566,0.08037 0.199306,0.0995 0.326989,0.256897 0.369569,0.455466 0.04493,0.209781 0.03884,0.703943 -0.0099,0.798203 -0.07654,0.148094 -0.255224,0.207314 -0.422511,0.140043 z M 7.1557116,18.350782 c -0.079547,-0.03289 -0.1694492,-0.141036 -0.1902132,-0.228931 -0.02309,-0.09766 0.041304,-0.252191 0.1290578,-0.309682 0.082226,-0.05386 0.6039496,-0.08817 0.8841774,-0.05826 0.3055432,0.03274 0.4391794,0.203814 0.341617,0.437323 -0.068888,0.165046 -0.1443803,0.186109 -0.6591234,0.184111 -0.2476408,-9.61e-4 -0.4751257,-0.01134 -0.5055156,-0.02466 z M 4.7303695,16.099987 C 4.5403079,16.031667 4.41763,15.929809 4.3414256,15.776882 l -0.072457,-0.144324 6.067e-4,-2.736296 c 5.755e-4,-2.594325 0.00326,-2.742079 0.051283,-2.847848 0.068675,-0.151184 0.2775942,-0.3302208 0.4301844,-0.3686334 0.1736859,-0.043799 5.6864523,-0.043515 5.8602013,2.835e-4 0.07824,0.019702 0.173282,0.075691 0.25891,0.1527291 0.237889,0.2138908 0.223828,0.00992 0.215522,3.1208328 l -0.0071,2.735573 -0.08292,0.132956 c -0.05769,0.09256 -0.129129,0.159136 -0.234813,0.218824 l -0.151936,0.08575 -2.8867427,0.0057 c -2.3796794,0.0043 -2.9051666,-6.66e-4 -2.9916389,-0.03175 z m 5.6066425,-0.813298 c 0.0085,-0.05485 -0.20472,-0.279207 -1.3055746,-1.374322 C 8.307863,13.192578 7.701525,12.60366 7.6840054,12.60366 c -0.04876,0 -2.6691799,2.633461 -2.6691799,2.682533 0,0.02367 0.00836,0.05145 0.018554,0.06166 0.010206,0.0099 1.2054456,0.01531 2.6560969,0.01134 l 2.6375286,-0.0071 z M 6.2749021,12.949062 c 1.3272179,-1.31571 1.3043262,-1.297057 1.5216622,-1.240146 0.072715,0.01899 0.3658269,0.296485 1.3056317,1.236063 l 1.211797,1.211486 0.01587,-0.147953 c 0.0085,-0.08136 0.01276,-0.91867 0.0099,-1.860658 l -0.0071,-1.712706 H 7.6807737 5.0288369 l -0.00709,1.871544 c -0.00397,1.029359 -0.00241,1.871545 0.00312,1.871545 0.00567,0 0.5682357,-0.553128 1.2501941,-1.229175 z M 5.1898339,8.1794353 C 4.9884129,8.1449915 4.8512232,8.0695837 4.7111887,7.9163302 4.4726535,7.6553229 4.4881206,7.9316385 4.496441,4.0799031 L 4.503811,0.68376109 4.598113,0.50984128 C 4.7006373,0.32078323 4.8258255,0.20575803 5.0333883,0.10996748 5.1662732,0.04859236 5.1736155,0.04830887 6.9136909,0.04037121 c 1.2093805,-0.0056698 1.7831316,0.0013182 1.8646485,0.02239554 0.1282783,0.03316808 0.3523329,0.25064579 1.5267236,1.48163515 0.464113,0.4864793 0.563036,0.6044811 0.590548,0.7044106 0.0248,0.090149 0.03104,0.7659417 0.02509,2.716735 l -0.0085,2.596678 -0.07753,0.1578602 c -0.04338,0.088448 -0.132535,0.2062658 -0.202472,0.2678535 -0.23426,0.2061949 -0.09653,0.1964004 -2.8621075,0.2033884 -1.3611103,0.00283 -2.5224225,-0.00142 -2.5806949,-0.01134 z m 4.9287511,-3.0807477 0.0071,-2.2701424 -0.7667352,-0.0085 C 8.4800252,2.8101185 8.4513645,2.8030313 8.3366795,2.5767938 8.2764384,2.4580124 8.2745957,2.428884 8.2745957,1.6586758 V 0.86319473 l -1.4848074,0.007087 -1.4848073,0.007087 -0.00709,3.25290977 -0.00709,3.252924 2.4103498,-0.00709 2.4103272,-0.00709 z M 9.6280943,1.9884856 c 0,-0.00425 -0.1243094,-0.1312549 -0.2762447,-0.2826232 L 9.0756048,1.4306524 V 1.7132756 1.995913 h 0.2762448 c 0.1519353,0 0.2762447,-0.00283 0.2762447,-0.00709 z"
       id="path1" /></g></svg>
