<?xml version="1.0" encoding="UTF-8" standalone="no"?>
<!-- Created with Inkscape (http://www.inkscape.org/) -->

<svg
   width="24"
   height="24"
   viewBox="0 0 24 24"
   version="1.1"
   id="svg1"
   xml:space="preserve"
   inkscape:version="1.4.3 (0d15f75, 2025-12-25)"
   sodipodi:docname="sort-source.svg"
   xmlns:inkscape="http://www.inkscape.org/namespaces/inkscape"
   xmlns:sodipodi="http://sodipodi.sourceforge.net/DTD/sodipodi-0.dtd"
   xmlns="http://www.w3.org/2000/svg"
   xmlns:svg="http://www.w3.org/2000/svg"><sodipodi:namedview
     id="namedview1"
     pagecolor="#ffffff"
     bordercolor="#000000"
     borderopacity="0.25"
     inkscape:showpageshadow="2"
     inkscape:pageopacity="0.0"
     inkscape:pagecheckerboard="0"
     inkscape:deskcolor="#d1d1d1"
     inkscape:document-units="px"
     inkscape:zoom="19.547527"
     inkscape:cx="13.40323"
     inkscape:cy="20.667577"
     inkscape:window-width="1920"
     inkscape:window-height="1010"
     inkscape:window-x="1913"
     inkscape:window-y="-6"
     inkscape:window-maximized="1"
     inkscape:current-layer="layer1" /><defs
     id="defs1" /><g
     inkscape:label="Vrstva 1"
     inkscape:groupmode="layer"
     id="layer1"><path
       style="fill:#000000;stroke-width:0.0247276"
       d="m 11.682274,23.898895 c -0.140863,-0.06603 -1.603816,-1.542221 -1.641407,-1.656254 -0.1202816,-0.364844 0.242545,-0.690767 0.597453,-0.536686 0.04375,0.01901 0.235211,0.191476 0.425427,0.383281 0.190222,0.191799 0.354354,0.34873 0.364734,0.34873 0.0104,0 0.0189,-0.797663 0.0189,-1.772583 0,-1.755787 4.97e-4,-1.773606 0.05242,-1.880929 0.07504,-0.155012 0.203717,-0.233535 0.385402,-0.235194 0.172177,-0.0017 0.275016,0.04601 0.370699,0.171415 l 0.06928,0.09082 0.0067,1.829669 0.0067,1.829675 0.39002,-0.385264 c 0.421421,-0.416277 0.451661,-0.434321 0.683976,-0.408134 0.262826,0.02959 0.429894,0.320109 0.333379,0.579641 -0.0382,0.102717 -1.521501,1.584748 -1.643228,1.641811 -0.05439,0.02549 -0.148983,0.04635 -0.210184,0.04635 -0.0612,0 -0.155786,-0.02087 -0.210185,-0.04635 z M 5.0549367,16.879435 C 4.6880932,16.751952 4.4307519,16.494963 4.3013964,16.126923 4.2561413,15.998117 4.2544074,15.830222 4.2493212,11.049535 l -0.0052,-4.944178 0.054156,-0.1666693 C 4.4100143,5.5946916 4.6902259,5.2989153 5.0215473,5.1752412 l 0.1574045,-0.058757 2.2721515,-0.00694 c 1.4762517,-0.00462 2.3207704,0.00173 2.4109453,0.018437 0.076338,0.013929 0.2111214,0.059554 0.2995274,0.1013471 0.146729,0.069362 0.273362,0.1894067 1.454231,1.3785572 0.711424,0.7164173 1.33206,1.3582129 1.379182,1.4262168 0.04711,0.067998 0.11008,0.1959666 0.139897,0.2843672 l 0.05421,0.1607278 0.0084,3.6322317 c 0.0058,2.481521 2.3e-5,3.687936 -0.01797,3.808061 -0.05916,0.395453 -0.307879,0.736675 -0.663903,0.910818 l -0.165634,0.08102 -3.5855084,0.0058 c -3.3531641,0.0052 -3.5935419,0.0029 -3.7094712,-0.03751 z M 12.105487,15.97016 c 0.03757,-0.02803 0.09123,-0.08171 0.119264,-0.119264 0.05092,-0.06819 0.05098,-0.07296 0.05098,-3.460343 V 8.9984913 L 11.200079,8.9861228 C 10.160703,8.9741588 10.120488,8.9719625 10.007778,8.91987 9.8442298,8.844312 9.6550832,8.6586679 9.5745373,8.4946457 l -0.068305,-0.139077 -0.00711,-1.1688004 -0.00711,-1.1687946 -2.0624755,0.00659 -2.0624697,0.00659 -0.084447,0.081852 c -0.046467,0.045022 -0.097131,0.1242036 -0.1126384,0.1759609 -0.036701,0.1225008 -0.040631,9.3428554 -0.00405,9.4704544 0.029245,0.102023 0.1108605,0.194683 0.2107742,0.239349 0.061028,0.02728 0.6580712,0.03219 3.3673359,0.02774 3.2832992,-0.0052 3.2933502,-0.0058 3.3614292,-0.05641 z M 11.818276,8.0885696 c 0,-0.00405 -0.319918,-0.3266573 -0.710921,-0.7169086 l -0.710921,-0.7095452 -0.0066,0.6856635 c -0.0035,0.377114 -0.0012,0.6997255 0.0052,0.7169085 0.0092,0.024159 0.171883,0.031268 0.717504,0.031268 0.388032,0 0.705517,-0.00347 0.705517,-0.00734 z m 2.744023,5.9605444 c -0.264398,-0.133569 -0.324293,-0.489737 -0.11824,-0.703083 0.107757,-0.111572 0.166438,-0.12727 0.514624,-0.13769 0.347631,-0.0104 0.439038,-0.04104 0.520284,-0.174264 0.04722,-0.07745 0.04826,-0.14944 0.04838,-3.3357734 l 8.7e-5,-3.2566141 -1.032971,-0.00746 -1.032966,-0.00746 -0.165022,-0.081274 c -0.182529,-0.089898 -0.3262,-0.234101 -0.418751,-0.4202942 -0.05757,-0.1158019 -0.05806,-0.1243847 -0.07033,-1.2170029 L 12.795024,3.6078181 10.7714,3.6015181 C 8.4813642,3.5943595 8.6379595,3.5810662 8.4967845,3.7944297 8.3650419,3.9935173 8.1926565,4.0710347 7.9732185,4.0298717 7.8590521,4.008429 7.7002778,3.8660286 7.6623052,3.7509836 7.6228298,3.6313091 7.6469312,3.3991269 7.7131088,3.2624947 7.8520702,2.9754458 8.1668097,2.7573198 8.5182272,2.7045164 c 0.1156807,-0.017397 0.9251281,-0.023639 2.4109458,-0.018553 2.198321,0.00746 2.239403,0.0085 2.389022,0.059618 0.08373,0.028609 0.206128,0.088372 0.272005,0.1328234 0.165346,0.1115713 2.573406,2.547063 2.673708,2.7041611 0.178708,0.2799108 0.165634,-0.019478 0.170292,3.8981089 0.0023,1.938027 -0.0046,3.592767 -0.01572,3.677197 -0.04069,0.313312 -0.273623,0.660869 -0.540241,0.80598 -0.20556,0.111883 -0.371969,0.140892 -0.808198,0.140892 -0.36318,0 -0.4071,-0.0046 -0.507707,-0.05566 z m 0.395684,-8.543401 c -3.87e-4,-0.01023 -0.284036,-0.3022958 -0.63034,-0.6491011 l -0.629634,-0.630554 -2.14e-4,0.6490953 -2.2e-4,0.6491011 h 0.630554 c 0.346805,0 0.630242,-0.00832 0.629854,-0.018553 z m 2.876928,5.855666 c -0.247417,-0.112329 -0.325137,-0.461007 -0.151861,-0.681288 0.09795,-0.12453 0.220605,-0.159699 0.559024,-0.160306 0.341956,-5.78e-4 0.428675,-0.02462 0.532004,-0.147446 l 0.06685,-0.07944 -1.7e-5,-3.2559675 -2.3e-5,-3.2559723 H 17.807192 16.773498 L 16.58453,3.6875398 C 16.307319,3.5504973 16.152683,3.3495659 16.096527,3.0534371 16.082193,2.9779773 16.071443,2.5027643 16.071443,1.9477337 V 0.97436811 l -2.10803,9.826e-5 c -2.043715,9.825e-5 -2.110436,0.001734 -2.186815,0.0481449 -0.04335,0.026413 -0.09198,0.073674 -0.108115,0.1049998 -0.04329,0.084077 -0.149503,0.1922734 -0.230032,0.234315 -0.0389,0.020344 -0.131621,0.03751 -0.206018,0.038146 -0.110455,0.00116 -0.153959,-0.011906 -0.237164,-0.070397 -0.218467,-0.1535493 -0.265161,-0.40077613 -0.131188,-0.69462201 0.119218,-0.26146799 0.365492,-0.45819752 0.674284,-0.53862786 0.215669,-0.05617872 4.773699,-0.05531176 4.98968,0.0011559 0.303331,0.07901432 0.32538,0.09811046 1.710077,1.48128587 1.411161,1.4096118 1.391266,1.3863312 1.479899,1.7315124 0.03312,0.1288758 0.03786,0.5827096 0.03786,3.6151981 0,2.4361853 -0.0082,3.5068055 -0.02734,3.5988585 -0.08289,0.397494 -0.372641,0.723105 -0.747617,0.840161 -0.215177,0.06717 -0.995952,0.06514 -1.145993,-0.0029 z M 17.63735,2.2540232 c -0.345632,-0.343401 -0.633502,-0.629005 -0.63971,-0.6346749 -0.0062,-0.00578 -0.01127,0.2752988 -0.01127,0.6243755 v 0.634675 h 0.639703 0.639709 z"
       id="path1" /></g></svg>
