<?xml version="1.0" encoding="UTF-8" standalone="no"?>
<!-- Created with Inkscape (http://www.inkscape.org/) -->

<svg
   width="24"
   height="24"
   viewBox="0 0 24 24"
   version="1.1"
   id="svg1"
   xml:space="preserve"
   inkscape:version="1.4.3 (0d15f75, 2025-12-25)"
   sodipodi:docname="split.svg"
   xmlns:inkscape="http://www.inkscape.org/namespaces/inkscape"
   xmlns:sodipodi="http://sodipodi.sourceforge.net/DTD/sodipodi-0.dtd"
   xmlns="http://www.w3.org/2000/svg"
   xmlns:svg="http://www.w3.org/2000/svg"><sodipodi:namedview
     id="namedview1"
     pagecolor="#ffffff"
     bordercolor="#000000"
     borderopacity="0.25"
     inkscape:showpageshadow="2"
     inkscape:pageopacity="0.0"
     inkscape:pagecheckerboard="0"
     inkscape:deskcolor="#d1d1d1"
     inkscape:document-units="px"
     inkscape:zoom="29.771606"
     inkscape:cx="12.663073"
     inkscape:cy="13.569977"
     inkscape:window-width="1920"
     inkscape:window-height="1010"
     inkscape:window-x="1913"
     inkscape:window-y="-6"
     inkscape:window-maximized="1"
     inkscape:current-layer="layer1" /><defs
     id="defs1" /><g
     inkscape:label="Vrstva 1"
     inkscape:groupmode="layer"
     id="layer1"><path
       style="fill:#000000;stroke-width:0.026562"
       d="m 15.401438,23.939855 c -0.817335,-0.221569 -1.364279,-0.936223 -1.364279,-1.782596 0,-0.723014 0.392815,-1.346906 1.046496,-1.662109 0.275226,-0.132717 0.521653,-0.178836 0.875198,-0.163796 0.343118,0.01458 0.542905,0.0722 0.822859,0.237131 0.09973,0.05876 0.18488,0.102779 0.189227,0.09781 0.0044,-0.0053 0.19635,-0.301886 0.426686,-0.659805 0.230336,-0.357928 0.488639,-0.759208 0.574001,-0.89174 l 0.155198,-0.240966 -0.988996,-1.489291 c -1.843092,-2.775428 -1.981633,-2.993613 -2.023262,-3.186225 -0.06186,-0.286254 0.233252,-0.580664 0.526849,-0.525577 0.168824,0.03164 0.250713,0.10991 0.478141,0.456872 0.640506,0.977111 1.855808,2.851988 2.168925,3.346036 0.196448,0.30998 0.364785,0.56398 0.374082,0.564448 0.0093,4.69e-4 0.112349,-0.145574 0.228992,-0.324534 0.116644,-0.178959 0.648008,-0.994749 1.180813,-1.812853 1.396621,-2.14451 1.368671,-2.103251 1.463285,-2.16 0.351424,-0.210798 0.785568,0.09093 0.682356,0.474227 -0.03013,0.111933 -0.445729,0.755664 -2.06331,3.19598 l -0.965835,1.45709 0.272919,0.421782 c 0.150108,0.231988 0.408076,0.630423 0.573259,0.885431 l 0.300331,0.463649 0.13475,-0.07944 c 0.358917,-0.211619 0.886561,-0.291308 1.308007,-0.197551 0.394096,0.08766 0.803939,0.347598 1.040045,0.659584 0.261105,0.345008 0.368072,0.674756 0.368072,1.134615 0,0.20797 -0.01485,0.36057 -0.04666,0.478123 -0.142455,0.527565 -0.489382,0.947738 -0.974486,1.180212 -0.525612,0.251897 -1.171155,0.230522 -1.70699,-0.05655 -0.211134,-0.1131 -0.574223,-0.488162 -0.690407,-0.713187 -0.247258,-0.478875 -0.288737,-1.04776 -0.110864,-1.520334 0.03552,-0.09431 0.06451,-0.180373 0.06451,-0.191243 0,-0.02271 -0.905039,-1.429802 -1.00522,-1.562855 l -0.06645,-0.08819 -0.196103,0.300693 c -0.107851,0.165378 -0.35776,0.550407 -0.555347,0.855616 l -0.359236,0.554923 0.06186,0.188812 c 0.05328,0.162559 0.06186,0.242371 0.06186,0.573957 0,0.353527 -0.0062,0.403136 -0.0752,0.604152 -0.182733,0.53231 -0.605204,0.955832 -1.13777,1.140606 -0.272575,0.09457 -0.77135,0.112217 -1.048475,0.03711 z m 0.822903,-0.879448 c 0.297273,-0.111227 0.545423,-0.424644 0.5971,-0.754145 0.06725,-0.429001 -0.166721,-0.855757 -0.573851,-1.046575 -0.202615,-0.09497 -0.523924,-0.0979 -0.757405,-0.0071 -0.199001,0.07759 -0.419935,0.290425 -0.517474,0.498599 -0.06274,0.133998 -0.07228,0.187495 -0.07228,0.406635 0,0.217964 0.0096,0.272955 0.07096,0.403649 0.124552,0.265708 0.40979,0.492527 0.695522,0.553084 0.154951,0.03287 0.384217,0.01052 0.557477,-0.05435 z m 5.562952,-0.02545 c 0.215968,-0.100924 0.407705,-0.296735 0.487738,-0.498104 0.0471,-0.118596 0.06106,-0.206839 0.06177,-0.392099 8.48e-4,-0.209817 -0.008,-0.257791 -0.07423,-0.392258 -0.0881,-0.179454 -0.284089,-0.390385 -0.431617,-0.464577 -0.394458,-0.198365 -0.855377,-0.117899 -1.161186,0.202703 -0.350673,0.36764 -0.363363,0.930666 -0.02934,1.302167 0.306472,0.340873 0.739847,0.432376 1.146898,0.242168 z M 1.3006719,20.843614 c -0.01458,-0.0053 -0.059736,-0.01635 -0.1002782,-0.02527 -0.089144,-0.01971 -0.27147901,-0.179446 -0.33307034,-0.29183 -0.0414438,-0.07564 -0.0453319,-0.43541 -0.0517827,-4.832122 -0.005302,-3.426864 8.8367e-4,-4.781193 0.0226218,-4.860846 0.0469225,-0.175036 -0.0734324,-0.06919 2.99919764,-2.6366749 1.778399,-1.4859948 1.8921177,-1.5794157 1.9742454,-1.6218845 0.1103342,-0.057085 0.3297301,-0.03623 0.4390923,0.04162 0.1843057,0.1312417 0.1756546,0.038351 0.1838373,1.9739361 L 6.4416051,10.335989 7.045156,9.837683 C 7.6243613,9.3594714 8.0813478,8.9857348 9.6807082,7.6822344 10.082457,7.3548018 10.502798,7.0120111 10.614802,6.9204724 c 0.293199,-0.239623 0.358555,-0.2743775 0.516245,-0.2744923 0.163698,-1.326e-4 0.293844,0.076348 0.36247,0.2129275 0.04277,0.085008 0.04648,0.2247333 0.04648,1.7459244 1.8e-5,0.909413 0.0062,1.653484 0.01325,1.653484 0.0071,0 0.21344,-0.158829 0.458197,-0.3529527 1.113982,-0.8835308 1.73677,-1.3402873 1.858645,-1.3631477 0.20053,-0.037644 0.429699,0.1056066 0.484459,0.3027696 0.01626,0.058675 0.02739,0.4651601 0.02748,1.0054584 l 1.59e-4,0.9069574 0.31211,0.0095 c 0.171652,0.0053 0.379843,0.0053 0.462642,4.59e-4 l 0.150541,-0.0089 0.01476,-0.216807 c 0.008,-0.119241 0.02731,-0.539529 0.04259,-0.9339789 0.03747,-0.9651369 0.0615,-1.5185311 0.200335,-4.6217889 0.159784,-3.5711223 0.196359,-4.28747279 0.224159,-4.39060514 0.03994,-0.14814616 0.155693,-0.31841042 0.282092,-0.41492413 0.230786,-0.17622015 0.240666,-0.17729822 1.553957,-0.16900946 l 1.179382,0.0070693 0.130764,0.06433069 c 0.165387,0.0813854 0.307754,0.22309849 0.38549,0.38366896 0.07379,0.1523524 0.0729,0.1419782 0.214756,2.60660368 0.05885,1.0226371 0.142288,2.4211227 0.185384,3.1077557 0.04312,0.6866241 0.145407,2.3501381 0.22734,3.6966994 0.14341,2.3569778 0.147254,2.4518918 0.103159,2.5448178 -0.07458,0.15708 -0.203676,0.237706 -0.382405,0.23874 -0.12655,7.24e-4 -0.16772,-0.01167 -0.25173,-0.07564 -0.132461,-0.100958 -0.164714,-0.189519 -0.184924,-0.507815 -0.0093,-0.146096 -0.04639,-0.725805 -0.08245,-1.288257 C 19.114097,10.226796 19.036653,8.9597905 18.97811,7.9736754 18.919611,6.9875601 18.818352,5.2902461 18.753182,4.2018644 18.687968,3.1134916 18.621516,1.9660105 18.605416,1.6519124 18.589333,1.3378231 18.57007,1.0298841 18.562647,0.96762115 l -0.01352,-0.11321495 -0.974478,0.007069 -0.974477,0.007069 -0.01997,0.4382794 c -0.02404,0.5294822 -0.190818,4.2576933 -0.245915,5.4983301 -0.02174,0.4894082 -0.06901,1.5890742 -0.10497,2.443709 -0.03596,0.8546263 -0.07308,1.6734023 -0.08253,1.8194983 -0.01997,0.310934 -0.0714,0.428965 -0.224124,0.514822 -0.09695,0.05452 -0.130994,0.05629 -1.086968,0.05629 -1.386229,0 -1.283945,0.08183 -1.3035,-1.042228 l -0.01326,-0.7633343 -0.452577,0.3516183 c -0.248919,0.193399 -0.734148,0.580311 -1.07829,0.859804 -0.344143,0.279503 -0.653142,0.522864 -0.686669,0.540811 -0.03676,0.01962 -0.1229,0.0281 -0.216904,0.0213 -0.13353,-0.0096 -0.16931,-0.02421 -0.248883,-0.101357 -0.05108,-0.04957 -0.104696,-0.132434 -0.119082,-0.184217 -0.01582,-0.05709 -0.02625,-0.73641 -0.02633,-1.7242921 l -1.42e-4,-1.6301588 -0.139451,0.1182518 c -0.0767,0.065038 -0.366561,0.3032468 -0.6441287,0.5293497 -0.2775766,0.226103 -1.1322117,0.9246298 -1.8991873,1.5522784 -1.9524807,1.597787 -1.7803608,1.47213 -2.016511,1.47213 -0.1530063,0 -0.2792199,-0.07617 -0.3514506,-0.212079 -0.046392,-0.08731 -0.04922,-0.189537 -0.04922,-1.8128533 0,-0.9461735 -0.01025,-1.7203068 -0.022799,-1.7203068 -0.012548,0 -0.1828741,0.1339104 -0.3785084,0.2975737 C 4.9931564,8.3554268 4.319045,8.9202024 3.6907692,9.4468215 3.0624845,9.9734319 2.354573,10.565663 2.1176363,10.762888 L 1.6868416,11.12147 1.68617,15.495391 c -3.711e-4,2.405659 -0.00795,4.392824 -0.01679,4.415931 -0.014669,0.03826 0.4569423,0.04206 5.2260735,0.04259 5.0548195,5.65e-4 5.2460885,0.0027 5.3510765,0.05002 0.147095,0.0668 0.229938,0.189475 0.244218,0.36164 0.01485,0.178941 -0.04754,0.313108 -0.189289,0.4069 l -0.106791,0.07069 -5.4338759,0.0044 c -2.9886291,0.0027 -5.4458318,6.45e-4 -5.4604388,-0.0044 z"
       id="path1" /></g></svg>
