<?xml version="1.0" encoding="UTF-8" standalone="no"?>
<!-- Created with Inkscape (http://www.inkscape.org/) -->

<svg
   width="24"
   height="24"
   viewBox="0 0 24 24"
   version="1.1"
   id="svg1"
   xml:space="preserve"
   inkscape:version="1.4.3 (0d15f75, 2025-12-25)"
   sodipodi:docname="ungroup.svg"
   xmlns:inkscape="http://www.inkscape.org/namespaces/inkscape"
   xmlns:sodipodi="http://sodipodi.sourceforge.net/DTD/sodipodi-0.dtd"
   xmlns="http://www.w3.org/2000/svg"
   xmlns:svg="http://www.w3.org/2000/svg"><sodipodi:namedview
     id="namedview1"
     pagecolor="#ffffff"
     bordercolor="#000000"
     borderopacity="0.25"
     inkscape:showpageshadow="2"
     inkscape:pageopacity="0.0"
     inkscape:pagecheckerboard="0"
     inkscape:deskcolor="#d1d1d1"
     inkscape:document-units="px"
     inkscape:zoom="17.788684"
     inkscape:cx="26.702369"
     inkscape:cy="22.711067"
     inkscape:window-width="1920"
     inkscape:window-height="1010"
     inkscape:window-x="1913"
     inkscape:window-y="-6"
     inkscape:window-maximized="1"
     inkscape:current-layer="layer1" /><defs
     id="defs1" /><g
     inkscape:label="Vrstva 1"
     inkscape:groupmode="layer"
     id="layer1"><path
       style="fill:#000000;stroke-width:0.0235887"
       d="M 11.665134,22.134122 C 10.766049,21.98733 10.003898,21.586261 9.3925772,20.938228 8.7383903,20.244755 8.3667846,19.375547 8.3252573,18.4417 c -0.031392,-0.705909 0.09905,-1.314441 0.4188826,-1.95416 0.4032392,-0.806546 0.9600008,-1.358436 1.7877731,-1.772129 0.229246,-0.11457 0.667058,-0.264745 0.923773,-0.316865 1.627681,-0.330465 3.299321,0.422487 4.155302,1.871662 0.750603,1.270769 0.703632,2.901705 -0.119326,4.143262 -0.570984,0.861417 -1.465689,1.460689 -2.515665,1.684989 -0.307824,0.06576 -1.009594,0.08485 -1.310863,0.03567 z m 2.965228,-3.44534 c 0.164247,-0.09625 0.209146,-0.180479 0.209146,-0.392322 0,-0.165966 -0.0059,-0.18798 -0.07213,-0.271271 -0.03968,-0.04986 -0.118881,-0.114531 -0.176017,-0.143721 l -0.103883,-0.05308 -2.253625,5.37e-4 c -2.5261669,5.81e-4 -2.357206,-0.01098 -2.5182074,0.172384 -0.2486711,0.283221 -0.081443,0.69901 0.2999664,0.745825 0.05838,0.0072 1.098104,0.01015 2.310494,0.0066 l 2.204345,-0.0064 z m 4.9703,-0.871356 c -0.06695,-0.01879 -0.427854,-0.168995 -0.802018,-0.333797 -0.374164,-0.164801 -1.057129,-0.461699 -1.5177,-0.659774 l -0.8374,-0.360135 -0.0074,-0.10004 c -0.0083,-0.111743 0.08432,-0.43559 0.159363,-0.557103 l 0.04678,-0.07574 0.207308,0.09142 c 0.114019,0.05028 0.536371,0.234503 0.938559,0.409379 0.402188,0.174875 1.011684,0.441154 1.354436,0.59173 0.342751,0.150576 0.640978,0.273775 0.662726,0.273775 0.06908,0 0.109717,-0.07192 0.306582,-0.542541 0.431813,-1.032278 0.653144,-1.55328 1.803768,-4.245975 0.779102,-1.823377 1.173767,-2.7628107 1.163715,-2.7701482 -0.01383,-0.01009 -1.209747,-0.5143552 -1.339319,-0.5647283 -0.257777,-0.1002132 -0.424141,-0.3537843 -0.394777,-0.6017153 0.0078,-0.065692 0.149976,-0.4271767 0.357672,-0.90926 C 21.892574,7.0226548 22.042899,6.6500065 22.037012,6.634666 22.031112,6.619323 21.953752,6.577792 21.865073,6.54237 21.776393,6.506946 21.17309,6.2544615 20.524399,5.9812909 18.355173,5.0678058 18.516078,5.129508 18.464676,5.1914429 18.450886,5.2080559 18.264782,5.6406175 18.051111,6.1526845 17.535702,7.3878695 17.38171,7.7535923 17.34125,7.8385564 17.31139,7.9012644 17.30738,7.8039474 17.30604,6.9839086 l -0.0015,-0.925414 0.17853,-0.4309392 c 0.09819,-0.2370167 0.217609,-0.5264741 0.265373,-0.6432385 0.06832,-0.1670105 0.114557,-0.2404146 0.216755,-0.3440977 0.178324,-0.1809137 0.340571,-0.2424056 0.60134,-0.2279095 0.10454,0.00581 0.225534,0.027831 0.271271,0.049364 0.0986,0.046428 2.394736,1.0095184 3.275765,1.3739888 0.665707,0.275394 0.782881,0.3463524 0.877186,0.531205 0.04555,0.089282 0.709393,1.9851536 0.882871,2.5213881 0.128186,0.3962324 0.133508,0.371872 -0.308197,1.4107924 -0.202392,0.476037 -0.469224,1.104358 -0.59296,1.396269 -0.123737,0.291911 -0.30226,0.711201 -0.396718,0.931756 -0.427316,0.997765 -1.377195,3.232139 -1.793795,4.219497 -0.209216,0.495848 -0.276662,0.631854 -0.359346,0.724632 -0.197502,0.221611 -0.541956,0.324797 -0.821947,0.246224 z M 23.031399,8.6700595 C 23.025799,8.6538445 22.921237,8.3460093 22.79912,7.9859859 22.677003,7.6259625 22.571676,7.3316661 22.56506,7.3319945 c -0.01434,7.159e-4 -0.395546,0.8766561 -0.414658,0.9528029 -0.01228,0.048942 0.01841,0.066014 0.41878,0.2329325 0.237619,0.099066 0.441132,0.1805012 0.45225,0.1809674 0.01112,4.475e-4 0.0156,-0.012421 0.01,-0.028636 z M 4.4250744,17.705421 C 4.2498207,17.63822 4.0287387,17.416925 3.9587772,17.238674 3.930772,17.167318 3.7328713,16.656471 3.5190006,16.10346 3.3051303,15.550448 3.0931353,15.003779 3.0479015,14.888639 3.0026673,14.773499 2.8156827,14.291849 2.6323806,13.818305 2.2503611,12.831393 2.2924253,12.939559 1.5591084,11.058421 1.2531276,10.273505 0.78858524,9.0899394 0.52679254,8.4282749 L 0.05080519,7.2252487 0.05237122,7.0129498 C 0.05353457,6.8531677 0.06680559,6.7673808 0.10599181,6.6661568 0.1661978,6.5106262 0.33023145,6.3171664 0.47080053,6.2359043 0.52443722,6.2048968 0.93984497,6.0310772 1.3939284,5.8496373 1.8480119,5.6681978 2.4477558,5.4272822 2.726693,5.3142695 3.0056298,5.2012564 3.7380607,4.9062391 4.3543169,4.6586749 L 5.4747826,4.2085585 5.6755465,4.2082587 c 0.2461256,-3.669e-4 0.3582081,0.046883 0.8135524,0.342967 0.1686593,0.1096699 0.4738392,0.3036143 0.6781768,0.4309885 l 0.3715225,0.2315892 v 0.421901 c 0,0.2320452 -0.00606,0.4219005 -0.013463,0.4219005 -0.013634,0 -1.040287,-0.6263906 -1.2898163,-0.7869558 -0.0746,-0.048002 -0.1356356,-0.082008 -0.1356356,-0.075566 0,0.00644 0.1014294,0.2801019 0.225398,0.6081352 0.1239687,0.3280333 0.2297852,0.6096928 0.2351473,0.6259102 0.00536,0.016215 0.020613,0.029486 0.033889,0.029486 0.013276,0 0.2217322,-0.079612 0.4632345,-0.1769159 0.2415022,-0.097304 0.4488354,-0.1769154 0.46074,-0.1769154 0.012524,0 0.018922,0.1650502 0.015177,0.3917293 l -0.00647,0.391729 -0.4128028,0.1670311 C 6.7653967,7.1964072 6.6748284,7.2238482 6.5300266,7.232269 6.3800989,7.2409896 6.3424429,7.2342825 6.2290745,7.1788363 6.1578042,7.1439674 6.0732012,7.0809685 6.041068,7.0388395 6.0089329,6.9967087 5.9200649,6.7985042 5.8435802,6.598381 5.7670951,6.3982579 5.6250553,6.0275295 5.5279356,5.7745401 5.4308164,5.5215508 5.3367044,5.2734166 5.3187975,5.2231307 5.300891,5.1728449 5.2739552,5.1269874 5.25894,5.1212257 5.2296462,5.1099861 5.062791,5.1747152 3.6938314,5.7283967 3.2073131,5.9251707 2.3744721,6.2605608 1.843073,6.4737085 1.311674,6.6868557 0.85788542,6.8784507 0.83465396,6.8994749 0.74433133,6.9812157 0.72898419,6.9348181 1.4456729,8.7467231 1.8017807,9.6470223 3.0600195,12.87414 3.4230595,13.818305 c 0.1471625,0.382727 0.391191,1.009009 0.5422856,1.391736 0.1510947,0.382728 0.3597196,0.918782 0.4636112,1.191232 0.1038912,0.27245 0.2041474,0.519247 0.2227918,0.548439 0.022725,0.03559 0.057065,0.05307 0.1041923,0.05307 0.038663,0 0.5346658,-0.190366 1.1022304,-0.423037 2.1321868,-0.874081 2.137561,-0.876149 2.1690652,-0.83476 0.077913,0.102359 0.094204,0.449899 0.031361,0.669095 -0.023343,0.08143 -0.0335,0.08739 -0.3957218,0.232247 -0.2044686,0.08177 -0.4566808,0.18418 -0.5604713,0.227582 -0.1752715,0.07329 -1.323142,0.543527 -1.9050009,0.780398 -0.2307096,0.09392 -0.2714654,0.103204 -0.4481862,0.102086 -0.1386321,-8.95e-4 -0.2316156,-0.0155 -0.3241365,-0.05098 z M 8.5358358,15.211097 C 8.316479,15.132147 8.1451316,14.972412 8.0412838,14.75006 L 7.9751819,14.608528 V 8.5462188 2.4839089 L 8.0367499,2.354171 C 8.1280654,2.1617496 8.2709866,2.0144439 8.4535908,1.9245432 l 0.1574777,-0.07753 2.7250055,-0.00699 c 1.997611,-0.00513 2.749881,2.286e-4 2.818194,0.020054 0.05125,0.014877 0.126474,0.049867 0.167155,0.077758 0.06249,0.042842 0.993699,1.0032234 2.154067,2.2215506 0.160282,0.1682884 0.319506,0.3590538 0.353831,0.4239225 l 0.06241,0.1179439 v 4.9418437 4.9418431 l -0.06322,0.134882 c -0.0842,0.179648 -0.257763,0.360642 -0.431762,0.450249 -0.128879,0.06637 -0.16655,0.07397 -0.410097,0.08275 l -0.268181,0.0097 -0.222886,-0.220829 c -0.122587,-0.121459 -0.232742,-0.238639 -0.244789,-0.260404 -0.07169,-0.129509 0.132905,-0.222882 0.553632,-0.25267 0.2401,-0.017 0.260944,-0.0225 0.312551,-0.0825 l 0.05529,-0.06428 V 9.830485 5.2791711 L 15.163854,5.2789353 14.155435,5.278699 14.036179,5.2231674 C 13.97032,5.1925 13.877666,5.1217725 13.829246,5.0652042 13.675068,4.8850932 13.671865,4.8562316 13.671865,3.6472656 V 2.5664644 H 11.241152 8.8104382 l -0.0579,0.057899 -0.057899,0.0579 v 5.8602641 c 0,5.6468295 0.00157,5.8622085 0.043231,5.9136535 0.037124,0.04585 0.07461,0.05579 0.2653735,0.07038 0.2168963,0.01659 0.4112023,0.07247 0.3952377,0.113665 -0.00438,0.01132 -0.083001,0.08505 -0.1747006,0.163848 -0.091699,0.0788 -0.2279377,0.212991 -0.3027512,0.298205 -0.1532638,0.17457 -0.1808444,0.182361 -0.385194,0.108813 z M 15.790922,4.524732 C 15.783221,4.50202 14.688193,3.3529433 14.499048,3.169093 L 14.403118,3.075848 V 3.8118863 4.547925 h 0.697833 c 0.446887,0 0.695007,-0.00834 0.689972,-0.023191 z"
       id="path1" /></g></svg>
