<?xml version="1.0" encoding="UTF-8" standalone="no"?>
<!-- Created with Inkscape (http://www.inkscape.org/) -->

<svg
   width="24"
   height="24"
   viewBox="0 0 24 24"
   version="1.1"
   id="svg1"
   inkscape:version="1.4.3 (0d15f75, 2025-12-25)"
   sodipodi:docname="wallet.svg"
   xml:space="preserve"
   xmlns:inkscape="http://www.inkscape.org/namespaces/inkscape"
   xmlns:sodipodi="http://sodipodi.sourceforge.net/DTD/sodipodi-0.dtd"
   xmlns="http://www.w3.org/2000/svg"
   xmlns:svg="http://www.w3.org/2000/svg"><sodipodi:namedview
     id="namedview1"
     pagecolor="#ffffff"
     bordercolor="#000000"
     borderopacity="0.25"
     inkscape:showpageshadow="2"
     inkscape:pageopacity="0.0"
     inkscape:pagecheckerboard="0"
     inkscape:deskcolor="#d1d1d1"
     inkscape:document-units="px"
     inkscape:zoom="26.666667"
     inkscape:cx="12"
     inkscape:cy="12"
     inkscape:window-width="1920"
     inkscape:window-height="1010"
     inkscape:window-x="1913"
     inkscape:window-y="-6"
     inkscape:window-maximized="1"
     inkscape:current-layer="layer1" /><defs
     id="defs1" /><g
     inkscape:label="Vrstva 1"
     inkscape:groupmode="layer"
     id="layer1"><path
       style="fill:#000000;stroke-width:0.0274962"
       d="M 3.4527451,23.920789 C 2.704905,23.810055 2.0588571,23.472003 1.5279238,22.913611 1.1872195,22.555284 0.94412798,22.160774 0.80063021,21.733303 0.63987692,21.254428 0.64987617,21.903209 0.65087156,12.017407 0.65152002,6.3987453 0.66179811,2.8680089 0.6779772,2.7690084 0.78276837,2.1280022 1.0595377,1.5863661 1.5392362,1.0835306 2.0066301,0.59359616 2.6151387,0.26042053 3.301777,0.11849203 3.5063046,0.07621567 4.1159999,0.07158566 10.673768,0.06252991 c 5.052141,-0.0069709 7.236314,-9.7269e-4 7.446616,0.02026439 0.633325,0.06414568 1.144218,0.30602136 1.62283,0.76830543 0.340695,0.32907407 0.59126,0.73721497 0.721934,1.17595667 0.06433,0.2159892 0.07469,0.3120326 0.09584,0.8883355 0.01303,0.3553886 0.01611,0.7912674 0.0068,0.9686245 -0.01371,0.2623087 -0.0097,0.3245349 0.02137,0.3335744 0.02104,0.0061 0.170457,0.042351 0.33207,0.080532 0.541283,0.1278764 1.070637,0.42883 1.480652,0.8417922 0.392649,0.39547 0.637038,0.7903401 0.796689,1.2872487 0.159008,0.4949081 0.150945,0.087698 0.150945,7.6242093 0,7.570784 0.0075,7.19671 -0.154084,7.682572 -0.34787,1.045973 -1.178881,1.833991 -2.244211,2.128107 l -0.268842,0.07422 -8.537585,0.0037 c -4.6956723,0.0019 -8.607097,-0.0066 -8.6920615,-0.01919 z M 20.82102,22.643047 c 0.654316,-0.246772 1.092026,-0.717009 1.284016,-1.379427 l 0.06215,-0.214449 v -6.9703 -6.9702985 L 22.103862,6.8898404 C 21.953682,6.3711403 21.634374,5.9577988 21.163575,5.6726546 21.051872,5.6050007 20.832277,5.5160223 20.61491,5.4503397 20.47411,5.4077942 19.799581,5.4031188 11.81485,5.3893585 3.6327901,5.3752545 3.1563339,5.3718177 2.9639293,5.3252971 2.6560436,5.2508636 2.334203,5.1268553 2.0947396,4.9903901 1.9762562,4.9228692 1.8750802,4.8676269 1.8699022,4.8676269 c -0.00519,0 -0.00613,3.6408481 -0.00227,8.0907731 l 0.0073,8.090771 0.062586,0.201784 c 0.1962792,0.63281 0.6199313,1.101579 1.2115183,1.34053 0.3860414,0.155928 -0.2643869,0.145751 8.9543985,0.140132 l 8.496341,-0.0052 z M 14.413247,18.97568 C 14.367877,18.96436 14.297999,18.93753 14.257957,18.91604 14.152407,18.85939 10.310066,15.031644 10.15749,14.831147 9.8528921,14.430872 9.6635871,14.049493 9.5310678,13.56914 9.4404487,13.240672 9.4246976,12.540639 9.4998444,12.181629 c 0.1520088,-0.726188 0.5332876,-1.358343 1.0869716,-1.802188 0.267516,-0.214442 0.78713,-0.4797918 1.104298,-0.563923 0.333474,-0.088456 0.934448,-0.1034846 1.278576,-0.031969 0.513512,0.1067106 0.9987,0.353975 1.397682,0.712288 l 0.189515,0.170198 0.09315,-0.09822 c 0.274752,-0.289677 0.79911,-0.5940701 1.27685,-0.741222 0.231167,-0.071204 0.277,-0.075792 0.754792,-0.075542 0.589181,3.048e-4 0.760884,0.034978 1.197508,0.2418076 0.741699,0.3513454 1.257267,0.9017224 1.552826,1.6576644 0.38514,0.985066 0.244846,2.072846 -0.388382,3.011379 -0.144986,0.214886 -0.485934,0.570029 -2.140211,2.229305 -1.33839,1.342436 -2.002932,1.990271 -2.077738,2.025501 -0.133297,0.06277 -0.301035,0.08676 -0.412443,0.05897 z m 3.591578,-4.879906 c 0.340153,-0.447753 0.476771,-0.832808 0.474261,-1.336723 -0.0013,-0.279513 -0.01158,-0.345682 -0.08771,-0.570214 -0.111418,-0.328556 -0.259487,-0.559641 -0.512724,-0.800194 -0.545485,-0.518155 -1.309245,-0.624759 -1.995782,-0.278565 -0.230418,0.116191 -0.408813,0.269814 -0.715466,0.616118 -0.15825,0.178712 -0.32152,0.33551 -0.378691,0.363673 -0.119926,0.05908 -0.340714,0.06518 -0.464748,0.01284 -0.05051,-0.0213 -0.215403,-0.176514 -0.379765,-0.35745 -0.338772,-0.37294 -0.507271,-0.517371 -0.757071,-0.648941 -0.248833,-0.13106 -0.455977,-0.179519 -0.767358,-0.179519 -0.704131,0 -1.297148,0.374359 -1.62712,1.027164 -0.23684,0.468551 -0.250026,1.064824 -0.03553,1.606596 0.172516,0.435746 0.367417,0.655817 2.170523,2.450852 l 1.613557,1.606337 1.649459,-1.647582 c 0.909715,-0.908681 1.723325,-1.744815 1.814168,-1.864395 z M 19.334042,3.3278385 C 19.333069,2.5701062 19.329146,2.5058341 19.274144,2.351721 19.099076,1.8610506 18.750755,1.5123184 18.29136,1.3677799 l -0.193614,-0.060916 -7.231515,9.727e-4 -7.231515,9.727e-4 -0.2199707,0.061425 C 2.6767035,1.5763279 2.1616445,2.0641062 1.946855,2.7603742 1.8700935,3.0091981 1.8733845,3.0666906 1.974447,3.2429583 2.1458772,3.541918 2.5249735,3.8520473 2.9081844,4.0068348 3.2756246,4.1552511 2.8333715,4.1481245 11.388647,4.1434816 l 7.946416,-0.00431 z"
       id="path1" /></g></svg>
