<?xml version="1.0" encoding="UTF-8" standalone="no"?>
<!-- Created with Inkscape (http://www.inkscape.org/) -->

<svg
   width="24"
   height="24"
   viewBox="0 0 24 24"
   version="1.1"
   id="svg1"
   xml:space="preserve"
   inkscape:version="1.4.3 (0d15f75, 2025-12-25)"
   sodipodi:docname="zoom-in.svg"
   xmlns:inkscape="http://www.inkscape.org/namespaces/inkscape"
   xmlns:sodipodi="http://sodipodi.sourceforge.net/DTD/sodipodi-0.dtd"
   xmlns="http://www.w3.org/2000/svg"
   xmlns:svg="http://www.w3.org/2000/svg"><sodipodi:namedview
     id="namedview1"
     pagecolor="#ffffff"
     bordercolor="#000000"
     borderopacity="0.25"
     inkscape:showpageshadow="2"
     inkscape:pageopacity="0.0"
     inkscape:pagecheckerboard="0"
     inkscape:deskcolor="#d1d1d1"
     inkscape:document-units="px"
     inkscape:zoom="17.841537"
     inkscape:cx="17.935675"
     inkscape:cy="17.263087"
     inkscape:window-width="1920"
     inkscape:window-height="1010"
     inkscape:window-x="1913"
     inkscape:window-y="-6"
     inkscape:window-maximized="1"
     inkscape:current-layer="layer1" /><defs
     id="defs1" /><g
     inkscape:label="Vrstva 1"
     inkscape:groupmode="layer"
     id="layer1"><g
       id="g4"
       transform="matrix(0.04690681,0,0,0.04690681,25.08765,13.077107)"><path
         style="fill:#000000"
         d="m -50.5,220.58658 c -1.65,-0.73433 -28.814069,-27.28006 -60.3646,-58.99051 l -57.3646,-57.65537 -4.6354,4.31337 c -24.75866,23.03859 -65.97344,43.66674 -101.1354,50.61864 -29.74566,5.88104 -61.69571,5.55449 -89.80097,-0.91782 C -392.22925,151.40818 -421.1842,137.9499 -445.5,119.98113 -482.84837,92.381612 -507.85368,57.56378 -523.45063,11.44132 -536.26855,-26.46315 -536.9016,-74.179199 -525.10159,-113 c 25.69897,-84.54698 98.60725,-144.94485 185.99408,-154.07916 14.38588,-1.50371 46.34545,-0.6593 58.60751,1.54849 43.88935,7.90229 83.32456,27.88312 114.40004,57.96362 33.99065,32.90234 55.45117,73.82654 63.74935,121.56705 1.41753,8.155218 1.8188,15.636189 1.79689,33.5 -0.0298,24.341632 -0.85789,31.525482 -5.93615,51.5 -5.50249,21.643193 -17.51063,48.710863 -29.92543,67.455189 l -6.59355,9.955189 15.23852,15.544811 c 8.38118,8.549651 34.250012,34.670531 57.486284,58.046411 23.236272,23.37587 43.04343,43.62587 44.015906,45 1.263591,1.78547 1.76814,4.39807 1.76814,9.15558 0,5.93026 -0.335344,7.07679 -3.071102,10.5 -1.689107,2.11355 -4.614107,4.62962 -6.5,5.59127 -4.060338,2.07042 -12.161848,2.23716 -16.428898,0.33813 z m -236.55942,-96.72809 c 37.88175,-6.1929 70.12044,-22.91167 98.06286,-50.854755 24.21731,-24.217887 39.27363,-50.644725 47.53051,-83.425507 18.22398,-72.351354 -10.93671,-147.679108 -73.44355,-189.719038 -23.82937,-16.02681 -47.58689,-25.27921 -75.5904,-29.43878 -15.51769,-2.30496 -45.69859,-1.55859 -60.87857,1.50552 -43.77511,8.83611 -83.00893,33.11444 -109.27733,67.62204 -40.7238,53.497 -48.22004,122.091585 -19.88432,181.95203 14.98098,31.647962 35.58017,55.413987 64.54022,74.462381 39.01353,25.661039 83.60296,35.307899 128.94058,27.896109 z"
         id="path4" /><path
         style="fill:#000000"
         d="m -322.34481,45.541351 c -4.03088,-1.437205 -8.04018,-4.662188 -9.99701,-8.041351 -0.78927,-1.362945 -1.31744,-13.148469 -1.65818,-37 l -0.5,-35 -35.5,-0.5 c -24.34524,-0.342891 -36.12844,-0.865733 -37.5,-1.663944 -10.4443,-6.078285 -12.74641,-20.163013 -4.68638,-28.672112 1.47751,-1.559831 3.58638,-3.359831 4.68638,-4 1.37156,-0.798211 13.15476,-1.321053 37.5,-1.663944 l 35.5,-0.5 0.5,-35 c 0.53641,-37.54864 0.4874,-37.208 6.02293,-41.86584 7.95528,-6.69392 19.27176,-5.35621 25.67538,3.03506 l 2.80169,3.67133 0.5,35.07973 0.5,35.07972 36.07535,0.5 36.07535,0.5 3.69172,2.5 c 3.83919,2.599863 8.65758,10.696096 8.65758,14.547121 0,3.029046 -1.95992,8.456134 -4.23179,11.717968 -4.24533,6.095224 -4.85158,6.187458 -44.26821,6.734911 l -36,0.5 -0.5,35 c -0.35737,25.015723 -0.85015,35.611077 -1.72746,37.142139 -1.93735,3.381031 -6.99833,7.187597 -11.05359,8.313855 -4.71501,1.309484 -5.8535,1.264797 -10.56376,-0.414643 z"
         id="path3" /></g></g></svg>
