<?xml version="1.0" encoding="utf-8"?>
<!-- Generator: Adobe Illustrator 16.0.0, SVG Export Plug-In . SVG Version: 6.00 Build 0)  -->
<!DOCTYPE svg PUBLIC "-//W3C//DTD SVG 1.1//EN" "http://www.w3.org/Graphics/SVG/1.1/DTD/svg11.dtd">
<svg version="1.1" id="Vrstva_1" xmlns="http://www.w3.org/2000/svg" xmlns:xlink="http://www.w3.org/1999/xlink" x="0px" y="0px"
	 width="24px" height="24px" viewBox="0 0 24 24" enable-background="new 0 0 24 24" xml:space="preserve">
<polygon fill="#292D32" points="9.078,17.047 6.161,11.995 9.078,6.941 14.914,6.941 17.83,11.995 14.914,17.047 "/>
<path fill="#292D32" d="M11.81,3.28c-0.54-0.55-1.09-1.11-1.65-1.65c-0.12-0.11-0.29-0.18-0.45-0.2C9.47,1.41,9.29,1.55,9.19,1.77
	C9.08,2.02,9.15,2.24,9.33,2.42c0.21,0.23,0.45,0.43,0.68,0.65c0,0.01,0.07,0.05,0.07,0.07v0.03H9.14c-0.75,0-1.6,0.48-1.98,1.12
	L5.53,7.01L3.752,9.992c0,0-0.002,0.003-0.002,0.003l-0.024,0.041c-0.036,0.067-0.09,0.217-0.039,0.467
	c0.039,0.084,0.095,0.162,0.173,0.217l0.07,0.04c0.04,0.02,0.08,0.04,0.13,0.05c0.27,0.06,0.48-0.04,0.66-0.33
	c0.14-0.23,0.29-0.46,0.44-0.7L8.1,4.86c0.06-0.1,0.14-0.19,0.25-0.27C8.58,4.4,8.89,4.27,9.14,4.27h0.91L9.34,5.05
	c0,0-0.136,0.166-0.175,0.381C9.163,5.57,9.197,5.707,9.31,5.82c0.23,0.24,0.57,0.24,0.84-0.02c0.05-0.05,0.1-0.1,0.15-0.15
	c0.51-0.5,1.01-1,1.5-1.5C12.07,3.87,12.08,3.56,11.81,3.28z"/>
<path fill="#292D32" d="M12.192,20.703c0.541,0.549,1.09,1.109,1.65,1.649c0.12,0.11,0.29,0.18,0.45,0.2
	c0.239,0.02,0.42-0.12,0.521-0.34c0.109-0.25,0.039-0.471-0.141-0.65c-0.21-0.23-0.449-0.43-0.68-0.65c0-0.01-0.07-0.05-0.07-0.07
	v-0.029h0.939c0.75,0,1.601-0.48,1.98-1.12l1.631-2.72l1.777-2.982c0,0,0.002-0.003,0.002-0.004l0.023-0.04
	c0.037-0.067,0.091-0.218,0.039-0.468c-0.039-0.084-0.094-0.161-0.172-0.217l-0.07-0.039c-0.041-0.02-0.08-0.04-0.131-0.051
	c-0.27-0.06-0.479,0.041-0.66,0.33c-0.139,0.23-0.289,0.461-0.439,0.701l-2.939,4.92c-0.061,0.1-0.141,0.189-0.25,0.27
	c-0.23,0.189-0.541,0.32-0.791,0.32h-0.909l0.71-0.78c0,0,0.137-0.166,0.175-0.381c0.002-0.14-0.032-0.276-0.146-0.39
	c-0.229-0.24-0.569-0.24-0.84,0.021c-0.05,0.05-0.1,0.1-0.149,0.149c-0.511,0.5-1.011,1-1.5,1.5
	C11.933,20.112,11.923,20.422,12.192,20.703z"/>
<path fill="#292D32" d="M21.922,8.51c-0.07-0.23-0.25-0.36-0.5-0.38c-0.271-0.02-0.45,0.12-0.561,0.34
	c-0.15,0.28-0.27,0.57-0.4,0.86c0,0,0,0.01-0.01,0.01l-1.39-2.33l-1.63-2.72c-0.01-0.01-0.01-0.02-0.021-0.03
	c-0.38-0.61-1.189-1.07-1.92-1.09h-0.04l-1.16,0.01h-0.05c0,0-0.489,0.006-0.52,0.46v0.08c0.01,0.05,0.01,0.09,0.029,0.14
	c0.091,0.26,0.28,0.39,0.62,0.4c0.271,0,0.551,0.01,0.83,0.01h0.25c0.25,0,0.561,0.13,0.79,0.32c0.11,0.08,0.19,0.17,0.25,0.27
	l2.91,4.87l-0.06,0.02l-0.971-0.42c0,0-0.199-0.07-0.42-0.04c-0.13,0.04-0.24,0.12-0.319,0.26c-0.15,0.3-0.04,0.62,0.29,0.79
	c0.069,0.03,0.13,0.06,0.189,0.09c0.64,0.33,1.28,0.64,1.91,0.94c0.35,0.16,0.64,0.08,0.82-0.27c0.35-0.69,0.699-1.39,1.029-2.1
	C21.941,8.86,21.951,8.67,21.922,8.51z"/>
<path fill="#292D32" d="M2.137,15.534c0.073,0.228,0.253,0.355,0.503,0.373c0.271,0.019,0.449-0.123,0.559-0.345
	c0.147-0.281,0.264-0.573,0.392-0.861c0,0,0-0.01,0.01-0.012l1.409,2.318l1.653,2.705c0.01,0.013,0.01,0.022,0.021,0.032
	c0.385,0.606,1.198,1.059,1.928,1.073l0.04-0.002l1.161-0.02h0.05c0,0,0.489-0.012,0.517-0.464l-0.002-0.08
	c-0.01-0.05-0.009-0.09-0.029-0.141c-0.094-0.258-0.284-0.387-0.625-0.394c-0.271,0.003-0.551-0.006-0.83-0.004l-0.25,0.002
	c-0.25,0.003-0.562-0.124-0.793-0.312c-0.111-0.08-0.192-0.17-0.252-0.27l-2.951-4.845l0.06-0.021l0.974,0.411
	c0,0,0.2,0.068,0.42,0.038c0.129-0.041,0.239-0.123,0.317-0.263c0.147-0.301,0.035-0.62-0.297-0.787
	c-0.07-0.03-0.131-0.061-0.19-0.089c-0.642-0.324-1.285-0.63-1.917-0.924c-0.352-0.157-0.641-0.076-0.818,0.277
	c-0.345,0.692-0.688,1.395-1.012,2.106C2.115,15.183,2.107,15.372,2.137,15.534z"/>
</svg>
