<?xml version="1.0" encoding="utf-8"?>
<!-- Generator: Adobe Illustrator 16.0.0, SVG Export Plug-In . SVG Version: 6.00 Build 0)  -->
<!DOCTYPE svg PUBLIC "-//W3C//DTD SVG 1.1//EN" "http://www.w3.org/Graphics/SVG/1.1/DTD/svg11.dtd">
<svg version="1.1" id="Vrstva_1" xmlns="http://www.w3.org/2000/svg" xmlns:xlink="http://www.w3.org/1999/xlink" x="0px" y="0px"
	 width="24px" height="24px" viewBox="0 0 24 24" enable-background="new 0 0 24 24" xml:space="preserve">
<g>
	<g>
		<rect x="20.604" y="6.987" fill="#292D32" width="1.391" height="10.025"/>
	</g>
	<circle fill="#292D32" cx="3.356" cy="12" r="1.351"/>
	<path fill="#292D32" d="M19.561,11.768c-0.034-0.072-0.076-0.147-0.137-0.201L17.545,9.69c-0.242-0.249-0.639-0.249-0.882,0
		c-0.244,0.24-0.244,0.635,0,0.878l0.786,0.778h-6.362H5.693v1.314h11.761l-0.779,0.78c-0.246,0.242-0.246,0.64,0,0.876
		c0.119,0.125,0.279,0.183,0.439,0.183s0.313-0.058,0.436-0.183l1.878-1.881c0.06-0.051,0.109-0.117,0.137-0.196
		c0.039-0.068,0.052-0.153,0.052-0.238C19.608,11.925,19.591,11.842,19.561,11.768z"/>
</g>
</svg>
