<?xml version="1.0" encoding="utf-8"?>
<!-- Generator: Adobe Illustrator 16.0.0, SVG Export Plug-In . SVG Version: 6.00 Build 0)  -->
<!DOCTYPE svg PUBLIC "-//W3C//DTD SVG 1.1//EN" "http://www.w3.org/Graphics/SVG/1.1/DTD/svg11.dtd">
<svg version="1.1" id="Vrstva_1" xmlns="http://www.w3.org/2000/svg" xmlns:xlink="http://www.w3.org/1999/xlink" x="0px" y="0px"
	 width="24px" height="24px" viewBox="0 0 24 24" enable-background="new 0 0 24 24" xml:space="preserve">
<g>
	<path fill-rule="evenodd" clip-rule="evenodd" fill="#292D32" d="M20.93,10.003c-0.024-0.014-0.048-0.028-0.072-0.042
		c0-0.087,0-0.174,0-0.262c0-1.56,0.009-3.12-0.008-4.679c-0.004-0.301-0.053-0.625-0.173-0.896
		c-0.315-0.713-0.925-0.983-1.678-0.982c-1.714,0-3.428,0-5.143,0c-0.088,0-0.177,0.003-0.264,0.019
		c-0.312,0.059-0.509,0.373-0.43,0.68c0.073,0.29,0.28,0.437,0.63,0.437c1.729,0.002,3.457,0,5.186,0.001
		c0.538,0,0.741,0.207,0.741,0.75c0.001,1.581,0.001,3.163,0,4.745c0,0.069-0.007,0.138-0.011,0.209
		c-0.028-0.005-0.037-0.004-0.041-0.008c-0.222-0.215-0.438-0.435-0.663-0.646c-0.272-0.255-0.597-0.257-0.848-0.013
		c-0.216,0.21-0.216,0.564,0.026,0.813c0.555,0.568,1.116,1.131,1.685,1.686c0.266,0.258,0.58,0.251,0.845-0.009
		c0.558-0.545,1.112-1.094,1.655-1.653c0.1-0.104,0.17-0.261,0.196-0.404c0.044-0.235-0.098-0.443-0.318-0.551
		c-0.253-0.124-0.479-0.061-0.668,0.122C21.354,9.539,21.146,9.775,20.93,10.003z M14.029,19.717
		c-0.01-0.019-0.021-0.036-0.032-0.054c0.22-0.215,0.44-0.427,0.656-0.646c0.216-0.221,0.263-0.45,0.151-0.682
		c-0.188-0.394-0.632-0.457-0.969-0.126c-0.546,0.536-1.086,1.078-1.623,1.623c-0.293,0.297-0.287,0.612,0.008,0.908
		c0.487,0.491,0.978,0.979,1.467,1.468c0.078,0.077,0.154,0.159,0.24,0.228c0.236,0.187,0.535,0.178,0.746-0.015
		c0.217-0.198,0.257-0.516,0.069-0.76c-0.135-0.173-0.301-0.321-0.453-0.479c-0.093-0.096-0.187-0.189-0.323-0.329
		c0.158,0,0.246,0,0.334,0c1.559,0,3.118,0,4.677,0.001c0.438,0.001,0.848-0.08,1.203-0.351c0.499-0.381,0.678-0.902,0.678-1.508
		c-0.002-1.714,0-3.428-0.002-5.142c0-0.096,0.017-0.21-0.028-0.282c-0.089-0.141-0.19-0.312-0.33-0.375
		c-0.402-0.181-0.775,0.104-0.776,0.57c-0.004,1.736-0.001,3.473-0.002,5.209c0,0.537-0.206,0.74-0.751,0.74
		c-1.573,0.001-3.147,0.001-4.722,0.001C14.175,19.717,14.103,19.717,14.029,19.717z M4.283,14.022
		c0.022-0.012,0.043-0.023,0.065-0.035c0.213,0.223,0.423,0.448,0.641,0.666c0.152,0.153,0.334,0.242,0.558,0.188
		c0.483-0.117,0.61-0.637,0.24-1.014c-0.521-0.53-1.049-1.053-1.575-1.578c-0.345-0.343-0.642-0.341-0.99,0.004
		c-0.512,0.507-1.023,1.016-1.532,1.526c-0.072,0.072-0.141,0.153-0.189,0.241c-0.15,0.271-0.057,0.589,0.207,0.747
		c0.25,0.151,0.503,0.118,0.742-0.115c0.218-0.212,0.425-0.437,0.637-0.657c0.021,0.011,0.041,0.021,0.062,0.032
		c0,0.085,0,0.17,0,0.254c0,1.56-0.009,3.119,0.007,4.678c0.004,0.309,0.054,0.64,0.177,0.918c0.316,0.714,0.929,0.978,1.681,0.977
		c1.706-0.001,3.412,0,5.119-0.001c0.088,0,0.178-0.002,0.264-0.017c0.345-0.06,0.543-0.399,0.43-0.732
		c-0.089-0.263-0.282-0.387-0.621-0.387c-1.729-0.001-3.457,0-5.186-0.001c-0.525,0-0.734-0.209-0.734-0.735
		c0-1.589,0-3.178,0-4.767C4.283,14.149,4.283,14.086,4.283,14.022z M10.009,3.068C9.993,3.093,9.979,3.116,9.965,3.141
		c-0.088,0-0.176,0-0.263,0c-1.56,0-3.118,0.001-4.678-0.001C4.58,3.139,4.161,3.223,3.804,3.504
		c-0.482,0.38-0.661,0.897-0.659,1.495c0.003,1.714,0,3.428,0.002,5.142c0,0.088,0.004,0.177,0.019,0.264
		c0.038,0.215,0.168,0.354,0.376,0.417c0.404,0.124,0.739-0.152,0.739-0.616c0.002-1.721,0.001-3.442,0.001-5.164
		c0-0.568,0.198-0.763,0.773-0.763c1.566,0,3.132,0,4.7,0c0.076,0,0.152,0,0.229,0c-0.198,0.268-0.42,0.479-0.634,0.699
		c-0.267,0.273-0.279,0.6-0.044,0.846c0.231,0.241,0.574,0.241,0.844-0.023c0.557-0.545,1.108-1.097,1.653-1.654
		c0.27-0.273,0.271-0.59,0.007-0.862c-0.544-0.558-1.092-1.113-1.653-1.654c-0.112-0.107-0.292-0.18-0.447-0.198
		c-0.241-0.027-0.416,0.118-0.517,0.34C9.082,2.02,9.15,2.239,9.326,2.42C9.544,2.645,9.78,2.853,10.009,3.068z"/>
	<path fill-rule="evenodd" clip-rule="evenodd" fill="#292D32" d="M20.93,10.003c0.216-0.228,0.424-0.464,0.648-0.682
		c0.188-0.183,0.415-0.246,0.668-0.122c0.221,0.108,0.362,0.316,0.318,0.551c-0.026,0.143-0.097,0.301-0.196,0.404
		c-0.543,0.559-1.098,1.107-1.655,1.653c-0.265,0.26-0.579,0.267-0.845,0.009c-0.568-0.555-1.13-1.118-1.685-1.686
		c-0.242-0.249-0.242-0.602-0.026-0.813c0.251-0.244,0.575-0.243,0.848,0.013c0.225,0.211,0.441,0.43,0.663,0.646
		c0.004,0.004,0.013,0.002,0.041,0.008c0.004-0.071,0.011-0.141,0.011-0.209c0.001-1.582,0.001-3.164,0-4.745
		c0-0.544-0.203-0.75-0.741-0.75c-1.729-0.001-3.457,0.001-5.186-0.001c-0.35,0-0.557-0.147-0.63-0.437
		c-0.079-0.308,0.118-0.622,0.43-0.68c0.087-0.016,0.176-0.019,0.264-0.019c1.715,0,3.429,0,5.143,0
		c0.753-0.001,1.362,0.27,1.678,0.982c0.12,0.272,0.169,0.595,0.173,0.896c0.017,1.559,0.008,3.119,0.008,4.679
		c0,0.088,0,0.175,0,0.262C20.882,9.975,20.905,9.989,20.93,10.003z"/>
	<path fill-rule="evenodd" clip-rule="evenodd" fill="#292D32" d="M14.029,19.717c0.073,0,0.146,0,0.218,0
		c1.574,0,3.148,0,4.722-0.001c0.545,0,0.751-0.203,0.751-0.74c0.001-1.736-0.002-3.473,0.002-5.209
		c0.001-0.467,0.374-0.751,0.776-0.57c0.14,0.063,0.241,0.234,0.33,0.375c0.045,0.072,0.028,0.187,0.028,0.282
		c0.002,1.714,0,3.428,0.002,5.142c0,0.605-0.179,1.127-0.678,1.508c-0.355,0.271-0.766,0.352-1.203,0.351
		c-1.559-0.001-3.118-0.001-4.677-0.001c-0.088,0-0.176,0-0.334,0c0.137,0.14,0.23,0.233,0.323,0.329
		c0.152,0.158,0.318,0.307,0.453,0.479c0.188,0.244,0.147,0.562-0.069,0.76c-0.211,0.192-0.51,0.201-0.746,0.015
		c-0.086-0.068-0.162-0.15-0.24-0.228c-0.489-0.489-0.979-0.977-1.467-1.468c-0.295-0.296-0.301-0.611-0.008-0.908
		c0.537-0.545,1.077-1.087,1.623-1.623c0.337-0.331,0.78-0.268,0.969,0.126c0.111,0.231,0.064,0.461-0.151,0.682
		c-0.216,0.22-0.437,0.432-0.656,0.646C14.009,19.681,14.02,19.698,14.029,19.717z"/>
	<path fill-rule="evenodd" clip-rule="evenodd" fill="#292D32" d="M4.283,14.022c0,0.063,0,0.127,0,0.191c0,1.589,0,3.178,0,4.767
		c0,0.526,0.209,0.735,0.734,0.735c1.729,0.001,3.457,0,5.186,0.001c0.339,0,0.532,0.124,0.621,0.387
		c0.113,0.333-0.085,0.673-0.43,0.732c-0.086,0.015-0.176,0.017-0.264,0.017c-1.707,0.001-3.413,0-5.119,0.001
		c-0.752,0.001-1.365-0.263-1.681-0.977c-0.124-0.278-0.173-0.609-0.177-0.918c-0.017-1.559-0.007-3.118-0.007-4.678
		c0-0.084,0-0.169,0-0.254c-0.021-0.011-0.041-0.021-0.062-0.032c-0.212,0.221-0.418,0.445-0.637,0.657
		c-0.239,0.233-0.492,0.267-0.742,0.115C1.442,14.609,1.35,14.291,1.5,14.021c0.049-0.088,0.117-0.169,0.189-0.241
		c0.508-0.51,1.02-1.019,1.532-1.526c0.348-0.345,0.645-0.347,0.99-0.004c0.526,0.525,1.055,1.047,1.575,1.578
		c0.37,0.377,0.244,0.896-0.24,1.014c-0.223,0.055-0.406-0.034-0.558-0.188c-0.218-0.218-0.427-0.443-0.641-0.666
		C4.326,13.999,4.305,14.011,4.283,14.022z"/>
	<path fill-rule="evenodd" clip-rule="evenodd" fill="#292D32" d="M10.009,3.068C9.78,2.853,9.544,2.645,9.326,2.42
		C9.15,2.239,9.082,2.02,9.193,1.773c0.101-0.222,0.275-0.367,0.517-0.34c0.155,0.018,0.335,0.09,0.447,0.198
		c0.562,0.541,1.109,1.096,1.653,1.654c0.265,0.272,0.263,0.589-0.007,0.862c-0.545,0.557-1.097,1.108-1.653,1.654
		c-0.27,0.264-0.612,0.264-0.844,0.023C9.071,5.578,9.084,5.251,9.351,4.978c0.214-0.22,0.436-0.431,0.634-0.699
		c-0.076,0-0.152,0-0.229,0c-1.567,0-3.134,0-4.7,0c-0.575,0-0.773,0.195-0.773,0.763c0,1.721,0.001,3.442-0.001,5.164
		c0,0.464-0.335,0.739-0.739,0.616c-0.208-0.063-0.338-0.202-0.376-0.417c-0.015-0.086-0.019-0.176-0.019-0.264
		C3.146,8.427,3.148,6.713,3.145,4.999C3.144,4.401,3.322,3.884,3.804,3.504C4.161,3.223,4.58,3.139,5.024,3.14
		c1.56,0.002,3.118,0.001,4.678,0.001c0.087,0,0.175,0,0.263,0C9.979,3.116,9.993,3.093,10.009,3.068z"/>
</g>
</svg>
