<?xml version="1.0" encoding="utf-8"?>
<!-- Generator: Adobe Illustrator 16.0.0, SVG Export Plug-In . SVG Version: 6.00 Build 0)  -->
<!DOCTYPE svg PUBLIC "-//W3C//DTD SVG 1.1//EN" "http://www.w3.org/Graphics/SVG/1.1/DTD/svg11.dtd">
<svg version="1.1" id="Vrstva_1" xmlns="http://www.w3.org/2000/svg" xmlns:xlink="http://www.w3.org/1999/xlink" x="0px" y="0px"
	 width="24px" height="24px" viewBox="0 0 24 24" enable-background="new 0 0 24 24" xml:space="preserve">
<path fill="#292D32" d="M23.298,16.09c-0.03-0.068-0.071-0.135-0.125-0.188l-1.758-1.754c-0.226-0.229-0.597-0.229-0.822,0
	c-0.225,0.226-0.225,0.595,0,0.822l0.732,0.729H8.435V3.103l0.729,0.731c0.227,0.226,0.596,0.227,0.822,0
	c0.227-0.226,0.227-0.596,0-0.822L8.232,1.255C8.179,1.202,8.113,1.16,8.044,1.129C7.974,1.1,7.897,1.084,7.821,1.084
	c-0.078,0-0.155,0.017-0.223,0.046C7.525,1.16,7.462,1.203,7.41,1.255L5.656,3.012c-0.114,0.112-0.169,0.26-0.169,0.41
	c0,0.148,0.055,0.296,0.171,0.41c0.226,0.227,0.595,0.226,0.82,0l0.73-0.73v12.597H2.676l0.731-0.729
	c0.226-0.229,0.226-0.598,0-0.822c-0.226-0.229-0.596-0.229-0.822,0l-1.757,1.754c-0.053,0.053-0.094,0.117-0.126,0.188
	c-0.029,0.07-0.044,0.146-0.044,0.223c0,0.08,0.016,0.155,0.046,0.225c0.03,0.072,0.072,0.136,0.125,0.188l1.757,1.754
	c0.112,0.113,0.261,0.17,0.41,0.17c0.148,0,0.296-0.057,0.411-0.172c0.228-0.227,0.226-0.596,0-0.82l-0.731-0.729l4.534-0.002v3.973
	l-0.729-0.73c-0.227-0.227-0.596-0.227-0.822,0c-0.227,0.227-0.227,0.596,0,0.822l1.754,1.757c0.054,0.053,0.119,0.094,0.188,0.126
	c0.07,0.027,0.147,0.045,0.224,0.045c0.078,0,0.155-0.018,0.224-0.047c0.072-0.03,0.136-0.071,0.188-0.124l1.754-1.757
	c0.114-0.112,0.169-0.262,0.169-0.411c0-0.147-0.055-0.296-0.171-0.41c-0.226-0.228-0.596-0.226-0.821,0l-0.73,0.729v-3.973h12.891
	l-0.729,0.73c-0.228,0.226-0.228,0.595,0,0.82c0.112,0.115,0.262,0.172,0.409,0.172c0.15,0,0.3-0.057,0.41-0.17l1.759-1.754
	c0.053-0.053,0.094-0.115,0.125-0.188c0.028-0.068,0.045-0.146,0.045-0.224C23.343,16.236,23.327,16.16,23.298,16.09z M7.222,20.91
	h0.021v0.021L7.222,20.91z M8.401,20.932V20.91h0.021L8.401,20.932z"/>
<circle fill="#292D32" cx="18.262" cy="6.125" r="4.063"/>
<g>
	<path fill-rule="evenodd" clip-rule="evenodd" fill="#FFFFFF" d="M20.803,5.993c-0.264-0.349-0.57-0.656-0.936-0.901
		c-0.566-0.379-1.186-0.562-1.871-0.497c-0.35,0.033-0.68,0.134-0.992,0.292c-0.461,0.233-0.844,0.564-1.17,0.962
		c-0.061,0.073-0.109,0.157-0.164,0.235c0,0.027,0,0.054,0,0.081c0.018,0.031,0.029,0.065,0.051,0.092
		c0.266,0.349,0.57,0.656,0.936,0.9c0.566,0.379,1.186,0.562,1.871,0.497c0.35-0.033,0.68-0.134,0.992-0.292
		c0.463-0.233,0.844-0.565,1.172-0.962c0.061-0.073,0.107-0.157,0.162-0.235c0-0.027,0-0.054,0-0.081
		C20.838,6.054,20.824,6.02,20.803,5.993z M18.229,7.214c-0.596-0.013-1.066-0.515-1.055-1.125c0.012-0.59,0.516-1.064,1.121-1.053
		c0.594,0.012,1.066,0.515,1.055,1.125C19.34,6.749,18.832,7.227,18.229,7.214z"/>
	<path fill-rule="evenodd" clip-rule="evenodd" fill="#FFFFFF" d="M18.273,5.538c-0.326-0.002-0.596,0.261-0.598,0.585
		c-0.002,0.321,0.26,0.586,0.578,0.588c0.326,0.002,0.594-0.261,0.596-0.587C18.85,5.806,18.59,5.541,18.273,5.538z"/>
</g>
</svg>
