<?xml version="1.0" encoding="UTF-8" standalone="no"?>
<!-- Created with Inkscape (http://www.inkscape.org/) -->

<svg
   xmlns:dc="http://purl.org/dc/elements/1.1/"
   xmlns:cc="http://creativecommons.org/ns#"
   xmlns:rdf="http://www.w3.org/1999/02/22-rdf-syntax-ns#"
   xmlns:svg="http://www.w3.org/2000/svg"
   xmlns="http://www.w3.org/2000/svg"
   xmlns:sodipodi="http://sodipodi.sourceforge.net/DTD/sodipodi-0.dtd"
   xmlns:inkscape="http://www.inkscape.org/namespaces/inkscape"
   width="30mm"
   height="30mm"
   viewBox="0 0 30 30"
   version="1.1"
   id="svg8"
   inkscape:version="0.92.4 (5da689c313, 2019-01-14)"
   sodipodi:docname="show-dimensions.svg">
  <defs
     id="defs2">
    <inkscape:path-effect
       effect="spiro"
       id="path-effect831"
       is_visible="true" />
  </defs>
  <sodipodi:namedview
     id="base"
     pagecolor="#ffffff"
     bordercolor="#666666"
     borderopacity="1.0"
     inkscape:pageopacity="0.0"
     inkscape:pageshadow="2"
     inkscape:zoom="1.979899"
     inkscape:cx="7.4236769"
     inkscape:cy="148.69816"
     inkscape:document-units="mm"
     inkscape:current-layer="layer1"
     showgrid="false"
     inkscape:window-width="3840"
     inkscape:window-height="2035"
     inkscape:window-x="-13"
     inkscape:window-y="-13"
     inkscape:window-maximized="1"
     inkscape:snap-text-baseline="false" />
  <metadata
     id="metadata5">
    <rdf:RDF>
      <cc:Work
         rdf:about="">
        <dc:format>image/svg+xml</dc:format>
        <dc:type
           rdf:resource="http://purl.org/dc/dcmitype/StillImage" />
        <dc:title></dc:title>
        <cc:license
           rdf:resource="http://creativecommons.org/licenses/by-sa/4.0/" />
        <dc:creator>
          <cc:Agent>
            <dc:title>Jakub Melka</dc:title>
          </cc:Agent>
        </dc:creator>
      </cc:Work>
      <cc:License
         rdf:about="http://creativecommons.org/licenses/by-sa/4.0/">
        <cc:permits
           rdf:resource="http://creativecommons.org/ns#Reproduction" />
        <cc:permits
           rdf:resource="http://creativecommons.org/ns#Distribution" />
        <cc:requires
           rdf:resource="http://creativecommons.org/ns#Notice" />
        <cc:requires
           rdf:resource="http://creativecommons.org/ns#Attribution" />
        <cc:permits
           rdf:resource="http://creativecommons.org/ns#DerivativeWorks" />
        <cc:requires
           rdf:resource="http://creativecommons.org/ns#ShareAlike" />
      </cc:License>
    </rdf:RDF>
  </metadata>
  <g
     inkscape:label="Vrstva 1"
     inkscape:groupmode="layer"
     id="layer1"
     transform="translate(0,-267)">
    <path
       style="fill:none;stroke:#000000;stroke-width:0.26458332px;stroke-linecap:butt;stroke-linejoin:miter;stroke-opacity:1"
       d="m 11.646391,283.58184 v 0 0"
       id="path837"
       inkscape:connector-curvature="0" />
    <g
       aria-label="ðŸ‘"
       style="font-style:normal;font-variant:normal;font-weight:normal;font-stretch:normal;font-size:33.86666489px;line-height:1.25;font-family:sans-serif;-inkscape-font-specification:'sans-serif, Normal';font-variant-ligatures:normal;font-variant-caps:normal;font-variant-numeric:normal;font-feature-settings:normal;text-align:start;letter-spacing:0px;word-spacing:0px;writing-mode:lr-tb;text-anchor:start;fill:#000000;fill-opacity:1;stroke:none;stroke-width:0.26458332"
       id="text1414">
      <path
         d="m 29.186513,281.64292 q -1.273307,2.29857 -3.125391,3.91914 -4.448307,3.93568 -11.046353,3.93568 -6.5980467,0 -11.0628902,-3.93568 -1.8520832,-1.62057 -3.14192692,-3.91914 1.28984372,-2.29857 3.14192692,-3.93567 4.4648435,-3.93568 11.0628902,-3.93568 6.598046,0 11.046353,3.93568 1.852084,1.6371 3.125391,3.93567 z m -2.695443,0 q -0.810286,-1.42213 -1.967838,-2.54661 -2.778125,-2.67891 -6.846094,-3.3569 1.769401,0.76067 2.844271,2.33164 1.091406,1.62057 1.091406,3.57187 0,1.93477 -1.074869,3.52227 -1.058334,1.5875 -2.794662,2.36471 5.986198,-1.02526 8.747786,-5.88698 z m -6.250781,0 q 0,-2.11666 -1.53789,-3.62148 -1.537891,-1.50482 -3.704167,-1.50482 -1.141015,0 -2.166276,0.46302 l -0.545703,-1.24023 q -6.0027337,1.02526 -8.7808586,5.90351 0.8102865,1.42214 1.951302,2.53008 2.7615884,2.66237 6.7799476,3.3569 -1.736328,-0.77721 -2.7946613,-2.36471 -1.0583333,-1.5875 -1.0583333,-3.52227 0,-1.17409 0.4134114,-2.28203 l 1.3229162,0.41341 q -0.3638016,0.90951 -0.3638016,1.86862 0,2.13321 1.5378906,3.63802 1.53789,1.48828 3.704166,1.48828 2.166276,0 3.704167,-1.48828 1.53789,-1.50481 1.53789,-3.63802 z m -1.273307,0 q 0,1.60404 -1.174088,2.74505 -1.157552,1.14102 -2.794662,1.14102 -1.653645,0 -2.811197,-1.14102 -1.157552,-1.14101 -1.157552,-2.74505 0,-0.71107 0.248046,-1.37252 l 4.051433,1.83554 -1.901693,-4.01836 q 0.744141,-0.33072 1.570963,-0.33072 1.63711,0 2.794662,1.14101 1.174088,1.14102 1.174088,2.74505 z"
         style="font-style:normal;font-variant:normal;font-weight:normal;font-stretch:normal;font-size:33.86666489px;font-family:sans-serif;-inkscape-font-specification:'sans-serif, Normal';font-variant-ligatures:normal;font-variant-caps:normal;font-variant-numeric:normal;font-feature-settings:normal;text-align:start;writing-mode:lr-tb;text-anchor:start;stroke-width:0.26458332"
         id="path1416"
         inkscape:connector-curvature="0" />
    </g>
  </g>
</svg>
