<?xml version="1.0" encoding="UTF-8" standalone="no"?>
<!-- Created with Inkscape (http://www.inkscape.org/) -->

<svg
   xmlns:dc="http://purl.org/dc/elements/1.1/"
   xmlns:cc="http://creativecommons.org/ns#"
   xmlns:rdf="http://www.w3.org/1999/02/22-rdf-syntax-ns#"
   xmlns:svg="http://www.w3.org/2000/svg"
   xmlns="http://www.w3.org/2000/svg"
   xmlns:sodipodi="http://sodipodi.sourceforge.net/DTD/sodipodi-0.dtd"
   xmlns:inkscape="http://www.inkscape.org/namespaces/inkscape"
   width="30mm"
   height="30mm"
   viewBox="0 0 30 30"
   version="1.1"
   id="svg5291"
   inkscape:version="0.92.4 (5da689c313, 2019-01-14)"
   sodipodi:docname="shortcuts.svg">
  <defs
     id="defs5285" />
  <sodipodi:namedview
     id="base"
     pagecolor="#ffffff"
     bordercolor="#666666"
     borderopacity="1.0"
     inkscape:pageopacity="0.0"
     inkscape:pageshadow="2"
     inkscape:zoom="0.35"
     inkscape:cx="-826.868"
     inkscape:cy="-249.08923"
     inkscape:document-units="mm"
     inkscape:current-layer="layer1"
     showgrid="false"
     inkscape:window-width="3840"
     inkscape:window-height="2035"
     inkscape:window-x="-13"
     inkscape:window-y="-13"
     inkscape:window-maximized="1" />
  <metadata
     id="metadata5288">
    <rdf:RDF>
      <cc:Work
         rdf:about="">
        <dc:format>image/svg+xml</dc:format>
        <dc:type
           rdf:resource="http://purl.org/dc/dcmitype/StillImage" />
        <dc:title></dc:title>
        <dc:creator>
          <cc:Agent>
            <dc:title>Jakub Melka</dc:title>
          </cc:Agent>
        </dc:creator>
        <cc:license
           rdf:resource="http://creativecommons.org/licenses/by-sa/4.0/" />
      </cc:Work>
      <cc:License
         rdf:about="http://creativecommons.org/licenses/by-sa/4.0/">
        <cc:permits
           rdf:resource="http://creativecommons.org/ns#Reproduction" />
        <cc:permits
           rdf:resource="http://creativecommons.org/ns#Distribution" />
        <cc:requires
           rdf:resource="http://creativecommons.org/ns#Notice" />
        <cc:requires
           rdf:resource="http://creativecommons.org/ns#Attribution" />
        <cc:permits
           rdf:resource="http://creativecommons.org/ns#DerivativeWorks" />
        <cc:requires
           rdf:resource="http://creativecommons.org/ns#ShareAlike" />
      </cc:License>
    </rdf:RDF>
  </metadata>
  <g
     inkscape:label="Vrstva 1"
     inkscape:groupmode="layer"
     id="layer1"
     transform="translate(0,-267)">
    <path
       style="fill:none;fill-opacity:1;stroke:#000000;stroke-width:1;stroke-linecap:butt;stroke-linejoin:round;stroke-miterlimit:4;stroke-dasharray:none;stroke-opacity:1"
       d="m 11.910786,292.27327 -2.461499,0.0161 4.009043,3.842 5.545843,-3.8754 -2.939965,0.0334"
       id="path880"
       inkscape:connector-curvature="0" />
    <path
       style="fill:none;fill-opacity:1;stroke:#000000;stroke-width:1;stroke-linecap:butt;stroke-linejoin:round;stroke-miterlimit:4;stroke-dasharray:none;stroke-opacity:1"
       d="m 17.016429,289.87347 -0.952221,2.4159"
       id="path878"
       inkscape:connector-curvature="0" />
    <path
       style="fill:none;fill-opacity:1;stroke:#000000;stroke-width:1;stroke-linecap:butt;stroke-linejoin:round;stroke-miterlimit:4;stroke-dasharray:none;stroke-opacity:1"
       d="m 13.881899,271.6267 1.347092,-2.42273 3.758552,0.0229"
       id="path876"
       inkscape:connector-curvature="0" />
    <path
       style="fill:none;fill-opacity:1;stroke:#000000;stroke-width:1;stroke-linecap:butt;stroke-linejoin:round;stroke-miterlimit:4;stroke-dasharray:none;stroke-opacity:1"
       d="m 18.987543,269.2269 -5.646069,11.19191 7.450137,-0.16705 -3.775182,9.62171"
       id="path874"
       inkscape:connector-curvature="0" />
    <path
       style="fill:none;fill-opacity:1;stroke:#000000;stroke-width:1;stroke-linecap:butt;stroke-linejoin:round;stroke-miterlimit:4;stroke-dasharray:none;stroke-opacity:1"
       d="m 13.881899,271.6267 -5.6460694,11.19191 7.4501384,-0.16705 -3.775182,9.62171"
       id="path852"
       inkscape:connector-curvature="0" />
    <path
       style="fill:none;fill-opacity:1;stroke:none;stroke-width:0.67491567;stroke-linejoin:round;stroke-miterlimit:4;stroke-dasharray:none;stroke-opacity:1;paint-order:stroke fill markers"
       d="m 45.780611,102.50651 -5.146673,-4.945773 2.244887,-0.04998 2.244887,-0.04998 v -0.906629 c 0,-0.792655 0.03928,-0.890705 0.3125,-0.779971 0.847382,0.343442 1.320656,0.48078 1.39626,0.405176 0.04586,-0.04586 3.296225,-8.270228 7.223028,-18.276366 4.637087,-11.81606 7.139641,-18.414898 7.139641,-18.826098 0,-0.348216 -0.131038,-0.820202 -0.291195,-1.048859 -0.618675,-0.883282 -0.637048,-0.884257 -11.673091,-0.620028 -5.647321,0.13521 -11.281387,0.224887 -12.520147,0.199283 L 34.458419,57.560735 44.478566,37.72679 c 5.51108,-10.908669 10.955455,-21.515811 12.09861,-23.571428 l 2.078463,-3.737484 4.930466,-0.04747 c 2.711755,-0.02611 4.930464,-0.01471 4.930464,0.02534 0,0.04004 -4.5,8.989797 -10,19.888345 -6.984705,13.840571 -10,19.987345 -10,20.385316 0,0.813023 0.430365,1.536504 1.072121,1.802329 0.452168,0.187293 2.873665,0.175789 13.253636,-0.06297 6.985213,-0.160672 12.719267,-0.272564 12.742345,-0.248654 0.02308,0.02391 -0.66618,1.851513 -1.531682,4.061334 -1.264823,3.229377 -14.831648,37.777057 -15.118661,38.499406 -0.0428,0.107707 0.327843,0.364414 0.823643,0.57046 l 0.901455,0.374627 v 0.897571 0.89757 l 2.34992,0.04982 2.349918,0.04983 -7.086186,4.955348 c -3.897402,2.72545 -7.144597,4.95105 -7.21599,4.94578 -0.07139,-0.005 -2.445807,-2.23518 -5.276477,-4.95536 z"
       id="path882"
       inkscape:connector-curvature="0"
       transform="matrix(0.26458333,0,0,0.26458333,0,267)" />
    <path
       style="fill:none;fill-opacity:1;stroke:none;stroke-width:0.67491567;stroke-linejoin:round;stroke-miterlimit:4;stroke-dasharray:none;stroke-opacity:1;paint-order:stroke fill markers"
       d="m 45.780611,102.50651 -5.146673,-4.945773 2.244887,-0.04998 2.244887,-0.04998 v -0.906629 c 0,-0.792655 0.03928,-0.890705 0.3125,-0.779971 0.847382,0.343442 1.320656,0.48078 1.39626,0.405176 0.04586,-0.04586 3.296225,-8.270228 7.223028,-18.276366 4.637087,-11.81606 7.139641,-18.414898 7.139641,-18.826098 0,-0.348216 -0.131038,-0.820202 -0.291195,-1.048859 -0.618675,-0.883282 -0.637048,-0.884257 -11.673091,-0.620028 -5.647321,0.13521 -11.281387,0.224887 -12.520147,0.199283 L 34.458419,57.560735 44.478566,37.72679 c 5.51108,-10.908669 10.955455,-21.515811 12.09861,-23.571428 l 2.078463,-3.737484 4.930466,-0.04747 c 2.711755,-0.02611 4.930464,-0.01471 4.930464,0.02534 0,0.04004 -4.5,8.989797 -10,19.888345 -6.984705,13.840571 -10,19.987345 -10,20.385316 0,0.813023 0.430365,1.536504 1.072121,1.802329 0.452168,0.187293 2.873665,0.175789 13.253636,-0.06297 6.985213,-0.160672 12.719267,-0.272564 12.742345,-0.248654 0.02308,0.02391 -0.66618,1.851513 -1.531682,4.061334 -1.264823,3.229377 -14.831648,37.777057 -15.118661,38.499406 -0.0428,0.107707 0.327843,0.364414 0.823643,0.57046 l 0.901455,0.374627 v 0.897571 0.89757 l 2.34992,0.04982 2.349918,0.04983 -7.086186,4.955348 c -3.897402,2.72545 -7.144597,4.95105 -7.21599,4.94578 -0.07139,-0.005 -2.445807,-2.23518 -5.276477,-4.95536 z"
       id="path884"
       inkscape:connector-curvature="0"
       transform="matrix(0.26458333,0,0,0.26458333,0,267)" />
    <path
       style="fill:none;fill-opacity:1;stroke:none;stroke-width:0.67491567;stroke-linejoin:round;stroke-miterlimit:4;stroke-dasharray:none;stroke-opacity:1;paint-order:stroke fill markers"
       d="m 45.780611,102.50651 -5.146673,-4.945773 2.244887,-0.04998 2.244887,-0.04998 v -0.906629 c 0,-0.792655 0.03928,-0.890705 0.3125,-0.779971 0.847382,0.343442 1.320656,0.48078 1.39626,0.405176 0.04586,-0.04586 3.296225,-8.270228 7.223028,-18.276366 4.637087,-11.81606 7.139641,-18.414898 7.139641,-18.826098 0,-0.348216 -0.131038,-0.820202 -0.291195,-1.048859 -0.618675,-0.883282 -0.637048,-0.884257 -11.673091,-0.620028 -5.647321,0.13521 -11.281387,0.224887 -12.520147,0.199283 L 34.458419,57.560735 44.478566,37.72679 c 5.51108,-10.908669 10.955455,-21.515811 12.09861,-23.571428 l 2.078463,-3.737484 4.930466,-0.04747 c 2.711755,-0.02611 4.930464,-0.01471 4.930464,0.02534 0,0.04004 -4.5,8.989797 -10,19.888345 -6.984705,13.840571 -10,19.987345 -10,20.385316 0,0.813023 0.430365,1.536504 1.072121,1.802329 0.452168,0.187293 2.873665,0.175789 13.253636,-0.06297 6.985213,-0.160672 12.719267,-0.272564 12.742345,-0.248654 0.02308,0.02391 -0.66618,1.851513 -1.531682,4.061334 -1.264823,3.229377 -14.831648,37.777057 -15.118661,38.499406 -0.0428,0.107707 0.327843,0.364414 0.823643,0.57046 l 0.901455,0.374627 v 0.897571 0.89757 l 2.34992,0.04982 2.349918,0.04983 -7.086186,4.955348 c -3.897402,2.72545 -7.144597,4.95105 -7.21599,4.94578 -0.07139,-0.005 -2.445807,-2.23518 -5.276477,-4.95536 z"
       id="path886"
       inkscape:connector-curvature="0"
       transform="matrix(0.26458333,0,0,0.26458333,0,267)" />
    <path
       style="fill:none;fill-opacity:1;stroke:none;stroke-width:0.67491567;stroke-linejoin:round;stroke-miterlimit:4;stroke-dasharray:none;stroke-opacity:1;paint-order:stroke fill markers"
       d="m 45.780611,102.50651 -5.146673,-4.945773 2.244887,-0.04998 2.244887,-0.04998 v -0.906629 c 0,-0.792655 0.03928,-0.890705 0.3125,-0.779971 0.847382,0.343442 1.320656,0.48078 1.39626,0.405176 0.04586,-0.04586 3.296225,-8.270228 7.223028,-18.276366 4.637087,-11.81606 7.139641,-18.414898 7.139641,-18.826098 0,-0.348216 -0.131038,-0.820202 -0.291195,-1.048859 -0.618675,-0.883282 -0.637048,-0.884257 -11.673091,-0.620028 -5.647321,0.13521 -11.281387,0.224887 -12.520147,0.199283 L 34.458419,57.560735 44.478566,37.72679 c 5.51108,-10.908669 10.955455,-21.515811 12.09861,-23.571428 l 2.078463,-3.737484 4.930466,-0.04747 c 2.711755,-0.02611 4.930464,-0.01471 4.930464,0.02534 0,0.04004 -4.5,8.989797 -10,19.888345 -6.984705,13.840571 -10,19.987345 -10,20.385316 0,0.813023 0.430365,1.536504 1.072121,1.802329 0.452168,0.187293 2.873665,0.175789 13.253636,-0.06297 6.985213,-0.160672 12.719267,-0.272564 12.742345,-0.248654 0.02308,0.02391 -0.66618,1.851513 -1.531682,4.061334 -1.264823,3.229377 -14.831648,37.777057 -15.118661,38.499406 -0.0428,0.107707 0.327843,0.364414 0.823643,0.57046 l 0.901455,0.374627 v 0.897571 0.89757 l 2.34992,0.04982 2.349918,0.04983 -7.086186,4.955348 c -3.897402,2.72545 -7.144597,4.95105 -7.21599,4.94578 -0.07139,-0.005 -2.445807,-2.23518 -5.276477,-4.95536 z"
       id="path888"
       inkscape:connector-curvature="0"
       transform="matrix(0.26458333,0,0,0.26458333,0,267)" />
    <path
       style="fill:none;fill-opacity:1;stroke:none;stroke-width:0.67491567;stroke-linejoin:round;stroke-miterlimit:4;stroke-dasharray:none;stroke-opacity:1;paint-order:stroke fill markers"
       d="M 50.20463,111.76502 C 49.682784,111.5536 34.38652,96.864807 34.081012,96.281724 c -0.377395,-0.720284 -0.09148,-1.642507 0.667322,-2.152482 0.589171,-0.395966 0.728979,-0.407809 4.821429,-0.408421 l 4.214663,-7.14e-4 6.385811,-16.27725 c 3.512197,-8.952488 6.351632,-16.311429 6.309857,-16.353206 -0.04178,-0.04178 -5.526998,0.05173 -12.189383,0.207798 -15.376264,0.360272 -13.730591,0.387883 -14.359307,-0.240834 -0.389731,-0.38973 -0.521978,-0.690185 -0.521978,-1.185898 0,-0.52055 1.875051,-4.389307 8.683022,-17.915521 4.775662,-9.488381 9.601959,-19.038106 10.725107,-21.221612 l 2.042086,-3.97001 1.239178,0.624041 c 0.681549,0.343222 1.239179,0.584205 1.239179,0.535518 0,-0.04869 -0.381697,-0.284359 -0.848214,-0.523715 -1.739241,-0.892351 -1.828347,-0.379206 0.935741,-5.388894 1.350341,-2.4473826 2.687898,-4.6707693 2.97235,-4.9408585 L 56.91506,6.578594 h 7.407899 7.407896 v 0.9465597 0.9465598 l 0.815263,0.3960846 0.81526,0.3960849 -7.084939,14.059141 c -3.896718,7.732527 -8.378859,16.606815 -9.960314,19.720638 -1.581456,3.113821 -2.838225,5.693537 -2.792822,5.732702 0.0454,0.03916 4.381659,-0.03297 9.636123,-0.160286 5.254465,-0.127321 11.045234,-0.236055 12.868377,-0.24163 l 3.314806,-0.01014 0.479837,0.500843 c 0.339088,0.353932 0.479838,0.689368 0.479838,1.143557 0,0.423584 -2.408425,6.78254 -7.063958,18.650943 -3.885175,9.904525 -7.134183,18.079113 -7.220019,18.16575 -0.0899,0.09074 -0.843059,-0.117443 -1.776563,-0.491071 -1.76198,-0.705222 -1.796603,-0.715011 -1.796603,-0.508022 0,0.07731 0.140625,0.153325 0.3125,0.168915 0.171875,0.01559 0.967225,0.294966 1.767444,0.620839 l 1.454945,0.592496 -1.147561,2.854661 c -0.631159,1.570063 -1.19415,3.035464 -1.251089,3.256446 l -0.103529,0.401786 h 4.489929 c 4.991684,0 5.178618,0.03908 5.548563,1.160027 0.43421,1.315673 0.572103,1.198089 -10.380308,8.851522 -5.536241,3.86866 -10.455666,7.29692 -10.932053,7.61834 -0.874247,0.58985 -1.331145,0.68439 -1.999352,0.41368 z m 1.12072,-4.22288 c -0.05934,-0.0593 -0.213357,-0.0657 -0.342263,-0.0141 -0.142452,0.057 -0.100139,0.0993 0.107888,0.10788 0.188243,0.008 0.293712,-0.0345 0.234375,-0.0938 z m 0.941219,-0.6064 c 0.245536,-0.19206 0.366072,-0.3492 0.267857,-0.3492 -0.09821,0 -0.379464,0.15714 -0.625,0.3492 -0.245535,0.19206 -0.366071,0.3492 -0.267857,0.3492 0.09822,0 0.379465,-0.15714 0.625,-0.3492 z m -3.932246,-2.05732 c -0.431734,-0.4399 -0.865666,-0.79983 -0.964293,-0.79983 -0.09863,0 0.2146,0.39994 0.696057,0.88875 0.481459,0.4888 0.915391,0.84873 0.964293,0.79982 0.0489,-0.0489 -0.264321,-0.44883 -0.696057,-0.88874 z m 5.985818,0.62875 c 0.0607,-0.0982 0.03001,-0.17858 -0.06821,-0.17858 -0.09821,0 -0.228234,0.0804 -0.288934,0.17858 -0.0607,0.0982 -0.03,0.17857 0.06821,0.17857 0.09821,0 0.228234,-0.0804 0.288934,-0.17857 z m 2.053571,-1.42858 c 0.245536,-0.19206 0.366072,-0.3492 0.267857,-0.3492 -0.09821,0 -0.379464,0.15714 -0.625,0.3492 -0.245535,0.19206 -0.366071,0.34921 -0.267857,0.34921 0.09821,0 0.379464,-0.15715 0.625,-0.34921 z m 1.785714,-1.25 c 0.245536,-0.19206 0.366072,-0.3492 0.267858,-0.3492 -0.09822,0 -0.379465,0.15714 -0.625,0.3492 -0.245536,0.19206 -0.366072,0.34921 -0.267858,0.34921 0.09821,0 0.379465,-0.15715 0.625,-0.34921 z m 1.785715,-1.25 c 0.245535,-0.19206 0.366071,-0.3492 0.267857,-0.3492 -0.09821,0 -0.379464,0.15714 -0.625,0.3492 -0.245536,0.19206 -0.366072,0.34921 -0.267857,0.34921 0.09821,0 0.379464,-0.15715 0.625,-0.34921 z m -15.896532,-0.80731 c -0.431734,-0.43991 -0.865666,-0.799829 -0.964293,-0.799829 -0.09863,0 0.214599,0.399939 0.696057,0.888739 0.481458,0.48881 0.91539,0.84873 0.964293,0.79983 0.0489,-0.0489 -0.264322,-0.44884 -0.696057,-0.88874 z m 17.682246,-0.44269 c 0.245536,-0.19206 0.366071,-0.349198 0.267857,-0.349198 -0.09821,0 -0.379464,0.157138 -0.625,0.349198 -0.245536,0.19206 -0.366071,0.34921 -0.267857,0.34921 0.09821,0 0.379464,-0.15715 0.625,-0.34921 z m 1.517857,-1.071425 c 0.0607,-0.09821 0.02526,-0.178571 -0.07875,-0.178571 -0.104011,0 -0.189111,0.08036 -0.189111,0.178571 0,0.09821 0.03544,0.178572 0.07875,0.178572 0.04331,0 0.128411,-0.08036 0.189111,-0.178572 z m 0.535714,-0.357142 c 0.0607,-0.09822 0.02526,-0.178572 -0.07875,-0.178572 -0.104011,0 -0.189111,0.08036 -0.189111,0.178572 0,0.09821 0.03544,0.178571 0.07875,0.178571 0.04331,0 0.12841,-0.08036 0.189111,-0.178571 z m 1.25,-0.892858 c 0.0607,-0.09821 0.02527,-0.178571 -0.07875,-0.178571 -0.104011,0 -0.189111,0.08036 -0.189111,0.178571 0,0.09821 0.03544,0.178572 0.07875,0.178572 0.04331,0 0.12841,-0.08036 0.189111,-0.178572 z m 0.625,-0.546253 c 0,-0.09793 -0.912635,-0.152107 -2.1875,-0.129861 l -2.1875,0.03817 2.008929,0.05696 c 1.217513,0.03452 2.008929,0.129159 2.008929,0.240225 0,0.100793 0.08036,0.133598 0.178571,0.0729 0.09821,-0.0607 0.178571,-0.185978 0.178571,-0.278396 z m -22.663966,0.01054 h 2.128252 v -0.892857 c 0,-0.491071 0.03037,-0.892857 0.06748,-0.892857 0.03711,0 0.35596,0.120536 0.70855,0.267857 0.757487,0.316498 1.009686,0.336168 1.009686,0.07875 0,-0.10401 -0.07682,-0.141632 -0.170711,-0.0836 -0.09389,0.05803 -0.465311,-0.01759 -0.825379,-0.168034 -0.360067,-0.150445 -0.725212,-0.273538 -0.811432,-0.273538 -0.08622,0 -0.156763,0.401786 -0.156763,0.892858 v 0.892857 h -2.321429 c -1.578146,0 -2.321428,0.06329 -2.321428,0.197677 0,0.108721 0.127107,0.1489 0.282462,0.08929 0.155354,-0.05962 1.240175,-0.108391 2.410714,-0.108391 z m 17.791868,-1.5625 c -0.04091,-0.270089 -0.07439,-0.04911 -0.07439,0.491072 0,0.540178 0.03348,0.76116 0.07439,0.491071 0.04092,-0.270089 0.04092,-0.712054 0,-0.982143 z M 49.228121,90.184126 c -0.0024,-0.260227 -0.02666,-0.264941 -0.175837,-0.0341 -0.226,0.349709 -0.226,0.586103 0,0.446428 0.09821,-0.0607 0.177341,-0.246246 0.175837,-0.412325 z M 62.442407,86.34484 c 0.0015,-0.07946 -0.07762,-0.0948 -0.175838,-0.0341 -0.09821,0.0607 -0.177341,0.246246 -0.175837,0.412325 0.0024,0.260227 0.02666,0.264941 0.175837,0.0341 0.09521,-0.147321 0.174334,-0.332867 0.175838,-0.412325 z m -11.25,-1.160714 c -0.0024,-0.260227 -0.02666,-0.264941 -0.175838,-0.0341 -0.226,0.349709 -0.226,0.586103 0,0.446428 0.09822,-0.0607 0.177341,-0.246246 0.175838,-0.412325 z m 3.571428,-9.107143 c -0.0024,-0.260226 -0.02666,-0.264941 -0.175837,-0.0341 -0.226,0.349709 -0.226,0.586103 0,0.446428 0.09821,-0.0607 0.177341,-0.246246 0.175837,-0.412325 z m 13.214286,-3.839285 c 0.0015,-0.07946 -0.07762,-0.0948 -0.175837,-0.0341 -0.09821,0.0607 -0.177341,0.246246 -0.175838,0.412325 0.0024,0.260227 0.02666,0.264941 0.175838,0.0341 0.09521,-0.147322 0.174334,-0.332868 0.175837,-0.412325 z m -11.25,-1.160715 c -0.0024,-0.260226 -0.02666,-0.264941 -0.175837,-0.0341 -0.226,0.349709 -0.226,0.586103 0,0.446428 0.09821,-0.0607 0.177341,-0.246246 0.175837,-0.412325 z M 60.29955,61.96984 c -0.0024,-0.260226 -0.02666,-0.264941 -0.175838,-0.0341 -0.226,0.349709 -0.226,0.586103 0,0.446428 0.09821,-0.0607 0.177341,-0.246246 0.175838,-0.412325 z m 0.843316,-3.112378 c -0.04271,-0.222127 -0.07928,-0.08244 -0.08126,0.310418 -0.002,0.392857 0.03297,0.574598 0.07766,0.403868 0.04469,-0.170731 0.04632,-0.492159 0.0036,-0.714286 z m 12.370969,-0.726907 c 0.0015,-0.07946 -0.07762,-0.0948 -0.175837,-0.0341 -0.09821,0.0607 -0.177341,0.246247 -0.175838,0.412325 0.0024,0.260227 0.02666,0.264941 0.175838,0.0341 0.09521,-0.147322 0.174334,-0.332868 0.175837,-0.412325 z m -12.497266,0.05518 c 0,-0.09821 -0.0851,-0.178572 -0.18911,-0.178572 -0.104011,0 -0.139447,0.08036 -0.07875,0.178572 0.0607,0.09821 0.1458,0.178571 0.189111,0.178571 0.04331,0 0.07875,-0.08036 0.07875,-0.178571 z M 40.570141,57.705339 c -3.054262,-0.127768 -6.33984,-0.1333 -6.339575,-0.01068 1.59e-4,0.07366 1.707878,0.117963 3.794932,0.09845 2.087053,-0.01951 3.232143,-0.05901 2.544643,-0.08777 z m 7.465062,-0.188402 c -1.001359,-0.03177 -2.688858,-0.03189 -3.75,-1.79e-4 -1.061141,0.03162 -0.241848,0.05762 1.820652,0.05776 2.0625,1.46e-4 2.930707,-0.02573 1.929348,-0.0575 z m 3.115295,-0.16858 c -0.171875,-0.04492 -0.453125,-0.04492 -0.625,0 -0.171875,0.04492 -0.03125,0.08167 0.3125,0.08167 0.34375,0 0.484375,-0.03675 0.3125,-0.08167 z m 1.24628,0.01521 c -0.05934,-0.05934 -0.213357,-0.06568 -0.342262,-0.01409 -0.142452,0.057 -0.10014,0.09932 0.107887,0.107885 0.188243,0.0078 0.293713,-0.03445 0.234375,-0.09379 z m 4.192336,-0.02486 c -0.71635,-0.03398 -1.84135,-0.03375 -2.5,5.36e-4 -0.65865,0.03426 -0.07255,0.06206 1.302455,0.06178 1.375,-3.57e-4 1.913895,-0.02831 1.197545,-0.06229 z m 2.689782,-0.162955 c -0.120898,-0.04892 -0.36197,-0.05189 -0.535714,-0.0066 -0.173745,0.04527 -0.07483,0.0853 0.219816,0.08893 0.294643,0.0036 0.436796,-0.0334 0.315898,-0.08232 z m -8.217684,-4.651756 c -0.220982,-0.04256 -0.582589,-0.04256 -0.803571,0 -0.220982,0.04256 -0.04018,0.07739 0.401785,0.07739 0.441965,0 0.622768,-0.03483 0.401786,-0.07739 z m 4.024856,-0.0057 c -0.560884,-0.03532 -1.52517,-0.03561 -2.142858,-7.14e-4 -0.617689,0.03497 -0.158784,0.06387 1.019788,0.06422 1.178571,3.57e-4 1.683952,-0.02826 1.12307,-0.06358 z m 7.046573,-0.180009 c -1.006697,-0.03183 -2.654018,-0.03183 -3.660715,0 -1.006696,0.03183 -0.183035,0.05787 1.830358,0.05787 2.013392,0 2.837053,-0.02604 1.830357,-0.05787 z m -12.905368,-0.31758 c -0.124236,-0.149695 -0.262657,-0.235399 -0.307604,-0.190452 -0.123837,0.123839 0.127777,0.462625 0.34359,0.462625 0.11841,0 0.104862,-0.102461 -0.03599,-0.272173 z m 20.941082,0.13898 c -1.006696,-0.03183 -2.654018,-0.03183 -3.660714,0 -1.006697,0.03183 -0.183036,0.05787 1.830357,0.05787 2.013393,0 2.837053,-0.02604 1.830357,-0.05787 z m 5.669643,-0.04538 c 0,-0.108609 -0.647147,-0.16535 -1.651786,-0.144826 l -1.651786,0.03374 1.607143,0.111082 c 0.883929,0.0611 1.627232,0.126268 1.651786,0.144827 0.02455,0.01856 0.04464,-0.04661 0.04464,-0.144827 z m -27.198334,-1.74107 c -0.04492,-0.171875 -0.08167,-0.03125 -0.08167,0.3125 0,0.34375 0.03675,0.484375 0.08167,0.3125 0.04491,-0.171875 0.04491,-0.453125 0,-0.625 z m -9.796751,-1.404693 c 0.419693,-0.846243 0.723866,-1.577836 0.675939,-1.625762 -0.04793,-0.04793 -0.454567,0.644453 -0.903646,1.538621 -0.449079,0.89417 -0.753251,1.625762 -0.675939,1.625762 0.07731,0 0.483953,-0.69238 0.903646,-1.538621 z M 55.480855,36.757165 c 0.39505,-0.785714 0.654639,-1.428571 0.576866,-1.428571 -0.12288,0 -1.469723,2.539152 -1.469723,2.770811 0,0.305307 0.264128,-0.09176 0.892857,-1.34224 z m -8.784487,-3.665439 c -0.05498,-0.05498 -0.15483,0.04413 -0.221889,0.220238 -0.09691,0.2545 -0.0764,0.27501 0.09996,0.09996 0.122039,-0.121132 0.176906,-0.265221 0.121926,-0.320202 z m 0.570201,-0.977418 c 0.105125,-0.196428 0.150959,-0.357143 0.101852,-0.357143 -0.04911,0 -0.175298,0.160715 -0.280423,0.357143 -0.105125,0.196429 -0.150959,0.357143 -0.101852,0.357143 0.04911,0 0.175298,-0.160714 0.280423,-0.357143 z m 3.282422,-6.34856 c 0.06098,-0.158915 0.03104,-0.230593 -0.07018,-0.168033 -0.09709,0.06 -0.176526,0.184715 -0.176526,0.277133 0,0.256862 0.127994,0.20026 0.246706,-0.1091 z m 14.931864,-8.830011 c 0.39505,-0.785714 0.654639,-1.428572 0.576866,-1.428572 -0.12288,0 -1.469723,2.539152 -1.469723,2.770812 0,0.305306 0.264128,-0.09176 0.892857,-1.34224 z m 3.214286,-6.517857 c 0,-0.147322 -0.07784,-0.267857 -0.172968,-0.267857 -0.09513,0 -0.126713,0.120535 -0.07018,0.267857 0.05653,0.147321 0.134367,0.267857 0.172967,0.267857 0.0386,0 0.07018,-0.120536 0.07018,-0.267857 z"
       id="path890"
       inkscape:connector-curvature="0"
       transform="matrix(0.26458333,0,0,0.26458333,0,267)" />
    <path
       style="fill:#d2d2d2;fill-opacity:1;stroke:none;stroke-width:0.67491567;stroke-linejoin:round;stroke-miterlimit:4;stroke-dasharray:none;stroke-opacity:1;paint-order:stroke fill markers"
       d="m 45.780611,102.50651 -5.146673,-4.945773 2.244887,-0.04998 2.244887,-0.04998 v -0.906629 c 0,-0.792655 0.03928,-0.890705 0.3125,-0.779971 0.847382,0.343442 1.320656,0.48078 1.39626,0.405176 0.04586,-0.04586 3.296225,-8.270228 7.223028,-18.276366 4.334523,-11.04508 7.139641,-18.426871 7.139641,-18.788285 0,-0.824522 -0.258754,-1.229709 -1.032757,-1.617215 -0.641283,-0.32106 -1.010068,-0.324027 -10.931529,-0.08796 -5.647321,0.13437 -11.281387,0.223361 -12.520147,0.197757 L 34.458419,57.560734 44.478566,37.726789 C 49.989646,26.81812 55.434021,16.210978 56.577176,14.155361 l 2.078463,-3.737484 4.930466,-0.04747 c 2.711755,-0.02611 4.930464,-0.01471 4.930464,0.02534 0,0.04004 -4.5,8.989797 -10,19.888345 -6.984705,13.840571 -10,19.987345 -10,20.385316 0,0.813023 0.430365,1.536504 1.072121,1.802329 0.452168,0.187293 2.873665,0.175789 13.253636,-0.06297 6.985213,-0.160672 12.719267,-0.272564 12.742345,-0.248654 0.02308,0.02391 -0.66618,1.851513 -1.531682,4.061334 -1.264823,3.229377 -14.831648,37.777057 -15.118661,38.499406 -0.0428,0.107707 0.327843,0.364414 0.823643,0.57046 l 0.901455,0.374627 v 0.897571 0.89757 l 2.34992,0.04982 2.349918,0.04983 -7.086186,4.955349 c -3.897402,2.72545 -7.144597,4.95105 -7.21599,4.94578 -0.07139,-0.005 -2.445807,-2.23518 -5.276477,-4.95536 z"
       id="path892"
       inkscape:connector-curvature="0"
       transform="matrix(0.26458333,0,0,0.26458333,0,267)" />
  </g>
</svg>
