<?xml version="1.0" encoding="utf-8"?>
<!-- Generator: Adobe Illustrator 16.0.0, SVG Export Plug-In . SVG Version: 6.00 Build 0)  -->
<!DOCTYPE svg PUBLIC "-//W3C//DTD SVG 1.1//EN" "http://www.w3.org/Graphics/SVG/1.1/DTD/svg11.dtd">
<svg version="1.1" id="Vrstva_1" xmlns="http://www.w3.org/2000/svg" xmlns:xlink="http://www.w3.org/1999/xlink" x="0px" y="0px"
	 width="24px" height="24px" viewBox="0 0 24 24" enable-background="new 0 0 24 24" xml:space="preserve">
<g>
	<g>
		<path fill="#292D32" d="M17.039,6.192l-0.072-0.068l-0.563,0.572l0.066,0.07c0.934,0.964,1.406,2.112,1.406,3.415
			c0.002,1.308-0.465,2.454-1.389,3.407l-0.066,0.066l0.551,0.594l0.072-0.072c1.072-1.061,1.658-2.489,1.65-4.023
			C18.688,8.646,18.082,7.202,17.039,6.192z"/>
		<path fill="#292D32" d="M15.951,7.297l-0.068-0.065l-0.572,0.553l0.068,0.071c0.633,0.666,0.953,1.449,0.953,2.331
			c-0.002,0.884-0.316,1.66-0.932,2.305l-0.066,0.07l0.572,0.572l0.07-0.072c0.779-0.781,1.195-1.828,1.176-2.944
			C17.133,9.021,16.695,7.994,15.951,7.297z"/>
		<path fill="#292D32" d="M14.844,8.384l-0.068-0.06l-0.564,0.547l0.066,0.071c0.344,0.365,0.512,0.773,0.51,1.246
			c0,0.46-0.164,0.869-0.486,1.216l-0.064,0.07l0.566,0.577l0.072-0.072c0.498-0.503,0.758-1.176,0.729-1.895
			C15.576,9.405,15.293,8.77,14.844,8.384z"/>
	</g>
	<path fill="#292D32" d="M21.209,18.16c-2.498-0.003-5.006-0.003-7.514,0c-0.457,0-0.645,0.189-0.652,0.653v0.065
		c0,0.144-0.002,0.279-0.027,0.407c-0.094,0.482-0.52,0.833-1.016,0.833c-0.173,0-0.338-0.043-0.493-0.128
		c-0.395-0.215-0.572-0.57-0.557-1.117c0.005-0.209-0.009-0.421-0.142-0.558c-0.133-0.137-0.349-0.156-0.562-0.156l-3.738-0.001
		L2.771,18.16c-0.055,0-0.106,0.004-0.159,0.006l-0.176,0.01v1.033h7.469c0.104,1.153,1.04,1.896,1.921,1.954
		c0.057,0.004,0.114,0.006,0.17,0.006c0.454,0,0.859-0.127,1.201-0.378c0.543-0.395,0.844-0.927,0.895-1.582h7.473v-1.034
		l-0.186-0.009C21.32,18.164,21.266,18.16,21.209,18.16z"/>
	<g>
		<rect x="4.437" y="8.029" fill="#292D32" width="5.938" height="0.938"/>
		<rect x="4.437" y="9.717" fill="#292D32" width="5.938" height="0.938"/>
		<rect x="4.437" y="11.404" fill="#292D32" width="5.938" height="0.938"/>
	</g>
	<path fill="#292D32" d="M21.553,17.048v-0.265c0-0.001,0-0.004,0-0.004l0,0l0.012-11.85c-0.002-0.596-0.158-1.024-0.25-1.229
		c-0.053-0.098-0.1-0.198-0.182-0.285c-0.303-0.333-0.674-0.524-1.105-0.567c-0.119-0.011-0.24-0.012-0.363-0.012l-3.225,0.001
		c-0.869,0-1.74-0.001-2.611-0.006h-0.037c-0.682,0-1.229,0.124-1.792,0.721c-0.047-0.051-0.095-0.102-0.146-0.15
		c-0.409-0.383-0.902-0.568-1.516-0.568c-0.89,0.003-1.78,0.003-2.669,0.003H6.807c-0.849,0-1.699,0-2.548,0.002
		C4.11,2.839,3.887,2.846,3.675,2.908C3.105,3.079,2.737,3.446,2.55,3.986C2.505,4.175,2.46,4.5,2.459,5.045l0,0L2.436,17.198
		l0.01,0.049c0.141,0.351,0.438,0.392,0.648,0.392c1.153-0.004,2.306-0.005,3.458-0.005l3.463,0.001
		c0.732,0,1.266,0.418,1.428,1.116c0.015,0.064,0.018,0.131,0.022,0.201c0.002,0.039,0.005,0.081,0.009,0.123l0.012,0.12h0.943
		l0.031-0.089c0.035-0.1,0.066-0.198,0.095-0.297c0.064-0.205,0.123-0.397,0.217-0.568c0.234-0.425,0.623-0.606,1.301-0.606h6.627
		l0.146-0.002c0.021,0,0.043,0,0.063,0.001c0.115,0.012,0.217-0.009,0.309-0.046C21.457,17.479,21.533,17.24,21.553,17.048z
		 M20.512,16.586l-3.602,0.002c-0.967,0-1.936-0.001-2.918-0.005c-0.836,0-1.488,0.295-1.99,0.906
		c-0.041-0.048-0.077-0.091-0.115-0.128c-0.483-0.514-1.077-0.773-1.766-0.773c-1.088-0.002-2.175-0.002-3.263-0.002H3.485V4.674
		c0-0.546,0.247-0.79,0.798-0.79h4.04h2.019c0.564,0.001,0.964,0.295,1.098,0.809c0.014,0.05,0.02,0.103,0.027,0.162l0.029,0.208
		h1.002l0.032-0.207c0.008-0.057,0.016-0.111,0.029-0.164c0.129-0.502,0.525-0.804,1.061-0.806c0.309-0.003,0.615-0.003,0.922-0.003
		l1.379,0.001h2.555h1.277c0.504,0,0.76,0.253,0.76,0.752c0.002,3.972,0.002,7.943,0.002,11.916
		C20.514,16.563,20.514,16.574,20.512,16.586z"/>
</g>
</svg>
