<?xml version="1.0" encoding="utf-8"?>
<!-- Generator: Adobe Illustrator 16.0.0, SVG Export Plug-In . SVG Version: 6.00 Build 0)  -->
<!DOCTYPE svg PUBLIC "-//W3C//DTD SVG 1.1//EN" "http://www.w3.org/Graphics/SVG/1.1/DTD/svg11.dtd">
<svg version="1.1" id="Vrstva_1" xmlns="http://www.w3.org/2000/svg" xmlns:xlink="http://www.w3.org/1999/xlink" x="0px" y="0px"
	 width="24px" height="24px" viewBox="0 0 24 24" enable-background="new 0 0 24 24" xml:space="preserve">
<g>
	<g>
		<path fill="#292D32" d="M17.25,3.936c0.006,0.435,0.322,0.765,0.736,0.768h0.008c0.42,0,0.738-0.329,0.74-0.765
			c0.004-0.667,0.004-1.335,0-2.003c-0.002-0.445-0.305-0.761-0.735-0.768c-0.688-0.01-1.378-0.011-2.065,0
			c-0.215,0.003-0.406,0.089-0.543,0.241c-0.138,0.154-0.203,0.358-0.183,0.574c0.036,0.397,0.347,0.667,0.769,0.668l1.271,0.001
			V2.7C17.245,3.123,17.245,3.529,17.25,3.936z M17.994,4.431L17.994,4.431L17.994,4.431L17.994,4.431z"/>
		<path fill="#292D32" d="M3.848,1.167C3.166,1.158,2.482,1.159,1.803,1.168C1.397,1.172,1.075,1.473,1.07,1.853
			c-0.011,0.72-0.01,1.44-0.001,2.161c0.006,0.367,0.314,0.669,0.7,0.689l0.039,0.001c0.354,0,0.657-0.254,0.722-0.605
			C2.548,3.997,2.55,3.89,2.55,3.786V2.653h0.713l0,0h0.001l0.573-0.002c0.427-0.004,0.746-0.306,0.756-0.719
			C4.597,1.723,4.525,1.531,4.39,1.39C4.253,1.249,4.061,1.169,3.848,1.167z M1.807,4.427L1.807,4.427V4.43V4.427z"/>
		<path fill="#292D32" d="M3.824,17.359H2.549l0.001-0.349c0.001-0.317,0.002-0.64-0.004-0.959
			c-0.008-0.427-0.314-0.739-0.737-0.745c-0.413,0-0.738,0.313-0.741,0.717c-0.008,0.701-0.008,1.399,0,2.101
			c0.004,0.394,0.314,0.705,0.709,0.709c0.331,0.003,0.662,0.005,0.993,0.005c0.375,0,0.751-0.002,1.127-0.006
			c0.39-0.005,0.689-0.313,0.696-0.716c0.004-0.207-0.066-0.396-0.198-0.531C4.253,17.438,4.056,17.361,3.824,17.359z"/>
		<path fill="#292D32" d="M9.382,2.65c0.072,0.003,0.144,0.003,0.215,0.003l0.292-0.001l0.29,0.001l0.213-0.002
			c0.411-0.011,0.724-0.305,0.747-0.699c0.013-0.199-0.056-0.396-0.187-0.542c-0.129-0.144-0.307-0.228-0.5-0.237
			c-0.371-0.018-0.745-0.019-1.115,0c-0.194,0.011-0.37,0.093-0.496,0.235C8.708,1.556,8.643,1.75,8.655,1.958
			C8.679,2.346,8.985,2.636,9.382,2.65z"/>
		<path fill="#292D32" d="M7.17,1.168c-0.349-0.012-0.699-0.013-1.05,0c-0.422,0.017-0.729,0.35-0.712,0.773
			C5.424,2.34,5.735,2.638,6.146,2.649l0.208,0.003l0.298-0.001l0.286,0.001L7.135,2.65c0.424-0.009,0.743-0.309,0.759-0.713
			C7.902,1.741,7.834,1.553,7.7,1.409C7.565,1.262,7.376,1.176,7.17,1.168z"/>
		<path fill="#292D32" d="M13.697,1.173c-0.369-0.018-0.743-0.019-1.11,0c-0.394,0.02-0.694,0.353-0.682,0.757
			c0.012,0.402,0.319,0.705,0.732,0.72c0.068,0.003,0.137,0.003,0.204,0.003l0.318-0.001l0.276,0.001l0.205-0.002
			c0.411-0.011,0.727-0.306,0.746-0.703c0.01-0.2-0.063-0.397-0.191-0.542C14.066,1.265,13.891,1.182,13.697,1.173z"/>
		<path fill="#292D32" d="M2.547,9.512c-0.019-0.434-0.33-0.749-0.754-0.748c-0.418,0.007-0.725,0.33-0.73,0.77
			c-0.003,0.314-0.003,0.626,0,0.941c0.005,0.445,0.302,0.763,0.724,0.771h0.017c0.423,0,0.729-0.313,0.744-0.76
			c0.004-0.108,0.003-0.218,0.002-0.327l-0.001-0.14L2.55,9.866l0,0l0,0C2.551,9.748,2.551,9.631,2.547,9.512z M1.804,10.971
			L1.804,10.971v0.002V10.971z"/>
		<path fill="#292D32" d="M18.734,9.844c0.002-0.109,0.002-0.217,0-0.327c-0.01-0.425-0.313-0.741-0.742-0.753
			c-0.415,0-0.733,0.322-0.742,0.746c-0.009,0.334-0.009,0.671,0,1.007c0.014,0.422,0.327,0.729,0.745,0.729h0.007
			c0.412-0.004,0.721-0.316,0.732-0.741c0.004-0.113,0.002-0.228,0.002-0.342L18.734,10V9.844z M17.995,10.972L17.995,10.972
			L17.995,10.972L17.995,10.972z"/>
		<path fill="#292D32" d="M18.734,6.275c-0.008-0.435-0.327-0.762-0.744-0.762c-0.411,0.002-0.729,0.321-0.74,0.743
			c-0.009,0.334-0.009,0.67,0,1.006c0.014,0.418,0.332,0.733,0.743,0.733h0.003c0.414,0,0.727-0.311,0.738-0.737
			c0.004-0.114,0.002-0.228,0.002-0.341l-0.002-0.162V6.599C18.736,6.49,18.736,6.381,18.734,6.275z M17.993,7.722L17.993,7.722
			L17.993,7.722L17.993,7.722z"/>
		<path fill="#292D32" d="M1.062,6.893C1.061,7.016,1.06,7.139,1.064,7.26c0.013,0.413,0.313,0.722,0.713,0.735h0.028
			c0.396,0,0.711-0.29,0.732-0.675c0.019-0.375,0.019-0.755,0-1.131C2.532,6.095,2.508,6.005,2.469,5.924
			c-0.112-0.231-0.354-0.388-0.65-0.402C1.802,5.521,1.787,5.514,1.77,5.514c0,0-0.001,0-0.002,0
			c-0.39,0.021-0.686,0.324-0.704,0.72C1.059,6.352,1.061,6.47,1.062,6.589l0.001,0.149L1.062,6.893z M1.805,7.72L1.805,7.72v0.003
			V7.72z"/>
		<path fill="#292D32" d="M1.764,14.494l0.043,0.001c0.403,0,0.719-0.306,0.735-0.71c0.015-0.355,0.015-0.715,0-1.071
			c-0.018-0.4-0.334-0.702-0.759-0.702l0,0c-0.403,0.012-0.705,0.32-0.719,0.731C1.06,12.861,1.061,12.98,1.062,13.1l0.001,0.147
			l-0.001,0.146c0,0.119-0.001,0.238,0.002,0.357C1.074,14.161,1.369,14.475,1.764,14.494z M1.807,14.217
			C1.808,14.217,1.808,14.217,1.807,14.217v0.006V14.217z"/>
		<path fill="#292D32" d="M18.734,13.096c0.002-0.109,0.002-0.218,0-0.326c-0.008-0.433-0.327-0.756-0.744-0.756
			c-0.411,0.003-0.729,0.321-0.74,0.741c-0.009,0.335-0.009,0.671,0,1.006c0.012,0.422,0.331,0.736,0.744,0.736h0.002h0.001
			c0.413-0.002,0.726-0.313,0.737-0.738c0.004-0.113,0.002-0.229,0.002-0.343l-0.002-0.163V13.096z M17.994,14.223L17.994,14.223
			L17.994,14.223L17.994,14.223z"/>
		<path fill="#292D32" d="M10.42,17.361c-0.346-0.008-0.693-0.008-1.042,0c-0.409,0.01-0.72,0.324-0.724,0.73
			c-0.001,0.404,0.305,0.725,0.712,0.74c0.068,0.003,0.138,0.005,0.207,0.005l0.32-0.002l0.302,0.002c0.002,0,0.004,0,0.006,0h0.009
			c0.069,0,0.138-0.001,0.207-0.004c0.409-0.017,0.72-0.329,0.724-0.733C11.142,17.695,10.826,17.372,10.42,17.361z"/>
		<path fill="#292D32" d="M7.18,17.363c-0.354-0.012-0.708-0.012-1.063,0c-0.412,0.011-0.717,0.332-0.709,0.746
			c0.004,0.399,0.301,0.705,0.704,0.725c0.065,0.003,0.131,0.004,0.198,0.004l0.881-0.003c0.399-0.026,0.694-0.33,0.703-0.72
			c0.005-0.199-0.067-0.387-0.202-0.527C7.557,17.445,7.375,17.367,7.18,17.363z"/>
		<path fill="#292D32" d="M13.676,17.361c-0.355-0.01-0.71-0.01-1.061,0.002c-0.393,0.008-0.705,0.324-0.71,0.721
			c-0.009,0.4,0.302,0.73,0.708,0.75c0.063,0.003,0.13,0.004,0.195,0.004l0.33-0.003l0.34,0.003c0.067,0,0.138-0.001,0.205-0.004
			c0.396-0.02,0.696-0.33,0.703-0.723C14.396,17.701,14.083,17.372,13.676,17.361z"/>
	</g>
	<path fill="#292D32" d="M22.729,16.657c-0.055-0.041-0.125-0.073-0.215-0.101l-1.134-0.313c-1.972-0.534-4.11-1.117-6.539-1.784
		c-0.2-0.051-0.386-0.012-0.522,0.104c-0.112,0.097-0.182,0.236-0.182,0.369c0,0.015-0.002,0.029,0,0.058v0.028l0.014,0.058
		c0.014,0.046,0.033,0.104,0.057,0.143c1.176,2.433,2.354,4.865,3.531,7.294c0.09,0.184,0.232,0.297,0.406,0.32
		c0.023,0.003,0.049,0.005,0.072,0.005c0.018,0,0.035-0.001,0.053-0.003c0.231-0.021,0.405-0.181,0.467-0.423l0.316-1.233
		c0.17-0.656,0.34-1.313,0.508-1.975c0.008-0.025,0.01-0.025,0.025-0.036c1.018-0.538,2.033-1.077,3.053-1.619
		c0.176-0.095,0.289-0.262,0.301-0.444C22.952,16.928,22.876,16.764,22.729,16.657z M21,17.232c-0.238,0.127-0.48,0.256-0.721,0.384
		c-0.182,0.095-0.362,0.19-0.545,0.288c-0.264,0.14-0.528,0.279-0.795,0.418c-0.189,0.101-0.303,0.244-0.354,0.453
		c-0.041,0.172-0.085,0.348-0.128,0.521L18.432,19.4c-0.037,0.134-0.072,0.264-0.104,0.393c-0.072,0.27-0.141,0.538-0.211,0.814
		l-0.049,0.187c-0.533-1.099-1.064-2.194-1.596-3.291l-0.843-1.731c1.212,0.33,2.416,0.658,3.621,0.986L21,17.232z"/>
</g>
<g>
	<g>
		<rect x="4.05" y="4.61" fill="#CCCED0" width="3.471" height="2.125"/>
	</g>
</g>
<g>
	<g>
		<rect x="4.05" y="8.943" fill="#292D32" width="3.471" height="2.125"/>
	</g>
</g>
<g>
	<g>
		<rect x="4.05" y="13.275" fill="#CCCED0" width="8.293" height="2.125"/>
	</g>
</g>
<circle fill="#292D32" cx="12.12" cy="7.852" r="3.544"/>
<g>
	<g>
		<path fill="#FFFFFF" d="M12.617,7.851l1.467-1.218c0.135-0.11,0.152-0.31,0.041-0.446c-0.113-0.135-0.313-0.154-0.445-0.041
			L12.119,7.44l-1.559-1.294c-0.135-0.112-0.334-0.093-0.446,0.041c-0.112,0.135-0.093,0.335,0.042,0.446l1.467,1.218l-1.467,1.22
			c-0.134,0.112-0.153,0.312-0.042,0.446c0.062,0.073,0.152,0.114,0.242,0.114c0.072,0,0.144-0.021,0.203-0.073l1.561-1.293
			l1.56,1.293c0.061,0.052,0.131,0.073,0.199,0.073c0.094,0,0.186-0.038,0.246-0.114c0.109-0.135,0.092-0.333-0.041-0.446
			L12.617,7.851z"/>
	</g>
</g>
</svg>
