<?xml version="1.0" encoding="utf-8"?>
<!-- Generator: Adobe Illustrator 16.0.0, SVG Export Plug-In . SVG Version: 6.00 Build 0)  -->
<!DOCTYPE svg PUBLIC "-//W3C//DTD SVG 1.1//EN" "http://www.w3.org/Graphics/SVG/1.1/DTD/svg11.dtd">
<svg version="1.1" id="Vrstva_1" xmlns="http://www.w3.org/2000/svg" xmlns:xlink="http://www.w3.org/1999/xlink" x="0px" y="0px"
	 width="24px" height="24px" viewBox="0 0 24 24" enable-background="new 0 0 24 24" xml:space="preserve">
<g>
	<g>
		<path fill="#292D32" d="M13.284,21.421c-1.711,0-3.383-0.464-4.859-1.353c-0.355-0.213-0.47-0.674-0.256-1.028
			c0.213-0.354,0.675-0.472,1.029-0.256c1.35,0.812,2.896,1.198,4.461,1.128c2.114-0.1,4.063-1.016,5.487-2.578
			c1.424-1.564,2.153-3.589,2.056-5.702c-0.099-2.115-1.015-4.063-2.578-5.488c-1.563-1.424-3.586-2.154-5.703-2.055
			C8.559,4.293,5.176,8.008,5.38,12.37c0.042,0.901,0.213,1.771,0.522,2.653c0.137,0.393-0.069,0.819-0.46,0.957
			c-0.389,0.137-0.818-0.069-0.956-0.461c-0.358-1.022-0.556-2.029-0.604-3.08c-0.244-5.188,3.78-9.607,8.968-9.849
			c2.494-0.129,4.922,0.75,6.783,2.444c1.86,1.694,2.949,4.012,3.066,6.526c0.117,2.513-0.751,4.921-2.445,6.782
			c-1.693,1.861-4.012,2.949-6.525,3.066C13.58,21.417,13.434,21.421,13.284,21.421z"/>
	</g>
	<g>
		<path fill="#292D32" d="M5.491,17.248c-0.163,0-0.327-0.053-0.465-0.162l-3.451-2.732c-0.325-0.256-0.38-0.729-0.123-1.054
			c0.257-0.323,0.729-0.38,1.053-0.122l3.451,2.732c0.325,0.257,0.38,0.729,0.123,1.054C5.931,17.15,5.712,17.248,5.491,17.248z"/>
	</g>
	<g>
		<path fill="#292D32" d="M5.491,17.248c-0.142,0-0.286-0.04-0.413-0.124c-0.346-0.229-0.44-0.694-0.212-1.039l2.3-3.479
			c0.228-0.347,0.693-0.44,1.039-0.212c0.346,0.228,0.44,0.694,0.212,1.039l-2.3,3.48C5.973,17.13,5.734,17.248,5.491,17.248z"/>
	</g>
</g>
<g>
	<path fill="#292D32" d="M10.183,13.641H8.049L7.74,14.39H6.591l1.954-4.788h1.151l1.955,4.788h-1.16L10.183,13.641z M9.826,12.769
		L9.115,11.02l-0.71,1.749H9.826z"/>
	<path fill="#292D32" d="M16.066,12.59c0,1.106-0.695,1.888-1.658,1.888c-0.506,0-0.92-0.216-1.207-0.593v0.505h-1.02V9.519l1.02,0
		v1.771c0.287-0.369,0.701-0.584,1.207-0.584C15.371,10.707,16.066,11.487,16.066,12.59z M15.076,12.59
		c0-0.6-0.396-1.026-0.963-1.026c-0.496,0-0.857,0.363-0.912,0.884v0.281c0.055,0.527,0.416,0.893,0.912,0.893
		C14.68,13.621,15.076,13.195,15.076,12.59z"/>
	<path fill="#292D32" d="M16.58,12.59c0-1.026,0.906-1.883,1.977-1.883c0.582,0,1.064,0.236,1.414,0.612l-0.678,0.579
		c-0.182-0.203-0.467-0.333-0.746-0.333c-0.529,0-0.98,0.468-0.98,1.017c0,0.563,0.451,1.04,0.99,1.04
		c0.279,0,0.568-0.137,0.76-0.351l0.674,0.571c-0.357,0.392-0.842,0.636-1.443,0.636C17.48,14.478,16.58,13.61,16.58,12.59z"/>
</g>
</svg>
