<?xml version="1.0" encoding="utf-8"?>
<!-- Generator: Adobe Illustrator 16.0.0, SVG Export Plug-In . SVG Version: 6.00 Build 0)  -->
<!DOCTYPE svg PUBLIC "-//W3C//DTD SVG 1.1//EN" "http://www.w3.org/Graphics/SVG/1.1/DTD/svg11.dtd">
<svg version="1.1" id="Vrstva_1" xmlns="http://www.w3.org/2000/svg" xmlns:xlink="http://www.w3.org/1999/xlink" x="0px" y="0px"
	 width="24px" height="24px" viewBox="0 0 24 24" enable-background="new 0 0 24 24" xml:space="preserve">
<g>
	<g>
		<path fill="#292D32" d="M19.111,11.86c-0.045-0.017-0.1-0.024-0.166-0.024l-0.838,0.022c-1.453,0.045-3.033,0.093-4.824,0.143
			c-0.148,0.007-0.266,0.073-0.335,0.179c-0.054,0.09-0.074,0.198-0.048,0.289c0.002,0.011,0.004,0.021,0.014,0.041l0.006,0.021
			l0.021,0.036c0.021,0.026,0.043,0.063,0.07,0.086c1.307,1.414,2.614,2.83,3.922,4.236c0.1,0.106,0.219,0.154,0.344,0.133
			c0.015,0,0.031-0.006,0.05-0.012c0.013-0.002,0.021-0.006,0.034-0.012c0.152-0.063,0.238-0.209,0.229-0.385l-0.041-0.907
			c-0.022-0.481-0.041-0.966-0.065-1.452c0-0.018,0.002-0.018,0.012-0.027c0.583-0.578,1.158-1.156,1.742-1.739
			c0.099-0.102,0.143-0.239,0.113-0.366C19.32,11.997,19.236,11.902,19.111,11.86z M18.057,12.611
			c-0.137,0.136-0.275,0.273-0.412,0.408c-0.104,0.104-0.207,0.207-0.311,0.313c-0.154,0.148-0.302,0.302-0.453,0.45
			c-0.109,0.104-0.16,0.229-0.148,0.385c0.008,0.125,0.014,0.254,0.021,0.378l0.005,0.081c0.002,0.097,0.006,0.188,0.012,0.285
			c0.008,0.2,0.018,0.396,0.026,0.599l0.005,0.139c-0.593-0.64-1.18-1.273-1.773-1.914l-0.935-1.002
			c0.896-0.027,1.784-0.053,2.671-0.08L18.057,12.611z"/>
	</g>
	<g>
		<g>
			<rect x="4.639" y="7.231" fill="#CCCED0" width="7.527" height="1.929"/>
		</g>
	</g>
	<g>
		<g>
			<rect x="4.639" y="7.104" fill="#292D32" width="7.527" height="9.793"/>
		</g>
	</g>
</g>
<g>
	<path fill="#292D32" d="M22.076,17.184c0.128-0.621,0.193-1.348,0.203-2.219V9.031c-0.012-0.89-0.076-1.593-0.204-2.21
		c-0.252-1.394-0.759-2.461-1.55-3.271c-0.59-0.618-1.389-1.092-2.377-1.404c-0.905-0.281-2.021-0.426-3.311-0.426l-5.68,0.003
		c-5.146,0-7.439,2.293-7.439,7.438v5.691c0,5.139,2.295,7.43,7.439,7.43h5.681c1.291,0,2.403-0.146,3.312-0.424
		c0.98-0.309,1.762-0.766,2.379-1.398C21.314,19.65,21.82,18.58,22.076,17.184z M18.219,20.133
		c-0.643,0.285-1.443,0.447-2.451,0.496c-0.304,0.021-0.604,0.031-0.927,0.031H9.16c-4.354,0-5.821-1.465-5.821-5.811V9.159
		c0-4.323,1.44-5.79,5.714-5.811l0.108-0.021h5.68c0.33,0,0.646,0.011,0.938,0.03c1.016,0.062,1.818,0.228,2.453,0.509
		c1.193,0.507,1.901,1.432,2.228,2.911c0.131,0.631,0.196,1.367,0.205,2.252v5.938c-0.009,0.889-0.074,1.623-0.205,2.254
		C20.134,18.701,19.422,19.627,18.219,20.133z"/>
</g>
</svg>
