<?xml version="1.0" encoding="utf-8"?>
<!-- Generator: Adobe Illustrator 16.0.0, SVG Export Plug-In . SVG Version: 6.00 Build 0)  -->
<!DOCTYPE svg PUBLIC "-//W3C//DTD SVG 1.1//EN" "http://www.w3.org/Graphics/SVG/1.1/DTD/svg11.dtd">
<svg version="1.1" id="Vrstva_1" xmlns="http://www.w3.org/2000/svg" xmlns:xlink="http://www.w3.org/1999/xlink" x="0px" y="0px"
	 width="24px" height="24px" viewBox="0 0 24 24" enable-background="new 0 0 24 24" xml:space="preserve">
<g>
	<circle fill="#21E900" cx="18.644" cy="17.998" r="4.062"/>
	<g>
		<path fill="#292D32" d="M6.526,12.401c1.186,0,2.174-0.972,2.203-2.166C8.743,9.637,8.522,9.07,8.106,8.64
			C7.691,8.21,7.131,7.966,6.528,7.952H6.486c-1.192,0-2.18,0.974-2.202,2.172c-0.012,0.604,0.208,1.172,0.618,1.598
			c0.411,0.427,0.97,0.668,1.575,0.68H6.526z M5.968,9.636C6.111,9.491,6.299,9.411,6.5,9.411V9.263l0,0l0.005,0.148
			c0.414,0.004,0.764,0.356,0.764,0.769c0,0.416-0.343,0.759-0.769,0.763c-0.414,0-0.752-0.339-0.755-0.756
			C5.743,9.979,5.822,9.783,5.968,9.636z"/>
		<path fill="#292D32" d="M8.066,13.631c-1.219,0.01-2.208,1.011-2.204,2.232c0.004,1.222,1,2.216,2.219,2.216
			c0.597,0,1.159-0.234,1.582-0.658c0.42-0.422,0.651-0.98,0.649-1.571C10.302,14.626,9.298,13.631,8.066,13.631z M8.85,15.855
			c0.001,0.2-0.078,0.391-0.221,0.535c-0.145,0.146-0.336,0.225-0.539,0.225c-0.423,0-0.761-0.329-0.768-0.748
			c-0.001-0.207,0.078-0.402,0.223-0.549c0.144-0.146,0.336-0.225,0.54-0.225H8.09C8.499,15.094,8.847,15.442,8.85,15.855z"/>
		<path fill="#292D32" d="M13.416,5.347c-1.225,0-2.227,0.991-2.233,2.21c-0.003,0.59,0.227,1.148,0.647,1.573
			s0.977,0.659,1.565,0.661h0.013c0.595,0,1.153-0.229,1.572-0.645c0.42-0.417,0.651-0.974,0.651-1.566
			C15.636,6.356,14.65,5.354,13.416,5.347z M13.42,6.809V6.66l0,0l0.007,0.148c0.417,0.005,0.754,0.35,0.749,0.767
			c-0.007,0.423-0.343,0.754-0.768,0.754c-0.42,0-0.761-0.341-0.761-0.761C12.647,7.149,12.994,6.809,13.42,6.809z M13.408,9.641
			L13.408,9.641L13.408,9.641L13.408,9.641z"/>
		<path fill="#292D32" d="M19.674,9.169c-0.726-3.362-3.471-6.163-6.834-6.968c-0.735-0.163-1.495-0.254-2.199-0.261h-0.21
			C10.24,1.942,10.045,1.951,9.843,1.97l-0.13,0.017c-0.239,0.029-0.478,0.059-0.698,0.1C8.995,2.088,8.978,2.092,8.95,2.098
			C8.921,2.102,8.892,2.108,8.838,2.122C5.561,2.835,3.242,4.778,1.945,7.896c-0.432,1.042-0.645,2.19-0.65,3.532
			c-0.004,1.095-0.008,2.227,0.247,3.324c0.613,2.661,2.011,4.715,4.155,6.104c1.038,0.666,2.208,1.058,3.492,1.169l0.052,0.013
			c0.115,0.008,0.241,0.012,0.376,0.012c0.703,0,1.36-0.117,1.961-0.352c1.866-0.843,2.761-2.892,2.081-4.764
			c-0.384-1.08-0.019-2.185,0.953-2.883c0.464-0.327,1.001-0.489,1.797-0.543c1.028-0.066,1.979-0.582,2.609-1.414
			C19.652,11.257,19.892,10.189,19.674,9.169z M17.887,11.173c-0.368,0.515-0.935,0.827-1.593,0.881
			c-0.624,0.046-1.436,0.155-2.187,0.589c-1.712,0.985-2.463,2.945-1.825,4.765c0.255,0.726,0.152,1.499-0.281,2.122
			c-0.455,0.652-1.216,1.05-2.036,1.063l-0.107,0.001c-1.75,0-3.297-0.652-4.6-1.94c-1.404-1.383-2.227-3.155-2.448-5.269
			c-0.034-0.323-0.044-0.657-0.053-0.98c-0.005-0.166-0.009-0.331-0.017-0.492c-0.024-1.284,0.118-2.288,0.45-3.16
			c1.167-3.053,3.312-4.825,6.376-5.267c0.37-0.054,0.745-0.08,1.115-0.08c3.542,0,6.638,2.435,7.528,5.921
			C18.375,9.979,18.258,10.653,17.887,11.173z"/>
	</g>
	<g>
		<path fill="#FFFFFF" d="M18.65,20.601c-0.092,0.014-0.187-0.008-0.266-0.059l-1.703-1.117c-0.179-0.117-0.229-0.356-0.111-0.536
			c0.117-0.179,0.356-0.229,0.535-0.111l1.312,0.856l1.617-4.002c0.08-0.196,0.307-0.293,0.504-0.213
			c0.199,0.08,0.296,0.306,0.215,0.505l-1.796,4.438c-0.043,0.107-0.134,0.19-0.244,0.225C18.693,20.594,18.671,20.598,18.65,20.601
			z"/>
	</g>
</g>
</svg>
