<?xml version="1.0" encoding="utf-8"?>
<!-- Generator: Adobe Illustrator 16.0.0, SVG Export Plug-In . SVG Version: 6.00 Build 0)  -->
<!DOCTYPE svg PUBLIC "-//W3C//DTD SVG 1.1//EN" "http://www.w3.org/Graphics/SVG/1.1/DTD/svg11.dtd">
<svg version="1.1" id="Vrstva_1" xmlns="http://www.w3.org/2000/svg" xmlns:xlink="http://www.w3.org/1999/xlink" x="0px" y="0px"
	 width="24px" height="24px" viewBox="0 0 24 24" enable-background="new 0 0 24 24" xml:space="preserve">
<g>
	<g>
		<path fill="#292D32" d="M19.112,11.86c-0.045-0.017-0.1-0.024-0.167-0.024l-0.837,0.022c-1.454,0.045-3.034,0.093-4.825,0.143
			c-0.148,0.007-0.265,0.073-0.335,0.179c-0.054,0.09-0.074,0.198-0.048,0.289c0.002,0.011,0.005,0.021,0.014,0.041l0.006,0.02
			l0.021,0.036c0.021,0.027,0.044,0.064,0.071,0.086c1.307,1.415,2.614,2.83,3.921,4.237c0.1,0.106,0.22,0.154,0.344,0.132
			c0.015,0,0.032-0.005,0.05-0.011c0.013-0.002,0.021-0.006,0.034-0.012c0.152-0.062,0.239-0.209,0.23-0.385l-0.041-0.907
			c-0.022-0.481-0.041-0.966-0.065-1.452c0-0.018,0.002-0.018,0.011-0.028c0.583-0.578,1.159-1.156,1.743-1.738
			c0.098-0.102,0.142-0.239,0.113-0.366C19.32,11.997,19.236,11.902,19.112,11.86z M18.057,12.611
			c-0.137,0.136-0.276,0.274-0.413,0.409c-0.104,0.104-0.207,0.206-0.31,0.312c-0.154,0.149-0.302,0.302-0.453,0.45
			c-0.109,0.105-0.16,0.23-0.148,0.385c0.007,0.125,0.013,0.254,0.02,0.378l0.005,0.081c0.002,0.096,0.006,0.189,0.011,0.285
			c0.009,0.2,0.018,0.396,0.027,0.599l0.005,0.138c-0.593-0.639-1.18-1.273-1.773-1.913l-0.935-1.003
			c0.896-0.027,1.784-0.053,2.671-0.08L18.057,12.611z"/>
	</g>
	<g>
		<g>
			<rect x="4.639" y="7.231" fill="#CCCED0" width="7.527" height="1.929"/>
		</g>
	</g>
	<g>
		<g>
			<rect x="4.639" y="11.164" fill="#292D32" width="7.527" height="1.928"/>
		</g>
	</g>
	<g>
		<g>
			<rect x="4.639" y="15.097" fill="#CCCED0" width="7.527" height="1.928"/>
		</g>
	</g>
</g>
<g>
	<path fill="#292D32" d="M22.076,17.183c0.128-0.621,0.194-1.346,0.204-2.217V9.031c-0.012-0.89-0.077-1.593-0.205-2.21
		c-0.252-1.394-0.758-2.461-1.549-3.271c-0.59-0.618-1.389-1.092-2.377-1.404c-0.906-0.281-2.021-0.426-3.311-0.426l-5.68,0.003
		c-5.146,0-7.439,2.293-7.439,7.438v5.69c0,5.139,2.295,7.43,7.439,7.43h5.681c1.291,0,2.403-0.145,3.312-0.424
		c0.98-0.307,1.761-0.764,2.379-1.398C21.315,19.651,21.821,18.581,22.076,17.183z M18.219,20.134
		c-0.643,0.285-1.444,0.447-2.452,0.496c-0.303,0.021-0.604,0.031-0.926,0.031H9.16c-4.354,0-5.821-1.465-5.821-5.811V9.159
		c0-4.323,1.44-5.79,5.714-5.811l0.108-0.021h5.68c0.33,0,0.645,0.011,0.938,0.03c1.016,0.062,1.818,0.228,2.453,0.509
		c1.194,0.507,1.902,1.432,2.228,2.911c0.131,0.631,0.196,1.367,0.205,2.252v5.938c-0.009,0.889-0.074,1.623-0.205,2.254
		C20.134,18.702,19.422,19.628,18.219,20.134z"/>
</g>
</svg>
