<?xml version="1.0" encoding="utf-8"?>
<!-- Generator: Adobe Illustrator 16.0.0, SVG Export Plug-In . SVG Version: 6.00 Build 0)  -->
<!DOCTYPE svg PUBLIC "-//W3C//DTD SVG 1.1//EN" "http://www.w3.org/Graphics/SVG/1.1/DTD/svg11.dtd">
<svg version="1.1" id="Vrstva_1" xmlns="http://www.w3.org/2000/svg" xmlns:xlink="http://www.w3.org/1999/xlink" x="0px" y="0px"
	 width="24px" height="24px" viewBox="0 0 24 24" enable-background="new 0 0 24 24" xml:space="preserve">
<g>
	<path fill="none" stroke="#292D32" stroke-width="1.4" stroke-miterlimit="10" d="M5.069,8.156h8.628c1.104,0,2,0.896,2,2v8.629
		c0,1.104-0.896,2-2,2H5.069c-1.104,0-2-0.896-2-2v-8.629C3.069,9.051,3.965,8.156,5.069,8.156z"/>
	<path fill="#292D32" d="M15.287,6.038c0,0.281,0.199,0.51,0.445,0.51h4.748c0.246,0,0.449-0.229,0.449-0.51l0,0
		c0-0.279-0.201-0.508-0.449-0.508h-4.748C15.486,5.53,15.287,5.758,15.287,6.038L15.287,6.038z"/>
	<path fill="#292D32" d="M18.107,3.215c-0.279,0-0.508,0.203-0.508,0.449V8.41c0,0.25,0.229,0.451,0.508,0.451l0,0
		c0.279,0,0.509-0.203,0.509-0.45V3.665C18.616,3.418,18.389,3.215,18.107,3.215"/>
</g>
<path fill="#292D32" d="M13.564,12.111c0.007,1.156-0.962,2.128-2.12,2.13c-1.174,0-2.135-0.961-2.135-2.13
	c0-1.165,0.947-2.117,2.12-2.128C12.591,9.969,13.559,10.933,13.564,12.111z M11.429,13.078c0.525,0.007,0.974-0.435,0.975-0.963
	c0.002-0.53-0.437-0.972-0.969-0.972c-0.52,0-0.955,0.43-0.965,0.955C10.458,12.627,10.894,13.072,11.429,13.078z"/>
<path fill="#292D32" d="M15.411,17.156c-0.478-0.384-0.938-0.75-1.396-1.104c-0.638-0.505-1.34-0.527-1.999-0.055
	c-0.583,0.417-1.176,0.846-1.758,1.273c-0.252,0.176-0.407,0.165-0.627-0.044c-0.57-0.582-1.141-1.153-1.713-1.724
	c-0.681-0.681-1.526-0.715-2.263-0.088c-0.935,0.79-1.867,1.57-2.802,2.361c-0.011,0.011-0.021,0.022-0.044,0.032v1.594
	c0.056-0.109,0.154-0.221,0.275-0.319c1.121-0.912,2.23-1.856,3.351-2.789c0.252-0.221,0.428-0.21,0.658,0.033
	c0.572,0.581,1.143,1.164,1.713,1.746c0.649,0.659,1.461,0.715,2.197,0.153c0.55-0.428,1.099-0.856,1.66-1.285
	c0.23-0.187,0.384-0.187,0.614,0c0.704,0.56,1.417,1.132,2.109,1.702c0.01,0.007,0.015,0.02,0.023,0.027V17.156z"/>
</svg>
