<?xml version="1.0" encoding="utf-8"?>
<!-- Generator: Adobe Illustrator 16.0.0, SVG Export Plug-In . SVG Version: 6.00 Build 0)  -->
<!DOCTYPE svg PUBLIC "-//W3C//DTD SVG 1.1//EN" "http://www.w3.org/Graphics/SVG/1.1/DTD/svg11.dtd">
<svg version="1.1" id="Vrstva_1" xmlns="http://www.w3.org/2000/svg" xmlns:xlink="http://www.w3.org/1999/xlink" x="0px" y="0px"
	 width="24px" height="24px" viewBox="0 0 24 24" enable-background="new 0 0 24 24" xml:space="preserve">
<g>
	<path fill="#292D32" stroke="#292D32" stroke-width="0.2" stroke-miterlimit="10" d="M11.987,14.505
		c-2.647,0.009-4.82-2.152-4.828-4.801c-0.01-2.663,2.153-4.833,4.818-4.837c2.656-0.003,4.824,2.144,4.828,4.8
		C16.82,12.329,14.656,14.501,11.987,14.505z M11.958,13.266c1.961,0.02,3.586-1.575,3.61-3.538
		c0.023-1.964-1.566-3.599-3.525-3.622C10.048,6.084,8.42,7.665,8.396,9.641C8.374,11.625,9.969,13.245,11.958,13.266z"/>
	<path fill-rule="evenodd" clip-rule="evenodd" fill="#292D32" stroke="#292D32" stroke-width="0.3" stroke-miterlimit="10" d="
		M11.287,10.553c0.721-0.681,1.413-1.333,2.104-1.987c0.166-0.156,0.33-0.314,0.498-0.468c0.189-0.174,0.41-0.183,0.561-0.027
		c0.154,0.158,0.137,0.374-0.057,0.556c-0.932,0.881-1.865,1.761-2.798,2.638c-0.21,0.198-0.409,0.193-0.612-0.013
		c-0.476-0.483-0.947-0.97-1.42-1.456c-0.114-0.118-0.2-0.259-0.12-0.413c0.052-0.1,0.161-0.193,0.266-0.234
		c0.155-0.061,0.281,0.042,0.389,0.153c0.357,0.368,0.715,0.735,1.071,1.104C11.208,10.446,11.24,10.494,11.287,10.553z"/>
	<g>
		<path fill="#292D32" d="M19.605,9.754c-0.025-0.07-0.025-0.168,0-0.247c0.203-0.596,0.377-1.082,0.547-1.53
			c0.059-0.156,0.033-0.271-0.094-0.396c-0.373-0.355-0.76-0.74-1.154-1.142c-0.055-0.055-0.098-0.137-0.105-0.201
			c-0.061-0.479-0.125-1.045-0.172-1.618c-0.014-0.186-0.094-0.285-0.275-0.341c-0.48-0.159-0.99-0.329-1.498-0.511
			c-0.084-0.031-0.174-0.104-0.223-0.179c-0.316-0.489-0.615-0.986-0.84-1.365C15.703,2.08,15.607,2.03,15.426,2.05
			c-0.547,0.076-1.096,0.138-1.66,0.202c-0.047,0.006-0.107-0.002-0.107-0.002c-0.52-0.337-1.043-0.679-1.563-1.02L12.07,1.213
			h-0.144L11.9,1.23c-0.095,0.063-0.192,0.125-0.289,0.187c-0.218,0.139-0.444,0.283-0.65,0.449
			c-0.426,0.35-0.866,0.451-1.398,0.315c-0.216-0.054-0.44-0.074-0.657-0.093C8.787,2.077,8.668,2.066,8.551,2.05
			c-0.189-0.027-0.276,0.073-0.33,0.161C7.979,2.619,7.688,3.1,7.379,3.575C7.321,3.662,7.218,3.743,7.123,3.778
			C6.622,3.967,6.108,4.138,5.627,4.294C5.459,4.349,5.388,4.442,5.371,4.625c-0.047,0.58-0.112,1.143-0.169,1.616
			C5.193,6.31,5.15,6.393,5.098,6.445c-0.34,0.347-0.719,0.722-1.158,1.148c-0.091,0.089-0.165,0.198-0.092,0.39
			c0.201,0.532,0.384,1.046,0.545,1.528c0.025,0.075,0.026,0.177,0,0.247c-0.167,0.499-0.349,1.007-0.541,1.511
			c-0.065,0.172-0.039,0.297,0.095,0.432c0.348,0.325,0.712,0.683,1.146,1.126c0.057,0.058,0.102,0.147,0.108,0.224
			c0.067,0.547,0.126,1.098,0.174,1.636c0.015,0.151,0.08,0.234,0.229,0.289c0.175,0.056,0.349,0.114,0.527,0.175
			c0.088,0.03,0.177,0.061,0.268,0.091l0.872,0.238l0.547,0.922l0.003,0.011c0.13,0.209,0.26,0.416,0.376,0.622
			c0.078,0.132,0.174,0.191,0.313,0.191c0.021,0,0.043-0.002,0.069-0.005c0.497-0.066,0.995-0.128,1.493-0.188l0.045-0.007
			c0.063-0.008,0.134-0.011,0.196-0.004l0.005-0.002l0.016,0.009c0.036,0.006,0.076,0.011,0.09,0.03c0.003,0.004-0.002-0.004,0,0
			l1.556,0.89c0,0-0.005,0.023-0.012,0.052c0.083,0.009,0.164-0.012,0.241-0.052l1.364-0.884c0.002-0.002,0-0.008,0.002-0.01
			c0.014-0.017,0.037-0.026,0.064-0.032v-0.001l0,0c0.027-0.006,0.057-0.007,0.076-0.007c0.025,0,0.053,0.001,0.082,0.005
			c0.24,0.022,0.482,0.054,0.725,0.084c0.141,0.017,0.279,0.034,0.418,0.051c0.061,0.006,0.125,0.019,0.188,0.031
			c0.178,0.034,0.367,0.054,0.494,0.003l1.182-2.006h0.961c0.188-0.069,0.363-0.135,0.547-0.182c0.254-0.065,0.305-0.23,0.32-0.402
			c0.039-0.53,0.102-1.061,0.166-1.557c0.006-0.073,0.051-0.161,0.107-0.22c0.355-0.366,0.725-0.73,1.131-1.111
			c0.146-0.138,0.178-0.273,0.104-0.468C19.967,10.791,19.793,10.304,19.605,9.754z M18.111,9.891
			c0.086,0.221,0.166,0.447,0.248,0.672c0.059,0.162,0.115,0.324,0.176,0.484c0.031,0.078,0.025,0.107-0.033,0.16
			c-0.281,0.266-0.58,0.56-0.914,0.9c-0.092,0.098-0.154,0.23-0.17,0.354c-0.059,0.406-0.105,0.836-0.139,1.277
			c-0.006,0.084-0.027,0.106-0.117,0.138c-0.396,0.13-0.807,0.265-1.211,0.418c-0.117,0.043-0.229,0.132-0.293,0.231
			c-0.258,0.392-0.475,0.743-0.664,1.073c-0.063,0.112-0.129,0.104-0.215,0.096c-0.443-0.064-0.846-0.114-1.232-0.152l-0.033-0.001
			c-0.109,0-0.236,0.033-0.352,0.095c-0.316,0.191-0.658,0.409-1.049,0.668c-0.049,0.032-0.083,0.047-0.112,0.047
			c-0.018,0-0.048-0.004-0.105-0.043c-0.328-0.222-0.682-0.446-1.076-0.685c-0.065-0.044-0.138-0.065-0.186-0.079
			c-0.013-0.004-0.023-0.007-0.031-0.011l-0.023-0.009l-0.438,0.054c-0.315,0.038-0.613,0.074-0.915,0.116
			c-0.097,0.016-0.161,0.021-0.231-0.098c-0.192-0.34-0.408-0.693-0.661-1.081c-0.059-0.091-0.159-0.17-0.278-0.22
			c-0.426-0.157-0.822-0.292-1.208-0.414c-0.096-0.033-0.122-0.054-0.128-0.153c-0.035-0.444-0.08-0.854-0.136-1.251
			c-0.017-0.132-0.088-0.272-0.195-0.386c-0.271-0.289-0.559-0.563-0.836-0.828l-0.061-0.058c-0.057-0.058-0.059-0.083-0.033-0.146
			l0.029-0.077c0.135-0.362,0.274-0.736,0.393-1.112C5.929,9.734,5.928,9.549,5.88,9.4C5.751,8.992,5.597,8.581,5.464,8.235
			C5.436,8.155,5.441,8.13,5.499,8.075C5.86,7.731,6.151,7.445,6.411,7.176c0.087-0.086,0.156-0.218,0.173-0.338
			c0.053-0.401,0.1-0.831,0.143-1.314C6.733,5.455,6.748,5.438,6.82,5.415C7.19,5.293,7.619,5.15,8.033,4.998
			c0.125-0.046,0.251-0.147,0.322-0.256c0.249-0.377,0.48-0.763,0.673-1.089c0.054-0.09,0.088-0.08,0.149-0.072
			c0.479,0.066,0.916,0.118,1.334,0.158c0.095,0.008,0.21-0.021,0.309-0.079c0.356-0.22,0.724-0.447,1.079-0.691
			c0.054-0.036,0.084-0.04,0.102-0.04c0.03,0,0.065,0.014,0.113,0.046c0.354,0.236,0.717,0.467,1.08,0.688
			c0.074,0.048,0.184,0.076,0.291,0.076l0.041-0.001c0.486-0.051,0.916-0.102,1.309-0.156c0.055-0.007,0.086-0.021,0.133,0.061
			c0.207,0.353,0.434,0.729,0.68,1.09c0.074,0.113,0.203,0.215,0.336,0.267c0.211,0.079,0.422,0.15,0.631,0.221
			c0.191,0.065,0.383,0.13,0.572,0.2c0.031,0.011,0.078,0.069,0.08,0.099c0.033,0.233,0.057,0.466,0.082,0.698
			c0.023,0.211,0.045,0.421,0.072,0.628c0.012,0.11,0.076,0.236,0.162,0.321c0.311,0.32,0.623,0.628,0.928,0.915
			c0.055,0.053,0.059,0.073,0.031,0.141C18.475,8.4,18.41,8.58,18.346,8.759c-0.078,0.216-0.156,0.432-0.236,0.643
			C18.045,9.564,18.047,9.719,18.111,9.891z"/>
	</g>
	<path fill-rule="evenodd" clip-rule="evenodd" fill="#292D32" d="M14.105,22.69c0.283,0,0.5-0.146,0.641-0.435
		c0.209-0.434,0.42-0.868,0.629-1.303l0.426-0.881c0.031-0.064,0.064-0.127,0.1-0.196l0.084-0.159l0.078,0.021
		c0.701,0.196,1.398,0.388,2.094,0.579l0.17,0.047c0.051,0.015,0.104,0.029,0.156,0.045c0.074,0.022,0.15,0.045,0.225,0.063
		c0.084,0.021,0.164,0.03,0.238,0.03c0.205,0,0.369-0.077,0.504-0.235c0.191-0.222,0.223-0.478,0.098-0.76
		c-0.275-0.615-0.553-1.229-0.832-1.844c-0.133-0.296-0.285-0.62-0.441-0.955c-0.301-0.65-0.613-1.322-0.859-1.908l-1.152,0.738
		l0.547,1.245c0.264,0.584,0.527,1.17,0.799,1.773l0.084,0.187l-0.199-0.049c-0.041-0.01-0.074-0.017-0.102-0.022
		c-0.033-0.008-0.061-0.014-0.086-0.021l-1.369-0.376c-0.527-0.146-0.777-0.032-1.018,0.466l-0.49,1.01
		c-0.063,0.13-0.125,0.26-0.213,0.438l-0.094,0.19l-1.525-3.376l-0.826,0.324l-0.825-0.324l-1.527,3.376l-0.093-0.19
		c-0.087-0.178-0.15-0.308-0.213-0.438l-0.49-1.009c-0.24-0.498-0.492-0.61-1.017-0.466l-1.371,0.377
		c-0.024,0.007-0.05,0.013-0.085,0.021c-0.027,0.006-0.06,0.013-0.101,0.022l-0.199,0.049l0.084-0.187
		c0.271-0.604,0.535-1.189,0.8-1.774l0.655-1.438l-1.362-0.281c-0.224,0.534-0.477,1.064-0.722,1.578
		c-0.162,0.34-0.324,0.68-0.479,1.021c-0.278,0.615-0.556,1.229-0.831,1.844c-0.126,0.282-0.094,0.538,0.096,0.759
		c0.185,0.217,0.429,0.285,0.742,0.206c0.076-0.019,0.151-0.041,0.227-0.063c0.052-0.016,0.104-0.03,0.156-0.045l0.17-0.047
		c0.695-0.191,1.392-0.383,2.093-0.579l0.078-0.021l0.083,0.159c0.036,0.069,0.069,0.133,0.1,0.197l0.425,0.88
		c0.21,0.435,0.419,0.869,0.63,1.303c0.141,0.288,0.356,0.435,0.641,0.435c0.299-0.006,0.511-0.154,0.647-0.441
		c0.023-0.048,0.044-0.094,0.065-0.14l1.623-3.59l1.623,3.59c0.021,0.046,0.043,0.092,0.064,0.139
		c0.137,0.288,0.35,0.437,0.631,0.442l0.018,0.098l0,0V22.69z"/>
</g>
</svg>
