<?xml version="1.0" encoding="utf-8"?>
<!-- Generator: Adobe Illustrator 16.0.0, SVG Export Plug-In . SVG Version: 6.00 Build 0)  -->
<!DOCTYPE svg PUBLIC "-//W3C//DTD SVG 1.1//EN" "http://www.w3.org/Graphics/SVG/1.1/DTD/svg11.dtd">
<svg version="1.1" id="Vrstva_1" xmlns="http://www.w3.org/2000/svg" xmlns:xlink="http://www.w3.org/1999/xlink" x="0px" y="0px"
	 width="24px" height="24px" viewBox="0 0 24 24" enable-background="new 0 0 24 24" xml:space="preserve">
<g>
	<g>
		<path fill="#292D32" d="M22.52,5.539c-0.156-0.208-0.406-0.292-0.654-0.239c-0.215,0.042-0.379,0.179-0.491,0.411
			c-0.093,0.199-0.188,0.396-0.286,0.594L21,6.484l-0.076-0.036l0.385-0.784c0.229-0.49,0.318-0.908,0.283-1.315
			c-0.098-1.286-0.982-2.325-2.246-2.646C19.1,1.643,18.85,1.611,18.6,1.611c-1.072,0-2.012,0.56-2.447,1.46
			c-2.148,4.415-4.289,8.831-6.421,13.25c-0.104,0.213-0.163,0.475-0.158,0.72c0.017,1.006,0.06,2.015,0.102,2.961
			c0.009,0.183,0.021,0.431,0.146,0.597c0.143,0.189,0.136,0.334-0.034,0.594c-0.023,0.039-0.041,0.082-0.062,0.131
			c-0.147,0.347-0.01,0.728,0.319,0.886c0.087,0.043,0.179,0.065,0.274,0.065c0.238,0,0.458-0.135,0.586-0.355
			c0.042-0.07,0.077-0.146,0.112-0.221c0.03-0.067,0.062-0.133,0.093-0.188c0.012-0.017,0.042-0.037,0.049-0.041
			c0.349-0.018,0.665-0.14,0.964-0.369c0.743-0.55,1.489-1.097,2.237-1.637c0.252-0.182,0.443-0.413,0.589-0.707
			c1.016-2.102,2.034-4.197,3.055-6.297c0.771-1.588,1.544-3.177,2.313-4.767c0.009-0.017,0.017-0.033,0.024-0.05
			c0.024,0.012,0.05,0.025,0.073,0.037l-2.311,4.762c-0.051,0.104-0.095,0.209-0.123,0.317c-0.086,0.35,0.111,0.688,0.463,0.782
			c0.063,0.019,0.123,0.026,0.183,0.026c0.183,0,0.44-0.084,0.638-0.478l2.248-4.64c0.225-0.458,0.446-0.915,0.67-1.373l0.401-0.827
			C22.709,6.001,22.686,5.755,22.52,5.539z M18.052,9.316c-0.135,0.285-0.27,0.563-0.401,0.838l-1.301,2.679
			c-0.826,1.701-1.652,3.403-2.477,5.104c-0.075,0.151-0.107,0.106-0.188,0.092c-1.023-0.163-1.89-0.596-2.646-1.319
			c-0.025-0.022-0.032-0.034-0.014-0.062c1.055-2.166,2.105-4.33,3.156-6.496l1.064-2.195C16.184,8.41,17.113,8.861,18.052,9.316z
			 M18.563,2.766v0.169c0.666,0,1.168,0.278,1.496,0.825c0.267,0.446,0.273,0.889,0.022,1.395c-0.349,0.691-0.685,1.388-1.021,2.084
			L18.654,8.08c-0.008,0.012-0.014,0.024-0.02,0.038L15.831,6.76c0.071-0.151,0.144-0.298,0.212-0.442l0.466-0.963
			c0.253-0.521,0.507-1.042,0.757-1.563c0.271-0.564,0.703-0.852,1.28-0.858L18.563,2.766L18.563,2.766z M12.541,19.15l-0.27,0.197
			c-0.317,0.231-0.635,0.463-0.948,0.695c-0.119,0.086-0.185,0.105-0.25,0.07c-0.055-0.027-0.081-0.067-0.086-0.236
			c-0.012-0.35-0.025-0.693-0.039-1.053l-0.02-0.496C11.438,18.672,11.96,18.939,12.541,19.15z"/>
	</g>
	<g>
		<path fill="#292D32" d="M7.684,22.389c-1.105,0-1.947-0.215-2.457-0.847c-0.683-0.847-0.629-2.28,0.173-4.651
			c0.505-1.492,0.518-2.516,0.035-2.955c-0.804-0.738-2.982-0.025-3.682,0.281l-0.418-0.951c0.339-0.146,3.359-1.419,4.801-0.098
			c0.82,0.751,0.903,2.116,0.247,4.055c-0.648,1.916-0.766,3.15-0.349,3.668c0.465,0.578,1.855,0.504,3.152,0.357l0.116,1.031
			C8.716,22.346,8.174,22.389,7.684,22.389z"/>
	</g>
</g>
<circle fill="#F12D32" cx="8.572" cy="5.808" r="4.197"/>
<g>
	<path fill="#FFFFFF" d="M6.366,7.536c0-0.004,0-0.009,0-0.013C6.367,7.508,6.375,7.502,6.377,7.49
		c0.006-0.127,0.07-0.231,0.157-0.32c0.438-0.433,0.866-0.871,1.301-1.302c0.066-0.063,0.066-0.049,0-0.115
		C7.401,5.316,6.969,4.88,6.531,4.446C6.457,4.373,6.402,4.285,6.384,4.18c-0.006-0.028-0.012-0.051-0.018-0.08
		c0-0.004,0-0.011,0-0.016C6.37,4.071,6.377,4.057,6.377,4.042c0.019-0.201,0.161-0.374,0.365-0.419
		c0.033-0.008,0.07-0.015,0.106-0.022c0.005,0,0.008,0,0.008,0C6.867,3.604,6.878,3.61,6.886,3.61
		c0.141,0.005,0.249,0.076,0.344,0.174c0.435,0.437,0.874,0.873,1.312,1.31c0.027,0.026,0.048,0.032,0.073,0
		c0.006-0.009,0.015-0.02,0.027-0.027C9.076,4.63,9.51,4.199,9.945,3.765c0.072-0.076,0.159-0.125,0.259-0.147
		c0.032-0.004,0.059-0.011,0.091-0.016h0.005c0.018,0.002,0.036,0.009,0.049,0.009c0.237,0.017,0.442,0.261,0.429,0.495
		c-0.013,0.14-0.069,0.251-0.164,0.345c-0.44,0.438-0.88,0.875-1.315,1.315c-0.042,0.042-0.042,0.042,0,0.086
		c0.435,0.437,0.871,0.868,1.306,1.307c0.019,0.013,0.034,0.035,0.051,0.048c0.227,0.247,0.136,0.652-0.177,0.768
		c-0.2,0.076-0.38,0.035-0.531-0.116C9.51,7.421,9.064,6.976,8.629,6.539c-0.048-0.05-0.048-0.05-0.096,0
		c-0.444,0.44-0.887,0.888-1.329,1.328C7.068,8,6.907,8.042,6.727,7.992c-0.184-0.05-0.293-0.178-0.339-0.365
		C6.375,7.595,6.372,7.565,6.366,7.536z"/>
</g>
</svg>
