<?xml version="1.0" encoding="utf-8"?>
<!-- Generator: Adobe Illustrator 16.0.0, SVG Export Plug-In . SVG Version: 6.00 Build 0)  -->
<!DOCTYPE svg PUBLIC "-//W3C//DTD SVG 1.1//EN" "http://www.w3.org/Graphics/SVG/1.1/DTD/svg11.dtd">
<svg version="1.1" id="Vrstva_1" xmlns="http://www.w3.org/2000/svg" xmlns:xlink="http://www.w3.org/1999/xlink" x="0px" y="0px"
	 width="24px" height="24px" viewBox="0 0 24 24" enable-background="new 0 0 24 24" xml:space="preserve">
<g>
	<g>
		<path fill="#292D32" d="M4.679,14.168c0-2.972,2.008-5.06,4.817-5.06c2.811,0,4.735,2.088,4.735,5.06
			c0,2.889-1.848,5.057-4.815,5.057C6.604,19.225,4.679,17.057,4.679,14.168z"/>
	</g>
	<path fill="#292D32" d="M12.926,7.973c0,0.318,0.227,0.577,0.506,0.577h5.382c0.277,0,0.507-0.259,0.507-0.577l0,0
		c0-0.318-0.229-0.576-0.507-0.576h-5.382C13.152,7.396,12.926,7.655,12.926,7.973L12.926,7.973z"/>
	<path fill="#292D32" d="M16.121,11.169c0.317,0,0.576-0.228,0.576-0.508V5.283c0-0.279-0.259-0.508-0.576-0.508l0,0
		c-0.315,0-0.574,0.229-0.574,0.508v5.38C15.547,10.943,15.806,11.169,16.121,11.169L16.121,11.169z"/>
</g>
</svg>
