<?xml version="1.0" encoding="utf-8"?>
<!-- Generator: Adobe Illustrator 16.0.0, SVG Export Plug-In . SVG Version: 6.00 Build 0)  -->
<!DOCTYPE svg PUBLIC "-//W3C//DTD SVG 1.1//EN" "http://www.w3.org/Graphics/SVG/1.1/DTD/svg11.dtd">
<svg version="1.1" id="Vrstva_1" xmlns="http://www.w3.org/2000/svg" xmlns:xlink="http://www.w3.org/1999/xlink" x="0px" y="0px"
	 width="24px" height="24px" viewBox="0 0 24 24" enable-background="new 0 0 24 24" xml:space="preserve">
<circle fill="#57B400" cx="10.453" cy="13.176" r="7.736"/>
<g>
	<path fill="#FFFFFF" d="M15.982,10.202c-0.053,0.27-0.221,0.466-0.413,0.657c-1.996,1.992-3.996,3.988-5.987,5.976
		c-0.271,0.276-0.585,0.392-0.961,0.259c-0.131-0.047-0.262-0.134-0.364-0.235c-1.016-1.004-2.024-2.022-3.038-3.034
		c-0.152-0.15-0.243-0.329-0.291-0.535c0-0.074,0-0.147,0-0.22c0.049-0.203,0.127-0.39,0.287-0.536
		c0.378-0.332,0.881-0.307,1.255,0.068c0.783,0.776,1.562,1.557,2.346,2.342c0.026,0.03,0.05,0.06,0.089,0.121
		c0.047-0.057,0.063-0.091,0.094-0.116c1.812-1.81,3.625-3.625,5.441-5.445c0.262-0.262,0.568-0.376,0.931-0.262
		c0.32,0.104,0.507,0.323,0.591,0.648c0.008,0.026,0.016,0.047,0.022,0.065C15.982,10.043,15.982,10.121,15.982,10.202z"/>
</g>
<g>
	<path fill="#292D32" d="M15.623,5.896c0,0.281,0.2,0.51,0.445,0.51h4.748c0.246,0,0.449-0.229,0.449-0.51l0,0
		c0-0.28-0.201-0.509-0.449-0.509h-4.748C15.823,5.388,15.623,5.616,15.623,5.896L15.623,5.896z"/>
	<path fill="#292D32" d="M18.443,3.074c-0.279,0-0.508,0.202-0.508,0.449v4.746c0,0.25,0.229,0.451,0.508,0.451l0,0
		c0.279,0,0.509-0.203,0.509-0.45V3.523C18.952,3.276,18.725,3.074,18.443,3.074"/>
</g>
</svg>
