<?xml version="1.0" encoding="utf-8"?>
<!-- Generator: Adobe Illustrator 16.0.0, SVG Export Plug-In . SVG Version: 6.00 Build 0)  -->
<!DOCTYPE svg PUBLIC "-//W3C//DTD SVG 1.1//EN" "http://www.w3.org/Graphics/SVG/1.1/DTD/svg11.dtd">
<svg version="1.1" id="Vrstva_1" xmlns="http://www.w3.org/2000/svg" xmlns:xlink="http://www.w3.org/1999/xlink" x="0px" y="0px"
	 width="24px" height="24px" viewBox="0 0 24 24" enable-background="new 0 0 24 24" xml:space="preserve">
<g>
	<g>
		<circle fill="#292D32" cx="8.556" cy="20.988" r="1.631"/>
		<path fill="#292D32" d="M8.277,1.45c-0.09,0.038-0.176,0.091-0.242,0.163L5.77,3.879c-0.297,0.294-0.297,0.771,0,1.064
			c0.292,0.293,0.767,0.293,1.062,0l0.938-0.948v7.672v6.503h1.584V3.99l0.939,0.938c0.293,0.295,0.772,0.295,1.057,0
			c0.15-0.144,0.222-0.337,0.222-0.527c0-0.193-0.069-0.379-0.222-0.527L9.08,1.609C9.019,1.536,8.937,1.477,8.843,1.445
			C8.761,1.396,8.66,1.381,8.558,1.381C8.466,1.396,8.365,1.414,8.277,1.45z"/>
	</g>
	<path fill="#292D32" d="M12.793,4.273c0,0.281,0.2,0.51,0.445,0.51h4.749c0.246,0,0.447-0.229,0.447-0.51l0,0
		c0-0.28-0.2-0.509-0.447-0.509h-4.749C12.993,3.764,12.793,3.992,12.793,4.273L12.793,4.273z"/>
	<path fill="#292D32" d="M15.613,1.45c-0.279,0-0.509,0.202-0.509,0.449v4.746c0,0.25,0.229,0.451,0.509,0.451l0,0
		c0.28,0,0.509-0.203,0.509-0.45V1.899C16.122,1.653,15.894,1.45,15.613,1.45"/>
</g>
</svg>
