<?xml version="1.0" encoding="utf-8"?>
<!-- Generator: Adobe Illustrator 16.0.0, SVG Export Plug-In . SVG Version: 6.00 Build 0)  -->
<!DOCTYPE svg PUBLIC "-//W3C//DTD SVG 1.1//EN" "http://www.w3.org/Graphics/SVG/1.1/DTD/svg11.dtd">
<svg version="1.1" id="Vrstva_1" xmlns="http://www.w3.org/2000/svg" xmlns:xlink="http://www.w3.org/1999/xlink" x="0px" y="0px"
	 width="24px" height="24px" viewBox="0 0 24 24" enable-background="new 0 0 24 24" xml:space="preserve">
<g>
	<g>
		<circle fill="#292D32" cx="3.012" cy="14.734" r="1.631"/>
		<path fill="#292D32" d="M22.55,14.455c-0.039-0.09-0.091-0.176-0.163-0.242l-2.266-2.265c-0.294-0.297-0.771-0.297-1.064,0
			c-0.293,0.292-0.293,0.767,0,1.062l0.948,0.938h-7.672H5.83v1.584h14.18l-0.938,0.939c-0.295,0.293-0.295,0.771,0,1.057
			c0.144,0.15,0.337,0.221,0.527,0.221c0.194,0,0.38-0.07,0.528-0.221l2.263-2.27c0.074-0.061,0.134-0.143,0.164-0.236
			c0.049-0.082,0.065-0.184,0.065-0.285C22.604,14.645,22.586,14.543,22.55,14.455z"/>
	</g>
	<path fill="#292D32" d="M13.716,9.075c0,0.281,0.2,0.51,0.445,0.51h4.749c0.246,0,0.448-0.229,0.448-0.51l0,0
		c0-0.28-0.201-0.509-0.448-0.509h-4.749C13.916,8.566,13.716,8.794,13.716,9.075L13.716,9.075z"/>
	<path fill="#292D32" d="M16.536,6.252c-0.279,0-0.508,0.202-0.508,0.449v4.746c0,0.25,0.229,0.451,0.508,0.451l0,0
		c0.28,0,0.509-0.203,0.509-0.45V6.701C17.045,6.455,16.816,6.252,16.536,6.252"/>
</g>
</svg>
