<?xml version="1.0" encoding="utf-8"?>
<!-- Generator: Adobe Illustrator 16.0.0, SVG Export Plug-In . SVG Version: 6.00 Build 0)  -->
<!DOCTYPE svg PUBLIC "-//W3C//DTD SVG 1.1//EN" "http://www.w3.org/Graphics/SVG/1.1/DTD/svg11.dtd">
<svg version="1.1" id="Vrstva_1" xmlns="http://www.w3.org/2000/svg" xmlns:xlink="http://www.w3.org/1999/xlink" x="0px" y="0px"
	 width="24px" height="24px" viewBox="0 0 24 24" enable-background="new 0 0 24 24" xml:space="preserve">
<g>
	<circle fill="#F12D32" cx="10.482" cy="13.178" r="7.749"/>
	<g>
		<path fill="#FFFFFF" d="M6.412,16.367c0-0.009,0-0.015,0-0.023c0.002-0.028,0.013-0.04,0.02-0.062
			c0.01-0.233,0.13-0.426,0.289-0.586c0.81-0.802,1.6-1.61,2.403-2.405c0.122-0.117,0.122-0.09,0-0.211
			c-0.803-0.808-1.602-1.614-2.411-2.411c-0.132-0.142-0.234-0.306-0.269-0.494c-0.01-0.053-0.019-0.096-0.032-0.147
			c0-0.008,0-0.021,0-0.028c0.006-0.027,0.02-0.049,0.02-0.078c0.033-0.371,0.298-0.688,0.671-0.778
			c0.065-0.012,0.131-0.024,0.201-0.037c0.004,0,0.01,0,0.01,0c0.021,0.002,0.038,0.017,0.055,0.017
			C7.63,9.131,7.826,9.262,8.002,9.443c0.803,0.807,1.612,1.614,2.419,2.416c0.049,0.051,0.09,0.062,0.137,0
			c0.01-0.017,0.027-0.037,0.048-0.047c0.803-0.803,1.603-1.604,2.41-2.402c0.131-0.143,0.293-0.233,0.477-0.274
			c0.06-0.008,0.113-0.021,0.169-0.031h0.008c0.034,0.002,0.067,0.019,0.096,0.019c0.435,0.032,0.814,0.479,0.79,0.913
			c-0.027,0.258-0.127,0.465-0.305,0.641c-0.813,0.804-1.626,1.615-2.427,2.418c-0.082,0.082-0.082,0.082,0,0.164
			c0.801,0.805,1.605,1.604,2.409,2.412c0.032,0.024,0.064,0.066,0.094,0.091c0.417,0.454,0.25,1.204-0.326,1.421
			c-0.368,0.137-0.702,0.057-0.976-0.217c-0.815-0.812-1.637-1.626-2.439-2.443c-0.088-0.086-0.088-0.086-0.176,0
			c-0.82,0.817-1.638,1.645-2.454,2.455c-0.251,0.244-0.548,0.323-0.883,0.231c-0.335-0.092-0.539-0.329-0.623-0.675
			C6.428,16.475,6.425,16.422,6.412,16.367z"/>
	</g>
	<path fill="#292D32" d="M15.623,5.896c0,0.281,0.2,0.51,0.445,0.51h4.749c0.246,0,0.448-0.229,0.448-0.51l0,0
		c0-0.28-0.201-0.509-0.448-0.509h-4.749C15.823,5.388,15.623,5.616,15.623,5.896L15.623,5.896z"/>
	<path fill="#292D32" d="M18.443,3.074c-0.279,0-0.508,0.202-0.508,0.449v4.746c0,0.25,0.229,0.451,0.508,0.451l0,0
		c0.28,0,0.509-0.203,0.509-0.45V3.523C18.952,3.276,18.724,3.074,18.443,3.074"/>
</g>
</svg>
