<?xml version="1.0" encoding="utf-8"?>
<!-- Generator: Adobe Illustrator 16.0.0, SVG Export Plug-In . SVG Version: 6.00 Build 0)  -->
<!DOCTYPE svg PUBLIC "-//W3C//DTD SVG 1.1//EN" "http://www.w3.org/Graphics/SVG/1.1/DTD/svg11.dtd">
<svg version="1.1" id="Vrstva_1" xmlns="http://www.w3.org/2000/svg" xmlns:xlink="http://www.w3.org/1999/xlink" x="0px" y="0px"
	 width="24px" height="24px" viewBox="0 0 24 24" enable-background="new 0 0 24 24" xml:space="preserve">
<g>
	
		<rect x="3.138" y="12.585" transform="matrix(-0.7801 0.6256 -0.6256 -0.7801 29.7118 16.3621)" fill="#292D32" width="17.685" height="1.633"/>
	<path fill="#292D32" d="M14.923,5.652h-1.865V3.788c0-0.247-0.229-0.449-0.511-0.449c-0.279,0-0.508,0.202-0.508,0.449v1.864
		h-1.867C9.928,5.653,9.727,5.881,9.727,6.161c0,0.281,0.201,0.51,0.445,0.51h1.867v1.862c0,0.25,0.229,0.451,0.508,0.451
		c0.282,0,0.511-0.203,0.511-0.449V6.671h1.865c0.246,0,0.447-0.229,0.447-0.51C15.37,5.881,15.169,5.652,14.923,5.652z"/>
	<path fill="#292D32" d="M3.815,20.035c0.579,0.721,1.634,0.836,2.356,0.256c0.723-0.58,0.839-1.633,0.261-2.354
		c-0.58-0.725-1.635-0.842-2.358-0.262C3.352,18.256,3.236,19.313,3.815,20.035z"/>
	<circle fill="#292D32" cx="18.878" cy="7.87" r="1.677"/>
</g>
</svg>
