<?xml version="1.0" encoding="utf-8"?>
<!-- Generator: Adobe Illustrator 16.0.0, SVG Export Plug-In . SVG Version: 6.00 Build 0)  -->
<!DOCTYPE svg PUBLIC "-//W3C//DTD SVG 1.1//EN" "http://www.w3.org/Graphics/SVG/1.1/DTD/svg11.dtd">
<svg version="1.1" id="Vrstva_1" xmlns="http://www.w3.org/2000/svg" xmlns:xlink="http://www.w3.org/1999/xlink" x="0px" y="0px"
	 width="24px" height="24px" viewBox="0 0 24 24" enable-background="new 0 0 24 24" xml:space="preserve">
<g>
	<path fill="none" stroke="#292D32" stroke-width="1.4" stroke-miterlimit="10" d="M5.069,8.156h8.628c1.104,0,2,0.896,2,2v8.629
		c0,1.104-0.896,2-2,2H5.069c-1.104,0-2-0.896-2-2v-8.629C3.069,9.051,3.965,8.156,5.069,8.156z"/>
	<path fill="#292D32" d="M15.287,6.038c0,0.281,0.2,0.51,0.445,0.51h4.749c0.246,0,0.448-0.229,0.448-0.51l0,0
		c0-0.279-0.201-0.508-0.448-0.508h-4.749C15.487,5.53,15.287,5.758,15.287,6.038L15.287,6.038z"/>
	<path fill="#292D32" d="M18.107,3.215c-0.279,0-0.508,0.203-0.508,0.449v4.746c0,0.25,0.229,0.451,0.508,0.451l0,0
		c0.28,0,0.509-0.203,0.509-0.45V3.665C18.616,3.418,18.388,3.215,18.107,3.215"/>
</g>
</svg>
