<?xml version="1.0" encoding="utf-8"?>
<!-- Generator: Adobe Illustrator 16.0.0, SVG Export Plug-In . SVG Version: 6.00 Build 0)  -->
<!DOCTYPE svg PUBLIC "-//W3C//DTD SVG 1.1//EN" "http://www.w3.org/Graphics/SVG/1.1/DTD/svg11.dtd">
<svg version="1.1" id="Vrstva_1" xmlns="http://www.w3.org/2000/svg" xmlns:xlink="http://www.w3.org/1999/xlink" x="0px" y="0px"
	 width="24px" height="24px" viewBox="0 0 24 24" enable-background="new 0 0 24 24" xml:space="preserve">
<g>
	<g>
		<path fill="#292D32" d="M22.52,5.539c-0.156-0.208-0.406-0.292-0.653-0.239c-0.216,0.042-0.38,0.179-0.491,0.411
			c-0.093,0.199-0.188,0.396-0.286,0.594L21,6.484l-0.076-0.036l0.385-0.784c0.229-0.49,0.318-0.908,0.283-1.315
			c-0.098-1.286-0.982-2.325-2.246-2.646C19.1,1.643,18.85,1.611,18.6,1.611c-1.072,0-2.012,0.56-2.447,1.46
			c-2.147,4.415-4.289,8.831-6.42,13.25c-0.104,0.214-0.163,0.476-0.158,0.721c0.017,1.006,0.06,2.016,0.102,2.961
			c0.009,0.184,0.021,0.432,0.146,0.598c0.143,0.188,0.136,0.334-0.034,0.594c-0.023,0.039-0.041,0.082-0.062,0.131
			c-0.147,0.347-0.01,0.729,0.319,0.886c0.087,0.043,0.179,0.065,0.274,0.065c0.238,0,0.458-0.135,0.586-0.355
			c0.042-0.07,0.077-0.146,0.112-0.221c0.03-0.067,0.062-0.133,0.093-0.188c0.012-0.018,0.042-0.037,0.049-0.041
			c0.349-0.019,0.665-0.141,0.964-0.369c0.743-0.551,1.488-1.098,2.236-1.638c0.252-0.183,0.443-0.413,0.59-0.707
			c1.016-2.103,2.033-4.196,3.055-6.297c0.771-1.588,1.544-3.177,2.313-4.767c0.01-0.017,0.018-0.033,0.024-0.05
			c0.024,0.012,0.05,0.025,0.073,0.037l-2.311,4.762c-0.052,0.104-0.096,0.208-0.123,0.317c-0.086,0.351,0.11,0.688,0.463,0.782
			c0.063,0.02,0.123,0.025,0.183,0.025c0.183,0,0.44-0.084,0.638-0.478l2.248-4.64c0.225-0.458,0.446-0.915,0.67-1.373l0.401-0.827
			C22.709,6.001,22.686,5.755,22.52,5.539z M18.052,9.316c-0.135,0.285-0.27,0.563-0.401,0.838l-1.301,2.679
			c-0.826,1.701-1.651,3.403-2.477,5.104c-0.075,0.15-0.107,0.105-0.188,0.092c-1.023-0.163-1.891-0.596-2.646-1.319
			c-0.025-0.022-0.032-0.034-0.014-0.062c1.055-2.166,2.105-4.331,3.157-6.497l1.063-2.195C16.184,8.41,17.113,8.861,18.052,9.316z
			 M18.563,2.935L18.563,2.935c0.666,0,1.168,0.278,1.496,0.825c0.268,0.446,0.273,0.889,0.022,1.395
			c-0.349,0.691-0.685,1.388-1.021,2.084L18.654,8.08c-0.008,0.012-0.014,0.024-0.021,0.038L15.831,6.76
			c0.071-0.151,0.144-0.298,0.212-0.442l0.466-0.963c0.253-0.521,0.507-1.042,0.757-1.563c0.271-0.564,0.703-0.852,1.28-0.858
			L18.563,2.935L18.563,2.935z M12.541,19.15l-0.27,0.197c-0.317,0.23-0.635,0.463-0.948,0.694c-0.119,0.086-0.185,0.104-0.25,0.069
			c-0.055-0.026-0.081-0.066-0.086-0.235c-0.012-0.351-0.025-0.692-0.039-1.054l-0.02-0.495
			C11.438,18.672,11.96,18.939,12.541,19.15z"/>
	</g>
	<g>
		<path fill="#292D32" d="M7.684,22.389c-1.105,0-1.947-0.215-2.457-0.847c-0.683-0.847-0.629-2.28,0.173-4.651
			c0.505-1.492,0.518-2.516,0.035-2.955c-0.804-0.738-2.982-0.024-3.682,0.281l-0.418-0.951c0.339-0.146,3.359-1.418,4.801-0.098
			c0.82,0.751,0.903,2.116,0.247,4.055c-0.648,1.916-0.766,3.15-0.349,3.668c0.465,0.578,1.855,0.504,3.152,0.357l0.116,1.031
			C8.716,22.346,8.174,22.389,7.684,22.389z"/>
	</g>
</g>
<g>
	<path fill="#292D32" stroke="#292D32" stroke-width="0.2" stroke-miterlimit="10" d="M8.341,8.233
		C7.022,8.237,5.939,7.161,5.936,5.841c-0.005-1.327,1.072-2.408,2.4-2.41C9.659,3.43,10.739,4.5,10.741,5.823
		C10.749,7.149,9.671,8.231,8.341,8.233z M8.327,7.615c0.977,0.011,1.786-0.784,1.798-1.762c0.011-0.978-0.78-1.793-1.756-1.804
		C7.375,4.038,6.564,4.825,6.552,5.81C6.541,6.798,7.335,7.605,8.327,7.615z"/>
	<path fill="#292D32" stroke="#292D32" stroke-width="0.3" stroke-miterlimit="10" d="M7.992,6.264
		C8.351,5.925,8.696,5.6,9.04,5.274c0.083-0.078,0.165-0.156,0.249-0.233c0.095-0.087,0.204-0.091,0.28-0.013
		c0.076,0.079,0.068,0.186-0.029,0.277C9.075,5.744,8.61,6.182,8.146,6.619C8.041,6.718,7.942,6.715,7.84,6.612
		c-0.236-0.24-0.472-0.483-0.707-0.726c-0.057-0.059-0.1-0.128-0.06-0.206C7.1,5.631,7.154,5.585,7.206,5.564
		c0.077-0.03,0.14,0.021,0.194,0.077C7.578,5.824,7.756,6.007,7.933,6.19C7.953,6.21,7.969,6.235,7.992,6.264z"/>
	<g>
		<path fill="#292D32" d="M12.136,5.866c-0.012-0.034-0.012-0.083,0-0.123c0.102-0.296,0.188-0.539,0.272-0.762
			c0.03-0.078,0.017-0.135-0.047-0.198c-0.185-0.176-0.379-0.368-0.575-0.569c-0.027-0.027-0.049-0.068-0.052-0.1
			c-0.03-0.239-0.063-0.521-0.086-0.806c-0.007-0.093-0.046-0.143-0.137-0.17c-0.239-0.079-0.494-0.164-0.747-0.254
			c-0.041-0.016-0.086-0.052-0.111-0.09c-0.157-0.243-0.307-0.491-0.418-0.68c-0.043-0.072-0.091-0.097-0.182-0.087
			C9.782,2.065,9.508,2.096,9.227,2.128C9.204,2.131,9.174,2.127,9.174,2.127C8.915,1.959,8.654,1.789,8.396,1.62L8.382,1.611H8.311
			L8.297,1.62C8.25,1.65,8.202,1.681,8.154,1.712C8.045,1.782,7.933,1.854,7.83,1.936C7.618,2.11,7.398,2.161,7.133,2.094
			C7.025,2.066,6.914,2.056,6.806,2.047C6.747,2.042,6.688,2.036,6.629,2.028c-0.094-0.014-0.137,0.037-0.164,0.08
			c-0.121,0.204-0.266,0.443-0.42,0.68c-0.029,0.043-0.08,0.083-0.127,0.101c-0.25,0.094-0.506,0.18-0.746,0.257
			C5.089,3.173,5.053,3.22,5.044,3.311C5.021,3.6,4.989,3.88,4.96,4.116C4.956,4.15,4.935,4.192,4.909,4.217
			C4.739,4.391,4.551,4.577,4.332,4.79C4.287,4.834,4.25,4.888,4.286,4.984c0.1,0.265,0.191,0.521,0.271,0.761
			c0.012,0.038,0.013,0.088,0,0.123C4.475,6.117,4.383,6.37,4.288,6.621C4.256,6.707,4.269,6.769,4.335,6.836
			c0.174,0.162,0.355,0.34,0.571,0.562C4.935,7.426,4.957,7.471,4.96,7.509c0.033,0.272,0.063,0.547,0.087,0.815
			c0.008,0.075,0.04,0.116,0.114,0.144c0.087,0.027,0.174,0.057,0.262,0.087C5.467,8.57,5.512,8.585,5.557,8.601l0.434,0.119
			l0.273,0.459l0.001,0.005c0.065,0.104,0.129,0.208,0.188,0.31C6.492,9.559,6.54,9.589,6.609,9.589c0.01,0,0.021,0,0.034-0.003
			c0.248-0.033,0.496-0.063,0.744-0.093l0.022-0.004C7.44,9.485,7.476,9.484,7.507,9.487l0.002-0.001l0.008,0.005
			c0.018,0.003,0.038,0.005,0.045,0.015c0.001,0.002-0.001-0.002,0,0l0.775,0.444c0,0-0.002,0.012-0.006,0.025
			c0.041,0.005,0.082-0.006,0.12-0.025l0.68-0.441c0.001-0.001,0-0.004,0.001-0.005C9.139,9.495,9.15,9.491,9.164,9.488V9.487l0,0
			c0.013-0.003,0.028-0.003,0.038-0.003c0.013,0,0.026,0,0.041,0.002c0.119,0.011,0.241,0.027,0.361,0.042
			c0.07,0.008,0.139,0.017,0.208,0.025c0.03,0.003,0.062,0.009,0.094,0.015c0.089,0.018,0.183,0.027,0.246,0.002l0.589-1h0.479
			c0.093-0.035,0.18-0.067,0.272-0.091c0.126-0.033,0.152-0.114,0.159-0.2c0.019-0.265,0.051-0.528,0.083-0.776
			c0.003-0.036,0.025-0.08,0.053-0.109c0.177-0.183,0.362-0.364,0.564-0.553c0.072-0.069,0.088-0.137,0.052-0.233
			C12.316,6.383,12.229,6.141,12.136,5.866z M11.392,5.934c0.043,0.11,0.083,0.223,0.124,0.334c0.029,0.081,0.058,0.162,0.087,0.242
			c0.016,0.039,0.013,0.054-0.016,0.08c-0.14,0.132-0.29,0.279-0.456,0.448c-0.046,0.049-0.077,0.115-0.084,0.177
			c-0.029,0.203-0.052,0.417-0.069,0.636c-0.003,0.042-0.014,0.052-0.058,0.069c-0.198,0.064-0.402,0.131-0.604,0.208
			c-0.059,0.021-0.114,0.066-0.146,0.115c-0.128,0.195-0.236,0.37-0.331,0.534C9.808,8.833,9.775,8.83,9.732,8.825
			C9.511,8.793,9.311,8.769,9.118,8.75l-0.017,0c-0.054,0-0.118,0.016-0.175,0.048C8.769,8.892,8.598,9,8.404,9.13
			C8.379,9.145,8.362,9.153,8.348,9.153c-0.009,0-0.023-0.002-0.052-0.021C8.132,9.021,7.956,8.909,7.759,8.79
			C7.728,8.768,7.691,8.758,7.667,8.75C7.66,8.749,7.655,8.748,7.652,8.745L7.64,8.741L7.422,8.768
			C7.265,8.787,7.117,8.805,6.966,8.825c-0.048,0.008-0.08,0.01-0.115-0.048c-0.096-0.17-0.203-0.346-0.33-0.538
			c-0.029-0.046-0.079-0.085-0.138-0.11C6.171,8.05,5.973,7.983,5.781,7.922C5.733,7.906,5.72,7.895,5.717,7.846
			C5.7,7.625,5.678,7.421,5.65,7.223C5.641,7.157,5.606,7.087,5.552,7.03C5.417,6.887,5.274,6.75,5.136,6.618l-0.03-0.029
			C5.077,6.56,5.076,6.547,5.089,6.516l0.015-0.038c0.067-0.18,0.137-0.367,0.196-0.554c0.024-0.068,0.023-0.16-0.001-0.234
			C5.234,5.486,5.158,5.282,5.091,5.109C5.077,5.07,5.08,5.057,5.109,5.03c0.179-0.172,0.325-0.314,0.454-0.448
			C5.606,4.539,5.64,4.473,5.649,4.413C5.675,4.214,5.699,4,5.72,3.758c0.003-0.034,0.011-0.042,0.047-0.054
			c0.184-0.061,0.398-0.131,0.604-0.208c0.062-0.022,0.125-0.073,0.16-0.127c0.124-0.188,0.239-0.38,0.335-0.543
			c0.027-0.045,0.044-0.04,0.074-0.036C7.179,2.823,7.397,2.849,7.605,2.87C7.653,2.874,7.71,2.859,7.759,2.83
			C7.937,2.72,8.12,2.607,8.297,2.486c0.027-0.018,0.042-0.02,0.051-0.02c0.015,0,0.033,0.007,0.057,0.023
			C8.58,2.606,8.762,2.721,8.942,2.832C8.979,2.855,9.034,2.87,9.087,2.87l0.021-0.001C9.35,2.843,9.564,2.818,9.76,2.792
			c0.028-0.004,0.043-0.011,0.066,0.03c0.103,0.175,0.216,0.363,0.339,0.542c0.037,0.057,0.101,0.107,0.167,0.133
			c0.105,0.04,0.21,0.075,0.314,0.11c0.095,0.032,0.19,0.064,0.285,0.099c0.015,0.006,0.039,0.035,0.04,0.05
			C10.988,3.873,11,3.989,11.012,4.105c0.011,0.104,0.023,0.209,0.036,0.313c0.006,0.055,0.038,0.118,0.081,0.16
			c0.155,0.16,0.31,0.313,0.462,0.456c0.027,0.027,0.029,0.037,0.015,0.071c-0.033,0.088-0.065,0.178-0.097,0.267
			c-0.039,0.107-0.078,0.215-0.118,0.32C11.359,5.771,11.36,5.849,11.392,5.934z"/>
	</g>
	<path fill="#292D32" d="M9.396,12.311c0.141,0,0.249-0.072,0.319-0.216c0.104-0.217,0.209-0.433,0.313-0.649l0.212-0.439
		c0.015-0.032,0.032-0.063,0.049-0.097l0.042-0.079l0.039,0.01c0.35,0.099,0.697,0.193,1.044,0.289l0.084,0.023
		c0.025,0.007,0.052,0.015,0.077,0.022c0.038,0.011,0.075,0.023,0.113,0.032c0.042,0.01,0.082,0.015,0.118,0.015
		c0.102,0,0.184-0.039,0.251-0.117c0.095-0.111,0.111-0.239,0.049-0.379c-0.137-0.306-0.275-0.612-0.415-0.918
		c-0.066-0.147-0.142-0.309-0.22-0.476c-0.149-0.324-0.306-0.659-0.428-0.95l-0.574,0.368l0.272,0.62
		c0.132,0.292,0.263,0.583,0.398,0.883l0.042,0.094l-0.099-0.024c-0.021-0.005-0.038-0.009-0.051-0.011
		c-0.017-0.004-0.03-0.007-0.042-0.01L10.31,10.11c-0.263-0.072-0.387-0.016-0.507,0.233l-0.244,0.503
		c-0.031,0.065-0.063,0.129-0.106,0.218l-0.046,0.095l-0.76-1.682L8.234,9.638L7.823,9.477l-0.761,1.682l-0.046-0.095
		c-0.043-0.089-0.075-0.153-0.106-0.218l-0.245-0.502c-0.119-0.249-0.245-0.304-0.506-0.232l-0.683,0.188
		c-0.012,0.003-0.025,0.006-0.042,0.01c-0.014,0.003-0.03,0.006-0.05,0.011l-0.099,0.024l0.042-0.093
		c0.135-0.301,0.267-0.592,0.398-0.884l0.327-0.716l-0.679-0.14C5.261,8.777,5.134,9.042,5.013,9.298
		C4.932,9.467,4.851,9.637,4.774,9.806c-0.139,0.306-0.277,0.613-0.414,0.919c-0.063,0.141-0.047,0.268,0.047,0.378
		c0.092,0.108,0.214,0.142,0.37,0.103c0.038-0.01,0.075-0.021,0.113-0.032c0.026-0.008,0.051-0.015,0.078-0.022l0.084-0.023
		c0.346-0.095,0.694-0.19,1.043-0.288l0.039-0.01l0.041,0.079c0.019,0.035,0.035,0.066,0.05,0.097l0.212,0.439
		c0.104,0.217,0.208,0.433,0.313,0.648c0.07,0.144,0.178,0.218,0.319,0.218c0.149-0.003,0.255-0.077,0.322-0.221
		c0.012-0.023,0.022-0.046,0.033-0.07l0.809-1.789l0.808,1.789c0.011,0.023,0.021,0.047,0.032,0.07
		c0.068,0.144,0.174,0.218,0.314,0.221l0.009,0.048l0,0L9.396,12.311L9.396,12.311z"/>
</g>
</svg>
