<?xml version="1.0" encoding="utf-8"?>
<!-- Generator: Adobe Illustrator 16.0.0, SVG Export Plug-In . SVG Version: 6.00 Build 0)  -->
<!DOCTYPE svg PUBLIC "-//W3C//DTD SVG 1.1//EN" "http://www.w3.org/Graphics/SVG/1.1/DTD/svg11.dtd">
<svg version="1.1" id="Vrstva_1" xmlns="http://www.w3.org/2000/svg" xmlns:xlink="http://www.w3.org/1999/xlink" x="0px" y="0px"
	 width="24px" height="24px" viewBox="0 0 24 24" enable-background="new 0 0 24 24" xml:space="preserve">
<circle fill="#57B400" cx="8.629" cy="5.827" r="4.192"/>
<g>
	<path fill="#FFFFFF" d="M11.625,4.216c-0.029,0.146-0.12,0.252-0.225,0.356C10.32,5.652,9.236,6.733,8.157,7.81
		C8.01,7.96,7.84,8.022,7.637,7.95C7.566,7.925,7.495,7.878,7.439,7.824C6.889,7.279,6.342,6.728,5.793,6.179
		C5.71,6.097,5.661,6.001,5.635,5.889c0-0.041,0-0.08,0-0.119c0.026-0.11,0.069-0.211,0.155-0.291
		C5.996,5.3,6.269,5.313,6.471,5.516c0.424,0.42,0.846,0.844,1.271,1.269C7.756,6.802,7.769,6.818,7.79,6.851
		C7.816,6.82,7.824,6.802,7.841,6.789c0.982-0.981,1.964-1.965,2.948-2.951c0.143-0.143,0.308-0.204,0.505-0.143
		c0.174,0.057,0.275,0.175,0.32,0.352c0.005,0.014,0.009,0.025,0.013,0.035C11.625,4.129,11.625,4.172,11.625,4.216z"/>
</g>
<g>
	<g>
		<path fill="#292D32" d="M22.52,5.539c-0.156-0.208-0.406-0.292-0.653-0.239c-0.216,0.042-0.38,0.179-0.491,0.411
			c-0.093,0.199-0.188,0.396-0.286,0.594L21,6.484l-0.076-0.036l0.385-0.784c0.229-0.49,0.318-0.908,0.283-1.315
			c-0.098-1.286-0.982-2.325-2.246-2.646C19.1,1.643,18.85,1.611,18.6,1.611c-1.072,0-2.012,0.56-2.447,1.46
			c-2.147,4.415-4.289,8.831-6.42,13.25c-0.104,0.214-0.163,0.476-0.158,0.721c0.017,1.006,0.06,2.016,0.102,2.961
			c0.009,0.184,0.021,0.432,0.146,0.598c0.143,0.188,0.136,0.334-0.034,0.594c-0.023,0.039-0.041,0.082-0.062,0.131
			c-0.147,0.347-0.01,0.729,0.319,0.886c0.087,0.043,0.179,0.065,0.274,0.065c0.238,0,0.458-0.135,0.586-0.355
			c0.042-0.07,0.077-0.146,0.112-0.221c0.03-0.067,0.062-0.133,0.093-0.188c0.012-0.018,0.042-0.037,0.049-0.041
			c0.349-0.019,0.665-0.141,0.964-0.369c0.743-0.551,1.488-1.098,2.236-1.638c0.252-0.183,0.443-0.413,0.59-0.707
			c1.016-2.103,2.033-4.196,3.055-6.297c0.771-1.588,1.544-3.177,2.313-4.767c0.01-0.017,0.018-0.033,0.024-0.05
			c0.024,0.012,0.05,0.025,0.073,0.037l-2.311,4.762c-0.052,0.104-0.096,0.208-0.123,0.317c-0.086,0.351,0.11,0.688,0.463,0.782
			c0.063,0.02,0.123,0.025,0.183,0.025c0.183,0,0.44-0.084,0.638-0.478l2.248-4.64c0.225-0.458,0.446-0.915,0.67-1.373l0.401-0.827
			C22.709,6.001,22.686,5.755,22.52,5.539z M18.052,9.316c-0.135,0.285-0.27,0.563-0.401,0.838l-1.301,2.679
			c-0.826,1.701-1.651,3.403-2.477,5.104c-0.075,0.15-0.107,0.105-0.188,0.092c-1.023-0.163-1.891-0.596-2.646-1.319
			c-0.025-0.022-0.032-0.034-0.014-0.062c1.055-2.166,2.105-4.331,3.157-6.497l1.063-2.195C16.184,8.41,17.113,8.861,18.052,9.316z
			 M18.563,2.766v0.169c0.666,0,1.168,0.278,1.496,0.825c0.268,0.446,0.273,0.889,0.022,1.395c-0.349,0.691-0.685,1.388-1.021,2.084
			L18.654,8.08c-0.008,0.012-0.014,0.024-0.021,0.038L15.831,6.76c0.071-0.151,0.144-0.298,0.212-0.442l0.466-0.963
			c0.253-0.521,0.507-1.042,0.757-1.563c0.271-0.564,0.703-0.852,1.28-0.858L18.563,2.766L18.563,2.766z M12.541,19.15l-0.27,0.197
			c-0.317,0.23-0.635,0.463-0.948,0.694c-0.119,0.086-0.185,0.104-0.25,0.069c-0.055-0.026-0.081-0.066-0.086-0.235
			c-0.012-0.351-0.025-0.692-0.039-1.054l-0.02-0.495C11.438,18.672,11.96,18.939,12.541,19.15z"/>
	</g>
	<g>
		<path fill="#292D32" d="M7.684,22.389c-1.105,0-1.947-0.215-2.457-0.847c-0.683-0.847-0.629-2.28,0.173-4.651
			c0.505-1.492,0.518-2.516,0.035-2.955c-0.804-0.738-2.982-0.024-3.682,0.281l-0.418-0.951c0.339-0.146,3.359-1.418,4.801-0.098
			c0.82,0.751,0.903,2.116,0.247,4.055c-0.648,1.916-0.766,3.15-0.349,3.668c0.465,0.578,1.855,0.504,3.152,0.357l0.116,1.031
			C8.716,22.346,8.174,22.389,7.684,22.389z"/>
	</g>
</g>
</svg>
