<?xml version="1.0" encoding="utf-8"?>
<!-- Generator: Adobe Illustrator 16.0.0, SVG Export Plug-In . SVG Version: 6.00 Build 0)  -->
<!DOCTYPE svg PUBLIC "-//W3C//DTD SVG 1.1//EN" "http://www.w3.org/Graphics/SVG/1.1/DTD/svg11.dtd">
<svg version="1.1" id="Vrstva_1" xmlns="http://www.w3.org/2000/svg" xmlns:xlink="http://www.w3.org/1999/xlink" x="0px" y="0px"
	 width="24px" height="24px" viewBox="0 0 24 24" enable-background="new 0 0 24 24" xml:space="preserve">
<g>
	<g>
		<path fill="none" stroke="#292D32" stroke-width="1.5" stroke-linecap="round" stroke-linejoin="round" d="M22,10v5c0,5-2,7-7,7H9
			c-5,0-7-2-7-7V9c0-5,2-7,7-7h5"/>
		<path fill="none" stroke="#292D32" stroke-width="1.5" stroke-linecap="round" stroke-linejoin="round" d="M22,10h-4c-3,0-4-1-4-4
			V2L22,10z"/>
	</g>
</g>
<g>
	<polygon fill="#292D32" points="8.852,16.93 7.811,17.543 8.56,18.893 9.602,18.279 	"/>
	<polygon fill="#292D32" points="8.181,15.78 8.188,15.776 7.985,15.428 8.188,15.078 7.136,14.463 6.608,15.428 6.859,15.888 
		6.859,15.888 6.882,15.929 7.136,16.396 7.14,16.394 7.607,17.237 8.649,16.624 	"/>
	<polygon fill="#292D32" points="9.132,13.404 8.092,12.791 7.342,14.141 8.384,14.754 	"/>
	<rect x="10.778" y="10.684" fill="#292D32" width="1.509" height="1.213"/>
	<polygon fill="#292D32" points="13.976,11.896 14.145,12.203 15.188,11.715 14.74,10.684 14.131,10.684 13.542,10.684 
		12.621,10.684 12.621,11.896 13.542,11.896 	"/>
	<polygon fill="#292D32" points="15.136,13.925 16.176,13.314 15.426,11.963 14.386,12.578 	"/>
	<polygon fill="#292D32" points="17.128,14.969 17.129,14.969 17.076,14.875 16.852,14.463 16.849,14.465 16.379,13.619 
		15.338,14.232 15.806,15.074 15.798,15.079 16.002,15.428 15.799,15.775 16.852,16.396 17.379,15.428 	"/>
	<polygon fill="#292D32" points="14.853,17.453 15.896,18.063 16.645,16.716 15.604,16.103 	"/>
	<polygon fill="#292D32" points="14.144,18.65 13.975,18.96 13.542,18.96 13.542,20.173 14.74,20.173 14.936,19.724 15.708,18.387 
		14.667,17.773 	"/>
	<rect x="11.699" y="18.96" fill="#292D32" width="1.51" height="1.213"/>
	<polygon fill="#292D32" points="10.012,18.96 9.843,18.65 8.799,19.143 9.246,20.173 9.857,20.173 10.445,20.173 11.366,20.173 
		11.366,18.96 10.445,18.96 	"/>
	<polygon fill="#292D32" points="9.815,12.191 10.011,11.896 10.445,11.896 10.445,10.684 9.246,10.684 9.029,11.12 8.279,12.47 
		9.321,13.083 	"/>
</g>
</svg>
