<?xml version="1.0" encoding="utf-8"?>
<!-- Generator: Adobe Illustrator 16.0.0, SVG Export Plug-In . SVG Version: 6.00 Build 0)  -->
<!DOCTYPE svg PUBLIC "-//W3C//DTD SVG 1.1//EN" "http://www.w3.org/Graphics/SVG/1.1/DTD/svg11.dtd">
<svg version="1.1" id="Vrstva_1" xmlns="http://www.w3.org/2000/svg" xmlns:xlink="http://www.w3.org/1999/xlink" x="0px" y="0px"
	 width="24px" height="24px" viewBox="0 0 24 24" enable-background="new 0 0 24 24" xml:space="preserve">
<g>
	<g>
		<path fill="none" stroke="#292D32" stroke-width="1.5" stroke-linecap="round" stroke-linejoin="round" d="M22,10v5c0,5-2,7-7,7H9
			c-5,0-7-2-7-7V9c0-5,2-7,7-7h5"/>
		<path fill="none" stroke="#292D32" stroke-width="1.5" stroke-linecap="round" stroke-linejoin="round" d="M22,10h-4c-3,0-4-1-4-4
			V2L22,10z"/>
	</g>
</g>
<path fill-rule="evenodd" clip-rule="evenodd" fill="none" d="M18.222,10.122c0.04,0.369-0.322,0.697-0.678,0.69
	c-0.387-0.007-0.678-0.299-0.688-0.686c-0.012-0.395,0.335-0.697,0.689-0.698C17.898,9.427,18.26,9.751,18.222,10.122z"/>
<path fill="#292D32" d="M5.188,13.729"/>
<g>
	<path fill-rule="evenodd" clip-rule="evenodd" fill="#292D32" d="M12.001,12.068c1.252,0,2.504-0.003,3.754,0.001
		c0.554,0.002,0.911,0.5,0.723,0.992c-0.112,0.289-0.333,0.447-0.643,0.474c-0.091,0.011-0.183,0.005-0.275,0.005
		c-2.423,0-4.847,0.002-7.271,0c-0.497,0-0.835-0.322-0.813-0.77c0.021-0.41,0.333-0.7,0.77-0.701
		c0.97-0.004,1.939-0.001,2.908-0.001C11.437,12.068,11.718,12.068,12.001,12.068z"/>
	<path fill-rule="evenodd" clip-rule="evenodd" fill="#292D32" d="M11.999,16.487c-1.246,0-2.491,0-3.737-0.002
		c-0.503,0-0.835-0.359-0.779-0.831c0.04-0.341,0.312-0.604,0.661-0.637c0.049-0.004,0.098-0.004,0.147-0.004
		c2.472,0,4.944,0,7.417,0c0.493,0,0.823,0.308,0.815,0.749c-0.006,0.417-0.326,0.721-0.769,0.723
		c-0.958,0.004-1.915,0.002-2.872,0.002C12.588,16.487,12.293,16.487,11.999,16.487z"/>
	<path fill-rule="evenodd" clip-rule="evenodd" fill="#292D32" d="M10.503,19.433c-0.76,0-1.521,0.002-2.281-0.002
		c-0.344-0.002-0.612-0.199-0.712-0.507c-0.096-0.296-0.008-0.631,0.25-0.803c0.131-0.086,0.303-0.154,0.457-0.154
		c1.526-0.012,3.053-0.01,4.579-0.006c0.435,0.002,0.754,0.328,0.75,0.741c-0.004,0.414-0.326,0.727-0.764,0.729
		C12.023,19.435,11.263,19.433,10.503,19.433z"/>
</g>
</svg>
