<?xml version="1.0" encoding="utf-8"?>
<!-- Generator: Adobe Illustrator 16.0.0, SVG Export Plug-In . SVG Version: 6.00 Build 0)  -->
<!DOCTYPE svg PUBLIC "-//W3C//DTD SVG 1.1//EN" "http://www.w3.org/Graphics/SVG/1.1/DTD/svg11.dtd">
<svg version="1.1" id="Vrstva_1" xmlns="http://www.w3.org/2000/svg" xmlns:xlink="http://www.w3.org/1999/xlink" x="0px" y="0px"
	 width="24px" height="24px" viewBox="0 0 24 24" enable-background="new 0 0 24 24" xml:space="preserve">
<g>
	<g>
		<path fill="none" stroke="#292D32" stroke-width="1.5" stroke-linecap="round" stroke-linejoin="round" d="M22,10v5c0,5-2,7-7,7H9
			c-5,0-7-2-7-7V9c0-5,2-7,7-7h5"/>
		<path fill="none" stroke="#292D32" stroke-width="1.5" stroke-linecap="round" stroke-linejoin="round" d="M22,10h-4c-3,0-4-1-4-4
			V2L22,10z"/>
	</g>
</g>
<path fill-rule="evenodd" clip-rule="evenodd" fill="none" d="M18.222,10.122c0.04,0.369-0.322,0.697-0.678,0.69
	c-0.387-0.007-0.678-0.299-0.688-0.686c-0.012-0.395,0.335-0.697,0.689-0.698C17.898,9.427,18.26,9.751,18.222,10.122z"/>
<g>
	<path fill-rule="evenodd" clip-rule="evenodd" fill="#292D32" d="M4.771,16.07c0.08-0.275,0.207-0.523,0.481-0.641
		c0.151-0.066,0.324-0.107,0.488-0.109c0.696-0.012,1.393-0.008,2.088-0.004c0.616,0.002,1.01,0.426,0.954,1.014
		c-0.036,0.375-0.367,0.742-0.744,0.754c-0.803,0.023-1.608,0.031-2.411,0.012c-0.446-0.012-0.705-0.26-0.833-0.693
		c-0.005-0.018-0.016-0.033-0.024-0.049C4.771,16.258,4.771,16.164,4.771,16.07z"/>
	<path fill-rule="evenodd" clip-rule="evenodd" fill="#292D32" d="M19.229,16.354c-0.08,0.273-0.207,0.523-0.48,0.641
		c-0.15,0.064-0.324,0.105-0.488,0.109c-0.695,0.012-1.393,0.008-2.088,0.004c-0.615-0.004-1.01-0.428-0.953-1.016
		c0.035-0.373,0.367-0.742,0.742-0.752c0.803-0.025,1.607-0.031,2.412-0.012c0.445,0.012,0.703,0.26,0.832,0.691
		c0.006,0.018,0.016,0.033,0.023,0.051C19.229,16.164,19.229,16.258,19.229,16.354z"/>
	<path fill-rule="evenodd" clip-rule="evenodd" fill="#292D32" d="M12.011,17.092c-0.414,0-0.829,0.02-1.241-0.006
		c-0.443-0.025-0.776-0.422-0.777-0.871c-0.001-0.451,0.333-0.834,0.771-0.883c0.093-0.01,0.188-0.018,0.281-0.016
		c0.729,0.004,1.458-0.008,2.186,0.021c0.443,0.016,0.775,0.42,0.777,0.871c0.002,0.449-0.332,0.832-0.771,0.883
		c-0.041,0.004-0.082,0.014-0.125,0.014C12.744,17.107,12.377,17.092,12.011,17.092C12.011,17.088,12.011,17.098,12.011,17.092z"/>
</g>
</svg>
