<?xml version="1.0" encoding="utf-8"?>
<!-- Generator: Adobe Illustrator 16.0.0, SVG Export Plug-In . SVG Version: 6.00 Build 0)  -->
<!DOCTYPE svg PUBLIC "-//W3C//DTD SVG 1.1//EN" "http://www.w3.org/Graphics/SVG/1.1/DTD/svg11.dtd">
<svg version="1.1" id="Vrstva_1" xmlns="http://www.w3.org/2000/svg" xmlns:xlink="http://www.w3.org/1999/xlink" x="0px" y="0px"
	 width="56.689px" height="56.689px" viewBox="0 0 56.689 56.689" enable-background="new 0 0 56.689 56.689" xml:space="preserve">
<g>
	<g>
		<g>
			<path fill="#FFEACE" stroke="#231F20" stroke-miterlimit="10" d="M4.688,38.748c-0.666,0-1.205,0.539-1.205,1.204v7.564
				c0,0.665,0.539,1.204,1.205,1.204H43.51c0.665,0,1.205-0.539,1.205-1.204v-7.564c0-0.665-0.54-1.204-1.205-1.204H4.688z"/>
		</g>
		<g>
			<path fill="#9266FF" stroke="#231F20" stroke-miterlimit="10" d="M9.188,27.766c-0.639-0.19-1.31,0.173-1.497,0.81l-2.154,7.251
				c-0.188,0.638,0.174,1.309,0.813,1.498l37.215,11.052c0.638,0.189,1.309-0.174,1.498-0.812l2.152-7.251
				c0.188-0.639-0.174-1.31-0.813-1.499L9.188,27.766z"/>
		</g>
		<g>
			<path fill="#9D724C" stroke="#231F20" stroke-miterlimit="10" d="M16.013,19.144c-0.565-0.352-1.308-0.178-1.659,0.388
				l-3.987,6.428c-0.35,0.565-0.177,1.31,0.388,1.659l32.989,20.467c0.565,0.352,1.307,0.177,1.658-0.391l3.988-6.427
				c0.35-0.565,0.177-1.309-0.389-1.658L16.013,19.144z"/>
		</g>
		<g>
			<path fill="#FF9518" stroke="#231F20" stroke-miterlimit="10" d="M33.503,8.106l-6.709,3.496
				c-0.59,0.309-0.819,1.036-0.512,1.625l17.944,34.426c0.308,0.59,1.032,0.82,1.624,0.513l6.709-3.497
				c0.589-0.308,0.817-1.033,0.512-1.624L35.126,8.616C34.819,8.028,34.092,7.799,33.503,8.106z"/>
		</g>
	</g>
	<path fill="#DE9518" stroke="#231F20" stroke-miterlimit="10" d="M45.556,42.779c0,0.943,0.765,1.709,1.709,1.709l0,0
		c0.942,0,1.708-0.766,1.708-1.709l0,0c0-0.943-0.767-1.708-1.708-1.708l0,0C46.321,41.071,45.556,41.835,45.556,42.779
		L45.556,42.779z"/>
	<polygon fill="#697041" points="30.596,28.811 39.393,39.452 35.378,31.733 	"/>
	<polygon fill="#7D3BF5" points="11.065,28.874 41.018,46.936 34.831,43.139 12.487,29.264 	"/>
	<polygon fill="#D9EACE" points="6.284,39.264 41.253,48.16 11.065,39.264 	"/>
</g>
</svg>
