<?xml version="1.0" encoding="utf-8"?>
<!-- Generator: Adobe Illustrator 16.0.0, SVG Export Plug-In . SVG Version: 6.00 Build 0)  -->
<!DOCTYPE svg PUBLIC "-//W3C//DTD SVG 1.1//EN" "http://www.w3.org/Graphics/SVG/1.1/DTD/svg11.dtd">
<svg version="1.1" id="Vrstva_1" xmlns="http://www.w3.org/2000/svg" xmlns:xlink="http://www.w3.org/1999/xlink" x="0px" y="0px"
	 width="24px" height="24px" viewBox="0 0 24 24" enable-background="new 0 0 24 24" xml:space="preserve">
<g>
	<g>
		<path fill="#292D32" d="M4.31,4.444C3.611,4.437,2.912,4.438,2.215,4.445C1.799,4.449,1.47,4.758,1.464,5.148
			c-0.011,0.737-0.01,1.475-0.001,2.214C1.47,7.736,1.785,8.046,2.181,8.066l0.04,0.001c0.363,0,0.673-0.26,0.739-0.62
			C2.979,7.343,2.98,7.233,2.98,7.127V5.967h0.731h0l0.586-0.002c0.438-0.004,0.764-0.314,0.775-0.736
			c0.004-0.214-0.069-0.411-0.208-0.555C4.725,4.529,4.529,4.446,4.31,4.444z"/>
		<path fill="#292D32" d="M4.286,21.03H2.979l0.001-0.357c0.001-0.328,0.002-0.655-0.004-0.986c-0.008-0.437-0.322-0.76-0.755-0.76
			c-0.423,0-0.756,0.321-0.76,0.735c-0.007,0.718-0.007,1.429,0,2.151c0.004,0.403,0.322,0.72,0.727,0.725
			c0.339,0.004,0.678,0.006,1.017,0.006c0.384,0,0.769-0.002,1.154-0.006c0.4-0.008,0.706-0.323,0.713-0.733
			c0.004-0.215-0.068-0.409-0.202-0.544C4.725,21.109,4.523,21.032,4.286,21.03z"/>
		<path fill="#292D32" d="M7.712,4.445c-0.357-0.012-0.715-0.013-1.075,0C6.205,4.464,5.89,4.806,5.908,5.238
			c0.016,0.409,0.334,0.714,0.756,0.725l0.213,0.003l0.305-0.001l0.292,0.001l0.201-0.002c0.435-0.009,0.762-0.317,0.778-0.73
			c0.008-0.201-0.062-0.395-0.198-0.541C8.117,4.542,7.923,4.454,7.712,4.445z"/>
		<path fill="#292D32" d="M2.978,12.992c-0.02-0.446-0.338-0.767-0.771-0.767c-0.429,0.008-0.743,0.338-0.749,0.789
			c-0.003,0.323-0.003,0.642,0,0.964c0.004,0.456,0.31,0.783,0.741,0.794h0.018c0.433,0,0.746-0.323,0.761-0.779
			c0.004-0.111,0.003-0.223,0.002-0.334v-0.146l0.001-0.157C2.981,13.234,2.981,13.114,2.978,12.992z"/>
		<path fill="#292D32" d="M1.458,10.686c0.015,0.423,0.322,0.74,0.731,0.752h0.029c0.406,0,0.729-0.296,0.75-0.69
			c0.02-0.384,0.02-0.774,0-1.159C2.961,9.491,2.938,9.4,2.897,9.316C2.782,9.08,2.535,8.919,2.232,8.905
			c-0.018-0.001-0.034-0.007-0.05-0.007c0,0-0.001,0-0.002,0C1.781,8.918,1.476,9.229,1.458,9.635
			c-0.004,0.121-0.002,0.24-0.001,0.362l0.001,0.153L1.457,10.31C1.456,10.436,1.455,10.562,1.458,10.686z"/>
		<path fill="#292D32" d="M2.176,18.095l0.044,0.001c0.414,0,0.736-0.313,0.752-0.727c0.016-0.363,0.016-0.729,0-1.097
			c-0.019-0.408-0.342-0.719-0.777-0.719c-0.413,0.012-0.722,0.328-0.737,0.748c-0.004,0.121-0.003,0.243-0.002,0.365l0.001,0.151
			l-0.001,0.148c0,0.124-0.001,0.244,0.002,0.366C1.469,17.755,1.771,18.074,2.176,18.095z"/>
		<path fill="#292D32" d="M11.039,21.032c-0.352-0.009-0.708-0.009-1.065,0c-0.419,0.01-0.737,0.33-0.741,0.748
			c0,0.003,0,0.006,0,0.01c0,0.002,0,0.003,0,0.005c0,0.063,0.021,0.118,0.035,0.177c0.01,0.031,0.009,0.07,0.022,0.103
			c0.108,0.271,0.367,0.456,0.684,0.473c0.071,0.002,0.141,0.004,0.212,0.004h0.009c0.002,0,0.004,0,0.005,0l0.311-0.002
			l0.327,0.002c0.071,0,0.142-0.002,0.211-0.006c0.4-0.019,0.699-0.324,0.72-0.716c0.002-0.016,0.012-0.024,0.012-0.044
			C11.778,21.376,11.457,21.043,11.039,21.032z"/>
		<path fill="#292D32" d="M7.723,21.034c-0.363-0.013-0.725-0.013-1.089,0c-0.422,0.011-0.734,0.34-0.726,0.76
			c0.003,0.41,0.308,0.722,0.72,0.746c0.066,0.002,0.135,0.004,0.203,0.004l0.902-0.004c0.409-0.025,0.71-0.338,0.721-0.735
			c0.005-0.208-0.069-0.401-0.207-0.542C8.109,21.118,7.922,21.038,7.723,21.034z"/>
		<path fill="#292D32" d="M14.375,21.032c-0.364-0.011-0.727-0.011-1.086,0.002c-0.307,0.006-0.563,0.198-0.673,0.469
			c-0.026,0.064-0.033,0.136-0.043,0.207c-0.002,0.021-0.012,0.04-0.013,0.062c0,0.002,0.001,0.005,0.001,0.007
			c0,0.013-0.006,0.022-0.006,0.033c0.012,0.399,0.312,0.71,0.72,0.737l0.906,0.002c0.064,0,0.136,0,0.201-0.004
			c0.411-0.02,0.718-0.331,0.721-0.742v-0.002c0-0.002,0-0.002,0-0.002C15.114,21.379,14.792,21.043,14.375,21.032z"/>
		<path fill="#292D32" d="M16.713,5.973l0.586,0.002h0.004h0.729v1.161c0,0.105,0.002,0.216,0.021,0.32
			c0.065,0.36,0.374,0.62,0.739,0.62l0.039-0.001c0.394-0.02,0.71-0.331,0.715-0.706c0.012-0.739,0.012-1.475,0-2.213
			c-0.005-0.39-0.335-0.699-0.752-0.702c-0.693-0.008-1.394-0.01-2.093,0c-0.219,0.002-0.413,0.084-0.555,0.228
			c-0.138,0.144-0.213,0.341-0.209,0.555C15.947,5.66,16.274,5.968,16.713,5.973z"/>
		<path fill="#292D32" d="M18.788,18.935c-0.433,0.006-0.747,0.326-0.754,0.764c-0.01,0.327-0.008,0.653-0.004,0.981v0.357h-1.307
			c-0.235,0.002-0.438,0.08-0.584,0.232c-0.137,0.136-0.206,0.33-0.202,0.544c0.007,0.409,0.313,0.727,0.713,0.731
			c0.386,0.004,0.769,0.006,1.154,0.006c0.336,0,0.678-0.002,1.018-0.004c0.404-0.005,0.721-0.327,0.722-0.727
			c0.013-0.717,0.013-1.434,0-2.151C19.544,19.257,19.211,18.935,18.788,18.935z"/>
		<path fill="#292D32" d="M10,5.973l0.218,0.002l0.298-0.001l0.298,0.001c0.074,0,0.146,0,0.218-0.003
			c0.409-0.014,0.721-0.311,0.747-0.708c0-0.004-0.004-0.007-0.004-0.013c0,0,0,0,0-0.001c0.004-0.021-0.007-0.041-0.007-0.063
			c-0.004-0.079-0.01-0.159-0.031-0.231c-0.031-0.096-0.084-0.185-0.15-0.26c-0.135-0.147-0.317-0.233-0.515-0.243
			c-0.377-0.018-0.76-0.021-1.139,0c-0.198,0.012-0.38,0.096-0.508,0.241c-0.136,0.152-0.203,0.35-0.19,0.563
			c0.006,0.1,0.031,0.193,0.07,0.277C9.422,5.79,9.682,5.964,10,5.973z"/>
		<path fill="#292D32" d="M14.375,4.453c-0.36-0.012-0.718-0.012-1.072,0c-0.214,0.008-0.408,0.097-0.544,0.248
			c-0.136,0.147-0.209,0.34-0.201,0.541c0.019,0.414,0.345,0.72,0.779,0.73l0.203,0.002l0.293-0.001l0.302,0.001l0.215-0.003
			c0.42-0.011,0.739-0.318,0.756-0.726C15.12,4.812,14.808,4.471,14.375,4.453z"/>
		<path fill="#292D32" d="M18.034,13.997c0.018,0.458,0.329,0.778,0.76,0.778h0.02c0.433-0.007,0.734-0.333,0.741-0.789
			c0.003-0.323,0.003-0.643,0-0.964c-0.007-0.452-0.32-0.781-0.748-0.789c-0.436-0.002-0.753,0.32-0.772,0.766
			c-0.005,0.121-0.005,0.241-0.002,0.363v0.155v0.145C18.029,13.774,18.027,13.887,18.034,13.997z"/>
		<path fill="#292D32" d="M19.557,10.006c0-0.122,0.001-0.243-0.002-0.364c-0.02-0.406-0.324-0.717-0.721-0.738h-0.002
			c-0.019,0-0.033,0.008-0.054,0.009c-0.299,0.015-0.549,0.175-0.666,0.41c-0.038,0.084-0.06,0.176-0.067,0.272
			c-0.02,0.385-0.02,0.774,0,1.158c0.021,0.395,0.344,0.694,0.749,0.694h0.03c0.409-0.015,0.717-0.331,0.73-0.755
			c0.003-0.123,0.002-0.25,0.002-0.375l-0.002-0.159L19.557,10.006z"/>
		<path fill="#292D32" d="M19.555,16.312c-0.018-0.424-0.326-0.739-0.737-0.751c-0.435,0-0.76,0.309-0.777,0.72
			c-0.018,0.367-0.018,0.731,0,1.1c0.019,0.411,0.34,0.726,0.754,0.726l0.044-0.002c0.408-0.02,0.708-0.34,0.72-0.76
			c0.002-0.126,0.002-0.248,0.002-0.37l-0.002-0.146l0.002-0.149C19.557,16.55,19.558,16.43,19.555,16.312z"/>
	</g>
	<g>
		<path fill="#292D32" d="M7.604,15.028H5.609l-0.289,0.7H4.247l1.826-4.476h1.075l1.827,4.476H7.891L7.604,15.028z M7.27,14.214
			l-0.665-1.636l-0.664,1.636H7.27z"/>
		<path fill="#292D32" d="M13.102,14.046c0,1.033-0.65,1.766-1.55,1.766c-0.473,0-0.86-0.203-1.128-0.556v0.473H9.471v-4.552h0.953
			v1.655c0.269-0.346,0.656-0.546,1.128-0.546C12.451,12.286,13.102,13.015,13.102,14.046z M12.176,14.046
			c0-0.561-0.37-0.958-0.899-0.958c-0.464,0-0.802,0.339-0.853,0.826v0.262c0.051,0.493,0.389,0.835,0.853,0.835
			C11.806,15.01,12.176,14.612,12.176,14.046z"/>
		<path fill="#292D32" d="M13.581,14.046c0-0.958,0.847-1.76,1.847-1.76c0.544,0,0.995,0.221,1.321,0.571l-0.633,0.542
			c-0.17-0.189-0.437-0.312-0.697-0.312c-0.494,0-0.916,0.438-0.916,0.951c0,0.525,0.422,0.972,0.925,0.972
			c0.262,0,0.531-0.129,0.71-0.327l0.63,0.532c-0.334,0.367-0.786,0.596-1.349,0.596C14.423,15.812,13.581,14.999,13.581,14.046z"/>
	</g>
	<circle fill="#292D32" cx="18.794" cy="5.202" r="3.751"/>
	<path fill="#FFFFFF" d="M19.258,5.201l1.409-1.409l0.051-0.055c0.066-0.085,0.088-0.197,0.057-0.299
		c-0.032-0.104-0.113-0.185-0.218-0.217l-0.098-0.015c-0.092,0-0.175,0.038-0.247,0.111l-1.419,1.421l-1.41-1.411l-0.047-0.042
		c-0.102-0.081-0.229-0.095-0.354-0.033c-0.128,0.067-0.195,0.198-0.171,0.33c0.014,0.078,0.053,0.154,0.105,0.204
		c0.47,0.473,0.941,0.945,1.413,1.416l-1.419,1.42l0,0l-0.038,0.04c-0.07,0.087-0.093,0.202-0.059,0.308
		c0.033,0.105,0.118,0.186,0.227,0.216l0.087,0.012c0.091,0,0.174-0.038,0.246-0.111l1.42-1.421l1.419,1.418l0.047,0.043
		c0.103,0.08,0.251,0.091,0.364,0.027c0.129-0.073,0.193-0.219,0.154-0.36c-0.019-0.062-0.055-0.123-0.104-0.174L19.258,5.201z"/>
</g>
</svg>
