<?xml version="1.0" encoding="utf-8"?>
<!-- Generator: Adobe Illustrator 16.0.0, SVG Export Plug-In . SVG Version: 6.00 Build 0)  -->
<!DOCTYPE svg PUBLIC "-//W3C//DTD SVG 1.1//EN" "http://www.w3.org/Graphics/SVG/1.1/DTD/svg11.dtd">
<svg version="1.1" id="Vrstva_1" xmlns="http://www.w3.org/2000/svg" xmlns:xlink="http://www.w3.org/1999/xlink" x="0px" y="0px"
	 width="24px" height="24px" viewBox="0 0 24 24" enable-background="new 0 0 24 24" xml:space="preserve">
<g>
	<g>
		<path fill="#292D32" d="M18.662,12.893c-0.019-0.962-0.756-1.756-1.716-1.853c-0.056-0.006-0.11-0.014-0.181-0.022
			c0-0.074,0-0.141,0-0.208c0-1.164,0.015-2.329-0.006-3.494c-0.031-2.067-0.98-3.57-2.852-4.447
			c-0.254-0.118-0.533-0.188-0.813-0.25c-0.053-0.01-1.043-0.213-1.861-0.077c-0.063,0.013-0.124,0.026-0.187,0.04
			C11,2.591,10.954,2.605,10.909,2.619c-0.146,0.048-0.219,0.061-0.242,0.051c-0.135,0.034-0.27,0.077-0.396,0.129
			C8.627,3.47,7.632,4.695,7.314,6.447C7.257,6.769,7.245,7.1,7.244,7.427C7.235,8.548,7.241,9.67,7.241,10.792
			c0,0.067,0,0.134,0,0.214c-0.052,0.011-0.097,0.025-0.144,0.029c-1.041,0.11-1.756,0.898-1.756,1.952
			c-0.004,2.174,0.012,4.35-0.009,6.523C5.322,20.465,6,21.332,6.934,21.477c0.016,0.004,0.031,0.018,0.046,0.029
			c3.348,0,6.697,0,10.045,0c0.36-0.096,0.705-0.221,0.99-0.477c0.401-0.371,0.646-0.816,0.646-1.369
			c0.009-1.822,0.006-3.641,0.006-5.463C18.666,13.764,18.672,13.33,18.662,12.893z M9.143,7.274c0.01-1.46,1.017-2.664,2.404-2.876
			c1.731-0.267,3.264,1.007,3.311,2.781c0.026,1.245,0.003,2.491,0.003,3.735c0,0.029-0.007,0.059-0.013,0.098
			c-1.899,0-3.791,0-5.708,0c0-0.374,0-0.727,0-1.082C9.141,9.047,9.137,8.16,9.143,7.274z"/>
		<g>
			<path fill="#FFFFFF" d="M11.386,17.957c0-0.514-0.003-1.029,0.003-1.547c0-0.125-0.027-0.191-0.155-0.25
				c-0.883-0.4-1.307-1.373-1.013-2.283c0.296-0.902,1.205-1.435,2.165-1.26c0.9,0.162,1.568,1.018,1.505,1.957
				c-0.051,0.738-0.43,1.27-1.097,1.588c-0.123,0.059-0.157,0.117-0.155,0.246c0.004,1.025,0.004,2.049,0.001,3.074
				c-0.001,0.486-0.445,0.805-0.869,0.617c-0.253-0.113-0.383-0.316-0.384-0.594C11.385,18.988,11.386,18.475,11.386,17.957z
				 M12.64,14.455c-0.003-0.34-0.288-0.623-0.627-0.623c-0.346,0-0.635,0.301-0.626,0.648c0.009,0.336,0.299,0.615,0.638,0.609
				C12.364,15.082,12.643,14.793,12.64,14.455z"/>
		</g>
	</g>
</g>
</svg>
