<?xml version="1.0" encoding="utf-8"?>
<!-- Generator: Adobe Illustrator 16.0.0, SVG Export Plug-In . SVG Version: 6.00 Build 0)  -->
<!DOCTYPE svg PUBLIC "-//W3C//DTD SVG 1.1//EN" "http://www.w3.org/Graphics/SVG/1.1/DTD/svg11.dtd">
<svg version="1.1" id="Vrstva_1" xmlns="http://www.w3.org/2000/svg" xmlns:xlink="http://www.w3.org/1999/xlink" x="0px" y="0px"
	 width="24px" height="24px" viewBox="0 0 24 24" enable-background="new 0 0 24 24" xml:space="preserve">
<g>
	<g>
		<path fill="none" stroke="#292D32" stroke-width="1.5" stroke-linecap="round" stroke-linejoin="round" d="M22,10v5c0,5-2,7-7,7H9
			c-5,0-7-2-7-7V9c0-5,2-7,7-7h5"/>
		<path fill="none" stroke="#292D32" stroke-width="1.5" stroke-linecap="round" stroke-linejoin="round" d="M22,10h-4c-3,0-4-1-4-4
			V2L22,10z"/>
	</g>
</g>
<g>
	<path fill="#292D32" d="M15.343,18.876c0.563-0.002,0.866-0.303,0.866-0.859c0.001-1.912,0.001-3.828,0-5.742
		c0-0.56-0.297-0.856-0.865-0.856c-2.534-0.001-5.068-0.001-7.604,0c-0.56,0-0.859,0.301-0.86,0.866c0,1.906,0,3.814,0,5.723
		c0,0.568,0.303,0.867,0.875,0.869c1.266,0,2.529,0,3.795,0C12.813,18.876,14.079,18.876,15.343,18.876z M7.755,18.267
		c-0.237-0.002-0.277-0.041-0.277-0.285c0-1.891,0-3.781,0-5.672c0-0.248,0.043-0.291,0.289-0.291c2.518,0,5.035,0,7.553,0
		c0.258,0,0.296,0.041,0.296,0.302c0,1.885,0,3.77,0,5.656c0,0.25-0.038,0.287-0.29,0.287c-1.265,0-2.529,0-3.793,0
		C10.272,18.267,9.013,18.267,7.755,18.267z"/>
	<path fill="#292D32" d="M14.85,15.337c-0.588-0.58-1.172-1.168-1.759-1.75c-0.043-0.043-0.089-0.086-0.151-0.146
		c-0.829,0.836-1.646,1.662-2.485,2.508c-0.264-0.277-0.513-0.541-0.772-0.816c-0.517,0.521-1.006,1.014-1.493,1.508
		c-0.026,0.029-0.055,0.068-0.055,0.104c-0.004,0.289-0.003,0.58-0.003,0.873c2.29,0,4.555,0,6.833,0c0-0.074,0-0.137,0-0.201
		c0-0.598-0.003-1.195,0.003-1.793C14.967,15.505,14.936,15.423,14.85,15.337z"/>
	<path fill="#292D32" d="M9.052,14.511c0.517-0.002,0.917-0.4,0.919-0.918c0.003-0.525-0.398-0.928-0.925-0.926
		c-0.516,0-0.915,0.396-0.917,0.914C8.126,14.106,8.529,14.511,9.052,14.511z"/>
	<path fill="#292D32" d="M17.111,13.304c0-0.084-0.001-0.172-0.011-0.258c-0.027-0.301-0.31-0.574-0.585-0.619v0.834
		c0.003,0.014,0.004,0.023,0.004,0.037c0.006,1.844,0.004,3.689,0.004,5.533c0,0.289-0.023,0.314-0.315,0.314
		c-1.554,0-3.106,0.012-4.659,0V19.14h-0.586c-0.131,0-0.261-0.002-0.391-0.004c-0.105-0.002-0.212,0-0.316,0.004H8.907H8.285H7.972
		c0.005,0.029,0.01,0.055,0.019,0.082c0.105,0.328,0.392,0.518,0.787,0.518c2.478,0,4.954-0.008,7.431,0.008
		c0.508,0.002,0.918-0.287,0.911-0.91C17.099,16.991,17.111,15.146,17.111,13.304z"/>
</g>
</svg>
