<?xml version="1.0" encoding="utf-8"?>
<!-- Generator: Adobe Illustrator 16.0.0, SVG Export Plug-In . SVG Version: 6.00 Build 0)  -->
<!DOCTYPE svg PUBLIC "-//W3C//DTD SVG 1.1//EN" "http://www.w3.org/Graphics/SVG/1.1/DTD/svg11.dtd">
<svg version="1.1" id="Vrstva_1" xmlns="http://www.w3.org/2000/svg" xmlns:xlink="http://www.w3.org/1999/xlink" x="0px" y="0px"
	 width="24px" height="24px" viewBox="0 0 24 24" enable-background="new 0 0 24 24" xml:space="preserve">
<g>
	<path fill="#292D32" d="M11.547,21.752c-5.652,0-10.25-4.599-10.25-10.252c0-5.651,4.598-10.25,10.25-10.25
		c5.652,0,10.25,4.599,10.25,10.25C21.797,17.153,17.199,21.752,11.547,21.752z M11.547,2.75c-4.825,0-8.75,3.926-8.75,8.75
		c0,4.826,3.925,8.752,8.75,8.752c4.824,0,8.75-3.926,8.75-8.752C20.297,6.676,16.371,2.75,11.547,2.75z"/>
</g>
<path fill="none" stroke="#292D32" stroke-width="1.5" stroke-linecap="round" stroke-linejoin="round" d="M22,22l-2-2"/>
</svg>
