<?xml version="1.0" encoding="utf-8"?>
<!-- Generator: Adobe Illustrator 16.0.0, SVG Export Plug-In . SVG Version: 6.00 Build 0)  -->
<!DOCTYPE svg PUBLIC "-//W3C//DTD SVG 1.1//EN" "http://www.w3.org/Graphics/SVG/1.1/DTD/svg11.dtd">
<svg version="1.1" id="Vrstva_1" xmlns="http://www.w3.org/2000/svg" xmlns:xlink="http://www.w3.org/1999/xlink" x="0px" y="0px"
	 width="24px" height="24px" viewBox="0 0 24 24" enable-background="new 0 0 24 24" xml:space="preserve">
<g>
	<g>
		<g>
			<g>
				<rect x="4.682" y="8.381" fill="#CCCED0" width="12.405" height="1.816"/>
			</g>
		</g>
		<g>
			<g>
				<rect x="4.682" y="12.084" fill="#292D32" width="12.405" height="1.816"/>
			</g>
		</g>
		<g>
			<g>
				<rect x="4.682" y="15.789" fill="#CCCED0" width="12.405" height="1.814"/>
			</g>
		</g>
	</g>
	<g>
		<path fill="#292D32" d="M20.374,17.873c0.12-0.584,0.182-1.268,0.19-2.088v-5.589c-0.011-0.837-0.071-1.499-0.192-2.081
			c-0.236-1.312-0.714-2.317-1.459-3.08c-0.556-0.582-1.308-1.028-2.238-1.322c-0.852-0.265-1.902-0.401-3.117-0.401L8.209,3.314
			c-4.846,0-7.005,2.16-7.005,7.004v5.357c0,4.84,2.161,6.998,7.005,6.998h5.35c1.216,0,2.263-0.137,3.118-0.398
			c0.923-0.291,1.658-0.721,2.24-1.318C19.656,20.195,20.133,19.189,20.374,17.873z M16.741,20.652
			c-0.604,0.268-1.358,0.42-2.308,0.465c-0.286,0.02-0.57,0.029-0.874,0.029H8.211c-4.1,0-5.481-1.379-5.481-5.471v-5.359
			c0-4.071,1.277-5.452,5.303-5.471l0,0l5.527-0.02c0.313,0,0.608,0.01,0.885,0.028c0.956,0.058,1.712,0.214,2.31,0.479
			c1.124,0.477,1.791,1.348,2.098,2.741c0.123,0.595,0.186,1.287,0.193,2.121v5.59c-0.008,0.838-0.07,1.529-0.193,2.123
			C18.545,19.303,17.874,20.176,16.741,20.652z"/>
	</g>
	<g>
		<g>
			<path fill="#FFFFFF" d="M18.067,2.299c-1.782,0-3.233,1.455-3.233,3.243c0,1.783,1.451,3.233,3.233,3.233S21.3,7.325,21.3,5.542
				C21.3,3.754,19.85,2.299,18.067,2.299z"/>
			<path fill="#292D32" d="M18.067,1.327c-2.324,0-4.214,1.891-4.214,4.215c0,2.319,1.89,4.206,4.214,4.206s4.214-1.887,4.214-4.206
				C22.281,3.218,20.392,1.327,18.067,1.327z M18.067,8.775c-1.782,0-3.233-1.45-3.233-3.233c0-1.788,1.451-3.243,3.233-3.243
				S21.3,3.754,21.3,5.542C21.3,7.325,19.85,8.775,18.067,8.775z"/>
		</g>
		<path fill="#292D32" d="M22.666,9.488l-0.784-0.783c-0.161-0.162-0.468-0.16-0.623-0.002c-0.085,0.084-0.131,0.195-0.131,0.313
			c-0.002,0.117,0.045,0.229,0.131,0.313l0.781,0.781c0.08,0.084,0.194,0.133,0.313,0.133c0.117,0,0.229-0.047,0.313-0.131
			s0.13-0.193,0.13-0.311S22.75,9.572,22.666,9.488z"/>
	</g>
	<g>
		<path fill="#292D32" d="M17.206,6.443c0-0.233,0.037-0.445,0.112-0.629c0.077-0.187,0.235-0.348,0.473-0.485
			c0.072-0.043,0.161-0.092,0.265-0.147c0.105-0.054,0.208-0.12,0.309-0.195c0.1-0.077,0.184-0.167,0.254-0.269
			c0.068-0.104,0.102-0.222,0.102-0.354c0-0.1-0.017-0.188-0.057-0.264c-0.037-0.077-0.088-0.141-0.148-0.193
			c-0.062-0.053-0.135-0.092-0.22-0.119c-0.082-0.025-0.167-0.039-0.253-0.039c-0.105,0-0.2,0.019-0.286,0.054
			c-0.086,0.036-0.163,0.081-0.232,0.136c-0.069,0.055-0.13,0.116-0.185,0.187c-0.057,0.067-0.103,0.133-0.14,0.196l-0.624-0.428
			c0.063-0.148,0.146-0.28,0.248-0.395c0.101-0.114,0.219-0.21,0.351-0.289c0.131-0.079,0.272-0.138,0.425-0.179
			C17.751,2.99,17.909,2.97,18.07,2.97c0.18,0,0.36,0.026,0.536,0.079c0.178,0.052,0.334,0.136,0.475,0.25
			c0.141,0.115,0.256,0.261,0.346,0.44c0.087,0.177,0.13,0.392,0.13,0.639c0,0.153-0.017,0.287-0.054,0.403
			c-0.036,0.118-0.086,0.225-0.153,0.319c-0.067,0.096-0.146,0.182-0.237,0.257c-0.09,0.076-0.193,0.15-0.306,0.22
			c-0.095,0.058-0.19,0.112-0.287,0.166c-0.094,0.053-0.182,0.109-0.261,0.175c-0.077,0.063-0.143,0.137-0.193,0.221
			c-0.049,0.083-0.074,0.185-0.074,0.304L17.206,6.443L17.206,6.443z M17.221,8.109V7.123h0.791v0.986H17.221L17.221,8.109z"/>
	</g>
</g>
</svg>
