<?xml version="1.0" encoding="utf-8"?>
<svg version="1.1" xmlns="http://www.w3.org/2000/svg" x="0px" y="0px"
	 width="24px" height="24px" viewBox="0 0 24 24" enable-background="new 0 0 24 24" xml:space="preserve">
<g>
	<path fill="none" stroke="#292D32" stroke-width="1.5" stroke-linecap="round" stroke-linejoin="round" d="M22,10v5c0,5-2,7-7,7H9
		c-5,0-7-2-7-7V9c0-5,2-7,7-7h5"/>
	<path fill="none" stroke="#292D32" stroke-width="1.5" stroke-linecap="round" stroke-linejoin="round" d="M22,10h-4c-3,0-4-1-4-4
		V2L22,10z"/>
</g>
<g fill="#292D32">
	<rect x="14.2" y="14.6" width="1.3" height="4.2"/>
	<path d="M17.1,14.6h2c0.7,0,1.2,0.5,1.2,1.2v0.3c0,0.7-0.5,1.2-1.2,1.2h-0.8v1.5h-1.3V14.6z M18.3,15.8v0.5h0.7v-0.5H18.3z"/>
	<path d="M9,14.6h2c0.7,0,1.2,0.5,1.2,1.2v0.1c0,0.3-0.1,0.6-0.4,0.8c0.3,0.2,0.4,0.5,0.4,0.8v0.1c0,0.7-0.5,1.2-1.2,1.2H9V14.6z
		 M10.2,15.8v0.4h0.7v-0.4H10.2z M10.2,17.3v0.4h0.7v-0.4H10.2z"/>
</g>
</svg>
