<?xml version="1.0" encoding="utf-8"?>
<!-- Generator: Adobe Illustrator 16.0.0, SVG Export Plug-In . SVG Version: 6.00 Build 0)  -->
<!DOCTYPE svg PUBLIC "-//W3C//DTD SVG 1.1//EN" "http://www.w3.org/Graphics/SVG/1.1/DTD/svg11.dtd">
<svg version="1.1" id="Vrstva_1" xmlns="http://www.w3.org/2000/svg" xmlns:xlink="http://www.w3.org/1999/xlink" x="0px" y="0px"
	 width="24px" height="24px" viewBox="0 0 24 24" enable-background="new 0 0 24 24" xml:space="preserve">
<g>
	<g>
		<path fill-rule="evenodd" clip-rule="evenodd" fill="#292D32" d="M12.059,22.386c-0.041,0-0.082,0-0.123,0
			c-0.031-0.003-0.063-0.008-0.094-0.008c-0.573-0.013-1.135-0.089-1.688-0.232c-1.191-0.312-2.238-0.887-3.144-1.721
			c-0.789-0.728-1.392-1.587-1.806-2.576c-0.297-0.71-0.474-1.451-0.538-2.218c-0.042-0.505-0.03-1.008,0.048-1.508
			c0.075-0.484,0.193-0.959,0.342-1.427c0.373-1.176,0.894-2.286,1.473-3.37C7.17,8.129,7.887,6.978,8.644,5.851
			c0.781-1.162,1.604-2.295,2.47-3.396c0.187-0.237,0.375-0.474,0.568-0.705c0.097-0.115,0.229-0.147,0.376-0.132
			c0.147,0.016,0.244,0.105,0.332,0.214c0.998,1.235,1.941,2.511,2.833,3.824c0.88,1.296,1.705,2.625,2.427,4.017
			c0.511,0.985,0.968,1.994,1.301,3.056c0.186,0.591,0.328,1.193,0.384,1.812c0.055,0.636,0.01,1.266-0.111,1.892
			c-0.159,0.818-0.45,1.589-0.875,2.31c-0.507,0.861-1.163,1.591-1.965,2.189c-0.7,0.521-1.469,0.905-2.306,1.151
			c-0.508,0.149-1.027,0.245-1.557,0.278C12.367,22.369,12.212,22.378,12.059,22.386z M11.563,21.496c0-6.072,0-12.131,0-18.201
			c-0.018,0.021-0.03,0.035-0.04,0.049c-0.146,0.192-0.292,0.383-0.436,0.575C10.378,4.863,9.698,5.827,9.05,6.813
			c-0.732,1.115-1.422,2.256-2.03,3.444c-0.44,0.86-0.837,1.739-1.13,2.662c-0.179,0.561-0.317,1.13-0.364,1.719
			c-0.05,0.619,0.003,1.23,0.143,1.834c0.249,1.076,0.744,2.029,1.479,2.855c0.516,0.581,1.119,1.054,1.804,1.42
			c0.669,0.356,1.379,0.586,2.128,0.694C11.239,21.465,11.399,21.478,11.563,21.496z"/>
		<path fill="#292D32" d="M12.074,22.985h-0.139l0,0l-0.11-0.008c-0.618-0.014-1.232-0.098-1.822-0.251
			c-1.28-0.335-2.423-0.961-3.4-1.86c-0.85-0.784-1.507-1.721-1.953-2.786c-0.317-0.757-0.513-1.564-0.582-2.399
			c-0.047-0.566-0.029-1.122,0.054-1.65c0.076-0.49,0.195-0.986,0.363-1.516C4.823,11.45,5.304,10.347,6,9.044
			c0.591-1.105,1.293-2.26,2.145-3.527c0.788-1.173,1.628-2.328,2.496-3.434c0.19-0.242,0.383-0.482,0.579-0.718
			c0.19-0.228,0.464-0.352,0.771-0.352l0.13,0.007c0.42,0.045,0.657,0.337,0.734,0.433c0.996,1.232,1.959,2.533,2.863,3.865
			c0.993,1.462,1.799,2.795,2.463,4.077c0.608,1.172,1.034,2.174,1.341,3.152c0.222,0.704,0.355,1.338,0.409,1.938
			c0.057,0.662,0.017,1.354-0.12,2.06c-0.172,0.885-0.49,1.726-0.947,2.5c-0.543,0.924-1.258,1.72-2.122,2.365
			c-0.758,0.563-1.597,0.982-2.496,1.246c-0.561,0.165-1.128,0.267-1.688,0.302L12.074,22.985z M12.144,2.483l0.019,0.812v18.484
			l0.32-0.019c0.471-0.029,0.95-0.115,1.426-0.255c0.763-0.225,1.475-0.58,2.116-1.058c0.735-0.549,1.344-1.227,1.806-2.013
			c0.388-0.656,0.658-1.369,0.804-2.119c0.117-0.604,0.15-1.169,0.103-1.726c-0.046-0.511-0.163-1.063-0.358-1.684
			c-0.286-0.91-0.687-1.851-1.261-2.96c-0.644-1.238-1.425-2.532-2.391-3.955C13.907,4.786,13.04,3.607,12.144,2.483z M10.962,5.099
			C10.473,5.776,10,6.461,9.551,7.144c-0.805,1.226-1.458,2.334-1.997,3.388c-0.496,0.969-0.843,1.785-1.092,2.57
			c-0.192,0.604-0.3,1.107-0.338,1.585c-0.043,0.536,0,1.091,0.129,1.651c0.225,0.971,0.677,1.843,1.343,2.592
			c0.465,0.522,1.016,0.956,1.639,1.289c0.539,0.287,1.12,0.487,1.728,0.597V5.099z"/>
	</g>
	<g>
		<path fill-rule="evenodd" clip-rule="evenodd" fill="#FFFFFF" d="M11.563,21.496c-0.163-0.019-0.324-0.031-0.482-0.054
			c-0.75-0.108-1.459-0.338-2.128-0.694c-0.686-0.366-1.288-0.839-1.804-1.42c-0.735-0.826-1.23-1.779-1.479-2.855
			c-0.139-0.604-0.193-1.215-0.143-1.834C5.573,14.05,5.711,13.48,5.89,12.92c0.293-0.923,0.689-1.802,1.13-2.662
			c0.608-1.188,1.298-2.329,2.03-3.444c0.648-0.986,1.328-1.95,2.037-2.895c0.145-0.192,0.291-0.383,0.436-0.575
			c0.01-0.014,0.022-0.027,0.04-0.049C11.563,9.365,11.563,15.424,11.563,21.496z"/>
	</g>
</g>
</svg>
