<?xml version="1.0" encoding="utf-8"?>
<!-- Generator: Adobe Illustrator 16.0.0, SVG Export Plug-In . SVG Version: 6.00 Build 0)  -->
<!DOCTYPE svg PUBLIC "-//W3C//DTD SVG 1.1//EN" "http://www.w3.org/Graphics/SVG/1.1/DTD/svg11.dtd">
<svg version="1.1" id="Vrstva_1" xmlns="http://www.w3.org/2000/svg" xmlns:xlink="http://www.w3.org/1999/xlink" x="0px" y="0px"
	 width="24px" height="24px" viewBox="0 0 24 24" enable-background="new 0 0 24 24" xml:space="preserve">
<path fill="#292D32" d="M15,13.836l-4.422-2.551c-0.274-0.159-0.583-0.243-0.895-0.243c-0.99,0-1.795,0.806-1.795,1.796v5.098
	c0,0.989,0.807,1.794,1.799,1.794c0.312,0,0.62-0.083,0.893-0.24L15,16.938c0.563-0.323,0.897-0.902,0.897-1.551
	S15.563,14.159,15,13.836z M9.688,18.86c-0.445,0-0.929-0.354-0.929-0.925v-5.098c0-0.571,0.48-0.925,0.925-0.925
	c0.161,0,0.316,0.042,0.46,0.126l4.423,2.552c0.289,0.165,0.461,0.463,0.461,0.797c0,0.333-0.174,0.631-0.461,0.796l-4.421,2.551
	C10.001,18.817,9.848,18.86,9.688,18.86z"/>
<g>
	<g>
		<g>
			<path fill="#292D32" d="M14.99,22.75h-6c-5.433,0-7.75-2.317-7.75-7.75V9c0-5.432,2.317-7.75,7.75-7.75h5
				c0.414,0,0.75,0.336,0.75,0.75s-0.336,0.75-0.75,0.75h-5C4.376,2.75,2.74,4.386,2.74,9v6c0,4.614,1.636,6.25,6.25,6.25h6
				c4.614,0,6.25-1.636,6.25-6.25v-5c0-0.414,0.336-0.75,0.75-0.75s0.75,0.336,0.75,0.75v5C22.74,20.433,20.423,22.75,14.99,22.75z"
				/>
		</g>
		<g>
			<path fill="#292D32" d="M22.01,10.75c-0.005,0-0.013,0.001-0.02,0h-4c-3.418,0-4.75-1.332-4.75-4.75V2
				c0-0.303,0.183-0.577,0.463-0.693c0.281-0.116,0.603-0.052,0.817,0.163l7.907,7.907C22.628,9.512,22.76,9.74,22.76,10
				C22.76,10.414,22.425,10.75,22.01,10.75z M14.74,3.811V6c0,2.582,0.668,3.25,3.25,3.25h2.189L14.74,3.811z"/>
		</g>
	</g>
</g>
</svg>
