<?xml version="1.0" encoding="UTF-8" standalone="no"?>
<!-- Created with Inkscape (http://www.inkscape.org/) -->

<svg
   xmlns:dc="http://purl.org/dc/elements/1.1/"
   xmlns:cc="http://creativecommons.org/ns#"
   xmlns:rdf="http://www.w3.org/1999/02/22-rdf-syntax-ns#"
   xmlns:svg="http://www.w3.org/2000/svg"
   xmlns="http://www.w3.org/2000/svg"
   xmlns:sodipodi="http://sodipodi.sourceforge.net/DTD/sodipodi-0.dtd"
   xmlns:inkscape="http://www.inkscape.org/namespaces/inkscape"
   version="1.1"
   id="svg815"
   width="1024"
   height="1024"
   viewBox="0 0 1024 1024"
   sodipodi:docname="thumbnail.svg"
   inkscape:version="0.92.4 (5da689c313, 2019-01-14)">
  <metadata
     id="metadata821">
    <rdf:RDF>
      <cc:Work
         rdf:about="">
        <dc:format>image/svg+xml</dc:format>
        <dc:type
           rdf:resource="http://purl.org/dc/dcmitype/StillImage" />
        <dc:title></dc:title>
      </cc:Work>
    </rdf:RDF>
  </metadata>
  <defs
     id="defs819" />
  <sodipodi:namedview
     pagecolor="#ffffff"
     bordercolor="#666666"
     borderopacity="1"
     objecttolerance="10"
     gridtolerance="10"
     guidetolerance="10"
     inkscape:pageopacity="0"
     inkscape:pageshadow="2"
     inkscape:window-width="3840"
     inkscape:window-height="2035"
     id="namedview817"
     showgrid="false"
     inkscape:zoom="1.7167969"
     inkscape:cx="512"
     inkscape:cy="512"
     inkscape:window-x="-13"
     inkscape:window-y="-13"
     inkscape:window-maximized="1"
     inkscape:current-layer="svg815" />
  <path
     style="fill:#000000"
     d="m 276.5,830.60545 c -12.46403,-3.95518 -21.57692,-13.08616 -27.29092,-27.34509 L 246.5,796.5 246.22596,509 c -0.18955,-198.85427 0.0529,-289.65833 0.78639,-294.5 2.0117,-13.27951 9.45813,-24.82628 20.12556,-31.20766 C 278.13403,176.71435 271.82056,177 406.2101,177 H 528 v 34 34 l -39.25,0.0508 c -21.5875,0.028 -68.5,0.14045 -104.25,0.25 l -65,0.19917 -0.2519,259.25 -0.2519,259.25 H 515.9981 713 V 599.65372 435.30746 l 19.57694,-0.69657 c 15.87658,-0.5649 20.55473,-1.06922 24.75,-2.6681 7.34954,-2.80104 13.45748,-7.62612 20.26411,-16.00803 3.24992,-4.00206 6.35895,-7.42463 6.90895,-7.6057 0.66553,-0.21911 0.83276,65.31835 0.5,195.94217 l -0.5,196.27139 -3.4196,6.94589 c -4.55071,9.24342 -11.17144,15.69847 -20.83358,20.31226 L 752.5,831.5 l -236,0.18738 c -188.36178,0.14956 -236.80743,-0.0688 -240,-1.08193 z m 102,-114.47858 c -7.03347,-3.24315 -10.51163,-9.32943 -10.48355,-18.34475 0.0204,-6.53417 3.06205,-12.33496 7.98411,-15.22639 3.47762,-2.04291 4.34103,-2.05753 138.49944,-2.34376 100.88716,-0.21525 136.07745,0.008 139.26394,0.88386 5.62495,1.54596 9.72356,6.28724 11.13855,12.8851 1.93536,9.02427 -0.58867,16.50913 -7.22563,21.42712 L 654.85372,717.5 518.67686,717.73564 C 388.16501,717.96147 382.3336,717.89454 378.5,716.12687 Z m -0.0786,-65.0232 c -7.46386,-3.38992 -10.93926,-10.26753 -10.21914,-20.22308 0.4544,-6.28208 2.27183,-9.6521 7.18271,-13.3188 2.75376,-2.05609 3.14225,-2.06249 140.43821,-2.31599 129.55014,-0.2392 137.88253,-0.15066 141.16175,1.5 5.45102,2.74387 7.97887,8.22908 7.99862,17.35632 0.0199,9.19654 -2.13498,13.20327 -8.95351,16.64788 L 651.57622,653 517.03811,652.978 C 388.23376,652.957 382.32618,652.87709 378.4214,651.10363 Z m 1.2624,-64.54508 c -2.0989,-0.75263 -4.74996,-2.19871 -5.89123,-3.21351 -5.18795,-4.61303 -7.42647,-16.59064 -4.41573,-23.6272 0.75726,-1.76983 2.77973,-4.53715 4.49438,-6.14958 2.99437,-2.81588 3.64124,-2.96669 16.37316,-3.81705 7.29059,-0.48693 69.52195,-0.69145 138.29191,-0.45449 112.80261,0.3887 125.34301,0.58946 128.17116,2.05196 4.15474,2.14849 6.97832,6.28694 8.2935,12.15553 2.10039,9.37234 -0.97949,17.81496 -8.00435,21.94168 -3.47563,2.04175 -4.30628,2.05535 -138.4966,2.26758 -112.10884,0.17731 -135.64709,-0.0185 -138.8162,-1.15492 z m -2.65698,-66.79816 c -12.20293,-6.21356 -12.23046,-27.37613 -0.0436,-33.52094 l 4.48321,-2.2605 136.09023,0.2605 136.09022,0.26051 3.62328,2.48282 c 5.47291,3.75027 7.98155,8.99181 8.08468,16.89206 0.1005,7.69825 -1.65711,11.77806 -6.58974,15.29628 L 655.5,521.5 518.48306,521.76043 381.46612,522.02087 Z M 568.45863,402.12034 c -4.18992,-1.90322 -8.81174,-6.63494 -10.807,-11.06397 C 556.817,389.20366 556.36237,359.66656 556,283.74983 c -0.275,-57.61259 -0.45738,-104.75009 -0.40528,-104.75 0.0521,1e-4 19.85209,20.35654 44,45.23655 24.1479,24.88001 74.00849,75.50501 110.80131,112.5 L 777.29206,404 674.89603,403.978 c -97.18104,-0.0208 -102.60186,-0.11546 -106.4374,-1.8577 z m 180.7125,-67.46306 -35.29224,-35.34273 0.0884,-27.15727 L 714.05569,245 H 687.7723 661.48892 l -33.98897,-34 -33.98897,-34 h 60.60291 60.60292 L 749.85838,212.49855 785,247.9971 v 59.41966 c 0,32.68082 0.27314,60.13147 0.60699,61.00145 0.33384,0.86999 0.2131,1.58179 -0.26832,1.58179 -0.48142,0 -16.75681,-15.90423 -36.16754,-35.34272 z"
     id="path825"
     inkscape:connector-curvature="0" />
</svg>
