<?xml version="1.0" encoding="utf-8"?>
<!-- Generator: Adobe Illustrator 16.0.0, SVG Export Plug-In . SVG Version: 6.00 Build 0)  -->
<!DOCTYPE svg PUBLIC "-//W3C//DTD SVG 1.1//EN" "http://www.w3.org/Graphics/SVG/1.1/DTD/svg11.dtd">
<svg version="1.1" id="Vrstva_1" xmlns="http://www.w3.org/2000/svg" xmlns:xlink="http://www.w3.org/1999/xlink" x="0px" y="0px"
	 width="24px" height="24px" viewBox="0 0 24 24" enable-background="new 0 0 24 24" xml:space="preserve">
<path fill="#292D32" d="M21.813,17.132c0.127-0.61,0.19-1.327,0.201-2.187V9.091C22,8.212,21.938,7.518,21.811,6.909
	c-0.246-1.375-0.748-2.431-1.525-3.229c-0.581-0.611-1.371-1.077-2.348-1.386c-0.894-0.278-1.992-0.42-3.266-0.42L9.066,1.878
	c-5.077,0-7.34,2.264-7.34,7.342v5.613c0,5.067,2.265,7.328,7.34,7.328h5.606c1.273,0,2.372-0.144,3.266-0.418
	c0.972-0.302,1.738-0.752,2.351-1.38C21.063,19.566,21.563,18.512,21.813,17.132z M18.007,20.044
	c-0.634,0.281-1.425,0.44-2.421,0.492c-0.297,0.021-0.598,0.028-0.911,0.028H9.066c-4.296,0-5.744-1.444-5.744-5.731V9.218
	c0-4.267,1.526-5.735,5.744-5.756l0,0h5.606c0.325,0,0.637,0.011,0.926,0.028c1,0.063,1.793,0.226,2.42,0.503
	c1.182,0.501,1.877,1.414,2.199,2.872c0.129,0.624,0.191,1.35,0.2,2.223v5.857c-0.009,0.877-0.073,1.603-0.2,2.222
	C19.896,18.634,19.195,19.546,18.007,20.044z"/>
<g>
	<path fill="none" stroke="#292D32" stroke-miterlimit="10" d="M16.758,17.7H7.502c-0.552,0-1-0.447-1-1v-5.063c0-0.552,0.448-1,1-1
		h9.255c0.554,0,1,0.448,1,1V16.7C17.758,17.253,17.311,17.7,16.758,17.7z"/>
	<path fill="#292D32" d="M12.171,8.575H6.984c-0.552,0-1-0.448-1-1v-0.24c0-0.552,0.448-1,1-1h5.188c0.553,0,1,0.448,1,1v0.24
		C13.172,8.127,12.725,8.575,12.171,8.575z"/>
</g>
</svg>
