<?xml version="1.0" encoding="utf-8"?>
<!-- Generator: Adobe Illustrator 16.0.0, SVG Export Plug-In . SVG Version: 6.00 Build 0)  -->
<!DOCTYPE svg PUBLIC "-//W3C//DTD SVG 1.1//EN" "http://www.w3.org/Graphics/SVG/1.1/DTD/svg11.dtd">
<svg version="1.1" id="Vrstva_1" xmlns="http://www.w3.org/2000/svg" xmlns:xlink="http://www.w3.org/1999/xlink" x="0px" y="0px"
	 width="24px" height="24px" viewBox="0 0 24 24" enable-background="new 0 0 24 24" xml:space="preserve">
<g>
	<g>
		<g>
			<path fill="#292D32" d="M11.146,0.884c0.291,0.252,0.333,0.693,0.081,0.985L9.933,3.411l-0.009,0L9.903,3.437L9.066,4.44
				L8.725,4.841L8.569,5.023C8.316,5.316,7.884,5.357,7.592,5.114C7.556,5.085,7.52,5.046,7.493,5.008
				C7.475,4.988,7.457,4.969,7.439,4.94C7.42,4.921,7.412,4.893,7.404,4.874C7.386,4.836,7.369,4.808,7.369,4.77
				C7.334,4.694,7.328,4.619,7.33,4.544c0-0.009,0-0.009,0-0.02c0-0.009,0-0.009,0-0.018c0.002-0.046,0.012-0.103,0.032-0.14
				C7.364,4.348,7.375,4.33,7.375,4.32c0.021-0.055,0.051-0.11,0.089-0.156c0-0.018,0.019-0.027,0.03-0.046l2.667-3.154
				C10.404,0.672,10.854,0.64,11.146,0.884z"/>
		</g>
		<g>
			<path fill="#292D32" d="M8.369,3.959c0.028,0.009,0.056,0.02,0.074,0.04l0.092,0.069L9.066,4.44l0.65,0.461l0.045,0.029
				l1.859,1.324c0.321,0.216,0.39,0.659,0.174,0.971c-0.226,0.32-0.667,0.39-0.979,0.174L8.27,5.595L7.629,5.144
				C7.62,5.134,7.602,5.123,7.592,5.114C7.556,5.085,7.52,5.046,7.493,5.008C7.475,4.988,7.457,4.969,7.439,4.94
				C7.42,4.921,7.412,4.893,7.404,4.874C7.386,4.836,7.369,4.808,7.369,4.77C7.334,4.694,7.328,4.619,7.33,4.544
				c0-0.009,0-0.009,0-0.02c0-0.009,0-0.009,0-0.018c0.002-0.046,0.012-0.103,0.032-0.14C7.364,4.348,7.375,4.33,7.375,4.32
				c0.021-0.055,0.051-0.11,0.089-0.156C7.67,3.861,8.066,3.781,8.369,3.959z"/>
		</g>
	</g>
	<path fill="#292D32" d="M16.644,19.227c0.002-0.037-0.017-0.065-0.033-0.103c-0.019-0.049-0.054-0.096-0.09-0.135
		c-0.036-0.048-0.081-0.097-0.136-0.136l-0.642-0.452l-2.545-1.805c-0.312-0.226-0.754-0.146-0.98,0.165
		c-0.215,0.321-0.145,0.764,0.176,0.98l1.857,1.324c-0.51,0.16-1.037,0.266-1.582,0.313c-0.18,0.013-0.366,0.025-0.554,0.028
		c-0.122,0.006-0.243,0.002-0.356-0.002c-0.487-0.016-0.962-0.076-1.427-0.187c-0.232-0.054-0.455-0.116-0.678-0.189
		c-0.009-0.001-0.018-0.001-0.027-0.011c-0.204-0.063-0.408-0.144-0.601-0.234c-0.046-0.011-0.083-0.031-0.111-0.051
		c-0.185-0.08-0.369-0.171-0.544-0.278c-0.184-0.1-0.367-0.21-0.541-0.337c-0.074-0.04-0.138-0.088-0.202-0.147
		c-0.118-0.079-0.238-0.166-0.347-0.263c-0.055-0.04-0.101-0.078-0.146-0.127c-0.1-0.087-0.2-0.176-0.291-0.262
		c-0.045-0.04-0.082-0.078-0.118-0.127c-0.082-0.076-0.164-0.163-0.236-0.249c-0.082-0.079-0.153-0.175-0.225-0.261
		c-0.153-0.183-0.288-0.365-0.414-0.557c-0.554-0.814-0.928-1.726-1.112-2.687c-0.089-0.433-0.14-0.885-0.145-1.334
		c0-0.274,0.012-0.555,0.036-0.83H3.227C3.214,11.42,3.2,11.563,3.195,11.706c-0.005,0.14-0.009,0.279-0.004,0.421
		c0.01,0.871,0.15,1.728,0.415,2.541c0.042,0.134,0.084,0.266,0.137,0.398c0.344,0.947,0.859,1.825,1.527,2.613
		c0.09,0.107,0.189,0.214,0.289,0.32c0.1,0.115,0.2,0.212,0.309,0.318c0.1,0.097,0.2,0.193,0.3,0.281
		c0.374,0.33,0.767,0.624,1.18,0.881c0.11,0.068,0.221,0.138,0.34,0.199c0.119,0.068,0.24,0.139,0.369,0.197
		c0.121,0.061,0.249,0.122,0.369,0.182c0.045,0.02,0.092,0.04,0.138,0.06C8.774,20.2,8.987,20.282,9.2,20.354
		c0.139,0.051,0.269,0.093,0.409,0.126c0.129,0.041,0.269,0.073,0.408,0.107c0.279,0.064,0.558,0.12,0.839,0.147
		c0.129,0.023,0.26,0.037,0.391,0.051c0.3,0.018,0.588,0.038,0.889,0.028c0.244-0.002,0.487-0.012,0.723-0.042
		c0.196-0.013,0.385-0.044,0.583-0.075c0.225-0.03,0.451-0.079,0.668-0.139l-0.02,0.028l-1.304,1.541
		c-0.253,0.291-0.211,0.731,0.081,0.986c0.291,0.252,0.741,0.21,0.985-0.091l2.667-3.146c0.009-0.017,0.029-0.027,0.03-0.046
		c0.039-0.056,0.068-0.1,0.09-0.156c0-0.018,0.009-0.027,0.011-0.046c0.02-0.056,0.03-0.102,0.033-0.158
		c0.001-0.01,0.001-0.01,0-0.02C16.686,19.378,16.68,19.304,16.644,19.227z"/>
	<path fill="#292D32" d="M7.369,4.773C7.367,4.811,7.386,4.839,7.403,4.875c0.018,0.049,0.054,0.096,0.089,0.135
		c0.036,0.048,0.082,0.096,0.135,0.135l0.642,0.453l2.546,1.804c0.312,0.226,0.754,0.146,0.979-0.165
		c0.216-0.322,0.146-0.764-0.175-0.98L9.762,4.933c0.51-0.16,1.038-0.265,1.582-0.313c0.179-0.013,0.367-0.025,0.554-0.028
		c0.121-0.005,0.243-0.002,0.356,0.002c0.487,0.016,0.963,0.077,1.427,0.187c0.232,0.054,0.455,0.117,0.678,0.19
		c0.01,0.001,0.019,0.001,0.028,0.011c0.203,0.063,0.407,0.144,0.6,0.234c0.047,0.011,0.084,0.031,0.111,0.05
		c0.185,0.08,0.369,0.171,0.545,0.279c0.183,0.1,0.367,0.21,0.541,0.336c0.072,0.041,0.137,0.089,0.201,0.148
		c0.118,0.079,0.238,0.166,0.347,0.262c0.055,0.04,0.101,0.079,0.146,0.127c0.1,0.087,0.199,0.176,0.291,0.262
		c0.045,0.04,0.081,0.078,0.117,0.126c0.082,0.077,0.164,0.164,0.236,0.25c0.081,0.079,0.152,0.174,0.225,0.26
		c0.153,0.183,0.288,0.366,0.414,0.557c0.554,0.814,0.927,1.726,1.111,2.687c0.09,0.433,0.141,0.885,0.145,1.334
		c0,0.274-0.011,0.555-0.036,0.83h1.405c0.013-0.144,0.027-0.286,0.032-0.43c0.004-0.14,0.008-0.28,0.004-0.422
		c-0.01-0.87-0.15-1.727-0.414-2.541c-0.042-0.134-0.085-0.265-0.138-0.398c-0.344-0.947-0.859-1.825-1.526-2.613
		c-0.09-0.107-0.19-0.214-0.289-0.32c-0.101-0.115-0.2-0.212-0.309-0.318c-0.101-0.097-0.199-0.194-0.3-0.281
		c-0.373-0.33-0.767-0.625-1.179-0.881c-0.111-0.068-0.222-0.138-0.34-0.199c-0.12-0.068-0.24-0.138-0.37-0.197
		c-0.12-0.061-0.248-0.122-0.369-0.181c-0.046-0.02-0.091-0.04-0.138-0.06c-0.213-0.082-0.425-0.164-0.638-0.236
		c-0.14-0.051-0.27-0.093-0.409-0.126c-0.13-0.041-0.269-0.073-0.407-0.107c-0.28-0.065-0.559-0.121-0.839-0.148
		c-0.13-0.023-0.261-0.037-0.392-0.05c-0.3-0.018-0.589-0.038-0.89-0.028c-0.243,0.002-0.486,0.012-0.722,0.042
		c-0.196,0.013-0.385,0.044-0.583,0.075c-0.225,0.03-0.452,0.079-0.668,0.139l0.02-0.028l1.304-1.541
		c0.252-0.292,0.21-0.732-0.082-0.986c-0.291-0.252-0.741-0.21-0.985,0.091L7.493,4.122c-0.009,0.017-0.029,0.027-0.03,0.045
		C7.424,4.223,7.395,4.268,7.374,4.324c0,0.018-0.009,0.027-0.011,0.046C7.343,4.426,7.333,4.472,7.33,4.528
		c-0.001,0.009-0.001,0.009,0,0.019C7.327,4.622,7.333,4.696,7.369,4.773z"/>
	<circle fill="#292D32" cx="5.032" cy="7.813" r="1.855"/>
	<rect x="17.042" y="13.903" fill="#292D32" width="3.487" height="3.584"/>
</g>
</svg>
