<?xml version="1.0" encoding="utf-8"?>
<!-- Generator: Adobe Illustrator 16.0.0, SVG Export Plug-In . SVG Version: 6.00 Build 0)  -->
<!DOCTYPE svg PUBLIC "-//W3C//DTD SVG 1.1//EN" "http://www.w3.org/Graphics/SVG/1.1/DTD/svg11.dtd">
<svg version="1.1" id="Vrstva_1" xmlns="http://www.w3.org/2000/svg" xmlns:xlink="http://www.w3.org/1999/xlink" x="0px" y="0px"
	 width="24px" height="24px" viewBox="0 0 24 24" enable-background="new 0 0 24 24" xml:space="preserve">
<g>
	<path fill="#292D32" d="M7.225,9.536H3.946l-0.475,1.151H1.706l3.003-7.356h1.767l3.003,7.356h-1.78L7.225,9.536z M6.676,8.197
		L5.584,5.51L4.492,8.197H6.676z"/>
	<path fill="#292D32" d="M16.262,7.921c0,1.699-1.066,2.901-2.545,2.901c-0.777,0-1.413-0.331-1.855-0.911v0.776h-1.567V3.203h1.567
		v2.721c0.442-0.567,1.078-0.896,1.855-0.896C15.195,5.029,16.262,6.228,16.262,7.921z M14.742,7.921
		c0-0.921-0.609-1.574-1.48-1.574c-0.762,0-1.315,0.558-1.4,1.355v0.431c0.085,0.813,0.639,1.374,1.4,1.374
		C14.133,9.506,14.742,8.852,14.742,7.921z"/>
	<path fill="#292D32" d="M17.053,7.921c0-1.574,1.393-2.892,3.037-2.892c0.895,0,1.635,0.362,2.174,0.939l-1.043,0.891
		c-0.279-0.313-0.717-0.513-1.146-0.513c-0.814,0-1.506,0.719-1.506,1.563c0,0.863,0.691,1.597,1.521,1.597
		c0.428,0,0.873-0.211,1.168-0.539l1.037,0.877c-0.551,0.603-1.295,0.978-2.217,0.978C18.438,10.822,17.053,9.488,17.053,7.921z"/>
</g>
<path fill="#292D32" d="M21.096,13.729c-0.115,0-0.225,0.017-0.336,0.047c-0.113-0.286-0.307-0.496-0.574-0.622
	c-0.27-0.132-0.557-0.152-0.848-0.062c-0.205-0.393-0.422-0.584-0.695-0.646l-0.041-0.015c-0.105-0.022-0.191-0.036-0.342-0.024
	c-0.082,0.008-0.158,0.026-0.223,0.046v-0.123v-0.845c0-0.625-0.301-1.028-0.893-1.198c-0.08-0.019-0.162-0.028-0.252-0.028
	c-0.059,0-0.152,0.004-0.273,0.031c-0.59,0.179-0.879,0.573-0.879,1.213v4.206c-0.008-0.015-0.018-0.026-0.025-0.04
	c-0.07-0.102-0.141-0.202-0.213-0.3c-0.316-0.431-0.764-0.614-1.279-0.533c-0.461,0.076-0.834,0.354-1.02,0.765
	c-0.184,0.409-0.146,0.891,0.104,1.29c0.609,0.972,1.225,1.941,1.848,2.907c0.314,0.494,0.764,0.841,1.332,1.034l0.061,0.017
	c0.523,0.129,0.93,0.133,0.949,0.134h2.178l0.16-0.029c0.115-0.022,0.234-0.047,0.35-0.077c1.191-0.329,2.033-1.417,2.047-2.644
	c0.012-1.059,0.006-2.137,0.002-3.181v-0.166C22.229,14.237,21.729,13.729,21.096,13.729z M21.332,18.152
	c0,0.921-0.6,1.68-1.484,1.883c-0.137,0.031-0.281,0.047-0.434,0.047c-0.68,0.006-1.355,0.008-2.039,0.001
	c-0.652-0.005-1.16-0.286-1.506-0.833c-0.486-0.757-0.967-1.52-1.449-2.28l-0.359-0.567c-0.113-0.178-0.098-0.393,0.039-0.54
	c0.086-0.094,0.203-0.148,0.326-0.148c0.068,0,0.135,0.02,0.195,0.053c0.064,0.038,0.127,0.096,0.166,0.153
	c0.377,0.554,0.752,1.107,1.135,1.676c0.031,0.035,0.193,0.215,0.387,0.215c0.066,0,0.189-0.021,0.291-0.194
	c0.027-0.069,0.041-0.188,0.041-0.362v-5.803c0-0.209,0.1-0.265,0.184-0.288c0.145-0.039,0.293,0.063,0.309,0.204
	c0.004,0.044,0.004,0.092,0.004,0.138v3.285c0.009,0.127,0.07,0.38,0.426,0.38h0.101c0,0,0.13-0.002,0.241-0.117
	c0.123-0.114,0.133-0.595,0.133-0.595c0-0.298,0-0.594,0-0.892c0.002-0.168,0.1-0.278,0.254-0.278
	c0.141,0.001,0.244,0.108,0.244,0.257c0.004,0.326,0,0.65,0,0.976v0.383c0.006,0.081,0.054,0.222,0.34,0.267h0.234
	c0.358,0.032,0.326-0.311,0.326-0.311v-0.345v-0.312c0.002-0.157,0.107-0.267,0.252-0.267c0.143,0,0.248,0.107,0.25,0.256
	c0.004,0.178,0.004,0.357,0.002,0.535c0,0-0.002,0.438,0.279,0.438h0.25c0,0,0.223-0.014,0.275-0.324v0.001
	c0.045-0.128,0.139-0.25,0.342-0.218c0.131,0,0.242,0.104,0.246,0.231l0.004,1.141C21.336,16.716,21.336,17.434,21.332,18.152z"/>
</svg>
