<?xml version="1.0" encoding="utf-8"?>
<!-- Generator: Adobe Illustrator 16.0.0, SVG Export Plug-In . SVG Version: 6.00 Build 0)  -->
<!DOCTYPE svg PUBLIC "-//W3C//DTD SVG 1.1//EN" "http://www.w3.org/Graphics/SVG/1.1/DTD/svg11.dtd">
<svg version="1.1" id="Vrstva_1" xmlns="http://www.w3.org/2000/svg" xmlns:xlink="http://www.w3.org/1999/xlink" x="0px" y="0px"
	 width="24px" height="24px" viewBox="0 0 24 24" enable-background="new 0 0 24 24" xml:space="preserve">
<g>
	<g>
		<path fill="#292D32" d="M17.221,14.709c-0.115,0-0.225,0.018-0.336,0.047c-0.113-0.285-0.307-0.496-0.574-0.621
			c-0.27-0.133-0.557-0.152-0.848-0.063c-0.205-0.393-0.422-0.584-0.695-0.645l-0.041-0.016c-0.105-0.021-0.191-0.035-0.342-0.023
			c-0.082,0.008-0.158,0.025-0.223,0.045v-0.123v-0.845c0-0.625-0.301-1.028-0.893-1.198c-0.08-0.019-0.162-0.028-0.252-0.028
			c-0.059,0-0.152,0.004-0.273,0.031c-0.59,0.179-0.879,0.573-0.879,1.213v4.207c-0.008-0.014-0.018-0.025-0.025-0.039
			c-0.07-0.102-0.141-0.203-0.213-0.301c-0.316-0.43-0.763-0.613-1.279-0.533c-0.461,0.076-0.834,0.354-1.02,0.766
			c-0.184,0.408-0.146,0.891,0.104,1.289c0.61,0.973,1.225,1.941,1.848,2.908c0.314,0.494,0.764,0.84,1.332,1.033l0.061,0.018
			c0.523,0.129,0.93,0.133,0.949,0.133h2.178l0.16-0.029c0.115-0.021,0.234-0.047,0.35-0.076c1.191-0.33,2.033-1.418,2.047-2.645
			c0.012-1.059,0.006-2.137,0.002-3.18v-0.166C18.354,15.217,17.854,14.709,17.221,14.709z M17.457,19.133
			c0,0.92-0.6,1.68-1.484,1.883c-0.137,0.031-0.281,0.047-0.434,0.047c-0.68,0.006-1.355,0.008-2.039,0
			c-0.652-0.004-1.16-0.285-1.506-0.832c-0.486-0.758-0.966-1.52-1.449-2.281l-0.359-0.566c-0.113-0.178-0.098-0.393,0.039-0.541
			c0.086-0.094,0.203-0.148,0.326-0.148c0.068,0,0.135,0.02,0.195,0.053c0.064,0.039,0.127,0.096,0.166,0.154
			c0.376,0.553,0.751,1.107,1.134,1.676c0.031,0.035,0.193,0.215,0.387,0.215c0.066,0,0.189-0.021,0.291-0.195
			c0.027-0.068,0.041-0.188,0.041-0.361V12.43c0-0.209,0.1-0.265,0.184-0.288c0.145-0.039,0.293,0.063,0.309,0.204
			c0.004,0.044,0.004,0.092,0.004,0.138v3.286c0.01,0.127,0.07,0.381,0.426,0.381h0.102c0,0,0.129-0.002,0.24-0.117
			c0.123-0.115,0.133-0.596,0.133-0.596c0-0.297,0-0.594,0-0.891c0.002-0.168,0.1-0.279,0.254-0.279
			c0.141,0.002,0.244,0.109,0.244,0.258c0.004,0.326,0,0.65,0,0.975v0.383c0.006,0.082,0.055,0.223,0.34,0.268h0.234
			c0.359,0.031,0.326-0.311,0.326-0.311v-0.346v-0.311c0.002-0.158,0.107-0.268,0.252-0.268c0.143,0,0.248,0.107,0.25,0.256
			c0.004,0.178,0.004,0.357,0.002,0.535c0,0-0.002,0.439,0.279,0.439h0.25c0,0,0.223-0.014,0.275-0.324l0,0
			c0.045-0.127,0.139-0.25,0.342-0.217c0.131,0,0.242,0.104,0.246,0.23l0.004,1.141C17.461,17.695,17.461,18.414,17.457,19.133z"/>
	</g>
	<g>
		<path fill="#292D32" d="M14.682,4.783c-0.109-0.145-0.284-0.204-0.456-0.167c-0.152,0.029-0.267,0.125-0.344,0.287
			c-0.064,0.14-0.131,0.277-0.2,0.416L13.62,5.443l-0.053-0.025l0.268-0.548c0.161-0.342,0.222-0.634,0.198-0.918
			c-0.068-0.899-0.687-1.625-1.57-1.85c-0.172-0.042-0.347-0.064-0.521-0.064c-0.75,0-1.406,0.392-1.709,1.021
			c-1.5,3.085-2.997,6.172-4.486,9.261c-0.073,0.15-0.114,0.332-0.11,0.503c0.011,0.703,0.042,1.41,0.071,2.07
			c0.006,0.129,0.015,0.303,0.102,0.418c0.1,0.131,0.095,0.232-0.024,0.414c-0.016,0.027-0.029,0.059-0.043,0.092
			c-0.103,0.242-0.006,0.51,0.223,0.619c0.061,0.031,0.125,0.047,0.192,0.047c0.166,0,0.32-0.096,0.41-0.25
			c0.029-0.047,0.053-0.1,0.078-0.152c0.021-0.047,0.043-0.094,0.064-0.131c0.009-0.014,0.03-0.027,0.035-0.029
			c0.244-0.014,0.464-0.1,0.674-0.26c0.519-0.383,1.04-0.766,1.562-1.145c0.177-0.127,0.31-0.287,0.413-0.492
			c0.709-1.473,1.42-2.934,2.134-4.402c0.539-1.11,1.079-2.221,1.616-3.332c0.007-0.012,0.014-0.023,0.017-0.035
			c0.018,0.008,0.036,0.018,0.052,0.026l-1.615,3.328c-0.037,0.073-0.066,0.145-0.086,0.222c-0.061,0.246,0.077,0.48,0.324,0.547
			c0.043,0.014,0.084,0.018,0.127,0.018c0.128,0,0.308-0.059,0.446-0.334l1.571-3.244c0.157-0.32,0.311-0.639,0.469-0.959
			l0.279-0.579C14.813,5.106,14.797,4.934,14.682,4.783z M11.559,7.422c-0.094,0.199-0.188,0.394-0.28,0.586l-0.908,1.872
			c-0.577,1.188-1.153,2.378-1.731,3.568c-0.052,0.104-0.074,0.072-0.13,0.064c-0.715-0.115-1.322-0.418-1.85-0.924
			c-0.017-0.016-0.022-0.023-0.01-0.043c0.738-1.512,1.472-3.027,2.207-4.541l0.743-1.534C10.255,6.79,10.904,7.104,11.559,7.422z
			 M11.915,2.845v0.118c0.466,0,0.817,0.194,1.046,0.577c0.188,0.312,0.191,0.621,0.016,0.975c-0.243,0.483-0.478,0.97-0.712,1.457
			l-0.285,0.587c-0.005,0.008-0.008,0.017-0.015,0.027l-1.956-0.95c0.049-0.106,0.1-0.208,0.147-0.309l0.325-0.673
			c0.176-0.364,0.353-0.728,0.527-1.092c0.191-0.394,0.492-0.596,0.896-0.6L11.915,2.845L11.915,2.845z M7.709,14.295l-0.188,0.139
			c-0.222,0.162-0.444,0.324-0.663,0.486c-0.083,0.059-0.129,0.07-0.175,0.047c-0.038-0.018-0.057-0.045-0.061-0.164
			c-0.008-0.246-0.017-0.482-0.026-0.738l-0.014-0.344C6.938,13.963,7.303,14.148,7.709,14.295z"/>
	</g>
</g>
</svg>
