<?xml version="1.0" encoding="utf-8"?>
<!-- Generator: Adobe Illustrator 16.0.0, SVG Export Plug-In . SVG Version: 6.00 Build 0)  -->
<!DOCTYPE svg PUBLIC "-//W3C//DTD SVG 1.1//EN" "http://www.w3.org/Graphics/SVG/1.1/DTD/svg11.dtd">
<svg version="1.1" id="Vrstva_1" xmlns="http://www.w3.org/2000/svg" xmlns:xlink="http://www.w3.org/1999/xlink" x="0px" y="0px"
	 width="24px" height="24px" viewBox="0 0 24 24" enable-background="new 0 0 24 24" xml:space="preserve">
<g>
	<g>
		<path fill="#292D32" d="M16.409,1.492c0.547,0,0.989,0.443,0.989,0.99v19.035c0,0.547-0.442,0.99-0.989,0.99l0,0
			c-0.548,0-0.99-0.443-0.99-0.99V2.482C15.419,1.936,15.861,1.492,16.409,1.492L16.409,1.492z"/>
		<path fill="#292D32" d="M7.591,1.492c0.547,0,0.989,0.443,0.989,0.99v19.035c0,0.547-0.442,0.99-0.989,0.99l0,0
			c-0.547,0-0.99-0.443-0.99-0.99V2.482C6.601,1.936,7.044,1.492,7.591,1.492L7.591,1.492z"/>
		<path fill="#292D32" d="M12,1.492c0.547,0,0.989,0.443,0.989,0.99v13.652c0,0.547-0.442,0.99-0.989,0.99l0,0
			c-0.545,0-0.989-0.443-0.989-0.99V2.482C11.011,1.936,11.454,1.492,12,1.492L12,1.492z"/>
	</g>
</g>
</svg>
