<?xml version="1.0" encoding="utf-8"?>
<!-- Generator: Adobe Illustrator 16.0.0, SVG Export Plug-In . SVG Version: 6.00 Build 0)  -->
<!DOCTYPE svg PUBLIC "-//W3C//DTD SVG 1.1//EN" "http://www.w3.org/Graphics/SVG/1.1/DTD/svg11.dtd">
<svg version="1.1" id="Vrstva_1" xmlns="http://www.w3.org/2000/svg" xmlns:xlink="http://www.w3.org/1999/xlink" x="0px" y="0px"
	 width="24px" height="24px" viewBox="0 0 24 24" enable-background="new 0 0 24 24" xml:space="preserve">
<g>
	<path fill="#292D32" d="M22.508,7.595c0,0.546-0.443,0.991-0.99,0.991H2.482c-0.546,0-0.99-0.444-0.99-0.991l0,0
		c0-0.547,0.444-0.991,0.99-0.991h19.035C22.064,6.604,22.508,7.048,22.508,7.595L22.508,7.595z"/>
	<path fill="#292D32" d="M22.508,16.404c0,0.547-0.443,0.99-0.99,0.99H2.482c-0.546,0-0.99-0.443-0.99-0.99l0,0
		c0-0.547,0.444-0.99,0.99-0.99h19.035C22.064,15.414,22.508,15.857,22.508,16.404L22.508,16.404z"/>
	<path fill="#292D32" d="M17.124,11.999c0,0.546-0.443,0.989-0.99,0.989H2.482c-0.547,0-0.99-0.443-0.99-0.989l0,0
		c0-0.545,0.443-0.989,0.99-0.989h13.652C16.681,11.01,17.124,11.454,17.124,11.999L17.124,11.999z"/>
</g>
</svg>
