<?xml version="1.0" encoding="utf-8"?>
<!-- Generator: Adobe Illustrator 16.0.0, SVG Export Plug-In . SVG Version: 6.00 Build 0)  -->
<!DOCTYPE svg PUBLIC "-//W3C//DTD SVG 1.1//EN" "http://www.w3.org/Graphics/SVG/1.1/DTD/svg11.dtd">
<svg version="1.1" id="Vrstva_1" xmlns="http://www.w3.org/2000/svg" xmlns:xlink="http://www.w3.org/1999/xlink" x="0px" y="0px"
	 width="24px" height="24px" viewBox="0 0 24 24" enable-background="new 0 0 24 24" xml:space="preserve">
<g>
	<g>
		<path fill="#292D32" d="M21.943,17.114c0.127-0.611,0.191-1.328,0.201-2.186V9.074c-0.014-0.879-0.076-1.573-0.203-2.182
			c-0.246-1.375-0.748-2.43-1.525-3.229c-0.582-0.611-1.371-1.077-2.348-1.386c-0.893-0.278-1.992-0.42-3.266-0.42L9.196,1.861
			c-5.076,0-7.34,2.264-7.34,7.342v5.612c0,5.068,2.266,7.328,7.34,7.328h5.607c1.273,0,2.373-0.143,3.266-0.418
			c0.971-0.301,1.738-0.752,2.35-1.379C21.193,19.55,21.691,18.493,21.943,17.114z M18.137,20.026
			c-0.633,0.281-1.424,0.44-2.42,0.492c-0.297,0.021-0.598,0.028-0.912,0.028H9.196c-4.296,0-5.743-1.444-5.743-5.731V9.201
			c0-4.267,1.525-5.735,5.743-5.756l0,0h5.607c0.326,0,0.637,0.011,0.926,0.028c1,0.062,1.793,0.226,2.42,0.503
			c1.182,0.501,1.877,1.414,2.199,2.872c0.129,0.624,0.191,1.35,0.201,2.223v5.858c-0.01,0.877-0.074,1.602-0.201,2.221
			C20.025,18.616,19.326,19.528,18.137,20.026z"/>
	</g>
	<g>
		<g>
			<path fill="#292D32" d="M7.432,8.581L6.17,8.58c-0.811,0-1.47-0.711-1.47-1.585s0.66-1.585,1.471-1.585h1.261
				c0.811,0,1.47,0.711,1.47,1.585C8.902,7.87,8.242,8.581,7.432,8.581z M6.17,6.409c-0.26,0-0.471,0.263-0.471,0.585
				S5.911,7.58,6.17,7.58l1.261,0.001c0.259,0,0.47-0.263,0.47-0.586c0-0.323-0.211-0.585-0.47-0.585H6.17z"/>
		</g>
		<g>
			<path fill="#292D32" d="M7.432,13.575H6.17c-0.811,0-1.471-0.712-1.471-1.588c0-0.874,0.66-1.585,1.471-1.585h1.261
				c0.811,0,1.47,0.711,1.47,1.585C8.902,12.863,8.242,13.575,7.432,13.575z M6.17,11.402c-0.26,0-0.471,0.262-0.471,0.585
				c0,0.319,0.215,0.588,0.471,0.588h1.261c0.255,0,0.47-0.269,0.47-0.588c0-0.323-0.211-0.585-0.47-0.585H6.17z"/>
		</g>
		<g>
			<path fill="#292D32" d="M7.432,18.593H6.17c-0.811,0-1.471-0.712-1.471-1.586c0-0.873,0.66-1.584,1.471-1.584h1.261
				c0.811,0,1.47,0.711,1.47,1.584C8.902,17.881,8.242,18.593,7.432,18.593z M6.17,16.423c-0.26,0-0.471,0.262-0.471,0.584
				c0,0.323,0.211,0.586,0.471,0.586h1.261c0.259,0,0.47-0.263,0.47-0.586c0-0.322-0.211-0.584-0.47-0.584H6.17z"/>
		</g>
		<g>
			<path fill="#292D32" d="M12.631,8.593H11.37c-0.811,0-1.471-0.711-1.471-1.586c0-0.874,0.66-1.585,1.471-1.585h1.261
				c0.811,0,1.471,0.711,1.471,1.585C14.102,7.882,13.441,8.593,12.631,8.593z M11.37,6.421c-0.255,0-0.471,0.268-0.471,0.585
				c0,0.318,0.215,0.586,0.471,0.586h1.261c0.26,0,0.471-0.263,0.471-0.586c0-0.323-0.211-0.585-0.471-0.585H11.37z"/>
		</g>
		<g>
			<path fill="#292D32" d="M12.631,13.588H11.37c-0.811,0-1.471-0.712-1.471-1.588c0-0.874,0.66-1.585,1.471-1.585h1.261
				c0.811,0,1.471,0.711,1.471,1.585C14.102,12.876,13.441,13.588,12.631,13.588z M11.37,11.415c-0.26,0-0.471,0.263-0.471,0.585
				c0,0.319,0.215,0.588,0.471,0.588h1.261c0.255,0,0.471-0.269,0.471-0.588c0-0.323-0.211-0.585-0.471-0.585H11.37z"/>
		</g>
		<g>
			<path fill="#292D32" d="M12.631,18.606H11.37c-0.811,0-1.471-0.711-1.471-1.585s0.66-1.586,1.471-1.586h1.261
				c0.811,0,1.471,0.712,1.471,1.586S13.441,18.606,12.631,18.606z M11.37,16.436c-0.26,0-0.471,0.263-0.471,0.586
				c0,0.317,0.215,0.585,0.471,0.585h1.261c0.26,0,0.471-0.263,0.471-0.585c0-0.323-0.211-0.586-0.471-0.586H11.37z"/>
		</g>
		<g>
			<path fill="#292D32" d="M17.83,8.565h-1.262c-0.811,0-1.471-0.711-1.471-1.586c0-0.874,0.66-1.585,1.471-1.585h1.262
				c0.811,0,1.471,0.711,1.471,1.585C19.301,7.854,18.641,8.565,17.83,8.565z M16.568,6.394c-0.255,0-0.471,0.268-0.471,0.585
				s0.216,0.586,0.471,0.586h1.262c0.26,0,0.471-0.263,0.471-0.586c0-0.323-0.211-0.585-0.471-0.585H16.568z"/>
		</g>
		<g>
			<path fill="#292D32" d="M17.83,13.559h-1.262c-0.811,0-1.471-0.712-1.471-1.587c0-0.874,0.66-1.585,1.471-1.585h1.262
				c0.811,0,1.471,0.711,1.471,1.585C19.301,12.847,18.641,13.559,17.83,13.559z M16.568,11.387c-0.255,0-0.471,0.268-0.471,0.585
				c0,0.318,0.216,0.587,0.471,0.587h1.262c0.26,0,0.471-0.263,0.471-0.587c0-0.323-0.211-0.585-0.471-0.585H16.568z"/>
		</g>
		<g>
			<path fill="#292D32" d="M17.83,18.578h-1.262c-0.811,0-1.471-0.711-1.471-1.585s0.66-1.586,1.471-1.586h1.262
				c0.811,0,1.471,0.712,1.471,1.586S18.641,18.578,17.83,18.578z M16.568,16.407c-0.255,0-0.471,0.269-0.471,0.586
				s0.216,0.585,0.471,0.585h1.262c0.26,0,0.471-0.263,0.471-0.585c0-0.323-0.211-0.586-0.471-0.586H16.568z"/>
		</g>
	</g>
</g>
</svg>
