<?xml version="1.0" encoding="utf-8"?>
<!-- Generator: Adobe Illustrator 16.0.0, SVG Export Plug-In . SVG Version: 6.00 Build 0)  -->
<!DOCTYPE svg PUBLIC "-//W3C//DTD SVG 1.1//EN" "http://www.w3.org/Graphics/SVG/1.1/DTD/svg11.dtd">
<svg version="1.1" id="Vrstva_1" xmlns="http://www.w3.org/2000/svg" xmlns:xlink="http://www.w3.org/1999/xlink" x="0px" y="0px"
	 width="24px" height="24px" viewBox="0 0 24 24" enable-background="new 0 0 24 24" xml:space="preserve">
<circle fill="#DCAF00" cx="12" cy="12" r="11.098"/>
<g>
	<g>
		<g>
			<path fill="#FFFFFF" d="M19.232,17.752c-0.003,0.001-0.008,0-0.013,0H4.768c-0.178,0-0.344-0.096-0.432-0.25
				c-0.09-0.155-0.09-0.346,0-0.5l7.265-12.506c0.089-0.153,0.253-0.248,0.432-0.248h0.001c0.178,0,0.343,0.096,0.432,0.25
				l7.138,12.418c0.081,0.089,0.129,0.206,0.129,0.336C19.731,17.528,19.509,17.752,19.232,17.752z M5.635,16.754h12.723
				L12.029,5.745L5.635,16.754z"/>
		</g>
	</g>
	<g>
		<path fill="#FFFFFF" d="M12.664,14.431v1.32h-1.329v-1.319L12.664,14.431z M12.664,8.509v5.197h-1.329V8.509H12.664z"/>
	</g>
</g>
</svg>
