<?xml version="1.0" encoding="UTF-8" standalone="no"?>
<!-- Created with Inkscape (http://www.inkscape.org/) -->

<svg
   xmlns:dc="http://purl.org/dc/elements/1.1/"
   xmlns:cc="http://creativecommons.org/ns#"
   xmlns:rdf="http://www.w3.org/1999/02/22-rdf-syntax-ns#"
   xmlns:svg="http://www.w3.org/2000/svg"
   xmlns="http://www.w3.org/2000/svg"
   xmlns:sodipodi="http://sodipodi.sourceforge.net/DTD/sodipodi-0.dtd"
   xmlns:inkscape="http://www.inkscape.org/namespaces/inkscape"
   version="1.1"
   id="svg815"
   width="1365.3333"
   height="1365.3333"
   viewBox="0 0 1365.3333 1365.3333"
   sodipodi:docname="sanitize-document.svg"
   inkscape:version="0.92.4 (5da689c313, 2019-01-14)">
  <metadata
     id="metadata821">
    <rdf:RDF>
      <cc:Work
         rdf:about="">
        <dc:format>image/svg+xml</dc:format>
        <dc:type
           rdf:resource="http://purl.org/dc/dcmitype/StillImage" />
        <dc:title></dc:title>
      </cc:Work>
    </rdf:RDF>
  </metadata>
  <defs
     id="defs819" />
  <sodipodi:namedview
     pagecolor="#ffffff"
     bordercolor="#666666"
     borderopacity="1"
     objecttolerance="10"
     gridtolerance="10"
     guidetolerance="10"
     inkscape:pageopacity="0"
     inkscape:pageshadow="2"
     inkscape:window-width="3840"
     inkscape:window-height="2035"
     id="namedview817"
     showgrid="false"
     inkscape:zoom="1.2875977"
     inkscape:cx="599.95446"
     inkscape:cy="638.7656"
     inkscape:window-x="-13"
     inkscape:window-y="-13"
     inkscape:window-maximized="1"
     inkscape:current-layer="svg815" />
  <path
     style="fill:#000000;stroke-width:2.26666641"
     d="m 387.36867,1277.0958 c -134.74112,-6.3339 -223.92939,-127.5348 -186.88279,-253.9613 2.61829,-8.9352 81.10843,-168.81275 189.74083,-386.48532 L 575.50199,265.40319 v -25.42066 c 0,-30.86119 -3.26752,-38.59602 -25.22362,-59.70922 l -14.44304,-13.88857 v -40.68299 c 0,-39.5947 0.14025,-40.81479 5.24608,-45.611425 l 5.2461,-4.928436 h 137.65694 137.65693 l 5.56363,5.563641 c 5.47354,5.473524 5.56364,6.191706 5.56364,44.349 0,43.44888 0.17136,42.84788 -16.79031,58.8895 -22.31805,21.10751 -29.43769,53.99586 -18.64558,86.13118 3.78004,11.25575 128.14738,260.13291 302.99304,606.33332 77.9276,154.29927 77.828,154.03857 77.9911,203.99997 0.2108,64.6021 -25.4795,117.0637 -75.9494,155.094 -42.3468,31.9091 -67.2713,39.1595 -138.13219,40.181 -65.07981,0.9382 -561.06001,2.1354 -576.86664,1.3923 z m 631.26663,-64.6954 c 73.7251,-22.3868 116.4342,-93.2836 98.4209,-163.378 -2.1609,-8.4086 -24.0529,-54.34464 -55.2482,-115.92721 -28.418,-56.1 -80.99471,-160.13998 -116.83706,-231.19998 -177.29757,-351.505 -180.34082,-357.35442 -191.97081,-368.9844 -37.54993,-37.54993 -98.8371,-36.4393 -137.77309,2.49668 -12.81461,12.81462 -17.65225,22.08365 -158.23695,303.18655 -79.76,159.48231 -157.26426,313.99023 -172.23171,343.35093 -20.88167,40.96233 -28.13608,57.52993 -31.17868,71.20573 -17.32063,77.853 39.11789,153.964 120.18897,162.0827 39.28608,3.9342 631.14343,1.334 644.86663,-2.833 z m -693.59997,-94.0183 c 0,-1.3567 358.6382,-718.07058 360.02855,-719.49231 1.06676,-1.09085 357.52872,705.58291 362.47012,718.58461 1.217,3.2023 -219.68984,0.9452 -222.72121,-2.2756 -1.57205,-1.6703 -21.7094,-33.1269 -44.74965,-69.9036 -57.03289,-91.03543 -87.59202,-138.81969 -91.05936,-142.38643 -3.1057,-3.19471 -7.52053,3.30381 -101.62185,149.58433 l -41.81274,64.9978 -110.26692,0.7488 c -60.64682,0.4119 -110.26694,0.476 -110.26694,0.1425 z"
     id="path825"
     inkscape:connector-curvature="0" />
</svg>
