<?xml version="1.0" encoding="utf-8"?>
<!-- Generator: Adobe Illustrator 16.0.0, SVG Export Plug-In . SVG Version: 6.00 Build 0)  -->
<!DOCTYPE svg PUBLIC "-//W3C//DTD SVG 1.1//EN" "http://www.w3.org/Graphics/SVG/1.1/DTD/svg11.dtd">
<svg version="1.1" id="Vrstva_1" xmlns="http://www.w3.org/2000/svg" xmlns:xlink="http://www.w3.org/1999/xlink" x="0px" y="0px"
	 width="24px" height="24px" viewBox="0 0 24 24" enable-background="new 0 0 24 24" xml:space="preserve">
<g>
	<path fill="#292D32" d="M22.531,7.424c-0.213-0.984-1.035-1.621-2.095-1.621H6.334L6.171,5.805C5.196,5.83,4.379,6.533,4.23,7.476
		C4.175,7.831,4.184,8.194,4.193,8.589c0.008,0.339,0.295,0.604,0.655,0.604C5.2,9.192,5.467,8.948,5.497,8.598
		c0.011-0.129,0.011-0.259,0.011-0.389c0-0.08,0-0.161,0.002-0.243L10.215,12c-1.57,1.345-3.123,2.676-4.705,4.033
		c-0.002-0.078-0.001-0.155-0.001-0.232c0-0.106,0.001-0.212-0.003-0.317c-0.018-0.404-0.281-0.677-0.679-0.677c0,0,0,0-0.001,0
		c-0.368,0.01-0.631,0.293-0.64,0.687c-0.004,0.121-0.003,0.242-0.002,0.364l0,0.159c0.001,1.304,0.872,2.18,2.167,2.18l7.028,0.001
		l7.029-0.001c1.317,0,2.169-0.853,2.169-2.173c0.002-2.681,0.002-5.361,0-8.043C22.576,7.79,22.571,7.604,22.531,7.424z M16.553,12
		c1.571-1.348,3.119-2.675,4.668-4.002c0.061,1.433,0.063,6.616,0.006,8.009C19.673,14.674,18.122,13.345,16.553,12z M14.381,13.857
		c0.306-0.254,0.604-0.516,0.91-0.783l0.239-0.21l4.651,3.989H6.587l4.648-3.989l1.114,0.965c0.052,0.044,0.104,0.088,0.162,0.13
		C13.083,14.35,13.844,14.311,14.381,13.857z M13.097,12.715L6.578,7.139h13.61l-6.521,5.582
		C13.417,12.935,13.351,12.931,13.097,12.715z"/>
	<path fill="#292D32" d="M6.167,13.818c0.234-0.002,0.436-0.086,0.568-0.238c0.121-0.14,0.173-0.326,0.146-0.524
		c-0.048-0.35-0.332-0.567-0.741-0.569l-0.967-0.001H4.529H3.021c-0.29,0-0.58,0-0.87,0.002c-0.379,0.004-0.653,0.207-0.716,0.529
		c-0.04,0.206,0.006,0.401,0.128,0.551c0.131,0.159,0.333,0.247,0.571,0.249c0.335,0.003,0.669,0.004,1.004,0.004l0.501-0.001
		l1.715,0.001L6.167,13.818z"/>
	<path fill="#292D32" d="M3.541,11.511c0.436,0.003,0.872,0.004,1.307,0.004s0.871-0.001,1.307-0.004
		c0.23-0.001,0.422-0.074,0.555-0.211c0.119-0.123,0.18-0.286,0.176-0.472c-0.009-0.384-0.304-0.644-0.733-0.646l-0.478-0.001
		l-0.831,0.001l-0.802-0.001l-0.482,0.001c-0.446,0.002-0.75,0.264-0.758,0.649c-0.005,0.177,0.057,0.342,0.175,0.463
		C3.111,11.433,3.312,11.51,3.541,11.511z"/>
</g>
</svg>
