<?xml version="1.0" encoding="UTF-8" standalone="no"?>
<!-- Created with Inkscape (http://www.inkscape.org/) -->

<svg
   xmlns:dc="http://purl.org/dc/elements/1.1/"
   xmlns:cc="http://creativecommons.org/ns#"
   xmlns:rdf="http://www.w3.org/1999/02/22-rdf-syntax-ns#"
   xmlns:svg="http://www.w3.org/2000/svg"
   xmlns="http://www.w3.org/2000/svg"
   xmlns:sodipodi="http://sodipodi.sourceforge.net/DTD/sodipodi-0.dtd"
   xmlns:inkscape="http://www.inkscape.org/namespaces/inkscape"
   version="1.1"
   id="svg815"
   width="1024"
   height="1024"
   viewBox="0 0 1024 1024"
   sodipodi:docname="signature.svg"
   inkscape:version="0.92.4 (5da689c313, 2019-01-14)">
  <metadata
     id="metadata821">
    <rdf:RDF>
      <cc:Work
         rdf:about="">
        <dc:format>image/svg+xml</dc:format>
        <dc:type
           rdf:resource="http://purl.org/dc/dcmitype/StillImage" />
        <dc:title></dc:title>
      </cc:Work>
    </rdf:RDF>
  </metadata>
  <defs
     id="defs819" />
  <sodipodi:namedview
     pagecolor="#ffffff"
     bordercolor="#666666"
     borderopacity="1"
     objecttolerance="10"
     gridtolerance="10"
     guidetolerance="10"
     inkscape:pageopacity="0"
     inkscape:pageshadow="2"
     inkscape:window-width="3840"
     inkscape:window-height="2035"
     id="namedview817"
     showgrid="false"
     inkscape:zoom="1.7167969"
     inkscape:cx="512"
     inkscape:cy="512"
     inkscape:window-x="-13"
     inkscape:window-y="-13"
     inkscape:window-maximized="1"
     inkscape:current-layer="svg815" />
  <path
     style="fill:#000000"
     d="m 230.08816,842.61438 c -4.7041,-1.70064 -10.82898,-8.02057 -12.05662,-12.4406 -2.10209,-7.56834 -4.27208,-1.09691 31.41056,-93.67378 8.05566,-20.9 18.44036,-47.675 23.07712,-59.5 4.63676,-11.825 14.53376,-37.25 21.99334,-56.5 7.45957,-19.25 16.58339,-42.55881 20.27515,-51.79735 L 321.5,551.90529 465.87496,408.20265 c 79.40623,-79.03646 144.76369,-143.85097 145.23882,-144.03226 0.47512,-0.18128 40.72125,39.53993 89.43583,88.26936 l 88.57197,88.59896 -4.57552,5.23064 c -2.51653,2.87686 -64.98139,65.56529 -138.81079,139.30762 L 511.5,719.65395 505,721.71351 c -3.575,1.13276 -14.375,5.0298 -24,8.6601 -35.65938,13.44977 -179.03128,66.56034 -198,73.34695 -2.475,0.88551 -4.9275,1.98563 -5.45,2.44472 -0.5225,0.4591 116.38293,0.83472 259.78984,0.83472 259.3756,0 260.76049,0.0105 264.68783,2.01412 4.81279,2.4553 9.95986,10.7322 9.94098,15.98588 -0.0279,7.77442 -6.22393,15.86588 -13.7497,17.95599 -5.82913,1.61891 -563.63561,1.28351 -568.13079,-0.34161 z M 404.69278,729.60918 C 416.68675,724.99423 439.1,716.38847 454.5,710.48528 c 15.4,-5.90319 28.59953,-11.05343 29.33228,-11.44497 0.90974,-0.48612 -5.19548,-6.70181 -19.25,-19.59831 C 444.58145,661.08912 444,660.44588 444,656.67214 444,646.2641 438.51236,633.48547 430.3825,624.96216 421.15292,615.28591 410.42096,611 395.42112,611 h -8.15868 l -20.77084,-21.22522 -20.77084,-21.22521 -5.38569,13.97521 c -14.59911,37.88299 -19.89296,51.61329 -27.1724,70.47522 -6.82845,17.69337 -7.68921,20.59855 -6.28714,21.21986 0.89346,0.39592 9.49947,2.32273 19.12447,4.28181 9.625,1.95907 19.08192,3.98655 21.01538,4.50551 8.16867,2.19254 17.08702,10.21792 21.83752,19.651 1.15174,2.287 4.08626,9.937 6.52116,17 5.34279,15.49802 6.43492,18.34182 7.04397,18.34182 0.25715,0 10.28078,-3.77587 22.27475,-8.39082 z M 584.84883,585.74627 c 38.85814,-39.18954 75.11868,-75.86025 80.57897,-81.49044 l 9.9278,-10.23672 -13.67864,-13.80464 -13.67863,-13.80463 -11.74917,11.58188 C 493.12848,619.07464 491.68498,620.5242 489.35792,625.5 c -1.37591,2.94201 -2.33336,6.85219 -2.32619,9.5 0.0126,4.64405 2.80054,12.05219 5.77089,15.3344 3.42443,3.78394 10.34241,6.37165 17.54621,6.56324 3.80403,0.10117 4.67107,-0.72689 74.5,-71.15137 z M 423.86144,568.57165 C 427.06433,566.91538 585,408.38737 585,406.82875 c 0,-0.57239 -6.15529,-7.2945 -13.67842,-14.93803 l -13.67842,-13.89731 -71.71889,71.63081 c -39.44539,39.39695 -72.12369,71.91093 -72.61845,72.2533 -0.49476,0.34236 -5.49097,5.42866 -11.10269,11.30289 L 392,543.86082 v 5.11925 c 0,10.07187 6.71853,18.00911 17,20.0837 5.95,1.20059 11.97384,1.00112 14.86144,-0.49212 z M 717.23706,454.2634 C 724.80668,446.70827 731,440.06934 731,439.51022 c 0,-0.55912 -26.54203,-27.55574 -58.98228,-59.99251 l -58.98229,-58.97593 -14.3625,13.97911 c -7.89937,7.68851 -14.31984,14.28606 -14.26771,14.66122 C 584.58895,350.50435 701.20174,468 702.33031,468 c 0.62909,0 7.33713,-6.18147 14.90675,-13.7366 z M 731.45599,318.54502 643.5,231.05613 l 8.55874,-8.38485 c 6.6174,-6.48296 10.47344,-9.32873 17,-12.54608 19.77243,-9.74706 42.95438,-9.53318 62.1879,0.57375 8.71879,4.58159 17.87664,13.29251 68.6514,65.30105 38.09212,39.01772 40.28835,41.70296 44.57258,54.49686 4.03523,12.05034 3.82194,27.87001 -0.56736,42.08093 -2.45137,7.93661 -9.85004,19.03232 -18.12985,27.18916 l -6.36143,6.26695 z"
     id="path825"
     inkscape:connector-curvature="0" />
</svg>
