<?xml version="1.0" encoding="UTF-8" standalone="no"?>
<!-- Created with Inkscape (http://www.inkscape.org/) -->

<svg
   xmlns:dc="http://purl.org/dc/elements/1.1/"
   xmlns:cc="http://creativecommons.org/ns#"
   xmlns:rdf="http://www.w3.org/1999/02/22-rdf-syntax-ns#"
   xmlns:svg="http://www.w3.org/2000/svg"
   xmlns="http://www.w3.org/2000/svg"
   xmlns:sodipodi="http://sodipodi.sourceforge.net/DTD/sodipodi-0.dtd"
   xmlns:inkscape="http://www.inkscape.org/namespaces/inkscape"
   version="1.1"
   id="svg815"
   width="512"
   height="512"
   viewBox="0 0 512 512"
   sodipodi:docname="sidebar-annotations.svg"
   inkscape:version="0.92.4 (5da689c313, 2019-01-14)">
  <metadata
     id="metadata821">
    <rdf:RDF>
      <cc:Work
         rdf:about="">
        <dc:format>image/svg+xml</dc:format>
        <dc:type
           rdf:resource="http://purl.org/dc/dcmitype/StillImage" />
        <dc:title></dc:title>
      </cc:Work>
    </rdf:RDF>
  </metadata>
  <defs
     id="defs819" />
  <sodipodi:namedview
     pagecolor="#ffffff"
     bordercolor="#666666"
     borderopacity="1"
     objecttolerance="10"
     gridtolerance="10"
     guidetolerance="10"
     inkscape:pageopacity="0"
     inkscape:pageshadow="2"
     inkscape:window-width="3840"
     inkscape:window-height="2035"
     id="namedview817"
     showgrid="false"
     inkscape:zoom="0.21459961"
     inkscape:cx="1232.5746"
     inkscape:cy="-1009.8505"
     inkscape:window-x="-13"
     inkscape:window-y="-13"
     inkscape:window-maximized="1"
     inkscape:current-layer="svg815" />
  <path
     style="fill:#000000;stroke-width:0.5"
     d="m 134.30965,451.4984 c -0.79219,-0.24578 -1.99482,-0.96472 -2.67251,-1.59763 C 128.89548,447.34021 129,448.95045 129,409.27078 V 372.4919 l -2.125,-0.84583 C 98.466865,360.33852 76.9203,336.4488 67.691225,306.02615 63.809015,293.22887 63.95105,296.44071 64.12847,225.46288 l 0.158005,-63.21288 1.335225,-6 C 75.460075,112.04002 106.3625,83.377525 152.54943,75.62313 157.3763,74.81274 164.86379,74.75 256.75,74.75 h 99 l 7.25,1.34222 c 41.0066,7.591705 70.22523,33.95779 81.50661,73.5493 3.65562,12.82922 3.5444,10.20577 3.38545,79.85848 l -0.14206,62.25 -1.41814,6.24169 c -9.55806,42.068 -39.28358,71.04949 -79.83186,77.83367 -4.78212,0.8001 -11.71891,0.90272 -77.83623,1.15151 l -72.58623,0.27313 -12.41377,11.9828 c -6.82758,6.59054 -23.39707,22.78276 -36.82111,35.98272 -13.42403,13.19995 -25.12404,24.49998 -26,25.11117 -1.8877,1.31711 -4.53433,1.79179 -6.53301,1.17171 z m 52.41308,-123.84775 c 2.47764,-2.52965 5.01612,-4.72768 5.64104,-4.88453 0.62492,-0.15685 1.13623,-0.50589 1.13623,-0.77565 0,-0.26976 0.28125,-0.49185 0.625,-0.49355 0.34375,-10e-4 1.21811,-0.31255 1.94302,-0.69079 1.10096,-0.57445 13.98743,-0.69364 78.25,-0.72378 84.784,-0.0398 84.15057,-0.0161 90.6134,-3.38819 0.72522,-0.3784 1.54718,-0.68939 1.82659,-0.69108 1.1941,-0.007 10.69301,-6.03508 12.87577,-8.17074 1.31108,-1.28279 2.70217,-2.33234 3.09131,-2.33234 0.38914,0 0.85035,-0.45 1.02491,-1 0.17457,-0.55 0.48383,-1 0.68726,-1 0.72074,0 4.97084,-6.31007 7.07221,-10.5 2.52744,-5.03949 4.34846,-10.18863 4.79576,-13.56057 0.17798,-1.34169 0.46337,-2.43945 0.63419,-2.43948 0.17082,-2e-5 0.30317,-14.79377 0.29412,-32.875 l -0.0165,-32.87495 3.77952,-4 c 8.61027,-9.11255 13.5819,-18.94015 15.8339,-31.29942 1.19505,-6.55855 1.17682,-21.15431 -0.0333,-26.70058 -8.452,-38.73598 -49.38387,-59.676475 -83.54716,-42.74221 -9.60155,4.75936 -15.84727,9.95184 -24.02836,19.97638 l -4.8282,5.91614 -74.69189,0.0378 c -77.3552,0.0392 -79.39739,0.0889 -81.9169,1.9936 -0.29406,0.22231 -1.80165,0.79115 -3.3502,1.26408 -6.59849,2.0152 -15.95298,9.88342 -21.11934,17.76384 -5.22498,7.96981 -6.36358,10.5412 -7.87749,17.79037 -1.14472,5.48129 -0.92405,106.15741 0.2411,110 3.64566,12.02319 10.96855,23.01603 19.45062,29.19854 6.70198,4.88503 18.34427,10.05146 22.65046,10.05146 H 160 v 16.66667 c 0,9.16667 0.13859,16.80526 0.30799,16.97465 0.16939,0.1694 5.16842,-4.68685 11.10895,-10.79167 5.94054,-6.10481 12.82814,-13.16936 15.30579,-15.699 z m 25.0277,-19.1493 c -0.17433,-0.54926 0.36442,-4.4305 1.19721,-8.625 0.83279,-4.19449 2.31931,-12.01385 3.30337,-17.37635 0.98406,-5.3625 3.53422,-18.4499 5.66702,-29.08312 l 3.87782,-19.33311 8.47708,-8.82136 c 33.93285,-35.31099 65.9944,-69.13704 85.98177,-90.71376 12.16307,-13.13024 16.6608,-16.43371 26.09956,-19.16949 5.23452,-1.5172 18.53155,-1.63245 23.64574,-0.20494 26.83887,7.49142 41.40827,36.61618 32.41062,64.79 -3.26632,10.22763 -4.38619,11.68745 -27.16062,35.4059 -5.775,6.01438 -16.575,17.33504 -24,25.15702 -7.425,7.82197 -16.87855,17.70952 -21.00789,21.97231 -4.12935,4.26281 -11.98417,12.47555 -17.45515,18.25055 -7.11478,7.51013 -10.45834,10.68602 -11.74211,11.15328 -2.58612,0.9413 -85.97711,17.59672 -88.10388,17.59672 -0.48047,0 -1.01622,-0.44939 -1.19054,-0.99865 z m 48.20035,-22.75347 c 5.61042,-1.22802 10.29422,-2.32621 10.40843,-2.44042 0.28528,-0.28528 -10.08826,-16.40759 -11.20812,-17.41937 -1.14488,-1.0344 -21.63366,-11.57219 -21.92789,-11.27796 -0.12058,0.12059 -1.12765,4.47639 -2.23792,9.67956 -1.11026,5.20317 -2.12769,9.7705 -2.26095,10.14961 -0.18571,0.52832 0.11792,0.61725 1.30017,0.3808 1.77356,-0.35471 1.78338,-0.34575 9.09218,8.29501 3.65412,4.32005 4.74215,5.31644 5.5857,5.11531 0.57619,-0.13739 5.63797,-1.25453 11.2484,-2.48254 z m 31.14255,-6.72603 4.15667,-0.97815 4.25,-4.41643 c 2.3375,-2.42903 8.95906,-9.4701 14.71458,-15.64684 5.75552,-6.17674 13.18052,-14.04402 16.5,-17.48284 C 342.53056,228.25677 352.5,217.57774 352.5,217.16153 c 0,-0.23241 -3.81539,-4.233 -8.47863,-8.89019 l -8.47864,-8.46763 -11.13241,11.47314 C 318.2875,217.58708 310.12983,226.0125 306.28217,230 c -3.84767,3.9875 -9.93438,10.2875 -13.52604,14 C 279.94598,257.24117 275.5,262.0106 275.5,262.51148 275.5,263.2461 286.08307,280 286.54712,280 c 0.21424,0 2.26004,-0.44017 4.54621,-0.97815 z M 266.76389,250.375 c 1.58954,-1.90939 18.62741,-19.9865 38.76075,-41.125 7.85771,-8.25 15.37602,-16.18505 16.70736,-17.63344 l 2.42063,-2.63344 -3.6745,-3.86656 c -2.02098,-2.12661 -4.24907,-4.40686 -4.95132,-5.06722 -0.70225,-0.66036 -3.00111,-2.88575 -5.10858,-4.94529 l -3.83177,-3.74464 -1.18407,0.9453 c -0.65123,0.51991 -6.35193,6.35905 -12.66823,12.97586 -6.31629,6.61682 -20.48416,21.43355 -31.48416,32.92609 -11,11.49253 -20.05766,21.04548 -20.12812,21.22878 -0.0705,0.1833 2.85453,1.88134 6.5,3.77344 9.29348,4.82355 13.96646,7.33325 15.11438,8.1174 1.46074,0.99785 2.03363,0.84336 3.52763,-0.95128 z m 101.34008,-49.5 c 2.61669,-2.81875 5.91564,-6.35595 7.33099,-7.86043 l 2.57336,-2.73544 -22.9862,-23.00032 -22.9862,-23.00031 -1.56548,1.48575 c -0.86101,0.81716 -4.2779,4.36327 -7.59309,7.88023 l -6.02763,6.39448 22.70014,22.91788 c 12.48508,12.60483 22.94682,22.94606 23.24831,22.98051 0.3015,0.0344 2.68911,-2.2436 5.3058,-5.06235 z m 20.95963,-27.14312 c 1.48309,-5.48143 1.62555,-18.18445 0.24653,-21.98188 -5.10143,-14.04792 -17.27911,-23.25 -30.76813,-23.25 -5.54575,0 -14.96722,2.85647 -16.246,4.92558 -0.40792,0.66003 44.70945,45.26897 45.24414,44.73428 0.24536,-0.24536 0.93092,-2.23795 1.52346,-4.42798 z"
     id="path825"
     inkscape:connector-curvature="0" />
</svg>
