<?xml version="1.0" encoding="UTF-8" standalone="no"?>
<!-- Created with Inkscape (http://www.inkscape.org/) -->

<svg
   xmlns:dc="http://purl.org/dc/elements/1.1/"
   xmlns:cc="http://creativecommons.org/ns#"
   xmlns:rdf="http://www.w3.org/1999/02/22-rdf-syntax-ns#"
   xmlns:svg="http://www.w3.org/2000/svg"
   xmlns="http://www.w3.org/2000/svg"
   xmlns:sodipodi="http://sodipodi.sourceforge.net/DTD/sodipodi-0.dtd"
   xmlns:inkscape="http://www.inkscape.org/namespaces/inkscape"
   version="1.1"
   id="svg815"
   width="1024"
   height="1024"
   viewBox="0 0 1024 1024"
   sodipodi:docname="visibility.svg"
   inkscape:version="0.92.4 (5da689c313, 2019-01-14)">
  <metadata
     id="metadata821">
    <rdf:RDF>
      <cc:Work
         rdf:about="">
        <dc:format>image/svg+xml</dc:format>
        <dc:type
           rdf:resource="http://purl.org/dc/dcmitype/StillImage" />
        <dc:title></dc:title>
      </cc:Work>
    </rdf:RDF>
  </metadata>
  <defs
     id="defs819" />
  <sodipodi:namedview
     pagecolor="#ffffff"
     bordercolor="#666666"
     borderopacity="1"
     objecttolerance="10"
     gridtolerance="10"
     guidetolerance="10"
     inkscape:pageopacity="0"
     inkscape:pageshadow="2"
     inkscape:window-width="3840"
     inkscape:window-height="2035"
     id="namedview817"
     showgrid="false"
     inkscape:zoom="1.7167969"
     inkscape:cx="511.70876"
     inkscape:cy="512"
     inkscape:window-x="-13"
     inkscape:window-y="-13"
     inkscape:window-maximized="1"
     inkscape:current-layer="svg815" />
  <path
     style="fill:#000000"
     d="m 520.54874,858.90865 c -2.01486,-1.76907 -3.94398,-4.66273 -4.51009,-6.76511 -0.61728,-2.2924 -0.90453,-29.11928 -0.76394,-71.34691 L 515.5,713.12347 508,712.50614 c -4.125,-0.33954 -8.85,-0.70482 -10.5,-0.81174 l -3,-0.1944 -0.62162,23.5 c -0.66808,25.25625 -1.96177,35.5253 -6.97924,55.39952 -6.65419,26.35724 -18.22855,49.61674 -26.92914,54.116 -5.90835,3.05532 -12.92841,1.16037 -17.02753,-4.59631 -3.61056,-5.07056 -2.96137,-9.32347 2.91315,-19.08426 15.18914,-25.23749 20.71159,-49.69075 21.2987,-94.31008 l 0.24968,-18.97513 -7.452,-1.19873 c -12.08756,-1.94442 -11.7338,-2.0407 -12.48824,3.39899 -3.52258,25.39876 -13.71615,56.74767 -27.39514,84.25 -16.05454,32.27851 -25.39825,41.01911 -36.07879,33.75 -7.90737,-5.38171 -9.61142,-12.40456 -4.69794,-19.3614 19.50171,-27.61183 31.80118,-56.07667 39.70446,-91.8886 4.34615,-19.69356 4.88317,-17.47612 -4.99635,-20.63074 -4.675,-1.49278 -8.96394,-2.74904 -9.53097,-2.7917 -0.56704,-0.0427 -2.52905,6.10994 -4.36004,13.67244 -5.92196,24.45944 -15.52786,47.96048 -26.78021,65.5184 -6.83762,10.66927 -17.99491,23.31128 -24.2948,27.52775 -4.80339,3.21487 -6.30323,3.70385 -11.36082,3.70385 -5.45154,0 -6.04732,-0.24058 -9.25,-3.73531 C 325.42738,796.49572 325,795.36864 325,790.73719 c 0,-5.76679 1.45743,-8.62057 6.47745,-12.68345 14.13553,-11.44042 28.60984,-34.82779 37.48578,-60.56897 4.92391,-14.27989 9.28058,-30.04049 8.85324,-32.02727 -0.26173,-1.21681 -12.34957,-7.38613 -27.47161,-14.02078 l -3.15514,-1.38429 -4.72647,14.61366 c -4.71813,14.58788 -14.71454,36.435 -20.68213,45.20074 -8.66025,12.72096 -25.26021,30.46467 -34.37183,36.74008 -12.13691,8.35901 -25.39374,3.5926 -25.40555,-9.1344 -0.005,-5.25453 1.23984,-6.87358 11.59029,-15.07594 15.14757,-12.0039 29.94599,-31.76868 38.42752,-51.32383 C 315.36875,683.35539 323,661.00715 323,658.92218 c 0,-0.41114 -5.0625,-3.56048 -11.25,-6.99854 -6.1875,-3.43806 -14.77314,-8.42735 -19.07921,-11.08732 C 288.36473,638.17634 284.67434,636 284.46994,636 c -0.20441,0 -3.94572,4.3875 -8.31403,9.75 -9.12724,11.20452 -30.84058,32.78052 -39.65591,39.40508 -21.29564,16.0033 -42.01733,26.33428 -48.74413,24.30183 C 182.67693,707.92234 177,700.25678 177,694.93325 c 0,-1.17205 0.75961,-3.73176 1.68803,-5.68825 1.41818,-2.9886 3.13666,-4.23544 10.75,-7.7997 18.91764,-8.85648 39.03763,-24.45436 59.0892,-45.80847 6.03502,-6.42705 11.11215,-12.09274 11.28251,-12.59041 0.17035,-0.49767 -3.20465,-3.26436 -7.5,-6.14821 C 228.0866,600.63509 184.17064,568.30192 160.5,549.3032 c -15.20085,-12.20064 -18.41379,-19.28948 -13.57381,-29.9485 2.05087,-4.51659 3.35526,-5.57822 28.07381,-22.84902 8.525,-5.9564 18.65,-13.09975 22.5,-15.8741 3.85,-2.77435 14.15979,-9.9877 22.91065,-16.02966 l 15.91065,-10.98539 -7.92865,-1.70565 C 192.32976,444.15285 163.42948,423.6553 148.15182,395 c -5.5938,-10.4919 -7.56147,-17.76497 -6.18706,-22.86911 2.14199,-7.95474 11.27665,-12.23778 18.00275,-8.44109 2.80498,1.58333 4.56223,4.05528 8.53249,12.00277 2.75,5.50482 6.33357,11.76347 7.96348,13.9081 17.76273,23.37211 42.41604,35.39337 76.00286,37.05995 13.97571,0.69348 24.07765,-0.59458 31.74683,-4.04792 l 5.28683,-2.3806 -4,-1.70965 c -18.29452,-7.81933 -30.93028,-16.18201 -43.59432,-28.85185 -15.58616,-15.59332 -25.96816,-31.77041 -31.429,-48.97222 -4.22563,-13.31086 -2.67155,-21.39342 4.81681,-25.05151 8.5975,-4.19992 15.35272,0.65802 20.09534,14.45134 5.86877,17.06859 12.79622,28.09371 24.76021,39.40615 7.99265,7.55738 17.82252,14.47845 27.35096,19.25741 5.83341,2.92572 30.3513,11.23823 33.14737,11.23823 0.76593,0 5.49645,-2.06108 10.51227,-4.58018 l 9.11968,-4.58017 -7.59242,-4.32732 C 301.68969,368.84539 279.13588,342.70738 267.96072,311.5 c -2.39637,-6.69204 -3.25334,-10.84093 -3.34178,-16.17879 -0.11017,-6.64957 0.0967,-7.40428 2.80622,-10.23755 3.10405,-3.24582 7.92954,-4.71342 12.07598,-3.67273 5.06622,1.27154 8.35007,5.64604 11.93712,15.90168 12.29962,35.16562 35.69507,59.13233 71.3693,73.11198 l 10.81087,4.23645 5.69078,-2.45767 c 3.12994,-1.35172 5.69079,-2.77417 5.69079,-3.161 0,-0.38683 -2.1375,-2.21538 -4.75,-4.06343 -11.33017,-8.01484 -27.43777,-25.45845 -36.54898,-39.58044 -14.06716,-21.80352 -24.76999,-53.26552 -22.71851,-66.78326 1.35146,-8.90515 9.0768,-13.39192 17.51174,-10.17059 5.28593,2.01872 7.89152,6.08796 9.01485,14.07882 2.27694,16.19716 12.47603,40.51213 22.55685,53.77627 7.78301,10.24074 19.72512,21.82316 31.56401,30.61333 14.99651,11.13465 14.19132,10.81885 22.17012,8.69536 3.68496,-0.98072 6.85709,-1.93849 7.0492,-2.12839 0.1921,-0.18989 -3.35304,-4.72352 -7.87808,-10.07473 -13.79632,-16.31519 -21.18572,-28.72299 -28.15685,-47.27916 -7.67347,-20.42568 -12.25445,-44.84904 -11.65541,-62.14049 0.38714,-11.17489 1.77887,-14.14676 8.09694,-17.29 4.62514,-2.301 10.06446,-1.05828 14.1828,3.24034 2.67412,2.79117 2.92681,3.81928 4.24378,17.26595 3.07923,31.44006 11.08067,57.10538 23.70665,76.04112 4.90402,7.35478 18.23509,22.41997 24.42362,27.60067 5.07952,4.25229 5.29925,4.32883 10.43801,3.63567 2.88709,-0.38944 5.55282,-0.8872 5.92384,-1.10614 0.37101,-0.21894 -1.49706,-5.00499 -4.15127,-10.63567 -14.23174,-30.19136 -22.10019,-70.15194 -20.72183,-105.2376 0.64275,-16.36095 1.71433,-20.71581 6.2016,-25.20308 2.84388,-2.84388 3.9792,-3.29692 8.26206,-3.29692 5.28026,0 9.15844,2.14767 11.42608,6.32755 0.81171,1.49619 1.20658,10.26596 1.26852,28.17245 0.0878,25.37418 0.16868,26.37301 3.36182,41.49703 4.06504,19.25377 10.00266,36.98715 17.21727,51.42143 L 502.57767,337.5 h 6.1872 6.1872 l 0.47656,-73.20799 c 0.4155,-63.82761 0.677,-73.5956 2.04089,-76.23307 4.22399,-8.1683 17.53049,-8.02704 22.57096,0.23961 1.88876,3.09766 1.95217,5.56107 1.95578,75.98283 0.003,57.35095 0.26875,72.86283 1.25374,73.16554 0.6875,0.21128 3.57764,0.62182 6.42253,0.91232 l 5.17253,0.52818 3.9906,-8.19371 c 9.12137,-18.72848 14.99755,-35.79336 19.00883,-55.20319 3.61871,-17.51019 4.44288,-27.81692 3.84465,-48.07919 -0.51776,-17.53668 -0.40995,-19.34128 1.3259,-22.19567 2.99354,-4.92248 6.24168,-6.54154 12.01136,-5.98715 5.38929,0.51785 8.17691,2.39654 10.78602,7.26913 2.1458,4.00736 2.88468,35.90397 1.2116,52.30328 -2.86234,28.05624 -11.44607,59.36515 -21.09641,76.94857 -2.24351,4.08779 -3.93252,7.54787 -3.75336,7.68907 0.17916,0.1412 3.02575,0.79678 6.32575,1.45683 l 6,1.20011 11,-11.34624 c 13.00572,-13.4151 19.94651,-23.13269 26.45835,-37.04355 8.70967,-18.60597 14.4554,-41.24695 15.97329,-62.94259 0.90257,-12.90071 1.9801,-15.63188 7.24053,-18.35215 4.8106,-2.48766 10.35816,-1.34695 14.73741,3.03036 3.5407,3.53913 3.59517,3.71881 3.93357,12.97471 0.77485,21.19341 -7.77285,57.02999 -19.3622,81.17681 -5.39256,11.23561 -14.8826,25.56674 -22.07359,33.33387 -2.97405,3.21233 -5.40736,6.06798 -5.40736,6.34589 0,0.27791 2.89646,1.28933 6.43658,2.2476 l 6.43657,1.7423 5.81343,-3.24313 c 13.98233,-7.80031 30.6776,-22.39217 40.43382,-35.33965 10.30488,-13.67561 18.84512,-33.06216 22.32564,-50.67973 2.42251,-12.2622 3.33271,-14.63604 6.69744,-17.46727 6.08394,-5.1193 16.87261,-2.09118 19.60232,5.5019 3.15386,8.77289 -4.1615,39.1326 -14.32856,59.46537 -8.56827,17.13543 -23.90387,36.12888 -37.41724,46.34201 -3.025,2.28624 -6.5626,4.98939 -7.86133,6.007 l -2.36134,1.85021 6.318,2.52779 6.31799,2.52779 6.54334,-2.42538 c 37.4365,-13.87637 61.53175,-38.15138 72.19277,-72.73138 4.09784,-13.2917 5.30459,-15.47197 9.54391,-17.24327 6.95778,-2.90715 14.30362,0.39525 17.37545,7.81131 2.36641,5.71302 -2.23921,24.15772 -10.11455,40.50698 -11.43833,23.74604 -29.96771,43.65257 -50.91141,54.69527 -4.97356,2.62234 -9.04283,5.09254 -9.04283,5.48934 0,0.3968 3.10591,2.39903 6.90201,4.44939 l 6.90202,3.72794 9.40004,-1.51262 c 12.15362,-1.95571 18.66705,-3.92938 27.29427,-8.27059 25.43797,-12.80036 42.98705,-33.38298 51.0772,-59.90643 2.96218,-9.71146 5.48764,-13.12737 10.54517,-14.26324 4.50065,-1.01081 10.58783,0.90716 13.0849,4.12283 5.67008,7.30179 4.15892,17.55257 -5.66352,38.41766 -12.35633,26.24767 -36.91347,49.9907 -61.60908,59.56663 -3.26316,1.26532 -5.93301,2.56814 -5.93301,2.89515 0,1.14242 4.99265,2.85324 13.15023,4.50618 11.06577,2.24221 34.84902,1.476 46.09335,-1.48496 26.80641,-7.05892 49.33235,-25.79008 57.30581,-47.65195 C 893.05089,365.85317 897.04638,362 903.5,362 c 5.73524,0 10.96114,4.28512 12.5863,10.32049 3.13967,11.65984 -10.30248,36.0527 -28.75991,52.1893 -14.51301,12.68815 -31.38984,21.14292 -52.15932,26.13019 -5.86689,1.40879 -10.79592,2.68247 -10.95341,2.8304 -0.15749,0.14793 4.70937,3.81512 10.81524,8.14929 36.34317,25.79779 69.22384,49.95669 72.86887,53.54005 8.79232,8.64355 8.05037,18.86225 -2.06525,28.44425 -7.92503,7.50696 -71.94471,55.13312 -92.66045,68.93287 -11.82017,7.87399 -12.99751,8.92081 -12.04171,10.70673 0.58265,1.0887 9.22918,10.18257 19.2145,20.2086 20.2832,20.36588 31.29711,28.89441 47.36158,36.67403 10.8585,5.25849 13.99085,8.23359 14.96061,14.20951 1.01224,6.2377 -5.20856,13.92485 -12.35334,15.26522 -5.29082,0.99256 -11.58194,-1.38574 -22.9399,-8.67223 -19.47528,-12.49402 -29.51882,-20.88823 -51.21438,-42.80406 l -21.34056,-21.55723 -2.65944,1.55196 c -25.62719,14.95523 -31.48854,18.57469 -31.92604,19.7148 -0.91249,2.37793 6.83136,23.9116 13.30588,37.00026 10.52234,21.27156 22.66669,36.38135 39.60398,49.27462 C 801.43846,750.42366 804,753.93702 804,759 c 0,4.89661 -2.51843,8.58847 -7.5056,11.00271 -7.41389,3.589 -12.82925,1.8715 -24.28745,-7.70286 C 759.83186,751.95935 746.0071,735.9978 738.92896,723.87836 729.4023,707.56647 716,676.26504 716,670.32718 c 0,-1.94096 -1.39865,-1.65953 -7.79214,1.56789 -3.15431,1.59229 -10.22898,4.79639 -15.72148,7.12021 -5.49251,2.32383 -10.32503,4.53219 -10.73893,4.90748 -0.4139,0.37528 1.23466,7.63369 3.66347,16.12979 10.19499,35.66265 20.63245,55.77191 38.6716,74.50639 10.29252,10.68927 12.35633,15.20054 9.59907,20.98258 -2.21339,4.64153 -7.02396,7.45006 -12.7688,7.45474 -6.36758,0.005 -13.57804,-5.35007 -23.17479,-17.21206 C 685.13715,770.20899 676.54527,755.38058 669.39716,736.87176 665.94902,727.94339 657,697.42634 657,694.59621 c 0,-2.04649 0.25054,-2.07247 -10.80384,1.12043 l -9.40547,2.71664 0.68121,6.03336 c 0.37467,3.31835 2.23007,12.07915 4.12312,19.46845 7.70639,30.08099 17.85733,54.08096 30.83929,72.9136 C 682.86018,811.97328 683,812.23498 683,816.6242 c 0,9.67102 -12.35293,16.75704 -20.19567,11.58486 C 653.2907,821.93495 635.43826,790.45456 624.97381,761.5 619.59136,746.60706 613.69165,724.75107 611.7359,712.45899 610.37304,703.89335 611.16014,704.24301 598,706.3571 l -7.5,1.20483 -0.32511,14.96903 c -0.8916,41.05218 6.90659,75.53152 22.60996,99.96891 5.87617,9.14443 6.43894,11.2844 4.25208,16.1689 -3.10741,6.94064 -11.08988,10.00725 -18.2556,7.01322 C 587.62552,841.0208 571.49542,803.93211 566.51911,771.5 565.6752,766 564.45475,750.21157 563.807,736.4146 l -1.17774,-25.08539 -5.06463,0.3694 c -2.78555,0.20317 -7.42713,0.61147 -10.31463,0.90735 l -5.25,0.53795 v 69.47771 c 0,59.48832 -0.2135,69.89056 -1.48491,72.3492 -3.90152,7.54471 -13.66518,9.47033 -19.96635,3.93783 z M 566.2325,680.41534 c 41.70794,-4.68562 74.90166,-13.32652 115.7675,-30.13627 48.30465,-19.86964 107.08002,-54.94561 165,-98.46872 29.15367,-21.90709 30.99738,-23.48003 29,-24.741 -0.825,-0.52083 -6.45,-4.57368 -12.5,-9.00632 -17.91551,-13.12615 -59.08085,-42.14393 -72,-50.75339 C 742.98809,434.98077 678.79604,402.3187 638,389.20606 c -14.66514,-4.71365 -28.09945,-8.43994 -28.60516,-7.93423 -0.25149,0.25149 0.79429,1.26039 2.32395,2.242 1.52967,0.98161 6.56354,4.97553 11.18638,8.87539 24.27023,20.47448 39.99374,47.1147 47.28273,80.11078 2.97435,13.46437 3.26177,43.60028 0.53626,56.22729 -4.88908,22.65066 -12.32054,40.50501 -23.97856,57.60934 -8.28129,12.15008 -23.91549,27.76927 -35.14406,35.11033 -17.92082,11.71634 -37.8994,19.47282 -59.42962,23.07293 -12.75807,2.1333 -41.52292,1.60689 -53.17192,-0.97308 -35.23969,-7.80472 -66.6332,-27.96955 -86.23161,-55.38868 -12.11285,-16.94649 -20.26878,-35.35416 -24.93503,-56.27763 -3.27426,-14.68175 -3.29239,-42.51671 -0.0375,-57.52826 7.81873,-36.0597 25.34212,-64.67262 54.00603,-88.18329 3.46605,-2.84292 5.80268,-5.16895 5.19251,-5.16895 -0.61017,0 -5.47103,1.37365 -10.80191,3.05256 -42.70951,13.45091 -72.96843,26.81041 -114.14553,50.39595 -33.72052,19.31454 -60.64624,36.79712 -104.54699,67.88125 -13.2,9.34632 -26.85175,18.99637 -30.33723,21.44455 -3.48547,2.44818 -5.96047,4.80404 -5.5,5.23526 6.3313,5.92895 47.34215,35.95677 70.18783,51.39096 81.69376,55.19106 144.06598,83.32299 211.78418,95.52165 38.83673,6.99599 68.68423,8.30313 102.59772,4.49316 z M 485.56634,491.91305 c 12.785,-2.34202 24.68521,-11.8888 30.73221,-24.65452 2.9983,-6.32966 3.20145,-7.45655 3.20145,-17.75853 0,-9.95674 -0.25803,-11.52163 -2.72057,-16.5 -5.3481,-10.81189 -14.18469,-19.37935 -23.97599,-23.24578 -7.6145,-3.00685 -22.09275,-2.94345 -29.99532,0.13135 -11.54747,4.49298 -20.29246,12.97631 -24.96463,24.21768 -1.82231,4.38453 -2.25244,7.36613 -2.29325,15.89675 -0.0468,9.7924 0.16551,10.95546 3.15121,17.25853 5.97258,12.60861 16.75081,21.44466 29.54971,24.22501 7.90052,1.71626 10.00574,1.76848 17.31518,0.42951 z"
     id="path825"
     inkscape:connector-curvature="0" />
</svg>
