<?xml version="1.0" encoding="UTF-8" standalone="no"?>
<!-- Created with Inkscape (http://www.inkscape.org/) -->

<svg
   xmlns:dc="http://purl.org/dc/elements/1.1/"
   xmlns:cc="http://creativecommons.org/ns#"
   xmlns:rdf="http://www.w3.org/1999/02/22-rdf-syntax-ns#"
   xmlns:svg="http://www.w3.org/2000/svg"
   xmlns="http://www.w3.org/2000/svg"
   xmlns:sodipodi="http://sodipodi.sourceforge.net/DTD/sodipodi-0.dtd"
   xmlns:inkscape="http://www.inkscape.org/namespaces/inkscape"
   version="1.1"
   id="svg815"
   width="1024"
   height="1024"
   viewBox="0 0 1024 1024"
   sodipodi:docname="thumbnails.svg"
   inkscape:version="0.92.4 (5da689c313, 2019-01-14)">
  <metadata
     id="metadata821">
    <rdf:RDF>
      <cc:Work
         rdf:about="">
        <dc:format>image/svg+xml</dc:format>
        <dc:type
           rdf:resource="http://purl.org/dc/dcmitype/StillImage" />
        <dc:title></dc:title>
      </cc:Work>
    </rdf:RDF>
  </metadata>
  <defs
     id="defs819" />
  <sodipodi:namedview
     pagecolor="#ffffff"
     bordercolor="#666666"
     borderopacity="1"
     objecttolerance="10"
     gridtolerance="10"
     guidetolerance="10"
     inkscape:pageopacity="0"
     inkscape:pageshadow="2"
     inkscape:window-width="3840"
     inkscape:window-height="2035"
     id="namedview817"
     showgrid="false"
     inkscape:zoom="0.42919923"
     inkscape:cx="1201.8018"
     inkscape:cy="470.93231"
     inkscape:window-x="-13"
     inkscape:window-y="-13"
     inkscape:window-maximized="1"
     inkscape:current-layer="svg815" />
  <path
     style="fill:#000000;stroke-width:0.5"
     d="m 202.85661,455.462 c -6.23202,-1.97759 -10.78846,-6.54308 -13.64546,-13.67255 l -1.35454,-3.38018 -0.13702,-143.75 c -0.0948,-99.42713 0.0265,-144.82916 0.39319,-147.25 1.00585,-6.63975 4.72907,-12.41314 10.06278,-15.60383 5.49806,-3.28899 2.34133,-3.14617 69.5361,-3.14617 h 60.89495 v 17 17 l -19.625,0.0254 c -10.79375,0.014 -34.25,0.0702 -52.125,0.125 l -32.5,0.0996 -0.12595,129.625 -0.12595,129.625 h 98.50095 98.50095 v -82.17313 -82.17313 l 9.78847,-0.34828 c 7.93829,-0.28245 10.27736,-0.53461 12.375,-1.33405 3.67477,-1.40052 6.72874,-3.81306 10.13205,-8.00402 1.62496,-2.00103 3.17948,-3.71231 3.45448,-3.80285 0.33276,-0.10955 0.41638,32.65918 0.25,97.97109 l -0.25,98.13569 -1.7098,3.47295 c -2.27536,4.62171 -5.58572,7.84923 -10.41679,10.15613 l -3.87341,1.84961 -118,0.0937 c -94.18089,0.0748 -118.40372,-0.0344 -120,-0.54096 z m 51,-57.23929 c -3.51674,-1.62158 -5.25582,-4.66472 -5.24178,-9.17238 0.0102,-3.26708 1.53103,-6.16748 3.99206,-7.61319 1.73881,-1.02146 2.17051,-1.02877 69.24972,-1.17188 50.44358,-0.10763 68.03872,0.004 69.63197,0.44193 2.81247,0.77298 4.86178,3.14362 5.56927,6.44255 0.96768,4.51213 -0.29433,8.25456 -3.61281,10.71356 l -1.41157,1.04597 -68.08843,0.11782 c -65.25593,0.11292 -68.17163,0.0794 -70.08843,-0.80438 z m -0.0393,-32.5116 c -3.73193,-1.69496 -5.46963,-5.13377 -5.10957,-10.11154 0.2272,-3.14104 1.13591,-4.82605 3.59135,-6.6594 1.37688,-1.02805 1.57113,-1.03125 70.21911,-1.158 64.77507,-0.1196 68.94126,-0.0753 70.58087,0.75 2.72551,1.37194 3.98944,4.11454 3.99931,8.67816 0.01,4.59827 -1.06749,6.60164 -4.47675,8.32394 l -2.22691,1.125 -67.26906,-0.011 c -64.40217,-0.0105 -67.35596,-0.0504 -69.30835,-0.93718 z m 0.6312,-32.27254 c -1.04945,-0.37632 -2.37498,-1.09936 -2.94562,-1.60676 -2.59397,-2.30651 -3.71323,-8.29532 -2.20786,-11.8136 0.37863,-0.88491 1.38986,-2.26857 2.24719,-3.07479 1.49718,-1.40794 1.82062,-1.48334 8.18658,-1.90852 3.64529,-0.24347 34.76097,-0.34573 69.14595,-0.22725 56.40131,0.19435 62.67151,0.29473 64.08558,1.02598 2.07737,1.07425 3.48916,3.14347 4.14675,6.07777 1.0502,4.68617 -0.48974,8.90748 -4.00217,10.97084 -1.73782,1.02087 -2.15314,1.02767 -69.2483,1.13379 -56.05442,0.0887 -67.82355,-0.009 -69.4081,-0.57746 z m -1.32849,-33.39908 c -6.10147,-3.10678 -6.11523,-13.68807 -0.0218,-16.76047 l 2.2416,-1.13025 68.04512,0.13025 68.04511,0.13025 1.81164,1.24141 c 2.73645,1.87514 3.99077,4.49591 4.04234,8.44603 0.0503,3.84913 -0.82856,5.88903 -3.29487,7.64814 l -1.63255,1.16442 -68.50847,0.13022 -68.50847,0.13022 z m 95.7159,-58.82005 c -2.09496,-0.95161 -4.40587,-3.31747 -5.4035,-5.53198 -0.41731,-0.92636 -0.64463,-15.69491 -0.82581,-53.65327 -0.1375,-28.8063 -0.22869,-52.37505 -0.20264,-52.375 0.026,5e-5 9.92604,10.17827 22,22.61827 12.07395,12.44001 37.00424,37.75251 55.40065,56.25 l 33.44802,33.63181 -51.19802,-0.011 c -48.59052,-0.0104 -51.30093,-0.0577 -53.2187,-0.92885 z m 90.35625,-33.73153 -17.64612,-17.67136 0.0442,-13.57864 0.0442,-13.57864 h -13.14169 -13.14169 l -16.99449,-17 -16.99448,-17 h 30.30145 30.30146 l 17.57079,17.74928 17.57081,17.74927 v 29.70983 c 0,16.34041 0.13657,30.06574 0.30349,30.50073 0.16692,0.43499 0.10655,0.79089 -0.13416,0.79089 -0.24071,0 -8.3784,-7.95211 -18.08377,-17.67136 z"
     id="path825"
     inkscape:connector-curvature="0" />
  <path
     style="fill:#000000;stroke-width:0.5"
     d="m 621.17467,452.53595 c -6.23202,-1.97759 -10.78846,-6.54308 -13.64546,-13.67255 l -1.35454,-3.38018 -0.13702,-143.75 c -0.0948,-99.42712 0.0265,-144.82915 0.39319,-147.24999 1.00585,-6.63975 4.72907,-12.41314 10.06278,-15.60383 5.49806,-3.28899 2.34133,-3.14617 69.5361,-3.14617 h 60.89495 v 17 17 l -19.625,0.0254 c -10.79375,0.014 -34.25,0.0702 -52.125,0.125 l -32.5,0.0996 -0.12595,129.62499 -0.12595,129.625 h 98.50095 98.50095 v -82.17313 -82.17313 l 9.78847,-0.34828 c 7.93829,-0.28245 10.27736,-0.53461 12.375,-1.33405 3.67477,-1.40052 6.72874,-3.81306 10.13205,-8.00402 1.62496,-2.00103 3.17948,-3.71231 3.45448,-3.80285 0.33276,-0.10955 0.41638,32.65918 0.25,97.97109 l -0.25,98.13569 -1.7098,3.47295 c -2.27536,4.62171 -5.58572,7.84923 -10.41679,10.15613 l -3.87341,1.84961 -118,0.0937 c -94.18089,0.0748 -118.40372,-0.0344 -120,-0.54096 z m 51,-57.23929 c -3.51674,-1.62158 -5.25582,-4.66472 -5.24178,-9.17238 0.0102,-3.26708 1.53103,-6.16748 3.99206,-7.61319 1.73881,-1.02146 2.17051,-1.02877 69.24972,-1.17188 50.44358,-0.10763 68.03872,0.004 69.63197,0.44193 2.81247,0.77298 4.86178,3.14362 5.56927,6.44255 0.96768,4.51213 -0.29433,8.25456 -3.61281,10.71356 l -1.41157,1.04597 -68.08843,0.11782 c -65.25593,0.11292 -68.17163,0.0794 -70.08843,-0.80438 z m -0.0393,-32.5116 c -3.73193,-1.69496 -5.46963,-5.13377 -5.10957,-10.11154 0.2272,-3.14104 1.13591,-4.82605 3.59135,-6.6594 1.37688,-1.02805 1.57113,-1.03125 70.21911,-1.158 64.77507,-0.1196 68.94126,-0.0753 70.58087,0.75 2.72551,1.37194 3.98944,4.11454 3.99931,8.67816 0.01,4.59827 -1.06749,6.60164 -4.47675,8.32394 l -2.22691,1.125 -67.26906,-0.011 c -64.40217,-0.0105 -67.35596,-0.0504 -69.30835,-0.93718 z m 0.6312,-32.27254 c -1.04945,-0.37632 -2.37498,-1.09936 -2.94562,-1.60676 -2.59397,-2.30651 -3.71323,-8.29532 -2.20786,-11.8136 0.37863,-0.88491 1.38986,-2.26857 2.24719,-3.07479 1.49718,-1.40794 1.82062,-1.48334 8.18658,-1.90852 3.64529,-0.24347 34.76097,-0.34573 69.14595,-0.22725 56.40131,0.19435 62.67151,0.29473 64.08558,1.02598 2.07737,1.07425 3.48916,3.14347 4.14675,6.07777 1.0502,4.68617 -0.48974,8.90748 -4.00217,10.97084 -1.73782,1.02087 -2.15314,1.02767 -69.2483,1.13379 -56.05442,0.0887 -67.82355,-0.009 -69.4081,-0.57746 z m -1.32849,-33.39908 c -6.10147,-3.10678 -6.11523,-13.68807 -0.0218,-16.76047 l 2.2416,-1.13025 68.04512,0.13025 68.04511,0.13025 1.81164,1.24141 c 2.73645,1.87514 3.99077,4.49591 4.04234,8.44603 0.0503,3.84913 -0.82856,5.88903 -3.29487,7.64814 l -1.63255,1.16442 -68.50847,0.13022 -68.50847,0.13022 z m 95.7159,-58.82005 c -2.09496,-0.95161 -4.40587,-3.31747 -5.4035,-5.53198 -0.41731,-0.92636 -0.64463,-15.6949 -0.82581,-53.65326 -0.1375,-28.8063 -0.22869,-52.37505 -0.20264,-52.375 0.026,5e-5 9.92604,10.17827 22,22.61827 12.07395,12.44001 37.00424,37.75251 55.40065,56.25 l 33.44802,33.6318 -51.19802,-0.011 c -48.59052,-0.0104 -51.30093,-0.0577 -53.2187,-0.92885 z m 90.35625,-33.73152 -17.64612,-17.67136 0.0442,-13.57864 0.0442,-13.57864 h -13.14169 -13.14169 l -16.99449,-17 -16.99448,-17 h 30.30145 30.30146 l 17.57079,17.74928 17.57081,17.74927 v 29.70983 c 0,16.34041 0.13657,30.06574 0.30349,30.50073 0.16692,0.43499 0.10655,0.79089 -0.13416,0.79089 -0.24071,0 -8.3784,-7.95211 -18.08377,-17.67136 z"
     id="path825-6"
     inkscape:connector-curvature="0" />
  <path
     style="fill:#000000;stroke-width:0.5"
     d="m 207.72895,885.63264 c -6.23202,-1.97759 -10.78846,-6.54308 -13.64546,-13.67255 l -1.35454,-3.38018 -0.13702,-143.75 c -0.0948,-99.42713 0.0265,-144.82916 0.39319,-147.25 1.00585,-6.63975 4.72907,-12.41314 10.06278,-15.60383 5.49806,-3.28899 2.34133,-3.14617 69.5361,-3.14617 h 60.89495 v 17 17 l -19.625,0.0254 c -10.79375,0.014 -34.25,0.0702 -52.125,0.125 l -32.5,0.0996 -0.12595,129.625 -0.12595,129.625 h 98.50095 98.50095 v -82.17313 -82.17313 l 9.78847,-0.34828 c 7.93829,-0.28245 10.27736,-0.53461 12.375,-1.33405 3.67477,-1.40052 6.72874,-3.81306 10.13205,-8.00402 1.62496,-2.00103 3.17948,-3.71231 3.45448,-3.80285 0.33276,-0.10955 0.41638,32.65918 0.25,97.97109 l -0.25,98.13569 -1.7098,3.47295 c -2.27536,4.62171 -5.58572,7.84923 -10.41679,10.15613 l -3.87341,1.84961 -118,0.0937 c -94.18089,0.0748 -118.40372,-0.0344 -120,-0.54096 z m 51,-57.23929 c -3.51674,-1.62158 -5.25582,-4.66472 -5.24178,-9.17238 0.0102,-3.26708 1.53103,-6.16748 3.99206,-7.61319 1.73881,-1.02146 2.17051,-1.02877 69.24972,-1.17188 50.44358,-0.10763 68.03872,0.004 69.63197,0.44193 2.81247,0.77298 4.86178,3.14362 5.56927,6.44255 0.96768,4.51213 -0.29433,8.25456 -3.61281,10.71356 l -1.41157,1.04597 -68.08843,0.11782 c -65.25593,0.11292 -68.17163,0.0794 -70.08843,-0.80438 z m -0.0393,-32.5116 c -3.73193,-1.69496 -5.46963,-5.13377 -5.10957,-10.11154 0.2272,-3.14104 1.13591,-4.82605 3.59135,-6.6594 1.37688,-1.02805 1.57113,-1.03125 70.21911,-1.158 64.77507,-0.1196 68.94126,-0.0753 70.58087,0.75 2.72551,1.37194 3.98944,4.11454 3.99931,8.67816 0.01,4.59827 -1.06749,6.60164 -4.47675,8.32394 l -2.22691,1.125 -67.26906,-0.011 c -64.40217,-0.0105 -67.35596,-0.0504 -69.30835,-0.93718 z m 0.6312,-32.27254 c -1.04945,-0.37632 -2.37498,-1.09936 -2.94562,-1.60676 -2.59397,-2.30651 -3.71323,-8.29532 -2.20786,-11.8136 0.37863,-0.88491 1.38986,-2.26857 2.24719,-3.07479 1.49718,-1.40794 1.82062,-1.48334 8.18658,-1.90852 3.64529,-0.24347 34.76097,-0.34573 69.14595,-0.22725 56.40131,0.19435 62.67151,0.29473 64.08558,1.02598 2.07737,1.07425 3.48916,3.14347 4.14675,6.07777 1.0502,4.68617 -0.48974,8.90748 -4.00217,10.97084 -1.73782,1.02087 -2.15314,1.02767 -69.2483,1.13379 -56.05442,0.0887 -67.82355,-0.009 -69.4081,-0.57746 z m -1.32849,-33.39908 c -6.10147,-3.10678 -6.11523,-13.68807 -0.0218,-16.76047 l 2.2416,-1.13025 68.04512,0.13025 68.04511,0.13025 1.81164,1.24141 c 2.73645,1.87514 3.99077,4.49591 4.04234,8.44603 0.0503,3.84913 -0.82856,5.88903 -3.29487,7.64814 l -1.63255,1.16442 -68.50847,0.13022 -68.50847,0.13022 z m 95.7159,-58.82005 c -2.09496,-0.95161 -4.40587,-3.31747 -5.4035,-5.53198 -0.41731,-0.92636 -0.64463,-15.69491 -0.82581,-53.65327 -0.1375,-28.8063 -0.22869,-52.37505 -0.20264,-52.375 0.026,5e-5 9.92604,10.17827 22,22.61827 12.07395,12.44001 37.00424,37.75251 55.40065,56.25 l 33.44802,33.63181 -51.19802,-0.011 c -48.59052,-0.0104 -51.30093,-0.0577 -53.2187,-0.92885 z m 90.35625,-33.73153 -17.64612,-17.67136 0.0442,-13.57864 0.0442,-13.57864 H 413.3651 400.22341 l -16.99449,-17 -16.99448,-17 h 30.30145 30.30146 l 17.57079,17.74928 17.57081,17.74927 v 29.70983 c 0,16.34041 0.13657,30.06574 0.30349,30.50073 0.16692,0.43499 0.10655,0.79089 -0.13416,0.79089 -0.24071,0 -8.3784,-7.95211 -18.08377,-17.67136 z"
     id="path825-4"
     inkscape:connector-curvature="0" />
  <path
     style="fill:#000000;stroke-width:0.5"
     d="m 626.047,882.70659 c -6.232,-1.97759 -10.7885,-6.54308 -13.6455,-13.67255 l -1.3545,-3.38018 -0.137,-143.75 c -0.095,-99.42712 0.027,-144.82915 0.3932,-147.24999 1.0058,-6.63975 4.729,-12.41314 10.0628,-15.60383 5.498,-3.28899 2.3413,-3.14617 69.5361,-3.14617 h 60.8949 v 17 17 l -19.625,0.0254 c -10.7937,0.014 -34.25,0.0702 -52.125,0.125 l -32.5,0.0996 -0.1259,129.62499 -0.126,129.625 h 98.501 98.5009 V 767.23073 685.0576 l 9.7885,-0.34828 c 7.9383,-0.28245 10.2773,-0.53461 12.375,-1.33405 3.6747,-1.40052 6.7287,-3.81306 10.132,-8.00402 1.625,-2.00103 3.1795,-3.71231 3.4545,-3.80285 0.3328,-0.10955 0.4164,32.65918 0.25,97.97109 l -0.25,98.13569 -1.7098,3.47295 c -2.2754,4.62171 -5.5857,7.84923 -10.4168,10.15613 l -3.8734,1.84961 -118,0.0937 c -94.1809,0.0748 -118.4037,-0.0344 -120,-0.54096 z m 51,-57.23929 c -3.5167,-1.62158 -5.2558,-4.66472 -5.2418,-9.17238 0.01,-3.26708 1.5311,-6.16748 3.9921,-7.61319 1.7388,-1.02146 2.1705,-1.02877 69.2497,-1.17188 50.4436,-0.10763 68.0387,0.004 69.632,0.44193 2.8124,0.77298 4.8618,3.14362 5.5692,6.44255 0.9677,4.51213 -0.2943,8.25456 -3.6128,10.71356 l -1.4115,1.04597 -68.0885,0.11782 c -65.2559,0.11292 -68.1716,0.0794 -70.0884,-0.80438 z m -0.039,-32.5116 c -3.7319,-1.69496 -5.4696,-5.13377 -5.1096,-10.11154 0.2272,-3.14104 1.1359,-4.82605 3.5914,-6.6594 1.3769,-1.02805 1.5711,-1.03125 70.2191,-1.158 64.7751,-0.1196 68.9413,-0.0753 70.5809,0.75 2.7255,1.37194 3.9894,4.11454 3.9993,8.67816 0.01,4.59827 -1.0675,6.60164 -4.4768,8.32394 l -2.2269,1.125 -67.269,-0.011 c -64.4022,-0.0105 -67.356,-0.0504 -69.3084,-0.93718 z m 0.6312,-32.27254 c -1.0494,-0.37632 -2.375,-1.09936 -2.9456,-1.60676 -2.594,-2.30651 -3.7132,-8.29532 -2.2079,-11.8136 0.3787,-0.88491 1.3899,-2.26857 2.2472,-3.07479 1.4972,-1.40794 1.8206,-1.48334 8.1866,-1.90852 3.6453,-0.24347 34.761,-0.34573 69.1459,-0.22725 56.4014,0.19435 62.6716,0.29473 64.0856,1.02598 2.0774,1.07425 3.4892,3.14347 4.1468,6.07777 1.0502,4.68617 -0.4898,8.90748 -4.0022,10.97084 -1.7378,1.02087 -2.1531,1.02767 -69.2483,1.13379 -56.0544,0.0887 -67.8235,-0.009 -69.4081,-0.57746 z m -1.3285,-33.39908 c -6.1015,-3.10678 -6.1152,-13.68807 -0.022,-16.76047 l 2.2416,-1.13025 68.0451,0.13025 68.0451,0.13025 1.8117,1.24141 c 2.7364,1.87514 3.9908,4.49591 4.0423,8.44603 0.05,3.84913 -0.8285,5.88903 -3.2948,7.64814 l -1.6326,1.16442 -68.5085,0.13022 -68.5084,0.13022 z m 95.7159,-58.82005 c -2.0949,-0.95161 -4.4059,-3.31747 -5.4035,-5.53198 -0.4173,-0.92636 -0.6446,-15.6949 -0.8258,-53.65326 -0.1375,-28.8063 -0.2287,-52.37505 -0.2026,-52.375 0.026,5e-5 9.926,10.17827 22,22.61827 12.0739,12.44001 37.0042,37.75251 55.4006,56.25 l 33.448,33.6318 -51.198,-0.011 c -48.5905,-0.0104 -51.3009,-0.0577 -53.2187,-0.92885 z m 90.3563,-33.73152 -17.6462,-17.67136 0.044,-13.57864 0.044,-13.57864 h -13.1416 -13.1417 l -16.9945,-17 -16.9945,-17 h 30.3014 30.3015 l 17.5708,17.74928 17.5708,17.74927 v 29.70983 c 0,16.34041 0.1366,30.06574 0.3035,30.50073 0.1669,0.43499 0.1065,0.79089 -0.1342,0.79089 -0.2407,0 -8.3784,-7.95211 -18.0837,-17.67136 z"
     id="path825-6-0"
     inkscape:connector-curvature="0" />
</svg>
