<?xml version="1.0" encoding="utf-8"?>
<!-- Generator: Adobe Illustrator 16.0.0, SVG Export Plug-In . SVG Version: 6.00 Build 0)  -->
<!DOCTYPE svg PUBLIC "-//W3C//DTD SVG 1.1//EN" "http://www.w3.org/Graphics/SVG/1.1/DTD/svg11.dtd">
<svg version="1.1" id="Vrstva_1" xmlns="http://www.w3.org/2000/svg" xmlns:xlink="http://www.w3.org/1999/xlink" x="0px" y="0px"
	 width="56.689px" height="56.689px" viewBox="0 0 56.689 56.689" enable-background="new 0 0 56.689 56.689" xml:space="preserve">
<g>
	<g>
		<g>
			<path fill="#697041" d="M49.484,5.42c0,0-0.327-0.223-0.786-0.139c-0.313,0.057-0.619,0.439-0.619,0.439l-2.306,3.381
				c1.404,0.618,2.645,1.49,3.811,2.472l2.168-3.063c0,0,0.384-0.446,0.296-0.917c-0.087-0.472-0.449-0.71-0.449-0.71L49.484,5.42z"
				/>
			<path fill="#231F20" d="M49.654,12.125l-0.313-0.264c-1.321-1.113-2.503-1.88-3.72-2.415l-0.415-0.183l2.562-3.756
				c0.083-0.105,0.433-0.519,0.863-0.598c0.596-0.108,1.025,0.171,1.065,0.199l2.117,1.463c0.043,0.028,0.493,0.339,0.605,0.952
				c0.117,0.629-0.33,1.171-0.381,1.231L49.654,12.125z M46.335,8.946c1.042,0.503,2.068,1.175,3.176,2.077l1.935-2.731
				c0.094-0.115,0.275-0.395,0.231-0.63C51.622,7.36,51.397,7.2,51.387,7.194L49.269,5.73l0,0c0,0-0.213-0.129-0.504-0.079
				c-0.111,0.021-0.3,0.19-0.393,0.305L46.335,8.946z"/>
		</g>
		<g>
			<path fill="#FFEACE" d="M18.505,51.409c0.075,0.025,1.218-0.662,1.888-1.295l-1.199-0.557
				C19.194,49.557,18.406,51.376,18.505,51.409z"/>
			<path fill="#231F20" d="M18.51,51.503L18.51,51.503l-0.036-0.006l-0.039-0.014l-0.022-0.043c-0.02-0.043-0.07-0.156,0.694-1.922
				l0.039-0.088l1.413,0.658l-0.101,0.094C19.844,50.762,18.688,51.503,18.51,51.503z M19.242,49.682
				c-0.271,0.631-0.539,1.301-0.624,1.58c0.299-0.156,1.062-0.635,1.607-1.121L19.242,49.682z"/>
		</g>
		<g>
			<path fill="#D9EACE" d="M19.405,50.579c-0.228,0.191-0.685,0.457-0.685,0.457c-0.029,0.104-0.121,0.25-0.104,0.254
				c0.075,0.025,1.051-0.637,1.721-1.273l-0.303-0.037C20.034,49.981,19.635,50.387,19.405,50.579z"/>
		</g>
		<g>
			<path fill="#FF9518" d="M26.905,35.089c-4.886,7.258-7.619,13.998-7.619,13.998c-0.13,0.459,1.085,1.17,1.402,0.908
				c4.691-3.893,10.724-11.625,10.724-11.625l18.741-26.451l-5.068-3.5L26.905,35.089z"/>
			<path fill="#231F20" d="M20.494,50.38C20.493,50.38,20.493,50.38,20.494,50.38c-0.43,0-1.067-0.346-1.365-0.738
				c-0.207-0.273-0.202-0.502-0.161-0.646c0.039-0.1,2.814-6.889,7.663-14.09L44.998,7.958l5.616,3.878L31.679,38.561
				c-0.069,0.09-6.117,7.816-10.782,11.688C20.791,50.335,20.656,50.38,20.494,50.38z M45.17,8.878L27.177,35.274
				c-4.808,7.141-7.559,13.869-7.586,13.936c0.038,0.104,0.592,0.512,0.902,0.512c0.014,0,0.02-0.002,0.02-0.002
				c4.574-3.805,10.578-11.475,10.637-11.551l18.54-26.168L45.17,8.878z"/>
		</g>
		<g>
			<path fill="#DE9518" d="M36.462,28.364c-3.71,5.59-7.374,10.984-11.848,15.887c-1.46,1.971-3.024,3.479-4.69,5.246
				c0.294,0.152,0.463,0.334,0.601,0.221c4.691-3.893,10.58-11.537,10.58-11.537l18.601-26.164l-1.787-1.237
				C44.635,17.037,40.353,22.496,36.462,28.364z"/>
		</g>
		<g>
			<path fill="#9D724C" d="M43.727,9.063c-0.491,0.723-0.592,0.808-1.85,2.089c-1.259,1.282-3.105,2.417-5.696,4.805
				c-2.568,2.37-5.248,6.436-6.146,9.18c-0.399,1.224-0.938,3.127-0.357,3.266c0.617,0.15,0.974-1.317,0.974-1.317
				c0.567-3.531,4.426-8.106,6.421-10.187c1.994-2.081,3.511-2.628,3.511-2.628l4.299-6.035C44.396,7.701,44.219,8.342,43.727,9.063
				z"/>
			<path fill="#231F20" d="M29.766,28.696L29.766,28.696c-0.052,0-0.104-0.006-0.155-0.019c-0.149-0.036-0.271-0.131-0.352-0.275
				c-0.173-0.308-0.271-0.967,0.508-3.354c0.935-2.858,3.668-6.943,6.223-9.3c1.363-1.257,2.545-2.187,3.493-2.934
				c0.861-0.678,1.605-1.263,2.193-1.861l0.255-0.26c1.015-1.032,1.12-1.14,1.563-1.79c0.099-0.146,0.185-0.287,0.262-0.416
				c0.239-0.394,0.444-0.734,0.801-0.734c0.183,0,0.357,0.095,0.534,0.291l0.154,0.168l-4.481,6.291l-0.083,0.03
				c-0.015,0.006-1.487,0.561-3.403,2.558c-0.95,0.99-5.718,6.127-6.346,10.037C30.864,27.41,30.513,28.696,29.766,28.696z
				 M42.951,10.461c-0.163,0.169-0.363,0.372-0.617,0.63l-0.255,0.259c-0.612,0.625-1.37,1.22-2.246,1.91
				c-0.99,0.78-2.112,1.663-3.46,2.905c-2.493,2.3-5.159,6.28-6.068,9.06c-0.835,2.56-0.559,2.898-0.545,2.911l0.007-0.005
				c0.192,0,0.486-0.598,0.612-1.111c0.649-4.053,5.52-9.305,6.489-10.316c1.774-1.85,3.178-2.515,3.534-2.664L42.951,10.461z"/>
		</g>
	</g>
	<g>
		<path fill="#9D724C" d="M46.373,8.926c0,0,5.315-1.222,4.917-1.811c0,0,0.867,0.573,0.021,1.303l-1.803,2.612L46.373,8.926z"/>
	</g>
	<g>
		<path fill="#697041" d="M40.245,12.953c-0.647,0.518-2.455,1.942-2.543,2.012c-0.319,0.274-0.733,0.642-1.312,1.175
			c-2.568,2.37-5.153,6.34-6.051,9.084c-0.312,0.954-0.707,2.234-0.589,2.856c0.161-0.679,0.934-3.274,1.119-3.651
			c0.787-1.741,2.771-5.149,5.199-7.583c1.574-1.58,3.086-2.035,4.176-2.797v0.074l0.254-0.206l2.399-3.43
			C42.898,10.486,40.726,12.613,40.245,12.953z"/>
	</g>
	<path fill-rule="evenodd" clip-rule="evenodd" fill="#231F20" d="M17.712,51.165c-0.082-0.08-0.236-0.119-0.442-0.119
		c-1.081-0.01-2.079-0.26-2.974-0.74c-0.988-0.541-2.047-0.58-3.2-0.121c-0.247,0.092-0.483,0.191-0.751,0.301l-0.741,0.301
		l0.206-0.371c0.052-0.09,0.103-0.18,0.144-0.26c0.103-0.17,0.186-0.33,0.257-0.48c0.113-0.24,0.216-0.49,0.268-0.74
		c0.052-0.219,0.01-0.398-0.113-0.549c-0.186-0.221-0.545-0.35-0.998-0.35c-0.72,0.01-1.276,0.27-1.719,0.52
		c-1.378,0.77-2.428,1.77-3.313,2.641c-0.042,0.049-0.093,0.119-0.083,0.209c0.01,0.07,0.072,0.141,0.165,0.189
		c0.205,0.111,0.494,0.07,0.679-0.09c0.124-0.109,0.236-0.229,0.35-0.34c0.216-0.209,0.432-0.43,0.689-0.619
		c0.72-0.541,1.502-1.09,2.387-1.68c0.154-0.102,0.35-0.15,0.566-0.201c0.034-0.01,0.076-0.021,0.114-0.033
		c0.551-0.162,0.262,0.537,0.262,0.537h0c-0.105,0.199-0.21,0.4-0.315,0.596c-0.154,0.291-0.318,0.59-0.473,0.891l-0.082,0.16
		c-0.103,0.18-0.196,0.359-0.247,0.529c-0.031,0.102-0.01,0.191,0.051,0.271c0.124,0.17,0.453,0.238,0.751,0.148
		c0.165-0.049,0.33-0.129,0.494-0.209c0.083-0.041,0.165-0.08,0.248-0.109c0.195-0.08,0.381-0.17,0.565-0.25
		c0.474-0.211,0.958-0.42,1.462-0.621c0.535-0.199,1.111-0.17,1.657,0.109c0.247,0.131,0.514,0.24,0.771,0.361
		c0.844,0.369,1.78,0.559,2.871,0.57c0.257,0,0.556-0.07,0.556-0.281C17.774,51.264,17.753,51.216,17.712,51.165z"/>
</g>
</svg>
