<?xml version="1.0" encoding="utf-8"?>
<!-- Generator: Adobe Illustrator 16.0.0, SVG Export Plug-In . SVG Version: 6.00 Build 0)  -->
<!DOCTYPE svg PUBLIC "-//W3C//DTD SVG 1.1//EN" "http://www.w3.org/Graphics/SVG/1.1/DTD/svg11.dtd">
<svg version="1.1" id="Vrstva_1" xmlns="http://www.w3.org/2000/svg" xmlns:xlink="http://www.w3.org/1999/xlink" x="0px" y="0px"
	 width="56.689px" height="56.689px" viewBox="0 0 56.689 56.689" enable-background="new 0 0 56.689 56.689" xml:space="preserve">
<g>
	<path fill="#9D724C" d="M52.531,16.874v22.939c0,0.141,0,0.271-0.011,0.41c-0.17,3.391-2.42,6.34-5.71,7.948
		c-0.75,0.37-1.562,0.67-2.409,0.892c-1.07,0.271-2.2,0.421-3.37,0.421h-25.35c-6.182,0-11.23-4.11-11.49-9.261
		c-0.01-0.142-0.01-0.271-0.01-0.41V16.874c0-5.33,5.158-9.67,11.5-9.67h25.351C47.381,7.204,52.531,11.544,52.531,16.874z"/>
</g>
<g>
	<path fill="#231F20" d="M41.031,6.204h-25.35c-6.892,0-12.5,4.79-12.5,10.67v22.939c0,5.891,5.608,10.671,12.5,10.671h25.351
		c6.899,0,12.5-4.78,12.5-10.671V16.874C53.531,10.994,47.931,6.204,41.031,6.204z M44.402,49.064c-1.07,0.271-2.2,0.421-3.37,0.421
		H15.681c-6.182,0-11.23-4.11-11.49-9.261c-0.01-0.142-0.01-0.271-0.01-0.41v-22.94c0-5.33,5.158-9.67,11.5-9.67h25.351
		c6.35,0,11.5,4.34,11.5,9.67v22.939c0,0.141,0,0.271-0.011,0.41c-0.17,3.391-2.42,6.34-5.71,7.948
		C46.061,48.544,45.251,48.844,44.402,49.064z"/>
	<path fill="#FFEACE" d="M52.521,40.224c-0.17,3.391-2.42,6.34-5.71,7.948l-2.409,0.892c-1.07,0.271-2.2,0.421-3.37,0.421H15.681
		c-6.182,0-11.23-4.11-11.49-9.261H52.521z"/>
</g>
<line fill="none" stroke="#231F20" stroke-miterlimit="10" x1="3.633" y1="39.834" x2="52.989" y2="39.834"/>
<path fill="#D9EACE" stroke="#231F20" stroke-miterlimit="10" d="M26.647,45.067c0,0.942,0.765,1.709,1.709,1.709l0,0
	c0.942,0,1.708-0.767,1.708-1.709l0,0c0-0.943-0.767-1.708-1.708-1.708l0,0C27.412,43.359,26.647,44.123,26.647,45.067
	L26.647,45.067z"/>
<path fill="#66724C" d="M4.191,39.344L48.83,9.78c0,0,3.434,2.411,3.701,6.355l0.001,23.208"/>
<g>
	<g>
		<path fill="#FFFFFF" d="M24.047,35.192c-5.757,0-9.776-3.996-9.776-9.718V13.34h5.385v11.955c0,2.885,1.806,4.899,4.392,4.899
			c2.568,0,4.362-2.015,4.362-4.899V13.34h5.415v12.135C33.824,31.105,29.712,35.192,24.047,35.192z M15.269,14.34v11.135
			c0,5.133,3.608,8.718,8.776,8.718s8.777-3.585,8.777-8.718V14.34h-3.415v10.955c0,3.418-2.255,5.899-5.362,5.899
			c-3.125,0-5.392-2.481-5.392-5.899V14.34H15.269z"/>
	</g>
	<g>
		<path fill="#FFFFFF" d="M42.294,34.834h-5.415V13.34h5.415V34.834z M37.879,33.834h3.415V14.34h-3.415V33.834z"/>
	</g>
</g>
</svg>
