<?xml version="1.0" encoding="UTF-8" standalone="no"?>
<!-- Created with Inkscape (http://www.inkscape.org/) -->

<svg
   xmlns:dc="http://purl.org/dc/elements/1.1/"
   xmlns:cc="http://creativecommons.org/ns#"
   xmlns:rdf="http://www.w3.org/1999/02/22-rdf-syntax-ns#"
   xmlns:svg="http://www.w3.org/2000/svg"
   xmlns="http://www.w3.org/2000/svg"
   xmlns:sodipodi="http://sodipodi.sourceforge.net/DTD/sodipodi-0.dtd"
   xmlns:inkscape="http://www.inkscape.org/namespaces/inkscape"
   version="1.1"
   id="svg815"
   width="1024"
   height="1024"
   viewBox="0 0 1024 1024"
   sodipodi:docname="user.svg"
   inkscape:version="0.92.4 (5da689c313, 2019-01-14)">
  <metadata
     id="metadata821">
    <rdf:RDF>
      <cc:Work
         rdf:about="">
        <dc:format>image/svg+xml</dc:format>
        <dc:type
           rdf:resource="http://purl.org/dc/dcmitype/StillImage" />
        <dc:title></dc:title>
      </cc:Work>
    </rdf:RDF>
  </metadata>
  <defs
     id="defs819" />
  <sodipodi:namedview
     pagecolor="#ffffff"
     bordercolor="#666666"
     borderopacity="1"
     objecttolerance="10"
     gridtolerance="10"
     guidetolerance="10"
     inkscape:pageopacity="0"
     inkscape:pageshadow="2"
     inkscape:window-width="3840"
     inkscape:window-height="2035"
     id="namedview817"
     showgrid="false"
     inkscape:zoom="0.60697936"
     inkscape:cx="185.4828"
     inkscape:cy="275.57688"
     inkscape:window-x="-13"
     inkscape:window-y="-13"
     inkscape:window-maximized="1"
     inkscape:current-layer="svg815" />
  <path
     style="fill:#000000"
     d="M 477,864.46239 C 390.62272,853.65835 314.31776,815.28595 260.86218,755.77054 l -7.84063,-8.72947 0.56752,-11.77053 c 0.9619,-19.94996 4.54833,-32.14942 13.40856,-45.60998 12.25458,-18.61729 21.49165,-25.20954 53.50237,-38.18325 7.7,-3.12075 24.35,-9.85785 37,-14.97134 12.65,-5.11348 31.49625,-12.73545 41.88057,-16.9377 10.38431,-4.20226 18.96608,-7.51173 19.07061,-7.35437 0.10452,0.15735 1.19684,2.9861 2.42738,6.2861 25.52887,68.46232 126.12851,81.62147 171.65688,22.45394 5.29126,-6.87639 11.79687,-18.74728 13.5385,-24.70394 0.68345,-2.3375 1.3375,-4.25 1.45344,-4.25 0.11594,0 5.55721,2.19723 12.09171,4.88273 6.5345,2.6855 30.55591,12.39456 53.38091,21.57569 22.825,9.18112 45.15347,18.40204 49.61883,20.49093 30.47061,14.25411 47.10908,40.07837 49.04731,76.12546 0.71485,13.29473 1.1592,12.11721 -8.66614,22.96545 -49.86235,55.05347 -122.23383,92.5121 -203.0221,105.08186 -17.82643,2.7736 -65.37802,3.54165 -82.9779,1.34027 z M 204.23723,677.75 c -9.6555,-11.97767 -29.47661,-69.04288 -36.21033,-104.25 -14.09404,-73.69037 -0.52683,-165.53835 32.94016,-223 23.15044,-39.74849 38.69845,-60.65806 64.69176,-87 C 336.40763,191.80228 441.47767,151.26628 536.5,159.00952 c 105.41805,8.59037 199.23031,62.59515 262.61934,151.18172 60.29711,84.26561 78.84672,183.98808 53.25696,286.30876 -7.7814,31.11395 -22.80566,70.83445 -30.60325,80.90755 -1.46002,1.8861 -11.84338,-5.11245 -37.96117,-25.58643 l -3.68811,-2.89115 4.04141,-8.71499 C 849.5045,499.31585 803.99895,340.67549 673.61553,254.81938 570.28252,186.77568 441.2721,190.57087 339.28862,264.65452 236.6269,339.23086 191.31249,461.31047 220.93723,583.5 c 4.8048,19.81777 14.85726,47.17324 22.12008,60.19472 l 2.89739,5.19472 -20.01244,15.05528 C 203.75609,680.63528 205.6117,679.45503 204.23723,677.75 Z m 299.49471,-28.78323 c -33.98165,-4.04186 -60.61025,-32.00219 -60.71458,-63.75099 -0.0172,-5.23716 -0.0775,-5.33949 -6.76736,-11.48815 -18.64024,-17.13224 -29.02389,-31.53089 -39.2459,-54.4209 l -4.67746,-10.47419 -6.47114,-2.17773 c -35.29537,-11.87797 -49.05986,-54.4177 -24.91538,-77.00203 l 4.95756,-4.63722 -0.94305,-5.75778 c -0.51867,-3.16678 -0.94565,-12.45615 -0.94884,-20.64305 -0.0374,-96.03281 95.30614,-166.24917 189.99421,-139.9225 7.34733,2.04282 7.34003,2.02994 5.54362,9.77594 -9.93403,42.83467 -49.83637,79.67943 -98.54362,90.99253 -11.73506,2.72567 -11.50692,3.15338 -6.52303,-12.22919 3.72794,-11.50613 10.09719,-23.64226 16.22872,-30.92258 7.52962,-8.94036 7.43637,-9.05493 -2.93121,-3.60165 -29.12931,15.32183 -53.70041,41.77492 -64.30278,69.22796 -4.85895,12.5814 -5.38413,11.74797 7.92698,12.57968 77.20276,4.82381 156.83838,-49.0936 176.21366,-119.30571 0.244,-0.8842 2.17237,-0.13101 6.12193,2.39112 46.95021,29.98177 73.94555,85.2373 67.32809,137.81079 l -1.22405,9.72467 4.97041,5.25548 c 24.18543,25.57252 9.8576,65.5502 -27.46565,76.63496 -3.46794,1.02995 -4.44194,1.91738 -5.87651,5.35417 -11.00733,26.37032 -23.99662,45.15244 -41.55282,60.08411 l -8.91374,7.5812 -0.0119,8.22715 c -0.0535,37.07907 -36.31143,65.56399 -77.25619,60.69391 z"
     id="path825"
     inkscape:connector-curvature="0" />
</svg>
