<?xml version="1.0" encoding="UTF-8" standalone="no"?>
<!-- Created with Inkscape (http://www.inkscape.org/) -->

<svg
   xmlns:osb="http://www.openswatchbook.org/uri/2009/osb"
   xmlns:dc="http://purl.org/dc/elements/1.1/"
   xmlns:cc="http://creativecommons.org/ns#"
   xmlns:rdf="http://www.w3.org/1999/02/22-rdf-syntax-ns#"
   xmlns:svg="http://www.w3.org/2000/svg"
   xmlns="http://www.w3.org/2000/svg"
   xmlns:xlink="http://www.w3.org/1999/xlink"
   xmlns:sodipodi="http://sodipodi.sourceforge.net/DTD/sodipodi-0.dtd"
   xmlns:inkscape="http://www.inkscape.org/namespaces/inkscape"
   version="1.1"
   id="svg815"
   width="1365.3333"
   height="1365.3333"
   viewBox="0 0 1365.3333 1365.3333"
   sodipodi:docname="wallet.svg"
   inkscape:version="0.92.4 (5da689c313, 2019-01-14)">
  <metadata
     id="metadata821">
    <rdf:RDF>
      <cc:Work
         rdf:about="">
        <dc:format>image/svg+xml</dc:format>
        <dc:type
           rdf:resource="http://purl.org/dc/dcmitype/StillImage" />
        <dc:title></dc:title>
      </cc:Work>
    </rdf:RDF>
  </metadata>
  <defs
     id="defs819">
    <linearGradient
       id="linearGradient829"
       osb:paint="solid">
      <stop
         style="stop-color:#000000;stop-opacity:1;"
         offset="0"
         id="stop827" />
    </linearGradient>
    <linearGradient
       inkscape:collect="always"
       xlink:href="#linearGradient829"
       id="linearGradient831"
       x1="175.99999"
       y1="679.64937"
       x2="1168.3727"
       y2="679.64937"
       gradientUnits="userSpaceOnUse" />
  </defs>
  <sodipodi:namedview
     pagecolor="#ffffff"
     bordercolor="#666666"
     borderopacity="1"
     objecttolerance="10"
     gridtolerance="10"
     guidetolerance="10"
     inkscape:pageopacity="0"
     inkscape:pageshadow="2"
     inkscape:window-width="3840"
     inkscape:window-height="2035"
     id="namedview817"
     showgrid="false"
     inkscape:zoom="0.91046909"
     inkscape:cx="611.47176"
     inkscape:cy="447.8373"
     inkscape:window-x="-13"
     inkscape:window-y="-13"
     inkscape:window-maximized="1"
     inkscape:current-layer="svg815" />
  <path
     style="fill:#000000;stroke-width:20;stroke-miterlimit:4;stroke-dasharray:none;stroke:url(#linearGradient831)"
     d="m 262.10785,1110.8523 c -38.57451,-9.563 -71.57152,-42.8779 -82.97668,-83.7761 -2.98894,-10.7181 -3.13118,-26.3337 -3.13118,-343.75546 v -332.5273 l 3.92713,-13.74147 c 11.62318,-40.67074 39.92996,-71.00573 77.46878,-83.0195 21.63209,-6.92302 45.00672,-8.23761 128.08138,-7.20333 76.92532,0.95773 86.23094,1.68833 113.64031,8.9219 56.02054,14.78432 95.63477,41.81937 153.45274,104.72503 l 18.42575,20.04714 18.72943,-20.91084 c 43.77572,-48.87424 87.43744,-81.5171 129.16738,-96.56958 18.03237,-6.50445 48.69994,-12.99823 70.70231,-14.971 25.6554,-2.30029 144.7995,-2.29429 166.9489,0.009 33.9177,3.52616 53.3902,12.44113 75.2831,34.46646 17.2078,17.31178 26.6555,34.10666 32.6944,58.11943 l 3.8502,15.30893 V 679.0022 c 0,344.0182 0.2623,332.29 -7.9789,356.6945 -7.7716,23.0137 -27.7704,48.1873 -48.3373,60.8445 -5.6187,3.4578 -16.3468,8.4818 -23.8402,11.1645 l -13.6245,4.8775 -401.55248,0.2971 c -331.4739,0.2451 -403.18915,-0.1089 -410.93057,-2.028 z m 817.49105,-4.9256 c 40.0275,-12.3393 69.1859,-43.3538 80.6279,-85.7601 2.8532,-10.5745 3.0297,-30.33783 3.0297,-339.43698 V 352.52085 l -3.9272,-13.74146 c -6.1551,-21.53761 -14.6434,-36.19712 -30.1498,-52.06978 -15.7131,-16.08426 -29.4758,-24.53771 -49.4733,-30.3881 -13.5067,-3.95147 -14.5544,-3.9907 -106.5691,-3.9907 -90.163,0 -93.50304,0.11802 -112.24288,3.96447 -64.31441,13.201 -111.2144,43.24489 -169.11382,108.33342 -10.55645,11.86719 -19.82851,21.57673 -20.60456,21.57673 -0.77604,0 -5.07892,-4.08101 -9.56197,-9.06892 C 591.7842,299.44287 547.64069,269.84208 481.25428,256.19484 c -18.08434,-3.71763 -22.28482,-3.86403 -110.87219,-3.86403 -102.45011,0 -101.14442,-0.1258 -126.17786,12.15086 -30.32394,14.87112 -52.67516,43.6981 -61.80733,79.71468 -2.79385,11.01874 -2.98669,32.80475 -2.98669,337.39697 0,305.61381 0.18563,326.41818 3.02182,338.64798 10.50594,45.3026 46.26944,80.5979 89.087,87.9209 4.67085,0.7987 186.12186,1.3247 403.22449,1.1689 375.31808,-0.2698 395.22998,-0.4371 404.85538,-3.4044 z M 637.19339,955.13132 C 593.36535,912.531 451.61714,772.04171 425.63272,745.44963 c -46.2353,-47.31657 -62.84638,-87.67543 -60.7646,-147.63591 1.6497,-47.51563 16.60453,-84.50233 47.48176,-117.43331 31.4955,-33.59037 69.36054,-49.00673 115.62935,-47.07728 46.93743,1.95732 77.24499,17.65162 121.70885,63.02506 l 20.12989,20.54168 13.97224,-14.5025 c 52.32923,-54.31504 87.60567,-71.49991 141.68833,-69.0233 42.8479,1.96215 72.40876,15.88312 102.57886,48.30718 30.503,32.78171 46.7848,75.91332 46.7848,123.93583 0,42.04605 -12.5117,80.13768 -37.2262,113.3349 -11.2194,15.0702 -261.46163,265.48509 -266.14936,266.33302 -1.65942,0.30016 -15.3752,-11.755 -34.27325,-30.12368 z M 797.80847,854.78609 c 78.99797,-78.62888 130.02343,-130.73693 136.35043,-139.2434 11.9609,-16.08096 25.4903,-43.47786 30.414,-61.588 21.9188,-80.62049 -15.8811,-170.81526 -85.3983,-203.77018 -19.66992,-9.32459 -35.46726,-12.56883 -61.20216,-12.56883 -48.09838,0 -75.38463,13.32428 -121.76867,59.46145 -14.14766,14.07236 -26.03843,25.5879 -26.42396,25.59008 -0.3855,0.001 -12.27862,-11.50304 -26.42915,-25.56717 -14.15051,-14.06412 -30.6221,-28.9301 -36.60354,-33.03553 -39.90594,-27.38975 -87.99808,-34.41944 -132.29806,-19.3382 -19.70112,6.70694 -35.57293,16.69946 -52.86671,33.28364 -46.13687,44.24379 -64.08622,111.76611 -46.83203,176.17395 5.0393,18.81113 20.22228,48.58566 32.91552,64.54884 6.04367,7.60062 20.46065,23.16733 32.03769,34.59268 11.57704,11.42537 54.42663,53.82085 95.22129,94.21222 91.854,90.94592 134.72578,132.89839 135.81053,132.89839 0.45835,0 57.64125,-56.54246 127.07312,-125.64994 z m -152.05174,-2.61901 c -12.66042,-12.60581 -54.80276,-54.39283 -93.64967,-92.86002 -38.8469,-38.46721 -75.22361,-75.7704 -80.83711,-82.89599 -11.27886,-14.31703 -20.11385,-31.70349 -24.10422,-47.43496 -5.45123,-21.49067 -1.64437,-52.53086 8.86068,-72.24786 6.41926,-12.04835 22.31839,-28.95897 32.31612,-34.37199 23.12082,-12.51822 52.27523,-10.2607 76.60117,5.93148 4.59032,3.05546 30.03758,27.23336 56.54951,53.72869 l 48.20353,48.17328 45.93432,-45.93781 c 25.26389,-25.26578 50.58864,-49.40893 56.27726,-53.65146 30.69919,-22.89512 69.38032,-21.50155 94.6826,3.41116 16.02818,15.78137 26.63218,38.88665 29.11518,63.43959 2.3526,23.26289 -8.1226,54.67032 -26.33494,78.95988 -8.93389,11.91497 -194.64745,197.47872 -198.39237,198.23232 -1.21172,0.24384 -12.56165,-9.8705 -25.22206,-22.47631 z M 799.43928,741.65423 c 70.60427,-70.85858 76.74675,-78.30647 86.33132,-104.67861 5.1099,-14.05998 6.8301,-36.56372 3.8906,-50.89827 -5.1134,-24.93604 -23.87254,-51.13524 -43.62326,-60.92479 -12.56772,-6.22927 -32.91606,-7.76585 -47.18595,-3.56321 -16.03758,4.72325 -29.20288,15.61226 -78.98317,65.32693 -26.45515,26.42025 -49.0729,48.03684 -50.26167,48.03684 -1.18877,0 -21.8119,-19.74359 -45.82921,-43.87466 -52.13568,-52.38269 -59.08356,-58.57644 -73.50716,-65.52884 -9.24769,-4.45752 -13.62465,-5.45146 -26.42914,-6.00161 -21.9396,-0.94266 -31.79771,3.04504 -47.88433,19.36971 -15.28728,15.51351 -22.17228,29.19743 -25.92019,51.51642 -2.49979,14.88637 -2.50125,17.44287 -0.0175,30.21514 3.50517,18.02458 10.10369,32.71661 21.93843,48.84733 8.10425,11.04611 61.10675,64.63439 179.68934,181.67528 l 18.679,18.43615 31.62163,-30.92346 c 17.3919,-17.00792 61.26296,-60.67157 97.49123,-97.03035 z"
     id="path825"
     inkscape:connector-curvature="0" />
</svg>
