<?xml version="1.0" encoding="utf-8"?>
<!-- Generator: Adobe Illustrator 16.0.0, SVG Export Plug-In . SVG Version: 6.00 Build 0)  -->
<!DOCTYPE svg PUBLIC "-//W3C//DTD SVG 1.1//EN" "http://www.w3.org/Graphics/SVG/1.1/DTD/svg11.dtd">
<svg version="1.1" id="Vrstva_1" xmlns="http://www.w3.org/2000/svg" xmlns:xlink="http://www.w3.org/1999/xlink" x="0px" y="0px"
	 width="24px" height="24px" viewBox="0 0 24 24" enable-background="new 0 0 24 24" xml:space="preserve">
<g>
	<path fill="#292D32" d="M11.5,21.754c-5.652,0-10.25-4.598-10.25-10.25S5.848,1.254,11.5,1.254c5.652,0,10.25,4.598,10.25,10.25
		S17.152,21.754,11.5,21.754z M11.5,2.754c-4.825,0-8.75,3.925-8.75,8.75c0,4.826,3.925,8.75,8.75,8.75
		c4.825,0,8.75-3.924,8.75-8.75C20.25,6.68,16.325,2.754,11.5,2.754z"/>
</g>
<path fill="none" stroke="#292D32" stroke-width="1.5" stroke-linecap="round" stroke-linejoin="round" d="M22,22l-2-2"/>
<rect x="6.023" y="6.028" fill="none" stroke="#292D32" stroke-width="1.2" stroke-linecap="round" stroke-linejoin="round" width="10.953" height="10.953"/>
<path fill="#292D32" d="M15.675,11.337c-0.023-0.05-0.054-0.098-0.094-0.138l-1.303-1.301c-0.168-0.169-0.443-0.169-0.61,0
	c-0.169,0.167-0.166,0.44,0,0.609l0.567,0.566h-0.178H8.974H8.796l0.568-0.566c0.167-0.169,0.168-0.442,0-0.61
	c-0.167-0.167-0.442-0.167-0.611,0L7.451,11.2c-0.039,0.039-0.07,0.088-0.094,0.139c-0.022,0.051-0.033,0.108-0.033,0.166
	s0.013,0.115,0.034,0.165c0.023,0.055,0.055,0.102,0.093,0.14l1.303,1.3c0.084,0.086,0.194,0.127,0.305,0.127
	c0.11,0,0.22-0.041,0.304-0.127c0.169-0.166,0.168-0.441,0-0.609l-0.566-0.566h5.261c0.002,0,0.002,0,0.002,0h0.176L13.67,12.5
	c-0.168,0.168-0.168,0.443,0,0.609c0.085,0.086,0.192,0.127,0.304,0.127s0.222-0.041,0.305-0.127l1.303-1.3
	c0.04-0.038,0.07-0.085,0.094-0.14c0.022-0.05,0.033-0.106,0.033-0.165C15.708,11.448,15.699,11.389,15.675,11.337z"/>
</svg>
