<?xml version="1.0" encoding="utf-8"?>
<!-- Generator: Adobe Illustrator 16.0.0, SVG Export Plug-In . SVG Version: 6.00 Build 0)  -->
<!DOCTYPE svg PUBLIC "-//W3C//DTD SVG 1.1//EN" "http://www.w3.org/Graphics/SVG/1.1/DTD/svg11.dtd">
<svg version="1.1" id="Vrstva_1" xmlns="http://www.w3.org/2000/svg" xmlns:xlink="http://www.w3.org/1999/xlink" x="0px" y="0px"
	 width="24px" height="24px" viewBox="0 0 24 24" enable-background="new 0 0 24 24" xml:space="preserve">
<g>
	<g>
		<path fill="#292D32" d="M22.077,17.182c0.128-0.621,0.193-1.346,0.203-2.216V9.03c-0.012-0.89-0.076-1.593-0.204-2.21
			c-0.253-1.393-0.759-2.461-1.55-3.271c-0.59-0.618-1.389-1.092-2.377-1.404c-0.905-0.281-2.021-0.425-3.311-0.425l-5.68,0.002
			c-5.146,0-7.439,2.293-7.439,7.438v5.688c0,5.139,2.295,7.43,7.439,7.43h5.681c1.291,0,2.403-0.145,3.312-0.424
			c0.98-0.306,1.762-0.762,2.379-1.396C21.315,19.65,21.821,18.58,22.077,17.182z M18.22,20.134
			c-0.643,0.284-1.443,0.446-2.451,0.496c-0.304,0.021-0.604,0.031-0.927,0.031H9.161c-4.354,0-5.821-1.466-5.821-5.812v-5.69
			c0-4.323,1.44-5.79,5.715-5.812l0.107-0.021h5.68c0.33,0,0.646,0.011,0.938,0.029c1.016,0.063,1.818,0.229,2.453,0.51
			c1.193,0.507,1.901,1.432,2.228,2.91c0.131,0.632,0.196,1.367,0.205,2.252v5.938c-0.009,0.89-0.074,1.624-0.205,2.255
			C20.135,18.702,19.423,19.628,18.22,20.134z"/>
	</g>
</g>
<g>
	<path fill="#292D32" d="M16.32,12.727c-0.234,0.012-0.43,0.006-0.618-0.062c-0.476-0.166-0.578-0.688-0.19-1.007
		c0.133-0.108,0.297-0.182,0.451-0.258c0.102-0.051,0.186-0.111,0.248-0.203c0.073-0.104,0.068-0.209-0.02-0.303
		c-0.047-0.049-0.102-0.097-0.162-0.127c-0.12-0.059-0.244-0.113-0.371-0.154c-0.149-0.049-0.279-0.125-0.396-0.225
		c-0.3-0.26-0.332-0.568-0.076-0.871c0.114-0.135,0.266-0.24,0.396-0.363c0.115-0.109,0.24-0.215,0.335-0.344
		c0.142-0.194,0.157-0.416,0.037-0.629c-0.14-0.25-0.362-0.388-0.64-0.438c-0.24-0.046-0.435,0.026-0.588,0.231
		c-0.104,0.139-0.231,0.264-0.369,0.366c-0.299,0.224-0.637,0.304-0.996,0.179c-0.703-0.244-1.113-1.127-0.762-1.783
		c0.049-0.092,0.065-0.215,0.061-0.319c-0.014-0.201-0.16-0.315-0.329-0.396c-0.3-0.14-0.617-0.203-0.948-0.167
		c-0.281,0.03-0.488,0.201-0.559,0.449c-0.045,0.156-0.016,0.305,0.045,0.454c0.068,0.168,0.137,0.341,0.172,0.517
		c0.059,0.291-0.107,0.506-0.4,0.545c-0.125,0.018-0.244-0.01-0.365-0.051c-0.149-0.055-0.302-0.109-0.459-0.141
		C9.289,7.521,8.934,7.775,8.861,8.309C8.839,8.467,8.839,8.629,8.83,8.79C8.82,8.96,8.799,9.128,8.717,9.279
		C8.63,9.443,8.49,9.512,8.308,9.479C8.07,9.436,7.884,9.297,7.696,9.158C7.609,9.096,7.518,9.032,7.419,8.99
		c-0.431-0.18-0.888-0.018-1.058,0.386c-0.17,0.401-0.136,0.804,0.063,1.187c0.104,0.201,0.209,0.24,0.431,0.195
		c0.254-0.052,0.505,0.083,0.604,0.324c0.095,0.23,0.025,0.389-0.211,0.473c-0.018,0.008-0.035,0.012-0.052,0.018
		c-0.187,0.068-0.373,0.135-0.559,0.203c-0.354,0.131-0.42,0.643-0.135,0.89c0.132,0.114,0.283,0.175,0.458,0.194
		c0.228,0.027,0.458,0.059,0.679,0.113c0.319,0.08,0.459,0.396,0.324,0.693c-0.086,0.191-0.217,0.346-0.401,0.447
		c-0.217,0.123-0.444,0.223-0.688,0.281c-0.156,0.037-0.251,0.139-0.266,0.289c-0.014,0.146-0.006,0.301,0.015,0.446
		c0.053,0.363,0.23,0.656,0.537,0.863c0.146,0.098,0.306,0.155,0.485,0.141c0.188-0.014,0.333-0.11,0.457-0.243
		c0.182-0.193,0.309-0.423,0.393-0.675c0.059-0.178,0.175-0.301,0.362-0.342c0.264-0.062,0.535,0.069,0.637,0.323
		c0.078,0.195,0.132,0.4,0.191,0.605c0.037,0.129,0.049,0.266,0.095,0.391c0.059,0.16,0.186,0.229,0.355,0.223
		c0.155-0.006,0.286-0.07,0.396-0.18c0.072-0.072,0.142-0.148,0.217-0.219c0.115-0.109,0.24-0.209,0.396-0.259
		c0.156-0.051,0.293-0.014,0.403,0.104c0.154,0.166,0.188,0.359,0.132,0.576c-0.082,0.314,0.012,0.574,0.291,0.744
		c0.311,0.191,0.654,0.273,1.016,0.242c0.265-0.023,0.455-0.166,0.527-0.426c0.039-0.146,0.055-0.303,0.049-0.453
		c-0.006-0.172-0.051-0.344-0.072-0.518c-0.028-0.213-0.035-0.428,0.039-0.635c0.06-0.16,0.17-0.271,0.344-0.293
		c0.086-0.011,0.175-0.013,0.26,0.002c0.221,0.037,0.387,0.164,0.52,0.338c0.07,0.096,0.158,0.16,0.275,0.188
		c0.256,0.055,0.439-0.115,0.397-0.371c-0.013-0.074-0.035-0.148-0.063-0.219c-0.033-0.088-0.08-0.172-0.119-0.26
		c-0.144-0.318,0.008-0.691,0.326-0.816c0.104-0.041,0.196-0.031,0.279,0.045c0.07,0.064,0.137,0.133,0.209,0.193
		c0.12,0.1,0.234,0.209,0.367,0.289c0.26,0.16,0.494,0.119,0.695-0.107c0.176-0.199,0.291-0.43,0.354-0.684
		c0.098-0.391-0.048-0.689-0.411-0.858C16.747,12.741,16.52,12.71,16.32,12.727z M10.189,17.535
		c-0.017-0.176-0.057-0.34-0.146-0.488c-0.107-0.18-0.249-0.225-0.438-0.131c-0.207,0.102-0.354,0.266-0.453,0.473
		c-0.159,0.332-0.027,0.627,0.324,0.736c0.041,0.014,0.083,0.02,0.125,0.025c0.222,0.029,0.421-0.08,0.503-0.287
		C10.148,17.76,10.163,17.645,10.189,17.535z M17.51,11.159c0.403,0.001,0.6-0.191,0.577-0.525c-0.021-0.294-0.246-0.504-0.51-0.47
		c-0.28,0.037-0.492,0.186-0.636,0.425c-0.103,0.169-0.069,0.306,0.096,0.417C17.191,11.111,17.367,11.154,17.51,11.159z
		 M8.573,7.156c0.322,0.002,0.442-0.133,0.396-0.42C8.937,6.54,8.851,6.365,8.709,6.223C8.497,6.006,8.227,6.018,8.007,6.25
		C7.802,6.465,7.811,6.751,8.03,6.943C8.193,7.087,8.388,7.152,8.573,7.156z M8.127,8.549c0.001-0.096-0.078-0.177-0.174-0.18
		C7.857,8.367,7.775,8.445,7.771,8.541c-0.003,0.1,0.08,0.186,0.178,0.186C8.043,8.727,8.126,8.645,8.127,8.549z M6.267,13.596
		c0.001-0.094-0.08-0.176-0.174-0.18c-0.095,0-0.178,0.078-0.182,0.174c-0.004,0.098,0.08,0.184,0.178,0.184
		C6.184,13.773,6.266,13.691,6.267,13.596z M13.882,7.575c0.001-0.099-0.073-0.179-0.171-0.181c-0.102-0.002-0.184,0.078-0.182,0.18
		c0,0.098,0.078,0.174,0.175,0.175C13.805,7.749,13.88,7.674,13.882,7.575z M14.326,16.34c0.099-0.002,0.175-0.076,0.175-0.176
		c0.001-0.098-0.073-0.176-0.173-0.178s-0.182,0.08-0.18,0.18C14.148,16.264,14.229,16.34,14.326,16.34z"/>
	<path fill="#292D32" d="M16.32,12.727c0.199-0.017,0.427,0.016,0.644,0.116c0.363,0.169,0.509,0.468,0.411,0.858
		c-0.063,0.254-0.18,0.484-0.354,0.684c-0.201,0.227-0.437,0.268-0.695,0.107c-0.133-0.08-0.247-0.189-0.367-0.289
		c-0.072-0.061-0.139-0.129-0.209-0.193c-0.083-0.076-0.175-0.086-0.279-0.045c-0.318,0.125-0.47,0.498-0.326,0.816
		c0.039,0.088,0.086,0.172,0.119,0.26c0.028,0.07,0.053,0.145,0.063,0.219c0.042,0.256-0.144,0.426-0.397,0.371
		c-0.117-0.027-0.205-0.092-0.275-0.188c-0.133-0.174-0.299-0.301-0.52-0.338c-0.085-0.015-0.174-0.013-0.26-0.002
		c-0.174,0.022-0.284,0.133-0.344,0.293c-0.074,0.207-0.067,0.422-0.039,0.635c0.021,0.174,0.066,0.346,0.072,0.518
		c0.006,0.15-0.01,0.307-0.049,0.453c-0.072,0.26-0.264,0.402-0.527,0.426c-0.361,0.031-0.706-0.051-1.016-0.242
		c-0.279-0.17-0.373-0.43-0.291-0.744c0.057-0.217,0.022-0.409-0.132-0.575c-0.11-0.119-0.247-0.156-0.403-0.104
		c-0.156,0.049-0.28,0.147-0.396,0.258c-0.076,0.069-0.145,0.146-0.217,0.219c-0.109,0.109-0.241,0.174-0.396,0.18
		c-0.17,0.008-0.296-0.063-0.354-0.223c-0.046-0.125-0.058-0.262-0.095-0.391c-0.059-0.203-0.113-0.408-0.191-0.604
		c-0.102-0.255-0.373-0.386-0.637-0.324c-0.188,0.041-0.304,0.164-0.362,0.342c-0.084,0.253-0.211,0.479-0.393,0.675
		c-0.124,0.133-0.269,0.229-0.457,0.244c-0.18,0.016-0.34-0.044-0.485-0.142c-0.307-0.207-0.484-0.5-0.537-0.863
		c-0.021-0.146-0.029-0.301-0.015-0.446c0.015-0.15,0.11-0.252,0.266-0.289c0.244-0.06,0.471-0.158,0.688-0.281
		c0.184-0.102,0.315-0.256,0.401-0.447c0.135-0.299-0.005-0.613-0.324-0.693c-0.222-0.056-0.451-0.086-0.679-0.113
		c-0.175-0.021-0.326-0.079-0.458-0.194c-0.285-0.247-0.218-0.759,0.135-0.89c0.186-0.068,0.372-0.135,0.559-0.202
		c0.017-0.007,0.035-0.011,0.052-0.019c0.236-0.084,0.306-0.242,0.211-0.473c-0.099-0.24-0.35-0.376-0.604-0.324
		c-0.221,0.045-0.326,0.006-0.431-0.195c-0.2-0.383-0.233-0.785-0.063-1.187c0.17-0.401,0.627-0.565,1.058-0.386
		c0.098,0.042,0.19,0.104,0.276,0.168c0.188,0.139,0.375,0.277,0.612,0.32C8.49,9.512,8.63,9.443,8.717,9.279
		C8.799,9.128,8.819,8.96,8.83,8.79c0.01-0.161,0.01-0.323,0.031-0.481c0.073-0.533,0.428-0.787,0.955-0.682
		c0.157,0.031,0.31,0.086,0.461,0.141c0.119,0.043,0.238,0.068,0.365,0.053c0.293-0.041,0.459-0.254,0.399-0.547
		c-0.036-0.176-0.104-0.348-0.172-0.516c-0.062-0.15-0.089-0.298-0.045-0.455c0.069-0.248,0.278-0.417,0.559-0.448
		c0.332-0.035,0.648,0.028,0.948,0.167c0.168,0.08,0.314,0.194,0.327,0.396c0.006,0.105-0.011,0.229-0.06,0.32
		c-0.353,0.656,0.058,1.539,0.76,1.781c0.361,0.125,0.699,0.045,0.996-0.178c0.139-0.104,0.267-0.229,0.369-0.367
		c0.154-0.205,0.348-0.277,0.59-0.23c0.275,0.051,0.498,0.188,0.639,0.438c0.119,0.215,0.104,0.436-0.037,0.629
		c-0.094,0.129-0.221,0.234-0.335,0.346C15.45,9.277,15.3,9.384,15.186,9.52c-0.256,0.303-0.224,0.61,0.076,0.869
		c0.117,0.102,0.247,0.178,0.396,0.227c0.127,0.041,0.251,0.096,0.371,0.154c0.062,0.029,0.115,0.076,0.162,0.125
		c0.088,0.094,0.093,0.198,0.02,0.305c-0.063,0.091-0.146,0.152-0.248,0.201c-0.154,0.076-0.318,0.149-0.451,0.259
		c-0.388,0.317-0.283,0.841,0.19,1.007C15.891,12.73,16.086,12.738,16.32,12.727z"/>
	<path fill="#292D32" d="M10.189,17.535c-0.026,0.109-0.041,0.225-0.082,0.328c-0.084,0.207-0.282,0.316-0.504,0.287
		c-0.042-0.006-0.084-0.012-0.125-0.025c-0.352-0.109-0.483-0.404-0.324-0.736c0.099-0.207,0.246-0.371,0.453-0.473
		c0.189-0.094,0.331-0.049,0.438,0.131C10.133,17.195,10.173,17.359,10.189,17.535z"/>
	<path fill="#292D32" d="M17.51,11.159c-0.143-0.005-0.316-0.048-0.473-0.153c-0.165-0.111-0.197-0.248-0.096-0.417
		c0.144-0.239,0.354-0.388,0.636-0.425c0.264-0.034,0.489,0.176,0.51,0.47C18.109,10.968,17.913,11.16,17.51,11.159z"/>
	<path fill="#292D32" d="M8.573,7.156C8.388,7.152,8.193,7.087,8.03,6.943C7.811,6.751,7.802,6.465,8.007,6.25
		c0.22-0.232,0.49-0.244,0.703-0.027C8.851,6.365,8.937,6.54,8.969,6.736C9.015,7.023,8.895,7.158,8.573,7.156z"/>
	<path fill="#292D32" d="M8.127,8.549C8.126,8.645,8.043,8.727,7.949,8.727c-0.099,0-0.182-0.086-0.178-0.186
		c0.003-0.096,0.086-0.174,0.181-0.172C8.049,8.372,8.128,8.453,8.127,8.549z"/>
	<path fill="#292D32" d="M6.267,13.596c-0.001,0.096-0.083,0.178-0.178,0.178c-0.098,0-0.182-0.086-0.178-0.184
		c0.003-0.096,0.086-0.174,0.182-0.174C6.188,13.42,6.268,13.502,6.267,13.596z"/>
	<path fill="#292D32" d="M13.882,7.575c-0.002,0.099-0.077,0.174-0.178,0.174c-0.097-0.001-0.175-0.077-0.175-0.175
		c-0.002-0.102,0.08-0.182,0.182-0.18C13.809,7.396,13.883,7.477,13.882,7.575z"/>
	<path fill="#292D32" d="M14.326,16.34c-0.1,0-0.178-0.076-0.178-0.174c-0.002-0.1,0.08-0.182,0.18-0.18s0.174,0.08,0.173,0.178
		C14.501,16.264,14.425,16.338,14.326,16.34z"/>
</g>
</svg>
