<?xml version="1.0" encoding="utf-8"?>
<!-- Generator: Adobe Illustrator 16.0.0, SVG Export Plug-In . SVG Version: 6.00 Build 0)  -->
<!DOCTYPE svg PUBLIC "-//W3C//DTD SVG 1.1//EN" "http://www.w3.org/Graphics/SVG/1.1/DTD/svg11.dtd">
<svg version="1.1" id="Vrstva_1" xmlns="http://www.w3.org/2000/svg" xmlns:xlink="http://www.w3.org/1999/xlink" x="0px" y="0px"
	 width="23.693px" height="23.693px" viewBox="0 0 23.693 23.693" enable-background="new 0 0 23.693 23.693" xml:space="preserve">
<g>
	<g>
		<path fill-rule="evenodd" clip-rule="evenodd" fill="#292D32" d="M13.38,18.655c-0.059-0.104-0.113-0.197-0.162-0.295
			c-0.049-0.094-0.094-0.193-0.15-0.314c2.381-1.055,4.846-1.551,7.473-1.291c-0.025,0.234-0.049,0.439-0.074,0.674
			c-1.223-0.115-2.428-0.063-3.627,0.16C15.644,17.807,14.491,18.167,13.38,18.655z"/>
		<path fill-rule="evenodd" clip-rule="evenodd" fill="#292D32" d="M13.365,6.439c-0.098-0.202-0.193-0.391-0.299-0.61
			c2.379-1.049,4.842-1.556,7.473-1.296c-0.025,0.234-0.049,0.452-0.072,0.681C17.98,4.965,15.642,5.462,13.365,6.439z"/>
		<path fill-rule="evenodd" clip-rule="evenodd" fill="#292D32" d="M20.54,6.982c-0.025,0.234-0.049,0.444-0.074,0.674
			c-2.48-0.245-4.826,0.247-7.096,1.227c-0.104-0.201-0.199-0.394-0.307-0.61C15.448,7.219,17.909,6.72,20.54,6.982z"/>
		<path fill-rule="evenodd" clip-rule="evenodd" fill="#292D32" d="M20.54,14.333c-0.027,0.221-0.051,0.422-0.076,0.654
			c-2.477-0.236-4.82,0.238-7.094,1.227c-0.078-0.154-0.168-0.303-0.223-0.467c-0.02-0.047,0.047-0.166,0.102-0.191
			c0.344-0.158,0.693-0.316,1.047-0.447c1.043-0.377,2.113-0.629,3.211-0.766c0.965-0.119,1.936-0.137,2.904-0.043
			C20.445,14.305,20.482,14.319,20.54,14.333z"/>
		<path fill-rule="evenodd" clip-rule="evenodd" fill="#292D32" d="M20.538,11.866c-0.021,0.214-0.043,0.388-0.055,0.562
			c-0.01,0.098-0.063,0.117-0.146,0.109c-0.217-0.018-0.438-0.033-0.654-0.045c-1.076-0.061-2.139,0.057-3.195,0.273
			c-1.07,0.223-2.105,0.553-3.115,1.01c-0.102-0.199-0.199-0.395-0.309-0.615C15.445,12.099,17.913,11.617,20.538,11.866z"/>
		<path fill-rule="evenodd" clip-rule="evenodd" fill="#292D32" d="M20.544,9.427c-0.031,0.234-0.061,0.441-0.092,0.672
			c-2.473-0.264-4.803,0.258-7.082,1.224c-0.098-0.189-0.197-0.386-0.307-0.605C15.441,9.657,17.909,9.173,20.544,9.427z"/>
	</g>
	<path fill-rule="evenodd" clip-rule="evenodd" fill="#292D32" d="M22.095,1.856c-1.793,0.011-3.576,0.119-5.346,0.417
		c-1.654,0.278-3.273,0.676-4.799,1.397c-0.059,0.029-0.152,0.023-0.214-0.002c-0.229-0.091-0.447-0.206-0.676-0.297
		C9.561,2.771,7.998,2.426,6.405,2.191C4.816,1.956,3.219,1.867,1.617,1.856c-0.35-0.003-0.456,0.103-0.456,0.455v4.46
		c0.001,2.629,0.004,5.255,0.006,7.883c0,1.59-0.004,3.18-0.004,4.771c-0.001,0.26,0.13,0.391,0.389,0.393
		c1.489,0.002,2.97,0.088,4.444,0.287c1.208,0.162,2.4,0.404,3.569,0.752c0.137,0.041,0.274,0.088,0.412,0.135l0.04,0.008
		c0.898,0.32,1.832,0.836,1.832,0.836c0.218-0.205,1.208-0.6,1.697-0.783c0.098-0.039,0.174-0.068,0.221-0.084
		c0.029-0.012,0.049-0.018,0.049-0.018c1.018-0.318,2.055-0.557,3.111-0.732c1.701-0.279,3.418-0.396,5.146-0.4
		c0.352,0,0.461-0.113,0.461-0.467V2.293C22.532,1.975,22.413,1.854,22.095,1.856z M1.853,19.13c0-5.527,0-11.044,0-16.584
		c0.081,0,0.156,0,0.233,0c1.458,0.01,2.908,0.122,4.349,0.343c1.626,0.249,3.221,0.625,4.743,1.271
		c0.244,0.104,0.337,0.218,0.336,0.498c-0.013,3.92-0.009,7.84-0.009,11.76c0,1.396,0,2.799,0,4.199c0,0.063,0,0.129,0,0.213
		C8.405,19.534,5.158,19.2,1.853,19.13z M21.841,19.128c-3.295,0.072-6.543,0.404-9.652,1.701c0-0.104,0-0.18,0-0.258
		c0-5.324,0.002-10.65-0.006-15.977c0-0.232,0.081-0.321,0.273-0.405c1.162-0.506,2.371-0.841,3.611-1.089
		c1.842-0.371,3.705-0.534,5.582-0.555c0.061,0,0.119,0,0.191,0C21.841,8.075,21.841,13.593,21.841,19.128z"/>
	<g>
		<title>info@1x</title>
		<g id="Layer_2">
			<g id="General">
				<g id="Info_2x.png">
					<path fill="#292D32" d="M7.755,15.067c-0.187,0.016-0.375-0.027-0.537-0.125c-0.118-0.119-0.175-0.289-0.153-0.457
						c0.004-0.141,0.021-0.279,0.049-0.416c0.028-0.158,0.064-0.314,0.109-0.467l0.491-1.69c0.05-0.168,0.084-0.339,0.099-0.513
						c0-0.188,0.025-0.317,0.025-0.392c0.01-0.335-0.133-0.655-0.387-0.873c-0.314-0.239-0.706-0.358-1.1-0.332
						c-0.283,0.003-0.563,0.05-0.833,0.139c-0.294,0.09-0.604,0.199-0.929,0.328l-0.142,0.549c0.095-0.034,0.212-0.071,0.345-0.112
						c0.126-0.037,0.259-0.057,0.392-0.058c0.186-0.021,0.374,0.024,0.528,0.128c0.107,0.127,0.157,0.291,0.139,0.453
						c-0.002,0.141-0.017,0.281-0.047,0.417c-0.029,0.146-0.066,0.3-0.112,0.462l-0.496,1.701c-0.04,0.156-0.072,0.318-0.096,0.479
						c-0.019,0.137-0.029,0.275-0.029,0.416c-0.001,0.336,0.152,0.654,0.417,0.863c0.319,0.244,0.716,0.367,1.117,0.342
						c0.283,0.004,0.564-0.035,0.833-0.121c0.238-0.08,0.552-0.195,0.946-0.346l0.133-0.527c-0.107,0.047-0.217,0.082-0.329,0.109
						C8.047,15.059,7.901,15.073,7.755,15.067z M7.443,6.733C7.135,6.725,6.837,6.837,6.61,7.044
						c-0.417,0.36-0.463,0.989-0.104,1.405C6.538,8.486,6.573,8.522,6.61,8.553c0.475,0.424,1.191,0.424,1.666,0
						c0.417-0.363,0.46-0.994,0.098-1.411C8.343,7.108,8.311,7.075,8.276,7.044C8.05,6.837,7.751,6.724,7.443,6.733z"/>
				</g>
			</g>
		</g>
	</g>
</g>
</svg>
