<?xml version="1.0" encoding="utf-8"?>
<!-- Generator: Adobe Illustrator 16.0.0, SVG Export Plug-In . SVG Version: 6.00 Build 0)  -->
<!DOCTYPE svg PUBLIC "-//W3C//DTD SVG 1.1//EN" "http://www.w3.org/Graphics/SVG/1.1/DTD/svg11.dtd">
<svg version="1.1" id="Vrstva_1" xmlns="http://www.w3.org/2000/svg" xmlns:xlink="http://www.w3.org/1999/xlink" x="0px" y="0px"
	 width="24px" height="24px" viewBox="0 0 24 24" enable-background="new 0 0 24 24" xml:space="preserve">
<g>
	<path fill-rule="evenodd" clip-rule="evenodd" fill="#292D32" d="M12.505,19.58c0.933,0,1.866,0,2.8,0
		c1.19,0,2.381-0.002,3.572,0.002c0.121,0,0.252,0.01,0.363,0.053c0.26,0.098,0.387,0.305,0.363,0.582
		c-0.021,0.264-0.17,0.443-0.428,0.508c-0.129,0.029-0.266,0.031-0.398,0.031c-2.391,0.002-4.782,0-7.174,0.002
		c-1.562,0.002-3.124,0.014-4.686,0.002c-0.178-0.002-0.398-0.098-0.527-0.225c-0.914-0.891-1.808-1.803-2.709-2.707
		c-1.335-1.338-1.335-3.063-0.001-4.396c3.065-3.066,6.13-6.131,9.196-9.197c1.336-1.335,3.059-1.333,4.398,0.004
		c1.018,1.017,2.035,2.034,3.051,3.052c1.322,1.325,1.324,3.061,0.006,4.381c-2.539,2.54-5.08,5.079-7.623,7.616
		c-0.078,0.078-0.182,0.131-0.274,0.197C12.458,19.516,12.481,19.549,12.505,19.58z M13.561,16.773
		c0.061-0.057,0.117-0.107,0.17-0.16c1.934-1.932,3.867-3.863,5.799-5.797c0.826-0.826,0.824-1.842-0.002-2.67
		c-1.029-1.032-2.061-2.063-3.091-3.092c-0.861-0.859-1.852-0.862-2.708-0.008C11.815,6.958,9.903,8.87,7.99,10.782
		c-0.073,0.072-0.142,0.148-0.204,0.214C9.715,12.926,11.626,14.838,13.561,16.773z M6.912,11.851
		c-0.839,0.84-1.676,1.674-2.505,2.514c-0.736,0.746-0.74,1.777-0.003,2.525c0.842,0.855,1.693,1.701,2.55,2.543
		c0.083,0.082,0.229,0.139,0.346,0.141c1.086,0.01,2.172,0.012,3.258-0.002c0.124,0,0.274-0.07,0.365-0.158
		c0.555-0.537,1.096-1.086,1.641-1.633c0.051-0.051,0.093-0.111,0.129-0.154C10.762,15.699,8.849,13.787,6.912,11.851z"/>
</g>
</svg>
