<?xml version="1.0" encoding="utf-8"?>
<!-- Generator: Adobe Illustrator 16.0.0, SVG Export Plug-In . SVG Version: 6.00 Build 0)  -->
<!DOCTYPE svg PUBLIC "-//W3C//DTD SVG 1.1//EN" "http://www.w3.org/Graphics/SVG/1.1/DTD/svg11.dtd">
<svg version="1.1" id="Vrstva_1" xmlns="http://www.w3.org/2000/svg" xmlns:xlink="http://www.w3.org/1999/xlink" x="0px" y="0px"
	 width="24px" height="24px" viewBox="0 0 24 24" enable-background="new 0 0 24 24" xml:space="preserve">
<g>
	<g>
		<path fill="#292D32" d="M3.744,1.454C3.188,1.447,2.631,1.448,2.079,1.455C1.748,1.458,1.486,1.703,1.481,2.013
			C1.473,2.6,1.473,3.186,1.48,3.772c0.005,0.299,0.256,0.546,0.57,0.562l0.032,0.001c0.289,0,0.535-0.207,0.588-0.493
			c0.015-0.083,0.016-0.17,0.016-0.255V2.664h0.581h0.001l0.466-0.001c0.348-0.004,0.607-0.25,0.615-0.586
			c0.003-0.17-0.055-0.326-0.165-0.441C4.074,1.521,3.917,1.456,3.744,1.454z"/>
		<path fill="#292D32" d="M3.724,14.641H2.686l0.001-0.283c0.001-0.259,0.001-0.521-0.003-0.782c-0.006-0.347-0.255-0.602-0.6-0.606
			c-0.336,0-0.602,0.256-0.604,0.584c-0.006,0.571-0.006,1.14,0,1.711c0.003,0.32,0.256,0.574,0.578,0.576
			c0.269,0.003,0.539,0.005,0.809,0.005c0.305,0,0.611-0.002,0.917-0.005c0.318-0.004,0.562-0.255,0.567-0.583
			c0.003-0.168-0.053-0.322-0.161-0.433C4.074,14.704,3.913,14.643,3.724,14.641z"/>
		<path fill="#292D32" d="M6.449,1.455c-0.284-0.01-0.569-0.011-0.854,0C5.25,1.469,5,1.74,5.015,2.084
			C5.027,2.409,5.28,2.652,5.615,2.661l0.169,0.002h0.243H6.26L6.42,2.662C6.766,2.654,7.025,2.41,7.039,2.081
			C7.045,1.922,6.99,1.769,6.88,1.651C6.771,1.532,6.617,1.461,6.449,1.455z"/>
		<path fill="#292D32" d="M2.684,8.25C2.669,7.896,2.415,7.641,2.07,7.641C1.729,7.646,1.479,7.909,1.476,8.269
			c-0.002,0.255-0.002,0.51,0,0.766c0.004,0.362,0.246,0.621,0.59,0.628h0.014c0.344,0,0.594-0.255,0.606-0.619
			c0.003-0.088,0.002-0.178,0.001-0.266L2.686,8.663l0.001-0.124C2.688,8.442,2.688,8.347,2.684,8.25z"/>
		<path fill="#292D32" d="M1.477,6.416c0.011,0.336,0.255,0.588,0.581,0.599H2.08c0.322,0,0.579-0.236,0.596-0.55
			c0.016-0.306,0.016-0.615,0-0.921C2.672,5.468,2.652,5.395,2.621,5.328C2.53,5.14,2.333,5.013,2.091,5.001
			C2.078,5,2.065,4.994,2.052,4.994c0,0-0.001,0-0.002,0C1.732,5.012,1.491,5.258,1.477,5.581C1.473,5.677,1.474,5.772,1.475,5.87
			l0,0.121l0,0.126C1.474,6.218,1.473,6.317,1.477,6.416z"/>
		<path fill="#292D32" d="M2.047,12.308h0.035c0.328,0,0.585-0.249,0.599-0.578c0.013-0.289,0.013-0.582,0-0.872
			c-0.015-0.326-0.272-0.571-0.618-0.571c-0.329,0.01-0.574,0.261-0.586,0.595c-0.003,0.097-0.002,0.193-0.001,0.291l0,0.119
			l0,0.119c0,0.097-0.001,0.194,0.001,0.291C1.485,12.036,1.725,12.291,2.047,12.308z"/>
		<path fill="#292D32" d="M6.457,14.645c-0.289-0.01-0.576-0.01-0.865,0c-0.336,0.008-0.584,0.27-0.577,0.607
			c0.003,0.324,0.245,0.574,0.572,0.59c0.053,0.002,0.107,0.003,0.162,0.003l0.717-0.002c0.325-0.021,0.564-0.269,0.572-0.587
			c0.004-0.162-0.054-0.314-0.165-0.429C6.764,14.711,6.616,14.647,6.457,14.645z"/>
		<path fill="#292D32" d="M13.653,2.669l0.466,0.001h0.583v0.923c0,0.085,0.002,0.172,0.016,0.255
			c0.053,0.286,0.3,0.493,0.587,0.493l0.032-0.001c0.314-0.017,0.566-0.263,0.57-0.561c0.007-0.588,0.009-1.174-0.001-1.761
			c-0.003-0.309-0.266-0.555-0.597-0.558c-0.553-0.007-1.11-0.008-1.665-0.001c-0.174,0.002-0.33,0.067-0.442,0.182
			c-0.109,0.115-0.168,0.271-0.164,0.441C13.046,2.42,13.306,2.665,13.653,2.669z"/>
		<path fill="#292D32" d="M15.305,12.975c-0.345,0.005-0.593,0.259-0.6,0.607c-0.005,0.259-0.005,0.521-0.003,0.781v0.283h-1.039
			c-0.188,0.001-0.349,0.063-0.464,0.185c-0.108,0.109-0.165,0.264-0.161,0.433c0.005,0.327,0.249,0.579,0.566,0.581
			c0.306,0.004,0.612,0.005,0.918,0.005c0.269,0,0.539-0.001,0.808-0.002c0.323-0.004,0.574-0.258,0.577-0.578
			c0.007-0.571,0.007-1.141,0-1.711C15.906,13.23,15.641,12.975,15.305,12.975z"/>
		<path fill="#292D32" d="M9.175,1.465c-0.01,0-0.02,0.001-0.029,0C9.137,1.464,9.13,1.46,9.122,1.459
			c-0.302-0.015-0.606-0.016-0.908,0C8.056,1.468,7.912,1.535,7.809,1.65C7.701,1.771,7.648,1.929,7.658,2.099
			C7.678,2.415,7.927,2.65,8.25,2.662c0.011,0,0.023,0,0.034,0c0.011,0.001,0.02,0.006,0.03,0.007L8.488,2.67h0.238h0.237
			c0.059,0,0.117,0,0.176-0.002C9.462,2.656,9.71,2.421,9.73,2.104c0.01-0.17-0.044-0.327-0.152-0.447
			C9.476,1.541,9.333,1.474,9.175,1.465z"/>
		<path fill="#292D32" d="M11.794,1.461c-0.286-0.011-0.571-0.009-0.856,0c-0.167,0.007-0.321,0.077-0.431,0.196
			c-0.109,0.117-0.165,0.271-0.158,0.43c0.013,0.329,0.273,0.573,0.618,0.581l0.161,0.002l0.232-0.001l0.243,0.001l0.168-0.003
			c0.336-0.009,0.589-0.252,0.602-0.577C12.388,1.746,12.139,1.476,11.794,1.461z"/>
		<path fill="#292D32" d="M15.317,7.646c-0.345,0-0.598,0.256-0.613,0.609C14.7,8.353,14.7,8.448,14.702,8.545v0.124v0.114
			C14.7,8.871,14.7,8.961,14.704,9.049c0.011,0.364,0.261,0.619,0.604,0.619h0.015c0.343-0.007,0.585-0.266,0.59-0.629
			c0.002-0.256,0.002-0.51,0-0.765C15.907,7.915,15.658,7.653,15.317,7.646z"/>
		<path fill="#292D32" d="M15.911,5.587C15.896,5.264,15.656,5.018,15.338,5c-0.001,0-0.001,0-0.001,0
			c-0.015,0-0.025,0.006-0.04,0.007c-0.242,0.012-0.439,0.139-0.529,0.327c-0.032,0.066-0.052,0.14-0.056,0.216
			c-0.016,0.306-0.016,0.616,0,0.921c0.017,0.314,0.273,0.55,0.596,0.55h0.022c0.326-0.011,0.571-0.262,0.581-0.599
			c0.003-0.099,0.003-0.199,0.001-0.299V5.997V5.876C15.914,5.778,15.916,5.683,15.911,5.587z"/>
		<path fill="#292D32" d="M15.325,10.291c-0.345,0-0.603,0.247-0.617,0.573c-0.012,0.289-0.012,0.582,0,0.871
			c0.013,0.329,0.271,0.579,0.599,0.579l0.035-0.002c0.321-0.016,0.562-0.271,0.569-0.605c0.003-0.098,0.001-0.194,0.001-0.291
			v-0.118v-0.121c0.002-0.097,0.002-0.193-0.001-0.289C15.899,10.552,15.654,10.301,15.325,10.291z"/>
		<path fill="#292D32" d="M9.141,14.647c-0.007,0-0.014,0-0.021,0c-0.009,0-0.016-0.005-0.025-0.005
			c-0.281-0.007-0.564-0.007-0.848,0c-0.333,0.008-0.586,0.264-0.589,0.595c-0.001,0.33,0.248,0.59,0.58,0.603
			c0.01,0,0.02,0,0.029,0c0.01,0.002,0.019,0.007,0.028,0.008c0.056,0.001,0.112,0.002,0.168,0.002h0.007c0.002,0,0.003,0,0.005,0
			l0.246-0.001l0.26,0.001c0.057,0,0.114-0.001,0.168-0.005c0.332-0.012,0.582-0.273,0.58-0.603
			C9.728,14.912,9.475,14.655,9.141,14.647z"/>
		<path fill="#292D32" d="M11.796,14.649c-0.29-0.01-0.577-0.01-0.865,0c-0.158,0.003-0.306,0.066-0.416,0.183
			c-0.11,0.115-0.168,0.268-0.166,0.43c0.008,0.318,0.249,0.564,0.572,0.587l0.718,0.001c0.055,0,0.109,0,0.162-0.002
			c0.328-0.017,0.57-0.266,0.573-0.591C12.38,14.92,12.132,14.659,11.796,14.649z"/>
	</g>
	<g>
		<path fill="#292D32" d="M10.356,8.156C9.801,8.149,9.243,8.15,8.691,8.158C8.36,8.161,8.098,8.406,8.094,8.716
			c-0.009,0.586-0.008,1.173-0.001,1.76c0.005,0.299,0.256,0.545,0.57,0.561l0.032,0.001c0.289,0,0.535-0.207,0.588-0.493
			c0.015-0.082,0.016-0.169,0.016-0.255V9.367H9.88h0.001l0.466-0.002c0.348-0.003,0.608-0.249,0.616-0.586
			c0.003-0.169-0.056-0.326-0.166-0.441C10.686,8.224,10.529,8.158,10.356,8.156z"/>
		<path fill="#292D32" d="M10.336,21.344H9.298l0.001-0.283c0.001-0.26,0.001-0.521-0.003-0.783c-0.006-0.346-0.255-0.602-0.6-0.605
			c-0.336,0-0.602,0.256-0.604,0.584c-0.006,0.57-0.006,1.139,0,1.711c0.003,0.32,0.256,0.574,0.578,0.576
			c0.269,0.002,0.539,0.004,0.809,0.004c0.305,0,0.611-0.002,0.917-0.004c0.318-0.004,0.562-0.256,0.567-0.584
			c0.003-0.168-0.054-0.322-0.161-0.432C10.686,21.406,10.525,21.346,10.336,21.344z"/>
		<path fill="#292D32" d="M13.061,8.158c-0.283-0.01-0.568-0.011-0.854,0c-0.344,0.014-0.594,0.284-0.58,0.629
			c0.012,0.325,0.266,0.567,0.601,0.576l0.169,0.003l0.243-0.001l0.232,0.001l0.161-0.002c0.346-0.007,0.604-0.252,0.617-0.58
			c0.007-0.16-0.049-0.313-0.158-0.431C13.383,8.234,13.229,8.164,13.061,8.158z"/>
		<path fill="#292D32" d="M9.296,14.953c-0.015-0.354-0.269-0.609-0.614-0.609c-0.341,0.006-0.591,0.27-0.595,0.627
			c-0.002,0.256-0.002,0.51,0,0.768c0.004,0.361,0.246,0.621,0.59,0.627h0.014c0.344,0,0.594-0.254,0.606-0.619
			C9.3,15.658,9.3,15.568,9.299,15.48l-0.001-0.115l0.001-0.123C9.3,15.145,9.3,15.049,9.296,14.953z"/>
		<path fill="#292D32" d="M8.089,13.119c0.011,0.336,0.255,0.588,0.581,0.6h0.023c0.322,0,0.579-0.236,0.596-0.551
			c0.016-0.305,0.016-0.616,0-0.921c-0.003-0.077-0.023-0.15-0.055-0.217c-0.091-0.188-0.288-0.315-0.529-0.327
			c-0.014-0.001-0.026-0.007-0.04-0.007c0,0-0.001,0-0.002,0c-0.318,0.018-0.559,0.264-0.573,0.587
			c-0.004,0.096-0.002,0.192-0.001,0.289l0,0.121l0,0.127C8.086,12.92,8.085,13.021,8.089,13.119z"/>
		<path fill="#292D32" d="M8.659,19.01l0.035,0.002c0.328,0,0.585-0.25,0.599-0.578c0.013-0.291,0.013-0.582,0-0.873
			c-0.015-0.326-0.272-0.572-0.618-0.572c-0.329,0.01-0.574,0.262-0.586,0.596c-0.003,0.096-0.002,0.193-0.001,0.291l0,0.119
			l0,0.119c0,0.098-0.001,0.193,0.001,0.291C8.097,18.738,8.337,18.994,8.659,19.01z"/>
		<path fill="#292D32" d="M13.069,21.348c-0.288-0.01-0.576-0.01-0.865,0c-0.336,0.008-0.585,0.27-0.577,0.607
			c0.003,0.324,0.244,0.574,0.572,0.59c0.053,0.002,0.107,0.002,0.162,0.002l0.717-0.002c0.325-0.021,0.564-0.268,0.572-0.586
			c0.004-0.162-0.054-0.314-0.164-0.43C13.377,21.414,13.229,21.35,13.069,21.348z"/>
		<path fill="#292D32" d="M20.266,9.371l0.466,0.002h0.583v0.923c0,0.084,0.002,0.172,0.016,0.254
			c0.053,0.286,0.3,0.493,0.587,0.493l0.032-0.001c0.314-0.017,0.566-0.262,0.57-0.561c0.007-0.587,0.009-1.174-0.001-1.76
			c-0.003-0.31-0.266-0.555-0.597-0.558c-0.553-0.008-1.11-0.009-1.665-0.001c-0.174,0.001-0.33,0.066-0.442,0.182
			c-0.109,0.115-0.168,0.271-0.164,0.441C19.658,9.122,19.918,9.368,20.266,9.371z"/>
		<path fill="#292D32" d="M21.917,19.678c-0.345,0.004-0.593,0.258-0.6,0.607c-0.005,0.258-0.005,0.521-0.003,0.781v0.283h-1.039
			c-0.188,0-0.349,0.063-0.464,0.184c-0.108,0.109-0.165,0.264-0.161,0.434c0.005,0.326,0.249,0.578,0.566,0.58
			c0.306,0.004,0.612,0.006,0.918,0.006c0.269,0,0.539-0.002,0.808-0.002c0.323-0.004,0.574-0.258,0.577-0.578
			c0.007-0.572,0.007-1.141,0-1.711C22.519,19.934,22.253,19.678,21.917,19.678z"/>
		<path fill="#292D32" d="M15.787,8.168c-0.01,0-0.02,0-0.029,0c-0.008-0.001-0.016-0.006-0.023-0.007
			c-0.303-0.014-0.607-0.016-0.908,0c-0.158,0.01-0.302,0.076-0.404,0.192c-0.108,0.12-0.161,0.278-0.151,0.448
			c0.02,0.315,0.269,0.551,0.592,0.563c0.011,0.001,0.022,0,0.034,0.001c0.011,0,0.02,0.006,0.03,0.006L15.1,9.373l0.238-0.001
			l0.236,0.001c0.059,0,0.117,0,0.176-0.003c0.324-0.011,0.572-0.247,0.593-0.563c0.01-0.169-0.044-0.327-0.151-0.447
			C16.088,8.243,15.945,8.177,15.787,8.168z"/>
		<path fill="#292D32" d="M18.406,8.164c-0.285-0.011-0.57-0.01-0.855,0C17.384,8.17,17.23,8.24,17.119,8.36
			c-0.108,0.116-0.164,0.271-0.158,0.43c0.014,0.328,0.273,0.573,0.619,0.58l0.16,0.002l0.232-0.001l0.243,0.001l0.169-0.002
			c0.336-0.01,0.588-0.252,0.602-0.577C19,8.448,18.751,8.178,18.406,8.164z"/>
		<path fill="#292D32" d="M21.93,14.35c-0.345,0-0.598,0.256-0.613,0.609c-0.004,0.096-0.004,0.191-0.002,0.289v0.123v0.115
			c-0.002,0.088-0.002,0.178,0.002,0.266c0.011,0.365,0.261,0.619,0.604,0.619h0.015c0.343-0.008,0.585-0.266,0.59-0.629
			c0.002-0.256,0.002-0.51,0-0.766C22.52,14.617,22.271,14.355,21.93,14.35z"/>
		<path fill="#292D32" d="M22.523,12.289c-0.015-0.323-0.255-0.569-0.573-0.587c-0.001,0-0.001,0-0.001,0
			c-0.015,0-0.025,0.006-0.04,0.007c-0.242,0.012-0.439,0.14-0.529,0.327c-0.032,0.066-0.052,0.14-0.056,0.217
			c-0.016,0.305-0.016,0.616,0,0.921c0.017,0.314,0.273,0.551,0.596,0.551h0.022c0.326-0.012,0.571-0.264,0.581-0.6
			c0.003-0.1,0.003-0.199,0.001-0.299v-0.125v-0.123C22.526,12.481,22.528,12.385,22.523,12.289z"/>
		<path fill="#292D32" d="M21.938,16.994c-0.345,0-0.603,0.246-0.617,0.572c-0.012,0.291-0.012,0.582,0,0.871
			c0.013,0.33,0.271,0.58,0.599,0.58l0.035-0.002c0.321-0.016,0.562-0.27,0.569-0.605c0.003-0.098,0.001-0.195,0.001-0.291v-0.117
			v-0.121c0.002-0.098,0.002-0.195-0.001-0.289C22.512,17.256,22.267,17.004,21.938,16.994z"/>
		<path fill="#292D32" d="M15.754,21.35c-0.008,0-0.015,0-0.021,0c-0.008,0-0.016-0.004-0.025-0.004
			c-0.281-0.008-0.563-0.008-0.848,0c-0.333,0.008-0.586,0.264-0.59,0.594c-0.001,0.33,0.248,0.59,0.58,0.604c0.01,0,0.02,0,0.029,0
			c0.01,0.002,0.019,0.006,0.028,0.008c0.056,0,0.112,0.002,0.169,0.002h0.007c0.002,0,0.003,0,0.005,0l0.246-0.002l0.26,0.002
			c0.057,0,0.115-0.002,0.169-0.006c0.332-0.012,0.582-0.273,0.58-0.602C16.34,21.615,16.087,21.357,15.754,21.35z"/>
		<path fill="#292D32" d="M18.408,21.352c-0.289-0.01-0.577-0.01-0.865,0c-0.158,0.004-0.307,0.066-0.416,0.184
			c-0.11,0.115-0.168,0.268-0.166,0.43c0.008,0.318,0.249,0.564,0.572,0.586l0.719,0.002c0.055,0,0.109,0,0.161-0.002
			c0.328-0.018,0.569-0.266,0.573-0.592C18.992,21.623,18.744,21.361,18.408,21.352z"/>
	</g>
</g>
</svg>
