<?xml version="1.0" encoding="utf-8"?>
<!-- Generator: Adobe Illustrator 16.0.0, SVG Export Plug-In . SVG Version: 6.00 Build 0)  -->
<!DOCTYPE svg PUBLIC "-//W3C//DTD SVG 1.1//EN" "http://www.w3.org/Graphics/SVG/1.1/DTD/svg11.dtd">
<svg version="1.1" id="Vrstva_1" xmlns="http://www.w3.org/2000/svg" xmlns:xlink="http://www.w3.org/1999/xlink" x="0px" y="0px"
	 width="24px" height="24px" viewBox="0 0 24 24" enable-background="new 0 0 24 24" xml:space="preserve">
<g>
	<path fill="none" stroke="#292D32" stroke-width="1.5" stroke-linecap="round" stroke-linejoin="round" d="M8.083,20.573h4.25
		c3.542,0,4.959-1.416,4.959-4.958v-4.25c0-3.542-1.418-4.959-4.959-4.959h-4.25c-3.541,0-4.958,1.417-4.958,4.959v4.25
		C3.125,19.157,4.542,20.573,8.083,20.573z"/>
	<path fill="#FFFFFF" stroke="#292D32" stroke-width="1.5" stroke-linecap="round" stroke-linejoin="round" d="M11.668,17.595h4.251
		c3.541,0,4.957-1.418,4.957-4.957V8.386c0-3.541-1.416-4.959-4.957-4.959h-4.251c-3.542,0-4.959,1.418-4.959,4.959v4.252
		C6.709,16.177,8.126,17.595,11.668,17.595z"/>
</g>
</svg>
