<?xml version="1.0" encoding="utf-8"?>
<!-- Generator: Adobe Illustrator 16.0.0, SVG Export Plug-In . SVG Version: 6.00 Build 0)  -->
<!DOCTYPE svg PUBLIC "-//W3C//DTD SVG 1.1//EN" "http://www.w3.org/Graphics/SVG/1.1/DTD/svg11.dtd">
<svg version="1.1" id="Vrstva_1" xmlns="http://www.w3.org/2000/svg" xmlns:xlink="http://www.w3.org/1999/xlink" x="0px" y="0px"
	 width="24px" height="24px" viewBox="0 0 24 24" enable-background="new 0 0 24 24" xml:space="preserve">
<g>
	<path fill="#292D32" d="M22.075,17.182c0.128-0.621,0.194-1.346,0.204-2.216V9.031c-0.012-0.89-0.077-1.593-0.205-2.21
		c-0.252-1.393-0.758-2.461-1.549-3.271c-0.59-0.619-1.389-1.092-2.377-1.405c-0.906-0.281-2.02-0.425-3.31-0.425l-5.68,0.002
		c-5.145,0-7.439,2.293-7.439,7.438v5.689c0,5.14,2.295,7.431,7.439,7.431h5.681c1.291,0,2.403-0.145,3.311-0.425
		c0.981-0.305,1.761-0.762,2.379-1.397C21.314,19.65,21.82,18.58,22.075,17.182z M18.218,20.134
		c-0.643,0.284-1.444,0.446-2.452,0.496c-0.303,0.021-0.605,0.031-0.926,0.031H9.159c-4.353,0-5.821-1.466-5.821-5.812v-5.69
		c0-4.323,1.441-5.79,5.714-5.811l0.108-0.02h5.68c0.33,0,0.645,0.011,0.938,0.03c1.015,0.062,1.818,0.228,2.453,0.509
		c1.194,0.507,1.902,1.432,2.227,2.911c0.131,0.631,0.197,1.367,0.205,2.252v5.937c-0.008,0.889-0.074,1.624-0.205,2.254
		C20.133,18.702,19.421,19.628,18.218,20.134z"/>
</g>
</svg>
