<?xml version="1.0" encoding="utf-8"?>
<!-- Generator: Adobe Illustrator 16.0.0, SVG Export Plug-In . SVG Version: 6.00 Build 0)  -->
<!DOCTYPE svg PUBLIC "-//W3C//DTD SVG 1.1//EN" "http://www.w3.org/Graphics/SVG/1.1/DTD/svg11.dtd">
<svg version="1.1" id="Vrstva_1" xmlns="http://www.w3.org/2000/svg" xmlns:xlink="http://www.w3.org/1999/xlink" x="0px" y="0px"
	 width="24px" height="24px" viewBox="0 0 24 24" enable-background="new 0 0 24 24" xml:space="preserve">
<path fill="#292D32" d="M22.074,6.821c-0.252-1.393-0.758-2.461-1.549-3.271c-0.59-0.619-1.389-1.092-2.377-1.405
	c-0.906-0.281-2.021-0.425-3.311-0.425l-5.68,0.002c-5.145,0-7.439,2.293-7.439,7.438v5.689c0,5.14,2.295,7.431,7.439,7.431h5.681
	c1.291,0,2.403-0.146,3.312-0.425c0.98-0.306,1.761-0.763,2.379-1.397c0.785-0.808,1.291-1.878,1.546-3.276
	c0.128-0.621,0.194-1.346,0.204-2.216V9.031C22.268,8.141,22.202,7.438,22.074,6.821z M3.338,14.85v-5.69
	c0-4.323,1.441-5.79,5.714-5.811l0.108-0.02H12v17.333H9.159C4.806,20.661,3.338,19.195,3.338,14.85z"/>
</svg>
