<?xml version="1.0" encoding="utf-8"?>
<!-- Generator: Adobe Illustrator 16.0.0, SVG Export Plug-In . SVG Version: 6.00 Build 0)  -->
<!DOCTYPE svg PUBLIC "-//W3C//DTD SVG 1.1//EN" "http://www.w3.org/Graphics/SVG/1.1/DTD/svg11.dtd">
<svg version="1.1" id="Vrstva_1" xmlns="http://www.w3.org/2000/svg" xmlns:xlink="http://www.w3.org/1999/xlink" x="0px" y="0px"
	 width="24px" height="24px" viewBox="0 0 24 24" enable-background="new 0 0 24 24" xml:space="preserve">
<g>
	<g>
		<path fill="#292D32" d="M0.552,11.813c0.009-0.042,0.034-0.067,0.06-0.102l0.008-0.008c0-0.009,0.009-0.009,0.009-0.018
			c0.009-0.009,0.009-0.017,0.025-0.033l1.545-1.545C2.282,10.023,2.4,9.974,2.526,9.974c0.136,0,0.254,0.05,0.338,0.134
			c0.094,0.093,0.144,0.211,0.144,0.338s-0.05,0.245-0.144,0.338l-0.726,0.733h6.845v0.954H2.139l0.726,0.727
			c0.187,0.186,0.187,0.488,0,0.675c-0.084,0.093-0.202,0.145-0.338,0.145c-0.126,0-0.244-0.052-0.328-0.145l-1.545-1.545
			c-0.009-0.008-0.017-0.017-0.017-0.017c-0.042-0.051-0.067-0.093-0.094-0.136C0.502,12.057,0.502,11.922,0.552,11.813z"/>
		<path fill="#292D32" d="M15.013,12.477v-0.953h6.846l-0.727-0.726c-0.186-0.187-0.186-0.49,0-0.677
			c0.086-0.092,0.211-0.143,0.338-0.143c0.119,0,0.244,0.051,0.338,0.143l1.535,1.545c0.018,0.009,0.018,0.017,0.025,0.025
			c0,0.009,0,0.009,0,0.009c0.033,0.043,0.059,0.076,0.084,0.118c0.018,0.051,0.025,0.109,0.035,0.168v0.019
			c0,0.059-0.018,0.116-0.043,0.177c-0.008,0.033-0.025,0.059-0.043,0.076l-0.018,0.024c0,0-0.008,0.009-0.008,0.018
			c-0.008,0.009-0.018,0.025-0.035,0.042l-1.535,1.544c-0.092,0.084-0.211,0.135-0.336,0.135c-0.135,0-0.254-0.051-0.338-0.135
			c-0.186-0.185-0.186-0.49,0-0.675l0.725-0.734H15.013z"/>
	</g>
	<path fill="#292D32" d="M20.681,10.877V9.492c-0.01-0.75-0.068-1.342-0.17-1.865c-0.219-1.173-0.641-2.076-1.307-2.76
		c-0.5-0.522-1.174-0.92-2.01-1.182c-0.703-0.225-1.555-0.337-2.529-0.355V3.323h-0.264h-1.309h-0.295h-1.59h-0.294h-0.572H9.606
		c-4.348,0-6.28,1.94-6.28,6.279v1.274h1.367V9.603c0-3.646,1.216-4.887,4.82-4.903l0.093-0.018h0.735v0.003h0.866V19.31h-0.294
		H9.716H9.606c-3.672,0-4.913-1.232-4.913-4.904v-1.351H3.326v1.351c0,4.339,1.933,6.271,6.28,6.271h0.109h1.198h0.294h1.59h1.604
		c1.088,0,2.025-0.127,2.793-0.354c0.826-0.263,1.484-0.651,2.01-1.184c0.666-0.683,1.088-1.586,1.307-2.769
		c0.102-0.523,0.16-1.13,0.17-1.865v-1.451h-1.367v1.451c0,0.752-0.061,1.367-0.17,1.899c-0.279,1.249-0.877,2.034-1.891,2.457
		c-0.539,0.244-1.223,0.38-2.068,0.422c-0.262,0.017-0.514,0.025-0.783,0.025h-1.604V4.685h1.693
		c0.244,0.002,0.486,0.008,0.703,0.022c0.852,0.051,1.535,0.194,2.066,0.431c1.014,0.422,1.604,1.207,1.883,2.456
		c0.109,0.532,0.17,1.156,0.17,1.898v1.385H20.681z"/>
</g>
</svg>
