<?xml version="1.0" encoding="utf-8"?>
<!-- Generator: Adobe Illustrator 16.0.0, SVG Export Plug-In . SVG Version: 6.00 Build 0)  -->
<!DOCTYPE svg PUBLIC "-//W3C//DTD SVG 1.1//EN" "http://www.w3.org/Graphics/SVG/1.1/DTD/svg11.dtd">
<svg version="1.1" id="Vrstva_1" xmlns="http://www.w3.org/2000/svg" xmlns:xlink="http://www.w3.org/1999/xlink" x="0px" y="0px"
	 width="24px" height="24px" viewBox="0 0 24 24" enable-background="new 0 0 24 24" xml:space="preserve">
<g>
	<g>
		<path fill="#FFFFFF" d="M21.878,10.517v2.966c0,2.471-0.988,3.459-3.459,3.459h-2.966c-2.471,0-3.459-0.988-3.459-3.459v-2.966
			c0-2.47,0.988-3.458,3.459-3.458h2.966C20.89,7.059,21.878,8.047,21.878,10.517z"/>
		<path fill="#292D32" d="M18.419,17.47h-2.966c-2.758,0-3.989-1.229-3.989-3.987v-2.966c0-2.758,1.231-3.987,3.989-3.987h2.966
			c2.759,0,3.987,1.229,3.987,3.987v2.966C22.406,16.24,21.178,17.47,18.419,17.47z M15.453,7.588c-2.19,0-2.93,0.738-2.93,2.929
			v2.966c0,2.189,0.737,2.932,2.93,2.932l2.966-0.001c2.19,0,2.929-0.739,2.929-2.931v-2.966c0-2.188-0.738-2.93-2.929-2.93
			L15.453,7.588z"/>
	</g>
	<g>
		<g>
			<path fill="#292D32" d="M19.584,10.352l-5.295,0.001c-0.293,0-0.529-0.235-0.529-0.528c0-0.291,0.236-0.528,0.529-0.528h5.295
				c0.292,0,0.527,0.237,0.527,0.528C20.111,10.117,19.876,10.352,19.584,10.352z"/>
		</g>
		<g>
			<path fill="#292D32" d="M19.584,12.529h-5.295c-0.293,0-0.529-0.236-0.529-0.528s0.236-0.53,0.529-0.53h5.295
				c0.292,0,0.527,0.238,0.527,0.53S19.876,12.529,19.584,12.529z"/>
		</g>
		<g>
			<path fill="#292D32" d="M19.584,14.705h-5.295c-0.293,0-0.529-0.236-0.529-0.529c0-0.292,0.236-0.529,0.529-0.529h5.295
				c0.292,0,0.527,0.237,0.527,0.529S19.876,14.705,19.584,14.705z"/>
		</g>
	</g>
	<g>
		<path fill="#FFFFFF" d="M12.008,10.518v2.966c0,2.471-0.988,3.459-3.459,3.459H5.583c-2.471,0-3.459-0.988-3.459-3.459v-2.966
			c0-2.47,0.988-3.458,3.459-3.458h2.966C11.02,7.06,12.008,8.048,12.008,10.518z"/>
		<path fill="#292D32" d="M8.549,17.471H5.583c-2.758,0-3.989-1.229-3.989-3.987v-2.966c0-2.758,1.231-3.987,3.989-3.987h2.966
			c2.759,0,3.986,1.229,3.986,3.987v2.966C12.535,16.241,11.308,17.471,8.549,17.471z M5.583,7.589c-2.19,0-2.93,0.738-2.93,2.929
			v2.966c0,2.189,0.737,2.932,2.93,2.932l2.966-0.001c2.19,0,2.929-0.739,2.929-2.931v-2.966c0-2.188-0.738-2.93-2.929-2.93
			L5.583,7.589z"/>
	</g>
	<g>
		<g>
			<path fill="#292D32" d="M9.714,10.353l-5.295,0.001c-0.293,0-0.529-0.235-0.529-0.528c0-0.291,0.236-0.528,0.529-0.528h5.295
				c0.292,0,0.527,0.237,0.527,0.528C10.241,10.118,10.006,10.353,9.714,10.353z"/>
		</g>
		<g>
			<path fill="#292D32" d="M9.714,12.53H4.419c-0.293,0-0.529-0.236-0.529-0.528s0.236-0.53,0.529-0.53h5.295
				c0.292,0,0.527,0.238,0.527,0.53S10.006,12.53,9.714,12.53z"/>
		</g>
		<g>
			<path fill="#292D32" d="M9.714,14.706H4.419c-0.293,0-0.529-0.236-0.529-0.529c0-0.292,0.236-0.529,0.529-0.529h5.295
				c0.292,0,0.527,0.237,0.527,0.529S10.006,14.706,9.714,14.706z"/>
		</g>
	</g>
</g>
</svg>
