<?xml version="1.0" encoding="utf-8"?>
<!-- Generator: Adobe Illustrator 16.0.0, SVG Export Plug-In . SVG Version: 6.00 Build 0)  -->
<!DOCTYPE svg PUBLIC "-//W3C//DTD SVG 1.1//EN" "http://www.w3.org/Graphics/SVG/1.1/DTD/svg11.dtd">
<svg version="1.1" id="Vrstva_1" xmlns="http://www.w3.org/2000/svg" xmlns:xlink="http://www.w3.org/1999/xlink" x="0px" y="0px"
	 width="24px" height="24px" viewBox="0 0 24 24" enable-background="new 0 0 24 24" xml:space="preserve">
<g>
	<path fill="#292D32" d="M22.077,17.182c0.128-0.621,0.192-1.346,0.202-2.216V9.031c-0.012-0.89-0.075-1.593-0.203-2.21
		c-0.252-1.393-0.76-2.461-1.551-3.271c-0.59-0.619-1.389-1.092-2.377-1.405c-0.904-0.281-2.021-0.425-3.311-0.425l-5.68,0.002
		c-5.146,0-7.439,2.293-7.439,7.438v5.689c0,5.14,2.295,7.431,7.439,7.431h5.681c1.291,0,2.403-0.146,3.312-0.425
		c0.98-0.308,1.763-0.765,2.379-1.397C21.314,19.65,21.82,18.58,22.077,17.182z M18.221,20.134
		c-0.644,0.284-1.443,0.446-2.451,0.496c-0.305,0.021-0.604,0.031-0.928,0.031H9.161c-4.354,0-5.821-1.466-5.821-5.812v-5.69
		c0-4.323,1.439-5.79,5.714-5.811l0.108-0.02h5.68c0.33,0,0.646,0.011,0.938,0.03c1.017,0.062,1.818,0.228,2.453,0.509
		c1.193,0.507,1.901,1.432,2.229,2.911c0.131,0.631,0.196,1.367,0.205,2.252v5.937c-0.009,0.889-0.074,1.624-0.205,2.254
		C20.135,18.702,19.423,19.628,18.221,20.134z"/>
</g>
<g>
	<path fill="#292D32" d="M6.806,16.604H5.04l-0.253,0.624H3.833l1.616-3.966h0.954l1.616,3.966H7.062L6.806,16.604z M6.511,15.884
		l-0.588-1.448l-0.589,1.446h1.178V15.884z"/>
	<path fill="#292D32" d="M10.25,16.422H8.316l-0.08-0.659l1.836-2.492h1.033v2.436h0.525v0.716h-0.525v0.809H10.25L10.25,16.422
		L10.25,16.422z M10.25,15.706V14.17l-1.12,1.536H10.25z"/>
	<path fill="#292D32" d="M12.091,15.285h1.581v0.716h-1.581V15.285z"/>
	<path fill="#292D32" d="M14.358,13.262h2.01c0.71,0,1.201,0.418,1.201,0.994c0,0.404-0.203,0.699-0.556,0.883
		c0.463,0.209,0.729,0.578,0.729,1.017c0,0.637-0.543,1.072-1.301,1.072h-2.083V13.262z M16.155,14.863
		c0.316,0,0.541-0.186,0.541-0.438c0-0.248-0.225-0.432-0.541-0.432h-0.948v0.87H16.155z M16.287,16.502
		c0.341,0,0.583-0.201,0.583-0.484c0-0.284-0.242-0.484-0.583-0.484h-1.08v0.969H16.287z"/>
	<path fill="#292D32" d="M19.063,14.239l-0.677,0.424l-0.34-0.604l1.189-0.795h0.681v3.966h-0.854V14.239z"/>
</g>
</svg>
