<?xml version="1.0" encoding="utf-8"?>
<!-- Generator: Adobe Illustrator 16.0.0, SVG Export Plug-In . SVG Version: 6.00 Build 0)  -->
<!DOCTYPE svg PUBLIC "-//W3C//DTD SVG 1.1//EN" "http://www.w3.org/Graphics/SVG/1.1/DTD/svg11.dtd">
<svg version="1.1" id="Vrstva_1" xmlns="http://www.w3.org/2000/svg" xmlns:xlink="http://www.w3.org/1999/xlink" x="0px" y="0px"
	 width="24px" height="24px" viewBox="0 0 24 24" enable-background="new 0 0 24 24" xml:space="preserve">
<g>
	<path fill="#292D32" d="M22.077,17.182c0.128-0.621,0.193-1.346,0.203-2.216V9.031c-0.012-0.89-0.076-1.593-0.204-2.21
		c-0.252-1.393-0.759-2.461-1.55-3.271c-0.59-0.619-1.389-1.092-2.377-1.405c-0.905-0.281-2.021-0.425-3.311-0.425l-5.68,0.002
		c-5.146,0-7.439,2.293-7.439,7.438v5.689c0,5.14,2.295,7.431,7.439,7.431h5.681c1.291,0,2.403-0.146,3.312-0.425
		c0.98-0.307,1.762-0.764,2.379-1.397C21.315,19.65,21.821,18.58,22.077,17.182z M18.22,20.134
		c-0.643,0.284-1.443,0.446-2.451,0.496c-0.304,0.021-0.604,0.031-0.927,0.031H9.161c-4.354,0-5.821-1.466-5.821-5.812v-5.69
		c0-4.323,1.439-5.79,5.714-5.811l0.108-0.02h5.68c0.33,0,0.646,0.011,0.938,0.03c1.016,0.062,1.818,0.228,2.453,0.509
		c1.193,0.507,1.901,1.432,2.228,2.911c0.131,0.631,0.196,1.367,0.205,2.252v5.937c-0.009,0.889-0.074,1.624-0.205,2.254
		C20.135,18.702,19.423,19.628,18.22,20.134z"/>
</g>
<g>
	<g>
		<path fill="#CCCED0" d="M16.002,17.145L12,14.287l-4.002,2.857V7.998c0-0.631,0.512-1.143,1.144-1.143h5.717
			c0.632,0,1.144,0.512,1.144,1.143V17.145L16.002,17.145z"/>
		<path fill="#292D32" d="M16.002,17.508c-0.074,0-0.148-0.022-0.211-0.067L12,14.733L8.209,17.44
			c-0.11,0.08-0.257,0.09-0.377,0.028c-0.121-0.063-0.197-0.188-0.197-0.324V7.998c0-0.83,0.676-1.506,1.507-1.506h5.717
			c0.83,0,1.507,0.676,1.507,1.506v9.146c0,0.137-0.076,0.261-0.197,0.323C16.116,17.495,16.059,17.508,16.002,17.508z M12,13.924
			c0.073,0,0.148,0.022,0.21,0.067l3.429,2.448V7.998c0-0.43-0.35-0.78-0.78-0.78H9.142c-0.43,0-0.78,0.35-0.78,0.78v8.441
			l3.428-2.448C11.852,13.946,11.926,13.924,12,13.924z"/>
	</g>
</g>
</svg>
