<?xml version="1.0" encoding="utf-8"?>
<!-- Generator: Adobe Illustrator 16.0.0, SVG Export Plug-In . SVG Version: 6.00 Build 0)  -->
<!DOCTYPE svg PUBLIC "-//W3C//DTD SVG 1.1//EN" "http://www.w3.org/Graphics/SVG/1.1/DTD/svg11.dtd">
<svg version="1.1" id="Vrstva_1" xmlns="http://www.w3.org/2000/svg" xmlns:xlink="http://www.w3.org/1999/xlink" x="0px" y="0px"
	 width="24px" height="24px" viewBox="0 0 24 24" enable-background="new 0 0 24 24" xml:space="preserve">
<g>
	<g>
		<path fill="#292D32" d="M13.994,8.673c-0.156-0.883-0.479-1.558-0.977-2.077c-0.011-0.01-0.011-0.01-0.021-0.021
			C12.738,6.284,12.395,6.056,12,5.879c-0.166-0.083-0.343-0.146-0.529-0.207c-0.581-0.187-1.298-0.28-2.128-0.28H5.697
			c-3.313,0-4.787,1.475-4.787,4.787v3.654c0,3.302,1.485,4.776,4.787,4.776h3.645c0.831,0,1.547-0.094,2.128-0.271
			c0.187-0.062,0.363-0.124,0.529-0.207c0.396-0.177,0.728-0.416,1.008-0.694c0.011-0.012,0.021-0.021,0.021-0.033
			c0.488-0.508,0.811-1.192,0.967-2.076c0.082-0.395,0.124-0.86,0.135-1.422v-3.812C14.118,9.524,14.076,9.067,13.994,8.673z
			 M13.091,13.906c-0.01,0.572-0.053,1.049-0.136,1.453C12.8,16.086,12.488,16.616,12,16.969c-0.145,0.096-0.3,0.188-0.477,0.26
			c-0.166,0.072-0.343,0.137-0.541,0.177c-0.301,0.084-0.644,0.126-1.038,0.146c-0.198,0.01-0.395,0.021-0.603,0.021H5.697
			c-2.804,0-3.738-0.945-3.738-3.738V10.18c0-2.783,0.924-3.728,3.666-3.738L5.697,6.43h3.645c0.218,0,0.415,0.011,0.612,0.021
			c0.385,0.021,0.728,0.072,1.018,0.155c0.208,0.031,0.385,0.093,0.551,0.166c0.177,0.073,0.332,0.166,0.467,0.27
			c0.499,0.343,0.799,0.862,0.965,1.6c0.083,0.405,0.126,0.883,0.136,1.454V13.906z"/>
	</g>
	<g>
		<path fill="#292D32" d="M22.955,8.672c-0.166-0.893-0.488-1.578-0.996-2.098c-0.385-0.404-0.895-0.705-1.527-0.902
			c-0.58-0.188-1.298-0.281-2.129-0.281h-3.645c-1.069,0-1.951,0.156-2.658,0.488c-0.405,0.177-0.748,0.426-1.028,0.727
			c0.208,0.031,0.384,0.094,0.55,0.166c0.177,0.073,0.332,0.167,0.467,0.271c0.28-0.208,0.613-0.353,1.029-0.446
			c0.437-0.104,0.955-0.156,1.567-0.156l0.072-0.01h3.645c0.218,0,0.416,0.01,0.603,0.021c0.654,0.031,1.174,0.146,1.58,0.321
			c0.768,0.333,1.225,0.925,1.433,1.869c0.083,0.405,0.125,0.883,0.135,1.454v3.812c-0.01,0.57-0.052,1.049-0.135,1.453
			c-0.208,0.945-0.665,1.548-1.444,1.869c-0.414,0.176-0.924,0.279-1.576,0.321c-0.188,0.011-0.385,0.021-0.594,0.021h-3.645
			c-0.635,0-1.184-0.052-1.631-0.167C12.613,17.313,12.28,17.178,12,16.97c-0.146,0.095-0.301,0.188-0.478,0.261
			c-0.166,0.071-0.343,0.136-0.54,0.176c0.281,0.302,0.613,0.541,1.018,0.728c0.707,0.322,1.589,0.478,2.658,0.478h3.645
			c0.831,0,1.549-0.094,2.129-0.279c0.635-0.188,1.133-0.487,1.527-0.893c0.508-0.521,0.83-1.205,0.996-2.108
			c0.083-0.396,0.125-0.861,0.135-1.422v-3.812C23.08,9.523,23.038,9.067,22.955,8.672z"/>
	</g>
</g>
<g>
	<path fill="#292D32" d="M5.168,13.322l-0.554,0.345l-0.279-0.491l0.974-0.653h0.558v3.249h-0.7V13.322z"/>
	<path fill="#292D32" d="M6.446,14.178h1.296v0.587H6.446V14.178z"/>
	<path fill="#292D32" d="M8.079,15.285l0.412-0.464c0.227,0.246,0.534,0.383,0.861,0.383c0.359,0,0.567-0.165,0.567-0.397
		c0-0.25-0.194-0.378-0.634-0.373H8.912v-0.596l0.374,0.004c0.355,0,0.568-0.133,0.568-0.363c0-0.237-0.223-0.389-0.544-0.389
		c-0.308,0-0.549,0.151-0.767,0.379l-0.402-0.426c0.27-0.326,0.657-0.578,1.234-0.578c0.733,0,1.192,0.375,1.192,0.89
		c0,0.373-0.255,0.643-0.61,0.746c0.354,0.081,0.681,0.332,0.681,0.762c0,0.563-0.497,0.971-1.253,0.971
		C8.798,15.834,8.354,15.602,8.079,15.285z"/>
</g>
<g>
	<path fill="#292D32" d="M14.337,15.205l1.197-0.928c0.388-0.307,0.511-0.52,0.511-0.747c0-0.27-0.228-0.431-0.492-0.431
		c-0.317,0-0.559,0.161-0.795,0.431L14.313,13.1c0.321-0.406,0.733-0.634,1.258-0.634c0.691,0,1.192,0.426,1.192,1.036
		c0,0.436-0.189,0.771-0.757,1.183l-0.591,0.459h1.376v0.629h-2.455V15.205z"/>
	<path fill="#292D32" d="M17.233,14.179h1.296v0.586h-1.296V14.179z"/>
	<path fill="#292D32" d="M20.514,15.11h-1.585l-0.066-0.539l1.504-2.044h0.847v1.996h0.431v0.587h-0.431v0.662h-0.699V15.11z
		 M20.514,14.523v-1.258l-0.918,1.258H20.514z"/>
</g>
</svg>
