<?xml version="1.0" encoding="utf-8"?>
<!-- Generator: Adobe Illustrator 16.0.0, SVG Export Plug-In . SVG Version: 6.00 Build 0)  -->
<!DOCTYPE svg PUBLIC "-//W3C//DTD SVG 1.1//EN" "http://www.w3.org/Graphics/SVG/1.1/DTD/svg11.dtd">
<svg version="1.1" id="Vrstva_1" xmlns="http://www.w3.org/2000/svg" xmlns:xlink="http://www.w3.org/1999/xlink" x="0px" y="0px"
	 width="24px" height="24px" viewBox="0 0 24 24" enable-background="new 0 0 24 24" xml:space="preserve">
<path fill="#292D32" d="M13.147,11.998l4.194-3.479c0.306-0.254,0.348-0.717,0.092-1.033c-0.13-0.155-0.345-0.248-0.573-0.248
	c-0.175,0-0.336,0.055-0.453,0.154l-4.409,3.659L7.597,7.393C7.47,7.289,7.306,7.231,7.134,7.231c-0.224,0-0.431,0.094-0.566,0.257
	C6.442,7.641,6.383,7.832,6.402,8.024C6.419,8.22,6.512,8.395,6.662,8.517l4.193,3.48l-4.193,3.482
	c-0.309,0.26-0.351,0.724-0.093,1.034c0.137,0.162,0.343,0.255,0.564,0.255c0.171,0,0.335-0.058,0.462-0.162l4.403-3.654l4.405,3.65
	c0.118,0.102,0.281,0.157,0.459,0.157c0.229,0,0.444-0.093,0.575-0.248c0.25-0.31,0.205-0.775-0.101-1.038L13.147,11.998z"/>
<g>
	<path fill="#292D32" d="M5.369,2.316C4.621,2.307,3.872,2.308,3.127,2.317C2.682,2.321,2.329,2.652,2.323,3.069
		c-0.011,0.789-0.01,1.578-0.001,2.369C2.329,5.839,2.667,6.17,3.09,6.192l0.043,0.001c0.388,0,0.72-0.278,0.791-0.663
		c0.02-0.112,0.022-0.229,0.022-0.343V3.945h0.782h0.001l0.627-0.002c0.469-0.004,0.818-0.336,0.829-0.788
		c0.005-0.229-0.074-0.44-0.222-0.594C5.813,2.406,5.603,2.318,5.369,2.316z"/>
	<path fill="#292D32" d="M5.343,20.066H3.945l0.001-0.383c0.001-0.348,0.002-0.701-0.004-1.052
		c-0.009-0.467-0.345-0.811-0.808-0.816c-0.453,0-0.809,0.344-0.813,0.786c-0.008,0.769-0.008,1.533,0,2.303
		c0.004,0.432,0.344,0.772,0.777,0.776c0.363,0.003,0.726,0.005,1.089,0.005c0.411,0,0.823-0.002,1.235-0.006
		c0.428-0.005,0.755-0.342,0.763-0.784c0.005-0.228-0.072-0.435-0.216-0.583C5.813,20.151,5.597,20.068,5.343,20.066z"/>
	<path fill="#292D32" d="M9.01,2.317c-0.383-0.013-0.766-0.014-1.151,0c-0.462,0.02-0.799,0.385-0.78,0.848
		c0.017,0.437,0.358,0.764,0.809,0.776l0.228,0.003l0.327-0.001l0.313,0.001l0.215-0.002c0.465-0.01,0.815-0.34,0.833-0.782
		c0.009-0.215-0.066-0.422-0.212-0.579C9.443,2.421,9.236,2.326,9.01,2.317z"/>
	<path fill="#292D32" d="M3.943,11.464c-0.021-0.477-0.362-0.821-0.826-0.82c-0.459,0.008-0.795,0.361-0.801,0.844
		c-0.003,0.345-0.003,0.686,0,1.032c0.005,0.487,0.332,0.837,0.793,0.846h0.019c0.464,0,0.799-0.343,0.815-0.834
		c0.004-0.119,0.003-0.239,0.002-0.358L3.945,12.02l0.001-0.168C3.947,11.722,3.947,11.594,3.943,11.464z"/>
	<path fill="#292D32" d="M2.317,8.995C2.332,9.448,2.661,9.787,3.099,9.8H3.13c0.434,0,0.779-0.317,0.802-0.739
		c0.021-0.411,0.021-0.828,0-1.24C3.926,7.717,3.9,7.619,3.857,7.53C3.734,7.277,3.469,7.105,3.145,7.09
		C3.126,7.089,3.109,7.082,3.091,7.082c0,0-0.001,0-0.002,0C2.662,7.104,2.336,7.436,2.317,7.871C2.312,8,2.314,8.128,2.315,8.259
		l0.001,0.164l-0.001,0.17C2.314,8.728,2.313,8.863,2.317,8.995z"/>
	<path fill="#292D32" d="M3.085,16.925l0.047,0.001c0.442,0,0.788-0.335,0.805-0.778c0.017-0.389,0.017-0.783,0-1.174
		c-0.02-0.438-0.366-0.769-0.832-0.769c-0.442,0.013-0.773,0.351-0.789,0.801c-0.004,0.129-0.003,0.26-0.002,0.391l0.001,0.162
		l-0.001,0.158c0,0.132-0.001,0.262,0.002,0.393C2.328,16.561,2.651,16.903,3.085,16.925z"/>
	<path fill="#292D32" d="M12.572,20.068c-0.378-0.009-0.759-0.009-1.142,0c-0.448,0.011-0.789,0.355-0.793,0.801
		c0,0.003,0.001,0.006,0.001,0.01c0,0.002-0.001,0.004-0.001,0.006c0,0.067,0.022,0.126,0.038,0.188
		c0.01,0.035,0.009,0.076,0.023,0.11c0.116,0.29,0.393,0.491,0.732,0.506c0.076,0.002,0.151,0.004,0.227,0.004h0.01
		c0.002,0,0.004,0,0.006,0l0.332-0.002l0.35,0.002c0.076,0,0.153-0.002,0.227-0.006c0.428-0.017,0.748-0.344,0.77-0.763
		c0.002-0.017,0.012-0.03,0.012-0.047C13.363,20.435,13.018,20.08,12.572,20.068z"/>
	<path fill="#292D32" d="M9.021,20.07c-0.388-0.013-0.776-0.013-1.165,0c-0.452,0.012-0.786,0.364-0.777,0.817
		c0.004,0.438,0.33,0.772,0.771,0.794c0.071,0.003,0.144,0.004,0.217,0.004l0.965-0.003c0.437-0.028,0.76-0.361,0.771-0.788
		c0.006-0.219-0.073-0.425-0.221-0.579C9.435,20.16,9.235,20.074,9.021,20.07z"/>
	<path fill="#292D32" d="M16.141,20.068c-0.389-0.011-0.777-0.011-1.162,0.002c-0.328,0.006-0.604,0.212-0.719,0.502
		c-0.029,0.069-0.037,0.145-0.047,0.222c-0.002,0.023-0.012,0.042-0.014,0.065c0,0.002,0.002,0.005,0.002,0.007
		c0,0.014-0.006,0.024-0.006,0.036c0.012,0.428,0.334,0.76,0.771,0.789l0.967,0.002c0.072,0,0.145,0,0.215-0.004
		c0.443-0.021,0.768-0.354,0.771-0.794c0-0.001,0-0.002,0-0.003s0-0.001,0-0.002C16.932,20.44,16.588,20.08,16.141,20.068z"/>
	<path fill="#292D32" d="M18.643,3.951l0.627,0.002h0.004h0.781v1.243c0,0.113,0.002,0.231,0.021,0.342
		c0.072,0.386,0.402,0.664,0.791,0.664L20.91,6.2c0.422-0.021,0.76-0.354,0.766-0.755c0.012-0.791,0.012-1.579,0-2.369
		c-0.006-0.417-0.359-0.748-0.805-0.751c-0.742-0.009-1.492-0.011-2.24,0c-0.234,0.002-0.443,0.09-0.594,0.244
		c-0.148,0.154-0.227,0.365-0.223,0.594C17.824,3.616,18.174,3.946,18.643,3.951z"/>
	<path fill="#292D32" d="M20.865,17.823c-0.463,0.006-0.799,0.349-0.807,0.817c-0.008,0.35-0.006,0.703-0.004,1.052v0.381h-1.398
		c-0.252,0.002-0.469,0.086-0.625,0.249c-0.145,0.146-0.221,0.354-0.217,0.582c0.008,0.441,0.336,0.778,0.762,0.783
		c0.414,0.004,0.824,0.006,1.236,0.006c0.363,0,0.725-0.002,1.09-0.004c0.432-0.005,0.771-0.347,0.775-0.777
		c0.01-0.768,0.01-1.535,0-2.303C21.674,18.168,21.318,17.823,20.865,17.823z"/>
	<path fill="#292D32" d="M11.458,3.951l0.233,0.002l0.319-0.001l0.319,0.001c0.079,0,0.157,0,0.236-0.003
		c0.436-0.015,0.77-0.333,0.799-0.758c0-0.004-0.004-0.008-0.004-0.014c0,0,0,0,0-0.001c0.004-0.023-0.008-0.044-0.008-0.068
		c-0.004-0.084-0.008-0.17-0.033-0.247c-0.035-0.103-0.09-0.198-0.162-0.279c-0.143-0.157-0.338-0.249-0.549-0.26
		c-0.406-0.019-0.816-0.02-1.222,0c-0.212,0.013-0.406,0.103-0.543,0.258c-0.146,0.163-0.217,0.375-0.204,0.603
		c0.007,0.107,0.033,0.207,0.075,0.297C10.84,3.756,11.118,3.942,11.458,3.951z"/>
	<path fill="#292D32" d="M16.141,2.325c-0.385-0.013-0.768-0.013-1.15,0c-0.227,0.009-0.434,0.104-0.582,0.265
		c-0.146,0.157-0.221,0.364-0.213,0.579c0.018,0.443,0.369,0.771,0.834,0.781l0.215,0.002l0.313-0.001l0.326,0.001l0.23-0.003
		c0.449-0.012,0.791-0.34,0.807-0.776C16.939,2.709,16.604,2.344,16.141,2.325z"/>
	<path fill="#292D32" d="M20.057,12.539c0.016,0.49,0.35,0.833,0.814,0.833h0.02c0.463-0.008,0.787-0.357,0.793-0.845
		c0.004-0.346,0.004-0.688,0-1.031c-0.006-0.484-0.342-0.837-0.799-0.845c-0.467-0.001-0.807,0.344-0.828,0.82
		c-0.004,0.129-0.004,0.258-0.002,0.388v0.167v0.154C20.053,12.3,20.051,12.421,20.057,12.539z"/>
	<path fill="#292D32" d="M21.686,8.268c0-0.13,0.002-0.26-0.002-0.389c-0.021-0.435-0.346-0.767-0.773-0.79h-0.002
		c-0.018,0-0.035,0.008-0.055,0.009c-0.322,0.016-0.588,0.187-0.713,0.439c-0.041,0.09-0.066,0.188-0.072,0.291
		c-0.021,0.412-0.021,0.829,0,1.24C20.09,9.49,20.436,9.81,20.869,9.81h0.033c0.438-0.016,0.766-0.354,0.781-0.808
		c0.004-0.132,0.002-0.267,0.002-0.401l-0.002-0.17L21.686,8.268z"/>
	<path fill="#292D32" d="M21.684,15.015c-0.018-0.452-0.348-0.79-0.789-0.803c-0.465,0-0.813,0.331-0.832,0.77
		c-0.018,0.391-0.018,0.784,0,1.174c0.018,0.443,0.365,0.78,0.805,0.78l0.047-0.003c0.434-0.021,0.758-0.363,0.77-0.815
		c0.002-0.131,0.002-0.262,0.002-0.393l-0.002-0.157l0.002-0.163C21.686,15.272,21.688,15.143,21.684,15.015z"/>
</g>
</svg>
