<?xml version="1.0" encoding="utf-8"?>
<!-- Generator: Adobe Illustrator 16.0.0, SVG Export Plug-In . SVG Version: 6.00 Build 0)  -->
<!DOCTYPE svg PUBLIC "-//W3C//DTD SVG 1.1//EN" "http://www.w3.org/Graphics/SVG/1.1/DTD/svg11.dtd">
<svg version="1.1" id="Vrstva_1" xmlns="http://www.w3.org/2000/svg" xmlns:xlink="http://www.w3.org/1999/xlink" x="0px" y="0px"
	 width="24px" height="24px" viewBox="0 0 24 24" enable-background="new 0 0 24 24" xml:space="preserve">
<g>
	<g>
		<path fill="#292D32" d="M13.284,21.421c-1.711,0-3.383-0.464-4.859-1.352c-0.355-0.213-0.47-0.674-0.256-1.029
			c0.213-0.354,0.675-0.472,1.029-0.256c1.35,0.812,2.896,1.198,4.461,1.128c2.114-0.099,4.063-1.015,5.487-2.578
			c1.424-1.564,2.154-3.589,2.056-5.702c-0.099-2.115-1.015-4.063-2.578-5.488c-1.564-1.424-3.586-2.154-5.703-2.055
			c-4.362,0.204-7.745,3.919-7.541,8.281c0.042,0.902,0.213,1.77,0.522,2.654c0.137,0.392-0.069,0.819-0.46,0.956
			c-0.389,0.137-0.818-0.069-0.956-0.46c-0.358-1.023-0.556-2.03-0.604-3.08C3.638,7.252,7.662,2.833,12.85,2.591
			c2.494-0.129,4.922,0.75,6.783,2.444c1.86,1.694,2.949,4.012,3.066,6.526c0.117,2.513-0.751,4.921-2.445,6.782
			s-4.012,2.949-6.525,3.066C13.58,21.417,13.433,21.421,13.284,21.421z"/>
	</g>
	<g>
		<path fill="#292D32" d="M5.491,17.248c-0.163,0-0.327-0.053-0.465-0.162l-3.451-2.732c-0.325-0.257-0.38-0.729-0.123-1.054
			c0.257-0.324,0.729-0.38,1.053-0.122l3.451,2.732c0.325,0.257,0.38,0.729,0.123,1.054C5.931,17.15,5.712,17.248,5.491,17.248z"/>
	</g>
	<g>
		<path fill="#292D32" d="M5.491,17.248c-0.142,0-0.286-0.04-0.413-0.124c-0.346-0.229-0.44-0.694-0.212-1.039l2.3-3.48
			c0.228-0.346,0.693-0.44,1.039-0.212c0.346,0.228,0.44,0.694,0.212,1.039l-2.3,3.48C5.973,17.13,5.734,17.248,5.491,17.248z"/>
	</g>
</g>
<circle fill="#292D32" cx="13.423" cy="12" r="2.094"/>
</svg>
