<?xml version="1.0" encoding="utf-8"?>
<!-- Generator: Adobe Illustrator 16.0.0, SVG Export Plug-In . SVG Version: 6.00 Build 0)  -->
<!DOCTYPE svg PUBLIC "-//W3C//DTD SVG 1.1//EN" "http://www.w3.org/Graphics/SVG/1.1/DTD/svg11.dtd">
<svg version="1.1" id="Vrstva_1" xmlns="http://www.w3.org/2000/svg" xmlns:xlink="http://www.w3.org/1999/xlink" x="0px" y="0px"
	 width="24px" height="24px" viewBox="0 0 24 24" enable-background="new 0 0 24 24" xml:space="preserve">
<g>
	<path fill="#292D32" d="M5.369,2.316C4.621,2.307,3.872,2.308,3.127,2.317C2.682,2.321,2.329,2.652,2.323,3.069
		c-0.011,0.789-0.01,1.578-0.001,2.369C2.329,5.839,2.667,6.17,3.09,6.192l0.043,0.001c0.388,0,0.72-0.278,0.791-0.663
		c0.02-0.112,0.022-0.229,0.022-0.343V3.945h0.782h0.001l0.627-0.002c0.469-0.004,0.818-0.336,0.829-0.788
		c0.005-0.229-0.074-0.44-0.222-0.594C5.813,2.406,5.603,2.318,5.369,2.316z"/>
	<path fill="#292D32" d="M5.343,20.066H3.945l0.001-0.383c0.001-0.35,0.002-0.701-0.004-1.054c-0.009-0.467-0.345-0.812-0.808-0.815
		c-0.453,0-0.809,0.345-0.813,0.787c-0.008,0.769-0.008,1.531,0,2.303c0.004,0.432,0.344,0.771,0.777,0.775
		c0.363,0.004,0.726,0.006,1.089,0.006c0.411,0,0.823-0.002,1.235-0.006c0.428-0.007,0.755-0.344,0.763-0.785
		c0.005-0.229-0.072-0.436-0.216-0.582C5.813,20.15,5.597,20.068,5.343,20.066z"/>
	<path fill="#292D32" d="M9.01,2.317c-0.383-0.013-0.766-0.014-1.151,0c-0.462,0.02-0.799,0.385-0.78,0.848
		c0.017,0.437,0.358,0.764,0.809,0.776l0.228,0.003l0.327-0.001l0.313,0.001l0.215-0.002c0.465-0.01,0.815-0.34,0.833-0.782
		c0.009-0.215-0.066-0.422-0.212-0.579C9.443,2.421,9.236,2.326,9.01,2.317z"/>
	<path fill="#292D32" d="M3.943,11.464c-0.021-0.477-0.362-0.821-0.826-0.82c-0.459,0.008-0.795,0.361-0.801,0.844
		c-0.003,0.345-0.003,0.686,0,1.032c0.005,0.487,0.332,0.838,0.793,0.848h0.019c0.464,0,0.799-0.344,0.815-0.834
		c0.004-0.119,0.003-0.239,0.002-0.358V12.02l0.001-0.168C3.947,11.722,3.947,11.594,3.943,11.464z"/>
	<path fill="#292D32" d="M2.317,8.995C2.332,9.448,2.661,9.787,3.099,9.8H3.13c0.434,0,0.779-0.317,0.802-0.739
		c0.021-0.411,0.021-0.828,0-1.24C3.926,7.717,3.9,7.619,3.857,7.53C3.734,7.277,3.469,7.105,3.145,7.09
		C3.126,7.089,3.109,7.082,3.091,7.082c0,0-0.001,0-0.002,0C2.662,7.104,2.336,7.436,2.317,7.871C2.312,8,2.314,8.128,2.315,8.259
		l0.001,0.164l-0.001,0.17C2.314,8.728,2.313,8.863,2.317,8.995z"/>
	<path fill="#292D32" d="M3.085,16.925l0.047,0.001c0.442,0,0.788-0.335,0.805-0.777c0.017-0.39,0.017-0.782,0-1.174
		c-0.02-0.438-0.366-0.77-0.832-0.77c-0.442,0.013-0.773,0.352-0.789,0.801c-0.004,0.129-0.003,0.26-0.002,0.391l0.001,0.162
		l-0.001,0.158c0,0.133-0.001,0.262,0.002,0.393C2.328,16.561,2.651,16.902,3.085,16.925z"/>
	<path fill="#292D32" d="M12.57,20.068c-0.376-0.01-0.757-0.01-1.14,0c-0.448,0.011-0.789,0.354-0.793,0.801
		c0,0.003,0.001,0.006,0.001,0.01c0,0.002-0.001,0.004-0.001,0.006c0,0.067,0.022,0.126,0.038,0.188
		c0.01,0.034,0.009,0.075,0.023,0.11c0.116,0.289,0.393,0.489,0.732,0.506c0.076,0.002,0.151,0.004,0.227,0.004h0.01
		c0.002,0,0.004,0,0.006,0l0.332-0.002l0.35,0.002c0.076,0,0.152-0.002,0.226-0.006c0.428-0.019,0.748-0.346,0.771-0.765
		c0.002-0.017,0.012-0.028,0.012-0.047C13.361,20.436,13.018,20.08,12.57,20.068z"/>
	<path fill="#292D32" d="M9.021,20.07c-0.388-0.014-0.776-0.014-1.165,0c-0.452,0.012-0.786,0.363-0.777,0.815
		c0.004,0.438,0.33,0.772,0.771,0.796c0.071,0.002,0.144,0.004,0.217,0.004l0.965-0.004c0.437-0.027,0.76-0.361,0.771-0.787
		c0.006-0.221-0.073-0.427-0.221-0.58C9.435,20.16,9.235,20.074,9.021,20.07z"/>
	<path fill="#292D32" d="M16.141,20.068c-0.39-0.012-0.777-0.012-1.162,0.002c-0.328,0.006-0.604,0.212-0.72,0.502
		c-0.028,0.068-0.036,0.145-0.047,0.222c-0.002,0.022-0.012,0.042-0.014,0.065c0,0.002,0.002,0.005,0.002,0.007
		c0,0.014-0.007,0.024-0.007,0.036c0.013,0.428,0.334,0.76,0.771,0.789l0.969,0.002c0.07,0,0.145,0,0.215-0.004
		c0.441-0.021,0.768-0.354,0.771-0.795v-0.002c0-0.002,0-0.002,0-0.002C16.932,20.439,16.587,20.08,16.141,20.068z"/>
	<path fill="#292D32" d="M18.643,3.951l0.627,0.002h0.004h0.781v1.243c0,0.113,0.002,0.231,0.021,0.342
		c0.071,0.386,0.401,0.664,0.791,0.664L20.909,6.2c0.422-0.021,0.76-0.354,0.766-0.755c0.013-0.791,0.013-1.579,0-2.369
		c-0.006-0.417-0.358-0.748-0.805-0.751c-0.742-0.009-1.492-0.011-2.24,0c-0.233,0.002-0.442,0.09-0.594,0.244
		c-0.147,0.154-0.228,0.365-0.224,0.594C17.823,3.616,18.173,3.946,18.643,3.951z"/>
	<path fill="#292D32" d="M20.863,17.823c-0.463,0.006-0.799,0.349-0.807,0.817c-0.009,0.35-0.007,0.701-0.004,1.051v0.382h-1.398
		c-0.252,0.002-0.469,0.086-0.625,0.249c-0.145,0.146-0.221,0.354-0.217,0.582c0.008,0.439,0.336,0.777,0.763,0.783
		c0.413,0.004,0.823,0.006,1.235,0.006c0.362,0,0.726-0.002,1.09-0.004c0.433-0.006,0.771-0.349,0.774-0.777
		c0.011-0.768,0.011-1.535,0-2.303C21.673,18.168,21.316,17.823,20.863,17.823z"/>
	<path fill="#292D32" d="M11.458,3.951l0.233,0.002l0.319-0.001l0.319,0.001c0.079,0,0.157,0,0.233-0.003
		C13,3.935,13.334,3.617,13.361,3.192c0-0.004-0.004-0.008-0.004-0.014c0,0,0,0,0-0.001c0.004-0.023-0.008-0.044-0.008-0.068
		c-0.004-0.084-0.008-0.17-0.033-0.247c-0.033-0.103-0.09-0.198-0.16-0.279c-0.145-0.157-0.34-0.249-0.551-0.26
		c-0.403-0.019-0.813-0.021-1.219,0c-0.212,0.013-0.406,0.103-0.543,0.258c-0.146,0.163-0.217,0.375-0.204,0.603
		c0.007,0.107,0.033,0.207,0.075,0.297C10.84,3.756,11.118,3.942,11.458,3.951z"/>
	<path fill="#292D32" d="M16.141,2.325c-0.386-0.013-0.769-0.013-1.149,0c-0.228,0.009-0.435,0.104-0.582,0.265
		c-0.146,0.157-0.222,0.364-0.214,0.579c0.019,0.443,0.369,0.771,0.834,0.781l0.216,0.002l0.313-0.001l0.324,0.001l0.229-0.003
		c0.449-0.012,0.791-0.34,0.809-0.776C16.938,2.709,16.604,2.344,16.141,2.325z"/>
	<path fill="#292D32" d="M20.057,12.539c0.017,0.49,0.351,0.833,0.813,0.833h0.021c0.463-0.008,0.786-0.356,0.793-0.845
		c0.004-0.346,0.004-0.688,0-1.031c-0.007-0.484-0.343-0.837-0.8-0.845c-0.467-0.001-0.807,0.344-0.827,0.82
		c-0.005,0.129-0.005,0.258-0.002,0.388v0.167v0.154C20.052,12.3,20.05,12.421,20.057,12.539z"/>
	<path fill="#292D32" d="M21.686,8.268c0-0.13,0.002-0.26-0.002-0.389c-0.021-0.435-0.347-0.767-0.772-0.79h-0.002
		c-0.019,0-0.035,0.008-0.056,0.009c-0.321,0.016-0.588,0.187-0.713,0.439c-0.041,0.09-0.065,0.188-0.072,0.291
		c-0.021,0.412-0.021,0.829,0,1.24c0.021,0.422,0.367,0.742,0.801,0.742h0.033c0.438-0.016,0.766-0.354,0.781-0.808
		c0.004-0.132,0.002-0.267,0.002-0.401l-0.002-0.17L21.686,8.268z"/>
	<path fill="#292D32" d="M21.684,15.016c-0.019-0.453-0.349-0.791-0.789-0.804c-0.465,0-0.813,0.331-0.832,0.771
		c-0.019,0.392-0.019,0.783,0,1.175c0.019,0.442,0.364,0.778,0.806,0.778l0.047-0.002c0.435-0.021,0.758-0.363,0.771-0.814
		c0.002-0.133,0.002-0.264,0.002-0.395l-0.002-0.156l0.002-0.162C21.686,15.271,21.688,15.143,21.684,15.016z"/>
</g>
<path fill="#292D32" d="M12.215,18.045H9.46c-2.56,0-3.701-1.143-3.701-3.701v-2.755c0-2.561,1.141-3.702,3.701-3.702h2.755
	c2.561,0,3.701,1.142,3.701,3.702v2.755C15.916,16.902,14.775,18.045,12.215,18.045z M9.46,8.859c-2.04,0-2.729,0.688-2.729,2.729
	v2.755c0,2.039,0.688,2.729,2.729,2.729h2.755c2.041,0,2.73-0.689,2.73-2.729v-2.755c0-2.041-0.689-2.729-2.73-2.729H9.46z"/>
<path fill="#FFFFFF" d="M11.784,15.627h2.757c2.295,0,3.213-0.92,3.213-3.213V9.656c0-2.296-0.918-3.215-3.213-3.215h-2.757
	c-2.296,0-3.215,0.919-3.215,3.216v2.757C8.569,14.707,9.488,15.627,11.784,15.627z"/>
<path fill="#292D32" d="M14.541,16.113h-2.757c-2.56,0-3.701-1.141-3.701-3.699V9.657c0-2.561,1.142-3.702,3.701-3.702h2.757
	c2.559,0,3.699,1.142,3.699,3.701v2.758C18.24,14.973,17.1,16.113,14.541,16.113z M11.784,6.928c-2.04,0-2.729,0.688-2.729,2.729
	v2.757c0,2.014,0.714,2.727,2.729,2.727h2.757c2.014,0,2.727-0.713,2.727-2.727V9.656c0-2.04-0.688-2.729-2.727-2.729L11.784,6.928
	L11.784,6.928z"/>
<path fill="#292D32" d="M16.146,13.096l-2.474-2.054l0.125-0.103l2.352-1.951c0.137-0.113,0.155-0.321,0.041-0.461
	c-0.06-0.071-0.155-0.114-0.254-0.114c-0.076,0-0.149,0.026-0.204,0.073l-2.571,2.134l-2.568-2.134
	c-0.06-0.048-0.134-0.075-0.209-0.075c-0.097,0-0.188,0.043-0.25,0.117c-0.056,0.068-0.082,0.153-0.074,0.24
	c0.007,0.087,0.048,0.165,0.115,0.219l2.476,2.055l-2.475,2.056c-0.137,0.113-0.156,0.322-0.042,0.459
	c0.061,0.074,0.153,0.115,0.253,0.115c0.077,0,0.149-0.027,0.206-0.074l2.568-2.129l0.11,0.091l2.46,2.039
	c0.057,0.047,0.13,0.074,0.206,0.074c0.101,0,0.195-0.043,0.254-0.115C16.303,13.42,16.283,13.211,16.146,13.096z"/>
</svg>
