<?xml version="1.0" encoding="utf-8"?>
<!-- Generator: Adobe Illustrator 16.0.0, SVG Export Plug-In . SVG Version: 6.00 Build 0)  -->
<!DOCTYPE svg PUBLIC "-//W3C//DTD SVG 1.1//EN" "http://www.w3.org/Graphics/SVG/1.1/DTD/svg11.dtd">
<svg version="1.1" id="Vrstva_1" xmlns="http://www.w3.org/2000/svg" xmlns:xlink="http://www.w3.org/1999/xlink" x="0px" y="0px"
	 width="24px" height="24px" viewBox="0 0 24 24" enable-background="new 0 0 24 24" xml:space="preserve">
<g>
	<path fill="#292D32" d="M5.369,2.316C4.621,2.307,3.872,2.308,3.127,2.317C2.682,2.321,2.329,2.652,2.323,3.069
		c-0.011,0.789-0.01,1.578-0.001,2.369C2.329,5.839,2.667,6.17,3.09,6.192l0.043,0.001c0.388,0,0.72-0.278,0.791-0.663
		c0.02-0.112,0.022-0.229,0.022-0.343V3.945h0.782h0.001l0.627-0.002c0.469-0.004,0.818-0.336,0.829-0.788
		c0.005-0.229-0.074-0.44-0.222-0.594C5.813,2.406,5.603,2.318,5.369,2.316z"/>
	<path fill="#292D32" d="M5.343,20.066H3.945l0.001-0.383c0.001-0.351,0.002-0.701-0.004-1.055
		c-0.009-0.467-0.345-0.813-0.808-0.814c-0.453,0-0.809,0.345-0.813,0.787c-0.008,0.769-0.008,1.53,0,2.303
		c0.004,0.432,0.344,0.771,0.777,0.775c0.363,0.004,0.726,0.006,1.089,0.006c0.411,0,0.823-0.002,1.235-0.006
		c0.428-0.008,0.755-0.345,0.763-0.785c0.005-0.229-0.072-0.437-0.216-0.582C5.813,20.15,5.597,20.068,5.343,20.066z"/>
	<path fill="#292D32" d="M9.01,2.317c-0.383-0.013-0.766-0.014-1.151,0c-0.462,0.02-0.799,0.385-0.78,0.848
		c0.017,0.437,0.358,0.764,0.809,0.776l0.228,0.003l0.327-0.001l0.313,0.001l0.215-0.002c0.465-0.01,0.815-0.34,0.833-0.782
		c0.009-0.215-0.066-0.422-0.212-0.579C9.443,2.421,9.236,2.326,9.01,2.317z"/>
	<path fill="#292D32" d="M3.943,11.464c-0.021-0.477-0.362-0.821-0.826-0.82c-0.459,0.008-0.795,0.361-0.801,0.844
		c-0.003,0.345-0.003,0.686,0,1.032c0.005,0.487,0.332,0.838,0.793,0.849h0.019c0.464,0,0.799-0.345,0.815-0.834
		c0.004-0.119,0.003-0.239,0.002-0.358V12.02l0.001-0.168C3.947,11.722,3.947,11.594,3.943,11.464z"/>
	<path fill="#292D32" d="M2.317,8.995C2.332,9.448,2.661,9.787,3.099,9.8H3.13c0.434,0,0.779-0.317,0.802-0.739
		c0.021-0.411,0.021-0.828,0-1.24C3.926,7.717,3.9,7.619,3.857,7.53C3.734,7.277,3.469,7.105,3.145,7.09
		C3.126,7.089,3.109,7.082,3.091,7.082c0,0-0.001,0-0.002,0C2.662,7.104,2.336,7.436,2.317,7.871C2.312,8,2.314,8.128,2.315,8.259
		l0.001,0.164l-0.001,0.17C2.314,8.728,2.313,8.863,2.317,8.995z"/>
	<path fill="#292D32" d="M3.085,16.925l0.047,0.001c0.442,0,0.788-0.335,0.805-0.777c0.017-0.39,0.017-0.781,0-1.174
		c-0.02-0.438-0.366-0.77-0.832-0.77c-0.442,0.013-0.773,0.352-0.789,0.801c-0.004,0.129-0.003,0.26-0.002,0.391l0.001,0.162
		l-0.001,0.158c0,0.133-0.001,0.262,0.002,0.393C2.328,16.561,2.651,16.902,3.085,16.925z"/>
	<path fill="#292D32" d="M12.57,20.068c-0.376-0.01-0.757-0.01-1.14,0c-0.448,0.011-0.789,0.354-0.793,0.801
		c0,0.003,0.001,0.006,0.001,0.01c0,0.002-0.001,0.004-0.001,0.006c0,0.067,0.022,0.126,0.038,0.188
		c0.01,0.034,0.009,0.075,0.023,0.11c0.116,0.289,0.393,0.488,0.732,0.506c0.076,0.002,0.151,0.004,0.227,0.004h0.01
		c0.002,0,0.004,0,0.006,0l0.332-0.002l0.35,0.002c0.076,0,0.152-0.002,0.226-0.006c0.428-0.02,0.748-0.347,0.771-0.766
		c0.002-0.017,0.012-0.027,0.012-0.047C13.361,20.436,13.018,20.08,12.57,20.068z"/>
	<path fill="#292D32" d="M9.021,20.07c-0.388-0.014-0.776-0.014-1.165,0c-0.452,0.012-0.786,0.363-0.777,0.814
		c0.004,0.438,0.33,0.772,0.771,0.797c0.071,0.002,0.144,0.004,0.217,0.004l0.965-0.004c0.437-0.027,0.76-0.361,0.771-0.787
		c0.006-0.222-0.073-0.428-0.221-0.58C9.435,20.16,9.235,20.074,9.021,20.07z"/>
	<path fill="#292D32" d="M16.141,20.068c-0.39-0.012-0.777-0.012-1.162,0.002c-0.328,0.006-0.604,0.212-0.72,0.502
		c-0.028,0.068-0.036,0.145-0.047,0.222c-0.002,0.022-0.012,0.042-0.014,0.065c0,0.002,0.002,0.005,0.002,0.007
		c0,0.014-0.007,0.024-0.007,0.036c0.013,0.428,0.334,0.76,0.771,0.789l0.97,0.002c0.069,0,0.145,0,0.215-0.004
		c0.44-0.021,0.768-0.354,0.771-0.795v-0.002c0-0.002,0-0.002,0-0.002C16.932,20.439,16.587,20.08,16.141,20.068z"/>
	<path fill="#292D32" d="M18.643,3.951l0.627,0.002h0.004h0.781v1.243c0,0.113,0.002,0.231,0.021,0.342
		c0.07,0.386,0.4,0.664,0.791,0.664L20.909,6.2c0.422-0.021,0.76-0.354,0.766-0.755c0.013-0.791,0.013-1.579,0-2.369
		c-0.006-0.417-0.358-0.748-0.805-0.751c-0.742-0.009-1.492-0.011-2.24,0c-0.233,0.002-0.442,0.09-0.594,0.244
		c-0.147,0.154-0.228,0.365-0.224,0.594C17.823,3.616,18.173,3.946,18.643,3.951z"/>
	<path fill="#292D32" d="M20.863,17.823c-0.463,0.006-0.799,0.349-0.807,0.817c-0.01,0.35-0.008,0.7-0.004,1.051v0.382h-1.398
		c-0.252,0.002-0.469,0.086-0.625,0.249c-0.146,0.146-0.221,0.354-0.217,0.582c0.008,0.438,0.336,0.777,0.763,0.783
		c0.413,0.004,0.823,0.006,1.235,0.006c0.361,0,0.726-0.002,1.09-0.004c0.433-0.006,0.771-0.35,0.773-0.777
		c0.012-0.768,0.012-1.535,0-2.303C21.673,18.168,21.316,17.823,20.863,17.823z"/>
	<path fill="#292D32" d="M11.458,3.951l0.233,0.002l0.319-0.001l0.319,0.001c0.079,0,0.157,0,0.233-0.003
		C13,3.935,13.334,3.617,13.361,3.192c0-0.004-0.004-0.008-0.004-0.014c0,0,0,0,0-0.001c0.004-0.023-0.008-0.044-0.008-0.068
		c-0.004-0.084-0.009-0.17-0.033-0.247c-0.033-0.103-0.09-0.198-0.16-0.279c-0.145-0.157-0.34-0.249-0.551-0.26
		c-0.403-0.019-0.813-0.021-1.219,0c-0.212,0.013-0.406,0.103-0.543,0.258c-0.146,0.163-0.217,0.375-0.204,0.603
		c0.007,0.107,0.033,0.207,0.075,0.297C10.84,3.756,11.118,3.942,11.458,3.951z"/>
	<path fill="#292D32" d="M16.141,2.325c-0.386-0.013-0.769-0.013-1.148,0c-0.229,0.009-0.436,0.104-0.582,0.265
		c-0.146,0.157-0.223,0.364-0.215,0.579c0.02,0.443,0.369,0.771,0.834,0.781l0.217,0.002l0.313-0.001l0.324,0.001l0.229-0.003
		c0.449-0.012,0.791-0.34,0.81-0.776C16.938,2.709,16.604,2.344,16.141,2.325z"/>
	<path fill="#292D32" d="M20.057,12.539c0.018,0.49,0.352,0.833,0.813,0.833h0.021c0.463-0.008,0.786-0.356,0.793-0.845
		c0.004-0.346,0.004-0.688,0-1.031c-0.007-0.484-0.343-0.837-0.8-0.845c-0.467-0.001-0.807,0.344-0.827,0.82
		c-0.005,0.129-0.005,0.258-0.002,0.388v0.167v0.154C20.052,12.3,20.05,12.421,20.057,12.539z"/>
	<path fill="#292D32" d="M21.686,8.268c0-0.13,0.002-0.26-0.002-0.389c-0.021-0.435-0.347-0.767-0.771-0.79H20.91
		c-0.02,0-0.035,0.008-0.057,0.009c-0.32,0.016-0.588,0.187-0.713,0.439c-0.041,0.09-0.064,0.188-0.072,0.291
		c-0.021,0.412-0.021,0.829,0,1.24C20.09,9.49,20.436,9.81,20.87,9.81h0.032c0.438-0.016,0.767-0.354,0.781-0.808
		c0.004-0.132,0.002-0.267,0.002-0.401l-0.002-0.17L21.686,8.268z"/>
	<path fill="#292D32" d="M21.684,15.016c-0.019-0.453-0.349-0.791-0.789-0.804c-0.465,0-0.813,0.331-0.832,0.771
		c-0.019,0.393-0.019,0.783,0,1.176c0.02,0.441,0.364,0.777,0.807,0.777l0.047-0.002c0.436-0.021,0.758-0.363,0.771-0.813
		c0.002-0.134,0.002-0.265,0.002-0.396l-0.002-0.156l0.002-0.161C21.686,15.271,21.688,15.143,21.684,15.016z"/>
</g>
<path fill="#292D32" d="M18.355,8.766c-0.16-0.885-0.481-1.566-0.985-2.083c-0.384-0.397-0.894-0.7-1.521-0.899
	c-0.576-0.178-1.279-0.268-2.086-0.268l-3.529,0.001c-3.265,0-4.721,1.456-4.721,4.72v3.533c0,3.263,1.456,4.715,4.721,4.715h3.529
	c0.81,0,1.51-0.09,2.086-0.269c0.625-0.192,1.121-0.485,1.521-0.894c0.503-0.521,0.824-1.201,0.984-2.084
	c0.08-0.377,0.121-0.833,0.129-1.396v-3.687C18.479,9.593,18.438,9.15,18.355,8.766z M13.768,17.28h-3.531
	c-2.66,0-3.515-0.854-3.515-3.513v-3.533c0-2.644,0.838-3.497,3.466-3.512l0.061-0.01h3.519c0.193,0,0.387,0.006,0.576,0.018
	c0.618,0.038,1.105,0.139,1.491,0.31c0.709,0.301,1.13,0.853,1.324,1.735c0.079,0.383,0.12,0.834,0.125,1.378v3.687
	c-0.005,0.548-0.046,0.997-0.125,1.382c-0.194,0.885-0.618,1.438-1.334,1.736c-0.39,0.172-0.875,0.271-1.489,0.3
	C14.146,17.273,13.96,17.28,13.768,17.28z"/>
<g>
	<path fill="#292D32" d="M7.975,13.28l-0.48,0.3l-0.243-0.428l0.848-0.566h0.485v2.824H7.975V13.28z"/>
	<path fill="#292D32" d="M9.084,14.024h1.127v0.511H9.084V14.024z"/>
	<path fill="#292D32" d="M10.502,14.987l0.358-0.403c0.197,0.214,0.464,0.333,0.748,0.333c0.313,0,0.494-0.144,0.494-0.346
		c0-0.218-0.169-0.328-0.551-0.324h-0.325v-0.519l0.325,0.004c0.309,0,0.494-0.115,0.494-0.316c0-0.206-0.194-0.338-0.473-0.338
		c-0.268,0-0.477,0.132-0.667,0.33l-0.35-0.37c0.235-0.284,0.572-0.502,1.074-0.502c0.637,0,1.036,0.324,1.036,0.772
		c0,0.326-0.221,0.56-0.53,0.65c0.309,0.069,0.592,0.288,0.592,0.662c0,0.489-0.432,0.843-1.09,0.843
		C11.128,15.464,10.741,15.262,10.502,14.987z"/>
	<path fill="#292D32" d="M13.072,14.024h1.127v0.511h-1.127V14.024z"/>
	<path fill="#292D32" d="M14.531,15.027l0.357-0.427c0.21,0.201,0.469,0.333,0.74,0.333c0.316,0,0.515-0.188,0.515-0.433
		c0-0.246-0.202-0.41-0.51-0.41c-0.215,0-0.396,0.07-0.547,0.185l-0.408-0.164l0.042-1.525h1.871v0.546h-1.313l-0.017,0.625
		c0.141-0.099,0.321-0.172,0.551-0.172c0.502,0,0.935,0.32,0.935,0.896c0,0.6-0.448,0.982-1.123,0.982
		C15.152,15.464,14.795,15.291,14.531,15.027z"/>
</g>
</svg>
