<?xml version="1.0" encoding="UTF-8" standalone="no"?>
<!-- Created with Inkscape (http://www.inkscape.org/) -->

<svg
   xmlns:dc="http://purl.org/dc/elements/1.1/"
   xmlns:cc="http://creativecommons.org/ns#"
   xmlns:rdf="http://www.w3.org/1999/02/22-rdf-syntax-ns#"
   xmlns:svg="http://www.w3.org/2000/svg"
   xmlns="http://www.w3.org/2000/svg"
   xmlns:sodipodi="http://sodipodi.sourceforge.net/DTD/sodipodi-0.dtd"
   xmlns:inkscape="http://www.inkscape.org/namespaces/inkscape"
   width="30mm"
   height="30mm"
   viewBox="0 0 30 30"
   version="1.1"
   id="svg8"
   inkscape:version="0.92.4 (5da689c313, 2019-01-14)"
   sodipodi:docname="preview.svg"
   enable-background="new">
  <defs
     id="defs2">
    <inkscape:path-effect
       effect="spiro"
       id="path-effect831"
       is_visible="true" />
  </defs>
  <sodipodi:namedview
     id="base"
     pagecolor="#ffffff"
     bordercolor="#666666"
     borderopacity="1.0"
     inkscape:pageopacity="0.0"
     inkscape:pageshadow="2"
     inkscape:zoom="3.959798"
     inkscape:cx="178.45235"
     inkscape:cy="84.431316"
     inkscape:document-units="mm"
     inkscape:current-layer="layer1"
     showgrid="false"
     inkscape:window-width="3840"
     inkscape:window-height="2035"
     inkscape:window-x="-13"
     inkscape:window-y="-13"
     inkscape:window-maximized="1" />
  <metadata
     id="metadata5">
    <rdf:RDF>
      <cc:Work
         rdf:about="">
        <dc:format>image/svg+xml</dc:format>
        <dc:type
           rdf:resource="http://purl.org/dc/dcmitype/StillImage" />
        <dc:title />
        <cc:license
           rdf:resource="http://creativecommons.org/licenses/by-sa/4.0/" />
        <dc:creator>
          <cc:Agent>
            <dc:title>Jakub Melka</dc:title>
          </cc:Agent>
        </dc:creator>
      </cc:Work>
      <cc:License
         rdf:about="http://creativecommons.org/licenses/by-sa/4.0/">
        <cc:permits
           rdf:resource="http://creativecommons.org/ns#Reproduction" />
        <cc:permits
           rdf:resource="http://creativecommons.org/ns#Distribution" />
        <cc:requires
           rdf:resource="http://creativecommons.org/ns#Notice" />
        <cc:requires
           rdf:resource="http://creativecommons.org/ns#Attribution" />
        <cc:permits
           rdf:resource="http://creativecommons.org/ns#DerivativeWorks" />
        <cc:requires
           rdf:resource="http://creativecommons.org/ns#ShareAlike" />
      </cc:License>
    </rdf:RDF>
  </metadata>
  <g
     inkscape:label="Vrstva 1"
     inkscape:groupmode="layer"
     id="layer1"
     transform="translate(0,-267)">
    <g
       aria-label="ðŸ‘"
       style="font-style:normal;font-variant:normal;font-weight:normal;font-stretch:normal;font-size:25.39999962px;line-height:1.25;font-family:sans-serif;-inkscape-font-specification:sans-serif;letter-spacing:0px;word-spacing:0px;fill:#000000;fill-opacity:1;stroke:none;stroke-width:0.26458332"
       id="text839"
       transform="matrix(1.35,0,0,1.35,-5.4088903,-98.643511)">
      <path
         d="m 26.095183,281.84479 q -0.954981,1.72393 -2.344043,2.93936 -3.336231,2.95176 -8.284766,2.95176 -4.948535,0 -8.2971674,-2.95176 -1.3890625,-1.21543 -2.3564453,-2.93936 0.9673828,-1.72392 2.3564453,-2.95175 3.3486324,-2.95176 8.2971674,-2.95176 4.948535,0 8.284766,2.95176 1.389062,1.22783 2.344043,2.95175 z m -2.021582,0 q -0.607715,-1.0666 -1.475879,-1.90996 -2.083594,-2.00918 -5.13457,-2.51767 1.32705,0.5705 2.133203,1.74873 0.818554,1.21543 0.818554,2.6789 0,1.45108 -0.806152,2.6417 -0.79375,1.19063 -2.095996,1.77354 4.489648,-0.76895 6.56084,-4.41524 z m -4.688086,0 q 0,-1.5875 -1.153418,-2.71611 -1.153418,-1.12861 -2.778125,-1.12861 -0.855762,0 -1.624707,0.34726 l -0.409277,-0.93017 q -4.502051,0.76894 -6.5856447,4.42763 0.6077148,1.06661 1.4634765,1.89756 2.0711912,1.99678 5.0849612,2.51768 -1.302246,-0.58291 -2.095996,-1.77354 -0.79375,-1.19062 -0.79375,-2.6417 0,-0.88056 0.310058,-1.71152 l 0.992188,0.31006 q -0.272852,0.68213 -0.272852,1.40146 0,1.59991 1.153418,2.72852 1.153418,1.11621 2.778125,1.11621 1.624707,0 2.778125,-1.11621 1.153418,-1.12861 1.153418,-2.72852 z m -0.95498,0 q 0,1.20303 -0.880567,2.05879 -0.868164,0.85576 -2.095996,0.85576 -1.240234,0 -2.108398,-0.85576 -0.868164,-0.85576 -0.868164,-2.05879 0,-0.5333 0.186035,-1.02939 l 3.038574,1.37666 -1.42627,-3.01377 q 0.558106,-0.24805 1.178223,-0.24805 1.227832,0 2.095996,0.85576 0.880567,0.85577 0.880567,2.05879 z"
         style="stroke-width:0.26458332"
         id="path845"
         inkscape:connector-curvature="0"
         sodipodi:insensitive="true" />
    </g>
  </g>
</svg>
