<?xml version="1.0" encoding="utf-8"?>
<!-- Generator: Adobe Illustrator 16.0.0, SVG Export Plug-In . SVG Version: 6.00 Build 0)  -->
<!DOCTYPE svg PUBLIC "-//W3C//DTD SVG 1.1//EN" "http://www.w3.org/Graphics/SVG/1.1/DTD/svg11.dtd">
<svg version="1.1" id="Vrstva_1" xmlns="http://www.w3.org/2000/svg" xmlns:xlink="http://www.w3.org/1999/xlink" x="0px" y="0px"
	 width="24px" height="24px" viewBox="0 0 24 24" enable-background="new 0 0 24 24" xml:space="preserve">
<g>
	<g>
		<path fill="#292D32" d="M22.52,5.539c-0.157-0.208-0.406-0.292-0.655-0.239c-0.214,0.042-0.379,0.179-0.491,0.411
			c-0.093,0.199-0.189,0.396-0.286,0.594L21,6.484l-0.076-0.036l0.385-0.784c0.228-0.49,0.318-0.908,0.283-1.315
			c-0.098-1.286-0.982-2.325-2.247-2.646C19.099,1.643,18.85,1.611,18.6,1.611c-1.073,0-2.012,0.56-2.448,1.46
			c-2.148,4.415-4.288,8.831-6.421,13.249c-0.104,0.213-0.163,0.475-0.158,0.72c0.017,1.006,0.06,2.014,0.102,2.961
			c0.009,0.183,0.021,0.43,0.146,0.596c0.143,0.19,0.136,0.335-0.034,0.595c-0.023,0.038-0.041,0.081-0.062,0.13
			c-0.147,0.347-0.01,0.728,0.319,0.886c0.087,0.043,0.179,0.065,0.274,0.065c0.238,0,0.458-0.135,0.586-0.355
			c0.042-0.071,0.077-0.146,0.112-0.221c0.03-0.067,0.062-0.132,0.093-0.187c0.012-0.017,0.042-0.037,0.049-0.041
			c0.349-0.018,0.665-0.14,0.964-0.369c0.743-0.55,1.489-1.097,2.238-1.637c0.252-0.182,0.443-0.413,0.588-0.707
			c1.016-2.102,2.035-4.198,3.055-6.297c0.771-1.588,1.544-3.177,2.314-4.767c0.008-0.017,0.016-0.033,0.024-0.05
			c0.024,0.012,0.049,0.025,0.073,0.037l-2.31,4.762c-0.052,0.104-0.095,0.209-0.124,0.317c-0.086,0.35,0.112,0.688,0.463,0.782
			c0.063,0.018,0.123,0.026,0.183,0.026c0.182,0,0.441-0.083,0.637-0.477l2.249-4.64c0.224-0.458,0.446-0.915,0.67-1.373
			l0.401-0.827C22.709,6.001,22.686,5.755,22.52,5.539z M18.052,9.316c-0.135,0.285-0.27,0.563-0.401,0.838l-1.302,2.679
			c-0.826,1.701-1.652,3.403-2.476,5.104c-0.075,0.152-0.108,0.107-0.187,0.093c-1.024-0.164-1.89-0.596-2.646-1.32
			c-0.025-0.023-0.032-0.034-0.014-0.061c1.055-2.166,2.105-4.33,3.156-6.496l1.064-2.195C16.184,8.41,17.113,8.861,18.052,9.316z
			 M18.562,2.766v0.169c0.666,0,1.169,0.278,1.497,0.825c0.266,0.446,0.273,0.889,0.022,1.395c-0.349,0.691-0.685,1.388-1.021,2.084
			l-0.405,0.841c-0.008,0.012-0.014,0.024-0.02,0.038l-2.804-1.358c0.071-0.151,0.143-0.298,0.212-0.442l0.466-0.963
			c0.253-0.521,0.506-1.042,0.756-1.563c0.271-0.564,0.704-0.852,1.281-0.858L18.562,2.766L18.562,2.766z M12.541,19.15l-0.27,0.198
			c-0.317,0.231-0.635,0.463-0.948,0.695c-0.119,0.086-0.185,0.105-0.25,0.071c-0.055-0.028-0.081-0.068-0.086-0.237
			c-0.012-0.349-0.025-0.693-0.039-1.053l-0.02-0.496C11.438,18.672,11.96,18.939,12.541,19.15z"/>
	</g>
	<g>
		<path fill="#292D32" d="M7.684,22.389c-1.105,0-1.947-0.215-2.457-0.847C4.544,20.695,4.598,19.261,5.4,16.89
			c0.505-1.492,0.518-2.515,0.035-2.955c-0.804-0.737-2.982-0.025-3.682,0.282l-0.418-0.951c0.339-0.147,3.359-1.42,4.801-0.098
			c0.82,0.751,0.903,2.116,0.247,4.055c-0.648,1.916-0.766,3.15-0.349,3.667c0.465,0.578,1.855,0.505,3.152,0.358l0.116,1.032
			C8.716,22.346,8.174,22.389,7.684,22.389z"/>
	</g>
</g>
</svg>
