<?xml version="1.0" encoding="utf-8"?>
<!-- Generator: Adobe Illustrator 16.0.0, SVG Export Plug-In . SVG Version: 6.00 Build 0)  -->
<!DOCTYPE svg PUBLIC "-//W3C//DTD SVG 1.1//EN" "http://www.w3.org/Graphics/SVG/1.1/DTD/svg11.dtd">
<svg version="1.1" id="Vrstva_1" xmlns="http://www.w3.org/2000/svg" xmlns:xlink="http://www.w3.org/1999/xlink" x="0px" y="0px"
	 width="127.5px" height="106.974px" viewBox="0 0 127.5 106.974" enable-background="new 0 0 127.5 106.974" xml:space="preserve">
<g>
	<path fill-rule="evenodd" clip-rule="evenodd" fill="#C53620" d="M99.071,34.455V0H55.248v56.362h-8.969
		c-3.525,0-3.525,6.206,0,6.206h10.621c1.922,0,2.859,1.518,2.902,3.033c0.087,1.565-0.937,3.168-2.902,3.168H31.374
		c-3.569,0-3.569,6.207,0,6.207h15.262c3.971,0,3.971,6.201,0,6.201h-27.49c-3.883,0-3.883,6.202,0,6.202h34.32
		c1.203,0.043,2.009,0.671,2.454,1.516c0.671,1.294,0.444,3.038-0.671,4.019c-0.445,0.4-1.025,0.623-1.783,0.672h-16.6
		c-3.975,0-3.975,6.202,0,6.202h18.383v7.186H127.5V34.455H99.071z M91.397,90.949c-11.157,0-20.217-9.105-20.217-20.262
		s9.06-20.256,20.217-20.256c3.569,0,6.873,1.024,9.771,2.633l-2.541,2.989c-2.188-1.072-4.598-1.743-7.23-1.743
		c-9.018,0-16.377,7.322-16.377,16.377c0,9.017,7.36,16.426,16.377,16.426c9.06,0,16.42-7.409,16.42-16.426
		c0-2.454-0.623-4.729-1.603-6.825L91.083,81.578l-11.2-9.417l3.168-3.478l7.543,6.293l12.896-15.311l2.497-2.945
		c3.482,3.617,5.67,8.524,5.67,13.967C111.657,81.844,102.554,90.949,91.397,90.949z"/>
	<g>
		<path fill-rule="evenodd" clip-rule="evenodd" fill="#C53620" d="M38.342,56.358h-8.255c-4.148,0-4.148,6.206,0,6.206h8.255
			C42.447,62.564,42.447,56.358,38.342,56.358z M21.791,68.762H2.771c-3.695,0-3.695,6.205,0,6.205h19.019
			C25.939,74.967,25.939,68.762,21.791,68.762z"/>
	</g>
	<polygon fill-rule="evenodd" clip-rule="evenodd" fill="#6CBE45" points="102.763,0.018 102.763,30.76 127.5,30.76 	"/>
</g>
</svg>
