<?xml version="1.0" encoding="UTF-8" standalone="no"?>
<!-- Created with Inkscape (http://www.inkscape.org/) -->

<svg
   xmlns:dc="http://purl.org/dc/elements/1.1/"
   xmlns:cc="http://creativecommons.org/ns#"
   xmlns:rdf="http://www.w3.org/1999/02/22-rdf-syntax-ns#"
   xmlns:svg="http://www.w3.org/2000/svg"
   xmlns="http://www.w3.org/2000/svg"
   xmlns:sodipodi="http://sodipodi.sourceforge.net/DTD/sodipodi-0.dtd"
   xmlns:inkscape="http://www.inkscape.org/namespaces/inkscape"
   width="30mm"
   height="30mm"
   viewBox="0 0 30 30"
   version="1.1"
   id="svg8"
   inkscape:version="0.92.4 (5da689c313, 2019-01-14)"
   sodipodi:docname="clear-dimensions.svg">
  <defs
     id="defs2">
    <inkscape:path-effect
       effect="spiro"
       id="path-effect831"
       is_visible="true" />
  </defs>
  <sodipodi:namedview
     id="base"
     pagecolor="#ffffff"
     bordercolor="#666666"
     borderopacity="1.0"
     inkscape:pageopacity="0.0"
     inkscape:pageshadow="2"
     inkscape:zoom="1.979899"
     inkscape:cx="63.234605"
     inkscape:cy="148.69816"
     inkscape:document-units="mm"
     inkscape:current-layer="layer1"
     showgrid="false"
     inkscape:window-width="3840"
     inkscape:window-height="2035"
     inkscape:window-x="-13"
     inkscape:window-y="-13"
     inkscape:window-maximized="1"
     inkscape:snap-text-baseline="false" />
  <metadata
     id="metadata5">
    <rdf:RDF>
      <cc:Work
         rdf:about="">
        <dc:format>image/svg+xml</dc:format>
        <dc:type
           rdf:resource="http://purl.org/dc/dcmitype/StillImage" />
        <dc:title></dc:title>
        <cc:license
           rdf:resource="http://creativecommons.org/licenses/by-sa/4.0/" />
        <dc:creator>
          <cc:Agent>
            <dc:title>Jakub Melka</dc:title>
          </cc:Agent>
        </dc:creator>
      </cc:Work>
      <cc:License
         rdf:about="http://creativecommons.org/licenses/by-sa/4.0/">
        <cc:permits
           rdf:resource="http://creativecommons.org/ns#Reproduction" />
        <cc:permits
           rdf:resource="http://creativecommons.org/ns#Distribution" />
        <cc:requires
           rdf:resource="http://creativecommons.org/ns#Notice" />
        <cc:requires
           rdf:resource="http://creativecommons.org/ns#Attribution" />
        <cc:permits
           rdf:resource="http://creativecommons.org/ns#DerivativeWorks" />
        <cc:requires
           rdf:resource="http://creativecommons.org/ns#ShareAlike" />
      </cc:License>
    </rdf:RDF>
  </metadata>
  <g
     inkscape:label="Vrstva 1"
     inkscape:groupmode="layer"
     id="layer1"
     transform="translate(0,-267)">
    <path
       style="fill:none;stroke:#000000;stroke-width:0.26458332px;stroke-linecap:butt;stroke-linejoin:miter;stroke-opacity:1"
       d="m 11.646391,283.58184 v 0 0"
       id="path837"
       inkscape:connector-curvature="0" />
    <g
       aria-label="🗑"
       style="font-style:normal;font-variant:normal;font-weight:normal;font-stretch:normal;font-size:22.57777786px;line-height:1.25;font-family:sans-serif;-inkscape-font-specification:sans-serif;letter-spacing:0px;word-spacing:0px;fill:#000000;fill-opacity:1;stroke:none;stroke-width:0.26458332"
       id="text1421">
      <path
         d="m 9.9148255,278.00513 q -0.099219,-0.0882 -0.1543403,-0.13229 -0.3858507,-0.31971 -0.3858507,-0.80478 v -1.34496 q 0,-0.68351 0.5622396,-0.99219 1.5213539,-0.82682 4.8727429,-0.82682 3.362413,0 4.883768,0.82682 0.562239,0.30868 0.562239,0.99219 v 1.34496 q 0,0.48507 -0.385851,0.80478 -0.05512,0.0441 -0.15434,0.13229 v 10.55026 q 0,1.14653 -0.529167,1.51033 -1.444184,0.97014 -4.376649,0.97014 -2.921441,0 -4.365625,-0.97014 -0.5291665,-0.3638 -0.5291665,-1.51033 z m 4.9058155,-1.24575 q 2.017448,0 3.450608,-0.33073 1.444184,-0.33072 1.444184,-0.79375 0,-0.44097 -1.554427,-0.81579 -1.554427,-0.37483 -3.351389,-0.37483 -1.81901,0 -3.362413,0.38585 -1.5323785,0.37483 -1.5323785,0.8158 0,0.452 1.4441845,0.78272 1.455208,0.33073 3.461631,0.33073 z m -4.9058155,-0.4079 v 0.33073 q 0,1.84106 4.8947915,1.84106 4.905816,0 4.905816,-1.84106 v -0.33073 q -0.926042,0.47405 -2.160764,0.71658 -1.223698,0.23151 -2.745052,0.23151 -1.51033,0 -2.734028,-0.23151 -1.223698,-0.24253 -2.1607635,-0.71658 z m 0.5512155,1.94028 v 10.23056 q 0,0.98116 0.628385,1.30087 1.333941,0.67248 3.715191,0.67248 2.392274,0 3.726215,-0.67248 0.628386,-0.31971 0.628386,-1.30087 v -10.23056 q -0.374827,0.15434 -0.815799,0.29766 v 10.2967 l -0.540191,0.14332 v -10.29671 q -0.661458,0.12127 -1.631597,0.23151 v 10.30773 h -0.551215 v -10.30773 q -0.661459,0.0331 -0.815799,0.0331 -0.143316,0 -0.815798,-0.0331 v 10.30773 H 13.453628 V 278.96424 Q 12.483489,278.854 11.82203,278.73273 v 10.29671 l -0.540191,-0.14332 v -10.2967 q -0.440972,-0.14332 -0.815798,-0.29766 z"
         style="stroke-width:0.26458332"
         id="path1423"
         inkscape:connector-curvature="0" />
    </g>
  </g>
</svg>
