<?xml version="1.0" encoding="UTF-8" standalone="no"?>
<!-- Created with Inkscape (http://www.inkscape.org/) -->

<svg
   xmlns:dc="http://purl.org/dc/elements/1.1/"
   xmlns:cc="http://creativecommons.org/ns#"
   xmlns:rdf="http://www.w3.org/1999/02/22-rdf-syntax-ns#"
   xmlns:svg="http://www.w3.org/2000/svg"
   xmlns="http://www.w3.org/2000/svg"
   xmlns:sodipodi="http://sodipodi.sourceforge.net/DTD/sodipodi-0.dtd"
   xmlns:inkscape="http://www.inkscape.org/namespaces/inkscape"
   width="30mm"
   height="30mm"
   viewBox="0 0 30 30"
   version="1.1"
   id="svg8"
   inkscape:version="0.92.4 (5da689c313, 2019-01-14)"
   sodipodi:docname="settings.svg">
  <defs
     id="defs2">
    <inkscape:path-effect
       effect="spiro"
       id="path-effect831"
       is_visible="true" />
  </defs>
  <sodipodi:namedview
     id="base"
     pagecolor="#ffffff"
     bordercolor="#666666"
     borderopacity="1.0"
     inkscape:pageopacity="0.0"
     inkscape:pageshadow="2"
     inkscape:zoom="1.979899"
     inkscape:cx="7.4236769"
     inkscape:cy="148.69816"
     inkscape:document-units="mm"
     inkscape:current-layer="layer1"
     showgrid="false"
     inkscape:window-width="3840"
     inkscape:window-height="2035"
     inkscape:window-x="-13"
     inkscape:window-y="-13"
     inkscape:window-maximized="1"
     inkscape:snap-text-baseline="false" />
  <metadata
     id="metadata5">
    <rdf:RDF>
      <cc:Work
         rdf:about="">
        <dc:format>image/svg+xml</dc:format>
        <dc:type
           rdf:resource="http://purl.org/dc/dcmitype/StillImage" />
        <dc:title></dc:title>
        <cc:license
           rdf:resource="http://creativecommons.org/licenses/by-sa/4.0/" />
        <dc:creator>
          <cc:Agent>
            <dc:title>Jakub Melka</dc:title>
          </cc:Agent>
        </dc:creator>
      </cc:Work>
      <cc:License
         rdf:about="http://creativecommons.org/licenses/by-sa/4.0/">
        <cc:permits
           rdf:resource="http://creativecommons.org/ns#Reproduction" />
        <cc:permits
           rdf:resource="http://creativecommons.org/ns#Distribution" />
        <cc:requires
           rdf:resource="http://creativecommons.org/ns#Notice" />
        <cc:requires
           rdf:resource="http://creativecommons.org/ns#Attribution" />
        <cc:permits
           rdf:resource="http://creativecommons.org/ns#DerivativeWorks" />
        <cc:requires
           rdf:resource="http://creativecommons.org/ns#ShareAlike" />
      </cc:License>
    </rdf:RDF>
  </metadata>
  <g
     inkscape:label="Vrstva 1"
     inkscape:groupmode="layer"
     id="layer1"
     transform="translate(0,-267)">
    <path
       style="fill:none;stroke:#000000;stroke-width:0.26458332px;stroke-linecap:butt;stroke-linejoin:miter;stroke-opacity:1"
       d="m 11.646391,283.58184 v 0 0"
       id="path837"
       inkscape:connector-curvature="0" />
    <g
       aria-label="🛠"
       style="font-style:normal;font-variant:normal;font-weight:normal;font-stretch:normal;font-size:22.57777786px;line-height:1.25;font-family:sans-serif;-inkscape-font-specification:sans-serif;letter-spacing:0px;word-spacing:0px;fill:#000000;fill-opacity:1;stroke:none;stroke-width:0.26458332"
       id="text1428">
      <path
         d="m 24.477933,276.6919 q 0.110243,0.38585 0.110243,0.7717 0,1.1355 -0.79375,1.92925 -0.79375,0.79375 -1.929253,0.79375 -0.418924,0 -0.826823,-0.12126 l -2.656858,2.65685 6.030295,5.76572 -2.403298,2.40329 -5.776737,-6.03029 -2.524566,2.53559 q 0.121268,0.4079 0.121268,0.8158 0,1.14653 -0.79375,1.94028 -0.782726,0.79375 -1.929254,0.79375 -0.38585,0 -0.771701,-0.11025 l 2.094618,-2.09461 -2.061545,-2.06155 -2.0946183,2.09462 q -0.110243,-0.38585 -0.110243,-0.7717 0,-1.13551 0.79375,-1.92926 0.79375,-0.79375 1.9402773,-0.79375 0.385851,0 0.771702,0.0992 l 2.590712,-2.57969 -3.748264,-3.91362 1.89618,-1.89618 3.902605,3.74826 2.711979,-2.71198 q -0.09922,-0.37483 -0.09922,-0.76068 0,-1.15755 0.79375,-1.9513 0.79375,-0.79375 1.929253,-0.79375 0.396875,0 0.782726,0.11024 l -2.094618,2.09462 2.050521,2.06155 z m -14.033941,-1.65365 -1.8851563,1.88516 -0.3638021,-0.3638 1.8851564,-1.88516 z m 6.19566,0.30868 q -0.694532,-0.2756 -1.43316,-0.2756 -1.113455,0 -1.830035,0.70555 l -4.1230901,4.12309 0.429948,0.42995 -1.5654514,1.57648 -2.6348091,-2.63481 1.5654514,-1.56545 0.4850695,0.47404 4.1010417,-4.10104 q 0.848871,-0.83785 1.81901,-0.83785 1.631598,0 3.186025,2.10564 z"
         style="stroke-width:0.26458332"
         id="path1430"
         inkscape:connector-curvature="0" />
    </g>
  </g>
</svg>
