<?xml version="1.0" encoding="utf-8"?>
<!-- Generator: Adobe Illustrator 16.0.0, SVG Export Plug-In . SVG Version: 6.00 Build 0)  -->
<!DOCTYPE svg PUBLIC "-//W3C//DTD SVG 1.1//EN" "http://www.w3.org/Graphics/SVG/1.1/DTD/svg11.dtd">
<svg version="1.1" id="Vrstva_1" xmlns="http://www.w3.org/2000/svg" xmlns:xlink="http://www.w3.org/1999/xlink" x="0px" y="0px"
	 width="24px" height="24px" viewBox="0 0 24 24" enable-background="new 0 0 24 24" xml:space="preserve">
<g>
	<g>
		<path fill="none" stroke="#292D32" stroke-width="1.5" stroke-linecap="round" stroke-linejoin="round" d="M22,10v5c0,5-2,7-7,7H9
			c-5,0-7-2-7-7V9c0-5,2-7,7-7h5"/>
		<path fill="none" stroke="#292D32" stroke-width="1.5" stroke-linecap="round" stroke-linejoin="round" d="M22,10h-4c-3,0-4-1-4-4
			V2L22,10z"/>
	</g>
</g>
<path fill="none" d="M18.223,10.122c0.039,0.369-0.322,0.697-0.679,0.69c-0.387-0.007-0.678-0.299-0.688-0.686
	c-0.012-0.395,0.336-0.697,0.689-0.698S18.26,9.751,18.223,10.122z"/>
<g>
	<path fill="#292D32" d="M16.787,15.384c-0.12,0.175-0.271,0.321-0.491,0.338c-0.12,0.01-0.252-0.004-0.367-0.042
		c-0.49-0.159-0.978-0.333-1.465-0.505c-0.433-0.153-0.606-0.548-0.422-0.949c0.113-0.255,0.437-0.436,0.701-0.353
		c0.568,0.179,1.134,0.369,1.695,0.579c0.308,0.116,0.429,0.354,0.417,0.691c-0.001,0.014,0.002,0.026,0.002,0.04
		C16.833,15.252,16.811,15.318,16.787,15.384z"/>
	<path fill="#292D32" d="M9.161,15.545c-0.248,0.187-0.489,0.381-0.748,0.55c-0.277,0.182-0.654,0.094-0.856-0.173
		c-0.203-0.271-0.174-0.649,0.068-0.872c0.051-0.048,0.104-0.093,0.162-0.135c0.439-0.322,0.873-0.654,1.322-0.963
		c0.274-0.188,0.653-0.096,0.856,0.174c0.201,0.268,0.173,0.646-0.068,0.871c-0.022,0.021-0.043,0.046-0.069,0.065
		C9.608,15.227,9.381,15.383,9.161,15.545C9.16,15.543,9.164,15.547,9.161,15.545z"/>
</g>
<circle fill="#292D32" cx="6.074" cy="17.117" r="1.523"/>
<circle fill="#292D32" cx="12.055" cy="14.072" r="1.523"/>
<circle fill="#292D32" cx="18.529" cy="16.004" r="1.523"/>
</svg>
