<?xml version="1.0" encoding="utf-8"?>
<!-- Generator: Adobe Illustrator 16.0.0, SVG Export Plug-In . SVG Version: 6.00 Build 0)  -->
<!DOCTYPE svg PUBLIC "-//W3C//DTD SVG 1.1//EN" "http://www.w3.org/Graphics/SVG/1.1/DTD/svg11.dtd">
<svg version="1.1" id="Vrstva_1" xmlns="http://www.w3.org/2000/svg" xmlns:xlink="http://www.w3.org/1999/xlink" x="0px" y="0px"
	 width="24px" height="24px" viewBox="0 0 24 24" enable-background="new 0 0 24 24" xml:space="preserve">
<g>
	<g>
		<path fill="none" stroke="#292D32" stroke-width="1.5" stroke-linecap="round" stroke-linejoin="round" d="M22,10v5c0,5-2,7-7,7H9
			c-5,0-7-2-7-7V9c0-5,2-7,7-7h5"/>
		<path fill="none" stroke="#292D32" stroke-width="1.5" stroke-linecap="round" stroke-linejoin="round" d="M22,10h-4c-3,0-4-1-4-4
			V2L22,10z"/>
	</g>
</g>
<path fill-rule="evenodd" clip-rule="evenodd" fill="none" d="M18.222,10.122c0.04,0.369-0.322,0.697-0.678,0.69
	c-0.387-0.007-0.678-0.299-0.688-0.686c-0.012-0.395,0.335-0.697,0.689-0.698C17.898,9.427,18.26,9.751,18.222,10.122z"/>
<path fill="#292D32" d="M5.188,13.729"/>
<g>
	<path fill="#292D32" d="M9.045,14.663c-0.06,0-0.114,0.017-0.158,0.049l-0.194,0.143c-0.236,0.173-0.478,0.362-0.739,0.579
		l-0.199,0.164c-0.041,0.033-0.09,0.096-0.099,0.201c-0.014,0.18,0.099,0.423,0.303,0.652c0.169,0.19,0.426,0.394,0.64,0.394
		c0.067,0,0.127-0.021,0.173-0.059l0.186-0.152c0.238-0.195,0.457-0.368,0.668-0.523l0.208-0.153c0.042-0.03,0.096-0.09,0.11-0.195
		c0.024-0.175-0.077-0.431-0.264-0.667C9.515,14.886,9.262,14.663,9.045,14.663z M8.599,16.687L8.599,16.687v0.008V16.687z"/>
	<path fill="#292D32" d="M12.522,13.168l-0.291,0.053c-0.323,0.064-0.647,0.15-0.965,0.256l-0.244,0.081
		c-0.049,0.017-0.117,0.057-0.162,0.15c-0.077,0.159-0.062,0.436,0.041,0.72c0.104,0.286,0.311,0.621,0.556,0.621l0.312-0.091
		c0.249-0.084,0.508-0.153,0.77-0.205l0.25-0.049c0.05-0.011,0.122-0.041,0.18-0.128c0.097-0.147,0.118-0.423,0.055-0.718
		C12.949,13.515,12.766,13.168,12.522,13.168z"/>
	<path fill="#292D32" d="M6.296,16.947c-0.062,0-0.119,0.019-0.164,0.053l-0.19,0.146c-0.244,0.188-0.457,0.334-0.653,0.448
		l-0.223,0.131c-0.045,0.026-0.104,0.079-0.13,0.182c-0.042,0.172,0.031,0.438,0.191,0.693c0.144,0.229,0.392,0.497,0.617,0.497
		c0.048,0,0.092-0.012,0.131-0.034l0.208-0.122c0.252-0.146,0.52-0.33,0.82-0.56l0.206-0.158c0.042-0.031,0.094-0.092,0.106-0.197
		c0.021-0.179-0.084-0.427-0.281-0.663C6.768,17.162,6.512,16.947,6.296,16.947z"/>
	<path fill="#292D32" d="M16.365,13.353l-0.248-0.047c-0.314-0.06-0.631-0.108-0.941-0.146l-0.273-0.03
		c-0.254,0-0.417,0.364-0.466,0.725c-0.041,0.299,0.001,0.571,0.108,0.711c0.063,0.082,0.138,0.106,0.188,0.112l0.252,0.031
		c0.291,0.036,0.574,0.08,0.842,0.131l0.243,0.046l0.046,0.004c0.247,0,0.427-0.349,0.495-0.694
		c0.059-0.297,0.033-0.572-0.066-0.719C16.485,13.391,16.414,13.361,16.365,13.353z"/>
	<path fill="#292D32" d="M20.093,14.734c-0.037-0.1-0.101-0.146-0.147-0.166l-0.232-0.105c-0.297-0.135-0.58-0.253-0.862-0.364
		l-0.227-0.09c-0.253-0.102-0.536,0.266-0.667,0.574c-0.118,0.277-0.147,0.552-0.079,0.715c0.041,0.098,0.107,0.141,0.155,0.159
		l0.239,0.094c0.261,0.102,0.52,0.211,0.796,0.335l0.222,0.098c0.032,0.015,0.066,0.021,0.104,0.021
		c0.235,0,0.463-0.304,0.586-0.563C20.11,15.171,20.153,14.899,20.093,14.734z"/>
</g>
</svg>
