<?xml version="1.0" encoding="utf-8"?>
<!-- Generator: Adobe Illustrator 16.0.0, SVG Export Plug-In . SVG Version: 6.00 Build 0)  -->
<!DOCTYPE svg PUBLIC "-//W3C//DTD SVG 1.1//EN" "http://www.w3.org/Graphics/SVG/1.1/DTD/svg11.dtd">
<svg version="1.1" id="Vrstva_1" xmlns="http://www.w3.org/2000/svg" xmlns:xlink="http://www.w3.org/1999/xlink" x="0px" y="0px"
	 width="24px" height="24px" viewBox="0 0 24 24" enable-background="new 0 0 24 24" xml:space="preserve">
<g>
	<g>
		<path fill="none" stroke="#292D32" stroke-width="1.5" stroke-linecap="round" stroke-linejoin="round" d="M22,10v5c0,5-2,7-7,7H9
			c-5,0-7-2-7-7V9c0-5,2-7,7-7h5"/>
		<path fill="none" stroke="#292D32" stroke-width="1.5" stroke-linecap="round" stroke-linejoin="round" d="M22,10h-4c-3,0-4-1-4-4
			V2L22,10z"/>
	</g>
</g>
<g>
	<g>
		<path fill="#292D32" d="M12.263,10.617l-0.716,0.005l-0.053,0.012c-0.622,0.029-1.23,0.119-1.811,0.265
			c-0.161,0.041-0.321,0.088-0.476,0.134L8.53,11.229l0.787,1.064l0.174-0.063c0.774-0.275,1.6-0.414,2.524-0.422l0.248-0.002
			V10.617z"/>
		<path fill="#292D32" d="M16.354,13.259l0.238,0.253c0.468,0.493,0.746,1.02,0.852,1.609l0.04,0.223l1.492-0.112l-0.047-0.272
			c-0.138-0.8-0.511-1.511-1.141-2.175l-0.124-0.131l-1.247,0.577L16.354,13.259z"/>
		<path fill="#292D32" d="M17.629,16.143L17.42,16.11l-0.067,0.2c-0.194,0.581-0.556,1.089-1.102,1.552l-0.271,0.229l0.308,0.177
			c0.264,0.153,0.516,0.297,0.771,0.442l0.152,0.086l0.132-0.113c0.728-0.615,1.204-1.291,1.46-2.065l0.091-0.281l-0.291-0.044
			C18.275,16.243,17.956,16.194,17.629,16.143z"/>
		<path fill="#292D32" d="M13.401,11.936l0.024,0.005c0.291,0.065,0.565,0.127,0.828,0.208c0.268,0.083,0.521,0.186,0.793,0.296
			c0.121,0.049,0.243,0.099,0.368,0.147l0.144,0.055l0.911-0.824l0.054-0.048l-0.317-0.167c-0.891-0.468-1.856-0.766-2.951-0.912
			l-0.218-0.028l-0.282,1.065l-0.014,0.049l0.25,0.06C13.128,11.876,13.266,11.906,13.401,11.936z"/>
		<path fill="#292D32" d="M7.196,17.352c-0.046-0.083-0.092-0.164-0.139-0.244l-0.025-0.043c-0.113-0.195-0.22-0.381-0.295-0.565
			c-0.076-0.185-0.122-0.378-0.171-0.584c-0.023-0.095-0.046-0.19-0.072-0.283l-0.05-0.185h-1.42l0.017,0.266
			c0.05,0.81,0.346,1.543,0.904,2.241l0.115,0.143l1.271-0.494L7.196,17.352z"/>
		<path fill="#292D32" d="M6.676,14.662l0.083-0.185c0.25-0.559,0.667-1.054,1.241-1.474l0.266-0.195l-1.048-0.816l-0.03-0.023
			l-0.153,0.112c-0.804,0.592-1.357,1.242-1.689,1.99l-0.125,0.282l1.415,0.3L6.676,14.662z"/>
		<path fill="#292D32" d="M8.328,18.271l-0.146-0.089l-1.033,0.797l-0.057,0.045l0.31,0.189c0.854,0.52,1.786,0.867,2.85,1.063
			l0.206,0.038l0.073-0.194c0.087-0.226,0.17-0.444,0.255-0.671l0.104-0.279l-0.292-0.054C9.741,18.955,9,18.679,8.328,18.271z"/>
	</g>
	<path fill="#292D32" d="M15.07,18.639l-0.023-0.027c-0.452,0.304-1.75,0.524-2.438,0.623c-0.025,0.004-0.048,0.008-0.074,0.012
		c-0.225,0.032-0.37,0.049-0.37,0.049l0.121,1.127l0.435-0.016l0,0c0.847-0.06,1.674-0.231,2.459-0.509
		c0.087-0.031,0.172-0.065,0.259-0.1l0.486-0.189L15.07,18.639z"/>
</g>
</svg>
