<?xml version="1.0" encoding="utf-8"?>
<!-- Generator: Adobe Illustrator 16.0.0, SVG Export Plug-In . SVG Version: 6.00 Build 0)  -->
<!DOCTYPE svg PUBLIC "-//W3C//DTD SVG 1.1//EN" "http://www.w3.org/Graphics/SVG/1.1/DTD/svg11.dtd">
<svg version="1.1" id="Vrstva_1" xmlns="http://www.w3.org/2000/svg" xmlns:xlink="http://www.w3.org/1999/xlink" x="0px" y="0px"
	 width="24px" height="24px" viewBox="0 0 24 24" enable-background="new 0 0 24 24" xml:space="preserve">
<g>
	<g>
		<path fill="none" stroke="#292D32" stroke-width="1.5" stroke-linecap="round" stroke-linejoin="round" d="M22,10v5c0,5-2,7-7,7H9
			c-5,0-7-2-7-7V9c0-5,2-7,7-7h5"/>
		<path fill="none" stroke="#292D32" stroke-width="1.5" stroke-linecap="round" stroke-linejoin="round" d="M22,10h-4c-3,0-4-1-4-4
			V2L22,10z"/>
	</g>
</g>
<path fill-rule="evenodd" clip-rule="evenodd" fill="none" d="M18.222,10.122c0.04,0.369-0.322,0.697-0.678,0.69
	c-0.387-0.007-0.678-0.299-0.688-0.686c-0.012-0.395,0.335-0.697,0.689-0.698C17.898,9.427,18.26,9.751,18.222,10.122z"/>
<path fill="#292D32" d="M5.188,13.729"/>
<path fill-rule="evenodd" clip-rule="evenodd" fill="#FFFFFF" d="M16.008,20.289c0,0.059-0.014,0.107,0.002,0.143
	s0.063,0.086,0.092,0.084c0.439-0.02,0.844-0.186,0.941-0.719c0.063-0.342,0.061-0.281-0.252-0.293
	c-0.104-0.002-0.145,0.025-0.16,0.129c-0.041,0.281-0.178,0.426-0.443,0.459C16.035,20.109,15.971,20.162,16.008,20.289z"/>
<path fill-rule="evenodd" clip-rule="evenodd" fill="#FFFFFF" d="M7.948,20.316c0-0.186,0-0.186-0.198-0.225
	c-0.221-0.041-0.362-0.164-0.413-0.375c-0.052-0.209-0.05-0.211-0.282-0.209c-0.022,0-0.044,0-0.066-0.002
	c-0.08-0.004-0.107,0.029-0.105,0.105c0.014,0.502,0.32,0.83,0.84,0.895C7.948,20.535,7.948,20.535,7.948,20.316z"/>
<path fill-rule="evenodd" clip-rule="evenodd" fill="#FFFFFF" d="M16.828,11.83c0.063,0,0.111,0.012,0.15-0.003
	c0.037-0.015,0.09-0.059,0.088-0.088c-0.021-0.386-0.164-0.791-0.746-0.893c-0.383-0.067-0.303-0.055-0.316,0.239
	c-0.004,0.099,0.025,0.137,0.135,0.151c0.293,0.039,0.447,0.17,0.482,0.423C16.641,11.805,16.695,11.863,16.828,11.83z"/>
<path fill-rule="evenodd" clip-rule="evenodd" fill="#FFFFFF" d="M7.947,11.022c0-0.042,0.012-0.088-0.003-0.125
	c-0.014-0.033-0.058-0.078-0.087-0.077c-0.448,0.018-0.858,0.195-0.95,0.742c-0.053,0.316-0.044,0.257,0.24,0.271
	c0.125,0.005,0.165-0.036,0.181-0.15c0.038-0.258,0.182-0.396,0.435-0.441C7.947,11.208,7.947,11.208,7.947,11.022z"/>
<path fill-rule="evenodd" clip-rule="evenodd" fill="#FFFFFF" d="M17.074,17.898c0-0.109,0-0.219,0-0.328
	c0-0.295,0-0.291-0.307-0.291c-0.105,0-0.127,0.039-0.125,0.127c0.004,0.27,0.002,0.537,0.002,0.807c0,0.307,0,0.303,0.32,0.291
	c0.088-0.002,0.111-0.037,0.111-0.115C17.072,18.225,17.074,18.061,17.074,17.898z"/>
<path fill-rule="evenodd" clip-rule="evenodd" fill="#FFFFFF" d="M7.309,17.898c0-0.109,0-0.219,0-0.328
	c0-0.295,0-0.291-0.306-0.291c-0.104,0.002-0.126,0.039-0.125,0.127c0.004,0.27-0.002,0.537,0.002,0.807
	c0.005,0.336-0.065,0.283,0.322,0.291c0.079,0.002,0.111-0.025,0.109-0.102C7.307,18.232,7.309,18.066,7.309,17.898z"/>
<path fill-rule="evenodd" clip-rule="evenodd" fill="#FFFFFF" d="M14.311,10.813c-0.115,0-0.23,0-0.346,0
	c-0.299,0.001-0.295,0.001-0.297,0.288c0,0.092,0.025,0.125,0.127,0.123c0.285-0.005,0.572,0.002,0.859-0.002
	c0.346-0.005,0.291,0.068,0.299-0.296c0.002-0.092-0.041-0.115-0.127-0.113C14.654,10.816,14.482,10.813,14.311,10.813z"/>
<path fill-rule="evenodd" clip-rule="evenodd" fill="#FFFFFF" d="M11.991,20.115c-0.12,0-0.238,0-0.357,0
	c-0.301-0.002-0.298-0.002-0.296,0.287c0,0.096,0.034,0.125,0.13,0.123c0.278-0.004,0.556,0.002,0.835-0.002
	c0.368-0.006,0.305,0.068,0.314-0.309c0.003-0.08-0.03-0.104-0.109-0.102C12.334,20.117,12.163,20.115,11.991,20.115z"/>
<path fill-rule="evenodd" clip-rule="evenodd" fill="#FFFFFF" d="M14.305,20.115c-0.113,0-0.229,0-0.342,0
	c-0.299,0-0.295,0-0.295,0.289c0,0.096,0.035,0.123,0.131,0.121c0.283-0.004,0.564,0.004,0.846-0.002
	c0.355-0.006,0.303,0.074,0.309-0.316c0-0.072-0.035-0.094-0.105-0.094C14.666,20.117,14.486,20.115,14.305,20.115z"/>
<path fill-rule="evenodd" clip-rule="evenodd" fill="#FFFFFF" d="M16.645,15.666c0,0.109,0,0.219,0,0.328
	c0,0.289,0,0.285,0.299,0.285c0.111,0.002,0.133-0.041,0.133-0.135c-0.004-0.264-0.002-0.529-0.002-0.793
	c0-0.299,0-0.295-0.309-0.291c-0.092,0-0.125,0.023-0.123,0.113C16.648,15.338,16.645,15.502,16.645,15.666z"/>
<path fill-rule="evenodd" clip-rule="evenodd" fill="#FFFFFF" d="M7.309,15.67C7.309,15.67,7.309,15.67,7.309,15.67
	c0-0.111,0-0.219,0-0.328c0.001-0.287,0.001-0.281-0.304-0.281c-0.1,0-0.13,0.029-0.128,0.123c0.005,0.264-0.002,0.529,0.003,0.795
	c0.006,0.354-0.071,0.291,0.324,0.299c0.083,0.002,0.107-0.029,0.105-0.104C7.307,16.006,7.309,15.838,7.309,15.67z"/>
<path fill-rule="evenodd" clip-rule="evenodd" fill="#FFFFFF" d="M16.645,13.432c0,0.115,0,0.229,0,0.342
	c0,0.291,0,0.287,0.311,0.283c0.094,0,0.121-0.031,0.121-0.117c-0.004-0.273,0-0.545-0.002-0.82
	c-0.004-0.326,0.063-0.277-0.313-0.287c-0.098,0-0.121,0.037-0.119,0.121C16.648,13.113,16.645,13.273,16.645,13.432z"/>
<path fill-rule="evenodd" clip-rule="evenodd" fill="#FFFFFF" d="M9.646,20.523c0.11,0,0.22,0.002,0.33,0
	c0.364-0.008,0.299,0.063,0.309-0.301c0.002-0.082-0.026-0.111-0.113-0.109c-0.291,0.004-0.582-0.002-0.873,0.002
	c-0.344,0.006-0.29-0.068-0.297,0.301c-0.001,0.08,0.03,0.111,0.116,0.109C9.293,20.521,9.469,20.525,9.646,20.523z"/>
<path fill-rule="evenodd" clip-rule="evenodd" fill="#FFFFFF" d="M6.879,13.447c0,0.107,0,0.217,0,0.326
	c-0.001,0.285-0.001,0.281,0.301,0.285c0.111,0,0.132-0.039,0.13-0.133c-0.004-0.268,0.002-0.537-0.002-0.807
	c-0.006-0.33,0.07-0.277-0.311-0.285c-0.096-0.002-0.121,0.037-0.119,0.121C6.882,13.117,6.88,13.281,6.879,13.447z"/>
<path fill-rule="evenodd" clip-rule="evenodd" fill="#FFFFFF" d="M11.973,11.222c0.115,0,0.229,0,0.344,0c0.308,0,0.304,0,0.3-0.296
	c-0.001-0.092-0.036-0.115-0.125-0.114c-0.283,0.003-0.565-0.001-0.848,0.002c-0.36,0.005-0.296-0.066-0.306,0.304
	c-0.003,0.086,0.035,0.107,0.118,0.105C11.628,11.22,11.8,11.222,11.973,11.222z"/>
<path fill-rule="evenodd" clip-rule="evenodd" fill="#FFFFFF" d="M9.637,11.222c0.114,0,0.229,0,0.343,0c0.311,0,0.307,0,0.306-0.29
	c0-0.097-0.039-0.122-0.132-0.121c-0.286,0.004-0.573-0.001-0.859,0.002C8.958,10.818,9.009,10.757,9,11.107
	c-0.002,0.085,0.026,0.121,0.121,0.117C9.292,11.218,9.465,11.222,9.637,11.222z"/>
<g>
	<path fill-rule="evenodd" clip-rule="evenodd" fill="#292D32" stroke="#292D32" stroke-width="0.2" stroke-miterlimit="10" d="
		M16.823,19.573c-0.104-0.002-0.145,0.025-0.16,0.129c-0.041,0.281-0.178,0.426-0.443,0.459c-0.152,0.018-0.217,0.07-0.18,0.197
		c0,0.059-0.014,0.107,0.002,0.143s0.063,0.086,0.092,0.084c0.439-0.02,0.844-0.186,0.941-0.719
		C17.138,19.524,17.136,19.585,16.823,19.573z"/>
	<path fill-rule="evenodd" clip-rule="evenodd" fill="#292D32" stroke="#292D32" stroke-width="0.2" stroke-miterlimit="10" d="
		M7.781,20.161c-0.221-0.041-0.362-0.164-0.413-0.375c-0.052-0.209-0.05-0.211-0.282-0.209c-0.022,0-0.044,0-0.066-0.002
		c-0.08-0.004-0.107,0.029-0.105,0.105c0.014,0.502,0.32,0.83,0.84,0.895c0.226,0.029,0.226,0.029,0.225-0.189
		C7.979,20.2,7.979,20.2,7.781,20.161z"/>
	<path fill-rule="evenodd" clip-rule="evenodd" fill="#292D32" stroke="#292D32" stroke-width="0.2" stroke-miterlimit="10" d="
		M16.171,11.305c0.293,0.039,0.447,0.17,0.482,0.423c0.02,0.146,0.074,0.205,0.207,0.171c0.063,0,0.111,0.012,0.15-0.003
		c0.037-0.015,0.09-0.059,0.088-0.088c-0.021-0.386-0.164-0.791-0.746-0.893c-0.383-0.067-0.303-0.055-0.316,0.239
		C16.032,11.252,16.062,11.291,16.171,11.305z"/>
	<path fill-rule="evenodd" clip-rule="evenodd" fill="#292D32" stroke="#292D32" stroke-width="0.2" stroke-miterlimit="10" d="
		M7.177,11.903c0.125,0.005,0.165-0.036,0.181-0.15c0.038-0.258,0.182-0.396,0.435-0.441c0.186-0.034,0.186-0.034,0.185-0.22
		c0-0.042,0.012-0.088-0.003-0.125c-0.014-0.033-0.058-0.078-0.087-0.077c-0.448,0.018-0.858,0.195-0.95,0.742
		C6.885,11.949,6.893,11.89,7.177,11.903z"/>
	<path fill-rule="evenodd" clip-rule="evenodd" fill="#292D32" stroke="#292D32" stroke-width="0.2" stroke-miterlimit="10" d="
		M17.106,17.64c0-0.295,0-0.291-0.307-0.291c-0.105,0-0.127,0.039-0.125,0.127c0.004,0.27,0.002,0.537,0.002,0.807
		c0,0.307,0,0.303,0.32,0.291c0.088-0.002,0.111-0.037,0.111-0.115c-0.004-0.164-0.002-0.328-0.002-0.49
		C17.106,17.858,17.106,17.749,17.106,17.64z"/>
	<path fill-rule="evenodd" clip-rule="evenodd" fill="#292D32" stroke="#292D32" stroke-width="0.2" stroke-miterlimit="10" d="
		M7.233,18.573c0.079,0.002,0.111-0.025,0.109-0.102c-0.004-0.17-0.001-0.336-0.001-0.504c0-0.109,0-0.219,0-0.328
		c0-0.295,0-0.291-0.306-0.291c-0.104,0.002-0.126,0.039-0.125,0.127c0.004,0.27-0.002,0.537,0.002,0.807
		C6.917,18.618,6.847,18.565,7.233,18.573z"/>
	<path fill-rule="evenodd" clip-rule="evenodd" fill="#292D32" stroke="#292D32" stroke-width="0.2" stroke-miterlimit="10" d="
		M14.858,10.881c-0.172,0.004-0.344,0.001-0.516,0.001c-0.115,0-0.23,0-0.346,0c-0.299,0.001-0.295,0.001-0.297,0.288
		c0,0.092,0.025,0.125,0.127,0.123c0.285-0.005,0.572,0.002,0.859-0.002c0.346-0.005,0.291,0.068,0.299-0.296
		C14.987,10.902,14.944,10.88,14.858,10.881z"/>
	<path fill-rule="evenodd" clip-rule="evenodd" fill="#292D32" stroke="#292D32" stroke-width="0.2" stroke-miterlimit="10" d="
		M12.539,20.183c-0.173,0.004-0.344,0.002-0.517,0.002c-0.12,0-0.238,0-0.357,0c-0.301-0.002-0.298-0.002-0.296,0.287
		c0,0.096,0.034,0.125,0.13,0.123c0.278-0.004,0.556,0.002,0.835-0.002c0.368-0.006,0.306,0.068,0.314-0.309
		C12.651,20.204,12.618,20.181,12.539,20.183z"/>
	<path fill-rule="evenodd" clip-rule="evenodd" fill="#292D32" stroke="#292D32" stroke-width="0.2" stroke-miterlimit="10" d="
		M14.88,20.183c-0.182,0.004-0.361,0.002-0.543,0.002c-0.113,0-0.229,0-0.342,0c-0.299,0-0.295,0-0.295,0.289
		c0,0.096,0.035,0.123,0.131,0.121c0.283-0.004,0.564,0.004,0.846-0.002c0.355-0.006,0.303,0.074,0.309-0.316
		C14.985,20.204,14.95,20.183,14.88,20.183z"/>
	<path fill-rule="evenodd" clip-rule="evenodd" fill="#292D32" stroke="#292D32" stroke-width="0.2" stroke-miterlimit="10" d="
		M16.798,15.13c-0.092,0-0.125,0.023-0.123,0.113c0.006,0.164,0.002,0.328,0.002,0.492c0,0.109,0,0.219,0,0.328
		c0,0.289,0,0.285,0.299,0.285c0.111,0.002,0.133-0.041,0.133-0.135c-0.004-0.264-0.002-0.529-0.002-0.793
		C17.106,15.122,17.106,15.126,16.798,15.13z"/>
	<path fill-rule="evenodd" clip-rule="evenodd" fill="#292D32" stroke="#292D32" stroke-width="0.2" stroke-miterlimit="10" d="
		M7.236,16.347c0.083,0.002,0.107-0.029,0.105-0.104c-0.003-0.168-0.001-0.336-0.001-0.504c0,0,0,0,0,0c0-0.111,0-0.219,0-0.328
		c0.001-0.287,0.001-0.281-0.304-0.281c-0.1,0-0.13,0.029-0.128,0.123c0.005,0.264-0.002,0.529,0.003,0.795
		C6.918,16.401,6.841,16.339,7.236,16.347z"/>
	<path fill-rule="evenodd" clip-rule="evenodd" fill="#292D32" stroke="#292D32" stroke-width="0.2" stroke-miterlimit="10" d="
		M16.794,12.901c-0.098,0-0.121,0.037-0.119,0.121c0.006,0.16,0.002,0.32,0.002,0.479c0,0.115,0,0.229,0,0.342
		c0,0.291,0,0.287,0.311,0.283c0.094,0,0.121-0.031,0.121-0.117c-0.004-0.273,0-0.545-0.002-0.82
		C17.103,12.862,17.169,12.911,16.794,12.901z"/>
	<path fill-rule="evenodd" clip-rule="evenodd" fill="#292D32" stroke="#292D32" stroke-width="0.2" stroke-miterlimit="10" d="
		M10.203,20.183c-0.291,0.004-0.582-0.002-0.873,0.002c-0.344,0.006-0.29-0.068-0.297,0.301c-0.001,0.08,0.03,0.111,0.116,0.109
		c0.176-0.004,0.352,0,0.529-0.002c0.11,0,0.22,0.002,0.33,0c0.364-0.008,0.299,0.063,0.309-0.301
		C10.318,20.21,10.29,20.181,10.203,20.183z"/>
	<path fill-rule="evenodd" clip-rule="evenodd" fill="#292D32" stroke="#292D32" stroke-width="0.2" stroke-miterlimit="10" d="
		M6.911,13.843c-0.001,0.285-0.001,0.281,0.301,0.285c0.111,0,0.132-0.039,0.13-0.133c-0.004-0.268,0.002-0.537-0.002-0.807
		c-0.006-0.33,0.07-0.277-0.311-0.285c-0.096-0.002-0.121,0.037-0.119,0.121c0.004,0.162,0.001,0.326,0.001,0.492
		C6.911,13.624,6.911,13.733,6.911,13.843z"/>
	<path fill-rule="evenodd" clip-rule="evenodd" fill="#292D32" stroke="#292D32" stroke-width="0.2" stroke-miterlimit="10" d="
		M12.524,10.881c-0.283,0.003-0.565-0.001-0.848,0.002c-0.36,0.005-0.296-0.066-0.306,0.304c-0.003,0.086,0.035,0.107,0.118,0.105
		c0.172-0.004,0.344-0.001,0.517-0.001c0.115,0,0.229,0,0.344,0c0.309,0,0.305,0,0.301-0.296
		C12.648,10.904,12.613,10.88,12.524,10.881z"/>
	<path fill-rule="evenodd" clip-rule="evenodd" fill="#292D32" stroke="#292D32" stroke-width="0.2" stroke-miterlimit="10" d="
		M10.185,10.881c-0.286,0.004-0.573-0.001-0.859,0.002c-0.336,0.004-0.285-0.057-0.293,0.293c-0.002,0.085,0.026,0.121,0.121,0.117
		c0.171-0.005,0.344-0.001,0.516-0.001c0.114,0,0.229,0,0.343,0c0.311,0,0.307,0,0.306-0.29
		C10.317,10.904,10.279,10.88,10.185,10.881z"/>
</g>
<path fill-rule="evenodd" clip-rule="evenodd" fill="#292D32" d="M11.44,18.417c0.163-0.045,0.294-0.12,0.412-0.238
	c0.635-0.638,1.272-1.273,1.909-1.909l0.994-0.991c0.065-0.066,0.133-0.133,0.192-0.204c0.322-0.387,0.44-0.824,0.352-1.302
	c-0.116-0.635-0.482-1.053-1.087-1.242c-0.605-0.197-1.16-0.057-1.626,0.404c-1.017,1.007-2.028,2.02-3.038,3.034
	c-0.079,0.08-0.139,0.172-0.165,0.252c-0.229,0.729-0.454,1.468-0.669,2.197c-0.078,0.264,0.037,0.485,0.305,0.592
	c0.017,0.008,0.029,0.015,0.04,0.022h0.181l0.698-0.196C10.438,18.695,10.938,18.555,11.44,18.417z M13.166,13.677
	c0.199-0.244,0.434-0.341,0.704-0.28c0.266,0.058,0.445,0.232,0.506,0.493c0.063,0.28-0.032,0.529-0.278,0.721l-0.069,0.054
	l-0.92-0.917L13.166,13.677z M9.899,17.718c0.025-0.086,0.052-0.169,0.077-0.25c0.055-0.175,0.107-0.341,0.147-0.508
	c0.058-0.242,0.182-0.449,0.39-0.651c0.469-0.454,0.937-0.925,1.391-1.38l0.332-0.333c0.017-0.017,0.031-0.044,0.044-0.067
	l0.084-0.143l0.983,0.985l-0.958,0.954c-0.361,0.361-0.722,0.723-1.086,1.08c-0.068,0.067-0.163,0.122-0.267,0.153
	c-0.254,0.076-0.51,0.146-0.777,0.219l-0.411,0.113L9.899,17.718z"/>
</svg>
