<?xml version="1.0" encoding="UTF-8" standalone="no"?>
<!-- Created with Inkscape (http://www.inkscape.org/) -->

<svg
   xmlns:dc="http://purl.org/dc/elements/1.1/"
   xmlns:cc="http://creativecommons.org/ns#"
   xmlns:rdf="http://www.w3.org/1999/02/22-rdf-syntax-ns#"
   xmlns:svg="http://www.w3.org/2000/svg"
   xmlns="http://www.w3.org/2000/svg"
   xmlns:sodipodi="http://sodipodi.sourceforge.net/DTD/sodipodi-0.dtd"
   xmlns:inkscape="http://www.inkscape.org/namespaces/inkscape"
   version="1.1"
   id="svg815"
   width="512"
   height="512"
   viewBox="0 0 512 512"
   sodipodi:docname="bubble.svg"
   inkscape:version="0.92.4 (5da689c313, 2019-01-14)">
  <metadata
     id="metadata821">
    <rdf:RDF>
      <cc:Work
         rdf:about="">
        <dc:format>image/svg+xml</dc:format>
        <dc:type
           rdf:resource="http://purl.org/dc/dcmitype/StillImage" />
        <dc:title />
      </cc:Work>
    </rdf:RDF>
  </metadata>
  <defs
     id="defs819" />
  <sodipodi:namedview
     pagecolor="#ffffff"
     bordercolor="#666666"
     borderopacity="1"
     objecttolerance="10"
     gridtolerance="10"
     guidetolerance="10"
     inkscape:pageopacity="0"
     inkscape:pageshadow="2"
     inkscape:window-width="3840"
     inkscape:window-height="2035"
     id="namedview817"
     showgrid="false"
     inkscape:zoom="3.4335938"
     inkscape:cx="150.86235"
     inkscape:cy="256"
     inkscape:window-x="-13"
     inkscape:window-y="-13"
     inkscape:window-maximized="1"
     inkscape:current-layer="svg815" />
  <path
     style="fill:#000000;stroke-width:12;stroke:#000000;stroke-opacity:1;stroke-miterlimit:4;stroke-dasharray:none"
     d="m 123.75,430.79874 c -1.89158,-0.83496 -2.99805,-2.07362 -4.0049,-4.48334 -0.72128,-1.72628 -0.72276,-2.33532 -0.0163,-6.7317 0.42719,-2.65853 1.20779,-7.7587 1.73467,-11.3337 0.52688,-3.575 1.98151,-13.1375 3.23251,-21.25 1.251,-8.1125 3.05693,-20.36244 4.01318,-27.22208 l 1.73864,-12.47208 -4.40969,-6.52792 C 115.27198,324.84023 107.54774,309.75923 103.10358,296 c -6.25381,-19.36193 -8.066965,-29.81667 -8.45466,-48.75 -0.336065,-16.41179 0.88088,-29.37875 3.91823,-41.75 5.98814,-24.38995 17.17364,-46.76015 32.84264,-65.68295 5.0251,-6.0686 15.79673,-17.0453 21.14297,-21.54549 5.07023,-4.26785 16.86135,-12.5361 23.11796,-16.21093 18.74709,-11.01114 41.75064,-18.834225 62.59842,-21.28858 8.46167,-0.99617 26.90797,-1.016235 35.23392,-0.03835 45.2291,5.312295 87.05443,30.28592 113.99148,68.06356 13.18538,18.49172 22.80239,40.31706 27.2316,61.80081 6.6758,32.38074 2.73273,68.87128 -10.71408,99.15193 -12.77959,28.77816 -33.52708,53.61451 -58.51206,70.04345 -22.11027,14.53867 -43.57104,22.67606 -70,26.54226 -8.71057,1.27424 -30.12062,1.27404 -38.75,-3.6e-4 -13.58803,-2.00671 -26.36472,-5.52709 -39.63815,-10.92159 -4.89192,-1.98813 -8.98733,-3.37666 -9.44328,-3.2017 -0.94968,0.36443 -33.47182,22.15481 -46.41857,31.10123 -4.95,3.42053 -9.83479,6.66185 -10.85508,7.20293 -2.13439,1.1319 -4.49345,1.2322 -6.64492,0.28252 z M 151.28045,399.625 c 8.40229,-5.70625 18.35773,-12.48195 22.12321,-15.0571 12.81859,-8.76643 13.61635,-8.98482 20.4656,-5.60258 12.20829,6.02859 29.60537,11.35241 43.44875,13.2961 7.01506,0.98495 29.69754,1.13786 36.93199,0.24897 10.2186,-1.25555 23.1936,-4.53936 33.52657,-8.48515 5.26643,-2.01106 17.91766,-8.22219 22.97343,-11.27882 6.52901,-3.94732 15.89889,-10.84538 15.26437,-11.23754 -0.38193,-0.23604 -0.18756,-0.60966 0.58079,-1.11639 0.63516,-0.41889 3.40484,-2.85437 6.15484,-5.41217 2.75,-2.55781 6.27445,-5.71147 7.83209,-7.00813 8.60011,-7.15914 20.6777,-23.84493 27.66617,-38.22219 3.23461,-6.65451 8.58328,-20.09247 8.99568,-22.6007 0.64481,-3.92172 1.26965,-6.76993 2.28141,-10.3993 3.03127,-10.87379 4.83812,-27.81403 4.27301,-40.0619 -1.19421,-25.8822 -9.98436,-53.09135 -24.1081,-74.62456 C 365.97447,141.1523 352.64378,127.34519 334.43043,115.18618 327.79221,110.75459 317.21366,105.03773 310.5,102.2537 297.9373,97.04419 283.66999,93.43631 270,92.01218 c -6.11697,-0.63726 -22.38304,-0.63726 -28.5,0 -26.9942,2.81224 -52.03234,12.96726 -74,30.01307 -6.39422,4.9616 -18.15774,16.53065 -23.36093,22.97475 -15.70185,19.44656 -27.74239,44.71965 -32.86574,68.98514 -4.21743,19.97477 -3.79255,46.85768 0.98014,62.01486 0.64943,2.0625 1.55336,5.55 2.00871,7.75 3.03898,14.68243 13.01727,34.76904 25.41296,51.15704 2.01474,2.66363 3.92454,5.33442 4.24401,5.93509 1.25775,2.36486 0.89087,5.80329 -4.9518,46.40787 -1.66195,11.55 -3.13716,21.39375 -3.27823,21.875 -0.14108,0.48125 -0.12804,0.875 0.029,0.875 0.15701,0 7.16007,-4.66875 15.56235,-10.375 z"
     id="path825"
     inkscape:connector-curvature="0" />
</svg>
