<?xml version="1.0" encoding="utf-8"?>
<!-- Generator: Adobe Illustrator 16.0.0, SVG Export Plug-In . SVG Version: 6.00 Build 0)  -->
<!DOCTYPE svg PUBLIC "-//W3C//DTD SVG 1.1//EN" "http://www.w3.org/Graphics/SVG/1.1/DTD/svg11.dtd">
<svg version="1.1" id="Vrstva_1" xmlns="http://www.w3.org/2000/svg" xmlns:xlink="http://www.w3.org/1999/xlink" x="0px" y="0px"
	 width="56.689px" height="56.689px" viewBox="0 0 56.689 56.689" enable-background="new 0 0 56.689 56.689" xml:space="preserve">
<g>
	<g>
		<path fill="#FF9518" d="M2.398,41.912l9.121-30.292c0.273-0.911,1.268-1.648,2.22-1.648h29.556c0.951,0,1.938,0.739,2.203,1.653
			l8.797,30.287"/>
		<path fill="#231F20" d="M54.775,41.769l-0.96,0.279l-8.8-30.29c-0.2-0.699-0.99-1.29-1.721-1.29h-29.56
			c-0.729,0-1.53,0.591-1.74,1.29l-7.88,26.17l-1.239,4.131l-0.96-0.29l9.13-30.29c0.33-1.13,1.521-2.011,2.689-2.011h29.561
			c1.181,0,2.351,0.891,2.681,2.021L54.775,41.769z"/>
	</g>
	<g>
		<path fill="#FFEACE" d="M53.796,41.909c0,2.381-1.931,4.312-4.311,4.312H7.205c-2.369,0-4.31-1.931-4.31-4.312
			c0-2.369,1.939-4.31,4.31-4.31h42.28C51.865,37.599,53.796,39.54,53.796,41.909z"/>
		<path fill="#231F20" d="M49.485,36.599H7.205c-1.1,0-2.119,0.34-2.96,0.908c-1.42,0.961-2.35,2.57-2.35,4.4
			c0,2.93,2.38,5.311,5.31,5.311h42.28c2.931,0,5.311-2.381,5.311-5.311C54.796,38.989,52.416,36.599,49.485,36.599z M49.485,46.719
			H7.205c-2.648,0-4.81-2.149-4.81-4.811c0-1.85,1.05-3.46,2.59-4.26c0.46-0.25,0.97-0.42,1.5-0.49c0.24-0.039,0.479-0.06,0.72-0.06
			h42.28c1.33,0,2.53,0.54,3.399,1.408c0.87,0.871,1.41,2.07,1.41,3.4C54.296,44.569,52.145,46.719,49.485,46.719z"/>
	</g>
	<path fill="#D9EACE" stroke="#231F20" stroke-miterlimit="10" d="M47.773,41.912c0,0.813,0.658,1.471,1.471,1.471l0,0
		c0.813,0,1.471-0.658,1.471-1.471l0,0c0-0.813-0.657-1.471-1.471-1.471l0,0C48.431,40.441,47.773,41.098,47.773,41.912
		L47.773,41.912z"/>
	<path fill="#D9EACE" stroke="#231F20" stroke-miterlimit="10" d="M33.873,41.984c0,1.517,0.982,2.745,2.193,2.745h6.756
		c1.213,0,2.195-1.229,2.195-2.745l0,0c0-1.518-0.982-2.745-2.195-2.745h-6.756C34.855,39.239,33.873,40.468,33.873,41.984
		L33.873,41.984z"/>
	<g>
		<path fill="#DE9518" d="M15.296,10.469L8.535,36.599h-1.33c-1.1,0-2.119,0.34-2.96,0.908l7.75-25.749
			c0.21-0.699,1.011-1.29,1.74-1.29H15.296z"/>
	</g>
	<path fill="#231F20" d="M52.885,38.509c-0.869-0.868-2.069-1.408-3.399-1.408H7.205c-0.239,0-0.479,0.021-0.72,0.06
		c-0.53,0.07-1.04,0.24-1.5,0.49c-1.54,0.8-2.59,2.41-2.59,4.26c0,2.66,2.16,4.812,4.81,4.812h42.28c2.66,0,4.811-2.15,4.811-4.812
		C54.296,40.579,53.756,39.38,52.885,38.509z M49.485,46.219H7.205c-2.369,0-4.31-1.93-4.31-4.311c0-2.369,1.939-4.31,4.31-4.31
		h42.28c2.38,0,4.311,1.939,4.311,4.31C53.796,44.29,51.865,46.219,49.485,46.219z"/>
	<path fill="#D9EACE" d="M7.275,46.219h-0.07c-2.369,0-4.31-1.93-4.31-4.311c0-2.369,1.939-4.31,4.31-4.31h0.841
		C7.065,38.249,2.995,41.419,7.275,46.219z"/>
</g>
</svg>
