<?xml version="1.0" encoding="utf-8"?>
<!-- Generator: Adobe Illustrator 16.0.0, SVG Export Plug-In . SVG Version: 6.00 Build 0)  -->
<!DOCTYPE svg PUBLIC "-//W3C//DTD SVG 1.1//EN" "http://www.w3.org/Graphics/SVG/1.1/DTD/svg11.dtd">
<svg version="1.1" id="Vrstva_1" xmlns="http://www.w3.org/2000/svg" xmlns:xlink="http://www.w3.org/1999/xlink" x="0px" y="0px"
	 width="24px" height="24px" viewBox="0 0 24 24" enable-background="new 0 0 24 24" xml:space="preserve">
<g>
	<path fill="#292D32" d="M11.548,21.76c-5.652,0-10.25-4.6-10.25-10.252c0-5.651,4.598-10.25,10.25-10.25
		c5.652,0,10.25,4.599,10.25,10.25C21.798,17.16,17.2,21.76,11.548,21.76z M11.548,2.758c-4.825,0-8.75,3.926-8.75,8.75
		c0,4.826,3.925,8.752,8.75,8.752c4.824,0,8.75-3.926,8.75-8.752C20.298,6.684,16.372,2.758,11.548,2.758z"/>
</g>
<path fill="none" stroke="#292D32" stroke-width="1.5" stroke-linecap="round" stroke-linejoin="round" d="M22,22l-2-2"/>
<path fill="none" stroke="#292D32" stroke-width="0.8" stroke-linecap="round" stroke-linejoin="round" d="M13.591,7.617h3.336"/>
<path fill="none" stroke="#292D32" stroke-width="0.8" stroke-linecap="round" stroke-linejoin="round" d="M15.259,9.285V5.948"/>
<g>
	<path fill="none" stroke="#292D32" stroke-width="1.4" stroke-linecap="round" stroke-linejoin="round" d="M7.64,11.509h7.816"/>
	<path fill="none" stroke="#292D32" stroke-width="1.4" stroke-linecap="round" stroke-linejoin="round" d="M11.549,15.415V7.603"/>
</g>
</svg>
