<?xml version="1.0" encoding="utf-8"?>
<!-- Generator: Adobe Illustrator 16.0.0, SVG Export Plug-In . SVG Version: 6.00 Build 0)  -->
<!DOCTYPE svg PUBLIC "-//W3C//DTD SVG 1.1//EN" "http://www.w3.org/Graphics/SVG/1.1/DTD/svg11.dtd">
<svg version="1.1" id="Vrstva_1" xmlns="http://www.w3.org/2000/svg" xmlns:xlink="http://www.w3.org/1999/xlink" x="0px" y="0px"
	 width="24px" height="24px" viewBox="0 0 24 24" enable-background="new 0 0 24 24" xml:space="preserve">
<g>
	<g>
		<g>
			<rect x="0.745" y="6.124" fill="#EAFF15" width="22.51" height="11.752"/>
		</g>
	</g>
	<g>
		<path fill="#292D32" d="M7.002,14.641H3.57l-0.494,1.212h-1.85l3.14-7.705h1.851l3.141,7.705H7.496L7.002,14.641z M6.431,13.239
			l-1.145-2.815l-1.144,2.814L6.431,13.239L6.431,13.239z"/>
		<path fill="#292D32" d="M16.464,12.947c0,1.783-1.122,3.04-2.669,3.04c-0.809,0-1.48-0.348-1.941-0.952v0.817h-1.637v-7.84h1.637
			v2.849c0.461-0.594,1.133-0.941,1.941-0.941C15.342,9.919,16.464,11.176,16.464,12.947z M14.871,12.947
			c0-0.964-0.641-1.648-1.548-1.648c-0.796,0-1.38,0.584-1.47,1.426v0.447c0.09,0.854,0.674,1.437,1.47,1.437
			C14.23,14.607,14.871,13.922,14.871,12.947z"/>
		<path fill="#292D32" d="M17.289,12.947c0-1.648,1.458-3.027,3.174-3.027c0.941,0,1.717,0.381,2.275,0.986l-1.088,0.932
			c-0.291-0.325-0.75-0.539-1.198-0.539c-0.853,0-1.57,0.753-1.57,1.639c0,0.908,0.718,1.671,1.581,1.671
			c0.448,0,0.92-0.225,1.223-0.562l1.088,0.92c-0.571,0.629-1.356,1.021-2.32,1.021C18.734,15.987,17.289,14.597,17.289,12.947z"/>
	</g>
</g>
</svg>
