<?xml version="1.0" encoding="utf-8"?>
<!-- Generator: Adobe Illustrator 16.0.0, SVG Export Plug-In . SVG Version: 6.00 Build 0)  -->
<!DOCTYPE svg PUBLIC "-//W3C//DTD SVG 1.1//EN" "http://www.w3.org/Graphics/SVG/1.1/DTD/svg11.dtd">
<svg version="1.1" id="Vrstva_1" xmlns="http://www.w3.org/2000/svg" xmlns:xlink="http://www.w3.org/1999/xlink" x="0px" y="0px"
	 width="24px" height="24px" viewBox="0 0 24 24" enable-background="new 0 0 24 24" xml:space="preserve">
<g>
	<path fill-rule="evenodd" clip-rule="evenodd" fill="#292D32" d="M4.264,15.622c0.019-1.215,0.42-2.193,1.216-3.006
		c0.377-0.385,0.761-0.766,1.144-1.145c0.344-0.34,0.816-0.352,1.134-0.033s0.302,0.787-0.042,1.135
		c-0.375,0.379-0.757,0.75-1.131,1.131c-0.737,0.756-0.978,1.654-0.662,2.658c0.317,1.004,1.032,1.611,2.071,1.787
		c0.86,0.146,1.619-0.107,2.248-0.717c0.406-0.391,0.797-0.799,1.199-1.191c0.242-0.236,0.58-0.285,0.875-0.145
		c0.287,0.137,0.48,0.434,0.43,0.752c-0.027,0.174-0.109,0.367-0.229,0.494c-0.414,0.443-0.834,0.883-1.287,1.283
		c-1.23,1.088-2.659,1.387-4.196,0.838c-1.548-0.551-2.451-1.695-2.722-3.324C4.279,15.944,4.276,15.743,4.264,15.622z"/>
	<path fill-rule="evenodd" clip-rule="evenodd" fill="#292D32" d="M15.813,4.268c1.506,0.08,2.838,0.872,3.543,2.507
		c0.701,1.621,0.42,3.146-0.75,4.477c-0.4,0.455-0.848,0.867-1.281,1.291c-0.324,0.318-0.803,0.313-1.105,0
		c-0.307-0.314-0.299-0.779,0.025-1.107c0.396-0.402,0.805-0.791,1.193-1.199c0.713-0.744,0.951-1.627,0.648-2.613
		c-0.299-0.969-0.975-1.579-1.969-1.788c-0.885-0.188-1.672,0.051-2.33,0.671c-0.426,0.404-0.83,0.832-1.25,1.244
		c-0.23,0.227-0.51,0.301-0.818,0.188c-0.299-0.109-0.471-0.332-0.508-0.65c-0.023-0.201,0.014-0.402,0.156-0.543
		c0.604-0.587,1.182-1.204,1.834-1.731C13.872,4.473,14.69,4.272,15.813,4.268z"/>
	<path fill-rule="evenodd" clip-rule="evenodd" fill="#292D32" d="M9.587,15.165c-0.311-0.01-0.545-0.152-0.684-0.43
		s-0.111-0.551,0.068-0.805c0.039-0.055,0.086-0.102,0.134-0.148c1.564-1.564,3.128-3.125,4.691-4.691
		c0.234-0.234,0.502-0.336,0.824-0.244c0.502,0.141,0.715,0.74,0.42,1.172c-0.047,0.07-0.105,0.133-0.166,0.191
		c-1.553,1.557-3.109,3.109-4.662,4.666C10.038,15.05,9.845,15.171,9.587,15.165z"/>
</g>
</svg>
