<?xml version="1.0" encoding="UTF-8" standalone="no"?>
<!-- Created with Inkscape (http://www.inkscape.org/) -->

<svg
   xmlns:dc="http://purl.org/dc/elements/1.1/"
   xmlns:cc="http://creativecommons.org/ns#"
   xmlns:rdf="http://www.w3.org/1999/02/22-rdf-syntax-ns#"
   xmlns:svg="http://www.w3.org/2000/svg"
   xmlns="http://www.w3.org/2000/svg"
   xmlns:sodipodi="http://sodipodi.sourceforge.net/DTD/sodipodi-0.dtd"
   xmlns:inkscape="http://www.inkscape.org/namespaces/inkscape"
   width="30mm"
   height="30mm"
   viewBox="0 0 30 30"
   version="1.1"
   id="svg5291"
   inkscape:version="0.92.4 (5da689c313, 2019-01-14)"
   sodipodi:docname="hyperlink.svg">
  <defs
     id="defs5285" />
  <sodipodi:namedview
     id="base"
     pagecolor="#ffffff"
     bordercolor="#666666"
     borderopacity="1.0"
     inkscape:pageopacity="0.0"
     inkscape:pageshadow="2"
     inkscape:zoom="5.6568542"
     inkscape:cx="101.46447"
     inkscape:cy="10.379569"
     inkscape:document-units="mm"
     inkscape:current-layer="layer1"
     showgrid="false"
     inkscape:window-width="3840"
     inkscape:window-height="2035"
     inkscape:window-x="-13"
     inkscape:window-y="-13"
     inkscape:window-maximized="1" />
  <metadata
     id="metadata5288">
    <rdf:RDF>
      <cc:Work
         rdf:about="">
        <dc:format>image/svg+xml</dc:format>
        <dc:type
           rdf:resource="http://purl.org/dc/dcmitype/StillImage" />
        <dc:title></dc:title>
        <dc:creator>
          <cc:Agent>
            <dc:title>Jakub Melka</dc:title>
          </cc:Agent>
        </dc:creator>
        <cc:license
           rdf:resource="http://creativecommons.org/licenses/by-sa/4.0/" />
      </cc:Work>
      <cc:License
         rdf:about="http://creativecommons.org/licenses/by-sa/4.0/">
        <cc:permits
           rdf:resource="http://creativecommons.org/ns#Reproduction" />
        <cc:permits
           rdf:resource="http://creativecommons.org/ns#Distribution" />
        <cc:requires
           rdf:resource="http://creativecommons.org/ns#Notice" />
        <cc:requires
           rdf:resource="http://creativecommons.org/ns#Attribution" />
        <cc:permits
           rdf:resource="http://creativecommons.org/ns#DerivativeWorks" />
        <cc:requires
           rdf:resource="http://creativecommons.org/ns#ShareAlike" />
      </cc:License>
    </rdf:RDF>
  </metadata>
  <g
     inkscape:label="Vrstva 1"
     inkscape:groupmode="layer"
     id="layer1"
     transform="translate(0,-267)">
    <g
       aria-label="ðŸŒ"
       style="font-style:normal;font-variant:normal;font-weight:normal;font-stretch:normal;font-size:25.39999962px;line-height:1.25;font-family:sans-serif;-inkscape-font-specification:sans-serif;letter-spacing:0px;word-spacing:0px;fill:#000000;fill-opacity:1;stroke:none;stroke-width:0.26458332"
       id="text1215">
      <path
         d="m 15.3305,268.56193 q 1.847949,0 3.54707,0.48369 1.711524,0.47129 3.199805,1.33945 1.488281,0.86817 2.703711,2.096 1.227832,1.21543 2.095996,2.70371 0.868164,1.48828 1.339453,3.1998 0.483691,1.69912 0.483691,3.54707 0,1.84795 -0.483691,3.55948 -0.471289,1.69912 -1.339453,3.1874 -0.868164,1.48828 -2.095996,2.70371 -1.21543,1.22783 -2.703711,2.09599 -1.488281,0.86817 -3.199805,1.33946 -1.699121,0.48369 -3.54707,0.48369 -1.847949,0 -3.559473,-0.48369 -1.699121,-0.47129 -3.1874021,-1.33946 -1.4882812,-0.86816 -2.7161132,-2.09599 -1.2154297,-1.21543 -2.0835937,-2.70371 -0.8681641,-1.48828 -1.3518555,-3.1874 -0.471289,-1.71153 -0.471289,-3.55948 0,-1.84795 0.471289,-3.54707 0.4836914,-1.71152 1.3518555,-3.1998 0.868164,-1.48828 2.0835937,-2.70371 1.227832,-1.22783 2.7161132,-2.096 1.4882811,-0.86816 3.1874021,-1.33945 1.711524,-0.48369 3.559473,-0.48369 z m 0,24.95351 q 1.599902,0 3.075781,-0.42168 1.488281,-0.40928 2.765723,-1.16582 1.289843,-0.74414 2.344043,-1.79834 1.066601,-1.0666 1.810742,-2.34404 0.756543,-1.28984 1.16582,-2.76572 0.42168,-1.48828 0.42168,-3.08819 0,-1.5999 -0.42168,-3.07578 -0.409277,-1.48828 -1.16582,-2.76572 -0.744141,-1.28984 -1.810742,-2.34404 -1.0542,-1.06661 -2.344043,-1.81075 -1.277442,-0.75654 -2.765723,-1.16582 -1.475879,-0.42168 -3.075781,-0.42168 -1.599902,0 -3.088184,0.42168 -1.475879,0.40928 -2.7657223,1.16582 -1.2774414,0.74414 -2.344043,1.81075 -1.0541992,1.0542 -1.8107421,2.34404 -0.7441406,1.27744 -1.1658203,2.76572 -0.4092774,1.47588 -0.4092774,3.07578 0,1.59991 0.4092774,3.08819 0.4216797,1.47588 1.1658203,2.76572 0.7565429,1.27744 1.8107421,2.34404 1.0666016,1.0542 2.344043,1.79834 1.2898433,0.75654 2.7657223,1.16582 1.488282,0.42168 3.088184,0.42168 z m -5.6926759,-16.4083 q -0.2232422,0.96738 -0.3596679,1.94717 -0.1240235,0.97978 -0.1736328,1.98437 h -3.534668 q 0.1364258,-1.51308 0.719336,-2.90214 0.5829101,-1.38907 1.5626953,-2.55489 0.3472656,0.48369 0.8061523,0.86817 0.4588867,0.37207 0.9797851,0.65732 z m -0.5333007,5.71748 q 0.049609,1.00459 0.1736328,1.98438 0.1240234,0.97978 0.3596679,1.94716 -0.5208984,0.28526 -0.9797851,0.66973 -0.4588867,0.37207 -0.8061523,0.85576 -0.9797852,-1.16582 -1.5626953,-2.55488 -0.5829102,-1.38906 -0.719336,-2.90215 z m 12.4519526,-1.78594 q -0.04961,-1.00459 -0.173633,-1.98437 -0.124023,-0.97979 -0.359667,-1.94717 0.520898,-0.28525 0.979785,-0.65732 0.471289,-0.37207 0.806152,-0.86817 0.979785,1.16582 1.562695,2.55489 0.58291,1.38906 0.719336,2.90214 z m -0.5333,5.71748 q 0.248046,-0.96738 0.359667,-1.94716 0.124024,-0.97979 0.173633,-1.98438 h 3.534668 q -0.136426,1.51309 -0.719336,2.90215 -0.58291,1.38906 -1.562695,2.55488 -0.334863,-0.49609 -0.806152,-0.86816 -0.458887,-0.37207 -0.979785,-0.65733 z m -9.711035,-0.69453 q -0.186036,-0.80615 -0.285254,-1.6123 -0.09922,-0.80615 -0.136426,-1.62471 h 3.54707 v 2.70371 q -0.79375,0.0496 -1.575098,0.17364 -0.781347,0.12402 -1.550292,0.35966 z m 8.458398,-3.23701 q -0.03721,0.81856 -0.136426,1.62471 -0.09922,0.80615 -0.285254,1.6123 -0.768945,-0.23564 -1.550293,-0.35966 -0.781347,-0.12403 -1.575097,-0.17364 v -2.70371 z m -8.880078,-1.78594 q 0.03721,-0.81855 0.136426,-1.6247 0.09922,-0.80616 0.285254,-1.61231 0.768945,0.23565 1.550292,0.35967 0.781348,0.12402 1.575098,0.18604 v 2.6913 z m 8.458398,-3.23701 q 0.186035,0.80615 0.285254,1.61231 0.09922,0.80615 0.136426,1.6247 h -3.54707 v -2.6913 q 0.79375,-0.062 1.575097,-0.18604 0.781348,-0.12402 1.550293,-0.35967 z m -3.12539,-5.44463 q 0.483691,0.24805 0.892968,0.68213 0.409278,0.42168 0.744141,0.93018 0.334863,0.50849 0.58291,1.0666 0.248047,0.5457 0.42168,1.0418 -0.644922,0.19843 -1.314649,0.31006 -0.657324,0.11162 -1.32705,0.16123 z m 0,19.14922 v -4.19199 q 0.669726,0.0496 1.32705,0.16123 0.669727,0.11162 1.314649,0.31006 -0.173633,0.49609 -0.42168,1.0542 -0.248047,0.5457 -0.58291,1.0542 -0.334863,0.50849 -0.744141,0.94258 -0.409277,0.42168 -0.892968,0.66972 z m -1.785938,0 q -0.496094,-0.26045 -0.905371,-0.68213 -0.396875,-0.42168 -0.719336,-0.93017 -0.322461,-0.5209 -0.570508,-1.0666 -0.248047,-0.54571 -0.434082,-1.0418 0.644922,-0.19844 1.302246,-0.31006 0.657325,-0.11162 1.327051,-0.16123 z m -2.629297,-15.42851 q 0.186035,-0.4961 0.434082,-1.0418 0.248047,-0.5457 0.570508,-1.0542 0.322461,-0.5209 0.719336,-0.94258 0.409277,-0.42168 0.905371,-0.68213 v 4.192 q -0.669726,-0.0496 -1.327051,-0.16123 -0.657324,-0.11163 -1.302246,-0.31006 z m 9.686231,-1.77354 q -0.136426,0.34727 -0.42168,0.59531 -0.272852,0.24805 -0.58291,0.43409 -0.223242,-0.63252 -0.508496,-1.21543 -0.285254,-0.58291 -0.644922,-1.14102 0.58291,0.27285 1.116211,0.60772 0.545703,0.32246 1.041797,0.71933 z m -1.00459,14.22549 q 0.310058,0.18603 0.58291,0.43408 0.285254,0.24805 0.42168,0.59531 -0.496094,0.39688 -1.041797,0.73174 -0.533301,0.32246 -1.116211,0.59532 0.359668,-0.55811 0.644922,-1.14102 0.285254,-0.58291 0.508496,-1.21543 z m -11.3109376,1.02939 q 0.1364258,-0.33486 0.4092774,-0.58291 0.2728515,-0.26045 0.5829102,-0.44648 0.223242,0.63252 0.508496,1.21543 0.285254,0.58291 0.644922,1.14102 -0.58291,-0.26045 -1.128613,-0.59532 -0.5333012,-0.33486 -1.0169926,-0.73174 z m 0.9921876,-14.22548 q -0.3100587,-0.18604 -0.5829102,-0.43409 -0.2728516,-0.26045 -0.4092774,-0.59531 0.4836914,-0.39687 1.0169926,-0.73174 0.545703,-0.33486 1.128613,-0.59531 -0.359668,0.55811 -0.644922,1.14102 -0.285254,0.58291 -0.508496,1.21543 z"
         style="stroke-width:0.26458332"
         id="path1217"
         inkscape:connector-curvature="0" />
    </g>
  </g>
</svg>
