<?xml version="1.0" encoding="utf-8"?>
<!-- Generator: Adobe Illustrator 16.0.0, SVG Export Plug-In . SVG Version: 6.00 Build 0)  -->
<!DOCTYPE svg PUBLIC "-//W3C//DTD SVG 1.1//EN" "http://www.w3.org/Graphics/SVG/1.1/DTD/svg11.dtd">
<svg version="1.1" id="Vrstva_1" xmlns="http://www.w3.org/2000/svg" xmlns:xlink="http://www.w3.org/1999/xlink" x="0px" y="0px"
	 width="24px" height="24px" viewBox="0 0 24 24" enable-background="new 0 0 24 24" xml:space="preserve">
<g>
	<g>
		<path fill="#292D32" d="M5.534,20.582L5.534,20.582c-1.912,0-3.467-1.553-3.467-3.46V6.88c0-1.909,1.553-3.462,3.46-3.462
			c0.599,0,1.195,0.162,1.725,0.467l8.886,5.128c1.083,0.624,1.729,1.741,1.729,2.99s-0.647,2.365-1.729,2.986l-8.885,5.128
			C6.726,20.422,6.131,20.582,5.534,20.582z M5.527,4.869c-0.966,0-2.009,0.769-2.009,2.011v10.242c0,1.241,1.046,2.01,2.016,2.01
			l0,0c0.348,0,0.683-0.091,0.995-0.272l8.884-5.126c0.629-0.36,1.003-1.009,1.003-1.73c0-0.724-0.374-1.372-1.001-1.732
			L6.527,5.142C6.214,4.961,5.877,4.869,5.527,4.869z"/>
	</g>
	<rect x="19.917" y="3.418" fill="#292D32" width="2.016" height="17.164"/>
</g>
</svg>
