<?xml version="1.0" encoding="utf-8"?>
<!-- Generator: Adobe Illustrator 16.0.0, SVG Export Plug-In . SVG Version: 6.00 Build 0)  -->
<!DOCTYPE svg PUBLIC "-//W3C//DTD SVG 1.1//EN" "http://www.w3.org/Graphics/SVG/1.1/DTD/svg11.dtd">
<svg version="1.1" id="Vrstva_1" xmlns="http://www.w3.org/2000/svg" xmlns:xlink="http://www.w3.org/1999/xlink" x="0px" y="0px"
	 width="24px" height="24px" viewBox="0 0 24 24" enable-background="new 0 0 24 24" xml:space="preserve">
<g>
	<g>
		<path fill="#292D32" d="M11.591,1.116v5.017l-0.54-0.542c-0.16-0.16-0.422-0.16-0.582,0c-0.161,0.16-0.161,0.421,0,0.582
			l1.241,1.243c0.038,0.038,0.084,0.067,0.133,0.089c0.049,0.021,0.104,0.032,0.159,0.032s0.11-0.012,0.157-0.033
			c0.053-0.021,0.097-0.051,0.134-0.088l1.24-1.243c0.082-0.079,0.12-0.184,0.12-0.29c0-0.105-0.038-0.209-0.121-0.29
			c-0.159-0.161-0.422-0.16-0.58,0l-0.54,0.54V1.116c0-0.229-0.185-0.414-0.412-0.414S11.591,0.888,11.591,1.116z"/>
	</g>
	<g>
		<path fill="#292D32" d="M12.409,22.87v-5.018l0.54,0.541c0.16,0.161,0.423,0.161,0.583,0c0.16-0.158,0.16-0.421,0-0.581
			l-1.242-1.243c-0.037-0.037-0.084-0.065-0.133-0.089c-0.049-0.02-0.103-0.031-0.157-0.031c-0.056,0-0.11,0.012-0.158,0.033
			c-0.052,0.021-0.096,0.051-0.133,0.087l-1.241,1.243c-0.082,0.08-0.121,0.185-0.121,0.291c0,0.104,0.039,0.209,0.122,0.29
			c0.159,0.161,0.421,0.159,0.58,0l0.54-0.541v5.018c0,0.229,0.184,0.413,0.411,0.413C12.228,23.283,12.409,23.098,12.409,22.87z"/>
	</g>
	<g>
		<path fill="#292D32" d="M17.923,11.755H6.078c-1.044,0-1.894-0.754-1.894-1.683S5.033,8.39,6.078,8.39h11.845
			c1.044,0,1.894,0.754,1.894,1.683S18.967,11.755,17.923,11.755z M6.078,9.49c-0.43,0-0.793,0.267-0.793,0.583
			s0.363,0.583,0.793,0.583h11.845c0.431,0,0.793-0.267,0.793-0.583S18.354,9.49,17.923,9.49H6.078z"/>
	</g>
	<g>
		<path fill="#292D32" d="M17.923,15.596H6.077c-1.044,0-1.894-0.755-1.894-1.683s0.849-1.683,1.894-1.683h11.846
			c1.044,0,1.894,0.755,1.894,1.683S18.967,15.596,17.923,15.596z M6.077,13.33c-0.43,0-0.793,0.267-0.793,0.583
			c0,0.315,0.363,0.583,0.793,0.583h11.846c0.431,0,0.793-0.268,0.793-0.583c0-0.316-0.362-0.583-0.793-0.583H6.077z"/>
	</g>
</g>
</svg>
