<?xml version="1.0" encoding="utf-8"?>
<!-- Generator: Adobe Illustrator 16.0.0, SVG Export Plug-In . SVG Version: 6.00 Build 0)  -->
<!DOCTYPE svg PUBLIC "-//W3C//DTD SVG 1.1//EN" "http://www.w3.org/Graphics/SVG/1.1/DTD/svg11.dtd">
<svg version="1.1" id="Vrstva_1" xmlns="http://www.w3.org/2000/svg" xmlns:xlink="http://www.w3.org/1999/xlink" x="0px" y="0px"
	 width="24px" height="24px" viewBox="0 0 24 24" enable-background="new 0 0 24 24" xml:space="preserve">
<g>
	<path fill="#292D32" d="M7.596,1.491c0.546,0,0.991,0.443,0.991,0.99v19.036c0,0.545-0.444,0.989-0.991,0.989l0,0
		c-0.547,0-0.991-0.444-0.991-0.989V2.481C6.605,1.935,7.049,1.491,7.596,1.491L7.596,1.491z"/>
	<path fill="#292D32" d="M16.405,1.491c0.547,0,0.99,0.443,0.99,0.99v19.036c0,0.545-0.443,0.989-0.99,0.989l0,0
		c-0.547,0-0.99-0.444-0.99-0.989V2.481C15.415,1.935,15.858,1.491,16.405,1.491L16.405,1.491z"/>
	<path fill="#292D32" d="M11.999,6.869c0.546,0,0.99,0.443,0.99,0.99v13.652c0,0.547-0.443,0.989-0.99,0.989l0,0
		c-0.545,0-0.989-0.442-0.989-0.989V7.859C11.011,7.313,11.454,6.869,11.999,6.869L11.999,6.869z"/>
</g>
</svg>
