<?xml version="1.0" encoding="utf-8"?>
<!-- Generator: Adobe Illustrator 16.0.0, SVG Export Plug-In . SVG Version: 6.00 Build 0)  -->
<!DOCTYPE svg PUBLIC "-//W3C//DTD SVG 1.1//EN" "http://www.w3.org/Graphics/SVG/1.1/DTD/svg11.dtd">
<svg version="1.1" id="Vrstva_1" xmlns="http://www.w3.org/2000/svg" xmlns:xlink="http://www.w3.org/1999/xlink" x="0px" y="0px"
	 width="24px" height="24px" viewBox="0 0 24 24" enable-background="new 0 0 24 24" xml:space="preserve">
<g>
	<path fill="#292D32" d="M21.943,17.113c0.127-0.611,0.19-1.328,0.201-2.186V9.072c-0.014-0.879-0.076-1.573-0.203-2.182
		c-0.246-1.375-0.748-2.43-1.526-3.229c-0.581-0.611-1.371-1.077-2.347-1.386c-0.894-0.278-1.993-0.42-3.266-0.42L9.196,1.859
		c-5.077,0-7.34,2.264-7.34,7.342v5.613c0,5.068,2.265,7.328,7.34,7.328h5.607c1.273,0,2.372-0.143,3.266-0.418
		c0.971-0.301,1.738-0.752,2.35-1.379C21.193,19.549,21.691,18.492,21.943,17.113z M18.137,20.025
		c-0.634,0.281-1.425,0.44-2.421,0.492c-0.297,0.021-0.597,0.028-0.911,0.028H9.196c-4.296,0-5.744-1.444-5.744-5.731V9.199
		c0-4.267,1.526-5.735,5.744-5.756l0,0h5.607c0.325,0,0.637,0.011,0.926,0.028c1,0.062,1.793,0.226,2.42,0.503
		c1.181,0.501,1.877,1.414,2.199,2.872c0.129,0.624,0.191,1.35,0.2,2.223v5.859c-0.009,0.877-0.073,1.602-0.2,2.221
		C20.025,18.615,19.325,19.527,18.137,20.025z"/>
	<g>
		<path fill="none" stroke="#292D32" stroke-miterlimit="10" d="M16.628,8.813H7.373c-0.553,0-1-0.448-1-1V7.125
			c0-0.552,0.447-1,1-1h9.255c0.554,0,1,0.448,1,1v0.688C17.628,8.365,17.182,8.813,16.628,8.813z"/>
		<path fill="none" stroke="#292D32" stroke-miterlimit="10" d="M16.628,13.344H7.372c-0.552,0-1-0.447-1-1v-0.688
			c0-0.553,0.448-1,1-1h9.256c0.554,0,1,0.448,1,1v0.688C17.628,12.896,17.182,13.344,16.628,13.344z"/>
		<path fill="none" stroke="#292D32" stroke-miterlimit="10" d="M16.628,17.875H7.373c-0.552,0-1-0.447-1-1v-0.688
			c0-0.554,0.448-1,1-1h9.255c0.554,0,1,0.446,1,1v0.688C17.628,17.428,17.182,17.875,16.628,17.875z"/>
	</g>
</g>
</svg>
