<?xml version="1.0" encoding="utf-8"?>
<!-- Generator: Adobe Illustrator 16.0.0, SVG Export Plug-In . SVG Version: 6.00 Build 0)  -->
<!DOCTYPE svg PUBLIC "-//W3C//DTD SVG 1.1//EN" "http://www.w3.org/Graphics/SVG/1.1/DTD/svg11.dtd">
<svg version="1.1" id="Vrstva_1" xmlns="http://www.w3.org/2000/svg" xmlns:xlink="http://www.w3.org/1999/xlink" x="0px" y="0px"
	 width="24px" height="24px" viewBox="0 0 24 24" enable-background="new 0 0 24 24" xml:space="preserve">
<g>
	<circle fill="#FFF10A" cx="11.064" cy="10.958" r="8.041"/>
	<path fill="#292D32" d="M19.836,13.828c-0.115,0-0.225,0.018-0.336,0.047c-0.113-0.285-0.307-0.496-0.574-0.621
		c-0.27-0.133-0.557-0.152-0.848-0.063c-0.205-0.393-0.422-0.584-0.695-0.645l-0.041-0.016C17.236,12.51,17.15,12.496,17,12.508
		c-0.082,0.008-0.158,0.025-0.223,0.045V12.43v-0.844c0-0.625-0.301-1.028-0.893-1.198c-0.08-0.019-0.162-0.028-0.252-0.028
		c-0.059,0-0.152,0.004-0.273,0.031c-0.59,0.179-0.879,0.573-0.879,1.213v4.206c-0.008-0.014-0.018-0.025-0.025-0.039
		c-0.07-0.102-0.141-0.203-0.213-0.301c-0.316-0.43-0.764-0.613-1.279-0.533c-0.461,0.076-0.834,0.354-1.02,0.766
		c-0.184,0.408-0.146,0.891,0.104,1.289c0.61,0.973,1.225,1.941,1.848,2.908c0.314,0.494,0.764,0.84,1.332,1.033l0.061,0.018
		c0.523,0.129,0.93,0.133,0.949,0.133h2.178l0.16-0.029c0.115-0.021,0.234-0.047,0.35-0.076c1.191-0.33,2.033-1.418,2.047-2.645
		c0.012-1.059,0.006-2.137,0.002-3.18v-0.166C20.969,14.336,20.469,13.828,19.836,13.828z M20.072,18.252
		c0,0.92-0.6,1.68-1.484,1.883c-0.137,0.031-0.281,0.047-0.434,0.047c-0.68,0.006-1.355,0.008-2.039,0
		c-0.652-0.004-1.16-0.285-1.506-0.832c-0.486-0.758-0.967-1.52-1.449-2.281l-0.359-0.566c-0.113-0.178-0.098-0.393,0.039-0.541
		c0.086-0.094,0.203-0.148,0.326-0.148c0.068,0,0.135,0.02,0.195,0.053c0.064,0.039,0.127,0.096,0.166,0.154
		c0.377,0.553,0.752,1.107,1.135,1.676c0.031,0.035,0.193,0.215,0.387,0.215c0.066,0,0.189-0.021,0.291-0.195
		c0.027-0.068,0.041-0.188,0.041-0.361V11.55c0-0.209,0.1-0.265,0.184-0.288c0.145-0.039,0.293,0.063,0.309,0.204
		c0.004,0.044,0.004,0.092,0.004,0.138v3.285c0.01,0.127,0.07,0.381,0.426,0.381h0.102c0,0,0.129-0.002,0.24-0.117
		c0.123-0.115,0.133-0.596,0.133-0.596c0-0.297,0-0.594,0-0.891c0.002-0.168,0.1-0.279,0.254-0.279
		c0.141,0.002,0.244,0.109,0.244,0.258c0.004,0.326,0,0.65,0,0.975v0.383c0.006,0.082,0.055,0.223,0.34,0.268h0.234
		c0.359,0.031,0.326-0.311,0.326-0.311v-0.346v-0.311c0.002-0.158,0.107-0.268,0.252-0.268c0.143,0,0.248,0.107,0.25,0.256
		c0.004,0.178,0.004,0.357,0.002,0.535c0,0-0.002,0.439,0.279,0.439h0.25c0,0,0.223-0.014,0.275-0.324l0,0
		c0.045-0.127,0.139-0.25,0.342-0.217c0.131,0,0.242,0.104,0.246,0.23l0.004,1.141C20.076,16.814,20.076,17.533,20.072,18.252z"/>
</g>
</svg>
