<?xml version="1.0" encoding="utf-8"?>
<!-- Generator: Adobe Illustrator 16.0.0, SVG Export Plug-In . SVG Version: 6.00 Build 0)  -->
<!DOCTYPE svg PUBLIC "-//W3C//DTD SVG 1.1//EN" "http://www.w3.org/Graphics/SVG/1.1/DTD/svg11.dtd">
<svg version="1.1" id="Vrstva_1" xmlns="http://www.w3.org/2000/svg" xmlns:xlink="http://www.w3.org/1999/xlink" x="0px" y="0px"
	 width="24px" height="24px" viewBox="0 0 24 24" enable-background="new 0 0 24 24" xml:space="preserve">
<g>
	<path fill="#292D32" d="M20.229,11.733c-0.031-0.089-0.086-0.166-0.154-0.223l-2.135-2.138c-0.139-0.145-0.314-0.209-0.496-0.209
		c-0.178,0-0.361,0.068-0.496,0.209c-0.279,0.269-0.279,0.719,0,0.995l0.885,0.885h-0.369H6.476H6.107l0.884-0.885
		c0.277-0.276,0.277-0.727,0-0.995C6.855,9.23,6.673,9.163,6.494,9.163c-0.182,0-0.357,0.065-0.496,0.209L3.865,11.51
		c-0.068,0.057-0.124,0.134-0.155,0.223c-0.046,0.077-0.06,0.172-0.06,0.268c0.014,0.087,0.031,0.183,0.065,0.265
		c0.035,0.084,0.085,0.166,0.153,0.229l2.134,2.133c0.277,0.281,0.727,0.281,1.002,0c0.276-0.275,0.276-0.723,0-1l-0.893-0.883
		h0.363H12.6h0.738h4.125h0.363l-0.893,0.883c-0.275,0.277-0.275,0.725,0,1c0.275,0.281,0.725,0.281,1.002,0l2.135-2.133
		c0.066-0.063,0.117-0.145,0.152-0.229c0.035-0.082,0.051-0.177,0.066-0.265C20.289,11.905,20.273,11.81,20.229,11.733z"/>
	<path fill="#292D32" d="M22.572,16.625c0,0.432-0.334,0.781-0.746,0.781l0,0c-0.412,0-0.744-0.35-0.744-0.781v-9.25
		c0-0.432,0.332-0.781,0.744-0.781l0,0c0.412,0,0.746,0.35,0.746,0.781V16.625z"/>
	<path fill="#292D32" d="M2.917,16.625c0,0.432-0.333,0.781-0.745,0.781l0,0c-0.412,0-0.745-0.35-0.745-0.781v-9.25
		c0-0.432,0.333-0.781,0.745-0.781l0,0c0.412,0,0.745,0.35,0.745,0.781V16.625z"/>
</g>
</svg>
