<?xml version="1.0" encoding="utf-8"?>
<!-- Generator: Adobe Illustrator 16.0.0, SVG Export Plug-In . SVG Version: 6.00 Build 0)  -->
<!DOCTYPE svg PUBLIC "-//W3C//DTD SVG 1.1//EN" "http://www.w3.org/Graphics/SVG/1.1/DTD/svg11.dtd">
<svg version="1.1" id="Vrstva_1" xmlns="http://www.w3.org/2000/svg" xmlns:xlink="http://www.w3.org/1999/xlink" x="0px" y="0px"
	 width="24px" height="24px" viewBox="0 0 24 24" enable-background="new 0 0 24 24" xml:space="preserve">
<g>
	<g>
		<g>
			<path fill="#292D32" d="M17.221,14.709c-0.115,0-0.225,0.018-0.336,0.047c-0.113-0.285-0.307-0.496-0.574-0.621
				c-0.27-0.133-0.557-0.152-0.848-0.063c-0.205-0.393-0.422-0.584-0.695-0.645l-0.041-0.016c-0.105-0.021-0.191-0.035-0.342-0.023
				c-0.082,0.008-0.158,0.025-0.223,0.045v-0.123v-0.845c0-0.625-0.301-1.028-0.893-1.198c-0.08-0.019-0.162-0.028-0.252-0.028
				c-0.059,0-0.152,0.004-0.273,0.031c-0.59,0.179-0.879,0.573-0.879,1.213v4.207c-0.008-0.014-0.018-0.025-0.025-0.039
				c-0.07-0.102-0.141-0.203-0.213-0.301c-0.316-0.43-0.763-0.613-1.279-0.533c-0.461,0.076-0.834,0.354-1.02,0.766
				c-0.184,0.408-0.146,0.891,0.104,1.289c0.61,0.973,1.225,1.941,1.848,2.908c0.314,0.494,0.764,0.84,1.332,1.033l0.061,0.018
				c0.523,0.129,0.93,0.133,0.949,0.133h2.178l0.16-0.029c0.115-0.021,0.234-0.047,0.35-0.076c1.191-0.33,2.033-1.418,2.047-2.645
				c0.012-1.059,0.006-2.137,0.002-3.18v-0.166C18.354,15.217,17.854,14.709,17.221,14.709z M17.457,19.133
				c0,0.92-0.6,1.68-1.484,1.883c-0.137,0.031-0.281,0.047-0.434,0.047c-0.68,0.006-1.355,0.008-2.039,0
				c-0.652-0.004-1.16-0.285-1.506-0.832c-0.486-0.758-0.966-1.52-1.449-2.281l-0.359-0.566c-0.113-0.178-0.098-0.393,0.039-0.541
				c0.086-0.094,0.203-0.148,0.326-0.148c0.068,0,0.135,0.02,0.195,0.053c0.064,0.039,0.127,0.096,0.166,0.154
				c0.376,0.553,0.751,1.107,1.134,1.676c0.031,0.035,0.193,0.215,0.387,0.215c0.066,0,0.189-0.021,0.291-0.195
				c0.027-0.068,0.041-0.188,0.041-0.361V12.43c0-0.209,0.1-0.265,0.184-0.288c0.145-0.039,0.293,0.063,0.309,0.204
				c0.004,0.044,0.004,0.092,0.004,0.138v3.286c0.01,0.127,0.07,0.381,0.426,0.381h0.102c0,0,0.129-0.002,0.24-0.117
				c0.123-0.115,0.133-0.596,0.133-0.596c0-0.297,0-0.594,0-0.891c0.002-0.168,0.1-0.279,0.254-0.279
				c0.141,0.002,0.244,0.109,0.244,0.258c0.004,0.326,0,0.65,0,0.975v0.383c0.006,0.082,0.055,0.223,0.34,0.268h0.234
				c0.359,0.031,0.326-0.311,0.326-0.311v-0.346v-0.311c0.002-0.158,0.107-0.268,0.252-0.268c0.143,0,0.248,0.107,0.25,0.256
				c0.004,0.178,0.004,0.357,0.002,0.535c0,0-0.002,0.439,0.279,0.439h0.25c0,0,0.223-0.014,0.275-0.324l0,0
				c0.045-0.127,0.139-0.25,0.342-0.217c0.131,0,0.242,0.104,0.246,0.23l0.004,1.141C17.461,17.695,17.461,18.414,17.457,19.133z"/>
		</g>
	</g>
	<path fill="#292D32" d="M13.481,1.166c-0.026-0.066-0.058-0.122-0.097-0.185c-0.068-0.085-0.149-0.131-0.191-0.152
		c-0.246-0.12-0.476-0.076-0.726,0.151c-0.122,0.109-0.262,0.241-0.367,0.396l-0.275,0.403c-0.317,0.46-0.645,0.937-0.933,1.428
		c-1.396,2.372-2.738,4.99-4.103,8c-0.102,0.227-0.19,0.376-0.356,0.471c-0.054,0.03-0.19,0.107-0.341,0.218
		c-0.719,0.544-1.079,1.253-1.069,2.11c0.003,0.245,0.032,0.49,0.06,0.738c0.018,0.156,0.039,0.312,0.061,0.465
		c0.033,0.241,0.066,0.48,0.085,0.723c0.021,0.268-0.069,0.467-0.263,0.612l0.002,0.003c0,0-0.184,0.117-0.316,0.305
		c-0.001,0.002-0.006,0.01-0.01,0.015C4.617,16.905,4.6,16.95,4.581,16.994c-0.037,0.106-0.05,0.249,0.075,0.389
		c0.037,0.035,0.082,0.067,0.141,0.096c0.095,0.034,0.189,0.049,0.271,0.046c0.229-0.005,0.456-0.02,0.681-0.045
		c0.739-0.079,1.385-0.261,1.976-0.553c0.733-0.363,1.254-0.852,1.594-1.491c0.35-0.666,0.469-1.416,0.372-2.365
		c-0.008-0.079,0.003-0.163,0.029-0.226c1.357-3.189,2.417-6.049,3.239-8.744l0.053-0.164c0.247-0.801,0.501-1.631,0.522-2.521
		C13.53,1.342,13.515,1.267,13.481,1.166z M8.666,14.712c-0.251,0.694-0.752,1.181-1.575,1.527c-0.306,0.13-0.644,0.226-1.061,0.293
		c0.154-0.47,0.083-0.943,0.014-1.403l-0.023-0.146c-0.037-0.245-0.073-0.486-0.099-0.731c-0.082-0.75,0.205-1.327,0.874-1.765
		c0.076-0.052,0.137-0.078,0.19-0.083c0.036-0.004,0.094-0.004,0.198,0.048c0.453,0.226,0.924,0.434,1.379,0.634l0.223,0.098
		l0.025,0.044C8.867,13.813,8.821,14.285,8.666,14.712z M12.017,4.154c-0.609,1.956-1.369,4.055-2.404,6.635L9.569,10.9
		c-0.003,0.007-0.006,0.014-0.008,0.021l-0.56,1.336l-1.409-0.602l0.225-0.545c0.019-0.046,0.04-0.09,0.06-0.134
		c0.021-0.045,0.042-0.088,0.061-0.133l0.405-0.88c0.132-0.271,0.26-0.54,0.392-0.805c0.949-1.932,1.995-3.991,3.204-5.965
		c0.181-0.296,0.385-0.588,0.585-0.872C12.392,2.936,12.209,3.54,12.017,4.154z"/>
</g>
</svg>
