<?xml version="1.0" encoding="utf-8"?>
<!-- Generator: Adobe Illustrator 16.0.0, SVG Export Plug-In . SVG Version: 6.00 Build 0)  -->
<!DOCTYPE svg PUBLIC "-//W3C//DTD SVG 1.1//EN" "http://www.w3.org/Graphics/SVG/1.1/DTD/svg11.dtd">
<svg version="1.1" id="Vrstva_1" xmlns="http://www.w3.org/2000/svg" xmlns:xlink="http://www.w3.org/1999/xlink" x="0px" y="0px"
	 width="24px" height="24px" viewBox="0 0 24 24" enable-background="new 0 0 24 24" xml:space="preserve">
<g>
	<path fill="#292D32" d="M11.733,3.771c-0.089,0.031-0.166,0.086-0.223,0.154L9.372,6.061C9.228,6.199,9.163,6.375,9.163,6.557
		c0,0.178,0.068,0.361,0.209,0.496c0.269,0.279,0.719,0.279,0.995,0l0.885-0.885v0.369v10.987v0.368l-0.885-0.884
		c-0.276-0.277-0.727-0.277-0.995,0c-0.142,0.136-0.209,0.317-0.209,0.497c0,0.182,0.065,0.357,0.209,0.496l2.138,2.133
		c0.057,0.068,0.134,0.125,0.223,0.155c0.077,0.046,0.172,0.06,0.268,0.06c0.087-0.014,0.183-0.031,0.265-0.064
		c0.084-0.035,0.166-0.086,0.229-0.153l2.133-2.134c0.281-0.277,0.281-0.727,0-1.003c-0.275-0.276-0.723-0.276-1,0l-0.883,0.893
		v-0.363V11.4v-0.738V6.537V6.174l0.883,0.893c0.277,0.275,0.725,0.275,1,0c0.281-0.275,0.281-0.725,0-1.002L12.494,3.93
		c-0.063-0.066-0.145-0.117-0.229-0.152c-0.082-0.035-0.177-0.051-0.265-0.066C11.905,3.711,11.81,3.727,11.733,3.771z"/>
	<path fill="#292D32" d="M16.625,1.428c0.432,0,0.781,0.334,0.781,0.746l0,0c0,0.412-0.35,0.744-0.781,0.744h-9.25
		c-0.432,0-0.781-0.332-0.781-0.744l0,0c0-0.412,0.35-0.746,0.781-0.746H16.625z"/>
	<path fill="#292D32" d="M16.625,21.082c0.432,0,0.781,0.334,0.781,0.746l0,0c0,0.412-0.35,0.744-0.781,0.744h-9.25
		c-0.432,0-0.781-0.332-0.781-0.744l0,0c0-0.412,0.35-0.746,0.781-0.746H16.625z"/>
</g>
</svg>
