<?xml version="1.0" encoding="utf-8"?>
<!-- Generator: Adobe Illustrator 16.0.0, SVG Export Plug-In . SVG Version: 6.00 Build 0)  -->
<!DOCTYPE svg PUBLIC "-//W3C//DTD SVG 1.1//EN" "http://www.w3.org/Graphics/SVG/1.1/DTD/svg11.dtd">
<svg version="1.1" id="Vrstva_1" xmlns="http://www.w3.org/2000/svg" xmlns:xlink="http://www.w3.org/1999/xlink" x="0px" y="0px"
	 width="24px" height="24px" viewBox="0 0 24 24" enable-background="new 0 0 24 24" xml:space="preserve">
<g>
	<g>
		<path fill="#292D32" d="M1.493,7.591c0-0.547,0.443-0.989,0.99-0.989h19.035c0.547,0,0.99,0.442,0.99,0.989l0,0
			c0,0.548-0.443,0.99-0.99,0.99H2.482C1.937,8.581,1.493,8.139,1.493,7.591L1.493,7.591z"/>
		<path fill="#292D32" d="M1.493,16.409c0-0.548,0.443-0.99,0.99-0.99h19.035c0.547,0,0.99,0.442,0.99,0.99l0,0
			c0,0.547-0.443,0.989-0.99,0.989H2.482C1.937,17.398,1.493,16.956,1.493,16.409L1.493,16.409z"/>
		<path fill="#292D32" d="M4.185,12c0-0.546,0.443-0.988,0.99-0.988h13.652c0.547,0,0.988,0.442,0.988,0.988l0,0
			c0,0.545-0.441,0.988-0.988,0.988H5.174C4.627,12.988,4.185,12.545,4.185,12L4.185,12z"/>
	</g>
</g>
</svg>
