<?xml version="1.0" encoding="utf-8"?>
<!-- Generator: Adobe Illustrator 16.0.0, SVG Export Plug-In . SVG Version: 6.00 Build 0)  -->
<!DOCTYPE svg PUBLIC "-//W3C//DTD SVG 1.1//EN" "http://www.w3.org/Graphics/SVG/1.1/DTD/svg11.dtd">
<svg version="1.1" id="Vrstva_1" xmlns="http://www.w3.org/2000/svg" xmlns:xlink="http://www.w3.org/1999/xlink" x="0px" y="0px"
	 width="24px" height="24px" viewBox="0 0 24 24" enable-background="new 0 0 24 24" xml:space="preserve">
<path fill="#292D32" d="M21.776,12.002c0-2.006-1.285-3.852-3.62-5.197L11.222,2.81C9.885,2.038,8.584,1.646,7.356,1.646
	c-3.118,0-5.132,2.497-5.132,6.36v7.992c0,3.861,2.015,6.356,5.132,6.356c1.227,0,2.527-0.392,3.865-1.163l6.935-3.994
	C20.491,15.85,21.776,14.005,21.776,12.002z M10.428,19.822c-1.074,0.622-2.136,0.95-3.072,0.95c-2.189,0-3.549-1.829-3.549-4.774
	V8.006c0-2.947,1.36-4.777,3.549-4.777c0.934,0,1.998,0.33,3.076,0.955l6.935,3.995c1.826,1.056,2.829,2.415,2.825,3.825
	c0,1.413-1.003,2.771-2.825,3.824L10.428,19.822z"/>
</svg>
