<?xml version="1.0" encoding="UTF-8" standalone="no"?>
<!-- Created with Inkscape (http://www.inkscape.org/) -->

<svg
   xmlns:dc="http://purl.org/dc/elements/1.1/"
   xmlns:cc="http://creativecommons.org/ns#"
   xmlns:rdf="http://www.w3.org/1999/02/22-rdf-syntax-ns#"
   xmlns:svg="http://www.w3.org/2000/svg"
   xmlns="http://www.w3.org/2000/svg"
   xmlns:sodipodi="http://sodipodi.sourceforge.net/DTD/sodipodi-0.dtd"
   xmlns:inkscape="http://www.inkscape.org/namespaces/inkscape"
   width="30mm"
   height="30mm"
   viewBox="0 0 30 30"
   version="1.1"
   id="svg8"
   inkscape:version="0.92.4 (5da689c313, 2019-01-14)"
   sodipodi:docname="plugins.svg">
  <defs
     id="defs2">
    <inkscape:path-effect
       effect="spiro"
       id="path-effect831"
       is_visible="true" />
  </defs>
  <sodipodi:namedview
     id="base"
     pagecolor="#ffffff"
     bordercolor="#666666"
     borderopacity="1.0"
     inkscape:pageopacity="0.0"
     inkscape:pageshadow="2"
     inkscape:zoom="5.6"
     inkscape:cx="142.64708"
     inkscape:cy="113.44001"
     inkscape:document-units="mm"
     inkscape:current-layer="layer1"
     showgrid="false"
     inkscape:window-width="3840"
     inkscape:window-height="2035"
     inkscape:window-x="-13"
     inkscape:window-y="-13"
     inkscape:window-maximized="1" />
  <metadata
     id="metadata5">
    <rdf:RDF>
      <cc:Work
         rdf:about="">
        <dc:format>image/svg+xml</dc:format>
        <dc:type
           rdf:resource="http://purl.org/dc/dcmitype/StillImage" />
        <dc:title></dc:title>
        <cc:license
           rdf:resource="http://creativecommons.org/licenses/by-sa/4.0/" />
        <dc:creator>
          <cc:Agent>
            <dc:title>Jakub Melka</dc:title>
          </cc:Agent>
        </dc:creator>
      </cc:Work>
      <cc:License
         rdf:about="http://creativecommons.org/licenses/by-sa/4.0/">
        <cc:permits
           rdf:resource="http://creativecommons.org/ns#Reproduction" />
        <cc:permits
           rdf:resource="http://creativecommons.org/ns#Distribution" />
        <cc:requires
           rdf:resource="http://creativecommons.org/ns#Notice" />
        <cc:requires
           rdf:resource="http://creativecommons.org/ns#Attribution" />
        <cc:permits
           rdf:resource="http://creativecommons.org/ns#DerivativeWorks" />
        <cc:requires
           rdf:resource="http://creativecommons.org/ns#ShareAlike" />
      </cc:License>
    </rdf:RDF>
  </metadata>
  <g
     inkscape:label="Vrstva 1"
     inkscape:groupmode="layer"
     id="layer1"
     transform="translate(0,-267)">
    <path
       style="fill:none;stroke:#000000;stroke-width:0.26458332px;stroke-linecap:butt;stroke-linejoin:miter;stroke-opacity:1"
       d="m 11.646391,283.58184 v 0 0"
       id="path837"
       inkscape:connector-curvature="0" />
    <g
       aria-label="🔌"
       style="font-style:normal;font-variant:normal;font-weight:normal;font-stretch:normal;font-size:25.39999962px;line-height:1.25;font-family:sans-serif;-inkscape-font-specification:sans-serif;letter-spacing:0px;word-spacing:0px;fill:#000000;fill-opacity:1;stroke:none;stroke-width:0.26458332"
       id="text4540">
      <path
         d="m 23.50126,284.47675 q 1.016992,0.95498 1.835547,2.05879 0.830957,1.10381 1.413867,2.34404 0.58291,1.22784 0.892969,2.56729 0.310058,1.33945 0.310058,2.75332 v 1.78594 h -6.238379 v -1.78594 q 0,-1.5751 -0.669726,-2.92695 -0.657324,-1.33946 -1.785938,-2.41846 h -1.302246 q -0.347265,0.24805 -0.756543,0.38447 -0.396875,0.13643 -0.830957,0.13643 -0.545703,0 -1.029394,-0.19844 -0.483692,-0.19844 -0.868164,-0.58291 l -4.254004,-4.254 q -0.148828,0.0248 -0.3100587,0.0496 -0.1488281,0.0124 -0.2976563,0.0124 -0.6325195,0 -1.1906249,-0.23565 -0.5457032,-0.24804 -0.9673828,-0.65732 -0.4092774,-0.40928 -0.6449219,-0.96738 -0.2356445,-0.55811 -0.2356445,-1.19063 0,-0.47129 0.1364258,-0.90537 0.1364257,-0.44648 0.4092773,-0.83096 l -5.0105468,-5.02295 7.1313475,-7.13134 5.0105473,5.01054 q 0.384472,-0.26045 0.830957,-0.40927 0.446484,-0.14883 0.917773,-0.14883 0.63252,0 1.178223,0.24804 0.558105,0.23565 0.967382,0.64493 0.409278,0.40927 0.644922,0.96738 0.248047,0.5457 0.248047,1.17822 0,0.16123 -0.02481,0.32246 -0.0124,0.14883 -0.03721,0.29766 l 4.266407,4.26641 q 0.781347,0.78134 0.781347,1.88515 0,0.43408 -0.136426,0.84336 -0.136425,0.39688 -0.384472,0.74414 z m -7.094141,3.13779 q 0.248047,0 0.446485,-0.16123 0.173632,-0.13642 0.396875,-0.34726 0.223242,-0.21084 0.446484,-0.44649 0.235645,-0.23564 0.446484,-0.45888 0.21084,-0.22324 0.372071,-0.38448 l 3.199804,-3.1998 q 0.21084,-0.21084 0.359668,-0.38447 0.161231,-0.18604 0.161231,-0.5085 0,-0.37207 -0.260449,-0.63252 l -5.159375,-5.15937 q 0.198437,-0.19844 0.322461,-0.42168 0.124023,-0.23565 0.124023,-0.5209 0,-0.26045 -0.09922,-0.49609 -0.09922,-0.23565 -0.272851,-0.40928 -0.161231,-0.18604 -0.396875,-0.28526 -0.223242,-0.0992 -0.496094,-0.0992 -0.520898,0 -0.892969,0.37207 -1.612304,1.6123 -3.187402,3.1998 -1.575098,1.5875 -3.1998047,3.1874 -0.3720703,0.37207 -0.3720703,0.90537 0,0.26045 0.099219,0.48369 0.099219,0.22325 0.2728515,0.39688 0.1736328,0.17363 0.396875,0.27285 0.2356445,0.0992 0.4960937,0.0992 0.285254,0 0.5333008,-0.11162 0.260449,-0.12402 0.434082,-0.33486 l 5.159375,5.15937 q 0.285254,0.28525 0.669726,0.28525 z m 7.094141,6.58565 h 2.678906 q 0,-1.32705 -0.322461,-2.57969 -0.310058,-1.24023 -0.905371,-2.36885 -0.58291,-1.12861 -1.413867,-2.1208 -0.818555,-1.00459 -1.823145,-1.83554 l -1.785937,1.77353 q 0.806152,0.66973 1.463476,1.47588 0.657325,0.79375 1.128614,1.69912 0.471289,0.90537 0.719336,1.89756 0.260449,1.00459 0.260449,2.05879 z m -18.7151366,-19.60811 4.2664062,4.27881 0.8929687,-0.89297 -4.2788085,-4.2788 z m 4.4524413,-4.45244 -0.8929687,0.89297 4.278809,4.26641 0.880566,-0.89297 z m 8.2847653,8.90489 q 0.260449,0 0.446485,0.18603 0.186035,0.18604 0.186035,0.44648 0,0.26045 -0.186035,0.44649 l -3.199805,3.1998 q -0.186035,0.18604 -0.446484,0.18604 -0.26045,0 -0.446485,-0.18604 -0.186035,-0.18603 -0.186035,-0.44648 0,-0.26045 0.186035,-0.44648 l 3.199805,-3.19981 q 0.186035,-0.18603 0.446484,-0.18603 z m -2.046386,5.61826 q 0,-0.26045 0.186035,-0.44649 l 3.199804,-3.1998 q 0.186036,-0.18604 0.446485,-0.18604 0.260449,0 0.434082,0.18604 0.186035,0.18603 0.186035,0.44648 0,0.27285 -0.173633,0.44649 l -3.199805,3.1998 q -0.186035,0.18604 -0.446484,0.18604 -0.260449,0 -0.446484,-0.18604 -0.186035,-0.18603 -0.186035,-0.44648 z"
         style="stroke-width:0.26458332"
         id="path4545"
         inkscape:connector-curvature="0" />
    </g>
  </g>
</svg>
