<?xml version="1.0" encoding="utf-8"?>
<!-- Generator: Adobe Illustrator 16.0.0, SVG Export Plug-In . SVG Version: 6.00 Build 0)  -->
<!DOCTYPE svg PUBLIC "-//W3C//DTD SVG 1.1//EN" "http://www.w3.org/Graphics/SVG/1.1/DTD/svg11.dtd">
<svg version="1.1" id="Vrstva_1" xmlns="http://www.w3.org/2000/svg" xmlns:xlink="http://www.w3.org/1999/xlink" x="0px" y="0px"
	 width="56.689px" height="56.689px" viewBox="0 0 56.689 56.689" enable-background="new 0 0 56.689 56.689" xml:space="preserve">
<g>
	<g>
		<g>
			<g>
				<path fill-rule="evenodd" clip-rule="evenodd" fill="#697041" d="M29.464,39.681c-0.728,0.002-1.455,0.004-2.182,0.005
					c-0.732-0.169-0.964-0.409-1.007-1.135c-0.032-0.542-0.022-1.087-0.016-1.631c0.003-0.226-0.048-0.352-0.296-0.434
					c-0.519-0.17-0.744-0.57-0.738-1.115c0.007-0.604,0.196-1.322-0.065-1.778c-0.271-0.476-1.084-0.251-1.649-0.413
					c-2.572-0.738-4.521-3.142-4.552-5.819c-0.042-3.542-0.005-7.084-0.001-10.626c6.275,0.001,12.55,0.002,18.825,0.004
					c0.002,3.541,0.049,7.083-0.008,10.623c-0.051,3.123-2.627,5.781-5.746,6.017c-0.418,0.031-0.561,0.131-0.523,0.552
					c0.035,0.44,0.004,0.885,0.008,1.328c0.006,0.6-0.195,1.077-0.818,1.247c-0.244,0.068-0.25,0.206-0.25,0.396
					c0.006,0.544,0.012,1.086-0.002,1.63C30.425,39.24,30.188,39.506,29.464,39.681z"/>
			</g>
			<g>
				<path fill="#231F20" d="M27.246,40.007L27.21,40c-0.876-0.202-1.205-0.577-1.255-1.429c-0.03-0.497-0.024-0.999-0.019-1.483
					l0.002-0.169c0.001-0.063-0.004-0.091-0.007-0.101l0,0c-0.003,0-0.023-0.012-0.067-0.025c-0.627-0.207-0.968-0.712-0.96-1.425
					c0.001-0.183,0.02-0.373,0.038-0.566c0.037-0.399,0.075-0.813-0.06-1.05c-0.081-0.142-0.339-0.16-0.724-0.177
					c-0.245-0.009-0.499-0.019-0.736-0.087c-2.741-0.785-4.752-3.361-4.785-6.124c-0.029-2.497-0.019-5.036-0.009-7.491
					c0.003-1.046,0.007-2.093,0.009-3.138l0-0.321L38.1,16.418v0.32c0.002,1.065,0.008,2.13,0.012,3.195
					c0.012,2.436,0.021,4.955-0.016,7.434c-0.053,3.242-2.764,6.082-6.045,6.331c-0.164,0.012-0.219,0.033-0.232,0.04
					c0.004,0.004-0.008,0.049,0.004,0.164c0.025,0.307,0.02,0.612,0.014,0.907c-0.004,0.148-0.006,0.296-0.004,0.444
					c0.01,1.05-0.568,1.429-1.053,1.561c-0.029-0.014-0.014,0.058-0.014,0.085l0.002,0.244c0.002,0.465,0.008,0.931-0.006,1.396
					c-0.021,0.85-0.352,1.242-1.227,1.454l-0.072,0.008L27.246,40.007z M19.277,17.055c-0.001,0.94-0.005,1.88-0.008,2.821
					c-0.009,2.452-0.019,4.988,0.01,7.481c0.028,2.484,1.845,4.805,4.32,5.516c0.163,0.045,0.376,0.054,0.583,0.062
					c0.465,0.019,0.993,0.04,1.256,0.5c0.236,0.413,0.188,0.928,0.142,1.427c-0.017,0.175-0.034,0.35-0.036,0.515
					c-0.006,0.569,0.293,0.733,0.518,0.808c0.469,0.152,0.519,0.496,0.517,0.742l-0.002,0.17c-0.006,0.475-0.011,0.962,0.018,1.437
					c0.033,0.558,0.149,0.696,0.723,0.833l2.104-0.005c0.561-0.14,0.686-0.296,0.699-0.837c0.012-0.459,0.008-0.916,0.004-1.376
					l-0.002-0.244c0-0.186-0.004-0.572,0.486-0.707c0.291-0.079,0.588-0.252,0.58-0.937c0-0.154,0.002-0.308,0.006-0.462
					c0.006-0.293,0.012-0.567-0.012-0.841c-0.016-0.181-0.016-0.441,0.15-0.638c0.166-0.197,0.42-0.241,0.668-0.261
					c2.959-0.224,5.404-2.782,5.451-5.701c0.041-2.472,0.029-4.989,0.018-7.422c-0.004-0.958-0.008-1.918-0.01-2.876L19.277,17.055z
					"/>
			</g>
		</g>
		<g>
			<g>
				<g>
					<path fill-rule="evenodd" clip-rule="evenodd" fill="#FFEACE" d="M35.716,12.602c-1.393,0.004-2.781,0.007-4.172,0.011
						c-0.004-1.062-0.029-4.688-0.006-5.75c0.021-1.019,0.896-1.914,1.895-1.994c1.076-0.086,2.033,0.633,2.213,1.694
						C35.841,7.716,35.729,11.443,35.716,12.602z"/>
				</g>
			</g>
			<g>
				<g>
					<path fill="#231F20" d="M31.223,12.934l-0.006-1.283c-0.006-1.479-0.02-3.953-0.002-4.795c0.027-1.177,1.01-2.212,2.191-2.306
						c1.264-0.096,2.35,0.756,2.555,1.96c0.17,0.99,0.117,3.707,0.086,5.331l-0.016,1.081L31.223,12.934z M33.606,5.183
						c-0.049,0-0.098,0.002-0.146,0.007c-0.852,0.066-1.584,0.837-1.602,1.68c-0.02,0.833-0.006,3.302,0,4.778l0.004,0.644
						l3.539-0.009l0.006-0.453c0.029-1.496,0.082-4.281-0.078-5.212C35.19,5.787,34.464,5.183,33.606,5.183z"/>
				</g>
			</g>
		</g>
		<g>
			<g>
				<g>
					<path fill-rule="evenodd" clip-rule="evenodd" fill="#FFEACE" d="M25.212,12.561c-1.393,0-2.787,0-4.18,0
						c-0.005-1.025-0.034-4.616-0.01-5.641c0.026-1.171,0.946-2.083,2.069-2.102c1.142-0.019,2.102,0.902,2.131,2.101
						C25.247,7.945,25.218,11.535,25.212,12.561z"/>
				</g>
			</g>
			<g>
				<g>
					<path fill="#231F20" d="M20.713,12.882l-0.005-1.053c-0.009-1.42-0.026-4.063-0.007-4.916c0.031-1.332,1.079-2.394,2.385-2.415
						l0,0c1.363,0,2.423,1.06,2.457,2.414c0.021,0.863,0.003,3.536-0.006,4.972l-0.007,0.997L20.713,12.882z M23.127,5.139
						c-0.992,0.017-1.763,0.803-1.784,1.789c-0.02,0.843-0.003,3.48,0.006,4.896l0.002,0.417l3.542-0.001l0.003-0.36
						c0.009-1.432,0.027-4.098,0.006-4.952C24.878,5.925,24.097,5.139,23.127,5.139z"/>
				</g>
			</g>
		</g>
		<g>
			<g>
				<path fill-rule="evenodd" clip-rule="evenodd" fill="#928069" d="M18.908,16.631c4.137-0.006,8.274-0.013,12.413-0.016
					c2.166-0.002,4.336,0.007,6.506,0.01c-0.016,0.038-0.031,0.076-0.045,0.113c-6.275-0.001-12.55-0.003-18.825-0.004
					C18.931,16.704,18.914,16.67,18.908,16.631z"/>
			</g>
		</g>
	</g>
	<g>
		<polygon fill-rule="evenodd" clip-rule="evenodd" fill="#D9EACE" points="35.387,12.488 31.852,12.488 31.852,9.997 35.438,9.997 
					"/>
	</g>
	<g>
		<rect x="21.344" y="9.997" fill-rule="evenodd" clip-rule="evenodd" fill="#D9EACE" width="3.556" height="2.491"/>
	</g>
	<g>
		<path fill-rule="evenodd" clip-rule="evenodd" fill="#9D724C" d="M39.872,13.729c-0.012-0.893-0.348-1.242-1.225-1.259
			c-0.98-0.019-1.959-0.022-2.939-0.032c-0.16,0.014-0.316,0.02-0.475,0.029h-3.422c-0.107-0.005-0.213-0.008-0.322-0.015
			c-2.074,0-4.151,0-6.227,0c-0.16,0.01-0.32,0.008-0.48,0.015h-3.318c-0.159-0.007-0.319-0.005-0.48-0.015
			c-0.839,0.004-1.679,0.007-2.52,0.015h-0.146v0.001c-0.056,0-0.112,0-0.168,0c-0.948,0.011-1.3,0.358-1.332,1.313
			c-0.013,0.422-0.002,0.845-0.002,1.268c0.002,1.266,0.311,1.58,1.55,1.582c0.181,0,0.362,0,0.542,0
			c4.137-0.006,8.274-0.013,12.413-0.016c2.166-0.002,4.336,0.007,6.506,0.01c0.26,0.002,0.52,0.009,0.779,0.005
			c0.91-0.013,1.254-0.36,1.266-1.281C39.88,14.81,39.88,14.269,39.872,13.729z"/>
		<path fill="#231F20" d="M18.547,16.952h-0.183c-1.412-0.004-1.866-0.466-1.87-1.903l-0.002-0.364
			c-0.002-0.304-0.004-0.609,0.004-0.914c0.037-1.124,0.529-1.61,1.648-1.623l0.317-0.002c0.629-0.006,1.259-0.009,1.89-0.012
			l0.63-0.004c0.104,0.007,0.188,0.008,0.271,0.009c0.076,0.001,0.151,0.003,0.227,0.006h3.303c0.06-0.003,0.136-0.005,0.212-0.006
			c0.083-0.001,0.165-0.002,0.248-0.008l10.149,0.005c0.098-0.005,0.191-0.01,0.287-0.018l0.93,0.007
			c0.682,0.005,1.363,0.011,2.045,0.024c1.051,0.021,1.525,0.506,1.541,1.576c0.006,0.542,0.004,1.085,0,1.629
			c-0.016,1.089-0.504,1.582-1.582,1.598l-0.156,0l-2.713-0.011c-1.268-0.003-2.539-0.006-3.807-0.006h-0.615
			c-2.862,0.002-5.723,0.006-8.584,0.01L18.547,16.952z M20.964,12.772l-0.61,0.003c-0.628,0.003-1.257,0.006-1.887,0.012
			l-0.26,0.002c-0.835,0.01-1.043,0.216-1.068,1.003c-0.009,0.295-0.007,0.592-0.005,0.888l0.002,0.368
			c0.002,1.095,0.164,1.261,1.23,1.263l0.181,0l4.188-0.006c2.861-0.005,5.723-0.009,8.585-0.011l0.615,0
			c1.27,0,2.539,0.003,3.809,0.006l2.711,0.011l0.148-0.001c0.734-0.01,0.939-0.218,0.947-0.964c0.006-0.537,0.006-1.074,0-1.613
			c-0.01-0.726-0.205-0.929-0.91-0.942c-0.68-0.013-1.359-0.019-2.039-0.024l-0.898-0.008c-0.072,0.008-0.178,0.013-0.279,0.018
			l-0.17,0.01l-3.443,0l-0.338-0.015h-6.211c-0.072,0.005-0.164,0.007-0.257,0.009l-0.208,0.006h-3.333l-0.223-0.006
			C21.149,12.779,21.055,12.777,20.964,12.772z"/>
	</g>
	<g>
		<rect x="19.278" y="17.064" fill-rule="evenodd" clip-rule="evenodd" fill="#486339" width="18.184" height="1.695"/>
	</g>
	<g>
		<line fill-rule="evenodd" clip-rule="evenodd" fill="#697041" x1="28.371" y1="39.448" x2="28.371" y2="52.189"/>
		<rect x="28.049" y="39.448" fill="#231F20" width="0.642" height="12.741"/>
	</g>
</g>
</svg>
