<?xml version="1.0" encoding="utf-8"?>
<!-- Generator: Adobe Illustrator 16.0.0, SVG Export Plug-In . SVG Version: 6.00 Build 0)  -->
<!DOCTYPE svg PUBLIC "-//W3C//DTD SVG 1.1//EN" "http://www.w3.org/Graphics/SVG/1.1/DTD/svg11.dtd">
<svg version="1.1" id="Vrstva_1" xmlns="http://www.w3.org/2000/svg" xmlns:xlink="http://www.w3.org/1999/xlink" x="0px" y="0px"
	 width="24px" height="24px" viewBox="0 0 24 24" enable-background="new 0 0 24 24" xml:space="preserve">
<g>
	<g>
		<path fill="#292D32" d="M16.747,20.117l-8.886-5.128c-1.082-0.621-1.729-1.737-1.729-2.986s0.646-2.366,1.729-2.99l8.887-5.128
			c0.529-0.305,1.126-0.467,1.725-0.467c1.907,0,3.461,1.553,3.461,3.462v10.242c0,1.907-1.556,3.46-3.468,3.46l0,0
			C17.869,20.582,17.273,20.422,16.747,20.117z M17.473,5.142l-8.888,5.13c-0.627,0.36-1.001,1.008-1.001,1.732
			c0,0.721,0.374,1.37,1.003,1.73l8.884,5.125c0.313,0.182,0.647,0.272,0.995,0.272l0,0c0.97,0,2.017-0.769,2.017-2.01V6.88
			c0-1.242-1.043-2.011-2.01-2.011C18.123,4.869,17.786,4.961,17.473,5.142z"/>
	</g>
	<rect x="2.066" y="3.418" fill="#292D32" width="2.017" height="17.164"/>
</g>
</svg>
