<?xml version="1.0" encoding="utf-8"?>
<!-- Generator: Adobe Illustrator 16.0.0, SVG Export Plug-In . SVG Version: 6.00 Build 0)  -->
<!DOCTYPE svg PUBLIC "-//W3C//DTD SVG 1.1//EN" "http://www.w3.org/Graphics/SVG/1.1/DTD/svg11.dtd">
<svg version="1.1" id="Vrstva_1" xmlns="http://www.w3.org/2000/svg" xmlns:xlink="http://www.w3.org/1999/xlink" x="0px" y="0px"
	 width="24px" height="24px" viewBox="0 0 24 24" enable-background="new 0 0 24 24" xml:space="preserve">
<g>
	<path fill-rule="evenodd" clip-rule="evenodd" fill="#292D32" d="M3.962,3.957c0,5.374,0,10.717,0,16.082c0.091,0,0.172,0,0.253,0
		c1.607,0,3.213-0.002,4.82,0.002c0.543,0.002,0.903,0.494,0.718,0.98c-0.115,0.299-0.343,0.475-0.662,0.477
		c-1.75,0.006-3.502,0.016-5.252-0.004c-0.745-0.008-1.348-0.695-1.348-1.463c-0.001-2.945,0-5.893,0-8.838c0-2.391,0-4.781,0-7.172
		c0-0.894,0.63-1.526,1.52-1.526c1.667-0.001,3.334-0.002,5.001,0.001c0.569,0,0.938,0.506,0.736,1.003
		C9.63,3.791,9.363,3.956,9,3.956C7.409,3.957,5.818,3.957,4.227,3.957C4.145,3.957,4.063,3.957,3.962,3.957z"/>
	<path fill-rule="evenodd" clip-rule="evenodd" fill="#292D32" d="M18.991,12.729c-0.148,0-0.24,0-0.331,0
		c-3.876,0-7.752,0-11.628,0c-0.099,0-0.2,0.004-0.295-0.016c-0.368-0.07-0.622-0.414-0.589-0.782
		c0.033-0.36,0.329-0.642,0.699-0.661c0.076-0.005,0.152-0.002,0.229-0.002c3.868,0,7.736,0,11.604,0c0.089,0,0.176,0,0.31,0
		c-0.088-0.095-0.143-0.155-0.199-0.212c-1.13-1.131-2.26-2.264-3.393-3.392c-0.164-0.163-0.271-0.346-0.268-0.582
		c0.005-0.293,0.137-0.518,0.397-0.644c0.267-0.129,0.533-0.106,0.774,0.074c0.056,0.04,0.103,0.092,0.15,0.14
		c1.607,1.603,3.215,3.204,4.82,4.807c0.314,0.313,0.315,0.765,0.002,1.076c-1.617,1.613-3.234,3.227-4.852,4.84
		c-0.274,0.271-0.618,0.336-0.914,0.176c-0.283-0.152-0.443-0.465-0.357-0.791c0.043-0.158,0.147-0.318,0.265-0.438
		c1.12-1.131,2.247-2.254,3.372-3.379C18.846,12.887,18.899,12.826,18.991,12.729z"/>
</g>
</svg>
