<?xml version="1.0" encoding="utf-8"?>
<!-- Generator: Adobe Illustrator 16.0.0, SVG Export Plug-In . SVG Version: 6.00 Build 0)  -->
<!DOCTYPE svg PUBLIC "-//W3C//DTD SVG 1.1//EN" "http://www.w3.org/Graphics/SVG/1.1/DTD/svg11.dtd">
<svg version="1.1" id="Vrstva_1" xmlns="http://www.w3.org/2000/svg" xmlns:xlink="http://www.w3.org/1999/xlink" x="0px" y="0px"
	 width="56.689px" height="56.689px" viewBox="0 0 56.689 56.689" enable-background="new 0 0 56.689 56.689" xml:space="preserve">
<g>
	<g>
		<path fill="#9D724C" d="M52.531,16.874v22.939c0,0.141,0,0.271-0.011,0.41c-0.17,3.391-2.42,6.34-5.71,7.949
			c-0.75,0.37-1.561,0.67-2.409,0.891c-1.07,0.271-2.2,0.421-3.37,0.421h-25.35c-6.181,0-11.23-4.11-11.49-9.261
			c-0.01-0.141-0.01-0.271-0.01-0.41V16.874c0-5.33,5.159-9.67,11.5-9.67h25.351C47.381,7.204,52.531,11.544,52.531,16.874z"/>
	</g>
	<g>
		<path fill="#231F20" d="M41.031,6.204h-25.35c-6.891,0-12.5,4.79-12.5,10.67v22.939c0,5.891,5.609,10.671,12.5,10.671h25.351
			c6.899,0,12.5-4.78,12.5-10.671V16.874C53.531,10.994,47.931,6.204,41.031,6.204z M44.402,49.064
			c-1.07,0.271-2.2,0.421-3.37,0.421H15.681c-6.181,0-11.23-4.11-11.49-9.261c-0.01-0.141-0.01-0.271-0.01-0.41v-22.94
			c0-5.33,5.159-9.67,11.5-9.67h25.351c6.35,0,11.5,4.34,11.5,9.67v22.939c0,0.141,0,0.271-0.011,0.41
			c-0.17,3.391-2.42,6.34-5.71,7.949C46.061,48.544,45.251,48.844,44.402,49.064z"/>
		<path fill="#FFEACE" d="M52.521,40.224c-0.17,3.391-2.42,6.34-5.71,7.949l-2.409,0.891c-1.07,0.271-2.2,0.421-3.37,0.421H15.681
			c-6.181,0-11.23-4.11-11.49-9.261H52.521z"/>
	</g>
	<polyline fill="#66724C" points="17.891,27.434 18.19,39.473 37.503,39.473 38.366,29.362 	"/>
	<polygon fill="#D17000" points="26.116,34.905 26.116,20.545 39.008,16.19 37.849,29.545 	"/>
	<polygon fill="#A54C00" points="26.116,34.885 18.38,27.208 17.54,14.143 26.116,20.545 	"/>
	<g>
		<polygon fill="#FF9518" points="17.54,14.143 29.63,11.072 39.008,16.19 26.116,20.545 		"/>
		<path fill="#231F20" d="M39.061,15.644l-0.63-0.34l-8.729-4.771l-12.061,3.06l-0.63,0.16l0.039,0.65l0.841,13.029l7.52,7.449
			l0.21,0.21l0.41,0.4l0.01,0.01l0.58-0.279l0.07-0.029l11.631-5.312l1.12-12.909l0.039-0.42l0.051-0.649L39.061,15.644z
			 M29.561,11.604l8.2,4.479l-11.561,3.9l-7.52-5.61L29.561,11.604z M25.621,33.684l-6.75-6.699l-0.76-11.79l7.51,5.6V33.684z
			 M37.381,29.214l-10.76,4.91v-13.22l11.821-4L37.381,29.214z"/>
	</g>
	<line fill="none" stroke="#231F20" stroke-miterlimit="10" x1="3.633" y1="39.834" x2="52.989" y2="39.834"/>
	<path fill="#D9EACE" stroke="#231F20" stroke-miterlimit="10" d="M26.647,45.067c0,0.943,0.765,1.709,1.709,1.709l0,0
		c0.943,0,1.708-0.766,1.708-1.709l0,0c0-0.943-0.766-1.708-1.708-1.708l0,0C27.412,43.359,26.647,44.123,26.647,45.067
		L26.647,45.067z"/>
</g>
</svg>
