<?xml version="1.0" encoding="utf-8"?>
<!-- Generator: Adobe Illustrator 16.0.0, SVG Export Plug-In . SVG Version: 6.00 Build 0)  -->
<!DOCTYPE svg PUBLIC "-//W3C//DTD SVG 1.1//EN" "http://www.w3.org/Graphics/SVG/1.1/DTD/svg11.dtd">
<svg version="1.1" id="Vrstva_1" xmlns="http://www.w3.org/2000/svg" xmlns:xlink="http://www.w3.org/1999/xlink" x="0px" y="0px"
	 width="24px" height="24px" viewBox="0 0 24 24" enable-background="new 0 0 24 24" xml:space="preserve">
<g>
	<g>
		<g>
			<path fill="#292D32" d="M13.336,12l3.948-3.277c0.36-0.297,0.409-0.834,0.113-1.2c-0.308-0.364-0.841-0.414-1.201-0.11
				l-4.198,3.484L7.805,7.413C7.443,7.111,6.906,7.16,6.606,7.522c-0.3,0.365-0.25,0.903,0.111,1.2L10.666,12l-3.949,3.279
				c-0.361,0.304-0.411,0.837-0.111,1.201c0.168,0.202,0.41,0.308,0.655,0.308c0.191,0,0.383-0.062,0.543-0.198l4.195-3.48
				l4.196,3.48c0.161,0.137,0.356,0.198,0.544,0.198c0.242,0,0.487-0.104,0.657-0.308c0.297-0.364,0.246-0.897-0.112-1.201
				L13.336,12z"/>
		</g>
	</g>
	<g>
		<path fill="#292D32" d="M22.076,17.183c0.128-0.621,0.194-1.346,0.204-2.217V9.031c-0.012-0.89-0.077-1.593-0.205-2.21
			c-0.252-1.394-0.758-2.461-1.549-3.271c-0.59-0.618-1.389-1.092-2.377-1.404c-0.906-0.281-2.021-0.426-3.311-0.426l-5.68,0.003
			c-5.146,0-7.439,2.293-7.439,7.438v5.69c0,5.139,2.295,7.43,7.439,7.43h5.681c1.291,0,2.403-0.145,3.312-0.424
			c0.98-0.307,1.761-0.764,2.379-1.398C21.315,19.651,21.821,18.581,22.076,17.183z M18.219,20.134
			c-0.643,0.285-1.444,0.447-2.452,0.496c-0.303,0.021-0.604,0.031-0.926,0.031H9.16c-4.354,0-5.821-1.465-5.821-5.811V9.159
			c0-4.323,1.44-5.79,5.714-5.811l0.108-0.021h5.68c0.33,0,0.645,0.011,0.938,0.03c1.016,0.062,1.818,0.228,2.453,0.509
			c1.194,0.507,1.902,1.432,2.228,2.911c0.131,0.631,0.196,1.367,0.205,2.252v5.938c-0.009,0.889-0.074,1.623-0.205,2.254
			C20.134,18.702,19.422,19.628,18.219,20.134z"/>
	</g>
</g>
</svg>
