<?xml version="1.0" encoding="utf-8"?>
<!-- Generator: Adobe Illustrator 16.0.0, SVG Export Plug-In . SVG Version: 6.00 Build 0)  -->
<!DOCTYPE svg PUBLIC "-//W3C//DTD SVG 1.1//EN" "http://www.w3.org/Graphics/SVG/1.1/DTD/svg11.dtd">
<svg version="1.1" id="Vrstva_1" xmlns="http://www.w3.org/2000/svg" xmlns:xlink="http://www.w3.org/1999/xlink" x="0px" y="0px"
	 width="24px" height="24px" viewBox="0 0 24 24" enable-background="new 0 0 24 24" xml:space="preserve">
<circle fill="#C80000" cx="12" cy="12" r="11.098"/>
<g>
	<g>
		<path fill="#FFFFFF" d="M13.713,12l5.063-4.201c0.46-0.381,0.524-1.07,0.143-1.539c-0.394-0.466-1.077-0.531-1.54-0.141
			l-5.382,4.466L6.622,6.119C6.157,5.733,5.469,5.796,5.084,6.26C4.699,6.728,4.763,7.417,5.227,7.798L10.289,12l-5.062,4.204
			c-0.464,0.389-0.528,1.074-0.143,1.54c0.216,0.258,0.527,0.394,0.84,0.394c0.246,0,0.491-0.079,0.697-0.253l5.377-4.462
			l5.38,4.462c0.207,0.174,0.458,0.253,0.698,0.253c0.31,0,0.625-0.133,0.842-0.394c0.382-0.466,0.317-1.151-0.143-1.54L13.713,12z"
			/>
	</g>
</g>
</svg>
