<?xml version="1.0" encoding="utf-8"?>
<!-- Generator: Adobe Illustrator 16.0.0, SVG Export Plug-In . SVG Version: 6.00 Build 0)  -->
<!DOCTYPE svg PUBLIC "-//W3C//DTD SVG 1.1//EN" "http://www.w3.org/Graphics/SVG/1.1/DTD/svg11.dtd">
<svg version="1.1" id="Vrstva_1" xmlns="http://www.w3.org/2000/svg" xmlns:xlink="http://www.w3.org/1999/xlink" x="0px" y="0px"
	 width="24px" height="24px" viewBox="0 0 24 24" enable-background="new 0 0 24 24" xml:space="preserve">
<circle fill="#0064E6" cx="12" cy="12" r="11.098"/>
<g>
	<path fill="#FFFFFF" d="M9.406,14.725c0-0.703,0.114-1.336,0.344-1.895c0.229-0.562,0.704-1.048,1.422-1.465
		c0.215-0.129,0.48-0.276,0.797-0.441c0.317-0.165,0.625-0.363,0.925-0.592c0.304-0.229,0.558-0.499,0.767-0.808
		c0.207-0.309,0.312-0.664,0.312-1.066c0-0.302-0.058-0.567-0.173-0.797c-0.114-0.23-0.266-0.423-0.45-0.582
		c-0.188-0.158-0.406-0.276-0.658-0.355c-0.25-0.079-0.506-0.118-0.765-0.118c-0.316,0-0.604,0.054-0.861,0.161
		c-0.259,0.108-0.492,0.245-0.7,0.409c-0.208,0.166-0.396,0.352-0.56,0.56C9.64,7.943,9.5,8.142,9.386,8.328L7.51,7.037
		c0.187-0.445,0.435-0.84,0.743-1.185s0.66-0.635,1.055-0.872c0.396-0.237,0.822-0.417,1.281-0.539
		c0.46-0.122,0.934-0.183,1.422-0.183c0.545,0,1.084,0.079,1.616,0.237c0.531,0.158,1.008,0.409,1.432,0.753
		c0.424,0.345,0.769,0.786,1.035,1.325C16.357,7.11,16.49,7.753,16.49,8.5c0,0.459-0.053,0.865-0.16,1.217
		c-0.107,0.352-0.262,0.671-0.463,0.958c-0.201,0.288-0.439,0.546-0.711,0.775c-0.273,0.23-0.582,0.452-0.926,0.667
		c-0.287,0.172-0.574,0.337-0.861,0.497c-0.287,0.158-0.549,0.332-0.787,0.527c-0.237,0.193-0.43,0.416-0.581,0.666
		c-0.152,0.252-0.227,0.557-0.227,0.916H9.406V14.725z M9.449,19.742V16.77h2.391v2.973H9.449L9.449,19.742z"/>
</g>
</svg>
