<?xml version="1.0" encoding="UTF-8" standalone="no"?>
<!-- Created with Inkscape (http://www.inkscape.org/) -->

<svg
   xmlns:dc="http://purl.org/dc/elements/1.1/"
   xmlns:cc="http://creativecommons.org/ns#"
   xmlns:rdf="http://www.w3.org/1999/02/22-rdf-syntax-ns#"
   xmlns:svg="http://www.w3.org/2000/svg"
   xmlns="http://www.w3.org/2000/svg"
   xmlns:sodipodi="http://sodipodi.sourceforge.net/DTD/sodipodi-0.dtd"
   xmlns:inkscape="http://www.inkscape.org/namespaces/inkscape"
   width="30mm"
   height="30mm"
   viewBox="0 0 30 30"
   version="1.1"
   id="svg8"
   inkscape:version="0.92.4 (5da689c313, 2019-01-14)"
   sodipodi:docname="result-warning.svg">
  <defs
     id="defs2">
    <inkscape:path-effect
       effect="spiro"
       id="path-effect831"
       is_visible="true" />
  </defs>
  <sodipodi:namedview
     id="base"
     pagecolor="#ffffff"
     bordercolor="#666666"
     borderopacity="1.0"
     inkscape:pageopacity="0.0"
     inkscape:pageshadow="2"
     inkscape:zoom="5.6"
     inkscape:cx="102.28993"
     inkscape:cy="113.44001"
     inkscape:document-units="mm"
     inkscape:current-layer="layer1"
     showgrid="false"
     inkscape:window-width="3840"
     inkscape:window-height="2035"
     inkscape:window-x="-13"
     inkscape:window-y="-13"
     inkscape:window-maximized="1" />
  <metadata
     id="metadata5">
    <rdf:RDF>
      <cc:Work
         rdf:about="">
        <dc:format>image/svg+xml</dc:format>
        <dc:type
           rdf:resource="http://purl.org/dc/dcmitype/StillImage" />
        <dc:title />
        <cc:license
           rdf:resource="http://creativecommons.org/licenses/by-sa/4.0/" />
        <dc:creator>
          <cc:Agent>
            <dc:title>Jakub Melka</dc:title>
          </cc:Agent>
        </dc:creator>
      </cc:Work>
      <cc:License
         rdf:about="http://creativecommons.org/licenses/by-sa/4.0/">
        <cc:permits
           rdf:resource="http://creativecommons.org/ns#Reproduction" />
        <cc:permits
           rdf:resource="http://creativecommons.org/ns#Distribution" />
        <cc:requires
           rdf:resource="http://creativecommons.org/ns#Notice" />
        <cc:requires
           rdf:resource="http://creativecommons.org/ns#Attribution" />
        <cc:permits
           rdf:resource="http://creativecommons.org/ns#DerivativeWorks" />
        <cc:requires
           rdf:resource="http://creativecommons.org/ns#ShareAlike" />
      </cc:License>
    </rdf:RDF>
  </metadata>
  <g
     inkscape:label="Vrstva 1"
     inkscape:groupmode="layer"
     id="layer1"
     transform="translate(0,-267)">
    <ellipse
       style="fill:#dcaf00;fill-opacity:1;stroke:none;stroke-width:1.13353121;stroke-linejoin:miter;stroke-miterlimit:4;stroke-dasharray:none;stroke-opacity:1;paint-order:stroke fill markers"
       id="path837"
       cx="14.991481"
       cy="282.01321"
       rx="14.859186"
       ry="14.835566" />
    <g
       aria-label="⚠"
       style="font-style:normal;font-variant:normal;font-weight:normal;font-stretch:normal;font-size:25.39999962px;line-height:1.25;font-family:sans-serif;-inkscape-font-specification:sans-serif;letter-spacing:0px;word-spacing:0px;fill:#ffffff;fill-opacity:1;stroke:none;stroke-width:0.26458332"
       id="text841">
      <path
         d="M 25.20215,290.10568 H 5.0359398 q -0.2108399,0 -0.3844727,-0.12403 -0.1612304,-0.12402 -0.2604492,-0.29765 -0.099219,-0.17364 -0.099219,-0.37207 0,-0.18604 0.099219,-0.38448 L 14.461721,271.04327 q 0.09922,-0.17363 0.272851,-0.26045 0.173633,-0.0868 0.372071,-0.0868 0.198437,0 0.37207,0.0868 0.173633,0.0868 0.272852,0.26045 l 10.095507,17.88418 q 0.09922,0.19844 0.09922,0.38448 0,0.19843 -0.09922,0.37207 -0.09922,0.17363 -0.272851,0.29765 -0.161231,0.12403 -0.372071,0.12403 z M 6.3257835,288.51818 H 23.887502 l -8.780859,-15.55254 z m 9.9342775,-4.51446 h -2.306836 v -6.8833 h 2.306836 z m 0.347265,2.25723 q 0,0.32246 -0.124023,0.59531 -0.111621,0.27285 -0.322461,0.48369 -0.198438,0.19844 -0.471289,0.32246 -0.272852,0.11163 -0.58291,0.11163 -0.310059,0 -0.58291,-0.11163 -0.272852,-0.12402 -0.471289,-0.32246 -0.198438,-0.21084 -0.310059,-0.48369 -0.111621,-0.27285 -0.111621,-0.59531 0,-0.31006 0.111621,-0.59531 0.111621,-0.28526 0.310059,-0.48369 0.198437,-0.21084 0.471289,-0.33487 0.272851,-0.12402 0.58291,-0.12402 0.310058,0 0.58291,0.12402 0.272851,0.12403 0.471289,0.33487 0.21084,0.19843 0.322461,0.48369 0.124023,0.28525 0.124023,0.59531 z"
         style="font-size:25.39999962px;fill:#ffffff;fill-opacity:1;stroke-width:0.26458332"
         id="path1445"
         inkscape:connector-curvature="0" />
    </g>
  </g>
</svg>
