<?xml version="1.0" encoding="utf-8"?>
<!-- Generator: Adobe Illustrator 16.0.0, SVG Export Plug-In . SVG Version: 6.00 Build 0)  -->
<!DOCTYPE svg PUBLIC "-//W3C//DTD SVG 1.1//EN" "http://www.w3.org/Graphics/SVG/1.1/DTD/svg11.dtd">
<svg version="1.1" id="Vrstva_1" xmlns="http://www.w3.org/2000/svg" xmlns:xlink="http://www.w3.org/1999/xlink" x="0px" y="0px"
	 width="24px" height="24px" viewBox="0 0 24 24" enable-background="new 0 0 24 24" xml:space="preserve">
<g>
	<g>
		<g>
			<path fill="#292D32" d="M22.75,10v5c0,3.7-1.08,5.96-3.49,7.02c-0.17,0.08-0.35,0.15-0.54,0.2c-1.02,0.36-2.26,0.53-3.72,0.53H9
				c-1.46,0-2.7-0.17-3.72-0.53c-0.17-0.05-0.34-0.109-0.49-0.17C2.34,20.99,1.25,18.73,1.25,15V9c0-5.43,2.32-7.75,7.75-7.75h5
				c0.1,0,0.2,0.02,0.29,0.06s0.17,0.09,0.24,0.16C14.66,1.61,14.75,1.8,14.75,2c0,0.41-0.34,0.75-0.75,0.75H9
				c-0.48,0-0.92,0.02-1.34,0.06C4.07,3.12,2.75,4.87,2.75,9v6c0,2.77,0.59,4.47,2.07,5.37c0.45,0.29,0.99,0.5,1.62,0.64
				c0.73,0.17,1.58,0.24,2.56,0.24h6c1,0,1.86-0.08,2.6-0.25c0.641-0.14,1.181-0.36,1.641-0.67c1.43-0.91,2.01-2.6,2.01-5.33v-5
				c0-0.41,0.34-0.75,0.75-0.75c0.2,0,0.39,0.09,0.53,0.22c0.069,0.07,0.12,0.15,0.16,0.24S22.75,9.9,22.75,10z"/>
		</g>
		<g>
			<path fill="#292D32" d="M22.75,10c0,0.19-0.07,0.38-0.22,0.53c-0.15,0.15-0.34,0.22-0.53,0.22s-0.38-0.07-0.53-0.22l-0.22-0.22
				l-4.86-4.86l-1.64-1.64l-1.06-1.06L13.47,2.53c-0.29-0.29-0.29-0.77,0-1.06c0.15-0.15,0.34-0.22,0.53-0.22
				c0.1,0,0.2,0.02,0.29,0.06s0.17,0.09,0.24,0.16l1.09,1.09l0.77,0.77l6.141,6.14c0.069,0.07,0.12,0.15,0.16,0.24
				S22.75,9.9,22.75,10z"/>
		</g>
	</g>
</g>
<path fill="#292D32" d="M16.39,3.33V6.6c0,1.02-0.63,1.65-1.649,1.65H9.3c-1.01,0-1.64-0.64-1.64-1.66C7.65,5.73,7.65,4.87,7.66,4
	V2.56h1.63v4.05h5.46V2.57H14.7V2.56h0.92L16.39,3.33z"/>
<g>
	<path fill="#292D32" d="M19.26,20.6v1.42c-0.17,0.08-0.35,0.15-0.54,0.2H17.6v-1.64h0.021V15.8c0-0.45-0.25-0.689-0.71-0.689H7.14
		c-0.46,0-0.7,0.229-0.7,0.689v6.42H5.28c-0.17-0.05-0.34-0.109-0.49-0.17V20.6h0.03v-4.77c0-1.38,0.96-2.34,2.34-2.34h9.729
		c1.38,0,2.351,0.96,2.351,2.34v4.77H19.26z"/>
</g>
<circle fill="#292D32" cx="19.015" cy="4.754" r="3.739"/>
<path fill="#FFFFFF" d="M21.548,4.519c-0.108-0.126-0.255-0.126-0.31-0.126h-1.863c0.001-0.105-0.001-0.211-0.002-0.316
	c-0.004-0.246-0.007-0.501,0.014-0.745c0.007-0.075,0-0.149-0.007-0.224c-0.005-0.044-0.01-0.088-0.009-0.133
	c0.006-0.161,0.004-0.324,0.001-0.482c0-0.148-0.078-0.269-0.212-0.329c-0.127-0.057-0.271-0.037-0.377,0.052
	c-0.131,0.105-0.131,0.257-0.131,0.307v1.872h-1.848c-0.041,0-0.081,0.001-0.12,0.008c-0.17,0.033-0.293,0.18-0.292,0.346
	c-0.005,0.172,0.121,0.328,0.293,0.362c0.04,0.008,0.081,0.009,0.121,0.009l1.846,0v1.847c0,0.026,0.001,0.053,0.003,0.076
	c0.014,0.191,0.168,0.336,0.357,0.336h0.004c0.19-0.002,0.343-0.147,0.354-0.324c0.004-0.03,0.005-0.061,0.005-0.092V5.118
	l1.528,0.001l0.373-0.001c0.146-0.004,0.266-0.083,0.327-0.219C21.66,4.77,21.641,4.633,21.548,4.519z"/>
</svg>
