<?xml version="1.0" encoding="utf-8"?>
<!-- Generator: Adobe Illustrator 16.0.0, SVG Export Plug-In . SVG Version: 6.00 Build 0)  -->
<!DOCTYPE svg PUBLIC "-//W3C//DTD SVG 1.1//EN" "http://www.w3.org/Graphics/SVG/1.1/DTD/svg11.dtd">
<svg version="1.1" id="Vrstva_1" xmlns="http://www.w3.org/2000/svg" xmlns:xlink="http://www.w3.org/1999/xlink" x="0px" y="0px"
	 width="24px" height="24px" viewBox="0 0 24 24" enable-background="new 0 0 24 24" xml:space="preserve">
<g>
	<path fill-rule="evenodd" clip-rule="evenodd" fill="#292D32" d="M11.997,21.727c-2.789,0-5.579,0-8.369,0
		c-1.672,0-2.85-1.182-2.851-2.856c0-3.585,0-7.168,0-10.753c0-1.671,1.182-2.848,2.857-2.848c0.959,0,1.917-0.004,2.875,0.004
		c0.16,0.001,0.234-0.042,0.28-0.198c0.102-0.342,0.218-0.683,0.342-1.018c0.397-1.07,1.388-1.773,2.532-1.779
		c1.558-0.008,3.117-0.008,4.675,0c1.141,0.007,2.127,0.708,2.527,1.783c0.119,0.32,0.23,0.645,0.326,0.974
		c0.051,0.176,0.127,0.242,0.322,0.239c0.965-0.013,1.932-0.007,2.898-0.006c1.613,0.003,2.805,1.193,2.807,2.805
		c0.002,3.617,0.002,7.23,0,10.847c-0.002,1.61-1.197,2.804-2.807,2.806C17.605,21.728,14.803,21.727,11.997,21.727z M11.987,20.23
		c2.788,0,5.577,0,8.366,0c0.863,0,1.371-0.503,1.371-1.357c0.002-3.585,0.002-7.167,0-10.75c0-0.848-0.506-1.356-1.348-1.357
		c-1.184,0-2.369,0.001-3.551,0c-0.443-0.001-0.678-0.169-0.822-0.587c-0.17-0.5-0.332-1.004-0.502-1.504
		c-0.201-0.589-0.633-0.901-1.248-0.901c-1.504-0.001-3.006-0.001-4.51,0c-0.617,0-1.048,0.312-1.247,0.901
		C8.33,5.167,8.169,5.663,8.003,6.156C7.852,6.6,7.622,6.765,7.151,6.765c-1.169,0.001-2.337,0-3.506,0
		c-0.875,0.001-1.371,0.501-1.371,1.38c0,3.569,0,7.135,0,10.705c0,0.889,0.497,1.381,1.393,1.381
		C6.441,20.23,9.214,20.23,11.987,20.23z"/>
	<path fill-rule="evenodd" clip-rule="evenodd" fill="#292D32" d="M6.389,13.126c-0.002-3.09,2.513-5.613,5.596-5.612
		c3.115,0,5.629,2.518,5.625,5.629c-0.004,3.082-2.529,5.594-5.619,5.591C8.9,18.729,6.391,16.217,6.389,13.126z M16.113,13.125
		c-0.006-2.268-1.846-4.117-4.094-4.114c-2.304,0.003-4.139,1.843-4.133,4.145c0.006,2.25,1.86,4.084,4.129,4.082
		C14.264,17.236,16.119,15.376,16.113,13.125z"/>
	<path fill-rule="evenodd" clip-rule="evenodd" fill="#292D32" d="M19.486,8.262c0.406,0.003,0.742,0.341,0.74,0.747
		c0,0.416-0.35,0.757-0.764,0.747c-0.406-0.009-0.736-0.353-0.73-0.761C18.74,8.588,19.078,8.258,19.486,8.262z"/>
</g>
</svg>
