<?xml version="1.0" encoding="utf-8"?>
<!-- Generator: Adobe Illustrator 16.0.0, SVG Export Plug-In . SVG Version: 6.00 Build 0)  -->
<!DOCTYPE svg PUBLIC "-//W3C//DTD SVG 1.1//EN" "http://www.w3.org/Graphics/SVG/1.1/DTD/svg11.dtd">
<svg version="1.1" id="Vrstva_1" xmlns="http://www.w3.org/2000/svg" xmlns:xlink="http://www.w3.org/1999/xlink" x="0px" y="0px"
	 width="56.689px" height="56.689px" viewBox="0 0 56.689 56.689" enable-background="new 0 0 56.689 56.689" xml:space="preserve">
<g>
	<g>
		<g>
			<g>
				<g>
					<g>
						<g>
							<g>
								<path fill="#9D724C" stroke="#231F20" stroke-miterlimit="10" d="M45.084,33.988c0-1.09,0.01-2.18-0.01-3.279
									c-0.051-2.41-1.9-4.41-4.311-4.649c-0.141-0.021-0.28-0.04-0.45-0.061l-4.819-0.01h-14.33l-4.77-0.021
									c-0.13,0.03-0.24,0.07-0.36,0.08c-2.61,0.271-4.41,2.25-4.41,4.9c-0.01,5.46,0.03,10.92-0.02,16.369
									c-0.03,2.399,1.68,4.58,4.02,4.939c0.04,0.011,0.08,0.051,0.12,0.08h25.22c0.899-0.239,1.771-0.561,2.479-1.199
									c1.011-0.931,1.62-2.051,1.62-3.439C45.094,43.129,45.084,38.558,45.084,33.988z M28.404,36.219
									c-0.85,0.021-1.57-0.68-1.6-1.52c-0.021-0.881,0.699-1.631,1.569-1.631c0.859,0,1.569,0.71,1.58,1.561
									C29.954,35.478,29.263,36.209,28.404,36.219z"/>
							</g>
						</g>
					</g>
				</g>
			</g>
		</g>
	</g>
	<g>
		<g>
			<g>
				<g>
					<g>
						<g>
							<path fill="#697041" d="M40.313,25.478v0.52l-4.819-0.01c0.021-0.1,0.029-0.17,0.029-0.25c0-3.12,0.061-6.25-0.01-9.37
								c-0.11-4.46-3.96-7.66-8.311-6.99c-3.479,0.53-6.01,3.561-6.03,7.221c-0.02,2.229-0.01,4.449-0.01,6.67v2.72l-4.77-0.021
								v-0.529c0-2.82-0.011-5.641,0.01-8.45c0-0.82,0.03-1.65,0.17-2.46c0.8-4.4,3.3-7.48,7.43-9.16c0.32-0.13,0.66-0.24,0.99-0.33
								c0.061,0.03,0.24,0,0.61-0.12c0.109-0.04,0.229-0.069,0.34-0.1c0.16-0.03,0.32-0.061,0.479-0.101
								c2.051-0.34,4.54,0.171,4.669,0.2c0.7,0.15,1.4,0.33,2.04,0.62c4.7,2.21,7.08,5.98,7.16,11.17
								C40.344,19.629,40.313,22.558,40.313,25.478z"/>
						</g>
					</g>
				</g>
			</g>
		</g>
		<g>
			<g>
				<g>
					<g>
						<g>
							<path fill="#231F20" d="M40.813,26.499l-5.926-0.012l0.114-0.594c0.014-0.063,0.021-0.105,0.021-0.154
								c0-0.988,0.006-1.976,0.012-2.965c0.014-2.099,0.026-4.268-0.021-6.395c-0.092-3.694-3.018-6.59-6.659-6.59
								c-0.355,0-0.717,0.028-1.074,0.083c-3.23,0.492-5.587,3.321-5.606,6.729c-0.015,1.68-0.013,3.352-0.011,5.022l0.001,4.866
								l-5.77-0.024l-0.001-3.116c-0.002-2.125-0.004-4.247,0.011-6.364c0-0.705,0.02-1.634,0.177-2.542
								c0.833-4.581,3.436-7.789,7.734-9.538c0.338-0.137,0.697-0.253,1.046-0.349l0.185-0.052l0,0
								c0.057-0.012,0.227-0.005,0.403-0.062c0.09-0.033,0.205-0.064,0.313-0.094l0.112-0.027c0.143-0.027,0.284-0.054,0.428-0.089
								c0.531-0.09,1.086-0.131,1.686-0.131c1.698,0,3.205,0.326,3.218,0.33c0.648,0.139,1.417,0.325,2.133,0.65
								c4.864,2.287,7.37,6.195,7.454,11.618c0.036,2.122,0.03,4.25,0.024,6.375L40.813,26.499z M36.023,25.49l3.79,0.008
								l0.005-2.424c0.006-2.119,0.012-4.24-0.024-6.356c-0.077-5.01-2.39-8.617-6.873-10.726c-0.624-0.283-1.327-0.454-1.932-0.583
								c-0.022-0.005-1.425-0.305-3-0.305c-0.545,0-1.044,0.037-1.483,0.108c-0.122,0.032-0.282,0.063-0.442,0.094
								c-0.122,0.031-0.208,0.055-0.288,0.084c-0.353,0.113-0.009,0.059-0.164,0.059l-0.587,0.102
								c-0.279,0.08-0.563,0.174-0.831,0.283c-3.961,1.611-6.359,4.568-7.126,8.786c-0.143,0.824-0.162,1.661-0.162,2.371
								c-0.015,2.118-0.013,4.238-0.011,6.36l0.001,2.122l3.77,0.016l-0.001-3.861c-0.002-1.674-0.004-3.35,0.011-5.03
								c0.021-3.9,2.736-7.145,6.455-7.709c0.407-0.063,0.819-0.096,1.227-0.096c4.188,0,7.554,3.324,7.659,7.566
								c0.048,2.142,0.034,4.317,0.021,6.423C36.03,23.683,36.024,24.587,36.023,25.49z"/>
						</g>
					</g>
				</g>
			</g>
		</g>
	</g>
	<path fill="#697041" d="M40.574,26.53c0,0,3.786,0.205,3.978,4.268v17.233c0,0-0.41,3.484-3.978,3.828V26.53z"/>
	<path fill="#697041" d="M30.599,30.211c-0.316-0.058-0.629-0.081-0.938-0.079v3.129c0.858,0.003,1.566,0.712,1.577,1.562
		c0,0.85-0.69,1.58-1.551,1.59c-0.009,0-0.019-0.002-0.026-0.002v12.709c0.839,0.016,1.568-0.688,1.577-1.667
		c0-2.58,0-5.15-0.011-7.72c0-0.33,0.091-0.472,0.399-0.62c1.67-0.8,2.62-2.13,2.75-3.99C34.54,32.76,32.86,30.621,30.599,30.211z"
		/>
	<g>
		<g>
			<g>
				<g>
					<g>
						<path fill="#FFFFFF" stroke="#231F20" stroke-miterlimit="10" d="M29.313,30.018c-2.409-0.439-4.689,0.899-5.43,3.16
							c-0.739,2.289,0.32,4.729,2.54,5.739c0.32,0.141,0.391,0.311,0.391,0.62c-0.021,1.3-0.01,2.601-0.01,3.891v3.88
							c0,0.699,0.329,1.21,0.97,1.489c1.06,0.479,2.169-0.33,2.18-1.54c0-2.579,0-5.149-0.011-7.72c0-0.33,0.091-0.471,0.399-0.62
							c1.671-0.8,2.62-2.13,2.75-3.989C33.254,32.568,31.574,30.428,29.313,30.018z M28.404,36.219c-0.85,0.021-1.57-0.68-1.6-1.52
							c-0.021-0.881,0.699-1.631,1.569-1.631c0.859,0,1.569,0.71,1.58,1.561C29.954,35.478,29.263,36.209,28.404,36.219z"/>
					</g>
				</g>
			</g>
		</g>
	</g>
	<g>
		<g>
			<g>
				<g>
					<g>
						<g>
							<path fill="#697041" d="M29.954,34.629c0,0.851-0.689,1.58-1.55,1.59c-0.85,0.021-1.57-0.68-1.6-1.52
								c-0.021-0.881,0.699-1.631,1.569-1.631C29.233,33.068,29.943,33.778,29.954,34.629z"/>
						</g>
					</g>
				</g>
			</g>
		</g>
		<g>
			<g>
				<g>
					<g>
						<g>
							<path fill="#231F20" d="M28.369,36.719c-1.099,0-2.025-0.896-2.064-2.002c-0.014-0.563,0.207-1.116,0.603-1.521
								c0.395-0.403,0.916-0.626,1.467-0.626c1.133,0,2.065,0.922,2.08,2.055c0,1.146-0.917,2.083-2.044,2.097h-0.041V36.719z
								 M28.374,33.568c-0.28,0-0.547,0.115-0.752,0.325c-0.208,0.214-0.325,0.503-0.317,0.794c0.02,0.557,0.508,1.03,1.064,1.03
								h0.023l0,0c0.578-0.007,1.062-0.506,1.062-1.09C29.447,34.056,28.952,33.568,28.374,33.568z"/>
						</g>
					</g>
				</g>
			</g>
		</g>
	</g>
</g>
</svg>
