<?xml version="1.0" encoding="utf-8"?>
<!-- Generator: Adobe Illustrator 16.0.0, SVG Export Plug-In . SVG Version: 6.00 Build 0)  -->
<!DOCTYPE svg PUBLIC "-//W3C//DTD SVG 1.1//EN" "http://www.w3.org/Graphics/SVG/1.1/DTD/svg11.dtd">
<svg version="1.1" id="Vrstva_1" xmlns="http://www.w3.org/2000/svg" xmlns:xlink="http://www.w3.org/1999/xlink" x="0px" y="0px"
	 width="56.689px" height="56.689px" viewBox="0 0 56.689 56.689" enable-background="new 0 0 56.689 56.689" xml:space="preserve">
<g>
	<g>
		<path fill="#F8CE0B" d="M36.1,15.286l6.11-9.846c0.497-0.802,0.139-1.452-0.808-1.452h-12.93c-0.945,0-1.999,0.708-2.354,1.583
			l-7.778,19.14c-0.354,0.874,0.121,1.584,1.065,1.584h3.737c0.942,0,1.388,0.694,0.993,1.553L12.994,51.971
			c-0.396,0.854-0.211,0.977,0.413,0.27l30.155-34.22c0.625-0.708,0.364-1.283-0.579-1.283h-6.075
			C35.964,16.738,35.601,16.089,36.1,15.286z"/>
		<path fill="#231F20" d="M44.125,16.994c-0.09-0.2-0.37-0.54-1.141-0.54h-6.08c-0.34,0-0.59-0.1-0.689-0.28
			c-0.101-0.18-0.05-0.449,0.131-0.739l6.109-9.851c0.3-0.47,0.351-0.939,0.141-1.31c-0.2-0.37-0.631-0.57-1.19-0.57h-12.93
			c-1.07,0-2.221,0.771-2.62,1.76l-7.78,19.141c-0.21,0.51-0.18,1,0.08,1.38c0.25,0.39,0.7,0.59,1.25,0.59h3.74
			c0.35,0,0.62,0.12,0.76,0.33c0.13,0.21,0.12,0.5-0.03,0.82l-11.14,24.13c-0.28,0.601-0.271,0.819-0.17,0.971l0.13,0.159h0.16
			c0.14,0,0.33-0.069,0.77-0.55l30.15-34.23C44.295,17.624,44.215,17.195,44.125,16.994z M43.344,17.835L18.984,45.475l-5.63,6.39
			l1.79-3.88l9.25-20.021c0.229-0.51,0.229-0.989-0.011-1.369c-0.239-0.381-0.68-0.591-1.239-0.591h-3.74
			c-0.36,0-0.64-0.12-0.78-0.33c-0.13-0.199-0.16-0.46-0.05-0.76c0-0.03,0.01-0.069,0.03-0.1l7.779-19.141
			c0.311-0.76,1.261-1.399,2.091-1.399h12.93c0.341,0,0.601,0.1,0.7,0.28c0.09,0.17,0.05,0.439-0.13,0.739l-6.12,9.84
			c-0.29,0.48-0.34,0.95-0.141,1.32c0.061,0.11,0.149,0.21,0.25,0.28c0.229,0.189,0.551,0.29,0.939,0.29h6.08
			c0.391,0,0.57,0.109,0.62,0.21C43.644,17.335,43.604,17.545,43.344,17.835z"/>
	</g>
	<g>
		<g>
			<path fill="#DE9518" d="M35.854,15.135c-0.29,0.48-0.34,0.95-0.141,1.32c0.061,0.11,0.149,0.21,0.25,0.28h-1.64
				c-0.48,0-0.461-0.65,0.029-1.45l6.84-11.01h0.21c0.341,0,0.601,0.1,0.7,0.28c0.09,0.17,0.05,0.439-0.13,0.739L35.854,15.135z"/>
		</g>
		<g>
			<path fill="#DE9518" d="M43.344,17.835L18.984,45.475l23.729-28.45h0.271c0.391,0,0.57,0.109,0.62,0.21
				C43.644,17.335,43.604,17.545,43.344,17.835z"/>
		</g>
		<g>
			<path fill="#DE9518" d="M26.724,25.604c-0.2,0.38-0.36,0.689-0.36,0.689l-11.22,21.689l9.25-20.021
				c0.229-0.51,0.229-0.989-0.011-1.37c-0.239-0.38-0.68-0.59-1.239-0.59h-3.74c-0.36,0-0.64-0.12-0.78-0.33
				c-0.13-0.199-0.16-0.46-0.05-0.76h6.8C26.315,24.914,26.925,25.224,26.724,25.604z"/>
		</g>
	</g>
</g>
</svg>
