<?xml version="1.0" encoding="UTF-8" standalone="no"?>
<!-- Created with Inkscape (http://www.inkscape.org/) -->

<svg
   xmlns:dc="http://purl.org/dc/elements/1.1/"
   xmlns:cc="http://creativecommons.org/ns#"
   xmlns:rdf="http://www.w3.org/1999/02/22-rdf-syntax-ns#"
   xmlns:svg="http://www.w3.org/2000/svg"
   xmlns="http://www.w3.org/2000/svg"
   xmlns:sodipodi="http://sodipodi.sourceforge.net/DTD/sodipodi-0.dtd"
   xmlns:inkscape="http://www.inkscape.org/namespaces/inkscape"
   version="1.1"
   id="svg815"
   width="1024"
   height="1024"
   viewBox="0 0 1024 1024"
   sodipodi:docname="outline.svg"
   inkscape:version="0.92.4 (5da689c313, 2019-01-14)">
  <metadata
     id="metadata821">
    <rdf:RDF>
      <cc:Work
         rdf:about="">
        <dc:format>image/svg+xml</dc:format>
        <dc:type
           rdf:resource="http://purl.org/dc/dcmitype/StillImage" />
        <dc:title></dc:title>
      </cc:Work>
    </rdf:RDF>
  </metadata>
  <defs
     id="defs819" />
  <sodipodi:namedview
     pagecolor="#ffffff"
     bordercolor="#666666"
     borderopacity="1"
     objecttolerance="10"
     gridtolerance="10"
     guidetolerance="10"
     inkscape:pageopacity="0"
     inkscape:pageshadow="2"
     inkscape:window-width="3840"
     inkscape:window-height="2035"
     id="namedview817"
     showgrid="false"
     inkscape:zoom="1.7167969"
     inkscape:cx="449.96587"
     inkscape:cy="512"
     inkscape:window-x="-13"
     inkscape:window-y="-13"
     inkscape:window-maximized="1"
     inkscape:current-layer="svg815" />
  <path
     inkscape:connector-curvature="0"
     id="path841"
     d="m 355.21813,845.42141 c -5.59262,-2.78692 -10.03922,-7.654 -12.60189,-13.79353 -2.8077,-6.72658 -2.44062,-621.36442 0.37556,-628.84037 2.61165,-6.93298 7.659,-12.26588 14.75768,-15.5926 L 363.5,184.5 H 511 c 138.15231,0 147.81888,0.1114 152.53168,1.75785 6.97672,2.43737 11.52209,6.50832 15.53903,13.91717 L 682.5,206.5 V 518 c 0,301.88187 -0.0575,311.60807 -1.86195,315 -7.05643,13.2643 -22.08117,18.5328 -32.79579,11.5 -2.51381,-1.65 -34.19397,-32.36567 -70.40035,-68.25704 l -65.82978,-65.25703 -12.55607,12.23273 c -6.90583,6.72801 -37.15463,36.66075 -67.21954,66.5172 -63.86996,63.42709 -62.7364,62.60323 -76.61839,55.68555 z M 644,506 V 222 H 511.5 379 l 0.12566,269.25 c 0.0691,148.0875 0.40661,275.66981 0.75,283.51625 l 0.62434,14.26625 65.23394,-65.26808 65.23395,-65.26808 66.23666,65.75183 C 613.63471,760.41168 643.56694,790 643.7206,790 643.87427,790 644,662.2 644,506 Z M 501.17429,352.97525 c -36.9896,-5.3844 -51.61224,-56.46426 -23.71657,-82.84682 C 508.15866,241.09276 560,262.94629 560,304.92383 c 0,31.54803 -26.04544,52.82309 -58.82571,48.05142 z m 16.62537,-33.38024 c 6.68476,-3.47807 9.57404,-9.68818 7.95353,-17.09501 -3.41432,-15.60586 -26.84515,-15.03274 -29.40133,0.71916 -1.9273,11.87658 11.05062,21.7855 21.4478,16.37585 z"
     style="fill:#d0d0d0;fill-opacity:1" />
  <path
     inkscape:connector-curvature="0"
     id="path839"
     d="m 358.63364,846.96941 c -6.98259,-2.09179 -13.77085,-9.04712 -16.46344,-16.86863 -1.97624,-5.74064 -1.65753,-619.09677 0.32517,-625.77323 2.49292,-8.39457 11.12719,-16.64543 19.50463,-18.63853 4.66293,-1.10937 296.25647,-0.93315 299.83427,0.1812 8.50214,2.6481 13.37867,6.95838 18.28352,16.16046 L 682.5,206.5 l 0.23487,309 c 0.26455,348.04019 1.02579,315.83458 -7.67093,324.5313 -3.47172,3.47172 -6.30065,5.25848 -10.1226,6.39348 -13.34693,3.96361 -9.82381,6.78619 -86.64101,-69.41317 l -66.54304,-66.00782 -9.62864,8.88261 c -5.29576,4.88543 -35.88905,35.03137 -67.9851,66.99098 -65.76705,65.48746 -63.506,63.68808 -75.50991,60.09203 z M 644,506.5 V 222 H 511.5 379 v 282.41821 c 0,155.33002 0.23267,283.02455 0.51705,283.76562 0.42466,1.10665 127.93499,-125.06115 130.36409,-128.9915 0.34864,-0.56413 30.55552,28.82671 67.12638,65.31296 36.57086,36.48626 66.60498,66.37377 66.74248,66.41668 C 643.8875,790.96489 644,662.975 644,506.5 Z M 501.5,352.88705 c -41.85022,-6.06176 -52.82573,-66.68806 -16.07262,-88.78164 37.78937,-22.71652 85.49336,12.79988 72.58303,54.03925 -8.10792,25.89906 -28.97852,38.73023 -56.51041,34.74239 z m 20.03044,-35.91656 c 12.4986,-12.11411 -0.72072,-31.45601 -16.81256,-24.59937 -10.74389,4.57791 -11.77068,19.35012 -1.82496,26.25539 5.47028,3.798 13.77141,3.06041 18.63752,-1.65602 z"
     style="fill:#b9b9b9;fill-opacity:1" />
  <path
     inkscape:connector-curvature="0"
     id="path837"
     d="m 359.05234,846.85194 c -6.21556,-1.82368 -11.84794,-6.75529 -15.06273,-13.18864 L 341,827.68056 V 518.45511 c 0,-350.50583 -0.9104,-315.58692 8.47411,-325.02882 9.08992,-9.14551 -4.99808,-8.41232 161.93621,-8.4277 82.10334,-0.008 148.44093,0.37645 150.1481,0.86918 8.17252,2.35878 14.01339,7.51377 18.19304,16.05667 l 2.67408,5.46562 -0.14799,310.85541 -0.14798,310.85542 -2.13272,4.40561 c -5.73283,11.84245 -20.00209,17.16967 -30.99685,11.57223 -3.07874,-1.56739 -21.24031,-18.91771 -57.50342,-54.93484 -29.15189,-28.95414 -59.13084,-58.65421 -66.61991,-66.00017 l -13.61648,-13.35627 -16.88009,16.29389 c -9.28406,8.96164 -39.43356,38.78191 -66.99891,66.26725 -27.56535,27.48535 -51.64035,50.74757 -53.5,51.69382 -4.52515,2.30253 -10.61556,3.04573 -14.82885,1.80953 z M 644.34208,494 c -0.12303,-73.975 -0.25033,-165.4375 -0.28289,-203.25 L 644,222 H 511.5 379 v 283.33333 c 0,155.83334 0.24969,283.58303 0.55487,283.88821 0.30518,0.30518 30.00408,-28.97854 65.99756,-65.07493 l 65.44267,-65.62979 62.70987,62.49159 C 608.1954,755.37878 638.009,785.075 639.95742,787 l 3.54258,3.5 0.53289,-81 c 0.29309,-44.55 0.43223,-141.525 0.30919,-215.5 z M 494.41983,351.14696 c -45.00868,-16.64116 -40.43972,-83.27836 6.37939,-93.04188 35.22056,-7.34479 66.53001,24.33589 57.66959,58.35337 -3.64213,13.98305 -14.08687,27.1002 -26.11119,32.79202 -8.86286,4.19532 -28.99789,5.20186 -37.93779,1.89649 z m 25.14118,-32.18467 c 4.53835,-2.80485 7.81686,-9.76621 6.96741,-14.79408 C 523.38712,285.57501 496,286.91934 496,305.66673 c 0,11.90677 13.49048,19.51949 23.56101,13.29556 z"
     style="fill:#a3a3a3;fill-opacity:1" />
  <path
     inkscape:connector-curvature="0"
     id="path835"
     d="m 360.5,847.03171 c -7.5679,-1.72651 -14.63059,-8.09208 -17.50643,-15.77845 -3.13136,-8.36931 -3.14486,-619.10329 -0.0139,-627.46575 2.83622,-7.57518 7.3633,-12.56156 14.44698,-15.91274 l 6.07332,-2.87319 147.71249,-7.9e-4 c 146.1578,-7.8e-4 147.76979,0.0207 153.15668,2.03615 6.30683,2.35968 12.74175,8.6989 15.7627,15.52827 2.62985,5.94522 3.007,623.46484 0.38461,629.7411 -5.15792,12.34463 -20.20867,18.40786 -31.55227,12.71089 C 645.88259,843.46955 627.62107,826.00036 590,788.61134 516.33968,715.40536 511.78953,711.0169 510.3768,711.81765 c -2.33278,1.32224 -90.3812,88.14991 -122.26989,120.57467 -12.6906,12.90394 -19.46576,16.49667 -27.60691,14.63939 z M 644.6804,506.5 644.8015,222 514.15075,221.98635 c -71.85791,-0.008 -131.66325,-0.285 -132.90075,-0.61664 L 379,220.76674 V 505.38337 C 379,661.92252 379.31056,790 379.69014,790 c 0.37958,0 30.1273,-29.53847 66.10605,-65.64105 l 65.41591,-65.64105 64.58483,64.39105 c 35.52165,35.41508 65.19944,65.17855 65.95065,66.14105 0.75121,0.9625 1.69115,1.75 2.08877,1.75 0.39762,0 0.77745,-128.025 0.84405,-284.5 z M 493.76612,350.74742 c -22.58255,-8.85132 -34.77266,-31.86449 -29.63585,-55.9482 10.49443,-49.20269 81.63332,-50.03629 94.37806,-1.10592 5.39361,20.70744 -6.58333,45.91704 -26.391,55.54901 -9.08408,4.41736 -28.93364,5.19636 -38.35121,1.50511 z M 519.5,319.10499 c 3.32998,-1.83232 7.5,-9.11873 7.5,-13.10499 0,-14.68424 -22.6455,-20.81255 -29.24845,-7.91519 -7.32854,14.31465 7.64091,28.78284 21.74845,21.02018 z"
     style="fill:#8c8c8c;fill-opacity:1" />
  <path
     inkscape:connector-curvature="0"
     id="path833"
     d="m 355.5,845.34335 c -4.73416,-2.48792 -9.58889,-7.48271 -11.60477,-11.93956 -1.78936,-3.95604 -1.8605,-14.75139 -2.07905,-315.5 L 341.58989,206.5 343.63678,202 c 2.92563,-6.43187 6.86588,-10.69852 12.74348,-13.79916 L 361.5,185.5 509.9529,185.23703 c 165.46267,-0.29311 154.15101,-0.75171 162.26474,6.57856 2.16998,1.96044 5.25872,6.1661 6.86388,9.34591 L 682,206.94297 681.99,517.72148 681.98,828.5 l -2.38262,5.11703 c -5.68927,12.21854 -21.16786,17.16864 -32.15206,10.28231 C 644.7256,842.19398 617.525,815.961 587,785.60383 556.475,755.24665 526.88818,725.95838 521.25151,720.51878 l -10.24849,-9.89018 -9.75151,9.41352 c -18.17088,17.54106 -88.6496,87.29905 -106.75151,105.65983 -11.70899,11.87644 -19.2994,18.78876 -21.71788,19.77773 -4.77642,1.95318 -13.43607,1.88487 -17.28212,-0.13633 z M 644.9549,506.5 644.83831,222 517.16916,221.99131 C 446.95112,221.98653 387.1375,221.69885 384.25,221.35202 L 379,220.72142 V 505.36071 C 379,661.91232 379.34657,790 379.77015,790 c 0.42359,0 30.21073,-29.49994 66.19364,-65.55542 l 65.42349,-65.55541 66.05542,66.05541 C 613.77318,761.27506 643.85212,791 644.2848,791 c 0.43267,0 0.73422,-128.025 0.6701,-284.5 z M 495.48694,351.20123 c -47.20457,-16.32296 -41.24961,-85.61927 8.01306,-93.24588 46.18642,-7.15037 74.13826,45.79662 42.45265,80.41473 -12.21649,13.34712 -33.39867,18.7328 -50.46571,12.83115 z m 24.0125,-32.0825 c 13.25661,-7.64685 7.06052,-28.39251 -8.4441,-28.27241 -9.42252,0.073 -15.04461,5.47161 -15.0516,14.45334 -0.0102,13.05682 12.28287,20.287 23.4957,13.81907 z"
     style="fill:#767676;fill-opacity:1" />
  <path
     inkscape:connector-curvature="0"
     id="path831"
     d="m 355.49142,845.13502 c -4.61641,-2.09719 -9.84389,-7.6495 -11.95182,-12.69448 -1.26331,-3.02353 -1.47326,-44.73061 -1.58555,-314.96592 l -0.12942,-311.48091 2.2606,-4.66977 c 3.20103,-6.61244 8.73417,-11.73852 15.33748,-14.20914 L 365.07503,185 h 146.28098 c 161.92406,0 152.32327,-0.39023 160.39567,6.51944 2.40349,2.0573 5.45438,6.18949 7.21528,9.77253 l 3.05096,6.20803 -0.25896,311.57846 -0.25896,311.57846 -3.02644,4.8951 c -6.2791,10.15614 -19.08752,14.25959 -29.06581,9.31184 -3.47254,-1.72187 -16.21392,-13.77052 -46.9145,-44.36386 -61.74053,-61.52487 -90.56023,-89.64707 -91.51878,-89.30382 -1.67684,0.60046 -35.37201,33.43346 -84.47447,82.31299 -57.61931,57.35771 -57.91622,57.57358 -71.00858,51.62585 z M 645,506.5 V 222 l -24.75,-0.0943 c -13.6125,-0.0519 -73.4625,-0.16439 -133,-0.25 L 378.99999,221.5 379,505.75 c 0,156.3375 0.36074,284.25 0.80165,284.25 0.44091,0 30.22954,-29.49845 66.19696,-65.5521 l 65.3953,-65.5521 66.0521,66.0521 C 613.77467,761.27655 643.83604,791 644.24906,791 644.66208,791 645,662.975 645,506.5 Z M 495.16235,351.06701 c -46.54816,-17.26439 -40.63956,-85.24286 8.08577,-93.02677 46.46517,-7.42285 74.33503,46.13278 42.11657,80.93256 -11.66658,12.60131 -34.19926,18.02964 -50.20234,12.09421 z M 517.97957,319.75 c 15.03032,-7.68012 9.79535,-29.24295 -7.05056,-29.04124 -14.17208,0.1697 -20.33132,14.92982 -10.77285,25.81631 4.91556,5.59852 11.01748,6.70259 17.82341,3.22493 z"
     style="fill:#606060;fill-opacity:1" />
  <path
     inkscape:connector-curvature="0"
     id="path829"
     d="m 356.42228,845.58157 c -4.8328,-2.10437 -10.02039,-7.19516 -12.32239,-12.09245 l -2.10932,-4.48739 0.25471,-312.25087 c 0.25009,-306.57248 0.28994,-312.32184 2.19146,-316.15426 2.61388,-5.26816 7.3452,-9.82034 13.20496,-12.70497 L 362.5,185.5 h 149 149 l 5.25728,2.37628 c 6.14462,2.77735 10.60519,7.48949 13.89791,14.68173 l 2.35742,5.14928 -0.25631,311.39635 c -0.23811,289.29196 -0.3754,311.61363 -1.93413,314.45715 -6.36191,11.60569 -21.06707,16.70485 -30.96998,10.73914 C 646.26753,842.74288 615.08226,812.64682 578.5985,776.5 542.51526,740.75 512.53,711.34524 511.96458,711.15609 510.29193,710.59654 490.86363,729.2094 431.7541,788 c -35.14332,34.9537 -57.18065,56.13815 -59.52759,57.22378 -4.44081,2.05419 -11.5393,2.21489 -15.80423,0.35779 z M 644.75173,506.75 644.5,221.5 511.75,221.2396 379,220.9792 V 505.4896 C 379,661.97032 379.34868,790 379.77483,790 c 0.42616,0 30.19483,-29.45261 66.15259,-65.45025 l 65.37775,-65.45025 66.09741,66.27183 c 36.35358,36.44951 66.4357,66.35212 66.84915,66.45025 0.41345,0.0981 0.63845,-128.18408 0.5,-285.07158 z M 497.02424,351.39691 c -34.72385,-9.33114 -45.47038,-56.04124 -18.6628,-81.11841 33.95675,-31.76487 91.22384,0.72551 79.67446,45.20315 -7.2774,28.02588 -33.32059,43.35652 -61.01166,35.91526 z m 23.47043,-32.82505 c 10.90601,-8.31841 7.78055,-23.71265 -5.63007,-27.73057 -8.27672,-2.47977 -17.36437,3.09896 -18.95983,11.63907 -2.69564,14.42907 13.16324,24.80704 24.5899,16.0915 z"
     style="fill:#494949;fill-opacity:1" />
  <path
     inkscape:connector-curvature="0"
     id="path827"
     d="m 357.5,845.93904 c -4.18545,-1.22855 -10.75073,-6.84327 -10.07151,-8.61328 0.31147,-0.81169 0.11109,-1.15924 -0.4636,-0.80406 -0.55671,0.34407 -1.90439,-1.39136 -2.99484,-3.85649 -2.93707,-6.63975 -2.64411,-626.01682 0.29865,-631.40171 2.98596,-5.46395 7.80998,-10.26463 13.14128,-13.07772 L 362.5,185.5 h 149 149 l 5.72538,2.81098 c 5.91626,2.90468 10.22756,7.14714 9.10649,8.96107 -0.37399,0.60512 -0.15405,0.73608 0.52813,0.31448 0.75649,-0.46754 2.04265,1.15412 3.64474,4.59549 l 2.47572,5.31798 0.01,309.72976 c 0.009,285.28277 -0.12029,310.06682 -1.63803,314 -4.74218,12.28924 -19.15898,18.88677 -30.01908,13.73755 -5.45418,-2.58605 -30.65632,-26.63534 -29.6383,-28.28253 0.33781,-0.54659 0.17756,-0.72394 -0.3561,-0.39412 -1.30037,0.80367 -34.62844,-32.64634 -33.625,-33.74804 0.43245,-0.4748 0.29832,-0.58564 -0.29807,-0.24631 -1.21682,0.69234 -9.75507,-7.52967 -8.93818,-8.60712 0.28739,-0.37905 0.21159,-0.45325 -0.16844,-0.16488 -1.07739,0.81751 -10.29579,-8.72599 -9.60379,-9.94248 0.33848,-0.59501 0.25628,-0.75734 -0.18266,-0.36075 -1.13351,1.02416 -26.08963,-23.22296 -25.7057,-24.9754 0.1918,-0.87544 -0.13634,-1.16628 -0.83126,-0.73679 -1.45589,0.89979 -7.13115,-4.43456 -6.28974,-5.91191 0.34363,-0.60334 0.23998,-0.74684 -0.23031,-0.31889 -1.64017,1.49249 -13.5632,-11.44249 -12.18207,-13.216 1.04012,-1.3356 0.98859,-1.38453 -0.35536,-0.33749 -1.72307,1.34241 -9.74756,-5.57185 -8.22896,-7.09045 0.40692,-0.40692 -0.14643,-0.41515 -1.22966,-0.0183 -2.62405,0.96137 -6.64657,4.44608 -21.09741,18.27674 -15.92153,15.23823 -19.95185,18.90326 -18.91748,17.20289 0.58561,-0.96266 0.48606,-1.17687 -0.31643,-0.6809 -0.64395,0.39798 -0.95973,1.06516 -0.70173,1.48262 0.258,0.41746 -21.45085,22.61017 -48.2419,49.31714 -54.72818,54.55643 -53.19283,53.39431 -65.69457,49.72469 z m -11.22062,-12.9787 c -0.29336,-1.12182 -0.75683,-1.81623 -1.02992,-1.54313 -0.541,0.54099 0.41459,3.58279 1.12554,3.58279 0.24077,0 0.19774,-0.91785 -0.0956,-2.03966 z M 645,506.5 V 221 H 512 379 l -0.18518,62.75 c -0.2353,79.73387 0.35094,506.64924 0.69628,507.05165 0.14238,0.16591 2.64541,-2.17075 5.56228,-5.19258 2.91687,-3.02183 5.66863,-5.26852 6.11501,-4.99264 0.44639,0.27588 0.81161,-0.11168 0.81161,-0.86125 0,-1.90431 6.44571,-7.9592 7.47607,-7.02276 0.46452,0.42217 0.56765,0.28076 0.22917,-0.31425 -0.89759,-1.57788 8.80533,-10.83869 10.35358,-9.88182 0.78866,0.48742 0.99813,0.36481 0.56739,-0.33213 -0.64337,-1.04101 18.84354,-21.70422 20.46867,-21.70422 0.40615,0 1.11345,-0.40965 1.57179,-0.91033 0.48416,-0.52889 0.30957,-0.60891 -0.41667,-0.19098 -2.1625,1.24446 -1.37494,0.1116 2.40018,-3.45252 2.00759,-1.89539 3.28545,-2.77117 2.83967,-1.94617 -0.44577,0.825 -0.47585,1.2 -0.0668,0.83333 0.40901,-0.36666 0.59366,-0.89291 0.41032,-1.16943 -0.63494,-0.95769 4.46184,-5.59951 5.46654,-4.97857 0.55503,0.34303 0.73743,0.18403 0.40532,-0.35332 -0.3321,-0.53735 3.20836,-4.76938 7.86769,-9.40451 4.65933,-4.63512 8.58502,-8.2025 8.72376,-7.9275 0.34867,0.69111 4.78608,-3.03862 7.17489,-6.03063 1.08434,-1.35816 -0.26566,-0.44557 -3,2.02797 l -4.97153,4.49734 5.42023,-5.70115 c 2.98112,-3.13564 5.90612,-5.42479 6.5,-5.08702 0.59387,0.33778 0.72922,0.22894 0.30076,-0.24186 -1.00345,-1.10263 12.30858,-14.56441 13.60816,-13.76123 0.53893,0.33308 0.70835,0.16628 0.3765,-0.37067 -0.58052,-0.93931 16.42439,-18.68299 17.67978,-18.44786 0.33801,0.0633 0.65284,-0.22239 0.69961,-0.63489 0.17806,-1.57048 2.18569,-3.20071 3.18278,-2.58448 0.57266,0.35392 0.76054,0.18938 0.41751,-0.36565 -0.34303,-0.55503 0.42824,-1.99738 1.71392,-3.20522 l 2.33762,-2.19608 2.64664,3.30072 c 1.45565,1.81539 3.20236,3.9666 3.88156,4.78047 0.67921,0.81387 1.11128,1.85982 0.96015,2.32433 -0.15112,0.46451 0.11259,0.60516 0.58604,0.31256 0.99701,-0.61619 15.3269,13.82855 14.64404,14.76139 -0.25042,0.34208 -0.14314,0.3848 0.23839,0.0949 1.04126,-0.79108 12.30722,10.71654 11.60455,11.85348 -0.33399,0.54041 -0.19527,0.72794 0.30828,0.41673 1.43501,-0.88688 4.69764,1.95566 3.83911,3.34479 -0.45488,0.73601 -0.33833,0.96375 0.29341,0.57331 1.54494,-0.95482 11.66968,8.86839 10.72164,10.40234 -0.43482,0.70355 -0.36003,0.99221 0.1719,0.66346 0.51788,-0.32007 19.14991,17.55863 41.40451,39.73043 22.2546,22.17181 40.80041,40.36415 41.21291,40.42743 C 644.6625,791.94822 645,663.525 645,506.5 Z M 498.5,351.6124 c -9.5814,-2.33308 -24.56747,-12.07619 -22.8497,-14.8556 0.36978,-0.59831 0.18977,-0.77599 -0.41038,-0.40508 -1.38229,0.85431 -5.60956,-5.94462 -4.6557,-7.48799 0.44318,-0.71708 0.29276,-0.90573 -0.38712,-0.48554 -3.13496,1.93751 -7.70135,-15.57867 -6.71589,-25.76139 1.16982,-12.0877 8.21894,-29.07599 11.77031,-28.36629 0.68666,0.13722 1.148,-0.27695 1.02519,-0.92037 -0.98389,-5.15489 18.89898,-14.64601 31.76431,-15.16275 13.086,-0.5256 31.16189,4.70158 30.22098,8.7393 -0.13091,0.56173 0.34783,0.79653 1.06386,0.52176 2.19519,-0.84237 12.48368,10.93999 15.86789,18.17188 9.96825,21.30167 -0.4969,51.70635 -21.38833,62.14003 -9.98742,4.98796 -24.28363,6.55586 -35.30542,3.87204 z m 18.78212,-30.98924 c 10.36346,-4.43422 13.07688,-16.43334 5.69608,-25.18876 l -4.22628,-5.01339 -6.67007,0.0807 c -10.76817,0.13026 -15.09524,3.73627 -16.6108,13.84282 -1.73643,11.5793 10.84609,20.97024 21.81107,16.27864 z M 395.15459,778.33333 c -0.007,-0.45833 0.74014,-1.73333 1.65952,-2.83333 1.10199,-1.3185 0.74746,-1.18378 -1.04044,0.39536 -1.49162,1.31745 -2.45584,2.80989 -2.14271,3.31653 0.61745,0.99906 1.5431,0.46532 1.52363,-0.87856 z m 251.5888,-28.53958 c -0.1903,-4.01156 -0.34727,-0.99375 -0.34883,6.70625 -0.002,7.7 0.15414,10.98219 0.34599,7.29375 0.19186,-3.68844 0.19314,-9.98844 0.003,-14 z M 447.5,726 c 0.99549,-1.1 1.58498,-2 1.30998,-2 -0.275,0 -1.31449,0.9 -2.30998,2 -0.99549,1.1 -1.58498,2 -1.30998,2 0.275,0 1.31449,-0.9 2.30998,-2 z M 477,695.5 c 1.86578,-1.925 3.16733,-3.5 2.89233,-3.5 -0.275,0 -2.02655,1.575 -3.89233,3.5 -1.86578,1.925 -3.16733,3.5 -2.89233,3.5 0.275,0 2.02655,-1.575 3.89233,-3.5 z m 19.59501,-18.75 1.90499,-2.25 -2.5,1.98934 c -1.375,1.09414 -2.6875,2.10664 -2.91667,2.25 -0.22916,0.14336 0.0386,0.26066 0.59502,0.26066 0.55642,0 1.86892,-1.0125 2.91666,-2.25 z m 184.09432,-437.5 c -0.25153,-0.9625 -0.45733,-0.175 -0.45733,1.75 0,1.925 0.2058,2.7125 0.45733,1.75 0.25152,-0.9625 0.25152,-2.5375 0,-3.5 z m 0,-16 c -0.25153,-0.9625 -0.45733,-0.175 -0.45733,1.75 0,1.925 0.2058,2.7125 0.45733,1.75 0.25152,-0.9625 0.25152,-2.5375 0,-3.5 z m -336.98207,-8.48834 c -0.23919,-1.24391 -0.44398,-0.46166 -0.45508,1.73834 -0.0111,2.2 0.18461,3.21775 0.4349,2.26166 0.25029,-0.95609 0.25937,-2.75609 0.0202,-4 z"
     style="fill:#000000;fill-opacity:1" />
</svg>
