<?xml version="1.0" encoding="UTF-8" standalone="no"?>
<!-- Created with Inkscape (http://www.inkscape.org/) -->

<svg
   xmlns:dc="http://purl.org/dc/elements/1.1/"
   xmlns:cc="http://creativecommons.org/ns#"
   xmlns:rdf="http://www.w3.org/1999/02/22-rdf-syntax-ns#"
   xmlns:svg="http://www.w3.org/2000/svg"
   xmlns="http://www.w3.org/2000/svg"
   xmlns:sodipodi="http://sodipodi.sourceforge.net/DTD/sodipodi-0.dtd"
   xmlns:inkscape="http://www.inkscape.org/namespaces/inkscape"
   version="1.1"
   id="svg815"
   width="1024"
   height="1024"
   viewBox="0 0 1024 1024"
   sodipodi:docname="reproductor.svg"
   inkscape:version="0.92.4 (5da689c313, 2019-01-14)">
  <metadata
     id="metadata821">
    <rdf:RDF>
      <cc:Work
         rdf:about="">
        <dc:format>image/svg+xml</dc:format>
        <dc:type
           rdf:resource="http://purl.org/dc/dcmitype/StillImage" />
        <dc:title></dc:title>
      </cc:Work>
    </rdf:RDF>
  </metadata>
  <defs
     id="defs819" />
  <sodipodi:namedview
     pagecolor="#ffffff"
     bordercolor="#666666"
     borderopacity="1"
     objecttolerance="10"
     gridtolerance="10"
     guidetolerance="10"
     inkscape:pageopacity="0"
     inkscape:pageshadow="2"
     inkscape:window-width="3840"
     inkscape:window-height="2035"
     id="namedview817"
     showgrid="false"
     inkscape:zoom="1.7167969"
     inkscape:cx="511.70876"
     inkscape:cy="512"
     inkscape:window-x="-13"
     inkscape:window-y="-13"
     inkscape:window-maximized="1"
     inkscape:current-layer="svg815" />
  <path
     style="fill:#000000"
     d="m 495.5,821.42039 c -2.2,-0.21265 -9.625,-0.87153 -16.5,-1.46417 C 426.22882,815.40718 374.58684,796.346 328,764.22175 260.45914,717.64853 213.12265,647.0132 196.58362,568.12271 191.87948,545.68417 190.52633,531.39176 190.51269,504 c -0.0166,-33.33034 2.33318,-52.61605 9.92616,-81.46898 11.42355,-43.40888 32.93443,-85.71118 62.06115,-122.04659 34.37258,-42.87958 83.21965,-78.62339 135.00344,-98.78866 60.62247,-23.60717 131.13701,-27.66588 194.89448,-11.21784 82.61669,21.3133 153.76757,74.07515 197.6125,146.53928 25.46714,42.0905 40.39691,86.95148 45.08519,135.472 1.71299,17.7283 0.63463,56.37589 -2.06508,74.01079 -15.83707,103.45007 -79.96613,192.09962 -172.91695,239.03373 -37.88136,19.12762 -72.8806,29.7125 -112.48997,34.02056 -13.99155,1.52177 -44.4168,2.61104 -52.12361,1.8661 z m 55,-137.71285 c 16.79468,-3.79259 29.57728,-8.39387 45.5,-16.37837 49.89791,-25.02146 86.88364,-73.31486 98.6112,-128.75967 C 698.10473,522.053 698.99294,494.70573 696.57842,478 690.26237,434.30011 671.5967,398.09391 639.34582,366.98474 618.14971,346.53899 594.22044,332.1809 567,323.57566 c -30.23077,-9.55691 -64.60364,-11.14044 -95.90817,-4.4184 -62.42843,13.40529 -116.46447,62.90283 -137.02481,125.51607 -7.0504,21.47086 -8.55161,31.5443 -8.54319,57.32667 0.008,24.35088 0.80598,30.5722 6.37521,49.70101 18.58225,63.82504 68.70254,113.1353 131.82228,129.69181 18.42573,4.83313 25.67501,5.55575 51.77868,5.16136 21.1144,-0.31901 25.32257,-0.66127 35,-2.84664 z m -52,-46.84969 c -13.13657,-1.66864 -30.46506,-7.27468 -35.44885,-11.46826 -4.16933,-3.50827 -5.54737,-8.2662 -3.68506,-12.72334 0.80553,-1.9279 2.35365,-3.98107 3.44027,-4.56262 8.34544,-4.46634 71.00518,-5.23541 93.00371,-1.1415 8.59593,1.5997 12.00728,9.18648 6.99551,15.55791 -4.56849,5.8079 -23.58727,12.46248 -41.30558,14.45265 -10.22244,1.14821 -13.17245,1.13348 -23,-0.11484 z m -79.17126,-45.31561 c -5.26913,-2.29203 -6.90969,-7.8401 -3.68128,-12.44931 1.98086,-2.82806 10.78221,-6.92692 22.35254,-10.40974 44.26618,-13.32469 98.54303,-13.75929 144.52428,-1.15723 17.50776,4.79834 25.14636,8.44153 26.99978,12.87738 1.77508,4.24836 0.74881,7.71654 -3.01269,10.18117 -3.1054,2.03473 -10.17126,1.72422 -39.01137,-1.71437 -16.46488,-1.96309 -23.93681,-2.26926 -56,-2.29466 -37.57945,-0.0298 -44.42175,0.40604 -77.78438,4.9543 -5.93141,0.80862 -10.88141,1.45261 -11,1.43108 -0.11859,-0.0215 -1.64269,-0.65991 -3.38688,-1.41862 z M 396.02056,559.85932 C 391.76561,558.20394 390,555.91889 390,552.06752 c 0,-7.54513 4.56696,-10.30767 31.35424,-18.96608 39.78849,-12.86077 63.51824,-16.7094 97.59926,-15.82921 28.16382,0.72736 51.03365,4.92929 83.0465,15.25832 29.19432,9.41963 35.0953,13.51894 31.57809,21.93679 -2.90576,6.95447 -7.10604,7.10478 -25.99706,0.93034 -16.90106,-5.52403 -34.00709,-9.52848 -53.58103,-12.5431 -19.62121,-3.0219 -63.91262,-3.31287 -82.5,-0.54198 -17.37772,2.59056 -36.91239,7.20185 -53.5,12.62902 -18.03758,5.90159 -18.9346,6.10229 -21.97944,4.9177 z M 381,522.29377 c -10.03654,-3.66891 -12.34756,-29.2275 -3.98772,-44.10183 4.18298,-7.44261 8.30714,-7.80004 25.95362,-2.24933 18.32215,5.76323 39.17115,11.54482 50.42216,13.98244 11.35353,2.45984 13.16215,3.24697 13.89436,6.04693 1.07363,4.10558 -2.08598,5.7795 -18.78242,9.95069 -8.8,2.19845 -26.3223,6.94022 -38.93844,10.53726 -22.26715,6.34868 -25.40174,6.98893 -28.56156,5.83384 z m 237,-4.87062 c -10.175,-3.00032 -27.725,-7.73934 -39,-10.53117 -11.275,-2.79183 -21.0625,-5.53974 -21.75,-6.10646 -2.01413,-1.6603 -1.46419,-5.60326 1,-7.1697 1.2375,-0.78665 5.85,-2.1572 10.25,-3.04566 10.69877,-2.16033 37.1867,-9.57703 51.95316,-14.54704 19.80984,-6.66747 24.28598,-5.277 28.58604,8.88003 2.94047,9.68085 2.50995,24.35132 -0.90744,30.92249 -2.13055,4.09675 -6.76716,7.28357 -10.34964,7.11349 -0.70517,-0.0335 -9.60712,-2.51567 -19.78212,-5.51598 z m -127,-40.0717 c -9.10199,-0.86437 -29.58603,-4.46433 -39.40287,-6.92485 -24.55588,-6.15475 -51.23311,-15.7456 -55.69966,-20.02483 -5.29094,-5.06905 -3.29229,-13.26064 3.66126,-15.00587 1.76023,-0.44179 6.73206,0.66902 15.27544,3.41285 63.16063,20.28495 133.48713,20.47607 192.89444,0.52421 14.68712,-4.93265 17.79644,-5.02352 21.2592,-0.62132 2.44218,3.10472 2.58112,7.03109 0.36097,10.20079 -4.89051,6.98218 -49.9,21.52288 -82.34878,26.60348 -10.19509,1.59628 -46.11994,2.7738 -56,1.83554 z m -0.5,-41.97971 c -30.1257,-2.50855 -64.4638,-11.13554 -71.22178,-17.89352 -3.6472,-3.6472 -3.95873,-5.26159 -1.81521,-9.4067 2.51431,-4.86214 5.03676,-5.03884 30.20033,-2.11563 46.13526,5.35945 83.14595,5.36539 128.67332,0.0207 22.39979,-2.62965 25.73837,-2.59005 28.48903,0.33789 3.28505,3.49678 2.94424,8.85991 -0.76116,11.9778 -5.51675,4.64204 -32.88715,12.24644 -55.06453,15.29873 -10.34464,1.42375 -48.74841,2.59277 -58.5,1.78076 z M 479,390.88543 c -12.21173,-1.08322 -16.61858,-2.37367 -18.63968,-5.45826 -4.11037,-6.27323 2.62491,-13.1811 17.73429,-18.18873 12.14189,-4.02412 19.821,-5.22158 33.54492,-5.23089 16.98089,-0.0115 34.75403,4.09913 46.20137,10.68565 7.61749,4.38292 8.86866,12.36148 2.45206,15.63655 -6.27722,3.20393 -56.26742,4.77551 -81.29296,2.55568 z"
     id="path825"
     inkscape:connector-curvature="0" />
</svg>
