<?xml version="1.0" encoding="UTF-8" standalone="no"?>
<!-- Created with Inkscape (http://www.inkscape.org/) -->

<svg
   xmlns:dc="http://purl.org/dc/elements/1.1/"
   xmlns:cc="http://creativecommons.org/ns#"
   xmlns:rdf="http://www.w3.org/1999/02/22-rdf-syntax-ns#"
   xmlns:svg="http://www.w3.org/2000/svg"
   xmlns="http://www.w3.org/2000/svg"
   xmlns:sodipodi="http://sodipodi.sourceforge.net/DTD/sodipodi-0.dtd"
   xmlns:inkscape="http://www.inkscape.org/namespaces/inkscape"
   version="1.1"
   id="svg815"
   width="512"
   height="512"
   viewBox="0 0 512 512"
   sodipodi:docname="attachment.svg"
   inkscape:version="0.92.4 (5da689c313, 2019-01-14)">
  <metadata
     id="metadata821">
    <rdf:RDF>
      <cc:Work
         rdf:about="">
        <dc:format>image/svg+xml</dc:format>
        <dc:type
           rdf:resource="http://purl.org/dc/dcmitype/StillImage" />
        <dc:title></dc:title>
      </cc:Work>
    </rdf:RDF>
  </metadata>
  <defs
     id="defs819" />
  <sodipodi:namedview
     pagecolor="#ffffff"
     bordercolor="#666666"
     borderopacity="1"
     objecttolerance="10"
     gridtolerance="10"
     guidetolerance="10"
     inkscape:pageopacity="0"
     inkscape:pageshadow="2"
     inkscape:window-width="3840"
     inkscape:window-height="2035"
     id="namedview817"
     showgrid="false"
     inkscape:zoom="3.4335938"
     inkscape:cx="256"
     inkscape:cy="256"
     inkscape:window-x="-13"
     inkscape:window-y="-13"
     inkscape:window-maximized="1"
     inkscape:current-layer="svg815" />
  <path
     style="fill:#000000;stroke-width:0.5"
     d="m 247,401.45605 c -12.31159,-1.58025 -26.20139,-6.99052 -37.85041,-14.74327 -17.14924,-11.41329 -30.66206,-31.51033 -35.18394,-52.32757 -1.75504,-8.07964 -2.08467,-25.79103 -1.79383,-96.38521 0.21858,-53.05669 0.39781,-65.60781 0.99245,-69.5 2.35213,-15.39573 8.28995,-28.68058 18.10335,-40.50308 3.90793,-4.708 12.97286,-13.48305 17.20288,-16.65276 15.04287,-11.27216 36.11962,-17.10532 55.6545,-15.40282 11.85498,1.03318 19.30078,3.060195 29.625,8.06499 13.17056,6.38459 24.425,15.77548 33.24915,27.74367 10.23868,13.8867 15.17926,27.14963 16.48357,44.25 0.67659,8.87054 0.69156,139.70564 0.0169,147.25 -1.58684,17.74342 -9.51332,35.99431 -21.59622,49.72575 -13.67445,15.54014 -31.37658,25.0987 -52.40334,28.29606 -5.107,0.77658 -17.1188,0.87493 -22.5,0.18424 z m 24.5,-30.37607 c 10.40244,-2.80252 17.32285,-6.63544 24.85731,-13.76743 6.73502,-6.37526 10.44787,-11.73485 13.89834,-20.06255 3.62903,-8.75867 3.40309,-3.61435 3.59039,-81.75 0.16927,-70.61226 0.009,-79.25221 -1.60154,-86.1956 -4.12052,-17.76736 -18.26475,-33.64536 -36.09661,-40.52129 -17.02177,-6.56356 -35.54864,-3.96217 -50.41435,7.07877 -12.98021,9.64055 -21.41151,24.19794 -23.23611,40.1192 -0.2966,2.58814 -0.49084,32.4437 -0.49333,75.82843 -0.005,77.3469 -0.0644,75.46398 2.65843,83.44049 2.63845,7.72926 6.254,13.50915 12.66405,20.24502 7.81163,8.20869 18.14296,13.90516 29.48616,16.25805 5.14739,1.06771 19.6983,0.67099 24.68726,-0.67309 z m -24.25,-40.30212 c -6.2167,-1.44579 -13.38883,-4.90253 -18.78148,-9.05208 -7.28294,-5.60409 -13.70249,-15.51527 -16.02672,-24.74372 L 211.25,292.25 V 242.5 192.75 l 1.38989,-2.83027 c 1.60593,-3.27021 4.51928,-6.10402 7.73999,-7.5287 3.0711,-1.35849 8.19064,-1.34898 11.28764,0.0209 3.06743,1.35687 7.23544,5.30766 8.53268,8.088 1.03786,2.2244 1.05265,2.79888 1.2998,50.5 l 0.25,48.25 1.29508,2.75 c 1.7901,3.80113 3.55708,5.73257 6.60287,7.21746 8.84105,4.3102 18.75733,1.41629 22.70701,-6.62666 L 273.75,289.75 274,241.5 l 0.25,-48.25 1.11447,-2.41475 c 2.77499,-6.01266 7.70857,-9.39318 13.75947,-9.4281 6.22884,-0.036 12.46951,4.158 14.66735,9.85693 0.92102,2.38821 0.95871,4.37261 0.95871,50.48592 0,50.69154 -0.0148,51.05978 -2.33923,58.25 -4.64886,14.38041 -16.94559,26.21807 -31.24252,30.07614 -5.07954,1.37074 -19.25353,1.78657 -23.91825,0.70172 z"
     id="path825"
     inkscape:connector-curvature="0" />
</svg>
