<?xml version="1.0" encoding="UTF-8" standalone="no"?>
<!-- Created with Inkscape (http://www.inkscape.org/) -->

<svg
   xmlns:dc="http://purl.org/dc/elements/1.1/"
   xmlns:cc="http://creativecommons.org/ns#"
   xmlns:rdf="http://www.w3.org/1999/02/22-rdf-syntax-ns#"
   xmlns:svg="http://www.w3.org/2000/svg"
   xmlns="http://www.w3.org/2000/svg"
   xmlns:sodipodi="http://sodipodi.sourceforge.net/DTD/sodipodi-0.dtd"
   xmlns:inkscape="http://www.inkscape.org/namespaces/inkscape"
   version="1.1"
   id="svg815"
   width="512"
   height="512"
   viewBox="0 0 512 512"
   sodipodi:docname="sidebar-favourites.svg"
   inkscape:version="0.92.4 (5da689c313, 2019-01-14)">
  <metadata
     id="metadata821">
    <rdf:RDF>
      <cc:Work
         rdf:about="">
        <dc:format>image/svg+xml</dc:format>
        <dc:type
           rdf:resource="http://purl.org/dc/dcmitype/StillImage" />
        <dc:title></dc:title>
      </cc:Work>
    </rdf:RDF>
  </metadata>
  <defs
     id="defs819" />
  <sodipodi:namedview
     pagecolor="#ffffff"
     bordercolor="#666666"
     borderopacity="1"
     objecttolerance="10"
     gridtolerance="10"
     guidetolerance="10"
     inkscape:pageopacity="0"
     inkscape:pageshadow="2"
     inkscape:window-width="3840"
     inkscape:window-height="2035"
     id="namedview817"
     showgrid="false"
     inkscape:zoom="0.30348968"
     inkscape:cx="-2950.1732"
     inkscape:cy="277.06973"
     inkscape:window-x="-13"
     inkscape:window-y="-13"
     inkscape:window-maximized="1"
     inkscape:current-layer="svg815" />
  <path
     style="fill:#000000;stroke-width:0.5"
     d="m 139.03566,421.94715 c -2.79737,-0.85185 -5.79201,-3.2299 -7.58405,-6.02256 -1.38453,-2.1576 -1.70923,-3.19414 -1.84701,-5.8962 -0.14818,-2.90575 0.12519,-4.10246 2.405,-10.52839 1.41469,-3.9875 4.55587,-13.1 6.98039,-20.25 2.42452,-7.15 8.16662,-23.9125 12.76022,-37.25 10.50154,-30.49115 19.75557,-58.03253 19.7309,-58.72206 -0.0189,-0.52992 -4.92747,-4.22387 -27.73111,-20.86941 -3.575,-2.60957 -18.45339,-13.61279 -33.0631,-24.4516 -14.609695,-10.83881 -29.86493,-22.13597 -33.900515,-25.1048 -8.016685,-5.89759 -9.791975,-7.96334 -10.83006,-12.60198 -1.16825,-5.22029 1.75494,-11.13603 6.780105,-13.72108 l 2.48643,-1.27907 64.45687,-0.25 64.45687,-0.25 4.95111,-14 c 9.84582,-27.84052 18.59349,-52.75333 22.91133,-65.25 12.57291,-36.388445 11.92763,-34.83447 15.41594,-37.124915 3.76617,-2.472895 7.65066,-3.013205 11.61282,-1.615275 4.54841,1.60477 7.5252,5.1016 9.52236,11.18591 3.41941,10.417175 24.25254,69.83815 32.84417,93.67928 l 4.81995,13.375 63.76786,0.022 c 68.86041,0.0237 65.60095,-0.10273 69.25773,2.68643 5.43773,4.14757 6.32897,13.06779 1.83878,18.40408 -0.72796,0.86513 -6.6122,5.50844 -13.07611,10.31847 -6.4639,4.81003 -21.12961,15.73706 -32.59047,24.28229 -11.46085,8.54523 -25.18585,18.73451 -30.5,22.64284 -5.31414,3.90832 -13.49778,9.92958 -18.18586,13.38056 l -8.52378,6.27452 4.60426,13.61944 c 2.53235,7.49068 7.23127,21.26943 10.44205,30.61943 3.21079,9.35 8.60821,25.1 11.99428,35 3.38606,9.9 8.20409,23.92662 10.70673,31.17026 5.00498,14.48644 5.27817,16.09668 3.52561,20.78082 -1.78384,4.76773 -6.69274,7.99046 -12.22536,8.02602 -3.72318,0.024 -4.28878,-0.29608 -17.25,-9.75992 -5.3625,-3.91551 -12.45,-9.03772 -15.75,-11.38269 -3.3,-2.34497 -8.71337,-6.19203 -12.02971,-8.54904 -3.31633,-2.357 -11.48374,-8.22295 -18.14978,-13.03545 -6.66605,-4.8125 -16.56996,-11.9 -22.0087,-15.75 -5.43875,-3.85 -13.8661,-9.86019 -18.72745,-13.35597 l -8.83882,-6.35598 -14.1826,10.17114 c -7.80043,5.59413 -18.88068,13.60572 -24.62277,17.80354 -10.5153,7.68731 -12.89484,9.43081 -30.69017,22.48681 -5.3625,3.93434 -12,8.80233 -14.75,10.81777 -2.75,2.01544 -8.2625,6.07362 -12.25,9.01819 -3.9875,2.94456 -8.21074,5.89541 -9.38497,6.55743 -2.44103,1.37625 -6.90762,1.86779 -9.57937,1.05421 z M 180,365.74416 c 12.20892,-9.0382 32.34222,-23.69689 54.93082,-39.99416 3.43044,-2.475 6.29932,-4.725 6.37529,-5 0.076,-0.275 -1.80418,-1.85 -4.17811,-3.5 -2.37392,-1.65 -7.70513,-5.4946 -11.84712,-8.54355 -16.45615,-12.11352 -27.85131,-20.30252 -28.01669,-20.13389 -0.35952,0.36659 -11.41106,32.16678 -21.26102,61.17744 -3.22606,9.50154 -6.69433,19.14572 -8.81029,24.49864 -0.3916,0.99065 -0.38294,0.99098 1.08118,0.0411 0.81176,-0.52666 6.08844,-4.37216 11.72594,-8.54558 z m 162.19338,7.13084 c -0.41924,-1.16875 -3.35012,-9.6625 -6.51306,-18.875 -15.3913,-44.82929 -22.70379,-65.48939 -23.18032,-65.49185 -0.28679,-0.002 -14.64506,10.30154 -27.5,19.7331 -4.8125,3.53088 -10.60625,7.7753 -12.875,9.43204 -2.26875,1.65674 -4.11976,3.13925 -4.11334,3.29448 0.006,0.15522 2.98766,2.43192 6.625,5.05931 3.63734,2.62741 11.78834,8.52736 18.11334,13.11103 10.32734,7.48413 23.19979,16.70141 39,27.92587 3.025,2.14896 6.625,4.80197 8,5.89558 1.375,1.0936 2.65877,2.00008 2.85282,2.01441 0.19405,0.0143 0.01,-0.93022 -0.40944,-2.09897 z M 198.69993,237.48095 c 4.91075,-14.58548 8.82349,-26.62419 8.695,-26.75269 -0.1285,-0.1285 -20.44134,-0.17618 -45.13965,-0.10594 l -44.90601,0.12768 9.87824,7.25 c 16.71033,12.2643 52.7714,38.9228 57.52249,42.52405 2.475,1.87601 4.6173,3.42556 4.76065,3.44344 0.14336,0.0179 4.27854,-11.90107 9.18928,-26.48654 z m 131.55489,18.96204 c 8.37364,-6.22386 20.01545,-14.80142 44.91847,-33.09545 5.54219,-4.07135 11.58831,-8.45885 13.43583,-9.75 1.84751,-1.29115 3.36627,-2.51629 3.375,-2.72254 0.009,-0.20625 -20.26035,-0.375 -45.04241,-0.375 h -45.05829 l 0.27138,1.125 c 0.26839,1.11263 13.59221,40.36652 15.99548,47.125 1.87238,5.26551 1.90355,5.32494 2.53311,4.83075 0.31163,-0.24462 4.61878,-3.45661 9.57143,-7.13776 z m -48.53136,-60.99938 c 0.42896,-0.42953 -25.58476,-76.76693 -26.54687,-77.90194 -0.0971,-0.11458 -0.29176,-0.0932 -0.43253,0.0476 C 254.16118,118.17216 228,193.90628 228,195.01079 c 0,0.24982 2.30625,0.53052 5.125,0.62377 8.72051,0.28849 48.27486,0.13307 48.59846,-0.19095 z"
     id="path825"
     inkscape:connector-curvature="0" />
</svg>
