<?xml version="1.0" encoding="utf-8"?>
<!-- Generator: Adobe Illustrator 16.0.0, SVG Export Plug-In . SVG Version: 6.00 Build 0)  -->
<!DOCTYPE svg PUBLIC "-//W3C//DTD SVG 1.1//EN" "http://www.w3.org/Graphics/SVG/1.1/DTD/svg11.dtd">
<svg version="1.1" id="Vrstva_1" xmlns="http://www.w3.org/2000/svg" xmlns:xlink="http://www.w3.org/1999/xlink" x="0px" y="0px"
	 width="24px" height="24px" viewBox="0 0 24 24" enable-background="new 0 0 24 24" xml:space="preserve">
<g>
	<g>
		<path fill="#292D32" d="M7.002,14.641H3.57l-0.494,1.212h-1.85l3.14-7.705h1.851l3.14,7.705H7.496L7.002,14.641z M6.43,13.239
			l-1.144-2.815l-1.144,2.815H6.43z"/>
		<path fill="#292D32" d="M16.464,12.947c0,1.783-1.122,3.04-2.669,3.04c-0.808,0-1.481-0.348-1.941-0.953v0.818h-1.637v-7.84h1.637
			v2.849c0.46-0.594,1.133-0.941,1.941-0.941C15.342,9.92,16.464,11.176,16.464,12.947z M14.871,12.947
			c0-0.964-0.64-1.648-1.548-1.648c-0.796,0-1.379,0.583-1.469,1.425v0.448c0.09,0.853,0.673,1.436,1.469,1.436
			C14.231,14.607,14.871,13.923,14.871,12.947z"/>
		<path fill="#292D32" d="M17.289,12.947c0-1.648,1.458-3.027,3.174-3.027c0.942,0,1.716,0.381,2.276,0.986l-1.088,0.931
			c-0.291-0.325-0.751-0.538-1.199-0.538c-0.853,0-1.57,0.752-1.57,1.638c0,0.908,0.718,1.671,1.581,1.671
			c0.448,0,0.92-0.225,1.223-0.561l1.088,0.919c-0.572,0.629-1.357,1.021-2.321,1.021C18.735,15.987,17.289,14.597,17.289,12.947z"
			/>
	</g>
	<g>
		<g>
			<line fill="#292D32" x1="0.823" y1="12.694" x2="23.177" y2="12.694"/>
		</g>
		<g>
			<rect x="0.823" y="12.382" fill="#292D32" width="22.354" height="0.625"/>
		</g>
	</g>
</g>
</svg>
