<?xml version="1.0" encoding="UTF-8" standalone="no"?>
<!-- Created with Inkscape (http://www.inkscape.org/) -->

<svg
   xmlns:dc="http://purl.org/dc/elements/1.1/"
   xmlns:cc="http://creativecommons.org/ns#"
   xmlns:rdf="http://www.w3.org/1999/02/22-rdf-syntax-ns#"
   xmlns:svg="http://www.w3.org/2000/svg"
   xmlns="http://www.w3.org/2000/svg"
   xmlns:sodipodi="http://sodipodi.sourceforge.net/DTD/sodipodi-0.dtd"
   xmlns:inkscape="http://www.inkscape.org/namespaces/inkscape"
   version="1.1"
   id="svg856"
   width="512"
   height="512"
   viewBox="0 0 512 512"
   sodipodi:docname="b8a574f6-5a27-408c-9e11-081291888db1.svg"
   inkscape:version="0.92.4 (5da689c313, 2019-01-14)">
  <metadata
     id="metadata862">
    <rdf:RDF>
      <cc:Work
         rdf:about="">
        <dc:format>image/svg+xml</dc:format>
        <dc:type
           rdf:resource="http://purl.org/dc/dcmitype/StillImage" />
        <dc:title></dc:title>
      </cc:Work>
    </rdf:RDF>
  </metadata>
  <defs
     id="defs860" />
  <sodipodi:namedview
     pagecolor="#ffffff"
     bordercolor="#666666"
     borderopacity="1"
     objecttolerance="10"
     gridtolerance="10"
     guidetolerance="10"
     inkscape:pageopacity="0"
     inkscape:pageshadow="2"
     inkscape:window-width="3840"
     inkscape:window-height="2035"
     id="namedview858"
     showgrid="false"
     inkscape:zoom="3.4335938"
     inkscape:cx="224.98294"
     inkscape:cy="256"
     inkscape:window-x="-13"
     inkscape:window-y="-13"
     inkscape:window-maximized="1"
     inkscape:current-layer="svg856" />
  <path
     inkscape:connector-curvature="0"
     id="path868"
     d="M 228.92846,439.47 C 96.171676,418.77344 27.890671,267.58198 101.58532,157.5 191.54267,23.1255 396.19985,58.840497 435.40225,215.75483 466.01533,338.289 354.55641,459.05519 228.92846,439.47 Z M 248,408.13929 c 0,-19.26573 1.41184,-18.1015 -22,-18.1416 -19.47434,-0.0334 -21.56785,-0.89143 -18.41017,-7.54576 3.16222,-6.66387 5.69259,-7.44394 24.16017,-7.44819 C 248,375 248,375 248,337.5 248,300 248,300 241.16281,300 228.5232,300 210,293.26957 210,288.67695 210,284.31909 211.37815,284 230.2,284 248,284 248,284 248,228.14674 248,165.46847 250.47586,171 222.4217,171 211.24574,171 208,169.30664 208,163.47593 c 0,-6.19636 2.14241,-6.91275 21.90001,-7.32306 C 248,155.77698 248,155.77698 248,137.88849 248,128.04982 247.75707,120 247.46016,120 c -2.0787,0 -9.69383,5.10075 -15.03916,10.0735 -14.19488,13.20545 -23.78393,4.38012 -15.421,-14.19279 4.54441,-10.0925 4.72378,-11.68898 1.99016,-17.712829 -2.314,-5.099184 -2.39347,-5.097307 -17.91136,0.423021 -12.23966,4.354128 -12.02443,4.022638 -7.70896,11.873678 8.62738,15.69559 -3.58097,27.55167 -13.89803,13.49701 -10.00117,-13.62431 -46.00128,6.21723 -41.51428,22.88069 2.89813,10.76283 12.57786,9.4573 18.53004,-2.49919 7.61086,-15.28837 11.1176,-17.15098 17.45143,-9.26937 2.27571,2.83181 5.47873,5.07857 10.50659,7.36984 9.59493,4.37255 11.55922,7.13197 11.53967,16.21081 -0.0286,13.2683 -9.81036,19.89158 -14.19335,9.61036 -4.60697,-10.80661 -13.73525,-7.66317 -12.25071,4.21869 0.82969,6.64069 0.0696,7.78578 -8.70667,13.1171 -7.50942,4.56173 -11.25621,9.10432 -17.22723,20.88621 -6.35499,12.53954 -7.05318,12.97509 -19.43213,12.12251 -17.72052,-1.22049 -27.821884,5.84111 -24.17264,16.89844 2.03659,6.17091 7.30379,6.93669 13.25701,1.92738 6.82783,-5.74524 11.02259,-2.54906 11.78827,8.98201 0.95611,14.39882 4.97493,17.72979 18.14915,15.04276 22.98849,-4.68877 37.79838,2.98573 51.70956,26.79592 7.6841,13.15201 10.76008,15.80512 23.05797,19.88806 18.8819,6.26886 20.37506,10.09773 10.08323,25.85619 -2.12735,3.25732 -3.21461,6.55355 -3.9372,11.93634 -1.23762,9.21935 -2.74196,11.29968 -12.19367,16.86249 C 197.78488,371.11622 193,379.73369 193,396.86772 c 0,16.73353 5.70144,21.13801 33.75842,26.07909 C 248.81754,426.83161 248,427.40151 248,408.13929 Z M 142.31537,246.03086 c -4.99109,-2.09741 -6.00915,-10.55338 -1.68051,-13.95828 8.33,-6.55238 19.04961,4.6874 11.58736,12.14964 -2.14267,2.14267 -7.00123,3.02968 -9.90685,1.80864 z M 281,423.53208 c 30.13412,-4.61885 64.62467,-21.32428 85.87981,-41.5957 4.37981,-4.17711 4.37981,-4.17711 -0.17904,-8.0739 -6.33595,-5.4158 -8.44461,-9.29352 -9.7429,-17.91669 -0.61656,-4.09518 -2.19205,-9.82496 -3.50108,-12.73284 -3.80101,-8.44352 -3.91257,-10.87542 -0.89919,-19.60147 8.54229,-24.73652 -4.66316,-43.63806 -29.45373,-42.15844 -42.17093,2.51698 -53.56615,-53.17758 -14.60387,-71.37697 36.47502,-17.03758 47.05447,-16.65383 47.40032,1.71938 0.20276,10.77165 11.1115,14.79909 13.83657,5.10838 1.68628,-5.99663 3.98417,-7.08083 12.42179,-5.86089 14.69113,2.12409 20.84132,0.64062 20.84132,-5.02706 0,-4.68157 -3.94909,-7.01472 -11.88486,-7.02167 -13.18135,-0.0115 -17.57339,-1.3442 -28.08125,-8.52056 -14.4173,-9.84633 -21.0337,-9.99113 -36.46311,-0.79802 -16.86232,10.04686 -27.50714,0.40915 -14.60997,-13.22771 7.52406,-7.95558 7.81063,-13.09016 1.32747,-23.7845 -4.12697,-6.80766 -4.41117,-9.83925 -1.23897,-13.21591 5.02559,-5.3495 11.88342,-2.91961 14.95364,5.2984 3.80159,10.17567 6.50149,11.10495 20.94275,7.20827 17.43239,-4.70376 24.09473,-13.37529 16.28016,-21.18986 -3.70895,-3.70895 -5.02244,-3.07267 -8.72001,4.22414 -3.64676,7.19652 -9.93158,9.04853 -15.31998,4.51449 -5.53965,-4.66131 -4.82234,-10.22853 2.46352,-19.11996 C 346.9807,115.0972 348.02656,116.30443 332,108.09057 307.79202,95.68362 291.14148,91.689917 289.86399,97.984075 c -0.94,4.631405 -6.09087,9.209745 -13.45668,11.960965 C 262.79828,115.02819 264,112.54201 264,135.61394 264,156 264,156 277.75,156.08761 c 23.34352,0.14873 27.7604,1.75835 25.8384,9.41619 -1.24906,4.97665 -2.79591,5.49556 -16.40983,5.50489 C 261.32216,171.02642 264,164.42606 264,228.13929 264,284 264,284 276.06672,284 c 11.37981,0 12.25622,0.14453 15.39544,2.53894 7.02699,5.35974 13.68117,6.90305 29.02157,6.73099 14.31362,-0.16055 17.51627,0.61988 17.51627,4.26843 0,2.18703 -3.96166,2.43412 -39.25,2.44799 C 264,300 264,300 264,337.5 c 0,40.14029 1.94207,41.16172 69.5,36.55336 13.52522,-0.9226 16.77135,-0.0927 17.94621,4.58835 2.11958,8.44509 -12.64082,11.34355 -57.87263,11.36428 C 262.58275,390.0202 264,389.15078 264,408.14822 c 0,19.35528 -1.29059,18.18738 17,15.38386 z M 172,400.46676 c 0,-0.29329 -1.11903,-2.74155 -2.48674,-5.44059 -3.78812,-7.47549 -7.97075,-18.51769 -10.91646,-28.81957 -5.62244,-19.66309 -4.83855,-18.44568 -22.34854,-34.70806 C 124.72384,320.79525 121.72487,310.14024 126.53825,297 132.07135,281.89497 129.96674,276.38803 114,264.19234 109.70781,260.91388 90.728319,253 87.157942,253 c -0.597527,0 0.691913,24.60203 1.480637,28.25 0.592599,2.74086 0.623265,2.75003 9.227998,2.75869 20.016043,0.0202 20.809393,0.50665 16.496863,10.11626 C 111.72687,300 111.72687,300 102.25503,300 c -10.970407,0 -10.554633,-1.14943 -5.064099,14 10.199459,28.14226 31.862509,58.17415 42.715259,59.21696 6.46054,0.62078 9.17185,3.02636 11.65943,10.34468 2.0855,6.13545 3.91261,8.1642 12.21349,13.56136 5.30584,3.4498 8.22089,4.63547 8.22089,3.34376 z m 252,-145.7831 c 0,-19.93334 -9.20537,-38.65711 -16.67072,-33.90833 -4.81419,3.06236 1.12488,21.92619 11.16882,35.47467 4.63523,6.25256 5.5019,6.00582 5.5019,-1.56634 z m -18,-71.8915 C 406,180.0098 398.66215,174 395.26493,174 c -8.71735,0 -13.40189,5.61649 -7.26493,8.71023 3.31364,1.67046 18,1.73731 18,0.0819 z"
     style="fill:#000000;fill-opacity:1"
     inkscape:label="path868" />
</svg>
