<?xml version="1.0" encoding="utf-8"?>
<!-- Generator: Adobe Illustrator 16.0.0, SVG Export Plug-In . SVG Version: 6.00 Build 0)  -->
<!DOCTYPE svg PUBLIC "-//W3C//DTD SVG 1.1//EN" "http://www.w3.org/Graphics/SVG/1.1/DTD/svg11.dtd">
<svg version="1.1" id="Vrstva_1" xmlns="http://www.w3.org/2000/svg" xmlns:xlink="http://www.w3.org/1999/xlink" x="0px" y="0px"
	 width="24px" height="24px" viewBox="0 0 24 24" enable-background="new 0 0 24 24" xml:space="preserve">
<path fill="#292D32" d="M22.596,9.102c0-5.328-2.373-7.704-7.693-7.704H9.098c-5.321,0-7.693,2.375-7.693,7.704v5.805
	c0,5.321,2.373,7.694,7.693,7.694h5.805c5.32,0,7.693-2.373,7.693-7.694V9.102z M20.739,14.907c0,4.364-1.473,5.837-5.837,5.837
	H9.098c-4.365,0-5.838-1.473-5.838-5.837V9.102c0-4.328,1.449-5.812,5.729-5.836v0l0.108-0.011h5.805
	c4.364,0,5.837,1.476,5.837,5.848V14.907z"/>
<rect x="6.734" y="7.443" fill="none" stroke="#292D32" stroke-width="1.5" stroke-linecap="round" stroke-linejoin="round" width="10.531" height="0.781"/>
<rect x="6.734" y="11.662" fill="none" stroke="#E5FF32" stroke-width="1.5" stroke-linecap="round" stroke-linejoin="round" width="0.625" height="0.781"/>
<rect x="6.734" y="15.775" fill="none" stroke="#292D32" stroke-width="1.5" stroke-linecap="round" stroke-linejoin="round" width="10.531" height="0.781"/>
<rect x="9.5" y="11.662" fill="none" stroke="#E5FF32" stroke-width="1.5" stroke-linecap="round" stroke-linejoin="round" width="0.625" height="0.781"/>
<rect x="12.266" y="11.662" fill="none" stroke="#E5FF32" stroke-width="1.5" stroke-linecap="round" stroke-linejoin="round" width="0.625" height="0.781"/>
<rect x="15.063" y="11.662" fill="none" stroke="#292D32" stroke-width="1.5" stroke-linecap="round" stroke-linejoin="round" width="2.203" height="0.781"/>
</svg>
