<?xml version="1.0" encoding="utf-8"?>
<!-- Generator: Adobe Illustrator 16.0.0, SVG Export Plug-In . SVG Version: 6.00 Build 0)  -->
<!DOCTYPE svg PUBLIC "-//W3C//DTD SVG 1.1//EN" "http://www.w3.org/Graphics/SVG/1.1/DTD/svg11.dtd">
<svg version="1.1" id="Vrstva_1" xmlns="http://www.w3.org/2000/svg" xmlns:xlink="http://www.w3.org/1999/xlink" x="0px" y="0px"
	 width="24px" height="24px" viewBox="0 0 24 24" enable-background="new 0 0 24 24" xml:space="preserve">
<path fill="#292D32" d="M7.08,16.1c-0.36,0-0.72-0.09-1.05-0.279C5.36,15.44,4.96,14.76,4.96,14v-3.57c0-0.26-0.17-0.7-0.38-0.95
	L2.06,6.83C1.59,6.37,1.25,5.57,1.25,4.96V3.41c0-1.21,0.92-2.17,2.1-2.17h8.9c1.16,0,2.1,0.94,2.1,2.1v1.48
	c0,0.78-0.449,1.64-0.89,2.08l-2.93,2.59c-0.23,0.19-0.42,0.65-0.42,0.99v2.9c0,0.689-0.42,1.459-0.97,1.789l-0.92,0.6
	C7.86,15.99,7.47,16.1,7.08,16.1z M3.35,2.75c-0.34,0-0.6,0.29-0.6,0.67v1.55c0,0.17,0.17,0.6,0.39,0.82L5.72,8.5
	c0.38,0.47,0.75,1.24,0.75,1.93V14c0,0.301,0.19,0.45,0.31,0.51c0.16,0.09,0.42,0.141,0.64,0l0.93-0.6
	c0.12-0.07,0.26-0.35,0.26-0.52v-2.9C8.61,9.7,9,8.83,9.55,8.36l2.88-2.55c0.179-0.18,0.419-0.67,0.419-0.99V3.34
	c0-0.33-0.27-0.6-0.6-0.6h-8.9V2.75z"/>
<path fill="#292D32" d="M15,22.75H9c-5.43,0-7.75-2.32-7.75-7.75v-3c0-0.41,0.34-0.75,0.75-0.75S2.75,11.59,2.75,12v3
	c0,4.609,1.64,6.25,6.25,6.25h6c4.609,0,6.25-1.641,6.25-6.25V9c0-2.9-0.68-4.58-2.21-5.45c-0.16-0.09-0.69-0.33-2.21-0.57
	c-0.41-0.06-0.689-0.45-0.62-0.86c0.069-0.41,0.46-0.69,0.86-0.62c1.31,0.21,2.199,0.45,2.709,0.74C21.8,3.39,22.75,5.54,22.75,9v6
	C22.75,20.43,20.43,22.75,15,22.75z"/>
<g>
	<path fill-rule="evenodd" clip-rule="evenodd" fill="#292D32" d="M17.311,13.291v-0.002c0.222,0,0.445,0,0.668,0
		c0.073,0,0.073,0,0.073,0.072c0,0.286,0,0.571,0,0.857c-0.002,0.081,0.024,0.144,0.104,0.176c0.076,0.028,0.139,0,0.193-0.054
		c0.514-0.518,1.03-1.03,1.542-1.543c0.106-0.108,0.106-0.191,0.002-0.296c-0.243-0.244-0.488-0.488-0.733-0.735
		c-0.269-0.269-0.541-0.542-0.813-0.811c-0.065-0.065-0.14-0.083-0.203-0.052c-0.076,0.036-0.094,0.1-0.092,0.176
		c0,0.278,0,0.557,0,0.835c-0.002,0.099,0.016,0.092-0.089,0.092c-0.414,0-0.827-0.002-1.242,0.003
		c-0.465,0.004-0.896,0.128-1.279,0.393c-0.318,0.217-0.567,0.511-0.778,0.831c-0.3,0.447-0.515,0.939-0.726,1.433
		c-0.171,0.393-0.338,0.788-0.567,1.153c-0.11,0.176-0.243,0.34-0.414,0.465c-0.196,0.146-0.425,0.197-0.667,0.193
		c-0.362,0-0.724,0-1.087,0c-0.118,0-0.178,0.061-0.178,0.174c0,0.309,0,0.612,0,0.924c0,0.126,0.056,0.183,0.184,0.183
		c0.369,0.002,0.74,0.002,1.11,0.002c0.421-0.002,0.818-0.103,1.185-0.315c0.362-0.207,0.632-0.513,0.866-0.848
		c0.235-0.33,0.412-0.688,0.579-1.056c0.188-0.419,0.372-0.839,0.565-1.252c0.12-0.256,0.271-0.488,0.472-0.693
		c0.182-0.182,0.399-0.288,0.656-0.3C16.863,13.284,17.088,13.291,17.311,13.291z M15.414,15.279
		c-0.015,0.023-0.021,0.037-0.025,0.05c-0.193,0.438-0.386,0.869-0.636,1.275c-0.009,0.02-0.004,0.055,0.009,0.068
		c0.102,0.125,0.202,0.249,0.307,0.369c0.255,0.286,0.572,0.476,0.93,0.595c0.229,0.078,0.467,0.11,0.708,0.116
		c0.42,0.01,0.842,0.006,1.261,0.008c0.092,0,0.085-0.012,0.085,0.085c0,0.286,0,0.571,0,0.855c0,0.079,0.031,0.136,0.106,0.166
		c0.071,0.028,0.131,0.004,0.185-0.048c0.521-0.523,1.043-1.044,1.563-1.567c0.088-0.085,0.086-0.18-0.001-0.265
		c-0.493-0.495-0.982-0.987-1.477-1.478c-0.037-0.037-0.075-0.075-0.116-0.109c-0.051-0.043-0.113-0.049-0.176-0.021
		c-0.061,0.03-0.085,0.081-0.085,0.147c0,0.015,0,0.03,0,0.045c0,0.282,0,0.565,0,0.85c0,0.038-0.003,0.061-0.051,0.057
		c-0.422,0-0.846,0.006-1.269,0c-0.29-0.002-0.541-0.11-0.75-0.311c-0.163-0.154-0.278-0.348-0.39-0.541
		C15.532,15.518,15.476,15.402,15.414,15.279z M13.666,14.488c0.009-0.024,0.019-0.041,0.026-0.055
		c0.188-0.437,0.384-0.865,0.633-1.269c0.012-0.018,0.007-0.053-0.003-0.069c-0.06-0.076-0.121-0.159-0.184-0.23
		c-0.465-0.535-1.043-0.839-1.758-0.854c-0.395-0.009-0.788-0.005-1.185-0.003c-0.112,0-0.172,0.061-0.172,0.171
		c0,0.306,0,0.613,0,0.918c0,0.137,0.054,0.187,0.189,0.187c0.377,0.005,0.755,0,1.133,0.007c0.328,0.006,0.609,0.133,0.817,0.387
		c0.119,0.146,0.221,0.307,0.319,0.466C13.551,14.251,13.602,14.366,13.666,14.488z"/>
	<path fill-rule="evenodd" clip-rule="evenodd" fill="#292D32" d="M17.311,13.291c-0.223,0-0.447-0.007-0.669,0.006
		c-0.257,0.012-0.475,0.118-0.656,0.3c-0.2,0.205-0.352,0.438-0.472,0.693c-0.193,0.413-0.378,0.833-0.565,1.252
		c-0.167,0.367-0.344,0.726-0.579,1.056c-0.234,0.335-0.504,0.641-0.866,0.848c-0.366,0.213-0.764,0.313-1.185,0.315
		c-0.371,0-0.741,0-1.11-0.002c-0.128,0-0.184-0.057-0.184-0.183c0-0.312,0-0.615,0-0.924c0-0.113,0.06-0.174,0.178-0.174
		c0.364,0,0.726,0,1.087,0c0.242,0.004,0.471-0.047,0.667-0.193c0.171-0.125,0.304-0.289,0.414-0.465
		c0.229-0.365,0.396-0.761,0.567-1.153c0.211-0.493,0.426-0.985,0.726-1.433c0.211-0.319,0.46-0.613,0.778-0.831
		c0.384-0.265,0.814-0.389,1.279-0.393c0.415-0.005,0.828-0.003,1.242-0.003c0.104,0,0.087,0.007,0.089-0.092
		c0-0.278,0-0.557,0-0.835c-0.002-0.076,0.016-0.14,0.092-0.176c0.063-0.031,0.138-0.013,0.203,0.052
		c0.272,0.269,0.545,0.542,0.813,0.811c0.245,0.247,0.49,0.491,0.733,0.735c0.104,0.104,0.104,0.188-0.002,0.296
		c-0.512,0.513-1.028,1.025-1.542,1.543c-0.055,0.054-0.117,0.082-0.193,0.054c-0.08-0.032-0.106-0.095-0.104-0.176
		c0-0.286,0-0.571,0-0.857c0-0.072,0-0.072-0.073-0.072c-0.223,0-0.446,0-0.668,0V13.291z"/>
	<path fill-rule="evenodd" clip-rule="evenodd" fill="#292D32" d="M15.414,15.279c0.062,0.123,0.118,0.238,0.179,0.348
		c0.111,0.193,0.227,0.387,0.39,0.541c0.209,0.2,0.46,0.309,0.75,0.311c0.423,0.006,0.847,0,1.269,0
		c0.048,0.004,0.051-0.019,0.051-0.057c0-0.284,0-0.567,0-0.85c0-0.015,0-0.03,0-0.045c0-0.066,0.024-0.117,0.085-0.147
		c0.063-0.028,0.125-0.022,0.176,0.021c0.041,0.034,0.079,0.072,0.116,0.109c0.494,0.49,0.983,0.982,1.477,1.478
		c0.087,0.085,0.089,0.18,0.001,0.265c-0.521,0.523-1.043,1.044-1.563,1.567c-0.054,0.052-0.113,0.076-0.185,0.048
		c-0.075-0.03-0.106-0.087-0.106-0.166c0-0.284,0-0.569,0-0.855c0-0.097,0.007-0.085-0.085-0.085
		c-0.419-0.002-0.841,0.002-1.261-0.008c-0.241-0.006-0.479-0.038-0.708-0.116c-0.357-0.119-0.675-0.309-0.93-0.595
		c-0.104-0.12-0.205-0.244-0.307-0.369c-0.013-0.014-0.018-0.049-0.009-0.068c0.25-0.406,0.442-0.838,0.636-1.275
		C15.393,15.316,15.399,15.303,15.414,15.279z"/>
	<path fill-rule="evenodd" clip-rule="evenodd" fill="#292D32" d="M13.666,14.488c-0.064-0.122-0.115-0.237-0.184-0.345
		c-0.099-0.159-0.2-0.32-0.319-0.466c-0.208-0.254-0.489-0.381-0.817-0.387c-0.378-0.007-0.755-0.002-1.133-0.007
		c-0.135,0-0.189-0.05-0.189-0.187c0-0.306,0-0.612,0-0.918c0-0.111,0.06-0.171,0.172-0.171c0.396-0.002,0.79-0.006,1.185,0.003
		c0.715,0.016,1.293,0.319,1.758,0.854c0.063,0.071,0.124,0.154,0.184,0.23c0.01,0.017,0.015,0.052,0.003,0.069
		c-0.249,0.403-0.444,0.832-0.633,1.269C13.685,14.447,13.675,14.464,13.666,14.488z"/>
</g>
</svg>
