<?xml version="1.0" encoding="utf-8"?>
<!-- Generator: Adobe Illustrator 16.0.0, SVG Export Plug-In . SVG Version: 6.00 Build 0)  -->
<!DOCTYPE svg PUBLIC "-//W3C//DTD SVG 1.1//EN" "http://www.w3.org/Graphics/SVG/1.1/DTD/svg11.dtd">
<svg version="1.1" id="Vrstva_1" xmlns="http://www.w3.org/2000/svg" xmlns:xlink="http://www.w3.org/1999/xlink" x="0px" y="0px"
	 width="24px" height="24px" viewBox="0 0 24 24" enable-background="new 0 0 24 24" xml:space="preserve">
<path fill="#292D32" d="M7.08,16.1c-0.36,0-0.72-0.09-1.05-0.279C5.36,15.44,4.96,14.76,4.96,14v-3.57c0-0.26-0.17-0.7-0.38-0.95
	L2.06,6.83C1.59,6.37,1.25,5.57,1.25,4.96V3.41c0-1.21,0.92-2.17,2.1-2.17h8.9c1.16,0,2.1,0.94,2.1,2.1v1.48
	c0,0.78-0.449,1.64-0.89,2.08l-2.93,2.59c-0.23,0.19-0.42,0.65-0.42,0.99v2.9c0,0.689-0.42,1.459-0.97,1.789l-0.92,0.6
	C7.86,15.99,7.47,16.1,7.08,16.1z M3.35,2.75c-0.34,0-0.6,0.29-0.6,0.67v1.55c0,0.17,0.17,0.6,0.39,0.82L5.72,8.5
	c0.38,0.47,0.75,1.24,0.75,1.93V14c0,0.301,0.19,0.45,0.31,0.51c0.16,0.09,0.42,0.141,0.64,0l0.93-0.6
	c0.12-0.07,0.26-0.35,0.26-0.52v-2.9C8.61,9.7,9,8.83,9.55,8.36l2.88-2.55c0.179-0.18,0.419-0.67,0.419-0.99V3.34
	c0-0.33-0.27-0.6-0.6-0.6h-8.9V2.75z"/>
<path fill="#292D32" d="M15,22.75H9c-5.43,0-7.75-2.32-7.75-7.75v-3c0-0.41,0.34-0.75,0.75-0.75S2.75,11.59,2.75,12v3
	c0,4.609,1.64,6.25,6.25,6.25h6c4.609,0,6.25-1.641,6.25-6.25V9c0-2.9-0.68-4.58-2.21-5.45c-0.16-0.09-0.69-0.33-2.21-0.57
	c-0.41-0.06-0.689-0.45-0.62-0.86c0.069-0.41,0.46-0.69,0.86-0.62c1.31,0.21,2.199,0.45,2.709,0.74C21.8,3.39,22.75,5.54,22.75,9v6
	C22.75,20.43,20.43,22.75,15,22.75z"/>
<g>
	<path fill-rule="evenodd" clip-rule="evenodd" fill="#292D32" d="M18.99,11.973c0.127,0.2,0.237,0.375,0.365,0.578
		c-2.469,1.555-4.917,3.096-7.39,4.652c-0.123-0.197-0.235-0.377-0.362-0.58C14.068,15.072,16.511,13.533,18.99,11.973z"/>
	<path fill-rule="evenodd" clip-rule="evenodd" fill="#292D32" d="M11.338,15.941c-0.239-0.646-0.239-0.646,0.305-0.99
		c2.014-1.27,4.032-2.536,6.04-3.817c0.221-0.141,0.366-0.136,0.537,0.04c0.082,0.083,0.177,0.155,0.29,0.253
		C16.107,12.939,13.731,14.434,11.338,15.941z"/>
	<path fill-rule="evenodd" clip-rule="evenodd" fill="#292D32" d="M12.451,17.748c2.408-1.518,4.782-3.01,7.186-4.523
		c0.052,0.213,0.116,0.396,0.133,0.582c0.006,0.072-0.083,0.178-0.156,0.225c-1.622,1.027-3.246,2.051-4.871,3.074
		c-0.513,0.322-1.028,0.639-1.533,0.973c-0.155,0.102-0.268,0.105-0.399-0.023C12.708,17.953,12.591,17.865,12.451,17.748z"/>
	<path fill-rule="evenodd" clip-rule="evenodd" fill="#292D32" d="M17.262,10.576c-2.066,1.3-4.085,2.571-6.168,3.881
		c0.047-0.32,0.076-0.58,0.13-0.834c0.013-0.063,0.1-0.119,0.164-0.162c1.608-1.019,3.219-2.036,4.834-3.044
		c0.1-0.062,0.258-0.076,0.376-0.053C16.808,10.404,17.008,10.491,17.262,10.576z"/>
	<path fill-rule="evenodd" clip-rule="evenodd" fill="#292D32" d="M19.867,14.727c-0.048,0.311-0.075,0.549-0.125,0.783
		c-0.014,0.066-0.083,0.135-0.145,0.174c-1.639,1.037-3.278,2.07-4.921,3.098c-0.062,0.039-0.155,0.072-0.222,0.055
		c-0.232-0.059-0.459-0.139-0.742-0.23C15.775,17.307,17.785,16.041,19.867,14.727z"/>
	<path fill-rule="evenodd" clip-rule="evenodd" fill="#292D32" d="M11.744,12.309c0.78-1.22,1.891-1.914,3.36-2.04
		c-1.107,0.697-2.215,1.395-3.321,2.091C11.769,12.344,11.756,12.326,11.744,12.309z"/>
	<path fill-rule="evenodd" clip-rule="evenodd" fill="#292D32" d="M19.174,16.811c-0.74,1.268-1.848,1.963-3.315,2.09
		C16.963,18.203,18.068,17.506,19.174,16.811z"/>
</g>
</svg>
