<?xml version="1.0" encoding="utf-8"?>
<!-- Generator: Adobe Illustrator 16.0.0, SVG Export Plug-In . SVG Version: 6.00 Build 0)  -->
<!DOCTYPE svg PUBLIC "-//W3C//DTD SVG 1.1//EN" "http://www.w3.org/Graphics/SVG/1.1/DTD/svg11.dtd">
<svg version="1.1" id="Vrstva_1" xmlns="http://www.w3.org/2000/svg" xmlns:xlink="http://www.w3.org/1999/xlink" x="0px" y="0px"
	 width="24px" height="24px" viewBox="0 0 24 24" enable-background="new 0 0 24 24" xml:space="preserve">
<g>
	<path fill-rule="evenodd" clip-rule="evenodd" d="M-1547.835,403.568c26.05-110.674,51.961-220.759,78.164-332.085
		c28.745,46.334,56.782,91.526,85.416,137.682c122.286-71.896,196.638-174.667,201.493-318.404
		c4.855-143.804-62.799-251.306-177.871-330.163c115.04,30.62,252.495,132.629,295.927,304.445
		c24.787,98.054,15.625,193.557-27.706,285.051c-43.192,91.203-111.394,158.311-201.812,204.03
		c26.034,42.072,51.925,83.911,78.508,126.869C-1327.05,455.039-1437.206,429.358-1547.835,403.568z"/>
	<path fill-rule="evenodd" clip-rule="evenodd" d="M-1694.662-287.074c-26.073-42.058-52.021-83.913-78.64-126.851
		c111.229,25.923,221.277,51.569,332.081,77.393c-25.965,110.341-51.874,220.449-78.129,332.026
		c-28.676-46.221-56.676-91.354-85.199-137.33c-102.922,58.58-171.482,142.72-195.558,259.743
		c-15.714,76.38-6.517,150.618,25.988,221.581c32.324,70.571,82.502,125.671,148.557,167.807
		c-122.248-33.046-259.491-138.307-300.411-312.274c-22.867-97.217-12.584-191.495,31.025-281.439
		C-1851.486-176.059-1783.807-242.134-1694.662-287.074z"/>
</g>
<g>
	<path fill="#292D32" d="M1.667,15.573v-6c0-3.46,0.95-5.61,2.971-6.76c0.51-0.29,1.399-0.53,2.709-0.74
		c0.4-0.07,0.791,0.21,0.86,0.62s-0.21,0.8-0.62,0.86c-1.52,0.24-2.05,0.48-2.21,0.57c-1.53,0.87-2.21,2.551-2.21,5.45v6
		c0,4.609,1.641,6.25,6.25,6.25h6c4.609,0,6.25-1.641,6.25-6.25v-3c0-0.41,0.34-0.75,0.75-0.75s0.75,0.34,0.75,0.75v3
		c0,5.43-2.32,7.75-7.75,7.75h-6C3.987,23.323,1.667,21.003,1.667,15.573z"/>
	<path fill-rule="evenodd" clip-rule="evenodd" fill="#292D32" d="M14.579,9.696c0.081-0.023,0.166-0.042,0.246-0.063
		c1.694-0.413,2.91-0.286,2.91-0.286l0.08,2.796c0.016,0.578,0.359,0.713,0.767,0.302c1.433-1.448,2.854-2.884,4.275-4.32
		c0.406-0.411,0.401-1.074-0.011-1.479c-1.472-1.45-2.938-2.894-4.412-4.348c-0.412-0.406-0.744-0.266-0.741,0.313
		c0.005,0.867,0.011,1.723,0.016,2.582c0,0-10.111-0.563-11.267,12.055C8.694,12.213,12.094,10.365,14.579,9.696z"/>
</g>
</svg>
