<?xml version="1.0" encoding="utf-8"?>
<!-- Generator: Adobe Illustrator 16.0.0, SVG Export Plug-In . SVG Version: 6.00 Build 0)  -->
<!DOCTYPE svg PUBLIC "-//W3C//DTD SVG 1.1//EN" "http://www.w3.org/Graphics/SVG/1.1/DTD/svg11.dtd">
<svg version="1.1" id="Vrstva_1" xmlns="http://www.w3.org/2000/svg" xmlns:xlink="http://www.w3.org/1999/xlink" x="0px" y="0px"
	 width="24px" height="24px" viewBox="0 0 24 24" enable-background="new 0 0 24 24" xml:space="preserve">
<g>
	<g>
		<g>
			<g>
				<path fill="#E5FF32" d="M20.281,8.938v0.523c0,0.282-0.227,0.504-0.502,0.504l-6.076,0.002
					c-0.006-0.591-0.049-1.095-0.141-1.531l6.217-0.002C20.055,8.434,20.281,8.662,20.281,8.938z"/>
			</g>
		</g>
		<g>
			<g>
				<path fill="#292D32" d="M20.281,11.771v0.524c0,0.282-0.227,0.504-0.502,0.504h-6.146v-1.531h6.146
					C20.055,11.269,20.281,11.497,20.281,11.771z"/>
			</g>
		</g>
		<g>
			<g>
				<path fill="#292D32" d="M20.281,14.54v0.523c0,0.274-0.227,0.504-0.502,0.504h-6.287c0.092-0.437,0.135-0.94,0.141-1.531h6.146
					C20.055,14.036,20.281,14.257,20.281,14.54z"/>
			</g>
		</g>
	</g>
	<g>
		<path fill="#292D32" d="M14.74,8.434c-0.174-0.961-0.529-1.713-1.08-2.277C13.236,5.713,12.678,5.391,12,5.176
			c-0.645-0.201-1.41-0.295-2.29-0.295H5.814c-3.573,0-5.172,1.592-5.172,5.172v3.902c0,3.573,1.599,5.165,5.172,5.165H9.71
			c0.88,0,1.645-0.094,2.29-0.295c0.678-0.209,1.229-0.531,1.661-0.975c0.551-0.564,0.906-1.322,1.08-2.283
			c0.096-0.464,0.135-0.974,0.141-1.531V9.965C14.875,9.4,14.836,8.896,14.74,8.434z M13.633,14.036
			c-0.006,0.591-0.049,1.095-0.141,1.531c-0.215,0.987-0.679,1.605-1.493,1.947c-0.442,0.195-0.994,0.303-1.658,0.336
			c-0.202,0.014-0.409,0.021-0.631,0.021H5.814c-2.935,0-3.922-0.987-3.922-3.916v-3.902c0-2.908,0.974-3.902,3.849-3.916
			l0.074-0.014H9.71c0.222,0,0.436,0.007,0.638,0.021c0.666,0.04,1.216,0.147,1.659,0.343c0.807,0.342,1.271,0.96,1.485,1.947
			c0.092,0.437,0.135,0.94,0.141,1.531V14.036z"/>
	</g>
	<g>
		<path fill="#292D32" d="M11.299,9.968H4.225c-0.278,0-0.503-0.226-0.503-0.504V8.939c0-0.278,0.226-0.504,0.503-0.504h7.074
			c0.278,0,0.504,0.226,0.504,0.504v0.524C11.803,9.742,11.577,9.968,11.299,9.968z"/>
	</g>
	<g>
		<path fill="#E5FF32" d="M11.299,12.802H4.225c-0.278,0-0.503-0.226-0.503-0.504v-0.524c0-0.278,0.226-0.504,0.503-0.504h7.074
			c0.278,0,0.504,0.226,0.504,0.504v0.524C11.803,12.576,11.577,12.802,11.299,12.802z"/>
	</g>
	<g>
		<path fill="#292D32" d="M11.299,15.564H4.225c-0.278,0-0.503-0.226-0.503-0.503v-0.525c0-0.278,0.226-0.503,0.503-0.503h7.074
			c0.278,0,0.504,0.225,0.504,0.503v0.525C11.803,15.339,11.577,15.564,11.299,15.564z"/>
	</g>
	<g>
		<g>
			<path fill="#292D32" d="M18.193,4.88h-3.902c-0.879,0-1.646,0.095-2.292,0.296c-0.671,0.208-1.222,0.53-1.652,0.968
				c0.666,0.04,1.216,0.147,1.659,0.343c0.444-0.188,0.987-0.296,1.653-0.33c0.174-0.014,0.361-0.021,0.557-0.021l0.074-0.013h3.902
				c2.928,0,3.916,0.994,3.916,3.93v3.902c0,2.929-0.988,3.916-3.916,3.916h-3.902c-0.223,0-0.432-0.007-0.631-0.021
				c-0.666-0.033-1.217-0.141-1.661-0.336c-0.442,0.195-0.994,0.303-1.658,0.336c0.43,0.443,0.98,0.766,1.658,0.975
				c0.646,0.201,1.413,0.295,2.292,0.295h3.902c3.572,0,5.164-1.592,5.164-5.165v-3.902C23.357,6.473,21.766,4.88,18.193,4.88z"/>
		</g>
	</g>
</g>
</svg>
