<?xml version="1.0" encoding="utf-8"?>
<!-- Generator: Adobe Illustrator 16.0.0, SVG Export Plug-In . SVG Version: 6.00 Build 0)  -->
<!DOCTYPE svg PUBLIC "-//W3C//DTD SVG 1.1//EN" "http://www.w3.org/Graphics/SVG/1.1/DTD/svg11.dtd">
<svg version="1.1" id="Vrstva_1" xmlns="http://www.w3.org/2000/svg" xmlns:xlink="http://www.w3.org/1999/xlink" x="0px" y="0px"
	 width="24px" height="24px" viewBox="0 0 24 24" enable-background="new 0 0 24 24" xml:space="preserve">
<polygon fill="#AEB0B2" points="13,6.344 13.75,5.592 19.625,5.75 22.438,7.188 22.906,12.108 21.594,17.656 18.531,18.844 
	13.213,18.234 14.094,15.25 14.313,10.906 "/>
<g>
	<g>
		<path fill="#292D32" d="M23.215,8.434c-0.174-0.961-0.529-1.713-1.08-2.277c-0.424-0.444-0.982-0.766-1.66-0.981
			c-0.645-0.201-1.41-0.295-2.29-0.295h-3.896c-3.573,0-5.172,1.592-5.172,5.172v3.903c0,3.572,1.599,5.164,5.172,5.164h3.896
			c0.88,0,1.646-0.094,2.29-0.295c0.678-0.209,1.229-0.531,1.661-0.975c0.551-0.564,0.905-1.322,1.08-2.283
			c0.096-0.463,0.135-0.975,0.141-1.531V9.964C23.35,9.399,23.311,8.896,23.215,8.434z M22.107,14.035
			c-0.006,0.592-0.049,1.096-0.141,1.531c-0.215,0.988-0.68,1.604-1.493,1.947c-0.442,0.193-0.994,0.303-1.658,0.336
			c-0.202,0.014-0.409,0.02-0.631,0.02h-3.896c-2.936,0-3.922-0.986-3.922-3.916v-3.902c0-2.908,0.974-3.902,3.849-3.916
			l0.073-0.014h3.896c0.222,0,0.437,0.007,0.638,0.021c0.666,0.04,1.217,0.147,1.659,0.343c0.808,0.342,1.271,0.96,1.485,1.947
			c0.092,0.437,0.135,0.94,0.141,1.531V14.035z"/>
	</g>
	<g>
		<path fill="#292D32" d="M19.773,9.967H12.7c-0.279,0-0.503-0.226-0.503-0.504V8.938c0-0.278,0.226-0.504,0.503-0.504h7.073
			c0.278,0,0.504,0.226,0.504,0.504v0.524C20.277,9.742,20.052,9.967,19.773,9.967z"/>
	</g>
	<g>
		<path fill="#292D32" d="M19.773,12.801H12.7c-0.279,0-0.503-0.225-0.503-0.503v-0.524c0-0.277,0.226-0.503,0.503-0.503h7.073
			c0.278,0,0.504,0.226,0.504,0.503v0.524C20.277,12.576,20.052,12.801,19.773,12.801z"/>
	</g>
	<g>
		<path fill="#292D32" d="M19.773,15.564H12.7c-0.279,0-0.503-0.229-0.503-0.504v-0.525c0-0.277,0.226-0.502,0.503-0.502h7.073
			c0.278,0,0.504,0.225,0.504,0.502v0.525C20.277,15.338,20.052,15.564,19.773,15.564z"/>
	</g>
</g>
<polyline opacity="0.8" fill="#E2E3E4" points="1.25,11.531 2.063,17.156 5.813,18.625 12.719,18 14.313,14.469 13.844,7.406 
	11.049,5.592 4.781,5.75 3.094,6.156 1.719,7.469 "/>
<g>
	<g>
		<path fill="#292D32" d="M14.74,8.434c-0.174-0.961-0.529-1.713-1.08-2.277C13.236,5.713,12.678,5.391,12,5.176
			c-0.645-0.201-1.41-0.295-2.29-0.295H5.814c-3.573,0-5.172,1.592-5.172,5.172v3.902c0,3.572,1.599,5.165,5.172,5.165H9.71
			c0.88,0,1.645-0.095,2.29-0.295c0.678-0.209,1.229-0.531,1.661-0.976c0.551-0.563,0.905-1.322,1.08-2.283
			c0.096-0.463,0.135-0.975,0.141-1.53V9.965C14.875,9.4,14.836,8.896,14.74,8.434z M13.633,14.036
			c-0.006,0.591-0.049,1.095-0.141,1.53c-0.215,0.988-0.68,1.604-1.493,1.947c-0.442,0.194-0.994,0.303-1.658,0.336
			c-0.202,0.015-0.409,0.021-0.631,0.021H5.814c-2.935,0-3.922-0.987-3.922-3.916v-3.902c0-2.908,0.974-3.902,3.849-3.916
			l0.074-0.014H9.71c0.222,0,0.436,0.007,0.638,0.021c0.666,0.04,1.216,0.147,1.659,0.343c0.808,0.342,1.271,0.96,1.485,1.947
			c0.092,0.437,0.135,0.94,0.141,1.531V14.036z"/>
	</g>
	<g>
		<path fill="#292D32" d="M11.299,9.968H4.225c-0.278,0-0.503-0.226-0.503-0.504V8.939c0-0.278,0.226-0.504,0.503-0.504h7.074
			c0.278,0,0.504,0.226,0.504,0.504v0.524C11.803,9.742,11.577,9.968,11.299,9.968z"/>
	</g>
	<g>
		<path fill="#292D32" d="M11.299,12.802H4.225c-0.278,0-0.503-0.226-0.503-0.504v-0.524c0-0.278,0.226-0.504,0.503-0.504h7.074
			c0.278,0,0.504,0.226,0.504,0.504v0.524C11.803,12.576,11.577,12.802,11.299,12.802z"/>
	</g>
	<g>
		<path fill="#292D32" d="M11.299,15.564H4.225c-0.278,0-0.503-0.228-0.503-0.504v-0.524c0-0.278,0.226-0.503,0.503-0.503h7.074
			c0.278,0,0.504,0.225,0.504,0.503v0.524C11.803,15.339,11.577,15.564,11.299,15.564z"/>
	</g>
</g>
</svg>
