<?xml version="1.0" encoding="utf-8"?>
<!-- Generator: Adobe Illustrator 16.0.0, SVG Export Plug-In . SVG Version: 6.00 Build 0)  -->
<!DOCTYPE svg PUBLIC "-//W3C//DTD SVG 1.1//EN" "http://www.w3.org/Graphics/SVG/1.1/DTD/svg11.dtd">
<svg version="1.1" id="Vrstva_1" xmlns="http://www.w3.org/2000/svg" xmlns:xlink="http://www.w3.org/1999/xlink" x="0px" y="0px"
	 width="24px" height="24px" viewBox="0 0 24 24" enable-background="new 0 0 24 24" xml:space="preserve">
<path fill="#292D32" d="M22.692,20.229c-0.165-0.108-0.377-0.162-0.645-0.162c-3.578,0.004-7.157,0.005-10.734,0.005H3.138
	l3.556-6.157c0.927,0.659,1.672,1.441,2.273,2.39c0.533,0.841,0.922,1.797,1.153,2.842c0.092,0.414,0.41,0.692,0.792,0.692
	c0.054,0,0.108-0.006,0.161-0.018c0.208-0.043,0.383-0.16,0.492-0.329c0.123-0.189,0.16-0.434,0.104-0.688
	c-0.552-2.548-1.906-4.624-4.027-6.171c-0.049-0.035-0.096-0.072-0.144-0.108l-0.002-0.002l5.107-8.847
	c0.044-0.076,0.088-0.152,0.123-0.232c0.09-0.205,0.09-0.43,0.001-0.635c-0.089-0.202-0.259-0.36-0.468-0.433
	c-0.406-0.14-0.759,0.026-1.021,0.482l-1.183,2.046C7.886,8.666,5.713,12.427,3.542,16.19c-0.571,0.992-1.139,1.986-1.707,2.98
	l-0.776,1.358c-0.183,0.422-0.053,0.801,0.366,1.045c0.147,0.066,0.322,0.099,0.534,0.099c6.704-0.006,13.402-0.006,20.116-0.001
	c0.322,0,0.556-0.09,0.728-0.259C22.948,21.247,23.266,20.768,22.692,20.229z"/>
</svg>
