<?xml version="1.0" encoding="utf-8"?>
<!-- Generator: Adobe Illustrator 16.0.0, SVG Export Plug-In . SVG Version: 6.00 Build 0)  -->
<!DOCTYPE svg PUBLIC "-//W3C//DTD SVG 1.1//EN" "http://www.w3.org/Graphics/SVG/1.1/DTD/svg11.dtd">
<svg version="1.1" id="Vrstva_1" xmlns="http://www.w3.org/2000/svg" xmlns:xlink="http://www.w3.org/1999/xlink" x="0px" y="0px"
	 width="24px" height="24px" viewBox="0 0 24 24" enable-background="new 0 0 24 24" xml:space="preserve">
<g>
	<rect x="20.256" y="13.168" fill="#292D32" width="1.055" height="7.6"/>
	<g>
		<path fill="#292D32" d="M19.465,16.791c-0.025-0.055-0.057-0.111-0.104-0.152l-1.424-1.422c-0.184-0.189-0.484-0.189-0.668,0
			c-0.186,0.182-0.186,0.48,0,0.666l0.596,0.59H7.395V6.245l0.594,0.594c0.186,0.181,0.481,0.183,0.666,0s0.185-0.484,0-0.667
			L7.232,4.745C7.188,4.703,7.134,4.666,7.08,4.644C7.022,4.62,6.959,4.605,6.899,4.605c-0.066,0-0.128,0.015-0.184,0.039
			C6.657,4.666,6.607,4.703,6.566,4.745L5.141,6.171C5.05,6.263,5.004,6.381,5.004,6.504c0,0.122,0.046,0.242,0.138,0.334
			c0.184,0.181,0.485,0.181,0.669,0l0.592-0.594v10.228H2.689v0.996h3.713v3.729H7.4v-3.729h10.469l-0.592,0.592
			c-0.186,0.184-0.186,0.484,0,0.664c0.092,0.094,0.213,0.139,0.334,0.139s0.236-0.045,0.33-0.139l1.424-1.426
			c0.045-0.039,0.082-0.09,0.104-0.148c0.029-0.053,0.039-0.117,0.039-0.182C19.502,16.91,19.488,16.848,19.465,16.791z"/>
	</g>
	<rect x="3.097" y="2.803" fill="#292D32" width="7.6" height="1.054"/>
</g>
</svg>
