<?xml version="1.0" encoding="utf-8"?>
<!-- Generator: Adobe Illustrator 16.0.0, SVG Export Plug-In . SVG Version: 6.00 Build 0)  -->
<!DOCTYPE svg PUBLIC "-//W3C//DTD SVG 1.1//EN" "http://www.w3.org/Graphics/SVG/1.1/DTD/svg11.dtd">
<svg version="1.1" id="Vrstva_1" xmlns="http://www.w3.org/2000/svg" xmlns:xlink="http://www.w3.org/1999/xlink" x="0px" y="0px"
	 width="24px" height="24px" viewBox="0 0 24 24" enable-background="new 0 0 24 24" xml:space="preserve">
<g>
	<g>
		<path fill="#292D32" d="M14.596,15.352c-0.132,0-0.264-0.051-0.363-0.151c-0.201-0.2-0.201-0.526,0-0.728l1.465-1.467
			l-1.465-1.465c-0.201-0.201-0.201-0.527,0-0.728c0.2-0.201,0.526-0.201,0.727,0l1.83,1.829c0.201,0.201,0.201,0.526,0,0.728
			l-1.83,1.831C14.858,15.301,14.728,15.352,14.596,15.352z"/>
	</g>
	<g>
		<path fill="#292D32" d="M9.404,20.532c-0.131,0-0.264-0.05-0.364-0.15l-1.829-1.83c-0.201-0.201-0.201-0.526,0-0.728l1.829-1.829
			c0.201-0.201,0.527-0.201,0.728,0s0.201,0.526,0,0.728l-1.465,1.466l1.465,1.466c0.201,0.201,0.201,0.526,0,0.728
			C9.667,20.482,9.536,20.532,9.404,20.532z"/>
	</g>
	<g>
		<g>
			<path fill="#292D32" d="M16.425,13.52h-8.85c-0.284,0-0.515-0.23-0.515-0.514c0-0.285,0.23-0.515,0.515-0.515h8.85
				c0.284,0,0.515,0.23,0.515,0.515C16.939,13.289,16.709,13.52,16.425,13.52z"/>
		</g>
		<g>
			<path fill="#292D32" d="M16.425,18.703h-8.85c-0.284,0-0.515-0.23-0.515-0.515s0.23-0.515,0.515-0.515h8.85
				c0.284,0,0.515,0.23,0.515,0.515S16.709,18.703,16.425,18.703z"/>
		</g>
	</g>
</g>
<g>
	<path fill="none" stroke="#292D32" stroke-width="1.5" stroke-linecap="round" stroke-linejoin="round" d="M22,10v5c0,5-2,7-7,7H9
		c-5,0-7-2-7-7V9c0-5,2-7,7-7h5"/>
	<path fill="none" stroke="#292D32" stroke-width="1.5" stroke-linecap="round" stroke-linejoin="round" d="M22,10h-4c-3,0-4-1-4-4
		V2L22,10z"/>
</g>
</svg>
