<?xml version="1.0" encoding="utf-8"?>
<!-- Generator: Adobe Illustrator 16.0.0, SVG Export Plug-In . SVG Version: 6.00 Build 0)  -->
<!DOCTYPE svg PUBLIC "-//W3C//DTD SVG 1.1//EN" "http://www.w3.org/Graphics/SVG/1.1/DTD/svg11.dtd">
<svg version="1.1" id="Vrstva_1" xmlns="http://www.w3.org/2000/svg" xmlns:xlink="http://www.w3.org/1999/xlink" x="0px" y="0px"
	 width="24px" height="24px" viewBox="0 0 24 24" enable-background="new 0 0 24 24" xml:space="preserve">
<path fill="#292D32" d="M7.08,16.1c-0.36,0-0.72-0.09-1.05-0.279C5.36,15.44,4.96,14.76,4.96,14v-3.57c0-0.26-0.17-0.7-0.38-0.95
	L2.06,6.83C1.59,6.37,1.25,5.57,1.25,4.96V3.41c0-1.21,0.92-2.17,2.1-2.17h8.9c1.16,0,2.1,0.94,2.1,2.1v1.48
	c0,0.78-0.449,1.64-0.89,2.08l-2.93,2.59c-0.23,0.19-0.42,0.65-0.42,0.99v2.9c0,0.689-0.42,1.459-0.97,1.789l-0.92,0.6
	C7.86,15.99,7.47,16.1,7.08,16.1z M3.35,2.75c-0.34,0-0.6,0.29-0.6,0.67v1.55c0,0.17,0.17,0.6,0.39,0.82L5.72,8.5
	c0.38,0.47,0.75,1.24,0.75,1.93V14c0,0.301,0.19,0.45,0.31,0.51c0.16,0.09,0.42,0.141,0.64,0l0.93-0.6
	c0.12-0.07,0.26-0.35,0.26-0.52v-2.9C8.61,9.7,9,8.83,9.55,8.36l2.88-2.55c0.179-0.18,0.419-0.67,0.419-0.99V3.34
	c0-0.33-0.27-0.6-0.6-0.6h-8.9V2.75z"/>
<path fill="#292D32" d="M15,22.75H9c-5.43,0-7.75-2.32-7.75-7.75v-3c0-0.41,0.34-0.75,0.75-0.75S2.75,11.59,2.75,12v3
	c0,4.609,1.64,6.25,6.25,6.25h6c4.609,0,6.25-1.641,6.25-6.25V9c0-2.9-0.68-4.58-2.21-5.45c-0.16-0.09-0.69-0.33-2.21-0.57
	c-0.41-0.06-0.689-0.45-0.62-0.86c0.069-0.41,0.46-0.69,0.86-0.62c1.31,0.21,2.199,0.45,2.709,0.74C21.8,3.39,22.75,5.54,22.75,9v6
	C22.75,20.43,20.43,22.75,15,22.75z"/>
<g>
	<rect x="9.078" y="17.501" fill="#292D32" width="9.953" height="1.5"/>
</g>
<g>
	<rect x="11.885" y="14.355" fill="#292D32" width="7.146" height="1.5"/>
</g>
<g>
	<rect x="11.885" y="11.172" fill="#292D32" width="7.146" height="1.5"/>
</g>
</svg>
