<?xml version="1.0" encoding="utf-8"?>
<!-- Generator: Adobe Illustrator 16.0.0, SVG Export Plug-In . SVG Version: 6.00 Build 0)  -->
<!DOCTYPE svg PUBLIC "-//W3C//DTD SVG 1.1//EN" "http://www.w3.org/Graphics/SVG/1.1/DTD/svg11.dtd">
<svg version="1.1" id="Vrstva_1" xmlns="http://www.w3.org/2000/svg" xmlns:xlink="http://www.w3.org/1999/xlink" x="0px" y="0px"
	 width="24px" height="24px" viewBox="0 0 24 24" enable-background="new 0 0 24 24" xml:space="preserve">
<path fill="#292D32" d="M7.08,16.1c-0.36,0-0.72-0.09-1.05-0.279C5.36,15.44,4.96,14.76,4.96,14v-3.57c0-0.26-0.17-0.7-0.38-0.95
	L2.06,6.83C1.59,6.37,1.25,5.57,1.25,4.96V3.41c0-1.21,0.92-2.17,2.1-2.17h8.9c1.16,0,2.1,0.94,2.1,2.1v1.48
	c0,0.78-0.449,1.64-0.89,2.08l-2.93,2.59c-0.23,0.19-0.42,0.65-0.42,0.99v2.9c0,0.689-0.42,1.459-0.97,1.789l-0.92,0.6
	C7.86,15.99,7.47,16.1,7.08,16.1z M3.35,2.75c-0.34,0-0.6,0.29-0.6,0.67v1.55c0,0.17,0.17,0.6,0.39,0.82L5.72,8.5
	c0.38,0.47,0.75,1.24,0.75,1.93V14c0,0.301,0.19,0.45,0.31,0.51c0.16,0.09,0.42,0.141,0.64,0l0.93-0.6
	c0.12-0.07,0.26-0.35,0.26-0.52v-2.9C8.61,9.7,9,8.83,9.55,8.36l2.88-2.55c0.179-0.18,0.419-0.67,0.419-0.99V3.34
	c0-0.33-0.27-0.6-0.6-0.6h-8.9V2.75z"/>
<path fill="#292D32" d="M15,22.75H9c-5.43,0-7.75-2.32-7.75-7.75v-3c0-0.41,0.34-0.75,0.75-0.75S2.75,11.59,2.75,12v3
	c0,4.609,1.64,6.25,6.25,6.25h6c4.609,0,6.25-1.641,6.25-6.25V9c0-2.9-0.68-4.58-2.21-5.45c-0.16-0.09-0.69-0.33-2.21-0.57
	c-0.41-0.06-0.689-0.45-0.62-0.86c0.069-0.41,0.46-0.69,0.86-0.62c1.31,0.21,2.199,0.45,2.709,0.74C21.8,3.39,22.75,5.54,22.75,9v6
	C22.75,20.43,20.43,22.75,15,22.75z"/>
<g>
	<path fill-rule="evenodd" clip-rule="evenodd" fill="#292D32" d="M18.508,18.134c0.512-0.001,0.788-0.274,0.788-0.782
		c0.001-1.741,0.001-3.483,0-5.225c0-0.51-0.271-0.78-0.787-0.78c-2.307-0.001-4.613-0.001-6.92,0c-0.51,0-0.782,0.274-0.783,0.788
		c0,1.736,0,3.472,0,5.208c0,0.519,0.276,0.79,0.797,0.791c1.152,0,2.301,0,3.453,0C16.206,18.134,17.357,18.134,18.508,18.134z
		 M11.602,17.579c-0.216-0.001-0.252-0.036-0.252-0.258c0-1.721,0-3.441,0-5.162c0-0.226,0.039-0.264,0.263-0.264
		c2.292,0,4.583,0,6.874,0c0.233,0,0.269,0.036,0.269,0.275c0,1.714,0,3.43,0,5.146c0,0.228-0.035,0.262-0.265,0.262
		c-1.15,0-2.301,0-3.452,0C13.893,17.579,12.747,17.579,11.602,17.579z"/>
	<path fill-rule="evenodd" clip-rule="evenodd" fill="#292D32" d="M18.059,14.914c-0.536-0.528-1.067-1.062-1.601-1.594
		c-0.039-0.039-0.081-0.078-0.138-0.132c-0.754,0.761-1.498,1.513-2.262,2.283c-0.24-0.254-0.466-0.492-0.702-0.744
		c-0.471,0.475-0.916,0.924-1.359,1.373c-0.024,0.025-0.05,0.061-0.05,0.093c-0.004,0.264-0.003,0.528-0.003,0.795
		c2.083,0,4.145,0,6.218,0c0-0.068,0-0.125,0-0.183c0-0.543-0.003-1.087,0.002-1.631C18.165,15.067,18.136,14.991,18.059,14.914z"/>
	<path fill-rule="evenodd" clip-rule="evenodd" fill="#292D32" d="M12.782,14.161c0.471-0.001,0.834-0.363,0.837-0.834
		c0.003-0.479-0.362-0.844-0.841-0.843c-0.47,0-0.833,0.361-0.835,0.832C11.94,13.794,12.306,14.162,12.782,14.161z"/>
	<path fill-rule="evenodd" clip-rule="evenodd" fill="#292D32" d="M20.117,13.062c0-0.076-0.001-0.156-0.009-0.234
		c-0.026-0.273-0.283-0.521-0.533-0.562v0.758c0.002,0.012,0.003,0.022,0.003,0.034c0.006,1.679,0.004,3.357,0.004,5.036
		c0,0.264-0.021,0.285-0.287,0.285c-1.414,0.001-2.827,0.011-4.24,0.001v-0.005h-0.534c-0.119-0.001-0.237-0.002-0.355-0.004
		c-0.096-0.002-0.193,0-0.288,0.004h-1.228h-0.566h-0.284c0.004,0.025,0.009,0.05,0.017,0.073c0.096,0.3,0.357,0.472,0.716,0.472
		c2.255,0.001,4.509-0.007,6.763,0.007c0.462,0.003,0.835-0.261,0.829-0.828C20.105,16.42,20.117,14.74,20.117,13.062z"/>
</g>
</svg>
