<?xml version="1.0" encoding="utf-8"?>
<!-- Generator: Adobe Illustrator 16.0.0, SVG Export Plug-In . SVG Version: 6.00 Build 0)  -->
<!DOCTYPE svg PUBLIC "-//W3C//DTD SVG 1.1//EN" "http://www.w3.org/Graphics/SVG/1.1/DTD/svg11.dtd">
<svg version="1.1" id="Vrstva_1" xmlns="http://www.w3.org/2000/svg" xmlns:xlink="http://www.w3.org/1999/xlink" x="0px" y="0px"
	 width="24px" height="24px" viewBox="0 0 24 24" enable-background="new 0 0 24 24" xml:space="preserve">
<path fill="none" stroke="#292D32" stroke-width="1.5" stroke-miterlimit="10" d="M21.67,14.3l-0.4,5C21.12,20.83,21,22,18.29,22
	H5.71C3,22,2.88,20.83,2.73,19.3l-0.4-5c-0.08-0.83,0.18-1.6,0.65-2.19C2.99,12.1,2.99,12.1,3,12.09C3.55,11.42,4.38,11,5.31,11
	h13.379c0.931,0,1.75,0.42,2.291,1.07C20.99,12.08,21,12.09,21,12.1C21.49,12.689,21.76,13.46,21.67,14.3z"/>
<path fill="none" stroke="#292D32" stroke-width="1.5" stroke-linecap="round" stroke-linejoin="round" stroke-miterlimit="10" d="
	M3.5,11.43V6.28c0-3.4,0.85-4.25,4.25-4.25h1.27c1.27,0,1.56,0.38,2.04,1.02l1.27,1.7c0.32,0.42,0.51,0.68,1.359,0.68h2.551
	c3.4,0,4.25,0.85,4.25,4.25v1.79"/>
<g>
	<path fill="none" stroke="#292D32" stroke-width="1.4" stroke-linecap="round" stroke-linejoin="round" d="M15.708,13.993
		l2.61,2.611l-2.61,2.611"/>
	<path fill="none" stroke="#292D32" stroke-width="1.4" stroke-linecap="round" stroke-linejoin="round" d="M18.318,16.604H5.686"/>
</g>
</svg>
