<?xml version="1.0" encoding="utf-8"?>
<!-- Generator: Adobe Illustrator 16.0.0, SVG Export Plug-In . SVG Version: 6.00 Build 0)  -->
<!DOCTYPE svg PUBLIC "-//W3C//DTD SVG 1.1//EN" "http://www.w3.org/Graphics/SVG/1.1/DTD/svg11.dtd">
<svg version="1.1" id="Vrstva_1" xmlns="http://www.w3.org/2000/svg" xmlns:xlink="http://www.w3.org/1999/xlink" x="0px" y="0px"
	 width="24px" height="24px" viewBox="0 0 24 24" enable-background="new 0 0 24 24" xml:space="preserve">
<path fill="none" stroke="#292D32" stroke-width="1.5" stroke-linecap="round" stroke-linejoin="round" d="M17.229,2.372H7.623
	c-2.11,0-3.839,1.729-3.839,3.839v14.024c0,1.788,1.284,2.556,2.852,1.68l4.852-2.705c0.519-0.282,1.357-0.282,1.864,0l4.851,2.705
	c1.568,0.876,2.854,0.108,2.854-1.68V6.211C21.067,4.1,19.338,2.372,17.229,2.372z"/>
<path fill="none" stroke="#292D32" stroke-width="1.5" stroke-linecap="round" stroke-linejoin="round" d="M20.642,5.889v14.024
	c0,1.788-1.284,2.543-2.852,1.68l-4.852-2.705c-0.52-0.282-1.358-0.282-1.877,0L6.21,21.593c-1.568,0.863-2.852,0.108-2.852-1.68
	V5.889c0-2.111,1.729-3.839,3.839-3.839h9.606C18.912,2.049,20.642,3.778,20.642,5.889z"/>
<g>
	<path fill="#292D32" d="M7.933,10.99l1.623,2.222H8.429l-1.056-1.448l-1.069,1.448H5.202l1.616-2.202L5.202,8.788h1.121
		l1.063,1.449l1.063-1.449h1.107L7.933,10.99z"/>
	<path fill="#292D32" d="M10.137,8.788h0.946l1.371,2.499l1.366-2.499h0.952v4.424H13.82v-2.756l-1.366,2.498l-1.371-2.498v2.756
		h-0.946V8.788z"/>
	<path fill="#292D32" d="M18.798,12.355v0.856h-3.155V8.788h0.953v3.567H18.798z"/>
</g>
</svg>
