<?xml version="1.0" encoding="utf-8"?>
<!-- Generator: Adobe Illustrator 16.0.0, SVG Export Plug-In . SVG Version: 6.00 Build 0)  -->
<!DOCTYPE svg PUBLIC "-//W3C//DTD SVG 1.1//EN" "http://www.w3.org/Graphics/SVG/1.1/DTD/svg11.dtd">
<svg version="1.1" id="Vrstva_1" xmlns="http://www.w3.org/2000/svg" xmlns:xlink="http://www.w3.org/1999/xlink" x="0px" y="0px"
	 width="24px" height="24px" viewBox="0 0 24 24" enable-background="new 0 0 24 24" xml:space="preserve">
<g>
	<g>
		<path fill-rule="evenodd" clip-rule="evenodd" fill="#292D32" d="M18.511,17.843c0.008,0.452-0.321,0.702-0.673,0.587
			c-0.141-0.046-0.272-0.118-0.407-0.181c-1.728-0.799-3.455-1.595-5.177-2.401c-0.188-0.089-0.334-0.076-0.515,0.008
			c-1.772,0.827-3.548,1.644-5.321,2.47c-0.277,0.129-0.551,0.226-0.792-0.034C5.388,18.032,5.504,17.76,5.64,17.49
			c1.892-3.738,3.781-7.476,5.671-11.216c0.059-0.117,0.119-0.233,0.173-0.353c0.102-0.224,0.256-0.376,0.515-0.378
			c0.26-0.002,0.413,0.149,0.523,0.37c0.313,0.634,0.632,1.264,0.95,1.896c1.631,3.225,3.262,6.45,4.891,9.676
			C18.433,17.623,18.481,17.771,18.511,17.843z M7.178,16.787c0.125-0.043,0.188-0.059,0.248-0.085
			c1.283-0.595,2.564-1.192,3.851-1.779c0.171-0.079,0.194-0.186,0.193-0.348c-0.002-1.972-0.001-3.945-0.002-5.917
			c0-0.072-0.011-0.145-0.016-0.216c-0.016-0.004-0.033-0.007-0.05-0.011C10.001,11.197,8.604,13.964,7.178,16.787z"/>
		<path fill-rule="evenodd" clip-rule="evenodd" fill="#E5FF32" d="M7.178,16.787c1.426-2.823,2.824-5.59,4.222-8.356
			c0.018,0.004,0.034,0.007,0.05,0.011c0.005,0.071,0.016,0.145,0.016,0.216c0.001,1.972,0,3.945,0.002,5.917
			c0.001,0.162-0.021,0.269-0.193,0.348c-1.287,0.587-2.567,1.185-3.851,1.779C7.366,16.729,7.303,16.744,7.178,16.787z"/>
	</g>
	<circle fill="none" stroke="#292D32" stroke-width="1.5" stroke-miterlimit="10" cx="12" cy="12" r="10.813"/>
</g>
</svg>
