<?xml version="1.0" encoding="utf-8"?>
<!-- Generator: Adobe Illustrator 16.0.0, SVG Export Plug-In . SVG Version: 6.00 Build 0)  -->
<!DOCTYPE svg PUBLIC "-//W3C//DTD SVG 1.1//EN" "http://www.w3.org/Graphics/SVG/1.1/DTD/svg11.dtd">
<svg version="1.1" id="Vrstva_1" xmlns="http://www.w3.org/2000/svg" xmlns:xlink="http://www.w3.org/1999/xlink" x="0px" y="0px"
	 width="24px" height="24px" viewBox="0 0 24 24" enable-background="new 0 0 24 24" xml:space="preserve">
<g>
	<g>
		<path fill="#292D32" d="M19.748,12.785c0.099-0.477,0.149-1.035,0.157-1.704V6.518c-0.01-0.685-0.06-1.226-0.158-1.7
			c-0.193-1.071-0.583-1.893-1.19-2.516c-0.454-0.476-1.068-0.839-1.828-1.08c-0.697-0.216-1.554-0.327-2.546-0.327L9.815,0.897
			c-3.957,0-5.721,1.764-5.721,5.721v4.375c0,3.951,1.765,5.712,5.721,5.712h4.368c0.993,0,1.849-0.111,2.546-0.326
			c0.755-0.234,1.354-0.586,1.83-1.074C19.163,14.684,19.552,13.859,19.748,12.785z M16.781,15.055
			c-0.494,0.219-1.11,0.344-1.886,0.383c-0.232,0.016-0.465,0.023-0.712,0.023H9.815c-3.348,0-4.477-1.127-4.477-4.468V6.617
			c0-3.325,1.108-4.453,4.394-4.469l0.083-0.016h4.368c0.254,0,0.496,0.008,0.722,0.022c0.779,0.048,1.397,0.176,1.886,0.392
			c0.919,0.391,1.463,1.102,1.713,2.238c0.101,0.486,0.151,1.052,0.157,1.732v4.565c-0.006,0.684-0.057,1.248-0.157,1.732
			C18.254,13.955,17.707,14.666,16.781,15.055z"/>
		<g>
			<path fill="#292D32" d="M15.907,8.038H7.975c-0.31,0-0.563,0.253-0.563,0.564V9.19c0,0.311,0.251,0.564,0.563,0.564h7.932
				c0.312,0,0.565-0.256,0.564-0.565V8.602C16.472,8.291,16.219,8.038,15.907,8.038z"/>
			<path fill="#292D32" d="M15.907,11.134H7.975c-0.31,0-0.563,0.253-0.563,0.563v0.59c0,0.309,0.251,0.563,0.563,0.563h7.932
				c0.312,0,0.565-0.252,0.564-0.563v-0.59C16.472,11.387,16.219,11.134,15.907,11.134z"/>
			<path fill="#292D32" d="M16.023,4.913H7.975c-0.315,0-0.572,0.257-0.572,0.574v0.597c0,0.316,0.255,0.574,0.572,0.574h8.049
				c0.317,0,0.574-0.258,0.574-0.575V5.487C16.598,5.17,16.341,4.913,16.023,4.913z"/>
		</g>
	</g>
	<path fill="#292D32" d="M17.195,19.537H8.521l0.936-0.934c0.276-0.277,0.277-0.729,0-1.006s-0.729-0.277-1.006,0l-2.149,2.146
		c-0.065,0.066-0.116,0.145-0.154,0.23c-0.036,0.086-0.055,0.18-0.055,0.273c0,0.096,0.02,0.189,0.056,0.273
		c0.037,0.088,0.089,0.166,0.153,0.23l2.149,2.146c0.137,0.139,0.319,0.207,0.502,0.207c0.182,0,0.363-0.068,0.502-0.209
		c0.278-0.277,0.277-0.729,0-1.004l-0.934-0.934h8.675c0.395,0,0.713-0.318,0.713-0.711S17.59,19.537,17.195,19.537z"/>
</g>
</svg>
