<?xml version="1.0" encoding="UTF-8" standalone="no"?>
<!-- Created with Inkscape (http://www.inkscape.org/) -->

<svg
   xmlns:dc="http://purl.org/dc/elements/1.1/"
   xmlns:cc="http://creativecommons.org/ns#"
   xmlns:rdf="http://www.w3.org/1999/02/22-rdf-syntax-ns#"
   xmlns:svg="http://www.w3.org/2000/svg"
   xmlns="http://www.w3.org/2000/svg"
   xmlns:sodipodi="http://sodipodi.sourceforge.net/DTD/sodipodi-0.dtd"
   xmlns:inkscape="http://www.inkscape.org/namespaces/inkscape"
   version="1.1"
   id="svg4518"
   width="1024"
   height="1024"
   viewBox="0 0 1024 1024"
   sodipodi:docname="activate.svg"
   inkscape:version="0.92.4 (5da689c313, 2019-01-14)">
  <metadata
     id="metadata4524">
    <rdf:RDF>
      <cc:Work
         rdf:about="">
        <dc:format>image/svg+xml</dc:format>
        <dc:type
           rdf:resource="http://purl.org/dc/dcmitype/StillImage" />
        <dc:title></dc:title>
      </cc:Work>
    </rdf:RDF>
  </metadata>
  <defs
     id="defs4522" />
  <sodipodi:namedview
     pagecolor="#ffffff"
     bordercolor="#666666"
     borderopacity="1"
     objecttolerance="10"
     gridtolerance="10"
     guidetolerance="10"
     inkscape:pageopacity="0"
     inkscape:pageshadow="2"
     inkscape:window-width="3840"
     inkscape:window-height="2035"
     id="namedview4520"
     showgrid="false"
     inkscape:zoom="0.85839844"
     inkscape:cx="32.139061"
     inkscape:cy="289.91088"
     inkscape:window-x="-13"
     inkscape:window-y="-13"
     inkscape:window-maximized="1"
     inkscape:current-layer="svg4518" />
  <path
     style="fill:#000000"
     d="m 316.31499,853.99239 c -13.16022,-1.92416 -31.2928,-9.4115 -43.99908,-18.16819 -16.74834,-11.54232 -30.9282,-29.36743 -39.81185,-50.04638 -8.10674,-18.87051 -7.50562,2.16329 -7.49092,-262.11579 0.0127,-227.40579 0.083,-236.50057 1.89749,-245.29265 3.9653,-19.21376 13.60798,-37.2982 28.08937,-52.68043 15.92737,-16.91817 34.05572,-27.89977 55,-33.31733 10.10518,-2.61386 11.67507,-2.73115 41.75,-3.11915 L 383,188.84932 382.9505,235.17466 382.901,281.5 360.20047,304.76792 c -12.48529,12.79736 -23.05325,23.25986 -23.48435,23.25 -0.4311,-0.01 -0.75284,-10.03042 -0.71498,-22.26792 0.0379,-12.2375 0.0531,-26.8625 0.0338,-32.5 L 336,263 h -3.03155 c -4.47734,0 -14.51619,3.64924 -20.40929,7.41901 -9.59917,6.14051 -17.10041,17.29525 -20.05359,29.82072 -2.25603,9.56864 -2.22328,439.09006 0.0342,448.6672 4.18569,17.75729 18.86123,32.31911 36.25944,35.97848 6.80482,1.43126 360.41464,1.5912 367.92749,0.16642 17.06776,-3.23684 31.67572,-17.57549 36.2913,-35.62225 1.92069,-7.50979 1.982,-11.37816 1.982,-125.0586 V 507.06189 l 33.4614,-33.78095 33.46141,-33.78094 0.0386,158.11901 c 0.0415,169.84936 0.16293,165.44361 -5.00062,181.38099 -6.78043,20.92791 -21.67767,41.60716 -39.46078,54.77654 -7.50725,5.55953 -20.56782,12.15205 -30.95493,15.62497 -17.51275,5.85537 -7.8628,5.60961 -214.92606,5.47373 -104.56546,-0.0686 -192.45226,-0.4659 -195.30402,-0.88285 z m 24.28627,-115.86757 c -0.19912,-0.34365 0.0229,-3.54982 0.49345,-7.12482 0.47051,-3.575 2.23954,-21.125 3.93116,-39 1.69162,-17.875 3.96861,-40.375 5.05999,-50 1.09137,-9.625 4.19541,-39.325 6.89786,-66 4.72207,-46.60997 5.05165,-48.90623 8.4574,-58.92418 1.94912,-5.7333 3.43474,-10.49442 3.30137,-10.58028 -0.13337,-0.0858 -2.89917,-0.73023 -6.14623,-1.43194 -4.88884,-1.05652 -6.72257,-2.09467 -10.6669,-6.03901 -11.57169,-11.57168 -8.2676,-30.24007 6.57064,-37.12474 3.56813,-1.65555 6.80442,-1.8583 29.97487,-1.87789 L 414.44973,460 444.47487,429.37253 c 16.51382,-16.84511 30.15221,-30.95136 30.30754,-31.34723 0.15532,-0.39586 -24.93116,-0.81962 -55.74775,-0.94168 -30.81658,-0.12207 -57.42738,-0.62266 -59.13511,-1.11243 -4.97736,-1.42749 -9.49666,-5.5217 -12.29617,-11.13957 -5.95385,-11.94783 -1.28108,-25.03933 10.89662,-30.52857 3.72635,-1.6797 9.37006,-1.82292 82.496,-2.09353 l 78.496,-0.29049 44.504,-44.3187 c 26.47183,-26.3616 47.76023,-46.71668 52.54049,-50.237 18.868,-13.89494 42.41723,-22.22577 63.99351,-22.63849 6.52967,-0.12491 7.47,-0.37407 7.47,-1.97932 0,-4.30897 -9.84147,-10.27807 -20.79922,-12.61525 -6.5827,-1.40402 -22.55899,-1.45184 -31.20078,-0.0934 -21.19505,3.33177 -41.97709,14.50965 -61.3303,32.98727 L 564.22112,263 h -54.53798 -54.53798 l -2.07258,-2.63486 C 451.06713,257.81562 451,256.61723 451,223.36514 V 189 h 122.86901 c 136.0397,0 130.69029,-0.23187 150.95614,6.54306 12.84019,4.2925 24.6176,10.78402 35.59928,19.62172 19.45188,15.65425 32.08652,35.36515 38.89609,60.68053 l 3.13498,11.65469 -0.017,38 -0.017,38 -2.67722,9.84501 c -5.74246,21.11696 -14.88438,39.6044 -25.79029,52.15499 -2.86756,3.3 -27.34109,28.5 -54.38563,56 C 671.08028,530.8046 662,540.22692 662,541.23683 c 0,0.28224 1.42492,0.79815 3.16649,1.14647 6.53228,1.30645 13.65629,9.41706 15.33518,17.45893 1.90266,9.11371 -3.18264,19.32493 -11.75024,23.59435 C 663.68837,585.95961 663.25251,586 641.09037,586 h -22.51695 l -31.28671,31.22875 C 570.07902,634.40457 556,648.80457 556,649.22875 556,649.65294 580.08945,650 609.53212,650 c 58.4026,0 57.62025,-0.0711 63.80946,5.80305 7.51129,7.12898 9.40168,18.88088 4.40456,27.3816 -3.03277,5.15912 -7.0327,8.45835 -12.00016,9.89801 -1.91836,0.55597 -38.431,0.93197 -89.27182,0.91931 l -86.02584,-0.0214 -16.47416,4.55582 c -9.06079,2.5057 -25.02416,7.18908 -35.47416,10.40751 -10.45,3.21843 -28.9,8.86266 -41,12.54273 -12.1,3.68008 -29.77076,9.06975 -39.26835,11.97705 -9.49759,2.9073 -17.43126,5.00482 -17.63039,4.66117 z m 106.64836,-71.59473 c 12.78771,-4.05869 29.46439,-9.32583 37.05929,-11.70476 l 13.80891,-4.32533 11.68341,-12 c 6.42588,-6.6 37.8121,-38.55 69.74717,-71 31.93506,-32.45 70.40613,-71.825 85.49127,-87.5 15.08513,-15.675 29.4599,-30.46145 31.94392,-32.85878 L 701.5,442.78243 647.50066,389.38134 593.50131,335.98025 548.96365,380.74013 C 417.76452,512.59386 401.31519,529.49432 400.70543,533.06436 c -0.81331,4.76171 -3.0987,26.54337 -7.70508,73.43564 l -3.92934,40 14.2145,14.29687 c 13.57021,13.64885 14.36178,14.27003 17.46411,13.70476 1.78728,-0.32566 13.71228,-3.91286 26.5,-7.97154 z m -4.06075,-58.52628 c -12.82112,-13.13924 -24.15953,-24.96809 -25.19647,-26.28634 -1.46125,-1.85768 -2.37322,-6.59581 -4.05432,-21.06419 l -2.16898,-18.66738 4.51636,-5.24295 C 424.275,527.46807 569.18734,380.89523 570.06331,381.20302 571.05468,381.55136 657,466.99935 657,467.63664 c 0,0.23738 -25.08069,25.72875 -55.73486,56.64748 -30.65418,30.91874 -67.20517,67.80338 -81.22442,81.96588 L 494.55118,632 480.52559,631.94667 466.5,631.89333 Z m 136.23362,-120.75236 19.05539,-19.24856 -14.82624,-14.851 -14.82624,-14.85099 -53.1627,53.58913 c -29.23948,29.47402 -55.28124,55.77665 -57.87058,58.45028 l -4.70787,4.86116 14.69068,14.97785 14.69068,14.97786 38.95075,-39.32859 c 21.42291,-21.63072 47.52567,-47.99044 58.00613,-58.57714 z M 740.95634,402.25 c 16.29005,-16.2914 23.06268,-35.00295 21.76663,-60.13725 -0.60501,-11.73299 -4.01581,-25.20548 -8.43837,-33.33118 -6.70021,-12.3105 -18.44207,-23.32354 -31.7846,-29.81174 -11.58522,-5.63366 -19.60594,-7.3309 -35,-7.40622 -10.96358,-0.0537 -14.16933,0.30357 -20.46476,2.2804 -14.35569,4.50785 -23.59484,10.08012 -35.08651,21.16122 l -7.44873,7.18261 53.80631,53.40608 C 707.89979,384.96726 732.58384,409 733.15976,409 c 0.57593,0 4.08439,-3.0375 7.79658,-6.75 z"
     id="path4528"
     inkscape:connector-curvature="0" />
</svg>
