<?xml version="1.0" encoding="utf-8"?>
<!-- Generator: Adobe Illustrator 16.0.0, SVG Export Plug-In . SVG Version: 6.00 Build 0)  -->
<!DOCTYPE svg PUBLIC "-//W3C//DTD SVG 1.1//EN" "http://www.w3.org/Graphics/SVG/1.1/DTD/svg11.dtd">
<svg version="1.1" id="Vrstva_1" xmlns="http://www.w3.org/2000/svg" xmlns:xlink="http://www.w3.org/1999/xlink" x="0px" y="0px"
	 width="24px" height="24px" viewBox="0 0 24 24" enable-background="new 0 0 24 24" xml:space="preserve">
<path fill="#292D32" d="M17.437,12c0.012,3.003-2.445,5.448-5.447,5.437c-3.015-0.011-5.437-2.445-5.426-5.448
	c0-3.003,2.434-5.426,5.437-5.426S17.437,8.985,17.437,12z"/>
<g>
	<path fill-rule="evenodd" clip-rule="evenodd" fill="#FFFFFF" d="M11.138,11.218c0.013-0.511-0.394-0.931-0.909-0.943
		c-0.495-0.009-0.917,0.398-0.926,0.897c-0.01,0.517,0.389,0.932,0.906,0.941C10.705,12.124,11.126,11.717,11.138,11.218z
		 M9.817,11.199c-0.002-0.226,0.181-0.411,0.404-0.409c0.221,0.001,0.403,0.187,0.403,0.405c0,0.222-0.182,0.403-0.403,0.405
		C10,11.601,9.818,11.422,9.817,11.199z"/>
	<path fill-rule="evenodd" clip-rule="evenodd" fill="#FFFFFF" d="M10.912,12.791c-0.503,0.004-0.912,0.417-0.91,0.922
		c0.001,0.507,0.41,0.915,0.916,0.915c0.509,0,0.924-0.415,0.921-0.921C11.836,13.199,11.42,12.788,10.912,12.791z M10.922,14.113
		c-0.225,0-0.403-0.174-0.406-0.398c-0.002-0.226,0.179-0.41,0.405-0.409c0.221,0,0.403,0.185,0.404,0.403
		C11.326,13.931,11.144,14.112,10.922,14.113z"/>
	<path fill-rule="evenodd" clip-rule="evenodd" fill="#FFFFFF" d="M13.289,9.121c-0.511-0.003-0.927,0.406-0.931,0.913
		c-0.003,0.503,0.411,0.92,0.914,0.923c0.51,0.002,0.924-0.405,0.924-0.914C14.198,9.537,13.792,9.124,13.289,9.121z M13.278,10.442
		c-0.22,0-0.404-0.181-0.404-0.403c0-0.225,0.187-0.406,0.413-0.404c0.221,0.002,0.399,0.183,0.397,0.407
		C13.681,10.267,13.503,10.443,13.278,10.442z"/>
	<path fill-rule="evenodd" clip-rule="evenodd" fill="#FFFFFF" d="M15.988,10.761c-0.316-1.467-1.528-2.688-2.977-3.034
		c-0.152-0.035-0.523-0.11-0.959-0.115c-0.031,0-0.062,0-0.092,0c-0.083,0.001-0.167,0.004-0.253,0.012
		c-0.123,0.016-0.247,0.03-0.369,0.052c-0.009,0.001-0.017,0.004-0.025,0.004c-0.015,0.003-0.03,0.006-0.044,0.01
		C9.827,8.005,8.827,8.85,8.262,10.21c-0.203,0.488-0.282,1.004-0.283,1.53c-0.002,0.492-0.005,0.984,0.106,1.466
		c0.259,1.122,0.835,2.03,1.812,2.663c0.459,0.295,0.966,0.46,1.511,0.507c0.009,0.001,0.019,0.003,0.028,0.007
		c0.25,0.016,0.626,0.002,1.004-0.146l0,0c0.753-0.34,1.19-1.189,0.886-2.027c-0.183-0.514,0.003-1.034,0.446-1.353
		c0.25-0.177,0.532-0.233,0.83-0.253C15.524,12.544,16.181,11.664,15.988,10.761z M14.561,12.091
		c-0.334,0.026-0.648,0.084-0.939,0.252c-0.728,0.419-1.057,1.239-0.779,2.031c0.262,0.746-0.301,1.487-1.087,1.499
		c-0.833,0.013-1.545-0.296-2.134-0.879c-0.661-0.65-1.008-1.456-1.103-2.373c-0.023-0.218-0.021-0.438-0.031-0.658
		c-0.01-0.486,0.029-0.968,0.203-1.425c0.51-1.333,1.453-2.17,2.877-2.375c1.79-0.257,3.455,0.886,3.902,2.637
		C15.631,11.439,15.216,12.04,14.561,12.091z"/>
</g>
<path fill="#292D32" d="M23.049,10.524c-0.326-0.811-1.064-1.283-2.001-1.286c-0.377-0.002-0.373-0.003-0.508-0.357
	c-0.097-0.251-0.201-0.5-0.312-0.746c-0.139-0.309-0.147-0.31,0.104-0.554c0.327-0.318,0.563-0.687,0.646-1.141
	c0.125-0.674-0.031-1.279-0.492-1.784c-0.354-0.387-0.728-0.758-1.111-1.116c-0.824-0.767-2.023-0.752-2.846,0.02
	c-0.123,0.113-0.233,0.297-0.37,0.319c-0.138,0.023-0.3-0.122-0.453-0.185c-0.263-0.108-0.524-0.216-0.793-0.309
	c-0.118-0.04-0.158-0.093-0.155-0.216c0.004-0.21,0.01-0.425-0.023-0.632c-0.148-0.888-0.766-1.514-1.654-1.704
	c-0.025-0.006-0.051-0.025-0.074-0.038c-0.672,0-1.343,0-2.015,0c-0.116,0.035-0.234,0.068-0.349,0.107
	C9.815,1.178,9.258,1.939,9.237,2.819c-0.011,0.502-0.012,0.5-0.48,0.687C8.54,3.591,8.312,3.661,8.117,3.783
	C7.892,3.923,7.753,3.871,7.59,3.685c-0.312-0.353-0.701-0.587-1.172-0.67C5.769,2.901,5.179,3.043,4.689,3.483
	c-0.4,0.36-0.781,0.745-1.149,1.139C2.777,5.439,2.766,6.654,3.554,7.443c0.3,0.298,0.363,0.521,0.14,0.875
	C3.552,8.541,3.477,8.811,3.395,9.065C3.35,9.204,3.284,9.237,3.146,9.242c-0.275,0.008-0.561,0-0.823,0.071
	c-0.757,0.208-1.228,0.711-1.448,1.45c-0.022,0.209-0.167,1.69,0.051,2.635c0.302,0.823,1.028,1.349,1.936,1.363
	c0.457,0.006,0.454,0.006,0.625,0.438c0.088,0.225,0.18,0.444,0.28,0.663c0.141,0.31,0.148,0.312-0.103,0.556
	c-0.326,0.319-0.563,0.688-0.646,1.142c-0.123,0.664,0.025,1.268,0.479,1.768c0.358,0.393,0.736,0.77,1.126,1.131
	c0.826,0.768,2.025,0.752,2.848-0.018c0.121-0.115,0.23-0.293,0.37-0.32c0.127-0.025,0.286,0.115,0.433,0.174
	c0.263,0.109,0.523,0.223,0.793,0.311c0.14,0.045,0.18,0.109,0.172,0.246c-0.026,0.467,0.029,0.918,0.277,1.328
	c0.296,0.49,0.719,0.812,1.275,0.959c0.068,0.02,0.135,0.045,0.201,0.066c0.672,0,1.343,0,2.015,0
	c0.267-0.107,0.558-0.178,0.794-0.327c0.67-0.424,0.975-1.058,0.961-1.849c-0.006-0.355,0.002-0.352,0.334-0.479
	c0.273-0.104,0.553-0.197,0.805-0.34c0.213-0.121,0.338-0.084,0.49,0.092c0.295,0.336,0.662,0.572,1.104,0.666
	c0.701,0.153,1.336-0.002,1.865-0.492c0.379-0.352,0.746-0.719,1.099-1.098c0.765-0.826,0.752-2.021-0.019-2.848
	c-0.114-0.121-0.299-0.232-0.319-0.371c-0.022-0.135,0.118-0.297,0.183-0.451c0.105-0.257,0.217-0.509,0.301-0.773
	c0.047-0.139,0.109-0.18,0.25-0.174c0.424,0.023,0.842-0.018,1.229-0.225c0.475-0.254,0.791-0.628,0.976-1.106
	C23.369,12.076,23.049,10.524,23.049,10.524z M21.891,12.673c-0.004,0.459-0.311,0.769-0.767,0.777
	c-0.298,0.004-0.599-0.005-0.897,0.002c-0.371,0.004-0.6,0.176-0.699,0.536c-0.187,0.671-0.448,1.308-0.793,1.912
	c-0.202,0.355-0.162,0.611,0.129,0.906c0.201,0.203,0.406,0.4,0.603,0.605c0.332,0.345,0.332,0.768,0,1.109
	c-0.312,0.317-0.626,0.631-0.942,0.942c-0.34,0.332-0.767,0.332-1.109,0c-0.209-0.198-0.411-0.411-0.619-0.614
	c-0.286-0.277-0.544-0.313-0.893-0.113c-0.598,0.34-1.229,0.599-1.891,0.785c-0.402,0.11-0.56,0.328-0.563,0.748
	c-0.002,0.285,0.005,0.57-0.002,0.854c-0.006,0.457-0.315,0.764-0.773,0.768c-0.453,0.004-0.905,0.004-1.358,0
	c-0.446-0.004-0.756-0.314-0.764-0.756c-0.006-0.291,0-0.584-0.003-0.877c-0.003-0.406-0.164-0.625-0.55-0.732
	c-0.663-0.187-1.293-0.444-1.892-0.784c-0.365-0.209-0.621-0.169-0.925,0.131c-0.202,0.2-0.399,0.407-0.604,0.603
	c-0.335,0.321-0.762,0.321-1.092,0c-0.325-0.316-0.645-0.638-0.96-0.959c-0.323-0.334-0.322-0.761,0-1.093
	c0.202-0.211,0.413-0.411,0.617-0.618c0.28-0.289,0.32-0.55,0.126-0.892c-0.348-0.614-0.614-1.256-0.801-1.935
	c-0.098-0.356-0.328-0.524-0.707-0.526c-0.298-0.007-0.598,0.002-0.896-0.002c-0.444-0.011-0.75-0.321-0.757-0.767
	c-0.004-0.232-0.001-0.467-0.001-0.701c0-0.219-0.003-0.437,0.001-0.656c0.007-0.461,0.31-0.768,0.768-0.776
	c0.298-0.004,0.598,0.003,0.897-0.002c0.373-0.005,0.599-0.176,0.699-0.538C4.657,9.34,4.92,8.703,5.264,8.098
	c0.202-0.354,0.162-0.611-0.128-0.907c-0.2-0.203-0.405-0.4-0.603-0.605C4.202,6.244,4.201,5.818,4.534,5.479
	C4.845,5.16,5.16,4.846,5.478,4.534c0.338-0.333,0.764-0.333,1.108-0.002c0.21,0.203,0.411,0.414,0.62,0.618
	c0.277,0.271,0.541,0.314,0.872,0.126c0.617-0.351,1.267-0.622,1.952-0.807c0.343-0.093,0.514-0.33,0.518-0.694
	c0.005-0.298-0.002-0.597,0.003-0.896c0.006-0.458,0.315-0.765,0.775-0.768c0.444-0.004,0.89-0.004,1.335-0.001
	c0.474,0.004,0.78,0.307,0.786,0.777c0.007,0.292,0,0.583,0.003,0.875c0.006,0.387,0.172,0.609,0.549,0.713
	c0.663,0.184,1.294,0.442,1.892,0.786c0.364,0.208,0.623,0.168,0.926-0.131c0.203-0.2,0.399-0.405,0.604-0.602
	c0.335-0.322,0.761-0.324,1.093-0.001c0.323,0.314,0.643,0.634,0.959,0.958c0.321,0.332,0.323,0.756,0.002,1.093
	C19.268,6.794,19.053,7,18.842,7.216c-0.267,0.274-0.303,0.536-0.113,0.872c0.348,0.611,0.614,1.254,0.801,1.933
	c0.098,0.357,0.33,0.526,0.707,0.529c0.298,0.004,0.598-0.003,0.896,0.003c0.444,0.008,0.752,0.318,0.758,0.763
	C21.896,11.769,21.895,12.22,21.891,12.673z"/>
</svg>
