<?xml version="1.0" encoding="utf-8"?>
<!-- Generator: Adobe Illustrator 16.0.0, SVG Export Plug-In . SVG Version: 6.00 Build 0)  -->
<!DOCTYPE svg PUBLIC "-//W3C//DTD SVG 1.1//EN" "http://www.w3.org/Graphics/SVG/1.1/DTD/svg11.dtd">
<svg version="1.1" id="Vrstva_1" xmlns="http://www.w3.org/2000/svg" xmlns:xlink="http://www.w3.org/1999/xlink" x="0px" y="0px"
	 width="24px" height="24px" viewBox="0 0 24 24" enable-background="new 0 0 24 24" xml:space="preserve">
<g>
	<g>
		<path fill="#00FF00" d="M18.633,16.604c0.395-0.232,0.854-0.364,1.345-0.364c0.475,0,0.921,0.125,1.307,0.344
			c0-0.008,0-0.014,0-0.021c0-1.465-1.187-2.652-2.651-2.652s-2.651,1.187-2.651,2.652c0,0.007,0,0.013,0,0.021
			c0.387-0.219,0.832-0.344,1.308-0.344C17.779,16.239,18.238,16.37,18.633,16.604z"/>
	</g>
	<g>
		<path fill="#0000FF" d="M21.284,16.583c-0.007,0.979-0.547,1.834-1.343,2.286c0,0.007,0,0.015,0,0.021
			c0,0.974-0.525,1.825-1.309,2.286c0.395,0.233,0.854,0.366,1.345,0.366c1.464,0,2.65-1.188,2.65-2.652
			C22.628,17.9,22.086,17.039,21.284,16.583z"/>
	</g>
	<g>
		<path fill="#00FFFF" d="M18.633,16.604c0.777,0.458,1.3,1.301,1.309,2.266c0.796-0.452,1.336-1.307,1.343-2.286
			c-0.386-0.219-0.832-0.346-1.307-0.346C19.486,16.239,19.027,16.37,18.633,16.604z"/>
	</g>
	<g>
		<path fill="#FF0000" d="M17.326,18.89c0-0.006,0-0.014,0-0.021c-0.798-0.452-1.338-1.307-1.345-2.286
			c-0.803,0.456-1.345,1.317-1.345,2.307c0,1.465,1.188,2.652,2.652,2.652c0.49,0,0.949-0.133,1.344-0.366
			C17.85,20.715,17.326,19.863,17.326,18.89z"/>
	</g>
	<g>
		<path fill="#FFFF00" d="M17.326,18.869c0.007-0.965,0.529-1.808,1.307-2.266c-0.395-0.233-0.854-0.364-1.344-0.364
			c-0.476,0-0.921,0.125-1.308,0.344C15.988,17.563,16.528,18.417,17.326,18.869z"/>
	</g>
	<g>
		<path fill="#FF00FF" d="M19.941,18.89c0-0.006,0-0.014,0-0.021c-0.387,0.219-0.832,0.345-1.309,0.345
			c-0.476,0-0.922-0.126-1.307-0.345c0,0.007,0,0.015,0,0.021c0,0.974,0.525,1.825,1.308,2.286
			C19.416,20.715,19.941,19.863,19.941,18.89z"/>
	</g>
	<g>
		<path fill="#FFFFFF" d="M18.633,16.604c-0.776,0.458-1.3,1.301-1.307,2.266c0.385,0.219,0.831,0.345,1.307,0.345
			c0.477,0,0.922-0.126,1.309-0.345C19.933,17.904,19.41,17.062,18.633,16.604z"/>
	</g>
</g>
<g>
	<g>
		<path fill="#292D32" d="M6.526,12.401c1.186,0,2.174-0.972,2.202-2.166C8.743,9.637,8.521,9.07,8.106,8.64
			C7.691,8.21,7.132,7.966,6.528,7.952H6.486c-1.191,0-2.18,0.974-2.202,2.172c-0.012,0.604,0.208,1.172,0.618,1.598
			c0.411,0.427,0.971,0.668,1.575,0.68H6.526z M5.968,9.636C6.111,9.491,6.3,9.411,6.5,9.411V9.263l0,0l0.005,0.148
			C6.919,9.415,7.27,9.768,7.27,10.18c0,0.416-0.343,0.759-0.77,0.763c-0.413,0-0.752-0.339-0.755-0.756
			C5.743,9.979,5.822,9.783,5.968,9.636z"/>
		<path fill="#292D32" d="M8.066,13.631c-1.219,0.01-2.208,1.011-2.204,2.232c0.005,1.222,1,2.216,2.219,2.216
			c0.597,0,1.159-0.234,1.582-0.658c0.421-0.422,0.651-0.98,0.649-1.571C10.302,14.626,9.299,13.631,8.066,13.631z M8.85,15.855
			c0.001,0.2-0.078,0.391-0.221,0.535c-0.145,0.146-0.336,0.225-0.539,0.225c-0.423,0-0.761-0.329-0.768-0.748
			c-0.002-0.207,0.077-0.402,0.223-0.549c0.144-0.146,0.336-0.225,0.54-0.225H8.09C8.499,15.094,8.848,15.442,8.85,15.855z"/>
		<path fill="#292D32" d="M13.416,5.347c-1.225,0-2.227,0.991-2.233,2.21c-0.003,0.59,0.227,1.148,0.647,1.573
			s0.977,0.659,1.565,0.661h0.013c0.595,0,1.153-0.229,1.572-0.645c0.42-0.417,0.651-0.974,0.651-1.566
			C15.636,6.356,14.65,5.354,13.416,5.347z M13.42,6.809V6.66l0,0l0.007,0.148c0.417,0.005,0.754,0.35,0.749,0.767
			c-0.007,0.423-0.343,0.754-0.768,0.754c-0.42,0-0.761-0.341-0.761-0.761C12.647,7.149,12.994,6.809,13.42,6.809z M13.408,9.641
			L13.408,9.641L13.408,9.641L13.408,9.641z"/>
		<path fill="#292D32" d="M19.674,9.169c-0.726-3.362-3.471-6.163-6.834-6.968c-0.735-0.163-1.495-0.254-2.199-0.261h-0.209
			C10.24,1.942,10.045,1.951,9.843,1.97l-0.13,0.017c-0.238,0.029-0.479,0.059-0.697,0.1C8.995,2.088,8.978,2.092,8.95,2.098
			C8.921,2.102,8.893,2.108,8.838,2.122C5.561,2.835,3.242,4.778,1.945,7.896c-0.433,1.042-0.646,2.19-0.65,3.532
			c-0.004,1.095-0.008,2.227,0.246,3.324c0.613,2.661,2.011,4.715,4.155,6.104c1.038,0.666,2.208,1.058,3.491,1.169l0.052,0.013
			c0.114,0.008,0.241,0.012,0.376,0.012c0.703,0,1.361-0.117,1.962-0.352c1.866-0.843,2.761-2.892,2.081-4.764
			c-0.384-1.08-0.019-2.185,0.953-2.883c0.464-0.327,1.001-0.489,1.797-0.543c1.028-0.066,1.979-0.582,2.609-1.414
			C19.652,11.257,19.892,10.189,19.674,9.169z M17.887,11.173c-0.368,0.515-0.935,0.827-1.593,0.881
			c-0.624,0.046-1.436,0.155-2.187,0.589c-1.712,0.985-2.463,2.945-1.825,4.765c0.255,0.726,0.152,1.499-0.281,2.122
			c-0.455,0.652-1.216,1.05-2.036,1.063l-0.107,0.001c-1.75,0-3.297-0.652-4.6-1.94c-1.403-1.383-2.227-3.155-2.448-5.269
			c-0.034-0.323-0.044-0.657-0.053-0.98c-0.005-0.166-0.009-0.331-0.017-0.492c-0.024-1.284,0.118-2.288,0.449-3.16
			c1.167-3.053,3.313-4.825,6.377-5.267c0.369-0.054,0.744-0.08,1.114-0.08c3.542,0,6.638,2.435,7.528,5.921
			C18.375,9.979,18.258,10.653,17.887,11.173z"/>
	</g>
</g>
</svg>
