<?xml version="1.0" encoding="UTF-8" standalone="no"?>
<!-- Created with Inkscape (http://www.inkscape.org/) -->

<svg
   xmlns:dc="http://purl.org/dc/elements/1.1/"
   xmlns:cc="http://creativecommons.org/ns#"
   xmlns:rdf="http://www.w3.org/1999/02/22-rdf-syntax-ns#"
   xmlns:svg="http://www.w3.org/2000/svg"
   xmlns="http://www.w3.org/2000/svg"
   xmlns:sodipodi="http://sodipodi.sourceforge.net/DTD/sodipodi-0.dtd"
   xmlns:inkscape="http://www.inkscape.org/namespaces/inkscape"
   width="30mm"
   height="30mm"
   viewBox="0 0 30 30"
   version="1.1"
   id="svg8"
   inkscape:version="0.92.4 (5da689c313, 2019-01-14)"
   sodipodi:docname="soft-proofing.svg">
  <defs
     id="defs2">
    <inkscape:path-effect
       effect="spiro"
       id="path-effect831"
       is_visible="true" />
  </defs>
  <sodipodi:namedview
     id="base"
     pagecolor="#ffffff"
     bordercolor="#666666"
     borderopacity="1.0"
     inkscape:pageopacity="0.0"
     inkscape:pageshadow="2"
     inkscape:zoom="5.6"
     inkscape:cx="113.0623"
     inkscape:cy="47.635251"
     inkscape:document-units="mm"
     inkscape:current-layer="layer1"
     showgrid="false"
     inkscape:window-width="3840"
     inkscape:window-height="2035"
     inkscape:window-x="-13"
     inkscape:window-y="-13"
     inkscape:window-maximized="1" />
  <metadata
     id="metadata5">
    <rdf:RDF>
      <cc:Work
         rdf:about="">
        <dc:format>image/svg+xml</dc:format>
        <dc:type
           rdf:resource="http://purl.org/dc/dcmitype/StillImage" />
        <dc:title></dc:title>
        <cc:license
           rdf:resource="http://creativecommons.org/licenses/by-sa/4.0/" />
        <dc:creator>
          <cc:Agent>
            <dc:title>Jakub Melka</dc:title>
          </cc:Agent>
        </dc:creator>
      </cc:Work>
      <cc:License
         rdf:about="http://creativecommons.org/licenses/by-sa/4.0/">
        <cc:permits
           rdf:resource="http://creativecommons.org/ns#Reproduction" />
        <cc:permits
           rdf:resource="http://creativecommons.org/ns#Distribution" />
        <cc:requires
           rdf:resource="http://creativecommons.org/ns#Notice" />
        <cc:requires
           rdf:resource="http://creativecommons.org/ns#Attribution" />
        <cc:permits
           rdf:resource="http://creativecommons.org/ns#DerivativeWorks" />
        <cc:requires
           rdf:resource="http://creativecommons.org/ns#ShareAlike" />
      </cc:License>
    </rdf:RDF>
  </metadata>
  <g
     inkscape:label="Vrstva 1"
     inkscape:groupmode="layer"
     id="layer1"
     transform="translate(0,-267)">
    <path
       style="fill:none;stroke:#000000;stroke-width:0.26458332px;stroke-linecap:butt;stroke-linejoin:miter;stroke-opacity:1"
       d="m 11.646391,283.58184 v 0 0"
       id="path837"
       inkscape:connector-curvature="0" />
    <g
       aria-label="🎨"
       style="font-style:normal;font-variant:normal;font-weight:normal;font-stretch:normal;font-size:25.39999962px;line-height:1.25;font-family:sans-serif;-inkscape-font-specification:sans-serif;letter-spacing:0px;word-spacing:0px;fill:#000000;fill-opacity:1;stroke:none;stroke-width:0.26458332"
       id="text843"
       transform="translate(0,0.52916667)">
      <path
         d="m 14.98085,266.83684 q 1.95957,0 3.782715,0.50849 1.823144,0.5085 3.410644,1.43867 1.5875,0.93018 2.889746,2.23242 1.302246,1.30225 2.232422,2.88975 0.930176,1.5875 1.438672,3.41065 0.508496,1.82314 0.508496,3.78271 0,1.97197 -0.508496,3.79512 -0.508496,1.81074 -1.438672,3.39824 -0.930176,1.5875 -2.232422,2.88975 -1.302246,1.30224 -2.889746,2.23242 -1.5875,0.93017 -3.410644,1.43867 -1.823145,0.5085 -3.782715,0.5085 -1.103809,0 -2.083594,-0.42168 -0.967383,-0.42168 -1.699121,-1.15342 -0.719336,-0.71934 -1.141015,-1.69912 -0.4216801,-0.96739 -0.4216801,-2.07119 0,-0.39688 0.049609,-0.70694 0.049609,-0.32246 0.1488281,-0.59531 0.1116211,-0.28525 0.272852,-0.55811 0.173633,-0.27285 0.396875,-0.58291 0.136426,-0.18603 0.248047,-0.31006 0.124023,-0.12402 0.235644,-0.23564 0.111621,-0.11162 0.21084,-0.23564 0.111621,-0.13643 0.21084,-0.34727 H 6.0635646 q -1.1038086,0 -2.0835937,-0.42168 -0.9673828,-0.42168 -1.6991211,-1.14102 -0.7193359,-0.73173 -1.1410156,-1.69912 -0.42167969,-0.97978 -0.42167969,-2.08359 0,-1.95957 0.50849609,-3.78271 0.5084961,-1.82315 1.4386718,-3.41065 0.9301758,-1.5875 2.2324219,-2.88975 1.3022461,-1.30224 2.889746,-2.23242 1.5875,-0.93017 3.3982427,-1.43867 1.823144,-0.50849 3.795117,-0.50849 z m 0,26.73945 q 1.723926,0 3.311426,-0.44649 1.599902,-0.44648 2.988965,-1.26504 1.389062,-0.80615 2.517675,-1.93476 1.141016,-1.14102 1.947168,-2.53008 0.818555,-1.38906 1.265039,-2.97656 0.446485,-1.5999 0.446485,-3.32383 0,-1.72393 -0.446485,-3.31143 -0.446484,-1.5999 -1.265039,-2.98896 -0.806152,-1.38906 -1.947168,-2.51768 -1.128613,-1.14101 -2.517675,-1.94716 -1.389063,-0.81856 -2.988965,-1.26504 -1.5875,-0.44649 -3.311426,-0.44649 -1.723926,0 -3.323828,0.44649 -1.5875,0.44648 -2.9765625,1.26504 -1.3890625,0.80615 -2.5300781,1.94716 -1.1286133,1.12862 -1.947168,2.51768 -0.8061523,1.38906 -1.2526367,2.98896 -0.4464843,1.5875 -0.4464843,3.31143 0,0.74414 0.2728515,1.40146 0.2852539,0.64493 0.7689453,1.12862 0.4836914,0.48369 1.1286133,0.76894 0.6449219,0.27286 1.3890625,0.27286 h 5.34541 q 0.37207,0 0.694531,0.13642 0.322461,0.13643 0.558106,0.38447 0.248047,0.23565 0.384472,0.55811 0.148829,0.32246 0.148829,0.69453 0,0.43408 -0.136426,0.75654 -0.124024,0.31006 -0.322461,0.55811 -0.198438,0.24805 -0.434082,0.47129 -0.235645,0.22324 -0.434082,0.48369 -0.198438,0.24805 -0.334864,0.5581 -0.124023,0.31006 -0.124023,0.74415 0,0.74414 0.272852,1.38906 0.285254,0.64492 0.768945,1.12861 0.483691,0.48369 1.128613,0.75654 0.657324,0.28526 1.401465,0.28526 z m 1.190625,-6.23838 q 0.496094,0 0.917773,0.18603 0.434082,0.18604 0.756543,0.5085 0.322461,0.32246 0.508496,0.75654 0.186036,0.43409 0.186036,0.93018 0,0.49609 -0.347266,0.84336 -0.334863,0.34726 -0.830957,0.34726 -0.496094,0 -0.930176,-0.18603 -0.434082,-0.18604 -0.756543,-0.5085 -0.322461,-0.32246 -0.508496,-0.75654 -0.186035,-0.43408 -0.186035,-0.93018 0,-0.49609 0.347266,-0.84336 0.347265,-0.34726 0.843359,-0.34726 z m 1.488281,-13.81621 q 0,0.47129 -0.173633,0.88056 -0.173632,0.39688 -0.483691,0.70694 -0.297656,0.29765 -0.706934,0.47129 -0.409277,0.17363 -0.868164,0.17363 -0.471289,0 -0.880566,-0.17363 -0.396875,-0.17364 -0.706934,-0.47129 -0.297656,-0.31006 -0.471289,-0.70694 -0.173632,-0.40927 -0.173632,-0.88056 0,-0.45889 0.173632,-0.86817 0.173633,-0.40927 0.471289,-0.70693 0.310059,-0.31006 0.706934,-0.48369 0.409277,-0.17363 0.880566,-0.17363 0.458887,0 0.868164,0.17363 0.409278,0.17363 0.706934,0.48369 0.310059,0.29766 0.483691,0.70693 0.173633,0.40928 0.173633,0.86817 z m -9.3637692,1.33945 q 0.4588867,0 0.8681641,0.17363 0.4092773,0.17364 0.7069336,0.4837 0.3100585,0.29765 0.4836915,0.70693 0.173633,0.40928 0.173633,0.86816 0,0.45889 -0.173633,0.86817 -0.173633,0.39687 -0.4836915,0.70693 -0.2976563,0.29766 -0.7069336,0.47129 -0.4092774,0.17363 -0.8681641,0.17363 -0.4588867,0 -0.868164,-0.17363 -0.4092774,-0.17363 -0.719336,-0.47129 -0.2976562,-0.31006 -0.471289,-0.70693 -0.1736328,-0.40928 -0.1736328,-0.86817 0,-0.45888 0.1736328,-0.86816 0.1736328,-0.40928 0.471289,-0.70693 0.3100586,-0.31006 0.7069336,-0.4837 0.4092774,-0.17363 0.8805664,-0.17363 z m 12.4767572,8.02432 q 0.458887,0 0.868164,0.17363 0.409278,0.17363 0.706934,0.48369 0.310059,0.29766 0.483691,0.70694 0.173633,0.40927 0.173633,0.86816 0,0.45889 -0.173633,0.86816 -0.173632,0.39688 -0.483691,0.70694 -0.297656,0.29765 -0.706934,0.47129 -0.409277,0.17363 -0.868164,0.17363 -0.458886,0 -0.868164,-0.17363 -0.396875,-0.17364 -0.706933,-0.47129 -0.297656,-0.31006 -0.471289,-0.70694 -0.173633,-0.40927 -0.173633,-0.86816 0,-0.45889 0.173633,-0.86816 0.173633,-0.40928 0.471289,-0.70694 0.310058,-0.31006 0.706933,-0.48369 0.409278,-0.17363 0.868164,-0.17363 z m 0.892969,-7.13135 q 0.458887,0 0.868164,0.17363 0.409278,0.17364 0.706934,0.48369 0.310058,0.29766 0.483691,0.70694 0.173633,0.39687 0.173633,0.85576 0,0.47129 -0.173633,0.88057 -0.173633,0.39687 -0.483691,0.70693 -0.297656,0.29766 -0.706934,0.47129 -0.409277,0.17363 -0.868164,0.17363 -0.471289,0 -0.880566,-0.17363 -0.396875,-0.17363 -0.706934,-0.47129 -0.297656,-0.31006 -0.471289,-0.70693 -0.173633,-0.40928 -0.173633,-0.88057 0,-0.45889 0.173633,-0.85576 0.173633,-0.40928 0.471289,-0.70694 0.310059,-0.31005 0.719336,-0.48369 0.409277,-0.17363 0.868164,-0.17363 z"
         style="stroke-width:0.26458332"
         id="path845"
         inkscape:connector-curvature="0" />
    </g>
  </g>
</svg>
