<?xml version="1.0" encoding="UTF-8" standalone="no"?>
<!-- Generator: Adobe Illustrator 16.0.0, SVG Export Plug-In . SVG Version: 6.00 Build 0)  -->

<svg
   xmlns:dc="http://purl.org/dc/elements/1.1/"
   xmlns:cc="http://creativecommons.org/ns#"
   xmlns:rdf="http://www.w3.org/1999/02/22-rdf-syntax-ns#"
   xmlns:svg="http://www.w3.org/2000/svg"
   xmlns="http://www.w3.org/2000/svg"
   xmlns:sodipodi="http://sodipodi.sourceforge.net/DTD/sodipodi-0.dtd"
   xmlns:inkscape="http://www.inkscape.org/namespaces/inkscape"
   version="1.1"
   id="Vrstva_1"
   x="0px"
   y="0px"
   width="256px"
   height="256px"
   viewBox="0 0 256 256"
   enable-background="new 0 0 256 256"
   xml:space="preserve"
   sodipodi:docname="app-icon.svg"
   inkscape:version="0.92.4 (5da689c313, 2019-01-14)"><metadata
   id="metadata908"><rdf:RDF><cc:Work
       rdf:about=""><dc:format>image/svg+xml</dc:format><dc:type
         rdf:resource="http://purl.org/dc/dcmitype/StillImage" /></cc:Work></rdf:RDF></metadata><defs
   id="defs906">
	
	
</defs><sodipodi:namedview
   pagecolor="#ffffff"
   bordercolor="#666666"
   borderopacity="1"
   objecttolerance="10"
   gridtolerance="10"
   guidetolerance="10"
   inkscape:pageopacity="0"
   inkscape:pageshadow="2"
   inkscape:window-width="3840"
   inkscape:window-height="2035"
   id="namedview904"
   showgrid="false"
   inkscape:zoom="1.7167969"
   inkscape:cx="-193.822"
   inkscape:cy="101.95045"
   inkscape:window-x="-13"
   inkscape:window-y="-13"
   inkscape:window-maximized="1"
   inkscape:current-layer="Vrstva_1" />


<g
   id="g927"><g
     id="g889">
		<polygon
   points="41.606,136.482 41.606,149.734 41.606,164.563 41.606,210.88 41.606,222.339 41.606,232.549 41.606,238.801 41.606,249.241 41.606,255.991 214.494,255.991 214.494,82.454 146.473,82.454 146.473,0.01 41.606,0.01 41.606,132.477 41.606,134.876 "
   id="polygon885"
   style="fill:#c53620" />
		<polygon
   points="155.246,0.053 155.246,73.619 214.443,73.619 "
   id="polygon887"
   style="fill:#6cbd45" />
	</g><path
     inkscape:connector-curvature="0"
     id="path848"
     d="m 88.723598,233.67696 c -0.11052,-0.43397 -0.693922,-2.47653 -1.296457,-4.53903 l -1.095525,-3.75 0.681967,-0.72057 c 0.375083,-0.39631 2.154255,-2.08381 3.953715,-3.74999 1.79946,-1.6662 5.083847,-4.71694 7.298634,-6.77944 2.214788,-2.0625 5.545318,-5.16328 7.401188,-6.89063 1.85586,-1.72734 3.44323,-3.14062 3.52749,-3.14062 0.0843,0 0.17519,3.64922 0.20207,8.10938 l 0.0489,8.10937 0.71132,0.34748 c 0.60618,0.29612 0.7943,0.31311 1.27279,0.11491 0.30881,-0.12791 0.66372,-0.41084 0.78868,-0.62873 0.38245,-0.66683 0.42436,-26.40747 0.0508,-31.21503 -0.1608,-2.06962 -0.29749,-3.8711 -0.30376,-4.00329 -0.006,-0.13218 -0.56786,1.70028 -1.24799,4.07216 l -1.2366,4.31251 -0.11138,3.375 -0.11139,3.375 -22.862977,0.0476 -22.862977,0.0476 -0.873473,-0.94515 -0.873472,-0.94515 -0.122925,-3.11679 c -0.06758,-1.71424 -0.122925,-6.47353 -0.122925,-10.57619 v -7.45939 l 1.042995,-1.22941 c 0.573645,-0.67618 1.100985,-1.22481 1.171875,-1.21918 0.07088,0.006 0.696622,0.70173 1.390537,1.54688 l 1.26165,1.53663 0.0037,4.45312 c 0.003,2.90553 0.07057,4.45313 0.19563,4.45313 0.279,0 14.107853,-6.79857 28.72389,-14.1213 l 12.696802,-6.36118 1.11691,-2.83689 c 0.61429,-1.56028 1.84721,-4.73531 2.7398,-7.05563 0.89258,-2.32032 1.88238,-4.84278 2.19954,-5.60547 l 0.57666,-1.38672 2.49053,-1.18908 2.49054,-1.1891 0.10719,-0.79919 c 0.0589,-0.43955 0.53034,-4.30076 1.0475,-8.58044 0.93433,-7.73193 1.28198,-10.12641 1.78306,-12.28125 0.57079,-2.45466 2.01434,-6.40598 3.21123,-8.78987 0.65574,-1.30606 2.77159,-4.4549 3.36594,-5.00924 l 0.48342,-0.45089 0.65795,0.75 c 2.49003,2.83843 5.08228,8.1299 6.32396,12.90888 0.51792,1.99337 1.15055,6.26632 1.89193,12.77862 0.27001,2.37188 0.63253,5.45157 0.80559,6.84375 l 0.31465,2.53125 2.46866,1.21875 2.46866,1.21875 0.47999,1.125 c 0.264,0.61875 1.24448,3.15 2.17884,5.625 2.71001,7.17844 3.76713,9.72526 4.19322,10.10224 0.40963,0.36242 37.08675,18.68539 39.77313,19.86965 l 1.49999,0.66126 0.15313,-4.51168 0.15313,-4.51169 1.23986,-1.48119 c 0.68192,-0.81465 1.29707,-1.4581 1.367,-1.42989 0.07,0.0282 0.56105,0.54958 1.09138,1.1586 l 0.96426,1.1073 v 10.58154 10.58155 l -0.86653,1.01428 -0.86653,1.01428 h -22.9374 -22.93761 l -0.0607,-3.23438 -0.0607,-3.23437 -1.30708,-4.49968 -1.30708,-4.49968 -0.13461,1.03093 c -0.15464,1.1843 -0.54473,28.1578 -0.45903,31.74093 0.052,2.17199 0.0941,2.4206 0.48072,2.83209 0.53957,0.57435 1.25989,0.71168 2.03474,0.38792 0.33518,-0.14005 0.62828,-0.28003 0.65131,-0.31107 0.023,-0.0311 0.0863,-3.69688 0.14063,-8.14628 l 0.0987,-8.08984 3.28124,3.0059 c 1.80469,1.65324 4.92656,4.54097 6.9375,6.41716 10.34906,9.65563 12.11135,11.30936 12.31293,11.55444 0.17176,0.20883 10e-4,1.01669 -0.7871,3.73433 -1.21499,4.18708 -1.6805,5.53902 -1.89509,5.50361 -0.0891,-0.0148 -4.71824,-1.50628 -10.28699,-3.3146 -5.56875,-1.80831 -11.39062,-3.69471 -12.93749,-4.19201 l -2.8125,-0.90415 -0.12881,-2.15625 c -0.0709,-1.18594 -0.22411,-3.75938 -0.34062,-5.71875 -0.39251,-6.60148 -1.83406,-22.41624 -2.13639,-23.4375 -0.33767,-1.14069 -1.04232,19.73058 -1.04783,31.03594 l -0.003,5.34845 -1.38223,1.373 -1.38222,1.373 -1.86201,-0.0652 -1.86199,-0.0652 -1.2089,-1.29214 -1.2089,-1.29213 -0.0937,-4.30259 -0.0937,-4.3026 -0.52608,-0.45214 c -0.76569,-0.65808 -1.65204,-0.60937 -2.26975,0.12474 l -0.48542,0.57689 v 4.10375 4.10375 l -1.17187,1.27248 c -0.64454,0.69987 -1.25625,1.33448 -1.35938,1.41024 -0.10312,0.0758 -1.02967,0.13905 -2.05899,0.14063 l -1.87149,0.003 -1.37502,-1.45313 -1.37503,-1.45312 0.12092,-6.65625 c 0.16273,-8.9582 -0.53104,-30.00311 -0.97446,-29.55968 -0.21932,0.21931 -1.84586,19.15306 -2.21721,25.80937 -0.16396,2.9389 -0.35731,5.39528 -0.42966,5.45863 -0.0724,0.0634 -1.27062,0.47022 -2.66281,0.90417 -1.39218,0.43394 -7.17187,2.30784 -12.843744,4.16422 -5.671873,1.85637 -10.415668,3.40782 -10.541765,3.44766 -0.137528,0.0434 -0.309653,-0.24326 -0.430193,-0.7166 z m 42.092722,-65.96692 c 0.4118,-0.11431 1.04752,-0.51269 1.41957,-0.88957 0.65498,-0.66345 0.69279,-0.78212 1.35299,-4.24504 0.37354,-1.95937 0.76706,-4.27968 0.87447,-5.15625 0.10742,-0.87656 0.32403,-2.64844 0.48135,-3.9375 0.15734,-1.28906 0.30626,-3.69374 0.33096,-5.34374 0.0442,-2.95039 0.0362,-3.01773 -0.48126,-4.07146 -0.95414,-1.943 -3.11525,-3.3348 -5.1781,-3.3348 -2.17323,0 -4.21049,1.30532 -5.20818,3.33702 -0.49801,1.01413 -0.52397,1.19485 -0.50382,3.50674 0.0382,4.39119 0.74287,10.15302 1.87805,15.35783 0.3578,1.64056 0.723,3.11713 0.81154,3.28125 0.31534,0.58455 1.10505,1.1737 1.90976,1.42474 1.02278,0.31906 1.37909,0.32997 2.31267,0.0708 z M 126.03917,138.388 c 1.19916,-0.62011 2.16324,-0.85422 3.55526,-0.86331 1.75127,-0.0114 3.10451,0.45729 4.69014,1.62456 0.62134,0.45741 1.12973,0.74499 1.12973,0.63906 0,-0.10593 -0.25968,-1.94091 -0.57706,-4.07773 -0.76466,-5.14818 -1.21404,-6.12414 -3.26669,-7.09453 -2.40792,-1.13835 -5.19942,-0.0473 -6.29266,2.45938 -0.1799,0.41251 -0.5495,2.39531 -0.82133,4.40625 -0.27184,2.01094 -0.54447,3.90937 -0.60586,4.21876 l -0.11163,0.5625 0.84742,-0.78098 c 0.46608,-0.42953 1.11979,-0.92182 1.45268,-1.09396 z"
     style="fill:#ffffff;fill-opacity:1;stroke-width:0.18749999" /></g></svg>