<?xml version="1.0" encoding="utf-8"?>
<!-- Generator: Adobe Illustrator 16.0.0, SVG Export Plug-In . SVG Version: 6.00 Build 0)  -->
<!DOCTYPE svg PUBLIC "-//W3C//DTD SVG 1.1//EN" "http://www.w3.org/Graphics/SVG/1.1/DTD/svg11.dtd">
<svg version="1.1" id="Vrstva_1" xmlns="http://www.w3.org/2000/svg" xmlns:xlink="http://www.w3.org/1999/xlink" x="0px" y="0px"
	 width="256px" height="256px" viewBox="0 0 256 256" enable-background="new 0 0 256 256" xml:space="preserve">
<g>
	<g>
		<polygon fill="#C53620" points="146.473,82.454 146.473,0.01 41.606,0.01 41.606,132.477 41.606,134.876 41.606,136.482 
			41.606,149.734 41.606,164.563 41.606,210.88 41.606,222.339 41.606,232.549 41.606,238.801 41.606,249.241 41.606,255.991 
			214.494,255.991 214.494,82.454 		"/>
		<polygon fill="#6CBD45" points="155.246,0.053 155.246,73.619 214.443,73.619 		"/>
	</g>
	<g>
		<g>
			<path fill="#FFFFFF" d="M190.029,183.913c-0.811-1-1.609-2.018-2.49-3.038l-5.4,6.486l-1.424,1.625
				c-9.729,11.137-20.436,20.589-34.025,26.535c-12.545,5.456-25.094,5.313-37.66-0.28c-10.674-4.713-19.644-11.681-27.745-19.906
				c-2.429-2.491-4.807-5.123-7.222-7.753c0.791-0.951,1.473-1.845,2.227-2.633c8.298-9.4,17.489-17.575,28.632-23.382
				c7.893-4.113,16.191-6.593,25.244-6.138c5.877,0.279,11.469,1.82,16.871,4.14c8.654,3.833,16.225,9.158,23.152,15.449
				l5.455-6.412c-8.354-7.543-17.596-13.979-28.352-17.951c-7.201-2.78-14.777-4.124-22.512-3.592
				c-9.544,0.686-18.313,3.858-26.557,8.597c-12.487,7.19-22.944,16.869-31.872,28.135c-0.735,0.88-1.23,1.959-1.821,2.892v1.515
				c0.551,0.928,1.033,1.96,1.689,2.767c4.113,5.32,8.629,10.193,13.586,14.7c8.629,7.86,18.078,14.47,29.019,18.644
				c7.307,2.77,14.846,4.052,22.621,3.525c9.521-0.615,18.295-3.787,26.52-8.577c12.453-7.105,22.75-16.682,31.658-27.828
				c0.826-0.938,1.352-2.167,1.947-3.23v-1.515C191.109,185.806,190.646,184.804,190.029,183.913z"/>
			<path fill="#FFFFFF" d="M153.18,187.467c-0.018,13.892-11.355,25.153-25.199,25.063c-13.875-0.067-25.02-11.295-25.002-25.134
				c0.035-13.896,11.363-25.161,25.219-25.064C142.072,162.426,153.232,173.647,153.18,187.467z M144.83,187.467
				c0.018-9.205-7.402-16.699-16.679-16.766c-9.192-0.086-16.836,7.543-16.789,16.766c0.053,9.244,7.544,16.713,16.74,16.713
				C137.305,204.181,144.803,196.711,144.83,187.467z"/>
		</g>
	</g>
</g>
<path fill="#FFFFFF" d="M201.894,124.126c-0.016-0.146-0.027-0.23-0.027-0.23c-0.441-3.699-1.799-6.982-4.536-9.571
	c-3.264-3.082-7.188-4.237-11.601-3.596c-3.511,0.51-6.249,2.457-8.607,4.996c-0.85,0.912-0.82,0.924-0.199,1.993
	c0.593,1.017,1.156,2.049,1.753,3.11c0.124-0.152,0.22-0.285,0.328-0.401c1.049-1.114,2.005-2.342,3.174-3.314
	c4.569-3.803,10.67-2.161,13.357,1.963c2.488,3.815,2.667,7.913,0.886,12.029c-2.438,5.631-9.465,7.549-14.436,3.49
	c-2.028-1.658-3.586-3.691-4.751-6.004c-0.934-1.864-1.673-3.825-2.565-5.709c-1.85-3.894-4.224-7.391-7.831-9.888
	c-4.246-2.942-8.799-3.228-13.429-1.142c-4.354,1.96-6.794,5.554-7.855,10.134c-0.11,0.468-0.189,0.943-0.265,1.419
	c-0.005,0.035-0.254,2.152-0.109,4.147c0.012,0.063,0.024,0.124,0.031,0.189c0.058,0.545,0.14,1.083,0.249,1.617
	c0,0.006,0.001,0.008,0.002,0.014c0.322,1.596,0.869,3.121,1.64,4.588c2.786,5.313,9.118,8.26,14.971,6.949
	c3.249-0.729,5.836-2.527,8.044-4.941c0.686-0.752,0.664-0.756,0.157-1.637c-0.623-1.084-1.225-2.178-1.866-3.322
	c-0.218,0.289-0.412,0.553-0.614,0.813c-1.099,1.41-2.355,2.646-3.887,3.598c-3.767,2.34-8.942,1.484-11.762-1.934
	c-1.536-1.867-2.338-4.018-2.531-6.396c-0.262-3.253,0.41-6.258,2.543-8.826c2.669-3.217,7.729-4.423,11.647-1.951
	c2.266,1.429,3.905,3.422,5.319,5.643c1.401,2.198,2.233,4.661,3.313,7.009c1.787,3.885,4.149,7.354,7.743,9.811
	c4.271,2.922,8.848,3.215,13.495,1.123c3.887-1.75,6.242-4.801,7.462-8.689c0.038-0.113,0.076-0.234,0.114-0.367
	c0.013-0.039,0.021-0.072,0.03-0.111c0.039-0.137,0.074-0.275,0.11-0.412c0.026-0.102,0.053-0.203,0.077-0.301
	c0.021-0.086,0.045-0.168,0.064-0.254c0.017-0.068,0.026-0.141,0.042-0.213c0.051-0.229,0.095-0.451,0.134-0.67
	c0.002-0.02,0.008-0.037,0.011-0.055c0.025-0.15,0.049-0.295,0.07-0.441c0.025-0.161,0.053-0.323,0.076-0.485
	c0.061-0.338,0.096-0.7,0.114-1.063c0-0.116,0-0.229,0-0.347C202.047,125.024,201.895,124.134,201.894,124.126z"/>
</svg>
