<?xml version="1.0" encoding="utf-8"?>
<!-- Generator: Adobe Illustrator 16.0.0, SVG Export Plug-In . SVG Version: 6.00 Build 0)  -->
<!DOCTYPE svg PUBLIC "-//W3C//DTD SVG 1.1//EN" "http://www.w3.org/Graphics/SVG/1.1/DTD/svg11.dtd">
<svg version="1.1" id="Vrstva_1" xmlns="http://www.w3.org/2000/svg" xmlns:xlink="http://www.w3.org/1999/xlink" x="0px" y="0px"
	 width="256px" height="256px" viewBox="0 0 256 256" enable-background="new 0 0 256 256" xml:space="preserve">
<g>
	<g>
		<polygon fill="#C53620" points="146.424,82.456 146.424,0.012 41.555,0.012 41.555,132.479 41.555,134.878 41.555,136.484 
			41.555,149.736 41.555,164.563 41.555,210.882 41.555,222.341 41.555,232.551 41.555,238.803 41.555,249.243 41.555,255.993 
			214.445,255.993 214.445,82.456 		"/>
		<polygon fill="#6CBD45" points="155.248,0.055 155.248,73.621 214.445,73.621 		"/>
	</g>
	<path fill="#FFFFFF" d="M172.148,135.116c-7.619,0-15.232,0.008-22.668,0.03c0.023-3.642,0.023-7.27,0.017-10.908l-0.009-11.133
		l-31.014,30.836l31.006,30.727v-22.006h44.615v-17.538L172.148,135.116z"/>
	<path fill="#FFFFFF" d="M137.501,195.057l-30.951-30.662v21.92l-44.649-0.022v17.405l2.818,0.129
		c0.396,0.027,0.799,0.048,1.19,0.048l40.688,0.008v21.894L137.501,195.057z"/>
</g>
</svg>
