<?xml version="1.0" encoding="utf-8"?>
<!-- Generator: Adobe Illustrator 16.0.0, SVG Export Plug-In . SVG Version: 6.00 Build 0)  -->
<!DOCTYPE svg PUBLIC "-//W3C//DTD SVG 1.1//EN" "http://www.w3.org/Graphics/SVG/1.1/DTD/svg11.dtd">
<svg version="1.1" id="Vrstva_1" xmlns="http://www.w3.org/2000/svg" xmlns:xlink="http://www.w3.org/1999/xlink" x="0px" y="0px"
	 width="256px" height="256px" viewBox="0 0 256 256" enable-background="new 0 0 256 256" xml:space="preserve">
<g>
	<g>
		<polygon fill="#C53620" points="146.424,82.454 146.424,0.009 41.555,0.009 41.555,132.476 41.555,134.875 41.555,136.483 
			41.555,149.734 41.555,164.561 41.555,210.879 41.555,222.338 41.555,232.549 41.555,238.801 41.555,249.24 41.555,255.99 
			214.445,255.99 214.445,82.454 		"/>
		<polygon fill="#6CBD45" points="155.248,0.053 155.248,73.619 214.445,73.619 		"/>
	</g>
	<g>
		<path fill="#FFFFFF" d="M192.199,165.65c-0.854-1.037-1.693-2.096-2.588-3.148l-5.592,6.719l-1.477,1.682
			c-10.063,11.535-21.186,21.324-35.246,27.479c-13.006,5.668-25.996,5.518-39.008-0.277c-11.053-4.9-20.348-12.098-28.746-20.637
			c-2.506-2.588-4.963-5.318-7.471-8.037c0.834-0.967,1.535-1.893,2.307-2.73c8.604-9.725,18.113-18.189,29.643-24.201
			c8.184-4.269,16.779-6.838,26.145-6.363c6.088,0.289,11.889,1.895,17.482,4.277c8.947,3.975,16.779,9.5,23.982,15.996l5.67-6.641
			c-8.67-7.823-18.256-14.473-29.375-18.588c-7.477-2.868-15.303-4.278-23.346-3.726c-9.861,0.713-18.945,3.992-27.479,8.89
			c-12.93,7.465-23.777,17.471-33.006,29.164c-0.771,0.896-1.258,2.021-1.887,2.992v1.529c0.555,0.99,1.049,2.041,1.748,2.873
			c4.26,5.535,8.943,10.563,14.049,15.244c8.957,8.115,18.738,14.963,30.066,19.299c7.551,2.875,15.385,4.191,23.42,3.631
			c9.857-0.629,18.957-3.906,27.484-8.865c12.863-7.357,23.563-17.275,32.785-28.805c0.844-0.982,1.402-2.248,2.029-3.365v-1.523
			C193.318,167.615,192.818,166.576,192.199,165.65z"/>
		<path fill="#FFFFFF" d="M154.039,169.348c-0.027,14.379-11.768,26.051-26.102,25.965c-14.373-0.1-25.922-11.721-25.898-26.041
			c0.039-14.396,11.748-26.074,26.098-25.963C142.514,143.414,154.072,155.018,154.039,169.348z M145.383,169.348
			c0.027-9.547-7.68-17.303-17.283-17.379c-9.529-0.105-17.438,7.814-17.391,17.379c0.053,9.566,7.805,17.314,17.338,17.314
			C137.584,186.662,145.344,178.914,145.383,169.348z"/>
	</g>
</g>
</svg>
